<svg version="1.1" xmlns="http://www.w3.org/2000/svg" xmlns:xlink="http://www.w3.org/1999/xlink" width="172.02023" height="101.69709" viewBox="0,0,172.02023,101.69709"><g transform="translate(-151.98987,-148.66059)"><g stroke-miterlimit="10"><path d="M159.48989,158.03846c0,-1.03711 0.84075,-1.87787 1.87787,-1.87787h153.26449c0.49804,0 0.97568,0.19785 1.32786,0.55002c0.35216,0.35216 0.54999,0.82981 0.54999,1.32786v64.761c0,1.03711 -0.84075,1.87787 -1.87787,1.87787h-153.26449c-1.03711,0 -1.87787,-0.84075 -1.87787,-1.87787z" fill="#1e1e1e" fill-rule="evenodd" stroke="#1e1e1e" stroke-width="15" stroke-linecap="square"/><text transform="translate(166.6037,194.49988) scale(0.27878,0.27878)" font-size="24" xml:space="preserve" fill="#ffffff" fill-rule="nonzero" stroke="#000000" stroke-width="0" stroke-linecap="butt" font-family="Sans Serif" font-weight="bold" text-anchor="start"><tspan x="0" dy="0">Welcome to Star OS. This is still in testing. Use </tspan><tspan x="0" dy="28.799999999999997px">at yyour own risk. Developer is not liable for</tspan><tspan x="0" dy="28.799999999999997px">any damage caused.</tspan></text><text transform="translate(193.28233,175.11399) scale(0.35074,0.35074)" font-size="24" xml:space="preserve" fill="#ffffff" fill-rule="nonzero" stroke="#000000" stroke-width="0" stroke-linecap="butt" font-family="Segoe UI" font-weight="bold" text-anchor="start"><tspan x="0" dy="0">Welcome to StarOS</tspan></text><path d="M176.23727,176.35482c0.89409,-0.03055 2.9024,-0.12234 3.98236,-2.67312c1.09014,-2.57482 -1.0329,-4.27272 -1.0329,-4.27272c0,0 -1.42302,-1.63294 -1.80661,-3.00582c-0.38361,-1.37288 0.07502,-3.12981 0.07502,-3.12981c0,0 0.13041,0.01369 0.19899,0.0222c0.99418,0.12334 2.45067,0.48933 3.88886,1.52071c1.24213,0.89076 2.78562,2.42494 3.39903,4.46672c1.64387,4.77328 -0.93178,9.03541 -3.78891,10.66412c-5.93661,3.38414 -10.75698,-0.29852 -12.18526,-2.68544c-3.08188,-5.15042 -0.77589,-9.58442 1.0833,-11.39627c1.77532,-1.7301 3.93865,-2.31623 5.22645,-2.51469c0.06652,-0.01025 0.19238,-0.02775 0.19238,-0.02775c0,0 0.67146,1.50322 -0.11223,3.44473c-0.81042,2.00772 -2.03819,3.00059 -2.03819,3.00059c0,0 -1.65721,1.83618 -0.38163,4.44395c0.79312,1.62145 2.64804,2.16487 3.29934,2.14261z" fill="#005dc8" fill-rule="nonzero" stroke="none" stroke-width="0" stroke-linecap="butt"/><text transform="translate(188.67355,244.10768) scale(0.5,0.5)" font-size="40" xml:space="preserve" fill="#323232" fill-rule="nonzero" stroke="none" stroke-width="1" stroke-linecap="butt" font-family="Sans Serif" font-weight="normal" text-anchor="start"><tspan x="0" dy="0"> </tspan></text></g></g></svg>