<svg version="1.1" xmlns="http://www.w3.org/2000/svg" xmlns:xlink="http://www.w3.org/1999/xlink" width="20.79295" height="46.13175" viewBox="0,0,20.79295,46.13175"><g transform="translate(-234.79104,-142.93412)"><g data-paper-data="{&quot;isPaintingLayer&quot;:true}" fill-rule="evenodd" stroke-dasharray="" stroke-dashoffset="0" style="mix-blend-mode: normal"><path d="M234.79104,149.3506c0,-3.54374 0.30262,-6.41648 0.6759,-6.41648h19.44114c0.17926,0 0.35118,0.67604 0.47794,1.87935c0.12675,1.20331 0.19797,2.83536 0.19797,4.53711v33.29881c0,3.54374 -0.30261,6.41648 -0.6759,6.41648h-19.44114c-0.3733,0 -0.6759,-2.87275 -0.6759,-6.41648z" fill-opacity="0.00784" fill="#3d3d3d" stroke="none" stroke-width="1" stroke-linecap="square" stroke-linejoin="miter" stroke-miterlimit="10"/><path d="M250.43204,184.54687h-4.61053c-0.22431,0.87149 -1.01623,1.51563 -1.95667,1.51563c-0.9412,0 -1.73236,-0.64414 -1.95743,-1.51562h-2.5902c-0.27887,0 -0.50471,-0.22583 -0.50471,-0.50471v-0.00075c0,-0.27887 0.22583,-0.50471 0.50471,-0.50471h2.5902c0.22507,-0.87149 1.01622,-1.51562 1.95743,-1.51562c0.94045,0 1.73236,0.64414 1.95667,1.51563h4.61053c0.12958,0 0.25917,0.04926 0.35769,0.14777c0.19703,0.19703 0.19703,0.51758 0,0.71462c-0.09851,0.09851 -0.2281,0.14777 -0.35769,0.14777zM243.86484,183.03124c0.55775,0 1.01017,0.45242 1.01017,1.01017c0,0.55775 -0.45242,1.01092 -1.01017,1.01092c-0.55775,0 -1.01092,-0.45317 -1.01092,-1.01092c0,-0.55775 0.45317,-1.01017 1.01092,-1.01017zM250.43204,180.50545h-0.56836c-0.22507,0.87072 -1.01622,1.51563 -1.95743,1.51563c-0.9412,0 -1.73236,-0.6449 -1.95743,-1.51562h-6.63162c-0.27887,0 -0.50471,-0.22658 -0.50471,-0.5047v-0.00152c0,-0.27812 0.22583,-0.5047 0.50471,-0.5047h6.63162c0.22507,-0.87072 1.01622,-1.51562 1.95743,-1.51562c0.9412,0 1.73236,0.6449 1.95743,1.51563h0.56836c0.12958,0 0.25917,0.05002 0.35769,0.14853c0.19703,0.19703 0.19703,0.51683 0,0.71386c-0.09851,0.09851 -0.2281,0.14853 -0.35769,0.14853zM247.90625,178.98983c0.55775,0 1.01017,0.45242 1.01017,1.01017c0,0.55775 -0.45242,1.01017 -1.01017,1.01017c-0.55775,0 -1.01017,-0.45242 -1.01017,-1.01017c0,-0.55775 0.45242,-1.01017 1.01017,-1.01017zM250.43204,176.46328h-6.63086c-0.22507,0.87149 -1.01622,1.51563 -1.95743,1.51563c-0.9412,0 -1.73236,-0.64414 -1.95743,-1.51562h-0.56912c-0.27887,0 -0.50471,-0.22583 -0.50471,-0.50471v-0.00075c0,-0.27887 0.22583,-0.50471 0.50471,-0.50471h0.56912c0.22507,-0.87149 1.01622,-1.51562 1.95743,-1.51562c0.9412,0 1.73236,0.64414 1.95743,1.51563h6.63086c0.12958,0 0.25917,0.04926 0.35769,0.14777c0.19703,0.19703 0.19703,0.51758 0,0.71462c-0.09851,0.09851 -0.2281,0.14777 -0.35769,0.14777zM241.84375,174.94766c0.55775,0 1.01017,0.45317 1.01017,1.01092c0,0.55775 -0.45242,1.01017 -1.01017,1.01017c-0.55775,0 -1.01017,-0.45242 -1.01017,-1.01017c0,-0.55775 0.45242,-1.01092 1.01017,-1.01092z" fill="#191919" stroke="#1b1b1b" stroke-width="0.15" stroke-linecap="butt" stroke-linejoin="round" stroke-miterlimit="2"/></g></g></svg>