<svg version="1.1" xmlns="http://www.w3.org/2000/svg" xmlns:xlink="http://www.w3.org/1999/xlink" width="13.41146" height="28.83462" viewBox="0,0,13.41146,28.83462"><g transform="translate(-240.324,-150.92622)"><g data-paper-data="{&quot;isPaintingLayer&quot;:true}" fill="#ffffff" fill-rule="nonzero" stroke="none" stroke-width="1" stroke-linecap="butt" stroke-linejoin="miter" stroke-miterlimit="10" stroke-dasharray="" stroke-dashoffset="0" style="mix-blend-mode: normal"><path d="M244.309,171.634c-0.589,-1.924 -0.754,-4.192 0.456,-5.922c1.54,-2.575 4.541,-4.039 5.619,-6.923c0.588,-1.714 -0.12,-3.829 -1.827,-4.594c-2.799,-1.296 -6.256,-0.208 -8.233,2.049c0,-1.146 0,-2.292 0,-3.438c3.05,-1.975 7.207,-2.611 10.494,-0.847c1.966,1.035 3.085,3.291 2.897,5.481c-0.082,2.731 -2.08,4.86 -3.999,6.581c-1.373,1.335 -3.031,2.873 -2.904,4.964c-0.193,0.847 0.725,2.184 0.45,2.649c-0.984,0 -1.969,0 -2.953,0zM246.066,179.759c-1.565,0.069 -2.726,-1.816 -1.916,-3.173c0.673,-1.326 2.689,-1.546 3.591,-0.342c1.074,1.161 0.292,3.246 -1.257,3.476l-0.206,0.03l-0.212,0.01z"/></g></g></svg>