<svg version="1.1" xmlns="http://www.w3.org/2000/svg" xmlns:xlink="http://www.w3.org/1999/xlink" width="5.84" height="25.586" viewBox="0,0,5.84,25.586"><g transform="translate(-238.652,-158.978)"><g data-paper-data="{&quot;isPaintingLayer&quot;:true}" fill="#ffffff" fill-rule="nonzero" stroke="none" stroke-width="1" stroke-linecap="butt" stroke-linejoin="miter" stroke-miterlimit="10" stroke-dasharray="" stroke-dashoffset="0" style="mix-blend-mode: normal"><path d="M242.305,163.314c-0.612,0 -1.13,-0.215 -1.553,-0.644c-0.423,-0.43 -0.635,-0.944 -0.635,-1.543c0,-0.599 0.212,-1.107 0.635,-1.524c0.423,-0.416 0.941,-0.625 1.553,-0.625c0.599,0 1.113,0.209 1.543,0.625c0.429,0.417 0.644,0.925 0.644,1.524c0,0.599 -0.215,1.113 -0.644,1.543c-0.43,0.429 -0.944,0.644 -1.543,0.644zM244.062,174.955l-3.125,9.609h-2.285l2.285,-9.609z"/></g></g></svg>