<svg version="1.1" xmlns="http://www.w3.org/2000/svg" xmlns:xlink="http://www.w3.org/1999/xlink" width="9.024" height="34.375" viewBox="0,0,9.024,34.375"><g transform="translate(-240.273,-151.4)"><g data-paper-data="{&quot;isPaintingLayer&quot;:true}" fill="#ffffff" fill-rule="nonzero" stroke="none" stroke-width="1" stroke-linecap="butt" stroke-linejoin="miter" stroke-miterlimit="10" stroke-dasharray="" stroke-dashoffset="0" style="mix-blend-mode: normal"><path d="M249.297,169.72c-2.031,0.131 -3.047,1.511 -3.047,4.141v5.859c0,3.985 -1.992,6.003 -5.977,6.055v-2.461c1.133,-0.026 1.937,-0.351 2.413,-0.976c0.475,-0.625 0.712,-1.654 0.712,-3.086v-5.645c0,-2.747 0.97,-4.414 2.911,-5v-0.078c-1.941,-0.625 -2.911,-2.305 -2.911,-5.039v-5.723c0,-2.526 -1.041,-3.815 -3.125,-3.867v-2.5c3.985,0.052 5.977,2.096 5.977,6.133v5.703c0,2.682 1.016,4.089 3.047,4.219z"/></g></g></svg>