<svg version="1.1" xmlns="http://www.w3.org/2000/svg" xmlns:xlink="http://www.w3.org/1999/xlink" width="96.07292" height="69.80181" viewBox="0,0,96.07292,69.80181"><defs><linearGradient x1="284.0826" y1="128.06135" x2="284.0826" y2="180.86317" gradientUnits="userSpaceOnUse" id="color-1"><stop offset="0" stop-color="#516bb8"/><stop offset="1" stop-color="#b3b6c1"/></linearGradient><linearGradient x1="284.0826" y1="128.06135" x2="284.0826" y2="180.86317" gradientUnits="userSpaceOnUse" id="color-2"><stop offset="0" stop-color="#516bb8"/><stop offset="1" stop-color="#b3b6c1"/></linearGradient></defs><g transform="translate(-236.04615,-119.56135)"><g data-paper-data="{&quot;isPaintingLayer&quot;:true}" fill-rule="nonzero" stroke-miterlimit="10" stroke-dasharray="" stroke-dashoffset="0" style="mix-blend-mode: normal"><path d="M244.54615,128.06135c0,0 6.2702,0 7.93672,0c16.89414,0 71.1362,0 71.1362,0c0,0 0,10.1544 0,16.8121c0,9.74098 0,35.98971 0,35.98971c0,0 -50.3304,0 -64.2317,0c-6.68215,0 -14.84116,0 -14.84116,0z" fill="url(#color-1)" stroke="url(#color-2)" stroke-width="17" stroke-linecap="round" stroke-linejoin="round"/><text transform="translate(241.00999,151.63591) scale(0.33711,0.33711)" font-size="24" xml:space="preserve" fill="#ffffff" fill-rule="nonzero" stroke="#000000" stroke-width="0" stroke-linecap="butt" stroke-linejoin="miter" stroke-miterlimit="10" stroke-dasharray="" stroke-dashoffset="0" font-family="Segoe UI" font-weight="bold" text-anchor="start" style="mix-blend-mode: normal"><tspan x="0" dy="0">New update with settings</tspan><tspan x="0" dy="28.799999999999997px">and files app is coming</tspan><tspan x="0" dy="28.799999999999997px">soon!</tspan></text><text transform="translate(273.1597,136.98419) scale(0.35327,0.35327)" font-size="24" xml:space="preserve" fill="#e3f9fb" fill-rule="nonzero" stroke="#000000" stroke-width="0" stroke-linecap="butt" stroke-linejoin="miter" stroke-miterlimit="10" stroke-dasharray="" stroke-dashoffset="0" font-family="Segoe UI" font-weight="bold" text-anchor="start" style="mix-blend-mode: normal"><tspan x="0" dy="0">News</tspan></text></g></g></svg>