<svg version="1.1" xmlns="http://www.w3.org/2000/svg" xmlns:xlink="http://www.w3.org/1999/xlink" width="14.66795" height="42.63174" viewBox="0,0,14.66795,42.63174"><g transform="translate(-232.16606,-142.80912)"><g data-paper-data="{&quot;isPaintingLayer&quot;:true}" stroke="none" stroke-width="1" stroke-linejoin="miter" stroke-miterlimit="10" stroke-dasharray="" stroke-dashoffset="0" style="mix-blend-mode: normal"><path d="M232.16607,148.73878c0,-3.27488 0.21348,-5.92966 0.4768,-5.92966h13.71435c0.12646,0 0.24773,0.62475 0.33715,1.73676c0.08942,1.11202 0.13965,2.62024 0.13965,4.19288v30.77244c0,3.27488 -0.21347,5.92966 -0.4768,5.92966h-13.71435c-0.26333,0 -0.4768,-2.6548 -0.4768,-5.92966z" fill-opacity="0.00784" fill="#3d3d3d" fill-rule="evenodd" stroke-linecap="square"/><path d="M238.44218,177.50894v4.90479c0.00017,0.13479 -0.07702,0.25771 -0.19851,0.31613c-0.12149,0.05841 -0.26569,0.04193 -0.37088,-0.04237l-1.65574,-1.32481h-0.57774c-0.58022,-0.00063 -1.05042,-0.47083 -1.05106,-1.05105v-0.7006c0.00063,-0.58022 0.47083,-1.05042 1.05106,-1.05105h0.57774l1.65574,-1.32482c0.10516,-0.08418 0.24927,-0.10061 0.37067,-0.04226c0.1214,0.05835 0.19859,0.18116 0.19854,0.31585zM239.33082,178.99815c-0.06828,0.06305 -0.1087,0.15065 -0.11236,0.24352c-0.00366,0.09287 0.02972,0.18338 0.09281,0.25162c0.24234,0.26497 0.24234,0.67111 0,0.93609c-0.13152,0.14208 -0.12295,0.36387 0.01913,0.49539c0.14208,0.13152 0.36387,0.12295 0.49539,-0.01913c0.49075,-0.53351 0.49075,-1.35411 0,-1.88762c-0.1312,-0.14213 -0.35272,-0.15109 -0.49498,-0.02004zM240.81247,178.02133c-0.13396,-0.13959 -0.35572,-0.14415 -0.49532,-0.01018c-0.13959,0.13396 -0.14415,0.35573 -0.01017,0.49532c0.78318,0.81189 0.78318,2.09805 0,2.90994c-0.13396,0.13959 -0.12941,0.36134 0.01017,0.49531c0.13959,0.13396 0.36135,0.1294 0.49532,-0.01018c1.04345,-1.08295 1.04345,-2.79724 0,-3.88019zM241.80371,177.02611c-0.13598,-0.1336 -0.3538,-0.13401 -0.49029,-0.00092c-0.13647,0.13308 -0.14155,0.35086 -0.01142,0.49015c1.3249,1.36167 1.3249,3.53064 0,4.89231c-0.13013,0.1393 -0.12505,0.35708 0.01142,0.49016c0.13647,0.13308 0.35431,0.13267 0.49029,-0.00093c1.59013,-1.63391 1.59013,-4.23687 0,-5.87077z" fill="#424242" fill-rule="nonzero" stroke-linecap="butt"/></g></g></svg>