<svg version="1.1" xmlns="http://www.w3.org/2000/svg" xmlns:xlink="http://www.w3.org/1999/xlink" width="17.44122" height="20.9378" viewBox="0,0,17.44122,20.9378"><g transform="translate(-240.64131,-159.93359)"><g data-paper-data="{&quot;isPaintingLayer&quot;:true}" fill="#ffffff" fill-rule="nonzero" stroke="none" stroke-width="1" stroke-linecap="butt" stroke-linejoin="miter" stroke-miterlimit="10" stroke-dasharray="" stroke-dashoffset="0" style="mix-blend-mode: normal"><path d="M258.082,171.209c-4.707,0 -9.414,0 -14.121,0c0.006,2.285 0.821,4.788 2.866,6.034c2.246,1.343 5.135,1.134 7.477,0.153c0.821,-0.241 1.849,-1.17 2.391,-1.332c0,0.966 0,1.932 0,2.899c-2.439,1.735 -5.586,2.112 -8.498,1.818c-2.576,-0.273 -4.974,-1.834 -6.194,-4.13c-1.368,-2.545 -1.569,-5.57 -1.197,-8.391c0.479,-3.531 2.921,-6.882 6.397,-7.941c2.498,-0.706 5.391,-0.49 7.545,1.048c2.375,1.738 3.269,4.783 3.326,7.606c0.015,0.745 0.005,1.49 0.008,2.236zM254.8,168.494c0.026,-1.984 -0.634,-4.229 -2.47,-5.257c-2.124,-1.146 -5.015,-0.647 -6.57,1.225c-1.004,1.11 -1.56,2.563 -1.76,4.032c3.6,0 7.2,0 10.8,0z"/></g></g></svg>