<svg version="1.1" xmlns="http://www.w3.org/2000/svg" xmlns:xlink="http://www.w3.org/1999/xlink" width="720" height="540" viewBox="0,0,720,540"><defs><linearGradient x1="220.57868" y1="-316.94594" x2="220.57868" y2="277.64865" gradientUnits="userSpaceOnUse" id="color-1"><stop offset="0" stop-color="#000000"/><stop offset="1" stop-color="#000000" stop-opacity="0"/></linearGradient><linearGradient x1="234.08919" y1="-450.15315" x2="234.08919" y2="144.44144" gradientUnits="userSpaceOnUse" id="color-2"><stop offset="0" stop-color="#000000"/><stop offset="1" stop-color="#000000" stop-opacity="0"/></linearGradient><linearGradient x1="220.57268" y1="856.12613" x2="220.57268" y2="261.53154" gradientUnits="userSpaceOnUse" id="color-3"><stop offset="0" stop-color="#000000"/><stop offset="1" stop-color="#000000" stop-opacity="0"/></linearGradient><linearGradient x1="-466.71861" y1="40.35136" x2="127.87598" y2="40.35136" gradientUnits="userSpaceOnUse" id="color-4"><stop offset="0" stop-color="#000000"/><stop offset="1" stop-color="#000000" stop-opacity="0"/></linearGradient><linearGradient x1="951.87598" y1="61.35136" x2="357.28139" y2="61.35136" gradientUnits="userSpaceOnUse" id="color-5"><stop offset="0" stop-color="#000000"/><stop offset="1" stop-color="#000000" stop-opacity="0"/></linearGradient><clipPath id="clip-1"><rect x="-240" y="-180" transform="scale(0.5,0.5)" width="1440" height="1080" fill="none" fill-rule="nonzero" stroke-width="0.5" stroke-linecap="butt"/></clipPath></defs><g transform="translate(120,90)"><g clip-path="url(#clip-1)" data-paper-data="{&quot;isPaintingLayer&quot;:true}" stroke="none" stroke-linejoin="miter" stroke-miterlimit="10" stroke-dasharray="" stroke-dashoffset="0" style="mix-blend-mode: normal"><path d="M-240,-180h960v720h-960z" fill-opacity="0" fill="#000000" fill-rule="evenodd" stroke-width="1" stroke-linecap="square"/><path d="M-385.30934,29.70962l786.01575,-411.62207l317.79523,606.80316c0,0 -10.18601,174.20272 -116.11127,229.67384c-144.12794,75.47716 -669.90448,181.9482 -669.90448,181.9482z" fill-opacity="0.3073" fill="#6e6e6e" fill-rule="evenodd" stroke-width="1" stroke-linecap="square"/><path d="M-163.05495,277.64865v-594.59459h767.26727v594.59459z" fill="url(#color-1)" fill-rule="nonzero" stroke-width="0" stroke-linecap="butt"/><path d="M-149.54444,144.44144v-594.59459h767.26727v594.59459z" fill="url(#color-2)" fill-rule="nonzero" stroke-width="0" stroke-linecap="butt"/><path d="M604.20631,261.53154v594.59459h-767.26727v-594.59459z" data-paper-data="{&quot;index&quot;:null}" fill="url(#color-3)" fill-rule="nonzero" stroke-width="0" stroke-linecap="butt"/><path d="M127.87598,423.98499h-594.59459v-767.26727h594.59459z" fill="url(#color-4)" fill-rule="nonzero" stroke-width="0" stroke-linecap="butt"/><path d="M357.28139,-322.28228h594.59459v767.26727h-594.59459z" data-paper-data="{&quot;index&quot;:null}" fill="url(#color-5)" fill-rule="nonzero" stroke-width="0" stroke-linecap="butt"/></g></g></svg>