<svg version="1.1" xmlns="http://www.w3.org/2000/svg" xmlns:xlink="http://www.w3.org/1999/xlink" width="20.078" height="28.0144" viewBox="0,0,20.078,28.0144"><g transform="translate(-240.344,-152.3936)"><g data-paper-data="{&quot;isPaintingLayer&quot;:true}" fill="#ffffff" fill-rule="nonzero" stroke="none" stroke-width="1" stroke-linecap="butt" stroke-linejoin="miter" stroke-miterlimit="10" stroke-dasharray="" stroke-dashoffset="0" style="mix-blend-mode: normal"><path d="M260.422,180.408c-1.302,0 -2.604,0 -3.906,0c-1.833,-3.027 -3.588,-6.103 -5.478,-9.093c-0.978,-1.542 -2.572,-2.871 -4.491,-2.818c-0.974,-0.008 -1.948,-0.001 -2.922,-0.004c0,3.972 0,7.943 0,11.914c-1.094,0 -2.187,0 -3.281,0c0,-9.336 0,-18.672 0,-28.007c3.159,0.023 6.321,-0.052 9.479,0.044c2.672,0.159 5.488,1.441 6.669,3.972c1.438,3.067 0.783,7.176 -1.98,9.295c-1.022,0.817 -2.242,1.361 -3.504,1.689c0.772,0.498 1.739,1.052 2.324,1.877c1.539,2.049 2.783,4.302 4.171,6.454c0.973,1.559 1.946,3.118 2.919,4.676zM243.625,155.369c0,3.385 0,6.771 0,10.156c1.831,-0.032 3.668,0.073 5.494,-0.071c2.247,-0.236 4.283,-1.987 4.58,-4.273c0.363,-1.931 -0.31,-4.199 -2.182,-5.104c-1.994,-1.021 -4.28,-0.628 -6.432,-0.708c-0.487,0 -0.973,0 -1.46,0z"/></g></g></svg>