<svg xmlns="http://www.w3.org/2000/svg" xmlns:xlink="http://www.w3.org/1999/xlink" version="1.1" width="29.887001037597656" height="29.926000595092773" viewBox="0.1990000605583191 0.4310000538825989 29.887001037597656 29.926000595092773">
  <!-- Exported by Scratch - http://scratch.mit.edu/ -->
  <path id="path3188" fill="#000000" stroke="none" d="M 26.598 29.857 C 25.855 29.857 25.201 29.756 24.635 29.554 C 24.068 29.353 23.544 29.066 23.063 28.695 C 22.581 28.324 22.115 27.871 21.666 27.338 C 21.217 26.804 20.745 26.198 20.25 25.521 C 19.729 26.081 19.127 26.621 18.443 27.142 C 17.76 27.663 17.001 28.125 16.168 28.529 C 15.335 28.933 14.423 29.255 13.434 29.496 C 12.444 29.737 11.37 29.857 10.211 29.857 C 8.805 29.857 7.516 29.681 6.344 29.33 C 5.172 28.978 4.169 28.461 3.336 27.777 C 2.503 27.093 1.855 26.25 1.393 25.248 C 0.93 24.245 0.699 23.093 0.699 21.791 C 0.699 19.798 1.266 18.096 2.398 16.683 C 3.531 15.27 5.133 14.115 7.203 13.216 C 6.812 12.93 6.422 12.595 6.031 12.211 C 5.641 11.826 5.292 11.39 4.986 10.902 C 4.68 10.414 4.433 9.873 4.244 9.281 C 4.055 8.688 3.961 8.041 3.961 7.338 C 3.961 6.309 4.146 5.397 4.518 4.603 C 4.889 3.809 5.4 3.138 6.051 2.591 C 6.702 2.045 7.47 1.631 8.355 1.351 C 9.241 1.071 10.198 0.931 11.227 0.931 C 12.242 0.931 13.17 1.071 14.01 1.351 C 14.85 1.631 15.572 2.032 16.178 2.552 C 16.783 3.073 17.255 3.698 17.594 4.427 C 17.932 5.157 18.102 5.97 18.102 6.869 C 18.102 8.431 17.656 9.73 16.764 10.765 C 15.872 11.8 14.534 12.683 12.75 13.412 C 13.648 13.763 14.462 14.193 15.191 14.701 C 15.921 15.209 16.594 15.775 17.213 16.4 C 17.831 17.025 18.408 17.696 18.941 18.412 C 19.475 19.128 20.003 19.87 20.523 20.638 C 21.578 19.167 22.372 17.546 22.906 15.775 C 23.44 14.004 23.707 12.149 23.707 10.209 C 23.707 9.714 23.678 9.248 23.619 8.812 C 23.561 8.376 23.479 7.943 23.375 7.513 L 26.48 7.513 C 26.585 7.943 26.646 8.35 26.666 8.734 C 26.686 9.118 26.708 9.577 26.734 10.111 C 26.734 11.296 26.611 12.487 26.363 13.685 C 26.116 14.883 25.784 16.045 25.367 17.172 C 24.951 18.298 24.466 19.369 23.912 20.384 C 23.359 21.4 22.776 22.331 22.164 23.177 C 22.62 23.802 23.036 24.346 23.414 24.808 C 23.792 25.27 24.173 25.658 24.557 25.97 C 24.941 26.283 25.338 26.514 25.748 26.664 C 26.158 26.813 26.624 26.888 27.145 26.888 C 27.535 26.888 27.932 26.836 28.336 26.732 C 28.74 26.628 29.156 26.498 29.586 26.341 L 29.586 29.31 C 29.117 29.492 28.626 29.629 28.111 29.72 C 27.597 29.811 27.092 29.857 26.598 29.857 Z M 10.211 27.084 C 11.201 27.084 12.112 26.976 12.945 26.761 C 13.779 26.547 14.547 26.26 15.25 25.902 C 15.953 25.544 16.591 25.127 17.164 24.652 C 17.737 24.177 18.258 23.679 18.727 23.158 C 17.932 21.921 17.2 20.863 16.529 19.984 C 15.859 19.105 15.182 18.347 14.498 17.709 C 13.814 17.071 13.085 16.524 12.311 16.068 C 11.536 15.612 10.641 15.189 9.625 14.798 C 8.805 15.124 8.05 15.485 7.359 15.882 C 6.669 16.28 6.074 16.748 5.572 17.289 C 5.071 17.829 4.677 18.457 4.391 19.173 C 4.104 19.89 3.961 20.729 3.961 21.693 C 3.961 22.578 4.124 23.36 4.449 24.037 C 4.775 24.714 5.221 25.277 5.787 25.726 C 6.354 26.175 7.014 26.514 7.77 26.742 C 8.525 26.97 9.339 27.084 10.211 27.084 Z M 15.094 7.142 C 15.094 6.491 14.973 5.938 14.732 5.482 C 14.492 5.026 14.186 4.649 13.814 4.349 C 13.443 4.05 13.03 3.832 12.574 3.695 C 12.119 3.558 11.669 3.49 11.227 3.49 C 9.951 3.49 8.932 3.835 8.17 4.525 C 7.408 5.215 7.021 6.153 7.008 7.338 C 7.008 7.871 7.089 8.373 7.252 8.841 C 7.415 9.31 7.643 9.746 7.936 10.15 C 8.229 10.554 8.57 10.912 8.961 11.224 C 9.352 11.537 9.768 11.804 10.211 12.025 C 11.852 11.452 13.076 10.785 13.883 10.023 C 14.69 9.261 15.094 8.301 15.094 7.142 Z " stroke-width="1"/>
</svg>