<svg version="1.1" xmlns="http://www.w3.org/2000/svg" xmlns:xlink="http://www.w3.org/1999/xlink" width="20.57143" height="20.93985" viewBox="0,0,20.57143,20.93985"><defs><linearGradient x1="238.48344" y1="205.21805" x2="238.48344" y2="226.1579" gradientUnits="userSpaceOnUse" id="color-1"><stop offset="0" stop-color="#30ffaf"/><stop offset="1" stop-color="#08c5ff"/></linearGradient></defs><g transform="translate(-229.81205,-205.21805)"><g data-paper-data="{&quot;isPaintingLayer&quot;:true}" stroke-linecap="butt" stroke-linejoin="miter" stroke-miterlimit="10" stroke-dasharray="" stroke-dashoffset="0" style="mix-blend-mode: normal"><g fill="none" fill-rule="nonzero" stroke="none" stroke-width="1" font-family="sans-serif" font-weight="normal" font-size="12" text-anchor="start"/><path d="M229.81205,215.68798c0,-5.78238 4.60507,-10.46992 10.28571,-10.46992c5.68064,0 10.28572,4.68755 10.28572,10.46992c0,5.78238 -4.60507,10.46993 -10.28572,10.46993c-5.68064,0 -10.28571,-4.68754 -10.28571,-10.46993z" fill="url(#color-1)" fill-rule="evenodd" stroke="none" stroke-width="1"/><g fill-rule="evenodd"><g><path d="M246.21306,211.21382v0c1.6713,1.70123 1.6713,4.4595 0,6.16074l-5.73858,5.84136c-0.34939,0.35564 -0.91586,0.35564 -1.26525,0l-5.41973,-5.51679l6.37122,-6.48531c1.6713,-1.70123 4.38103,-1.70123 6.05235,0z" fill="#404040" stroke="none" stroke-width="1"/><path d="M240.3505,211.407c1.56649,-1.59454 4.10627,-1.59454 5.67277,0c1.56649,1.59454 1.56649,4.17983 0,5.77437l-5.73858,5.84136c-0.24457,0.24895 -0.6411,0.24895 -0.88567,0l-5.22993,-5.3236z" fill="none" stroke="#373737" stroke-width="0.25"/></g><path d="M240.40637,210.54643l6.15377,6.26398c0.38255,0.3894 0.38255,1.02075 0,1.41016l-5.34237,5.43805c-0.38255,0.3894 -1.0028,0.3894 -1.38536,0l-6.15377,-6.26398c-1.85781,-1.89108 -1.85781,-4.95713 0,-6.84821v0c1.85781,-1.89108 4.86991,-1.89108 6.72772,0z" fill="#ffffff" stroke="none" stroke-width="1"/><g><path d="M236.89815,216.44116v0c0.44971,0.45776 0.44971,1.19994 0,1.6577l-1.25671,1.27923l-1.62854,-1.6577l1.25672,-1.27923c0.44971,-0.45776 1.17882,-0.45776 1.62853,0z" fill="#404040" stroke="none" stroke-width="1"/><path d="M235.46111,216.63609c0.34395,-0.35011 0.90158,-0.35011 1.24553,0c0.34395,0.35011 0.34395,0.91772 0,1.26783l-1.06522,1.0843l-1.24554,-1.26783z" fill="none" stroke="#373737" stroke-width="0.25"/></g><g><path d="M238.44538,217.83077v0c0.45207,0.46016 0.45207,1.20625 0,1.66643l-1.36742,1.39191l-1.63711,-1.66642l1.36742,-1.39191c0.45207,-0.46016 1.18503,-0.46016 1.6371,0z" fill="#404040" stroke="none" stroke-width="1"/><path d="M237.01042,218.03652c0.34044,-0.34653 0.8924,-0.34653 1.23284,0c0.34044,0.34653 0.34044,0.90839 0,1.25492l-1.16529,1.18617l-1.23284,-1.25492z" fill="none" stroke="#373737" stroke-width="0.25"/></g><g><path d="M239.90837,219.20583v0c0.46495,0.47328 0.46495,1.24061 0,1.71389l-1.40637,1.43156l-1.68374,-1.71389l1.40637,-1.43156c0.46495,-0.47328 1.21878,-0.47328 1.68374,0z" fill="#404040" stroke="none" stroke-width="1"/><path d="M238.43253,219.37587c0.35014,-0.35641 0.91781,-0.35641 1.26795,0c0.35014,0.35641 0.35014,0.93426 0,1.29066l-1.19848,1.21994l-1.26795,-1.29065z" fill="none" stroke="#373737" stroke-width="0.25"/></g><g><path d="M241.42307,220.85513v0c0.48077,0.48938 0.48077,1.28283 0,1.77221l-0.75859,0.77218c-0.32305,0.32883 -0.84683,0.32883 -1.16988,0l-1.15609,-1.17679l1.34353,-1.36758c0.48077,-0.48938 1.26025,-0.48938 1.74102,0z" fill="#404040" stroke="none" stroke-width="1"/><path d="M239.88677,221.06354c0.3677,-0.37428 0.96386,-0.37428 1.33157,0c0.3677,0.37428 0.3677,0.98113 0,1.35542l-0.75858,0.77217c-0.20998,0.21374 -0.55044,0.21374 -0.76042,0l-0.95136,-0.96839z" fill="none" stroke="#373737" stroke-width="0.25"/></g><g><path d="M242.16214,212.27509l-1.66241,1.69218c-0.89262,0.9086 -2.28636,0.96302 -3.11302,0.12157l3.27863,-3.33736" fill="#404040" stroke="none" stroke-width="1"/><path d="M240.28853,213.75228c-0.70011,0.71265 -1.74351,0.82314 -2.46046,0.31728l2.83727,-2.88808l1.07438,1.09361z" fill="none" stroke="#373737" stroke-width="0.25"/></g></g></g></g></svg>