<svg version="1.1" xmlns="http://www.w3.org/2000/svg" xmlns:xlink="http://www.w3.org/1999/xlink" width="421.88292" height="287.08666" viewBox="0,0,421.88292,287.08666"><defs><linearGradient x1="130.23661" y1="134.1004" x2="179.30008" y2="134.1004" gradientUnits="userSpaceOnUse" id="color-1"><stop offset="0" stop-color="#e8765a"/><stop offset="1" stop-color="#e85e5e"/></linearGradient><linearGradient x1="130.23661" y1="152.03169" x2="179.30008" y2="152.03169" gradientUnits="userSpaceOnUse" id="color-2"><stop offset="0" stop-color="#e8765a"/><stop offset="1" stop-color="#e85e5e"/></linearGradient><linearGradient x1="141.27591" y1="127.49997" x2="144.95565" y2="127.49997" gradientUnits="userSpaceOnUse" id="color-3"><stop offset="0" stop-color="#e8765a"/><stop offset="1" stop-color="#e85e5e"/></linearGradient><linearGradient x1="164.58104" y1="127.49994" x2="168.26081" y2="127.49994" gradientUnits="userSpaceOnUse" id="color-4"><stop offset="0" stop-color="#e8765a"/><stop offset="1" stop-color="#e85e5e"/></linearGradient><linearGradient x1="144.95565" y1="121.36703" x2="164.58101" y2="121.36703" gradientUnits="userSpaceOnUse" id="color-5"><stop offset="0" stop-color="#e8765a"/><stop offset="1" stop-color="#e85e5e"/></linearGradient></defs><g transform="translate(-0.37755,-41.46656)"><g data-paper-data="{&quot;isPaintingLayer&quot;:true}" stroke-dasharray="" stroke-dashoffset="0" style="mix-blend-mode: normal"><path d="M135.73404,101.60688c0,0 11.71053,0 14.82321,0c31.55267,0 132.85924,0 132.85924,0v87.7255c0,0 -94.00097,0 -119.96383,0c-12.48002,0 -27.71846,0 -27.71846,0z" fill="#e8ffdb" fill-rule="nonzero" stroke="#e8ffdb" stroke-width="17" stroke-linecap="round" stroke-linejoin="round" stroke-miterlimit="10"/><text transform="translate(153.04945,61.34831) scale(0.94675,0.94675)" font-size="24" xml:space="preserve" fill="#ffffff" fill-rule="nonzero" stroke="#000000" stroke-width="0" stroke-linecap="butt" stroke-linejoin="miter" stroke-miterlimit="10" stroke-dasharray="" stroke-dashoffset="0" font-family="&quot;ヒラギノ角ゴ Pro W3&quot;, &quot;Hiragino Kaku Gothic Pro&quot;, Osaka, &quot;メイリオ&quot;, Meiryo, &quot;ＭＳ Ｐゴシック&quot;, &quot;MS PGothic&quot;" font-weight="400" text-anchor="start" style="mix-blend-mode: normal"><tspan x="0" dy="0">Dashboard</tspan></text><path d="M308.13961,96.55311c0,0 8.37524,0 10.6014,0c22.56612,0 95.01946,0 95.01946,0v111.911c0,0 -67.22845,0 -85.79678,0c-8.92557,0 -19.82392,0 -19.82392,0z" fill="#fae4e4" fill-rule="nonzero" stroke="#fae4e4" stroke-width="17" stroke-linecap="round" stroke-linejoin="round" stroke-miterlimit="10"/><text transform="translate(316.69798,97.6925) scale(0.17716,0.17716)" font-size="40" xml:space="preserve" fill="#000000" fill-rule="nonzero" stroke="#000000" stroke-width="1" stroke-linecap="butt" stroke-linejoin="miter" stroke-miterlimit="10" stroke-dasharray="" stroke-dashoffset="0" font-family="&quot;Microsoft YaHei&quot;, &quot;微软雅黑&quot;, STXihei, &quot;华文细黑&quot;" font-weight="normal" text-anchor="start" style="mix-blend-mode: normal"><tspan x="0" dy="0">Oryx OS</tspan></text><text transform="translate(307.82666,164.35805) scale(0.14659,0.14659)" font-size="40" xml:space="preserve" fill="#000000" fill-rule="nonzero" stroke="#000000" stroke-width="1" stroke-linecap="butt" stroke-linejoin="miter" stroke-miterlimit="10" stroke-dasharray="" stroke-dashoffset="0" font-family="Sans Serif" font-weight="normal" text-anchor="start" style="mix-blend-mode: normal"><tspan x="0" dy="0">This is just a beta release of Oryx OS.</tspan><tspan x="0" dy="46.150000000000006px">If you find any bugs please report </tspan><tspan x="0" dy="46.150000000000006px">them in the coments below. </tspan><tspan x="0" dy="46.150000000000006px"> </tspan><tspan x="0" dy="46.150000000000006px">Also don't forget to like and faviourite</tspan><tspan x="0" dy="46.150000000000006px">this OS!</tspan></text><path d="M8.87755,231.01022c0,0 7.42295,0 9.39599,0c20.00029,0 84.21548,0 84.21548,0v89.043c0,0 -59.5844,0 -76.04147,0c-7.9107,0 -17.56989,0 -17.56989,0z" fill="#cdf2ff" fill-rule="nonzero" stroke="#cdf2ff" stroke-width="17" stroke-linecap="round" stroke-linejoin="round" stroke-miterlimit="10"/><text transform="translate(10.43946,272.46629) scale(0.18201,0.18605)" font-size="40" xml:space="preserve" fill="#000000" fill-rule="nonzero" stroke="#000000" stroke-width="1" stroke-linecap="butt" stroke-linejoin="miter" stroke-miterlimit="10" stroke-dasharray="" stroke-dashoffset="0" font-family="&quot;Microsoft YaHei&quot;, &quot;微软雅黑&quot;, STXihei, &quot;华文细黑&quot;" font-weight="normal" text-anchor="start" style="mix-blend-mode: normal"><tspan x="0" dy="0">The dashboard is still a </tspan><tspan x="0" dy="46.150000000000006px">work in progress. This </tspan><tspan x="0" dy="46.150000000000006px">means that it will be</tspan><tspan x="0" dy="46.150000000000006px"> regularly updated and </tspan><tspan x="0" dy="46.150000000000006px">improved to make </tspan><tspan x="0" dy="46.150000000000006px">it better!</tspan></text><text transform="translate(6.84034,241.55443) scale(0.3248,0.3248)" font-size="40" xml:space="preserve" fill="#000000" fill-rule="nonzero" stroke="none" stroke-width="1" stroke-linecap="butt" stroke-linejoin="miter" stroke-miterlimit="10" stroke-dasharray="" stroke-dashoffset="0" font-family="&quot;Microsoft YaHei&quot;, &quot;微软雅黑&quot;, STXihei, &quot;华文细黑&quot;" font-weight="normal" text-anchor="start" style="mix-blend-mode: normal"><tspan x="0" dy="0">Important </tspan><tspan x="0" dy="46.150000000000006px">Announcement</tspan></text><path d="M356.76152,136.74023c2.13614,-0.07299 6.93439,-0.29228 9.51464,-6.38658c2.60457,-6.15174 -2.46782,-10.20834 -2.46782,-10.20834c0,0 -3.39983,-3.90139 -4.31634,-7.18144c-0.9165,-3.28005 0.17921,-7.47772 0.17921,-7.47772c0,0 0.31157,0.03272 0.47541,0.05304c2.37527,0.2947 5.85512,1.16914 9.29125,3.63328c2.96769,2.12821 6.65537,5.79363 8.1209,10.67181c3.9275,11.40427 -2.22616,21.58732 -9.05241,25.47859c-14.18367,8.08536 -25.7005,-0.71325 -29.1129,-6.41603c-7.36319,-12.30532 -1.85375,-22.89899 2.58822,-27.22783c4.24157,-4.13355 9.41016,-5.53393 12.48698,-6.00807c0.15895,-0.02451 0.45965,-0.0663 0.45965,-0.0663c0,0 1.60424,3.59146 -0.26816,8.23009c-1.93624,4.7968 -4.86961,7.16896 -4.86961,7.16896c0,0 -3.95938,4.387 -0.91179,10.61745c1.89494,3.87394 6.32667,5.17229 7.88273,5.11912z" fill="#005dc8" fill-rule="nonzero" stroke="none" stroke-width="0" stroke-linecap="butt" stroke-linejoin="miter" stroke-miterlimit="10"/><path d="M143.13961,235.55313c0,0 13.13296,0 16.62373,0c35.38525,0 148.99713,0 148.99713,0v83.911c0,0 -105.41889,0 -134.53532,0c-13.99592,0 -31.08529,0 -31.08529,0z" fill="#e9d59f" fill-rule="nonzero" stroke="#e9d59f" stroke-width="17" stroke-linecap="round" stroke-linejoin="round" stroke-miterlimit="10"/><path d="M307.19401,98.53454c0.55009,-0.0188 1.78571,-0.07527 2.45016,-1.64464c0.67071,-1.58416 -0.6355,-2.6288 -0.6355,-2.6288c0,0 -0.87551,-1.00467 -1.11152,-1.84933c-0.23601,-0.84466 0.04615,-1.92562 0.04615,-1.92562c0,0 0.08023,0.00843 0.12243,0.01366c0.61167,0.07589 1.50778,0.30107 2.39263,0.93562c0.76422,0.54805 1.71386,1.49194 2.09125,2.74815c1.01139,2.93677 -0.57327,5.55905 -2.33113,6.56111c-3.6525,2.0821 -6.61826,-0.18367 -7.497,-1.65222c-1.89613,-3.1688 -0.47737,-5.89683 0.6665,-7.01157c1.09227,-1.06445 2.42325,-1.42507 3.21558,-1.54717c0.04093,-0.00631 0.11837,-0.01707 0.11837,-0.01707c0,0 0.41312,0.92485 -0.06906,2.11937c-0.49861,1.23525 -1.254,1.84611 -1.254,1.84611c0,0 -1.0196,1.12972 -0.2348,2.73415c0.48797,0.9976 1.62921,1.33194 2.02992,1.31825z" fill="#005dc8" fill-rule="nonzero" stroke="none" stroke-width="0" stroke-linecap="butt" stroke-linejoin="miter" stroke-miterlimit="10"/><text transform="translate(152.52341,61.61172) scale(0.94675,0.94675)" font-size="24" xml:space="preserve" fill="#ffffff" fill-rule="nonzero" stroke="#000000" stroke-width="0" stroke-linecap="butt" stroke-linejoin="miter" stroke-miterlimit="10" stroke-dasharray="" stroke-dashoffset="0" font-family="&quot;ヒラギノ角ゴ Pro W3&quot;, &quot;Hiragino Kaku Gothic Pro&quot;, Osaka, &quot;メイリオ&quot;, Meiryo, &quot;ＭＳ Ｐゴシック&quot;, &quot;MS PGothic&quot;" font-weight="400" text-anchor="start" style="mix-blend-mode: normal"><tspan x="0" dy="0">Dashboard</tspan></text><g stroke="none" stroke-width="1" stroke-linecap="butt"><g fill-rule="nonzero" stroke-linejoin="miter" stroke-miterlimit="10"><g><path d="M130.23661,135.47276l1.58734,-2.74178l45.60018,-0.00297l1.87595,2.74478z" fill="url(#color-1)"/><path d="M176.84687,168.5906h-44.15711c-1.35539,0 -2.45318,-1.09778 -2.45318,-2.45317v-30.66467h49.06347v30.66467c0,1.35539 -1.09779,2.45317 -2.45318,2.45317z" fill="url(#color-2)"/><path d="M144.95565,135.47276h-3.67977v-12.26586l3.67977,-3.67974z" fill="url(#color-3)"/><path d="M164.58104,119.52713l3.67973,3.67976v12.26586h-3.67973z" fill="url(#color-4)"/><path d="M144.95565,123.20689v-3.67976h19.62536v3.67976z" fill="url(#color-5)"/></g><g fill="none" font-family="sans-serif" font-weight="normal" font-size="12" text-anchor="start"><g/></g></g><path d="M157.03722,158.97166c0,1.40166 -1.13711,2.53877 -2.53877,2.53877c-1.40166,0 -2.53876,-1.13711 -2.53876,-2.53877c0,-1.40166 1.13711,-2.53877 2.53876,-2.53877c1.40166,0 2.53877,1.13711 2.53877,2.53877zM149.41952,158.97166c0,1.40166 -1.13711,2.53877 -2.53877,2.53877c-1.40166,0 -2.53876,-1.13711 -2.53876,-2.53877c0,-1.40166 1.13711,-2.53877 2.53876,-2.53877c1.40166,0 2.53877,1.13711 2.53877,2.53877zM164.65493,158.97166c0,1.40166 -1.13711,2.53877 -2.53877,2.53877c-1.40166,0 -2.53876,-1.13711 -2.53876,-2.53877c0,-1.40166 1.13711,-2.53877 2.53876,-2.53877c1.40166,0 2.53877,1.13711 2.53877,2.53877zM157.03722,151.35396c0,1.40166 -1.13711,2.53877 -2.53877,2.53877c-1.40166,0 -2.53876,-1.13711 -2.53876,-2.53877c0,-1.40166 1.13711,-2.53876 2.53876,-2.53876c1.40166,0 2.53877,1.13711 2.53877,2.53876zM149.41952,151.35396c0,1.40166 -1.13711,2.53877 -2.53877,2.53877c-1.40166,0 -2.53876,-1.13711 -2.53876,-2.53877c0,-1.40166 1.13711,-2.53876 2.53876,-2.53876c1.40166,0 2.53877,1.13711 2.53877,2.53876zM164.65493,151.35396c0,1.40166 -1.13711,2.53877 -2.53877,2.53877c-1.40166,0 -2.53876,-1.13711 -2.53876,-2.53877c0,-1.40166 1.13711,-2.53876 2.53876,-2.53876c1.40166,0 2.53877,1.13711 2.53877,2.53876zM164.65493,143.73625c0,1.40166 -1.13711,2.53877 -2.53877,2.53877c-1.40166,0 -2.53876,-1.13711 -2.53876,-2.53877c0,-1.40166 1.13711,-2.53876 2.53876,-2.53876c1.40166,0 2.53877,1.13711 2.53877,2.53876zM157.03722,143.73625c0,1.40166 -1.13711,2.53877 -2.53877,2.53877c-1.40166,0 -2.53876,-1.13711 -2.53876,-2.53877c0,-1.40166 1.13711,-2.53876 2.53876,-2.53876c1.40166,0 2.53877,1.13711 2.53877,2.53876zM149.41952,143.73625c0,1.40166 -1.13711,2.53877 -2.53877,2.53877c-1.40166,0 -2.53876,-1.13711 -2.53876,-2.53877c0,-1.40166 1.13711,-2.53876 2.53876,-2.53876c1.40166,0 2.53877,1.13711 2.53877,2.53876z" fill="#ffffff" fill-rule="evenodd" stroke-linejoin="round" stroke-miterlimit="2"/><path d="M143.41819,162.43598v-22.16068h22.16062v22.16068z" fill="none" fill-rule="evenodd" stroke-linejoin="round" stroke-miterlimit="2"/></g><g fill-rule="nonzero" stroke-linejoin="miter" stroke-miterlimit="10"><path d="M192.00234,296.15115h74.41795" fill="#000000" stroke="#005dc8" stroke-width="1.5" stroke-linecap="round"/><path d="M200.88855,275.95462c2.3723,-0.10139 7.70045,-0.39056 10.50885,-7.18509c2.83488,-6.85858 -2.83841,-11.31671 -2.83841,-11.31671c0,0 -3.81385,-4.30164 -4.86312,-7.93664c-1.04926,-3.635 0.12803,-8.30851 0.12803,-8.30851c0,0 0.34644,0.03337 0.52862,0.0544c2.64144,0.30479 6.51542,1.24313 10.35593,3.94786c3.31696,2.33598 7.44831,6.37277 9.12268,11.77788c4.47132,12.63137 -2.2679,24.00191 -9.81403,28.38949c-15.67945,9.11655 -28.55676,-0.54815 -32.40171,-6.85081c-8.2965,-13.59971 -2.27684,-25.42024 2.61649,-30.27125c4.67256,-4.63215 10.40091,-6.2369 13.81438,-6.79287c0.17635,-0.02874 0.50997,-0.07801 0.50997,-0.07801c0,0 1.81624,3.97443 -0.21966,9.14515c-2.10535,5.34707 -5.34145,8.01005 -5.34145,8.01005c0,0 -4.35668,4.91099 -0.91198,11.80329c2.14182,4.28543 7.0773,5.68566 8.80537,5.61182z" fill="#005dc8" stroke="none" stroke-width="0" stroke-linecap="butt"/><path d="M230.17637,279.84732v-15.28357h3.82089v1.72973h0.54215c0.22374,-0.6196 0.59379,-1.0757 1.11012,-1.36829c0.53355,-0.29259 1.15315,-0.43889 1.85881,-0.43889h1.833v3.45946h-1.91045c-0.98104,0 -1.78997,0.26678 -2.42678,0.80032c-0.63681,0.51634 -0.95522,1.31666 -0.95522,2.40097v8.70028zM244.03548,286.01754v-3.40782h8.31302c0.58518,0 0.87777,-0.30119 0.87777,-0.90359v-3.87253h-0.56797c-0.1549,0.36144 -0.41307,0.71426 -0.77451,1.05849c-0.34423,0.34423 -0.81753,0.63681 -1.41993,0.87777c-0.58518,0.22374 -1.34248,0.33562 -2.27188,0.33562c-1.18757,0 -2.22886,-0.27538 -3.12384,-0.82614c-0.89498,-0.55076 -1.59204,-1.30805 -2.09116,-2.27188c-0.48191,-0.96383 -0.72287,-2.07396 -0.72287,-3.33037v-9.11335h3.87253v8.80354c0,1.15315 0.28399,2.02232 0.85196,2.6075c0.56797,0.56797 1.3769,0.85196 2.42678,0.85196c1.18757,0 2.10837,-0.39586 2.7624,-1.18757c0.65403,-0.79171 0.98104,-1.89324 0.98104,-3.30456v-7.77087h3.89834v17.99434c0,1.04988 -0.3098,1.88463 -0.92941,2.50423c-0.6196,0.63681 -1.43714,0.95522 -2.4526,0.95522zM260.00329,279.84732l5.55062,-7.71924l-5.49899,-7.56434h4.51795l3.48527,5.08592h0.54215l3.48527,-5.08592h4.49213l-5.47317,7.56434l5.55062,7.71924h-4.56958l-3.48527,-5.13755h-0.54215l-3.48527,5.13755z" fill="#005dc8" stroke="none" stroke-width="1" stroke-linecap="square"/><path d="M190.26338,311.63799v-8.2534h3.30897c0.60855,0 1.11567,0.08875 1.52136,0.26624c0.4057,0.17749 0.70997,0.42788 0.91282,0.75117c0.20285,0.31695 0.30427,0.68144 0.30427,1.09348c0,0.32329 -0.06339,0.60855 -0.19017,0.85577c-0.12678,0.24088 -0.30427,0.44056 -0.53248,0.59904c-0.22187,0.15214 -0.47543,0.2599 -0.76068,0.32329v0.07607c0.31061,0.01268 0.60221,0.10142 0.87478,0.26624c0.27892,0.16482 0.50395,0.39619 0.67511,0.69412c0.17115,0.29159 0.25673,0.64024 0.25673,1.04594c0,0.43739 -0.10776,0.82724 -0.32329,1.16955c-0.21553,0.34231 -0.53565,0.61488 -0.96036,0.81773c-0.41838,0.19651 -0.93817,0.29476 -1.5594,0.29476zM192.01295,310.21175h1.42628c0.48176,0 0.83358,-0.09191 1.05545,-0.27575c0.2282,-0.19017 0.34231,-0.44056 0.34231,-0.75117c0,-0.2282 -0.05705,-0.42788 -0.17115,-0.59904c-0.10776,-0.17749 -0.26307,-0.31695 -0.46592,-0.41838c-0.20285,-0.10142 -0.44373,-0.15214 -0.72265,-0.15214h-1.46431zM192.01295,306.83622h1.29316c0.24088,0 0.45324,-0.0412 0.63707,-0.12361c0.19017,-0.08875 0.33914,-0.20919 0.4469,-0.36132c0.10776,-0.15847 0.16165,-0.34548 0.16165,-0.561c0,-0.29793 -0.10459,-0.53882 -0.31378,-0.72265c-0.20919,-0.18383 -0.50712,-0.27575 -0.8938,-0.27575h-1.33119zM197.76641,311.63799v-8.2534h5.572v1.43579h-3.82243v1.96827h3.53717v1.43579h-3.53717v1.97777h3.83194v1.43579zM204.40736,304.82039v-1.43579h6.78909v1.43579h-2.52927v6.81762h-1.73055v-6.81762zM212.71857,311.63799h-1.87318l2.85256,-8.2534h2.25352l2.84305,8.2534h-1.87318l-2.06335,-6.37072h-0.06656zM212.60447,308.3956h4.42147v1.35972h-4.42147zM222.10202,304.82039v-1.43579h6.78909v1.43579h-2.52927v6.81762h-1.73055v-6.81762zM230.00352,311.63799v-8.2534h5.572v1.43579h-3.82243v1.96827h3.53717v1.43579h-3.53717v1.97777h3.83194v1.43579zM241.44625,305.75223c-0.03803,-0.32329 -0.18066,-0.57368 -0.42788,-0.75117c-0.24088,-0.18383 -0.57051,-0.27575 -0.98889,-0.27575c-0.28526,0 -0.52614,0.0412 -0.72265,0.12361c-0.19651,0.07607 -0.34548,0.18383 -0.4469,0.32329c-0.10142,0.13946 -0.15214,0.29793 -0.15214,0.47543c-0.00634,0.15214 0.02219,0.28209 0.08558,0.38985c0.06973,0.10776 0.16482,0.20285 0.28526,0.28526c0.12678,0.07607 0.26941,0.1458 0.42788,0.20919c0.15847,0.05705 0.32646,0.10459 0.50395,0.14263l0.74167,0.18066c0.36132,0.07607 0.69095,0.18383 0.98889,0.32329c0.30427,0.13312 0.56417,0.29793 0.7797,0.49444c0.22187,0.19651 0.39302,0.42788 0.51346,0.69412c0.12678,0.26624 0.19017,0.57051 0.19017,0.91282c0,0.50712 -0.12678,0.94452 -0.38034,1.31218c-0.25356,0.36766 -0.62122,0.65292 -1.10299,0.85577c-0.47543,0.20285 -1.04911,0.30427 -1.72104,0.30427c-0.6656,0 -1.24562,-0.10142 -1.74006,-0.30427c-0.48811,-0.20285 -0.87161,-0.50395 -1.15053,-0.90331c-0.27258,-0.4057 -0.41838,-0.90648 -0.43739,-1.50235h1.69252c0.01902,0.27892 0.09826,0.51029 0.23771,0.69412c0.1458,0.18383 0.33597,0.32329 0.57051,0.41838c0.24088,0.08875 0.51029,0.13312 0.80823,0.13312c0.29793,0 0.55467,-0.0412 0.77019,-0.12361c0.22187,-0.08875 0.39302,-0.20919 0.51346,-0.36132c0.12044,-0.15214 0.18066,-0.32646 0.18066,-0.52297c0,-0.19017 -0.05388,-0.34865 -0.16165,-0.47543c-0.10776,-0.12678 -0.26624,-0.23454 -0.47543,-0.32329c-0.20919,-0.08875 -0.46275,-0.16798 -0.76068,-0.23771l-0.90331,-0.2282c-0.69729,-0.16482 -1.24879,-0.42788 -1.65448,-0.78921c-0.39936,-0.36132 -0.59904,-0.84626 -0.59904,-1.45481c0,-0.50078 0.13312,-0.93817 0.39936,-1.31218c0.27258,-0.374 0.64341,-0.6656 1.1125,-0.87478c0.47543,-0.20919 1.01424,-0.31378 1.61645,-0.31378c0.61488,0 1.15053,0.10459 1.60694,0.31378c0.46275,0.20919 0.8209,0.50078 1.07446,0.87478c0.25356,0.374 0.38668,0.80505 0.39936,1.29316zM244.07895,304.82039v-1.43579h6.78909v1.43579h-2.52927v6.81762h-1.73055v-6.81762zM253.73001,303.38459v8.2534h-1.74957v-8.2534zM262.0782,303.38459v8.2534h-1.51186l-3.59422,-5.20117h-0.05705v5.20117h-1.74957v-8.2534h1.54038l3.55619,5.19166h0.07607v-5.19166zM268.98807,306.047c-0.05705,-0.19651 -0.13629,-0.37083 -0.23771,-0.52297c-0.10142,-0.15214 -0.22503,-0.27892 -0.37083,-0.38034c-0.1458,-0.10776 -0.31378,-0.19017 -0.50395,-0.24722c-0.18383,-0.05705 -0.38985,-0.08558 -0.61805,-0.08558c-0.41838,0 -0.78921,0.10459 -1.1125,0.31378c-0.31695,0.20919 -0.56417,0.51346 -0.74167,0.91282c-0.17749,0.39936 -0.26624,0.88746 -0.26624,1.46431c0,0.57685 0.08558,1.06813 0.25673,1.47382c0.17749,0.39936 0.42471,0.70363 0.74167,0.91282c0.32329,0.20919 0.70363,0.31378 1.14102,0.31378c0.39302,0 0.72899,-0.06973 1.0079,-0.20919c0.28526,-0.13946 0.50078,-0.33597 0.64658,-0.58953c0.15214,-0.2599 0.2282,-0.56734 0.2282,-0.92233l0.35182,0.05705h-2.1204v-1.32169h3.4516v1.04594c0,0.72265 -0.15531,1.34387 -0.46592,1.86367c-0.30427,0.5198 -0.72582,0.92233 -1.26463,1.20758c-0.53248,0.27892 -1.14736,0.41838 -1.84465,0.41838c-0.77336,0 -1.45481,-0.17115 -2.04433,-0.51346c-0.58319,-0.34231 -1.0396,-0.83041 -1.36923,-1.46431c-0.32329,-0.6339 -0.48494,-1.38507 -0.48494,-2.25352c0,-0.67194 0.09826,-1.27097 0.29476,-1.79711c0.19651,-0.52614 0.46909,-0.96987 0.81773,-1.33119c0.35499,-0.36766 0.76385,-0.64658 1.2266,-0.83675c0.46909,-0.19017 0.97621,-0.28526 1.52136,-0.28526c0.46909,0 0.90331,0.06973 1.30267,0.20919c0.4057,0.13312 0.76385,0.32329 1.07446,0.57051c0.31695,0.24722 0.57368,0.54199 0.77019,0.88429c0.20285,0.33597 0.3328,0.7068 0.38985,1.1125z" fill="#005dc8" stroke="none" stroke-width="1" stroke-linecap="square"/></g></g></g></svg>