<svg version="1.1" xmlns="http://www.w3.org/2000/svg" xmlns:xlink="http://www.w3.org/1999/xlink" width="67.88364" height="50.90998" viewBox="0,0,67.88364,50.90998"><defs><linearGradient x1="253.34216" y1="76.39235" x2="257.85983" y2="70.86501" gradientUnits="userSpaceOnUse" id="color-1"><stop offset="0" stop-color="#db0658"/><stop offset="1" stop-color="#ee7026"/></linearGradient><linearGradient x1="269.20682" y1="76.11654" x2="274.37559" y2="70.352" gradientUnits="userSpaceOnUse" id="color-2"><stop offset="0" stop-color="#ff6e1a"/><stop offset="1" stop-color="#edc307"/></linearGradient><linearGradient x1="2929.8483" y1="1040.75422" x2="2990.31183" y2="955.77843" gradientUnits="userSpaceOnUse" id="color-3"><stop offset="0" stop-color="#0e7b8a"/><stop offset="1" stop-color="#05b87c"/></linearGradient><linearGradient x1="300.61118" y1="76.70679" x2="305.18971" y2="70.76573" gradientUnits="userSpaceOnUse" id="color-4"><stop offset="0" stop-color="#1684d9"/><stop offset="1" stop-color="#06c1cf"/></linearGradient><linearGradient x1="252.85674" y1="89.30051" x2="258.26277" y2="84.36893" gradientUnits="userSpaceOnUse" id="color-5"><stop offset="0" stop-color="#5114c4"/><stop offset="1" stop-color="#9906cf"/></linearGradient><linearGradient x1="268.89243" y1="89.83007" x2="273.82403" y2="83.64629" gradientUnits="userSpaceOnUse" id="color-6"><stop offset="0" stop-color="#009e91"/><stop offset="1" stop-color="#2ee631"/></linearGradient></defs><g transform="translate(-244.92411,-64.55436)"><g data-paper-data="{&quot;isPaintingLayer&quot;:true}" fill-rule="nonzero" stroke="none" stroke-width="1" stroke-linecap="butt" stroke-linejoin="miter" stroke-miterlimit="10" stroke-dasharray="" stroke-dashoffset="0" style="mix-blend-mode: normal"><path d="M307.35213,115.46434h-56.97791c-3.01001,0 -5.45011,-2.4401 -5.45011,-5.45011v-40.00976c0.00607,-3.00749 2.44261,-5.44404 5.45011,-5.45011h56.98342c3.00749,0.00607 5.44404,2.44261 5.45011,5.45011v40.00976c0,3.01001 -2.4401,5.45011 -5.45011,5.45011z" fill="#000000"/><path d="M251.70937,74.04793c0,-1.96199 1.59051,-3.5525 3.5525,-3.5525c1.96199,0 3.5525,1.59051 3.5525,3.5525c0,1.96199 -1.59051,3.5525 -3.5525,3.5525c-1.96199,0 -3.5525,-1.59051 -3.5525,-3.5525z" fill="url(#color-1)"/><path d="M267.50784,74.04793c0,-1.96199 1.59051,-3.5525 3.5525,-3.5525c1.96199,0 3.5525,1.59051 3.5525,3.5525c0,1.96199 -1.59051,3.5525 -3.5525,3.5525c-1.96199,0 -3.5525,-1.59051 -3.5525,-3.5525z" fill="url(#color-2)"/><path d="M283.30656,74.04793c0,-1.96199 1.59051,-3.5525 3.5525,-3.5525c1.96199,0 3.5525,1.59051 3.5525,3.5525c0,1.96199 -1.59051,3.5525 -3.5525,3.5525c-1.96199,0 -3.5525,-1.59051 -3.5525,-3.5525z" fill="url(#color-3)"/><path d="M299.10519,74.04793c0,-1.96199 1.59051,-3.5525 3.5525,-3.5525c1.96199,0 3.5525,1.59051 3.5525,3.5525c0,1.96199 -1.59051,3.5525 -3.5525,3.5525c-1.96199,0 -3.5525,-1.59051 -3.5525,-3.5525z" fill="url(#color-4)"/><path d="M251.70937,87.11054c0,-1.96199 1.59051,-3.5525 3.5525,-3.5525c1.96199,0 3.5525,1.59051 3.5525,3.5525c0,1.96199 -1.59051,3.5525 -3.5525,3.5525c-1.96199,0 -3.5525,-1.59051 -3.5525,-3.5525z" fill="url(#color-5)"/><path d="M267.50784,87.11054c0,-1.96199 1.59051,-3.5525 3.5525,-3.5525c1.96199,0 3.5525,1.59051 3.5525,3.5525c0,1.96199 -1.59051,3.5525 -3.5525,3.5525c-1.96199,0 -3.5525,-1.59051 -3.5525,-3.5525z" fill="url(#color-6)"/></g></g></svg>