<svg version="1.1" xmlns="http://www.w3.org/2000/svg" xmlns:xlink="http://www.w3.org/1999/xlink" width="4.375" height="20.86" viewBox="0,0,4.375,20.86"><g transform="translate(-240.469,-158.978)"><g data-paper-data="{&quot;isPaintingLayer&quot;:true}" fill="#ffffff" fill-rule="nonzero" stroke="none" stroke-width="1" stroke-linecap="butt" stroke-linejoin="miter" stroke-miterlimit="10" stroke-dasharray="" stroke-dashoffset="0" style="mix-blend-mode: normal"><path d="M242.637,163.314c-0.599,0 -1.11,-0.215 -1.533,-0.644c-0.424,-0.43 -0.635,-0.944 -0.635,-1.543c0,-0.599 0.211,-1.107 0.635,-1.524c0.423,-0.416 0.934,-0.625 1.533,-0.625c0.612,0 1.133,0.209 1.562,0.625c0.43,0.417 0.645,0.925 0.645,1.524c0,0.599 -0.215,1.113 -0.645,1.543c-0.429,0.429 -0.95,0.644 -1.562,0.644zM242.637,179.838c-0.599,0 -1.11,-0.215 -1.533,-0.645c-0.424,-0.43 -0.635,-0.944 -0.635,-1.543c0,-0.599 0.211,-1.116 0.635,-1.553c0.423,-0.436 0.934,-0.654 1.533,-0.654c0.612,0 1.133,0.218 1.562,0.654c0.43,0.437 0.645,0.954 0.645,1.553c0,0.599 -0.215,1.113 -0.645,1.543c-0.429,0.43 -0.95,0.645 -1.562,0.645z"/></g></g></svg>