<svg version="1.1" xmlns="http://www.w3.org/2000/svg" xmlns:xlink="http://www.w3.org/1999/xlink" width="29.71795" height="29.09296" viewBox="0,0,29.71795,29.09296"><g transform="translate(-225.14102,-165.3766)"><g data-paper-data="{&quot;isPaintingLayer&quot;:true}" stroke="none" stroke-width="1" stroke-linejoin="miter" stroke-miterlimit="10" stroke-dasharray="" stroke-dashoffset="0" style="mix-blend-mode: normal"><path d="M225.14103,169.42315c0,-2.23485 1.85062,-4.04655 4.13348,-4.04655h21.45101c1.09626,0 2.14763,0.42634 2.92281,1.18521c0.77516,0.75887 1.21065,1.78812 1.21065,2.86133v20.99987c0,2.23485 -1.85061,4.04655 -4.13346,4.04655h-21.45101c-2.28286,0 -4.13348,-1.8117 -4.13348,-4.04655z" fill-opacity="0.00784" fill="#3d3d3d" fill-rule="evenodd" stroke-linecap="square"/><path d="M239.1192,173.8862c-0.15747,-0.14803 -0.3513,-0.25177 -0.56181,-0.30069c-0.24751,-0.0562 -0.50119,-0.08067 -0.75489,-0.0728h-2.21561c-0.25107,-0.0077 -0.50211,0.01676 -0.74698,0.0728c-0.21051,0.04892 -0.40435,0.15265 -0.56181,0.30069l-0.01266,0.01425c-0.30745,0.36737 -0.44794,0.8462 -0.38774,1.32145v2.20295c-0.06199,0.47538 0.07872,0.95493 0.38774,1.32146c0.37045,0.30751 0.8517,0.44787 1.32936,0.38773h2.20295c0.47767,0.06014 0.95892,-0.08022 1.32937,-0.38773c0.30901,-0.36652 0.44972,-0.84608 0.38773,-1.32146v-2.20611c0.0617,-0.47634 -0.0789,-0.95674 -0.38773,-1.32461zM245.89581,173.89411c0.30856,0.36917 0.44806,0.85085 0.38457,1.32778v2.20928c0.06199,0.47538 -0.07872,0.95493 -0.38773,1.32145c-0.37045,0.30751 -0.8517,0.44787 -1.32936,0.38773h-2.20295c-0.47767,0.06014 -0.95892,-0.08022 -1.32937,-0.38773c-0.30901,-0.36652 -0.44972,-0.84607 -0.38773,-1.32145v-2.21561c-0.0602,-0.47525 0.08028,-0.95408 0.38773,-1.32145l0.01266,-0.01425c0.15747,-0.14803 0.3513,-0.25177 0.56182,-0.30069c0.24488,-0.05604 0.4959,-0.0805 0.74698,-0.0728h2.21561c0.25368,-0.00769 0.50735,0.01677 0.75489,0.0728c0.21051,0.04892 0.40435,0.15266 0.56181,0.30069l0.01266,0.01425zM239.12712,180.77991c0.30883,0.36787 0.44943,0.84828 0.38773,1.32462v2.20611c0.06239,0.4754 -0.07836,0.95512 -0.38773,1.32146c-0.37045,0.30751 -0.8517,0.44787 -1.32937,0.38773h-2.2077c-0.47767,0.06014 -0.95892,-0.08022 -1.32937,-0.38773c-0.30937,-0.36633 -0.45012,-0.84605 -0.38773,-1.32146v-2.21561c-0.0602,-0.47525 0.08028,-0.95409 0.38773,-1.32145l0.01266,-0.01266c0.15669,-0.14974 0.35072,-0.25468 0.56182,-0.30385c0.24488,-0.05604 0.4959,-0.0805 0.74697,-0.0728h2.21561c0.2537,-0.00787 0.50738,0.0166 0.75489,0.0728c0.2111,0.04917 0.40512,0.15411 0.56181,0.30385zM245.89264,180.77991c0.30883,0.36787 0.44943,0.84828 0.38773,1.32462v2.20611c0.06239,0.4754 -0.07836,0.95512 -0.38773,1.32146c-0.37045,0.30751 -0.8517,0.44787 -1.32936,0.38773h-2.20295c-0.47767,0.06014 -0.95892,-0.08022 -1.32937,-0.38773c-0.30937,-0.36633 -0.45012,-0.84605 -0.38773,-1.32146v-2.21561c-0.0602,-0.47525 0.08028,-0.95409 0.38773,-1.32145l0.01266,-0.01266c0.15669,-0.14974 0.35072,-0.25468 0.56182,-0.30385c0.24488,-0.05604 0.4959,-0.0805 0.74698,-0.0728h2.21561c0.25368,-0.00769 0.50735,0.01677 0.75489,0.0728c0.2111,0.04917 0.40512,0.15411 0.56181,0.30385z" fill="#000000" fill-rule="nonzero" stroke-linecap="butt"/></g></g></svg>