<svg version="1.1" xmlns="http://www.w3.org/2000/svg" xmlns:xlink="http://www.w3.org/1999/xlink" width="31.83058" height="24.85037" viewBox="0,0,31.83058,24.85037"><g transform="translate(-22.83534,-211.84851)"><g data-paper-data="{&quot;isPaintingLayer&quot;:true}" fill="#ffffff" fill-rule="nonzero" stroke="none" stroke-width="1" stroke-linecap="butt" stroke-linejoin="miter" stroke-miterlimit="10" stroke-dasharray="" stroke-dashoffset="0" style="mix-blend-mode: normal"><path d="M54.58428,219.5499v9.42676c0.1727,2.12127 -0.50565,4.2241 -1.88535,5.84459c-1.58678,1.34878 -3.6426,2.01522 -5.7189,1.85393h-16.65393c-2.07631,0.16129 -4.13213,-0.50515 -5.7189,-1.85393c-1.04414,-1.16524 -1.6642,-2.64892 -1.75966,-4.21062v0c0.01414,-0.11479 0.01414,-0.23086 0,-0.34564c0,-0.12569 0,-0.37707 0,-0.37707c-0.01625,-0.29305 -0.01625,-0.58679 0,-0.87983v-9.42676c0.00006,-1.16816 0.15862,-2.33093 0.47134,-3.45648c0.50594,-1.82163 1.92196,-3.24953 3.73928,-3.7707l0.75414,-0.18854c0.85648,-0.18878 1.731,-0.28359 2.60807,-0.2828h16.65394c0.60665,-0.04572 1.21586,-0.04572 1.8225,0c1.46407,0.12707 2.84502,0.73469 3.92782,1.72824c0.4698,0.50974 0.85205,1.09373 1.13121,1.72824c0.18536,0.47213 0.34276,0.95477 0.47134,1.44544c0.11957,0.56925 0.19313,1.1472 0.21996,1.72824c0.03142,0.31422 0.03142,0.62845 -0.06285,1.03694zM27.43522,218.82719c-0.06287,0.4166 -0.06287,0.8403 0,1.2569c0.37079,1.67863 2.02166,2.74768 3.70506,2.3993c1.6834,-0.34838 2.7744,-1.98484 2.44851,-3.67273c-0.32588,-1.68789 -1.94767,-2.8006 -3.63977,-2.49724c-1.27695,0.23783 -2.27596,1.23685 -2.5138,2.5138zM52.03906,228.94524v-1.66539c0.00314,-0.71791 -0.27951,-1.40758 -0.78556,-1.91678l-1.60255,-1.60255c-0.74009,-0.84282 -1.77421,-1.37113 -2.89087,-1.47686c-1.13341,0.10285 -2.18189,0.64401 -2.92229,1.50829l-5.53037,5.56179c-0.66132,0.65497 -1.72679,0.65497 -2.38811,0l-1.19405,-1.22548c-0.72395,-0.85874 -1.76949,-1.38155 -2.89087,-1.44544c-1.13727,0.08936 -2.19062,0.63303 -2.92229,1.50828l-2.26243,2.26243c-0.34945,0.33751 -0.54682,0.80249 -0.54682,1.28832c0,0.48583 0.19737,0.95082 0.54682,1.28833v0c0.61997,0.65149 1.48937,1.00612 2.38811,0.9741h18.03653c1.37307,0.15517 2.75397,-0.21531 3.86497,-1.03695c0.87132,-1.14881 1.26532,-2.58975 1.09979,-4.02209z"/><path d="M54.58428,219.5499v9.42676c0.1727,2.12127 -0.50565,4.2241 -1.88535,5.84459c-1.58678,1.34878 -3.6426,2.01522 -5.7189,1.85393h-16.65393c-2.07631,0.16129 -4.13213,-0.50515 -5.7189,-1.85393c-1.04414,-1.16524 -1.6642,-2.64892 -1.75966,-4.21062v0c0.01414,-0.11479 0.01414,-0.23086 0,-0.34564c0,-0.12569 0,-0.37707 0,-0.37707c-0.01625,-0.29305 -0.01625,-0.58679 0,-0.87983v-9.42676c0.00006,-1.16816 0.15862,-2.33093 0.47134,-3.45648c0.50594,-1.82163 1.92196,-3.24953 3.73928,-3.7707l0.75414,-0.18854c0.85648,-0.18878 1.731,-0.28359 2.60807,-0.2828h16.65394c0.60665,-0.04572 1.21586,-0.04572 1.8225,0c1.46407,0.12707 2.84502,0.73469 3.92782,1.72824c0.4698,0.50974 0.85205,1.09373 1.13121,1.72824c0.18536,0.47213 0.34276,0.95477 0.47134,1.44544c0.11957,0.56925 0.19313,1.1472 0.21996,1.72824c0.03142,0.31422 0.03142,0.62845 -0.06285,1.03694zM27.43522,218.82719c-0.06287,0.4166 -0.06287,0.8403 0,1.2569c0.37079,1.67863 2.02166,2.74768 3.70506,2.3993c1.6834,-0.34838 2.7744,-1.98484 2.44851,-3.67273c-0.32588,-1.68789 -1.94767,-2.8006 -3.63977,-2.49724c-1.27695,0.23783 -2.27596,1.23685 -2.5138,2.5138zM52.03906,228.94524v-1.66539c0.00314,-0.71791 -0.27951,-1.40758 -0.78556,-1.91678l-1.60255,-1.60255c-0.74009,-0.84282 -1.77421,-1.37113 -2.89087,-1.47686c-1.13341,0.10285 -2.18189,0.64401 -2.92229,1.50829l-5.53037,5.56179c-0.66132,0.65497 -1.72679,0.65497 -2.38811,0l-1.19405,-1.22548c-0.72395,-0.85874 -1.76949,-1.38155 -2.89087,-1.44544c-1.13727,0.08936 -2.19062,0.63303 -2.92229,1.50828l-2.26243,2.26243c-0.34945,0.33751 -0.54682,0.80249 -0.54682,1.28832c0,0.48583 0.19737,0.95082 0.54682,1.28833v0c0.61997,0.65149 1.48937,1.00612 2.38811,0.9741h18.03653c1.37307,0.15517 2.75397,-0.21531 3.86497,-1.03695c0.87132,-1.14881 1.26532,-2.58975 1.09979,-4.02209z"/><path d="M54.58428,219.5499v9.42676c0.1727,2.12127 -0.50565,4.2241 -1.88535,5.84459c-1.58678,1.34878 -3.6426,2.01522 -5.7189,1.85393h-16.65393c-2.07631,0.16129 -4.13213,-0.50515 -5.7189,-1.85393c-1.04414,-1.16524 -1.6642,-2.64892 -1.75966,-4.21062v0c0.01414,-0.11479 0.01414,-0.23086 0,-0.34564c0,-0.12569 0,-0.37707 0,-0.37707c-0.01625,-0.29305 -0.01625,-0.58679 0,-0.87983v-9.42676c0.00006,-1.16816 0.15862,-2.33093 0.47134,-3.45648c0.50594,-1.82163 1.92196,-3.24953 3.73928,-3.7707l0.75414,-0.18854c0.85648,-0.18878 1.731,-0.28359 2.60807,-0.2828h16.65394c0.60665,-0.04572 1.21586,-0.04572 1.8225,0c1.46407,0.12707 2.84502,0.73469 3.92782,1.72824c0.4698,0.50974 0.85205,1.09373 1.13121,1.72824c0.18536,0.47213 0.34276,0.95477 0.47134,1.44544c0.11957,0.56925 0.19313,1.1472 0.21996,1.72824c0.03142,0.31422 0.03142,0.62845 -0.06285,1.03694zM27.43522,218.82719c-0.06287,0.4166 -0.06287,0.8403 0,1.2569c0.37079,1.67863 2.02166,2.74768 3.70506,2.3993c1.6834,-0.34838 2.7744,-1.98484 2.44851,-3.67273c-0.32588,-1.68789 -1.94767,-2.8006 -3.63977,-2.49724c-1.27695,0.23783 -2.27596,1.23685 -2.5138,2.5138zM52.03906,228.94524v-1.66539c0.00314,-0.71791 -0.27951,-1.40758 -0.78556,-1.91678l-1.60255,-1.60255c-0.74009,-0.84282 -1.77421,-1.37113 -2.89087,-1.47686c-1.13341,0.10285 -2.18189,0.64401 -2.92229,1.50829l-5.53037,5.56179c-0.66132,0.65497 -1.72679,0.65497 -2.38811,0l-1.19405,-1.22548c-0.72395,-0.85874 -1.76949,-1.38155 -2.89087,-1.44544c-1.13727,0.08936 -2.19062,0.63303 -2.92229,1.50828l-2.26243,2.26243c-0.34945,0.33751 -0.54682,0.80249 -0.54682,1.28832c0,0.48583 0.19737,0.95082 0.54682,1.28833v0c0.61997,0.65149 1.48937,1.00612 2.38811,0.9741h18.03653c1.37307,0.15517 2.75397,-0.21531 3.86497,-1.03695c0.87132,-1.14881 1.26532,-2.58975 1.09979,-4.02209z"/></g></g></svg>