<svg version="1.1" xmlns="http://www.w3.org/2000/svg" xmlns:xlink="http://www.w3.org/1999/xlink" width="693.96651" height="477.21883" viewBox="0,0,693.96651,477.21883"><g transform="translate(106.98326,58.6094)"><g data-paper-data="{&quot;isPaintingLayer&quot;:true}" stroke-miterlimit="10" stroke-dasharray="" stroke-dashoffset="0" style="mix-blend-mode: normal"><path d="M-101.44242,418.60943c-2.62102,0 -5.54084,-2.24321 -5.54084,-5.46075c0,-19.31983 0,-454.45608 0,-465.88657c0,-3.1637 2.56239,-5.8715 5.71507,-5.8715c12.85022,0 656.12603,0 681.64458,0c4.50772,0 6.60686,2.46849 6.60686,6.64978c0,21.01068 0,452.31594 0,463.94091c0,3.52652 -2.21917,6.62813 -6.08416,6.62813c0,0 -670.29722,0 -682.34153,0z" fill-opacity="0.54902" fill="#171717" fill-rule="nonzero" stroke="none" stroke-width="0" stroke-linecap="butt" stroke-linejoin="miter"/><path d="M-101.44242,418.60943c-2.62102,0 -5.54084,-2.2432 -5.54084,-5.46075c0,-19.31983 0,-454.45608 0,-465.88657c0,-3.1637 2.56239,-5.8715 5.71507,-5.8715c12.85022,0 656.12604,0 681.64458,0c4.50772,0 6.60686,2.46849 6.60686,6.64978c0,21.01068 0,452.31594 0,463.9409c0,3.52652 -2.21917,6.62814 -6.08416,6.62814c0,0 -670.29723,0 -682.34153,0z" fill-opacity="0.54902" fill="#171717" fill-rule="nonzero" stroke="none" stroke-width="0" stroke-linecap="butt" stroke-linejoin="miter"/><path d="M123.23408,126.10689c0,0 18.41099,0 23.30466,0c49.60627,0 208.87779,0 208.87779,0v107.02869c0,0 -147.78584,0 -188.60397,0c-19.62076,0 -43.57823,0 -43.57823,0z" fill="#f9f9f9" fill-rule="nonzero" stroke="#f9f9f9" stroke-width="17" stroke-linecap="round" stroke-linejoin="round"/><text transform="translate(170.57105,149.75806) scale(0.57207,0.57207)" font-size="24" xml:space="preserve" fill="#000000" fill-rule="nonzero" stroke="#000000" stroke-width="0" stroke-linecap="butt" stroke-linejoin="miter" stroke-miterlimit="10" stroke-dasharray="" stroke-dashoffset="0" font-family="Segoe UI Black" font-weight="400" text-anchor="start" style="mix-blend-mode: normal"><tspan x="0" dy="0">This feature is unfinished!</tspan></text><text transform="translate(126.13405,164.24219) scale(0.35912,0.35912)" font-size="24" xml:space="preserve" fill="#636371" fill-rule="nonzero" stroke="#000000" stroke-width="0" stroke-linecap="butt" stroke-linejoin="miter" stroke-miterlimit="10" stroke-dasharray="" stroke-dashoffset="0" font-family="Segoe UI" font-weight="bold" text-anchor="start" style="mix-blend-mode: normal"><tspan x="0" dy="0">It is currently being developed and wiil be available soon</tspan></text><path d="M353.39801,203.45534c1.03562,0 1.87516,0.83953 1.87516,1.87516v26.33903c0,0.49732 -0.19757,0.97427 -0.54923,1.32595c-0.35165,0.35165 -0.82861,0.5492 -1.32594,0.5492h-226.79591c-1.03562,0 -1.87516,-0.83953 -1.87516,-1.87516v-26.33902c0,-1.03562 0.83953,-1.87516 1.87516,-1.87516z" fill="#f0f1f4" fill-rule="evenodd" stroke="#f0f1f4" stroke-width="0.5" stroke-linecap="square" stroke-linejoin="miter"/><text transform="translate(228.11705,221.71686) scale(0.44679,0.44679)" font-size="24" xml:space="preserve" fill="#000000" fill-rule="nonzero" stroke="#000000" stroke-width="0" stroke-linecap="butt" stroke-linejoin="miter" stroke-miterlimit="10" stroke-dasharray="" stroke-dashoffset="0" font-family="Segoe UI" font-weight="bold" text-anchor="start" style="mix-blend-mode: normal"><tspan x="0" dy="0">Okay</tspan></text></g></g></svg>