<svg version="1.1" xmlns="http://www.w3.org/2000/svg" xmlns:xlink="http://www.w3.org/1999/xlink" width="29.97332" height="29.34295" viewBox="0,0,29.97332,29.34295"><defs><linearGradient x1="234.76737" y1="272.50356" x2="243.73292" y2="289.69028" gradientUnits="userSpaceOnUse" id="color-1"><stop offset="0" stop-color="#90ff8a"/><stop offset="1" stop-color="#00b9e4"/></linearGradient><linearGradient x1="239.3455" y1="282.59231" x2="235.5493" y2="280.22774" gradientUnits="userSpaceOnUse" id="color-2"><stop offset="0" stop-color="#ffffff" stop-opacity="0.494"/><stop offset="1" stop-color="#ffffff"/></linearGradient><linearGradient x1="246.60242" y1="271.8261" x2="249.27136" y2="271.8261" gradientUnits="userSpaceOnUse" id="color-3"><stop offset="0" stop-color="#e6d049"/><stop offset="1" stop-color="#ec9500"/></linearGradient><linearGradient x1="246.60297" y1="274.99705" x2="249.55057" y2="274.99705" gradientUnits="userSpaceOnUse" id="color-4"><stop offset="0" stop-color="#f6f6f6"/><stop offset="1" stop-color="#747474"/></linearGradient><linearGradient x1="246.48952" y1="279.04625" x2="249.44854" y2="279.04625" gradientUnits="userSpaceOnUse" id="color-5"><stop offset="0" stop-color="#5e5e5e"/><stop offset="1" stop-color="#373737"/></linearGradient><linearGradient x1="246.68602" y1="286.11414" x2="249.53598" y2="286.11414" gradientUnits="userSpaceOnUse" id="color-6"><stop offset="0" stop-color="#ffeaca"/><stop offset="1" stop-color="#e07431"/></linearGradient></defs><g transform="translate(-225.01606,-268.058)"><g data-paper-data="{&quot;isPaintingLayer&quot;:true}" stroke="none" stroke-width="1" stroke-linejoin="miter" stroke-miterlimit="10" stroke-dasharray="" stroke-dashoffset="0" style="mix-blend-mode: normal"><path d="M225.01607,272.13932c0,-2.25405 1.86652,-4.08132 4.169,-4.08132h21.63534c1.10568,0 2.16608,0.43 2.94793,1.19539c0.78182,0.76539 1.22105,1.80349 1.22105,2.88592v21.18032c0,2.25405 -1.86651,4.08132 -4.16898,4.08132h-21.63534c-2.30248,0 -4.169,-1.82727 -4.169,-4.08132z" fill-opacity="0.00784" fill="#3d3d3d" fill-rule="evenodd" stroke-linecap="square"/><g stroke-linecap="butt"><path d="M232.09153,273.28586h15.81697c1.70911,0 3.09462,1.38551 3.09462,3.09462v10.86557c0,1.70911 -1.38551,3.09462 -3.09462,3.09462h-11.59428c-0.1075,0 -0.21232,0.03359 -0.29979,0.09607l-3.30881,2.36343c-0.1159,0.08279 -0.27696,0.05594 -0.35975,-0.05996c-0.03124,-0.04374 -0.04804,-0.09615 -0.04804,-0.1499v-2.24965v0h-0.20631c-1.70911,0 -3.09462,-1.38551 -3.09462,-3.09462v-10.86557c0,-1.70911 1.38551,-3.09462 3.09462,-3.09462z" fill="url(#color-1)" fill-rule="evenodd"/><path d="M246.05172,284.28897c0.30384,0 0.55016,0.24632 0.55016,0.55016c0,0.30384 -0.24632,0.55016 -0.55016,0.55016h-12.10342c-0.30384,0 -0.55016,-0.24632 -0.55016,-0.55016c0,-0.30384 0.24632,-0.55016 0.55016,-0.55016zM246.05172,280.98804c0.30384,0 0.55016,0.24632 0.55016,0.55016c0,0.30384 -0.24632,0.55016 -0.55016,0.55016h-12.10342c-0.30384,0 -0.55016,-0.24632 -0.55016,-0.55016c0,-0.30384 0.24632,-0.55016 0.55016,-0.55016zM246.05172,277.6871c0.30384,0 0.55016,0.24632 0.55016,0.55016c0,0.30384 -0.24632,0.55016 -0.55016,0.55016h-12.10342c-0.30384,0 -0.55016,-0.24632 -0.55016,-0.55016c0,-0.30384 0.24632,-0.55016 0.55016,-0.55016z" fill="url(#color-2)" fill-rule="nonzero"/><g fill-rule="evenodd"><path d="M247.11819,271.08524h2.26939c0.28485,0 0.51577,0.23092 0.51577,0.51577v1.68485v0h-3.30093v-1.68485c0,-0.28485 0.23092,-0.51577 0.51577,-0.51577z" fill="url(#color-3)"/><path d="M246.60297,275.48648v-1.10031h3.30093v1.10031z" fill="url(#color-4)"/><path d="M246.60297,284.28897v-7.70217h3.30093v7.70217z" fill="url(#color-5)"/><path d="M246.60297,285.38928h3.30093l-0.55016,2.20062h-2.20062z" fill="url(#color-6)"/><path d="M247.70273,288.69021h1.10031l-0.45789,0.91578c-0.02548,0.05096 -0.08744,0.07161 -0.1384,0.04613c-0.01997,-0.00998 -0.03616,-0.02617 -0.04614,-0.04613l-0.45789,-0.91578z" fill="#312f2f"/></g></g></g></g></svg>