<svg xmlns="http://www.w3.org/2000/svg" xmlns:xlink="http://www.w3.org/1999/xlink" version="1.1" width="20.23900032043457" height="7.055000305175781" viewBox="-0.05900001525878906 0.2590000033378601 20.23900032043457 7.055000305175781">
  <!-- Exported by Scratch - http://scratch.mit.edu/ -->
  <path id="path3202" fill="#000000" stroke="none" d="M 19.68 0.759 C 19.588 2.687 19.064 4.177 18.107 5.232 C 17.15 6.287 15.852 6.814 14.211 6.814 C 12.792 6.814 11.066 6.104 9.035 4.685 C 7.772 3.813 6.737 3.377 5.93 3.377 C 4.107 3.377 3.156 4.522 3.078 6.814 L 0.441 6.814 C 0.507 4.952 1.024 3.478 1.994 2.39 C 2.964 1.303 4.276 0.759 5.93 0.759 C 7.31 0.759 8.84 1.332 10.52 2.478 C 12.238 3.65 13.521 4.236 14.367 4.236 C 15.161 4.236 15.799 3.917 16.281 3.279 C 16.763 2.641 17.017 1.801 17.043 0.759 Z " stroke-width="1"/>
</svg>