<svg version="1.1" xmlns="http://www.w3.org/2000/svg" xmlns:xlink="http://www.w3.org/1999/xlink" width="19.80691" height="19.8323" viewBox="0,0,19.80691,19.8323"><g transform="translate(-273.09655,-395.08385)"><g data-paper-data="{&quot;isPaintingLayer&quot;:true}" fill-rule="evenodd" stroke-width="0.09516" stroke-linecap="butt" stroke-linejoin="miter" stroke-miterlimit="10" stroke-dasharray="" stroke-dashoffset="0" style="mix-blend-mode: normal"><path d="M282.96335,405.90588c4.13033,3.17329 3.66744,6.13711 -0.13529,8.94888c-2.92584,-2.64084 -4.69408,-5.41487 0.13529,-8.94888z" fill="#48cfad" stroke="#37bc9b" opacity="0.85"/><path d="M282.82804,395.14524c3.80274,2.81177 4.26562,5.77558 0.13529,8.94888c-4.82938,-3.534 -3.06114,-6.30804 -0.13529,-8.94888z" fill="#ed5565" stroke="#da4453" opacity="0.85"/><path d="M292.84217,404.87692c-2.80584,3.81078 -5.7634,4.27464 -8.93001,0.13559c3.52655,-4.83959 6.29473,-3.06761 8.93001,-0.13559z" fill="#ffce54" stroke="#f6bb42" opacity="0.85"/><path d="M282.08784,405.07814c-3.16661,4.13906 -6.12417,3.67513 -8.93001,-0.13558c2.63528,-2.93204 5.40345,-4.70401 8.93001,0.13558z" fill="#ac92ec" stroke="#967adc" opacity="0.85"/><path d="M282.45139,404.37639c-4.7145,0.32706 -6.98335,-1.6301 -5.88852,-6.72881c5.96352,-0.44347 6.41002,2.81768 5.88852,6.72881z" fill="#ec87c0" stroke="#d770ad" opacity="0.85"/><path d="M282.33798,405.67252c1.09483,5.09871 -1.17402,7.05585 -5.88852,6.72881c-0.52151,-3.91114 -0.07501,-7.17227 5.88852,-6.72881z" fill="#5d9cec" stroke="#4a89dc" opacity="0.85"/><path d="M289.50262,397.6968c1.09483,5.09871 -1.17402,7.05586 -5.88852,6.72881c-0.52151,-3.91114 -0.07501,-7.17227 5.88852,-6.72881z" fill="#fc6e51" stroke="#e9573f" opacity="0.85"/><path d="M289.60785,412.41774c-4.7145,0.32706 -6.98335,-1.6301 -5.88852,-6.72881c5.96352,-0.44347 6.41002,2.81768 5.88852,6.72881z" fill="#a0d468" stroke="#8cc152" opacity="0.85"/></g></g></svg>