<svg version="1.1" xmlns="http://www.w3.org/2000/svg" xmlns:xlink="http://www.w3.org/1999/xlink" width="16.191" height="28.946" viewBox="0,0,16.191,28.946"><g transform="translate(-240.059,-151.931)"><g data-paper-data="{&quot;isPaintingLayer&quot;:true}" fill="#ffffff" fill-rule="nonzero" stroke="none" stroke-width="1" stroke-linecap="butt" stroke-linejoin="miter" stroke-miterlimit="10" stroke-dasharray="" stroke-dashoffset="0" style="mix-blend-mode: normal"><path d="M240.059,179.373v-3.457c1.914,1.51 4.075,2.265 6.484,2.265c1.953,0 3.512,-0.488 4.678,-1.465c1.165,-0.976 1.748,-2.291 1.748,-3.945c0,-3.659 -2.598,-5.488 -7.793,-5.488h-2.324v-2.715h2.207c4.622,0 6.933,-1.719 6.933,-5.156c0,-3.177 -1.764,-4.766 -5.293,-4.766c-1.966,0 -3.821,0.671 -5.566,2.012v-3.125c1.797,-1.068 3.919,-1.602 6.367,-1.602c2.357,0 4.242,0.625 5.654,1.875c1.413,1.25 2.119,2.852 2.119,4.805c0,3.685 -1.875,6.055 -5.625,7.109v0.078c2.019,0.196 3.623,0.902 4.815,2.12c1.191,1.217 1.787,2.737 1.787,4.56c0,2.513 -0.902,4.541 -2.705,6.084c-1.803,1.543 -4.183,2.315 -7.139,2.315c-2.656,0 -4.772,-0.502 -6.347,-1.504z"/></g></g></svg>