<svg xmlns="http://www.w3.org/2000/svg" xmlns:xlink="http://www.w3.org/1999/xlink" version="1.1" width="27.875" height="29.868000030517578" viewBox="-0.5160000007599592 0.4700000286102295 27.875 29.868000030517578">
  <!-- Exported by Scratch - http://scratch.mit.edu/ -->
  <path id="path3184" fill="#000000" stroke="none" d="M 6.313 15.443 C 4.385 15.443 2.849 14.808 1.703 13.539 C 0.557 12.269 -0.016 10.573 -0.016 8.451 C -0.016 6.133 0.59 4.307 1.801 2.972 C 3.012 1.638 4.646 0.97 6.703 0.97 C 8.695 0.97 10.242 1.589 11.342 2.826 C 12.442 4.063 12.992 5.801 12.992 8.041 C 12.992 10.28 12.377 12.074 11.146 13.422 C 9.916 14.769 8.305 15.443 6.313 15.443 Z M 6.586 3.119 C 5.349 3.119 4.372 3.578 3.656 4.496 C 2.94 5.414 2.582 6.673 2.582 8.275 C 2.582 9.851 2.934 11.078 3.637 11.957 C 4.34 12.836 5.297 13.275 6.508 13.275 C 7.732 13.275 8.689 12.819 9.379 11.908 C 10.069 10.996 10.414 9.733 10.414 8.119 C 10.414 6.543 10.072 5.316 9.389 4.437 C 8.705 3.558 7.771 3.119 6.586 3.119 Z M 25.063 1.4 L 7.094 29.603 L 4.301 29.603 L 22.25 1.4 Z M 20.18 29.838 C 18.253 29.838 16.716 29.2 15.57 27.923 C 14.424 26.647 13.852 24.955 13.852 22.845 C 13.852 20.528 14.464 18.695 15.688 17.347 C 16.911 16 18.539 15.326 20.57 15.326 C 22.549 15.326 24.092 15.951 25.199 17.201 C 26.306 18.451 26.859 20.202 26.859 22.455 C 26.859 24.681 26.244 26.468 25.014 27.816 C 23.783 29.164 22.172 29.838 20.18 29.838 Z M 20.453 17.533 C 19.203 17.533 18.223 17.989 17.514 18.9 C 16.804 19.812 16.449 21.075 16.449 22.689 C 16.449 24.239 16.801 25.453 17.504 26.332 C 18.207 27.211 19.164 27.65 20.375 27.65 C 21.599 27.65 22.556 27.191 23.246 26.273 C 23.936 25.355 24.281 24.095 24.281 22.494 C 24.281 20.905 23.939 19.681 23.256 18.822 C 22.572 17.963 21.638 17.533 20.453 17.533 Z " stroke-width="1"/>
</svg>