<svg version="1.1" xmlns="http://www.w3.org/2000/svg" xmlns:xlink="http://www.w3.org/1999/xlink" width="17.695" height="28.946" viewBox="0,0,17.695,28.946"><g transform="translate(-239.953,-151.931)"><g data-paper-data="{&quot;isPaintingLayer&quot;:true}" fill="#ffffff" fill-rule="nonzero" stroke="none" stroke-width="1" stroke-linecap="butt" stroke-linejoin="miter" stroke-miterlimit="10" stroke-dasharray="" stroke-dashoffset="0" style="mix-blend-mode: normal"><path d="M246.008,165.72v-0.078c-3.36,-1.562 -5.039,-3.828 -5.039,-6.797c0,-2.018 0.768,-3.675 2.304,-4.97c1.537,-1.296 3.516,-1.944 5.938,-1.944c2.187,0 3.984,0.606 5.391,1.817c1.406,1.211 2.109,2.767 2.109,4.668c0,3.099 -1.732,5.508 -5.195,7.226v0.078c4.088,1.459 6.132,3.985 6.132,7.578c0,2.318 -0.833,4.161 -2.5,5.528c-1.666,1.367 -3.984,2.051 -6.953,2.051c-2.396,0 -4.368,-0.677 -5.918,-2.032c-1.549,-1.354 -2.324,-3.112 -2.324,-5.273c0,-3.594 2.018,-6.211 6.055,-7.852zM253.43,158.806c0,-1.289 -0.404,-2.304 -1.211,-3.047c-0.808,-0.742 -1.908,-1.113 -3.301,-1.113c-1.302,0 -2.406,0.388 -3.311,1.162c-0.905,0.775 -1.357,1.761 -1.357,2.959c0,2.435 1.517,4.271 4.551,5.508c3.086,-1.276 4.629,-3.099 4.629,-5.469zM248.586,167.244c-3.568,1.419 -5.352,3.476 -5.352,6.172c0,1.393 0.518,2.535 1.553,3.427c1.035,0.892 2.399,1.338 4.092,1.338c1.614,0 2.933,-0.439 3.955,-1.318c1.022,-0.879 1.533,-1.989 1.533,-3.33c0,-2.813 -1.927,-4.909 -5.781,-6.289z"/></g></g></svg>