<svg version="1.1" xmlns="http://www.w3.org/2000/svg" xmlns:xlink="http://www.w3.org/1999/xlink" width="48" height="26" viewBox="0,0,48,26"><defs><linearGradient x1="281.65" y1="182.55876" x2="233.65" y2="196.55847" gradientUnits="userSpaceOnUse" id="color-1"><stop offset="0" stop-color="#ff8265"/><stop offset="1" stop-color="#ff6a32"/></linearGradient></defs><g transform="translate(-233.65,-176.5605)"><g data-paper-data="{&quot;isPaintingLayer&quot;:true}" fill-rule="nonzero" stroke="none" stroke-width="1" stroke-linecap="butt" stroke-linejoin="miter" stroke-miterlimit="10" stroke-dasharray="" stroke-dashoffset="0" style="mix-blend-mode: normal"><path d="M233.65,202.5605c0,0 0,-5.8203 0,-13v0c0,-7.1797 0,-13 0,-13h48c0,0 0,5.8203 0,13v0c0,7.1797 0,13 0,13z" fill="url(#color-1)"/><path d="M259.64937,189.55861c0,-4.97016 4.02902,-8.99927 8.99905,-8.99927c4.97004,0 8.99905,4.02911 8.99905,8.99927c0,4.97016 -4.02902,8.99928 -8.99905,8.99928c-4.97004,0 -8.99905,-4.02912 -8.99905,-8.99928z" fill="#ffffff"/></g></g></svg>