<svg version="1.1" xmlns="http://www.w3.org/2000/svg" xmlns:xlink="http://www.w3.org/1999/xlink" width="598.67102" height="411.68713" viewBox="0,0,598.67102,411.68713"><g transform="translate(59.33551,25.84355)"><g data-paper-data="{&quot;isPaintingLayer&quot;:true}" fill-rule="nonzero" stroke-miterlimit="10" stroke-dasharray="" stroke-dashoffset="0" style="mix-blend-mode: normal"><path d="M-54.55554,385.84358c-2.2611,0 -4.77997,-1.93517 -4.77997,-4.71088c0,-16.66683 0,-392.05016 0,-401.91102c0,-2.72926 2.21052,-5.06523 4.93028,-5.06523c11.08563,0 566.02679,0 588.04113,0c3.88872,0 5.69961,2.12952 5.69961,5.73663c0,18.12549 0,390.2039 0,400.23253c0,3.04226 -1.91443,5.71796 -5.24868,5.71796c0,0 -578.252,0 -588.64238,0z" fill-opacity="0.54902" fill="#171717" stroke="none" stroke-width="0" stroke-linecap="butt" stroke-linejoin="miter"/><path d="M87.03611,89.13725c0,0 24.25865,0 30.70664,0c65.36212,0 275.22114,0 275.22114,0v181.7255c0,0 -194.72529,0 -248.50798,0c-25.85266,0 -57.41946,0 -57.41946,0z" fill="#ffffff" stroke="#ffffff" stroke-width="20" stroke-linecap="round" stroke-linejoin="round"/></g></g></svg>