<svg version="1.1" xmlns="http://www.w3.org/2000/svg" xmlns:xlink="http://www.w3.org/1999/xlink" width="13.262" height="20.938" viewBox="0,0,13.262,20.938"><g transform="translate(-240.156,-159.939)"><g data-paper-data="{&quot;isPaintingLayer&quot;:true}" fill="#ffffff" fill-rule="nonzero" stroke="none" stroke-width="1" stroke-linecap="butt" stroke-linejoin="miter" stroke-miterlimit="10" stroke-dasharray="" stroke-dashoffset="0" style="mix-blend-mode: normal"><path d="M240.156,179.685v-3.437c1.745,1.289 3.666,1.933 5.762,1.933c2.812,0 4.219,-0.937 4.219,-2.812c0,-0.534 -0.121,-0.987 -0.362,-1.358c-0.241,-0.371 -0.566,-0.7 -0.976,-0.986c-0.41,-0.286 -0.892,-0.544 -1.445,-0.771c-0.554,-0.228 -1.15,-0.466 -1.788,-0.713c-0.885,-0.352 -1.663,-0.707 -2.334,-1.065c-0.67,-0.358 -1.23,-0.762 -1.679,-1.211c-0.449,-0.449 -0.788,-0.96 -1.016,-1.533c-0.228,-0.573 -0.342,-1.243 -0.342,-2.012c0,-0.937 0.215,-1.767 0.645,-2.49c0.43,-0.723 1.002,-1.328 1.719,-1.816c0.716,-0.489 1.533,-0.856 2.451,-1.104c0.918,-0.247 1.865,-0.371 2.842,-0.371c1.731,0 3.281,0.3 4.648,0.899v3.242c-1.471,-0.964 -3.164,-1.446 -5.078,-1.446c-0.599,0 -1.139,0.069 -1.621,0.205c-0.482,0.137 -0.895,0.329 -1.24,0.577c-0.346,0.247 -0.612,0.543 -0.801,0.888c-0.189,0.345 -0.283,0.726 -0.283,1.143c0,0.521 0.094,0.957 0.283,1.308c0.189,0.352 0.465,0.665 0.83,0.938c0.364,0.273 0.807,0.521 1.328,0.742c0.521,0.222 1.113,0.462 1.777,0.723c0.886,0.338 1.68,0.687 2.383,1.045c0.703,0.358 1.302,0.761 1.797,1.211c0.495,0.449 0.876,0.967 1.143,1.552c0.266,0.586 0.4,1.283 0.4,2.09c0,0.99 -0.218,1.849 -0.654,2.578c-0.437,0.73 -1.019,1.335 -1.748,1.817c-0.73,0.482 -1.569,0.84 -2.52,1.074c-0.95,0.234 -1.947,0.352 -2.988,0.352c-2.057,0 -3.841,-0.398 -5.352,-1.192z"/></g></g></svg>