<svg version="1.1" xmlns="http://www.w3.org/2000/svg" xmlns:xlink="http://www.w3.org/1999/xlink" width="18.242" height="28.946" viewBox="0,0,18.242,28.946"><g transform="translate(-239.68,-151.931)"><g data-paper-data="{&quot;isPaintingLayer&quot;:true}" fill="#ffffff" fill-rule="nonzero" stroke="none" stroke-width="1" stroke-linecap="butt" stroke-linejoin="miter" stroke-miterlimit="10" stroke-dasharray="" stroke-dashoffset="0" style="mix-blend-mode: normal"><path d="M248.508,180.877c-2.774,0 -4.938,-1.192 -6.494,-3.575c-1.556,-2.382 -2.334,-5.826 -2.334,-10.332c0,-4.948 0.81,-8.691 2.431,-11.23c1.621,-2.539 3.962,-3.809 7.022,-3.809c5.859,0 8.789,4.785 8.789,14.356c0,4.739 -0.827,8.356 -2.481,10.849c-1.653,2.494 -3.964,3.741 -6.933,3.741zM248.957,154.646c-3.997,0 -5.996,4.056 -5.996,12.168c0,7.578 1.96,11.367 5.879,11.367c3.867,0 5.801,-3.854 5.801,-11.562c0,-7.982 -1.895,-11.973 -5.684,-11.973z"/></g></g></svg>