<svg version="1.1" xmlns="http://www.w3.org/2000/svg" xmlns:xlink="http://www.w3.org/1999/xlink" width="96.48073" height="15.60766" viewBox="0,0,96.48073,15.60766"><g transform="translate(-247.86959,-262.28622)"><g data-paper-data="{&quot;isPaintingLayer&quot;:true}" fill-rule="nonzero" stroke="none" stroke-linejoin="miter" stroke-miterlimit="10" stroke-dasharray="" stroke-dashoffset="0" style="mix-blend-mode: normal"><path d="M247.86959,277.89388v-15.60766h96.48073v15.60766z" fill="#ffffff" stroke-width="0" stroke-linecap="butt"/><path d="M257.19888,273.12197h-0.83642l1.87744,-5.22314h0.91465l1.87744,5.22314h-0.83642l-1.48029,-4.2784h-0.0361zM257.33728,271.07604h2.71386v0.66192h-2.71386zM261.78252,273.12197v-5.22314h0.76421v1.93761h0.04814c0.04413,-0.08023 0.10631,-0.1725 0.18654,-0.2768c0.08424,-0.10831 0.20058,-0.20259 0.34901,-0.28282c0.14843,-0.08424 0.345,-0.12637 0.58971,-0.12637c0.31692,0 0.59773,0.08023 0.84244,0.2407c0.24872,0.16046 0.44328,0.39113 0.58369,0.69201c0.14442,0.30087 0.21663,0.66392 0.21663,1.08916c0,0.42122 -0.0702,0.78427 -0.21061,1.08916c-0.14041,0.30087 -0.33497,0.53355 -0.58369,0.69802c-0.24471,0.16046 -0.52552,0.2407 -0.84244,0.2407c-0.23669,0 -0.43125,-0.04012 -0.58369,-0.12035c-0.14843,-0.08023 -0.26677,-0.17451 -0.35503,-0.28282c-0.08424,-0.10831 -0.14843,-0.20259 -0.19256,-0.28282h-0.06619v0.60776zM262.5347,271.16028c0,0.2768 0.03811,0.51951 0.11433,0.72811c0.08023,0.2086 0.19657,0.37107 0.34901,0.48741c0.15244,0.11634 0.33898,0.17451 0.55962,0.17451c0.22465,0 0.4132,-0.06017 0.56564,-0.18052c0.15645,-0.12436 0.27279,-0.29084 0.34901,-0.49945c0.08023,-0.2086 0.12035,-0.44529 0.12035,-0.71006c0,-0.25674 -0.03811,-0.48741 -0.11433,-0.69201c-0.07622,-0.2086 -0.19256,-0.37107 -0.34901,-0.48741c-0.15244,-0.12035 -0.34299,-0.18052 -0.57166,-0.18052c-0.22064,0 -0.40718,0.05817 -0.55962,0.17451c-0.15244,0.11232 -0.26878,0.27078 -0.34901,0.47538c-0.07622,0.20459 -0.11433,0.44128 -0.11433,0.71006zM267.87281,273.20019c-0.36907,0 -0.69201,-0.08424 -0.96881,-0.25273c-0.27279,-0.16849 -0.48541,-0.40317 -0.63785,-0.70404c-0.14843,-0.30488 -0.22265,-0.65991 -0.22265,-1.06509c0,-0.40517 0.07422,-0.7602 0.22265,-1.06509c0.15244,-0.30488 0.36506,-0.54157 0.63785,-0.71006c0.2768,-0.16849 0.59974,-0.25273 0.96881,-0.25273c0.36506,0 0.68398,0.08424 0.95677,0.25273c0.2768,0.16849 0.48942,0.40517 0.63785,0.71006c0.15244,0.30488 0.22866,0.65991 0.22866,1.06509c0,0.40517 -0.07622,0.7602 -0.22866,1.06509c-0.14843,0.30087 -0.36105,0.53555 -0.63785,0.70404c-0.27279,0.16849 -0.59172,0.25273 -0.95677,0.25273zM267.87281,272.56234c0.23669,0 0.43326,-0.06218 0.58971,-0.18654c0.15645,-0.12837 0.27279,-0.29686 0.34901,-0.50546c0.07622,-0.2086 0.11433,-0.43927 0.11433,-0.69201c0,-0.24872 -0.03811,-0.47738 -0.11433,-0.68599c-0.07622,-0.21262 -0.19256,-0.38311 -0.34901,-0.51148c-0.15645,-0.12837 -0.35302,-0.19256 -0.58971,-0.19256c-0.2407,0 -0.43927,0.06419 -0.59573,0.19256c-0.15645,0.12837 -0.27279,0.29887 -0.34901,0.51148c-0.07622,0.2086 -0.11433,0.43727 -0.11433,0.68599c0,0.25273 0.03811,0.4834 0.11433,0.69201c0.07622,0.2086 0.19256,0.37709 0.34901,0.50546c0.15645,0.12436 0.35503,0.18654 0.59573,0.18654zM273.0305,271.49726v-2.29264h0.76421v3.91735h-0.75218v-0.67997h-0.0361c-0.09227,0.2086 -0.23869,0.38311 -0.43927,0.52352c-0.19657,0.13639 -0.44128,0.20459 -0.73413,0.20459c-0.25273,0 -0.47538,-0.05416 -0.66794,-0.16247c-0.19256,-0.11232 -0.345,-0.2768 -0.45733,-0.49343c-0.10831,-0.22064 -0.16247,-0.49343 -0.16247,-0.81837v-2.49122h0.76421v2.40096c0,0.26477 0.07422,0.47738 0.22265,0.63785c0.14843,0.15645 0.34099,0.23468 0.57767,0.23468c0.14041,0 0.28081,-0.0341 0.42122,-0.1023c0.14442,-0.07221 0.26276,-0.18052 0.35503,-0.32494c0.09628,-0.14843 0.14442,-0.33297 0.14442,-0.5536zM276.64575,269.20461v0.60776h-2.14221v-0.60776zM275.08121,268.26589h0.76421v3.70674c0,0.14843 0.02206,0.26076 0.06619,0.33698c0.04413,0.07221 0.10029,0.12236 0.16849,0.15044c0.07221,0.02407 0.15044,0.0361 0.23468,0.0361c0.06017,0 0.11232,-0.00401 0.15645,-0.01203c0.04814,-0.01203 0.08424,-0.02006 0.10831,-0.02407l0.1384,0.63183c-0.04413,0.01605 -0.10831,0.03209 -0.19256,0.04814c-0.08023,0.02006 -0.18052,0.03009 -0.30087,0.03009c-0.20058,0.00401 -0.38913,-0.03009 -0.56564,-0.1023c-0.1725,-0.07622 -0.31291,-0.19256 -0.42122,-0.34901c-0.1043,-0.15645 -0.15645,-0.35302 -0.15645,-0.58971z" fill="#000000" stroke-width="1" stroke-linecap="square"/></g></g></svg>