<svg xmlns="http://www.w3.org/2000/svg" xmlns:xlink="http://www.w3.org/1999/xlink" version="1.1" width="32.5629997253418" height="33.07100296020508" viewBox="0.078000009059906 -0.4909999994561076 32.5629997253418 33.07100296020508">
  <!-- Exported by Scratch - http://scratch.mit.edu/ -->
  <path id="path3200" fill="#000000" stroke="none" d="M 19.953 20.205 L 19.855 20.205 C 18.905 23.304 17.036 24.853 14.25 24.853 C 12.466 24.853 11.031 24.196 9.943 22.88 C 8.856 21.565 8.312 19.795 8.312 17.568 C 8.312 14.625 9.064 12.181 10.568 10.234 C 12.072 8.287 14.048 7.314 16.496 7.314 C 17.434 7.314 18.27 7.555 19.006 8.037 C 19.741 8.519 20.213 9.124 20.422 9.853 L 20.5 9.853 C 20.526 9.489 20.591 8.74 20.695 7.607 L 23.137 7.607 C 22.525 14.782 22.219 18.434 22.219 18.564 C 22.219 21.259 22.993 22.607 24.543 22.607 C 25.949 22.607 27.118 21.845 28.049 20.322 C 28.98 18.798 29.445 16.826 29.445 14.404 C 29.445 10.823 28.312 7.9 26.047 5.634 C 23.781 3.369 20.643 2.236 16.633 2.236 C 12.766 2.236 9.569 3.59 7.043 6.298 C 4.517 9.007 3.254 12.392 3.254 16.455 C 3.254 20.452 4.455 23.678 6.857 26.132 C 9.26 28.587 12.499 29.814 16.574 29.814 C 19.79 29.814 22.538 29.28 24.816 28.213 L 24.816 30.634 C 22.564 31.598 19.751 32.08 16.379 32.08 C 11.639 32.08 7.821 30.651 4.924 27.793 C 2.027 24.935 0.578 21.194 0.578 16.572 C 0.578 11.806 2.098 7.854 5.139 4.716 C 8.179 1.578 12.062 0.009 16.789 0.009 C 21.216 0.009 24.881 1.325 27.785 3.955 C 30.689 6.585 32.141 10.016 32.141 14.248 C 32.141 17.347 31.376 19.889 29.846 21.875 C 28.316 23.86 26.45 24.853 24.25 24.853 C 21.398 24.853 19.966 23.304 19.953 20.205 Z M 16.457 9.58 C 14.842 9.58 13.537 10.348 12.541 11.884 C 11.545 13.421 11.047 15.328 11.047 17.607 C 11.047 19.144 11.382 20.354 12.053 21.24 C 12.723 22.125 13.618 22.568 14.738 22.568 C 16.353 22.568 17.632 21.764 18.576 20.156 C 19.52 18.548 19.992 16.416 19.992 13.759 C 19.992 10.973 18.814 9.58 16.457 9.58 Z " stroke-width="1"/>
</svg>