<svg version="1.1" xmlns="http://www.w3.org/2000/svg" xmlns:xlink="http://www.w3.org/1999/xlink" width="29.71795" height="24.5545" viewBox="0,0,29.71795,24.5545"><g transform="translate(-225.14102,-165.45352)"><g data-paper-data="{&quot;isPaintingLayer&quot;:true}" stroke-miterlimit="10" stroke-dasharray="" stroke-dashoffset="0" style="mix-blend-mode: normal"><path d="M234.31143,184.62157c0,0 0,-0.75276 0,-0.95285c0,-2.02823 0,-8.54029 0,-8.54029h3.80991c0,0 0,6.04245 0,7.71137c0,0.80222 0,1.78176 0,1.78176z" fill="#000000" fill-rule="nonzero" stroke="#000000" stroke-width="2.5" stroke-linecap="round" stroke-linejoin="round"/><path d="M247.43411,178.4338c0,0 -0.39593,0 -0.50117,0c-1.0668,0 -4.49197,0 -4.49197,0v-1.9926c0,0 3.17817,0 4.05597,0c0.42195,0 0.93716,0 0.93716,0z" fill="#000000" fill-rule="nonzero" stroke="#000000" stroke-width="1.5" stroke-linecap="round" stroke-linejoin="round"/><path d="M247.43411,184.0588c0,0 -0.39593,0 -0.50117,0c-1.0668,0 -4.49196,0 -4.49196,0v-1.9926c0,0 3.17817,0 4.05597,0c0.42194,0 0.93715,0 0.93715,0z" fill="#000000" fill-rule="nonzero" stroke="#000000" stroke-width="1.5" stroke-linecap="round" stroke-linejoin="round"/><path d="M225.14103,168.86881c0,-1.88622 1.85062,-3.41529 4.13348,-3.41529h21.45101c1.09626,0 2.14763,0.35983 2.92281,1.00032c0.77516,0.64049 1.21065,1.50918 1.21065,2.41497v17.72392c0,1.88622 -1.85061,3.41529 -4.13346,3.41529h-21.45101c-2.28286,0 -4.13348,-1.52908 -4.13348,-3.41529z" fill-opacity="0.00784" fill="#3d3d3d" fill-rule="evenodd" stroke="none" stroke-width="1" stroke-linecap="square" stroke-linejoin="miter"/></g></g></svg>