<svg version="1.1" xmlns="http://www.w3.org/2000/svg" xmlns:xlink="http://www.w3.org/1999/xlink" width="12.66795" height="42.63175" viewBox="0,0,12.66795,42.63175"><g transform="translate(-234.16603,-142.93412)"><g data-paper-data="{&quot;isPaintingLayer&quot;:true}" stroke="none" stroke-width="1" stroke-linejoin="miter" stroke-miterlimit="10" stroke-dasharray="" stroke-dashoffset="0" style="mix-blend-mode: normal"><path d="M240.64969,176.09853c0.05611,0.0068 0.15218,0.0187 0.21253,0.0255c0.33581,0.03996 0.58575,0.09097 0.96065,0.19638c0.81104,0.22869 1.61102,0.63505 2.26137,1.15024c0.23549,0.18703 0.53729,0.46077 0.58745,0.53304c0.04505,0.06546 0.06291,0.13262 0.06291,0.24059c0,0.05441 -0.0051,0.11137 -0.01275,0.14027c-0.03061,0.11732 -0.11562,0.23124 -0.22444,0.3018c-0.10542,0.06801 -0.24399,0.09267 -0.35961,0.06461c-0.09607,-0.02295 -0.16493,-0.06376 -0.26779,-0.15897c-0.44037,-0.40807 -0.87649,-0.70901 -1.40783,-0.97001c-0.36131,-0.17768 -0.74728,-0.31626 -1.11539,-0.40127c-0.55599,-0.12837 -0.84589,-0.16578 -1.28797,-0.16578c-0.41317,0 -0.87225,0.04505 -1.2242,0.11987c-0.32815,0.07056 -0.8935,0.26185 -1.22591,0.41657c-0.47183,0.21849 -0.99126,0.56535 -1.37467,0.91815c-0.15897,0.14623 -0.19553,0.17598 -0.26015,0.20828c-0.14878,0.07311 -0.3052,0.06716 -0.45143,-0.01785c-0.06036,-0.03486 -0.16493,-0.14368 -0.19723,-0.20574c-0.07651,-0.14623 -0.07991,-0.31965 -0.00851,-0.45653c0.07056,-0.13347 0.54749,-0.54324 0.95896,-0.82293c0.43697,-0.29755 0.93685,-0.55684 1.37298,-0.71242c0.24399,-0.08671 0.67076,-0.22444 0.77788,-0.24994c0.10201,-0.0238 0.52198,-0.10542 0.6121,-0.11902c0.23889,-0.03401 0.36471,-0.04675 0.5611,-0.05526c0.38256,-0.017 0.80338,-0.00851 1.04992,0.0204z" fill="#424242" fill-rule="nonzero" stroke-linecap="butt"/><path d="M240.47966,177.88809c0.9411,0.10031 1.8176,0.45653 2.53767,1.03377c0.12497,0.09946 0.36216,0.31626 0.39957,0.36471c0.11817,0.15302 0.12922,0.36726 0.02806,0.53899c-0.03996,0.06631 -0.14453,0.16663 -0.21253,0.20319c-0.09522,0.05016 -0.23294,0.06716 -0.33666,0.03996c-0.08842,-0.02295 -0.14197,-0.05781 -0.26864,-0.17428c-0.53984,-0.49478 -1.17745,-0.82548 -1.85841,-0.96406c-0.23209,-0.04675 -0.56024,-0.08161 -0.77788,-0.08161c-0.6291,0 -1.33302,0.19128 -1.89157,0.51433c-0.26779,0.15472 -0.44377,0.2865 -0.76258,0.57384c-0.09437,0.08501 -0.14283,0.11307 -0.23294,0.13602c-0.08246,0.02125 -0.13687,0.02125 -0.21763,0.00085c-0.13177,-0.03401 -0.23209,-0.10626 -0.31201,-0.22614c-0.07481,-0.11222 -0.10116,-0.24144 -0.07481,-0.36727c0.0238,-0.11137 0.04761,-0.14793 0.17513,-0.27459c0.43357,-0.43017 1.02867,-0.80423 1.65182,-1.03803c0.2831,-0.10542 0.50329,-0.16237 0.9292,-0.23974c0.18193,-0.03316 0.2984,-0.04675 0.48458,-0.05611c0.25249,-0.01275 0.51688,-0.0068 0.73962,0.01615z" fill="#424242" fill-rule="nonzero" stroke-linecap="butt"/><path d="M240.04609,179.66914c0.23464,0.00255 0.35195,0.0153 0.56959,0.06036c0.56789,0.11902 1.08818,0.39532 1.48944,0.78978c0.08842,0.08757 0.10796,0.11137 0.13347,0.16578c0.09012,0.19128 0.04846,0.40892 -0.10882,0.56535c-0.09522,0.09607 -0.19638,0.14112 -0.32815,0.14708c-0.15472,0.0068 -0.22529,-0.0238 -0.38426,-0.16918c-0.06206,-0.05696 -0.13942,-0.12327 -0.17258,-0.14793c-0.29585,-0.22189 -0.62146,-0.36131 -0.95471,-0.40721c-0.12497,-0.01785 -0.41487,-0.01785 -0.54494,-0.00085c-0.31286,0.04081 -0.58405,0.14112 -0.84334,0.31115c-0.10286,0.06716 -0.16578,0.11732 -0.29245,0.23209c-0.05611,0.05101 -0.12072,0.10541 -0.14453,0.11987c-0.21764,0.13857 -0.50328,0.07056 -0.6546,-0.15727c-0.13092,-0.19723 -0.12582,-0.40127 0.0153,-0.57639c0.05611,-0.06971 0.25249,-0.24569 0.38086,-0.34176c0.34006,-0.25419 0.75068,-0.43782 1.18509,-0.53049c0.09861,-0.02125 0.30435,-0.05186 0.39106,-0.05951c0.0238,-0.0017 0.14197,-0.0017 0.26354,-0.00085z" fill="#424242" fill-rule="nonzero" stroke-linecap="butt"/><path d="M240.03759,181.33627c0.44632,0.0153 0.85269,0.33241 0.97766,0.76427c0.04761,0.16578 0.04761,0.39532 0,0.56109c-0.11137,0.38852 -0.46758,0.70732 -0.84844,0.76003c-0.08501,0.01191 -0.23294,0.01191 -0.31711,0c-0.37066,-0.05101 -0.70222,-0.3239 -0.83569,-0.68521c-0.09522,-0.25845 -0.07821,-0.56025 0.04505,-0.80423c0.16323,-0.3239 0.46417,-0.54239 0.81699,-0.59255c0.02806,-0.00425 0.10116,-0.00595 0.16153,-0.0034z" fill="#424242" fill-rule="nonzero" stroke-linecap="butt"/><path d="M234.16604,148.86379c0,-3.27488 0.18437,-5.92966 0.41179,-5.92966h11.84437c0.10922,0 0.21396,0.62475 0.29118,1.73676c0.07722,1.11202 0.12061,2.62024 0.12061,4.19288v30.77244c0,3.27488 -0.18436,5.92967 -0.41179,5.92967h-11.84437c-0.22743,0 -0.41179,-2.6548 -0.41179,-5.92966z" fill-opacity="0.00784" fill="#3d3d3d" fill-rule="evenodd" stroke-linecap="square"/></g></g></svg>