<svg version="1.1" xmlns="http://www.w3.org/2000/svg" xmlns:xlink="http://www.w3.org/1999/xlink" width="597.29405" height="537.31036" viewBox="0,0,597.29405,537.31036"><defs><linearGradient x1="240" y1="-4805.04618" x2="240" y2="25761.94353" gradientUnits="userSpaceOnUse" id="color-1"><stop offset="0" stop-color="#666666" stop-opacity="0"/><stop offset="1" stop-color="#666666"/></linearGradient><linearGradient x1="240" y1="-4805.04618" x2="240" y2="25761.94353" gradientUnits="userSpaceOnUse" id="color-2"><stop offset="0" stop-color="#666666" stop-opacity="0"/><stop offset="1" stop-color="#666666"/></linearGradient><linearGradient x1="240.00001" y1="-4805.04618" x2="240.00001" y2="25761.94353" gradientUnits="userSpaceOnUse" id="color-3"><stop offset="0" stop-color="#666666" stop-opacity="0"/><stop offset="1" stop-color="#666666"/></linearGradient><linearGradient x1="240.00001" y1="-4805.04618" x2="240.00001" y2="25761.94353" gradientUnits="userSpaceOnUse" id="color-4"><stop offset="0" stop-color="#666666" stop-opacity="0"/><stop offset="1" stop-color="#666666"/></linearGradient><linearGradient x1="240" y1="-4805.04618" x2="240" y2="25761.94353" gradientUnits="userSpaceOnUse" id="color-5"><stop offset="0" stop-color="#666666" stop-opacity="0"/><stop offset="1" stop-color="#666666"/></linearGradient><linearGradient x1="240.00001" y1="-4805.04618" x2="240.00001" y2="25761.94353" gradientUnits="userSpaceOnUse" id="color-6"><stop offset="0" stop-color="#666666" stop-opacity="0"/><stop offset="1" stop-color="#666666"/></linearGradient><linearGradient x1="240.00001" y1="-4805.04618" x2="240.00001" y2="25761.94353" gradientUnits="userSpaceOnUse" id="color-7"><stop offset="0" stop-color="#666666" stop-opacity="0"/><stop offset="1" stop-color="#666666"/></linearGradient><linearGradient x1="157.55338" y1="149.56877" x2="206.61688" y2="149.56877" gradientUnits="userSpaceOnUse" id="color-8"><stop offset="0" stop-color="#e8765a"/><stop offset="1" stop-color="#e85e5e"/></linearGradient><linearGradient x1="157.55338" y1="167.5" x2="206.61688" y2="167.5" gradientUnits="userSpaceOnUse" id="color-9"><stop offset="0" stop-color="#e8765a"/><stop offset="1" stop-color="#e85e5e"/></linearGradient><linearGradient x1="168.59272" y1="142.9683" x2="172.27245" y2="142.9683" gradientUnits="userSpaceOnUse" id="color-10"><stop offset="0" stop-color="#e8765a"/><stop offset="1" stop-color="#e85e5e"/></linearGradient><linearGradient x1="191.89782" y1="142.9683" x2="195.5776" y2="142.9683" gradientUnits="userSpaceOnUse" id="color-11"><stop offset="0" stop-color="#e8765a"/><stop offset="1" stop-color="#e85e5e"/></linearGradient><linearGradient x1="172.27245" y1="136.83534" x2="191.8978" y2="136.83534" gradientUnits="userSpaceOnUse" id="color-12"><stop offset="0" stop-color="#e8765a"/><stop offset="1" stop-color="#e85e5e"/></linearGradient><linearGradient x1="412.57827" y1="254.09914" x2="412.57827" y2="317.41684" gradientUnits="userSpaceOnUse" id="color-13"><stop offset="0" stop-color="#516bb8"/><stop offset="1" stop-color="#b3b6c1"/></linearGradient><linearGradient x1="412.57827" y1="254.09914" x2="412.57827" y2="317.41684" gradientUnits="userSpaceOnUse" id="color-14"><stop offset="0" stop-color="#516bb8"/><stop offset="1" stop-color="#b3b6c1"/></linearGradient></defs><g transform="translate(58.64702,88.65518)"><g data-paper-data="{&quot;isPaintingLayer&quot;:true}" stroke-dasharray="" stroke-dashoffset="0" style="mix-blend-mode: normal"><path d="M-58.64702,448.65518v-537.31036h597.29404v537.31036z" fill="url(#color-1)" fill-rule="nonzero" stroke="none" stroke-width="0" stroke-linecap="butt" stroke-linejoin="miter" stroke-miterlimit="10"/><path d="M-58.64702,448.65518v-537.31036h597.29404v537.31036z" fill="url(#color-2)" fill-rule="nonzero" stroke="none" stroke-width="0" stroke-linecap="butt" stroke-linejoin="miter" stroke-miterlimit="10"/><path d="M-58.64701,448.65518v-537.31036h597.29404v537.31036z" fill="url(#color-3)" fill-rule="nonzero" stroke="none" stroke-width="0" stroke-linecap="butt" stroke-linejoin="miter" stroke-miterlimit="10"/><path d="M-58.64701,448.65518v-537.31036h597.29404v537.31036z" fill="url(#color-4)" fill-rule="nonzero" stroke="none" stroke-width="0" stroke-linecap="butt" stroke-linejoin="miter" stroke-miterlimit="10"/><path d="M-58.64702,448.65518v-537.31036h597.29404v537.31036z" fill="url(#color-5)" fill-rule="nonzero" stroke="none" stroke-width="0" stroke-linecap="butt" stroke-linejoin="miter" stroke-miterlimit="10"/><path d="M-58.64701,448.65518v-537.31036h597.29404v537.31036z" fill="url(#color-6)" fill-rule="nonzero" stroke="none" stroke-width="0" stroke-linecap="butt" stroke-linejoin="miter" stroke-miterlimit="10"/><path d="M-58.64701,448.65518v-537.31036h597.29404v537.31036z" fill="url(#color-7)" fill-rule="nonzero" stroke="none" stroke-width="0" stroke-linecap="butt" stroke-linejoin="miter" stroke-miterlimit="10"/><path d="M163.05083,117.07529c0,0 11.71053,0 14.82321,0c31.55267,0 132.85924,0 132.85924,0v87.7255c0,0 -94.00097,0 -119.96383,0c-12.48002,0 -27.71846,0 -27.71846,0z" fill="#e8ffdb" fill-rule="nonzero" stroke="#e8ffdb" stroke-width="17" stroke-linecap="round" stroke-linejoin="round" stroke-miterlimit="10"/><text transform="translate(146.36623,76.81664) scale(0.94675,0.94675)" font-size="24" xml:space="preserve" fill="#ffffff" fill-rule="nonzero" stroke="#000000" stroke-width="0" stroke-linecap="butt" stroke-linejoin="miter" stroke-miterlimit="10" stroke-dasharray="" stroke-dashoffset="0" font-family="Sans Serif" font-weight="400" text-anchor="start" style="mix-blend-mode: normal"><tspan x="0" dy="0">Widgets Dashboard</tspan></text><text transform="translate(218.30062,129.62169) scale(0.29937,0.29937)" font-size="40" xml:space="preserve" fill="#000000" fill-rule="nonzero" stroke="#000000" stroke-width="1" stroke-linecap="butt" stroke-linejoin="miter" stroke-miterlimit="10" stroke-dasharray="" stroke-dashoffset="0" font-family="Sans Serif" font-weight="normal" text-anchor="start" style="mix-blend-mode: normal"><tspan x="0" dy="0">App center </tspan><tspan x="0" dy="48px">is coming soon!</tspan></text><path d="M335.45637,112.0215c0,0 8.37524,0 10.6014,0c22.56612,0 95.01946,0 95.01946,0v111.911c0,0 -67.22845,0 -85.79678,0c-8.92557,0 -19.82392,0 -19.82392,0z" fill="#fafafa" fill-rule="nonzero" stroke="#fafafa" stroke-width="17" stroke-linecap="round" stroke-linejoin="round" stroke-miterlimit="10"/><text transform="translate(344.01478,113.1609) scale(0.17716,0.17716)" font-size="40" xml:space="preserve" fill="#000000" fill-rule="nonzero" stroke="#000000" stroke-width="1" stroke-linecap="butt" stroke-linejoin="miter" stroke-miterlimit="10" stroke-dasharray="" stroke-dashoffset="0" font-family="&quot;Microsoft YaHei&quot;, &quot;微软雅黑&quot;, STXihei, &quot;华文细黑&quot;" font-weight="normal" text-anchor="start" style="mix-blend-mode: normal"><tspan x="0" dy="0">Oryx OS</tspan></text><text transform="translate(335.14342,179.82647) scale(0.14659,0.14659)" font-size="40" xml:space="preserve" fill="#000000" fill-rule="nonzero" stroke="#000000" stroke-width="1" stroke-linecap="butt" stroke-linejoin="miter" stroke-miterlimit="10" stroke-dasharray="" stroke-dashoffset="0" font-family="Sans Serif" font-weight="normal" text-anchor="start" style="mix-blend-mode: normal"><tspan x="0" dy="0">This is just a beta release of Oryx OS.</tspan><tspan x="0" dy="46.150000000000006px">If you find any bugs please report </tspan><tspan x="0" dy="46.150000000000006px">them in the coments below. </tspan><tspan x="0" dy="46.150000000000006px"> </tspan><tspan x="0" dy="46.150000000000006px">Also don't forget to like and faviourite</tspan><tspan x="0" dy="46.150000000000006px">this OS!</tspan></text><path d="M36.1943,246.47862c0,0 7.42295,0 9.39599,0c20.00029,0 84.21548,0 84.21548,0v89.043c0,0 -59.5844,0 -76.04147,0c-7.9107,0 -17.56989,0 -17.56989,0z" fill="#cdf2ff" fill-rule="nonzero" stroke="#cdf2ff" stroke-width="17" stroke-linecap="round" stroke-linejoin="round" stroke-miterlimit="10"/><text transform="translate(37.75622,287.93465) scale(0.18201,0.18605)" font-size="40" xml:space="preserve" fill="#000000" fill-rule="nonzero" stroke="#000000" stroke-width="1" stroke-linecap="butt" stroke-linejoin="miter" stroke-miterlimit="10" stroke-dasharray="" stroke-dashoffset="0" font-family="&quot;Microsoft YaHei&quot;, &quot;微软雅黑&quot;, STXihei, &quot;华文细黑&quot;" font-weight="normal" text-anchor="start" style="mix-blend-mode: normal"><tspan x="0" dy="0">The dashboard is still a </tspan><tspan x="0" dy="46.150000000000006px">work in progress. This </tspan><tspan x="0" dy="46.150000000000006px">means that it will be</tspan><tspan x="0" dy="46.150000000000006px"> regularly updated and </tspan><tspan x="0" dy="46.150000000000006px">improved to make </tspan><tspan x="0" dy="46.150000000000006px">it better!</tspan></text><text transform="translate(34.15712,257.02279) scale(0.3248,0.3248)" font-size="40" xml:space="preserve" fill="#000000" fill-rule="nonzero" stroke="none" stroke-width="1" stroke-linecap="butt" stroke-linejoin="miter" stroke-miterlimit="10" stroke-dasharray="" stroke-dashoffset="0" font-family="&quot;Microsoft YaHei&quot;, &quot;微软雅黑&quot;, STXihei, &quot;华文细黑&quot;" font-weight="normal" text-anchor="start" style="mix-blend-mode: normal"><tspan x="0" dy="0">Important </tspan><tspan x="0" dy="46.150000000000006px">Announcement</tspan></text><text transform="translate(212.35661,167.12455) scale(0.20263,0.20263)" font-size="40" xml:space="preserve" fill="#313131" fill-rule="nonzero" stroke="#000000" stroke-width="1" stroke-linecap="butt" stroke-linejoin="miter" stroke-miterlimit="10" stroke-dasharray="" stroke-dashoffset="0" font-family="Sans Serif" font-weight="normal" text-anchor="start" style="mix-blend-mode: normal"><tspan x="0" dy="0">App Center is a place </tspan><tspan x="0" dy="48px">where you will be able </tspan><tspan x="0" dy="48px">to download apps. </tspan><tspan x="0" dy="48px">More news coming soon!</tspan></text><path d="M384.07832,152.20854c2.13614,-0.07299 6.93439,-0.29228 9.51464,-6.38658c2.60457,-6.15174 -2.46782,-10.20834 -2.46782,-10.20834c0,0 -3.39983,-3.90139 -4.31634,-7.18144c-0.9165,-3.28005 0.17921,-7.47772 0.17921,-7.47772c0,0 0.31157,0.03272 0.47541,0.05304c2.37527,0.2947 5.85512,1.16914 9.29125,3.63328c2.96769,2.12821 6.65537,5.79363 8.1209,10.67181c3.9275,11.40427 -2.22616,21.58732 -9.05241,25.47859c-14.18367,8.08536 -25.7005,-0.71325 -29.1129,-6.41603c-7.36319,-12.30532 -1.85375,-22.89899 2.58822,-27.22783c4.24157,-4.13355 9.41016,-5.53393 12.48698,-6.00807c0.15895,-0.02451 0.45965,-0.0663 0.45965,-0.0663c0,0 1.60424,3.59146 -0.26816,8.23009c-1.93624,4.7968 -4.86961,7.16896 -4.86961,7.16896c0,0 -3.95938,4.387 -0.91179,10.61745c1.89494,3.87394 6.32667,5.17229 7.88273,5.11912z" fill="#005dc8" fill-rule="nonzero" stroke="none" stroke-width="0" stroke-linecap="butt" stroke-linejoin="miter" stroke-miterlimit="10"/><path d="M170.45642,251.02154c0,0 13.13296,0 16.62373,0c35.38525,0 148.99713,0 148.99713,0v83.911c0,0 -105.41889,0 -134.53532,0c-13.99592,0 -31.08529,0 -31.08529,0z" fill="#e9d59f" fill-rule="nonzero" stroke="#e9d59f" stroke-width="17" stroke-linecap="round" stroke-linejoin="round" stroke-miterlimit="10"/><path d="M334.5108,114.00294c0.55009,-0.0188 1.78571,-0.07527 2.45016,-1.64464c0.67071,-1.58416 -0.6355,-2.6288 -0.6355,-2.6288c0,0 -0.87551,-1.00467 -1.11152,-1.84933c-0.23601,-0.84466 0.04615,-1.92562 0.04615,-1.92562c0,0 0.08023,0.00843 0.12243,0.01366c0.61167,0.07589 1.50778,0.30107 2.39263,0.93562c0.76422,0.54805 1.71386,1.49194 2.09125,2.74815c1.01139,2.93677 -0.57327,5.55905 -2.33113,6.56111c-3.6525,2.0821 -6.61826,-0.18367 -7.497,-1.65222c-1.89613,-3.1688 -0.47737,-5.89683 0.6665,-7.01157c1.09227,-1.06445 2.42325,-1.42507 3.21558,-1.54717c0.04093,-0.00631 0.11837,-0.01707 0.11837,-0.01707c0,0 0.41312,0.92485 -0.06906,2.11937c-0.49861,1.23525 -1.254,1.84611 -1.254,1.84611c0,0 -1.0196,1.12972 -0.2348,2.73415c0.48797,0.9976 1.62921,1.33194 2.02992,1.31825z" fill="#005dc8" fill-rule="nonzero" stroke="none" stroke-width="0" stroke-linecap="butt" stroke-linejoin="miter" stroke-miterlimit="10"/><g stroke="none" stroke-width="1" stroke-linecap="butt"><g fill-rule="nonzero" stroke-linejoin="miter" stroke-miterlimit="10"><g><path d="M157.55338,150.94108l1.58734,-2.74178l45.60018,-0.00297l1.87595,2.74478z" fill="url(#color-8)"/><path d="M204.16366,184.05902h-44.15711c-1.35539,0 -2.45318,-1.09778 -2.45318,-2.45317v-30.66467h49.06347v30.66467c0,1.35539 -1.09779,2.45317 -2.45318,2.45317z" fill="url(#color-9)"/><path d="M172.27245,150.94108h-3.67977v-12.26586l3.67977,-3.67974z" fill="url(#color-10)"/><path d="M191.89782,134.99544l3.67973,3.67976v12.26586h-3.67973z" fill="url(#color-11)"/><path d="M172.27245,138.67523v-3.67976h19.62536v3.67976z" fill="url(#color-12)"/></g><g fill="none" font-family="sans-serif" font-weight="normal" font-size="12" text-anchor="start"><g/></g></g><path d="M184.35402,174.44007c0,1.40166 -1.13711,2.53877 -2.53877,2.53877c-1.40166,0 -2.53876,-1.13711 -2.53876,-2.53877c0,-1.40166 1.13711,-2.53877 2.53876,-2.53877c1.40166,0 2.53877,1.13711 2.53877,2.53877zM176.73632,174.44007c0,1.40166 -1.13711,2.53877 -2.53877,2.53877c-1.40166,0 -2.53876,-1.13711 -2.53876,-2.53877c0,-1.40166 1.13711,-2.53877 2.53876,-2.53877c1.40166,0 2.53877,1.13711 2.53877,2.53877zM191.97173,174.44007c0,1.40166 -1.13711,2.53877 -2.53877,2.53877c-1.40166,0 -2.53876,-1.13711 -2.53876,-2.53877c0,-1.40166 1.13711,-2.53877 2.53876,-2.53877c1.40166,0 2.53877,1.13711 2.53877,2.53877zM184.35402,166.82227c0,1.40166 -1.13711,2.53877 -2.53877,2.53877c-1.40166,0 -2.53876,-1.13711 -2.53876,-2.53877c0,-1.40166 1.13711,-2.53876 2.53876,-2.53876c1.40166,0 2.53877,1.13711 2.53877,2.53876zM176.73632,166.82227c0,1.40166 -1.13711,2.53877 -2.53877,2.53877c-1.40166,0 -2.53876,-1.13711 -2.53876,-2.53877c0,-1.40166 1.13711,-2.53876 2.53876,-2.53876c1.40166,0 2.53877,1.13711 2.53877,2.53876zM191.97173,166.82227c0,1.40166 -1.13711,2.53877 -2.53877,2.53877c-1.40166,0 -2.53876,-1.13711 -2.53876,-2.53877c0,-1.40166 1.13711,-2.53876 2.53876,-2.53876c1.40166,0 2.53877,1.13711 2.53877,2.53876zM191.97173,159.2046c0,1.40166 -1.13711,2.53877 -2.53877,2.53877c-1.40166,0 -2.53876,-1.13711 -2.53876,-2.53877c0,-1.40166 1.13711,-2.53876 2.53876,-2.53876c1.40166,0 2.53877,1.13711 2.53877,2.53876zM184.35402,159.2046c0,1.40166 -1.13711,2.53877 -2.53877,2.53877c-1.40166,0 -2.53876,-1.13711 -2.53876,-2.53877c0,-1.40166 1.13711,-2.53876 2.53876,-2.53876c1.40166,0 2.53877,1.13711 2.53877,2.53876zM176.73632,159.2046c0,1.40166 -1.13711,2.53877 -2.53877,2.53877c-1.40166,0 -2.53876,-1.13711 -2.53876,-2.53877c0,-1.40166 1.13711,-2.53876 2.53876,-2.53876c1.40166,0 2.53877,1.13711 2.53877,2.53876z" fill="#ffffff" fill-rule="evenodd" stroke-linejoin="round" stroke-miterlimit="2"/><path d="M170.73499,177.90439v-22.16068h22.16062v22.16068z" fill="none" fill-rule="evenodd" stroke-linejoin="round" stroke-miterlimit="2"/></g><g fill-rule="nonzero" stroke-linejoin="miter" stroke-miterlimit="10"><path d="M293.73707,311.61951h-74.41795" fill="#000000" stroke="#005dc8" stroke-width="1.5" stroke-linecap="round"/><path d="M228.20535,291.42296c2.3723,-0.10139 7.70045,-0.39056 10.50885,-7.18509c2.83488,-6.85858 -2.83841,-11.31671 -2.83841,-11.31671c0,0 -3.81385,-4.30164 -4.86312,-7.93664c-1.04926,-3.635 0.12803,-8.30851 0.12803,-8.30851c0,0 0.34644,0.03337 0.52862,0.0544c2.64144,0.30479 6.51542,1.24313 10.35593,3.94786c3.31696,2.33598 7.44831,6.37277 9.12268,11.77788c4.47132,12.63137 -2.2679,24.00191 -9.81403,28.38949c-15.67945,9.11655 -28.55676,-0.54815 -32.40171,-6.85081c-8.2965,-13.59971 -2.27684,-25.42024 2.61649,-30.27125c4.67256,-4.63215 10.40091,-6.2369 13.81438,-6.79287c0.17635,-0.02874 0.50997,-0.07801 0.50997,-0.07801c0,0 1.81624,3.97443 -0.21966,9.14515c-2.10535,5.34707 -5.34145,8.01005 -5.34145,8.01005c0,0 -4.35668,4.91099 -0.91198,11.80329c2.14182,4.28543 7.0773,5.68566 8.80537,5.61182z" fill="#005dc8" stroke="none" stroke-width="0" stroke-linecap="butt"/><path d="M257.49315,295.31568v-15.28357h3.82089v1.72973h0.54215c0.22374,-0.6196 0.59379,-1.0757 1.11012,-1.36829c0.53355,-0.29259 1.15315,-0.43889 1.85881,-0.43889h1.833v3.45946h-1.91045c-0.98104,0 -1.78997,0.26678 -2.42678,0.80032c-0.63681,0.51634 -0.95522,1.31666 -0.95522,2.40097v8.70028zM271.35222,301.48591v-3.40782h8.31302c0.58518,0 0.87777,-0.30119 0.87777,-0.90359v-3.87253h-0.56797c-0.1549,0.36144 -0.41307,0.71426 -0.77451,1.05849c-0.34423,0.34423 -0.81753,0.63681 -1.41993,0.87777c-0.58518,0.22374 -1.34248,0.33562 -2.27188,0.33562c-1.18757,0 -2.22886,-0.27538 -3.12384,-0.82614c-0.89498,-0.55076 -1.59204,-1.30805 -2.09116,-2.27188c-0.48191,-0.96383 -0.72287,-2.07396 -0.72287,-3.33037v-9.11335h3.87253v8.80354c0,1.15315 0.28399,2.02232 0.85196,2.6075c0.56797,0.56797 1.3769,0.85196 2.42678,0.85196c1.18757,0 2.10837,-0.39586 2.7624,-1.18757c0.65403,-0.79171 0.98104,-1.89324 0.98104,-3.30456v-7.77087h3.89834v17.99434c0,1.04988 -0.3098,1.88463 -0.92941,2.50423c-0.6196,0.63681 -1.43714,0.95522 -2.4526,0.95522zM287.32007,295.31568l5.55062,-7.71924l-5.49899,-7.56434h4.51795l3.48527,5.08592h0.54215l3.48527,-5.08592h4.49213l-5.47317,7.56434l5.55062,7.71924h-4.56958l-3.48527,-5.13755h-0.54215l-3.48527,5.13755z" fill="#005dc8" stroke="none" stroke-width="1" stroke-linecap="square"/><path d="M217.58018,327.10639v-8.2534h3.30897c0.60855,0 1.11567,0.08875 1.52136,0.26624c0.4057,0.17749 0.70997,0.42788 0.91282,0.75117c0.20285,0.31695 0.30427,0.68144 0.30427,1.09348c0,0.32329 -0.06339,0.60855 -0.19017,0.85577c-0.12678,0.24088 -0.30427,0.44056 -0.53248,0.59904c-0.22187,0.15214 -0.47543,0.2599 -0.76068,0.32329v0.07607c0.31061,0.01268 0.60221,0.10142 0.87478,0.26624c0.27892,0.16482 0.50395,0.39619 0.67511,0.69412c0.17115,0.29159 0.25673,0.64024 0.25673,1.04594c0,0.43739 -0.10776,0.82724 -0.32329,1.16955c-0.21553,0.34231 -0.53565,0.61488 -0.96036,0.81773c-0.41838,0.19651 -0.93817,0.29476 -1.5594,0.29476zM219.32975,325.68012h1.42628c0.48176,0 0.83358,-0.09191 1.05545,-0.27575c0.2282,-0.19017 0.34231,-0.44056 0.34231,-0.75117c0,-0.2282 -0.05705,-0.42788 -0.17115,-0.59904c-0.10776,-0.17749 -0.26307,-0.31695 -0.46592,-0.41838c-0.20285,-0.10142 -0.44373,-0.15214 -0.72265,-0.15214h-1.46431zM219.32975,322.30458h1.29316c0.24088,0 0.45324,-0.0412 0.63707,-0.12361c0.19017,-0.08875 0.33914,-0.20919 0.4469,-0.36132c0.10776,-0.15847 0.16165,-0.34548 0.16165,-0.561c0,-0.29793 -0.10459,-0.53882 -0.31378,-0.72265c-0.20919,-0.18383 -0.50712,-0.27575 -0.8938,-0.27575h-1.33119zM225.08322,327.10639v-8.2534h5.572v1.43579h-3.82243v1.96827h3.53717v1.43579h-3.53717v1.97777h3.83194v1.43579zM231.72417,320.28873v-1.43579h6.78909v1.43579h-2.52927v6.81762h-1.73055v-6.81762zM240.03537,327.10639h-1.87318l2.85256,-8.2534h2.25352l2.84305,8.2534h-1.87318l-2.06335,-6.37072h-0.06656zM239.92125,323.864h4.42147v1.35972h-4.42147zM249.41883,320.28873v-1.43579h6.78909v1.43579h-2.52927v6.81762h-1.73055v-6.81762zM257.3203,327.10639v-8.2534h5.572v1.43579h-3.82243v1.96827h3.53717v1.43579h-3.53717v1.97777h3.83194v1.43579zM268.76305,321.2206c-0.03803,-0.32329 -0.18066,-0.57368 -0.42788,-0.75117c-0.24088,-0.18383 -0.57051,-0.27575 -0.98889,-0.27575c-0.28526,0 -0.52614,0.0412 -0.72265,0.12361c-0.19651,0.07607 -0.34548,0.18383 -0.4469,0.32329c-0.10142,0.13946 -0.15214,0.29793 -0.15214,0.47543c-0.00634,0.15214 0.02219,0.28209 0.08558,0.38985c0.06973,0.10776 0.16482,0.20285 0.28526,0.28526c0.12678,0.07607 0.26941,0.1458 0.42788,0.20919c0.15847,0.05705 0.32646,0.10459 0.50395,0.14263l0.74167,0.18066c0.36132,0.07607 0.69095,0.18383 0.98889,0.32329c0.30427,0.13312 0.56417,0.29793 0.7797,0.49444c0.22187,0.19651 0.39302,0.42788 0.51346,0.69412c0.12678,0.26624 0.19017,0.57051 0.19017,0.91282c0,0.50712 -0.12678,0.94452 -0.38034,1.31218c-0.25356,0.36766 -0.62122,0.65292 -1.10299,0.85577c-0.47543,0.20285 -1.04911,0.30427 -1.72104,0.30427c-0.6656,0 -1.24562,-0.10142 -1.74006,-0.30427c-0.48811,-0.20285 -0.87161,-0.50395 -1.15053,-0.90331c-0.27258,-0.4057 -0.41838,-0.90648 -0.43739,-1.50235h1.69252c0.01902,0.27892 0.09826,0.51029 0.23771,0.69412c0.1458,0.18383 0.33597,0.32329 0.57051,0.41838c0.24088,0.08875 0.51029,0.13312 0.80823,0.13312c0.29793,0 0.55467,-0.0412 0.77019,-0.12361c0.22187,-0.08875 0.39302,-0.20919 0.51346,-0.36132c0.12044,-0.15214 0.18066,-0.32646 0.18066,-0.52297c0,-0.19017 -0.05388,-0.34865 -0.16165,-0.47543c-0.10776,-0.12678 -0.26624,-0.23454 -0.47543,-0.32329c-0.20919,-0.08875 -0.46275,-0.16798 -0.76068,-0.23771l-0.90331,-0.2282c-0.69729,-0.16482 -1.24879,-0.42788 -1.65448,-0.78921c-0.39936,-0.36132 -0.59904,-0.84626 -0.59904,-1.45481c0,-0.50078 0.13312,-0.93817 0.39936,-1.31218c0.27258,-0.374 0.64341,-0.6656 1.1125,-0.87478c0.47543,-0.20919 1.01424,-0.31378 1.61645,-0.31378c0.61488,0 1.15053,0.10459 1.60694,0.31378c0.46275,0.20919 0.8209,0.50078 1.07446,0.87478c0.25356,0.374 0.38668,0.80505 0.39936,1.29316zM271.39575,320.28873v-1.43579h6.78909v1.43579h-2.52927v6.81762h-1.73055v-6.81762zM281.04679,318.85294v8.2534h-1.74957v-8.2534zM289.39499,318.85294v8.2534h-1.51186l-3.59422,-5.20117h-0.05705v5.20117h-1.74957v-8.2534h1.54038l3.55619,5.19166h0.07607v-5.19166zM296.30485,321.51536c-0.05705,-0.19651 -0.13629,-0.37083 -0.23771,-0.52297c-0.10142,-0.15214 -0.22503,-0.27892 -0.37083,-0.38034c-0.1458,-0.10776 -0.31378,-0.19017 -0.50395,-0.24722c-0.18383,-0.05705 -0.38985,-0.08558 -0.61805,-0.08558c-0.41838,0 -0.78921,0.10459 -1.1125,0.31378c-0.31695,0.20919 -0.56417,0.51346 -0.74167,0.91282c-0.17749,0.39936 -0.26624,0.88746 -0.26624,1.46431c0,0.57685 0.08558,1.06813 0.25673,1.47382c0.17749,0.39936 0.42471,0.70363 0.74167,0.91282c0.32329,0.20919 0.70363,0.31378 1.14102,0.31378c0.39302,0 0.72899,-0.06973 1.0079,-0.20919c0.28526,-0.13946 0.50078,-0.33597 0.64658,-0.58953c0.15214,-0.2599 0.2282,-0.56734 0.2282,-0.92233l0.35182,0.05705h-2.1204v-1.32169h3.4516v1.04594c0,0.72265 -0.15531,1.34387 -0.46592,1.86367c-0.30427,0.5198 -0.72582,0.92233 -1.26463,1.20758c-0.53248,0.27892 -1.14736,0.41838 -1.84465,0.41838c-0.77336,0 -1.45481,-0.17115 -2.04433,-0.51346c-0.58319,-0.34231 -1.0396,-0.83041 -1.36923,-1.46431c-0.32329,-0.6339 -0.48494,-1.38507 -0.48494,-2.25352c0,-0.67194 0.09826,-1.27097 0.29476,-1.79711c0.19651,-0.52614 0.46909,-0.96987 0.81773,-1.33119c0.35499,-0.36766 0.76385,-0.64658 1.2266,-0.83675c0.46909,-0.19017 0.97621,-0.28526 1.52136,-0.28526c0.46909,0 0.90331,0.06973 1.30267,0.20919c0.4057,0.13312 0.76385,0.32329 1.07446,0.57051c0.31695,0.24722 0.57368,0.54199 0.77019,0.88429c0.20285,0.33597 0.3328,0.7068 0.38985,1.1125z" fill="#005dc8" stroke="none" stroke-width="1" stroke-linecap="square"/></g><g fill="none" fill-rule="nonzero" stroke="none" stroke-width="1" stroke-linecap="butt" stroke-linejoin="miter" stroke-miterlimit="10" font-family="sans-serif" font-weight="normal" font-size="12" text-anchor="start"><g/><g/><g/></g><path d="M36.22664,206.71482c0,0 0,-7.25065 0,-9.17793c0,-19.53607 0,-82.26078 0,-82.26078h86.93531c0,0 0,33.43002 0,56.61582c0,7.40708 0,13.76868 0,17.66076c0,7.72703 0,17.16207 0,17.16207z" fill="#ffffff" fill-rule="nonzero" stroke="#ffffff" stroke-width="17" stroke-linecap="round" stroke-linejoin="round" stroke-miterlimit="10"/><text transform="translate(64.55909,128.69858) scale(0.8571,0.8571)" font-size="24" xml:space="preserve" fill="#000000" fill-rule="nonzero" stroke="#000000" stroke-width="0" stroke-linecap="butt" stroke-linejoin="miter" stroke-miterlimit="10" stroke-dasharray="" stroke-dashoffset="0" font-family="Segoe UI" font-weight="bold" text-anchor="start" style="mix-blend-mode: normal"><tspan x="0" dy="0">80º</tspan></text><text transform="translate(65.26915,141.1224) scale(0.35022,0.35022)" font-size="24" xml:space="preserve" fill="#000000" fill-rule="nonzero" stroke="#000000" stroke-width="0" stroke-linecap="butt" stroke-linejoin="miter" stroke-miterlimit="10" stroke-dasharray="" stroke-dashoffset="0" font-family="Segoe UI" font-weight="bold" text-anchor="start" style="mix-blend-mode: normal"><tspan x="0" dy="0">Partly Cloudy</tspan></text><path d="M35.14606,207.0044c0,0 0,-4.02041 0,-5.08906c0,-10.83254 0,-45.61272 0,-45.61272h36.44635c0,0 0,18.53659 0,31.39287c0,4.10715 0,7.63458 0,9.7927c0,4.28456 0,9.51618 0,9.51618z" fill="#f2f2f2" fill-rule="nonzero" stroke="#f2f2f2" stroke-width="6" stroke-linecap="round" stroke-linejoin="round" stroke-miterlimit="10"/><text transform="translate(34.45517,161.87877) scale(0.32319,0.32319)" font-size="24" xml:space="preserve" fill="#000000" fill-rule="nonzero" stroke="#000000" stroke-width="0" stroke-linecap="butt" stroke-linejoin="miter" stroke-miterlimit="10" stroke-dasharray="" stroke-dashoffset="0" font-family="Segoe UI" font-weight="bold" text-anchor="start" style="mix-blend-mode: normal"><tspan x="0" dy="0">Tomorrow</tspan></text><path d="M87.46357,207.0044c0,0 0,-4.02041 0,-5.08906c0,-10.83256 0,-45.61272 0,-45.61272h36.44636c0,0 0,18.53658 0,31.39284c0,4.10715 0,7.63459 0,9.7927c0,4.28456 0,9.51618 0,9.51618z" fill="#f2f2f2" fill-rule="nonzero" stroke="#f2f2f2" stroke-width="6" stroke-linecap="round" stroke-linejoin="round" stroke-miterlimit="10"/><text transform="translate(43.91015,197.86853) scale(0.269,0.269)" font-size="24" xml:space="preserve" fill="#000000" fill-rule="nonzero" stroke="#000000" stroke-width="0" stroke-linecap="butt" stroke-linejoin="miter" stroke-miterlimit="10" stroke-dasharray="" stroke-dashoffset="0" font-family="Segoe UI" font-weight="bold" text-anchor="start" style="mix-blend-mode: normal"><tspan x="0" dy="0">Sunny</tspan><tspan x="0" dy="28.799999999999997px"> 82º</tspan></text><text transform="translate(88.87378,162.79904) scale(0.32319,0.32319)" font-size="24" xml:space="preserve" fill="#000000" fill-rule="nonzero" stroke="#000000" stroke-width="0" stroke-linecap="butt" stroke-linejoin="miter" stroke-miterlimit="10" stroke-dasharray="" stroke-dashoffset="0" font-family="Segoe UI" font-weight="bold" text-anchor="start" style="mix-blend-mode: normal"><tspan x="0" dy="0">In 2 days</tspan></text><g fill-rule="nonzero" stroke="none" stroke-width="1" stroke-linecap="butt" stroke-linejoin="miter" stroke-miterlimit="10"><path d="M32.18452,119.06645h27.37757v21.76222h-27.37757z" fill="#000000" opacity="0"/><path d="M51.4472,130.29117c-0.47112,-0.71947 -1.1106,-1.31316 -1.86302,-1.72966c-0.82045,-0.44785 -1.73004,-0.70802 -2.66321,-0.76177c-0.13975,-0.26463 -0.29986,-0.51795 -0.47889,-0.75775c-0.17094,-0.22683 -0.35588,-0.44277 -0.55367,-0.6466c0.39042,-0.67264 0.95157,-1.23028 1.62661,-1.61651c0.70411,-0.41316 1.50739,-0.62691 2.32373,-0.61832c1.23557,-0.00979 2.42336,0.47671 3.29705,1.3504c0.8737,0.8737 1.3602,2.06149 1.35041,3.29705c0.00724,0.78973 -0.19344,1.56743 -0.58195,2.25504c-0.38859,0.68645 -0.9308,1.27361 -1.58417,1.71552c-0.08939,-0.88666 -0.38864,-1.7393 -0.87293,-2.4874zM42.96859,123.10778c-0.1605,-0.15075 -0.25064,-0.36176 -0.24854,-0.58195c-0.00463,-0.22817 0.08617,-0.44788 0.25054,-0.60617c0.32768,-0.32143 0.85236,-0.32143 1.18004,0l1.36594,1.38616c0.15816,0.15475 0.24393,0.36887 0.23641,0.59003c0.00189,0.22013 -0.08304,0.4321 -0.23641,0.59003c-0.15202,0.16038 -0.3651,0.24854 -0.58598,0.24246c-0.22802,0.00392 -0.44749,-0.08678 -0.60617,-0.25054zM49.83875,122.68342c-0.22238,-0.00019 -0.43438,-0.09407 -0.58396,-0.25864c-0.15801,-0.15563 -0.24684,-0.36826 -0.24653,-0.59002v-1.92364c-0.00212,-0.22333 0.08691,-0.43785 0.24653,-0.59406c0.15229,-0.15976 0.36328,-0.25028 0.58396,-0.25054c0.2238,-0.00141 0.43818,0.09004 0.59205,0.25259c0.16228,0.15469 0.25307,0.36986 0.25054,0.59406v1.92364c0.00137,0.22279 -0.08928,0.4363 -0.25054,0.59003c-0.15365,0.16454 -0.36894,0.25754 -0.59406,0.25663zM56.20582,129.39389c-0.16126,-0.15373 -0.25194,-0.36725 -0.25054,-0.59003c0.00106,-0.46323 0.37337,-0.84005 0.83656,-0.84665h1.93373c0.2222,-0.00242 0.43562,0.08672 0.59003,0.24653c0.16395,0.15829 0.25347,0.37841 0.24652,0.60617c-0.0022,0.46109 -0.37545,0.83435 -0.83656,0.83656h-1.93373c-0.22169,-0.00028 -0.43357,-0.09157 -0.58598,-0.25259zM54.17108,124.48584c-0.15836,-0.15723 -0.24465,-0.37299 -0.23843,-0.59608c-0.00607,-0.22091 0.0821,-0.43396 0.24246,-0.58598l1.37604,-1.37605c0.1574,-0.15734 0.37153,-0.24473 0.59406,-0.24246c0.2202,-0.00239 0.43185,0.08518 0.58598,0.24246c0.32249,0.32724 0.32249,0.85281 0,1.18004l-1.37,1.3801c-0.15898,0.16249 -0.37903,0.25049 -0.60617,0.24246c-0.22215,0.00647 -0.43659,-0.08168 -0.59002,-0.24246zM54.16694,134.33838c-0.15953,-0.16122 -0.24825,-0.37938 -0.24653,-0.60617c-0.007,-0.22306 0.08291,-0.43824 0.24653,-0.59002c0.15462,-0.15835 0.36886,-0.24419 0.59003,-0.23642c0.22013,-0.00189 0.43209,0.08305 0.59003,0.23642l1.36593,1.36594c0.16334,0.1523 0.25442,0.36671 0.25054,0.59002c0.00794,0.22351 -0.07709,0.44029 -0.23485,0.59879c-0.15776,0.15852 -0.37414,0.24459 -0.59765,0.23775c-0.22114,0.00752 -0.43528,-0.07827 -0.59003,-0.23642z" fill="#ffd60a"/><path d="M34.0495,137.70881c-0.56831,-0.28785 -1.04494,-0.72873 -1.37604,-1.27301c-0.72829,-1.29559 -0.63595,-2.89654 0.23642,-4.09987c0.4795,-0.62899 1.15262,-1.08271 1.91556,-1.29119c0.06807,-0.75321 0.27784,-1.48676 0.61831,-2.16207c0.33084,-0.65739 0.77788,-1.24954 1.31946,-1.74783c0.5421,-0.49844 1.17075,-0.89355 1.85496,-1.16591c0.69767,-0.27956 1.44282,-0.42161 2.19441,-0.41826c0.77304,-0.00849 1.54034,0.13359 2.25906,0.41826c0.67388,0.26946 1.29085,0.66362 1.81856,1.16185c0.52996,0.50396 0.97425,1.0909 1.31545,1.73774c0.88037,-0.0156 1.75025,0.19302 2.52783,0.60617c0.72444,0.38788 1.33367,0.96015 1.76605,1.65894c0.43717,0.7124 0.66282,1.53442 0.65066,2.3702c0.01178,0.834 -0.20559,1.65525 -0.62842,2.37424c-0.85102,1.44769 -2.41684,2.32369 -4.09583,2.2914h-10.31938c-0.71295,0.01632 -1.41911,-0.14184 -2.057,-0.4607z" fill="#adbaca"/></g><g fill-rule="nonzero" stroke="none" stroke-width="1" stroke-linecap="butt" stroke-linejoin="miter" stroke-miterlimit="10"><path d="M41.43772,167.54226h22.41639v22.47546h-22.41639z" fill="#000000" opacity="0"/><path d="M54.67853,173.887c0.63135,0.27119 1.20471,0.66112 1.689,1.14861c0.48342,0.48708 0.87082,1.06081 1.14204,1.69117c0.55694,1.30686 0.55694,2.78436 0,4.09122c-0.2721,0.6286 -0.65944,1.20073 -1.14204,1.68681c-0.48381,0.48644 -1.05644,0.87561 -1.6868,1.14643c-1.30378,0.55724 -2.77868,0.55724 -4.08246,0c-0.6303,-0.2733 -1.2039,-0.66214 -1.69118,-1.14643c-0.48712,-0.48326 -0.87636,-1.05601 -1.14643,-1.68681c-0.55016,-1.30827 -0.55016,-2.78295 0,-4.09122c0.26922,-0.63255 0.65854,-1.20689 1.14643,-1.69117c0.48727,-0.4843 1.06087,-0.87313 1.69118,-1.14643c0.64462,-0.28003 1.34062,-0.4224 2.04342,-0.4179c0.70043,-0.00395 1.39402,0.13759 2.03686,0.41568zM53.65676,170.60532c0.00496,0.26674 -0.10122,0.52354 -0.29318,0.70885c-0.18778,0.1928 -0.44629,0.30031 -0.71542,0.29755c-0.55432,-0.00359 -1.00281,-0.45208 -1.00641,-1.00641v-2.0456c-0.00278,-0.26913 0.10475,-0.52763 0.29755,-0.71542c0.18225,-0.19347 0.4365,-0.30279 0.70228,-0.30193c0.26917,-0.00179 0.52717,0.10742 0.71323,0.30193c0.19528,0.18643 0.30458,0.44545 0.30194,0.71542zM59.15257,170.84371c0.39312,-0.38959 1.02677,-0.38959 1.41989,0c0.18693,0.19261 0.28997,0.45141 0.2866,0.71979c0.00976,0.26952 -0.09427,0.53074 -0.2866,0.71979l-1.45052,1.45052c-0.1894,0.19619 -0.45149,0.30544 -0.72417,0.30194c-0.4094,0.00312 -0.77988,-0.24214 -0.93701,-0.62023c-0.15709,-0.37806 -0.06947,-0.81364 0.22159,-1.1016zM60.79362,179.78105c-0.26913,0.00278 -0.52763,-0.10474 -0.71542,-0.29754c-0.1932,-0.18564 -0.30243,-0.442 -0.30243,-0.70996c0,-0.26793 0.10923,-0.52432 0.30243,-0.70996c0.18778,-0.1928 0.44629,-0.30031 0.71542,-0.29755h2.03467c0.27185,-0.00363 0.53341,0.10384 0.72418,0.29755c0.1932,0.18564 0.30242,0.442 0.30242,0.70996c0,0.26793 -0.10922,0.52432 -0.30242,0.70996c-0.19074,0.19371 -0.45231,0.30117 -0.72418,0.29754zM60.57265,185.26366c0.19305,0.19146 0.29769,0.45463 0.2888,0.72636c0.00756,0.26508 -0.09454,0.52154 -0.28222,0.70886c-0.18808,0.19237 -0.44639,0.29979 -0.71542,0.29754c-0.26651,0.00953 -0.52519,-0.09096 -0.71542,-0.27786l-1.47021,-1.47021c-0.19171,-0.18801 -0.29704,-0.44696 -0.29096,-0.71542c-0.00704,-0.2654 0.09871,-0.52138 0.29096,-0.70449c0.18808,-0.19237 0.44639,-0.2998 0.71542,-0.29755c0.26816,-0.00934 0.52787,0.0947 0.71542,0.2866zM53.65676,188.98303c-0.00706,0.55807 -0.45711,1.00907 -1.01514,1.01734c-0.26808,0.00269 -0.52506,-0.10676 -0.70886,-0.30193c-0.1928,-0.18777 -0.30031,-0.4463 -0.29754,-0.71542v-2.0456c-0.0045,-0.27071 0.10319,-0.53128 0.29754,-0.71979c0.18516,-0.19266 0.44167,-0.3003 0.70886,-0.29754c0.26869,-0.00159 0.52636,0.10667 0.71323,0.29972c0.19687,0.18715 0.30634,0.44819 0.30194,0.71979zM46.17013,183.82412c0.18905,-0.19235 0.45026,-0.29636 0.71978,-0.2866c0.2704,-0.00269 0.53024,0.1047 0.71979,0.29754c0.19266,0.1822 0.29581,0.43966 0.28221,0.70449c-0.00113,0.26922 -0.10983,0.52681 -0.30194,0.71542l-1.45052,1.45926c-0.19207,0.18654 -0.45223,0.2862 -0.71979,0.27567c-0.2704,0.00269 -0.53023,-0.1047 -0.71979,-0.29754c-0.36939,-0.40759 -0.3608,-1.03141 0.01968,-1.42865zM44.48756,177.76823c0.26913,-0.00278 0.52763,0.10475 0.71542,0.29755c0.1932,0.18564 0.30242,0.442 0.30242,0.70995c0,0.26793 -0.10922,0.52432 -0.30242,0.70996c-0.18778,0.1928 -0.44629,0.30031 -0.71542,0.29755h-2.04343c-0.26557,0.00104 -0.52006,-0.10644 -0.70449,-0.29755c-0.1932,-0.18564 -0.30242,-0.442 -0.30242,-0.70996c0,-0.26793 0.10922,-0.52431 0.30242,-0.70995c0.18441,-0.19112 0.4389,-0.29859 0.70449,-0.29755zM44.71291,172.27451c-0.18675,-0.19061 -0.28855,-0.44864 -0.28221,-0.71542c-0.00607,-0.26845 0.0993,-0.52742 0.29097,-0.71542c0.18872,-0.19239 0.4506,-0.29507 0.71979,-0.28221c0.26559,-0.00123 0.52072,0.10351 0.70886,0.29097l1.45052,1.45926c0.19415,0.18575 0.29726,0.44715 0.28221,0.71542c0.0016,0.26975 -0.10752,0.52838 -0.30194,0.71542c-0.18426,0.19277 -0.44239,0.29714 -0.70885,0.2866c-0.26735,0.00358 -0.52413,-0.10422 -0.70886,-0.29755z" fill="#ffd60a"/></g><g fill="#dedede" fill-rule="nonzero" stroke="none" stroke-width="1" stroke-linecap="butt" stroke-linejoin="miter" stroke-miterlimit="10"><path d="M92.93973,170.31574h23.0138v16.29903h-23.01379z" opacity="0"/><path d="M95.21641,185.05655c-0.69161,-0.35301 -1.27167,-0.891 -1.67561,-1.55415c-0.4084,-0.68815 -0.61656,-1.47662 -0.60109,-2.27666c-0.00405,-0.65124 0.13658,-1.2953 0.41168,-1.88557c0.26224,-0.56877 0.64669,-1.07273 1.126,-1.47594c0.498,-0.41494 1.07709,-0.7213 1.70032,-0.89956c0.07959,-0.91656 0.33541,-1.80911 0.75341,-2.62867c0.40475,-0.79316 0.94699,-1.50822 1.6015,-2.112c0.65056,-0.60145 1.40626,-1.07803 2.22933,-1.40593c0.84665,-0.33702 1.75037,-0.50756 2.66161,-0.50226c1.35774,-0.02264 2.69308,0.34764 3.84524,1.06627c1.13657,0.72717 2.04988,1.75447 2.63898,2.96833c0.81853,-0.01116 1.63214,0.12841 2.40018,0.4117c0.71075,0.26531 1.36253,0.66743 1.9185,1.18362c1.1161,1.03675 1.74193,2.497 1.72294,4.02022c0.00655,0.7627 -0.14336,1.51864 -0.44053,2.2211c-0.28743,0.67495 -0.70745,1.28533 -1.23508,1.79498c-0.53198,0.51435 -1.15731,0.92236 -1.84234,1.20215c-0.71858,0.2935 -1.48814,0.44181 -2.26434,0.43639h-12.43527c-0.8719,0.01978 -1.73546,-0.17388 -2.51546,-0.56403z"/></g><text transform="translate(96.41014,196.86853) scale(0.269,0.269)" font-size="24" xml:space="preserve" fill="#000000" fill-rule="nonzero" stroke="#000000" stroke-width="0" stroke-linecap="butt" stroke-linejoin="miter" stroke-miterlimit="10" stroke-dasharray="" stroke-dashoffset="0" font-family="Segoe UI" font-weight="bold" text-anchor="start" style="mix-blend-mode: normal"><tspan x="0" dy="0">Cloudy</tspan><tspan x="0" dy="28.799999999999997px"> 72º</tspan></text><g fill-rule="nonzero" stroke-miterlimit="10"><path d="M365.16782,254.09914c0,0 7.51896,0 9.51738,0c20.25874,0 85.30353,0 85.30353,0c0,0 0,12.17673 0,20.16036c0,11.68097 0,43.15734 0,43.15734c0,0 -60.35409,0 -77.02394,0c-8.01295,0 -17.79689,0 -17.79689,0z" fill="url(#color-13)" stroke="url(#color-14)" stroke-width="17" stroke-linecap="round" stroke-linejoin="round"/><text transform="translate(358.92743,282.36875) scale(0.40425,0.40425)" font-size="24" xml:space="preserve" fill="#ffffff" fill-rule="nonzero" stroke="#000000" stroke-width="0" stroke-linecap="butt" stroke-linejoin="miter" stroke-miterlimit="10" stroke-dasharray="" stroke-dashoffset="0" font-family="Segoe UI" font-weight="bold" text-anchor="start" style="mix-blend-mode: normal"><tspan x="0" dy="0">New update with settings</tspan><tspan x="0" dy="28.799999999999997px">and files app is coming</tspan><tspan x="0" dy="28.799999999999997px">soon!</tspan></text><text transform="translate(399.48,264.79902) scale(0.42363,0.42363)" font-size="24" xml:space="preserve" fill="#e3f9fb" fill-rule="nonzero" stroke="#000000" stroke-width="0" stroke-linecap="butt" stroke-linejoin="miter" stroke-miterlimit="10" stroke-dasharray="" stroke-dashoffset="0" font-family="Segoe UI" font-weight="bold" text-anchor="start" style="mix-blend-mode: normal"><tspan x="0" dy="0">News</tspan></text></g></g></g></svg>