<svg version="1.1" xmlns="http://www.w3.org/2000/svg" xmlns:xlink="http://www.w3.org/1999/xlink" width="101.26748" height="85.71607" viewBox="0,0,101.26748,85.71607"><g transform="translate(-5.72206,-65.09185)"><g data-paper-data="{&quot;isPaintingLayer&quot;:true}" fill-rule="nonzero" stroke-linecap="butt" stroke-linejoin="miter" stroke-miterlimit="10" stroke-dasharray="" stroke-dashoffset="0" style="mix-blend-mode: normal"><path d="M11.78485,83.33101c-1.65853,0.17575 -3.30692,-0.41269 -4.47923,-1.599c-1.1723,-1.1863 -1.74116,-2.84156 -1.54574,-4.49788v-6.01483c-0.1954,-1.65633 0.37344,-3.31158 1.54574,-4.49788c1.1723,-1.1863 2.82069,-1.77474 4.47923,-1.599h89.13938c1.64141,-0.10366 3.25486,0.46165 4.47264,1.56708l0.01751,0.01752c1.10527,1.2353 1.66821,2.86268 1.56248,4.51689v6.01484c0.10571,1.64808 -0.45303,3.26983 -1.55142,4.50306l-0.01935,0.02028c-1.21971,1.10969 -2.83705,1.67773 -4.48278,1.57446z" fill="#3859cd" stroke="none" stroke-width="1"/><text transform="translate(22.66139,77.12113) scale(0.1682,0.1682)" font-size="40" xml:space="preserve" fill="#ffffff" fill-rule="nonzero" stroke="none" stroke-width="1" stroke-linecap="butt" stroke-linejoin="miter" stroke-miterlimit="10" stroke-dasharray="" stroke-dashoffset="0" font-family="Sans Serif" font-weight="normal" text-anchor="start" style="mix-blend-mode: normal"><tspan x="0" dy="0">Home</tspan></text><path d="M17.53476,77.73534h-1.83193c-0.2811,0 -0.50887,-0.22777 -0.50887,-0.50887v-1.83193c0,-0.22492 -0.18217,-0.40709 -0.40709,-0.40709h-0.81419c-0.22492,0 -0.40709,0.18217 -0.40709,0.40709v1.83193c0,0.2811 -0.22777,0.50887 -0.50887,0.50887h-1.83193c-0.2811,0 -0.50887,-0.22777 -0.50887,-0.50887v-3.88511c0,-0.46796 0.21454,-0.91006 0.58194,-1.1995l2.89281,-2.27953c0.11093,-0.08712 0.26726,-0.08712 0.37799,0l2.89322,2.27953c0.3674,0.28944 0.58174,0.73135 0.58174,1.1991v3.88551c0,0.2811 -0.22777,0.50887 -0.50887,0.50887z" fill="#ffffff" stroke="none" stroke-width="1"/><text transform="translate(22.43829,100.80304) scale(0.1682,0.1682)" font-size="40" xml:space="preserve" fill="#000000" fill-rule="nonzero" stroke="none" stroke-width="1" stroke-linecap="butt" stroke-linejoin="miter" stroke-miterlimit="10" stroke-dasharray="" stroke-dashoffset="0" font-family="Sans Serif" font-weight="normal" text-anchor="start" style="mix-blend-mode: normal"><tspan x="0" dy="0">Apps</tspan></text><text transform="translate(22.4526,124.28529) scale(0.1682,0.1682)" font-size="40" xml:space="preserve" fill="#000000" fill-rule="nonzero" stroke="none" stroke-width="1" stroke-linecap="butt" stroke-linejoin="miter" stroke-miterlimit="10" stroke-dasharray="" stroke-dashoffset="0" font-family="Sans Serif" font-weight="normal" text-anchor="start" style="mix-blend-mode: normal"><tspan x="0" dy="0">Games</tspan></text><path d="M18.21841,97.97445v2.7307c0.07646,0.58858 -0.09808,1.18218 -0.48096,1.63569c-0.45809,0.38202 -1.05446,0.55627 -1.64617,0.48096h-2.72441c-0.59164,0.07441 -1.18765,-0.09973 -1.64617,-0.48096c-0.38346,-0.45319 -0.55808,-1.04706 -0.48096,-1.63569v-2.73698c-0.07437,-0.58841 0.09993,-1.18119 0.48096,-1.63569l0.01572,-0.01572c0.19324,-0.1852 0.4329,-0.31481 0.69368,-0.37513c0.30333,-0.06936 0.61422,-0.09999 0.92525,-0.09116h2.73593c0.31416,-0.00907 0.6282,0.02155 0.93468,0.09116c0.26117,0.0601 0.50122,0.18972 0.69472,0.37513l0.01572,0.01572c0.38264,0.45615 0.55738,1.05138 0.48201,1.64198zM13.35534,95.31711h2.73593c0.35963,-0.01114 0.71921,0.02408 1.06985,0.10478c0.17671,0.04393 0.34713,0.11012 0.50716,0.197c-0.0346,-0.28848 -0.16054,-0.55835 -0.35941,-0.77017c-0.08401,-0.08554 -0.18176,-0.15638 -0.28921,-0.20957c-0.35089,-0.16152 -0.73699,-0.23145 -1.12225,-0.20328h-2.34299c-0.38386,-0.02751 -0.76844,0.04243 -1.11806,0.20328c-0.10693,0.05352 -0.20429,0.12434 -0.28816,0.20957c-0.19946,0.21196 -0.32579,0.48224 -0.36046,0.77122c0.1613,-0.08758 0.33314,-0.15414 0.51135,-0.19804c0.34594,-0.08123 0.70107,-0.11647 1.05623,-0.10478zM15.89847,93.9067c0.34576,-0.01097 0.6912,0.03 1.0248,0.12155c-0.04458,-0.12757 -0.11605,-0.24407 -0.20957,-0.3416c-0.30333,-0.24864 -0.69525,-0.36224 -1.08452,-0.31435h-1.80335c-0.38769,-0.04828 -0.77815,0.06544 -1.07928,0.31435c-0.09346,0.09638 -0.16494,0.21184 -0.20957,0.33846c0.33125,-0.08877 0.67361,-0.12901 1.01641,-0.11945z" fill="#000000" stroke="none" stroke-width="1"/><g stroke="none" stroke-width="1"><path d="M19.32834,123.04128c0,0.1504 -0.10026,0.40106 -0.22559,0.52639c-0.25066,0.25066 -0.87731,0.65172 -2.18074,0.70185c-0.0752,0 -0.12533,0.02507 -0.17546,0.0752c-0.27573,0.17546 -0.92744,0.45119 -2.4314,0.45119c-1.52903,-0.02507 -2.18074,-0.27573 -2.4314,-0.45119c-0.05013,-0.05013 -0.10026,-0.0752 -0.17546,-0.0752c-1.30343,-0.02507 -1.93008,-0.45119 -2.18074,-0.70185c-0.12533,-0.12533 -0.22559,-0.35092 -0.22559,-0.52639c0,-0.60158 0.05013,-2.30607 0.25066,-3.05805c0.10026,-0.32586 0.40106,-0.57652 0.77705,-0.57652c0.40106,0 1.00264,-0.37599 1.30343,-0.65172c0.17546,-0.1504 0.35092,-0.22559 0.57652,-0.22559h4.21109c0.22559,0 0.42612,0.10026 0.57652,0.22559c0.30079,0.27573 0.90238,0.65172 1.30343,0.65172c0.37599,0 0.67678,0.22559 0.77705,0.57652c0.20053,0.75198 0.25066,2.45647 0.25066,3.05805z" fill="#000000"/><path d="M16.34549,123.07684h-4.06069c-0.12533,0 -0.22559,-0.10026 -0.22559,-0.22559v-2.80739c0,-0.12533 0.10026,-0.22559 0.22559,-0.22559h4.03563c0.12533,0 0.22559,0.10026 0.22559,0.22559v2.80739c0.02507,0.12533 -0.0752,0.22559 -0.20053,0.22559z" fill="#000000"/><path d="M16.34549,119.81826h-4.06069c-0.12533,0 -0.22559,0.10026 -0.22559,0.22559v2.80739c0,0.12533 0.10026,0.22559 0.22559,0.22559h4.06069c0.12533,0 0.22559,-0.10026 0.22559,-0.22559v-2.80739c0,-0.12533 -0.10026,-0.22559 -0.22559,-0.22559M15.06712,119.06628c2.00528,0 2.00528,0.60158 2.00528,1.00264v2.75726c0,0.42612 0,1.27837 -2.5066,1.27837h-0.50132c-2.5066,0 -2.5066,-0.87731 -2.5066,-1.27837v-2.75726c0,-0.42612 0,-1.00264 2.00528,-1.00264z" fill="#f0f1f4"/><path d="M10.30458,119.81826h0.50132v1.50396h-0.50132z" fill="#f0f1f4"/><path d="M9.80326,120.31958h1.50396v0.50132h-1.50396zM18.82702,120.44491c0,0.20053 -0.17546,0.37599 -0.37599,0.37599c-0.20053,0 -0.37599,-0.17546 -0.37599,-0.37599c0,-0.20053 0.17546,-0.37599 0.37599,-0.37599c0.20053,0 0.37599,0.17546 0.37599,0.37599zM18.07504,121.19689c0,0.20053 -0.17546,0.37599 -0.37599,0.37599c-0.20053,0 -0.37599,-0.17546 -0.37599,-0.37599c0,-0.20053 0.17546,-0.37599 0.37599,-0.37599c0.20053,0 0.37599,0.17546 0.37599,0.37599z" fill="#f0f1f4"/></g><text transform="translate(22.79158,148.78952) scale(0.1682,0.1682)" font-size="40" xml:space="preserve" fill="#000000" fill-rule="nonzero" stroke="none" stroke-width="1" stroke-linecap="butt" stroke-linejoin="miter" stroke-miterlimit="10" stroke-dasharray="" stroke-dashoffset="0" font-family="Sans Serif" font-weight="normal" text-anchor="start" style="mix-blend-mode: normal"><tspan x="0" dy="0">Updates</tspan></text><g fill="#000000" stroke="#000000" stroke-width="0"><g><path d="M11.85908,149.63929l-2.00434,-2.56329h4.00871z"/><path d="M14.58337,143.6916c0,0 -0.7505,0 -1.59849,0c-0.18007,0 -0.80177,0.73141 -1.02997,0.69842c-0.41165,-0.0595 -0.38276,-0.92655 -0.13104,-1.14176c0.45984,-0.39315 0.80847,-0.79793 1.07584,-0.79793c0.84628,0 1.68367,0 1.68367,0z" data-paper-data="{&quot;index&quot;:null}"/><path d="M11.23846,147.87131c0,0 0,-2.59404 0,-3.44031c0,-0.26736 0.24508,-0.82894 0.63823,-1.28876c0.33453,-0.39125 0.82661,-0.70885 0.82661,-0.70885c0,0 -0.22358,1.52466 -0.22358,2.02956c0,0.848 0,3.40838 0,3.40838z"/></g><g data-paper-data="{&quot;index&quot;:null}"><path d="M16.94401,142.38014l2.00434,2.56329h-4.00871z"/><path d="M14.21972,148.32781c0,0 0.7505,0 1.5985,0c0.18007,0 0.80176,-0.73141 1.02996,-0.69842c0.41165,0.0595 0.38276,0.92654 0.13104,1.14175c-0.45984,0.39314 -0.80847,0.79793 -1.07584,0.79793c-0.84628,0 -1.68367,0 -1.68367,0z" data-paper-data="{&quot;index&quot;:null}"/><path d="M17.56464,144.14813c0,0 0,2.59404 0,3.44031c0,0.26736 -0.24509,0.82894 -0.63824,1.28878c-0.33453,0.39125 -0.8266,0.70885 -0.8266,0.70885c0,0 0.22358,-1.52466 0.22358,-2.02956c0,-0.848 0,-3.40838 0,-3.40838z"/></g></g></g></g></svg>