<svg version="1.1" xmlns="http://www.w3.org/2000/svg" xmlns:xlink="http://www.w3.org/1999/xlink" width="123.55868" height="21.62211" viewBox="0,0,123.55868,21.62211"><g transform="translate(-233.88246,-233.83143)"><g data-paper-data="{&quot;isPaintingLayer&quot;:true}" fill-rule="nonzero" stroke="#000000" stroke-width="0" stroke-linecap="butt" stroke-linejoin="miter" stroke-miterlimit="10" stroke-dasharray="" stroke-dashoffset="0" style="mix-blend-mode: normal"><g><g><path d="M241.77297,255.4383c-2.14633,0.12775 -4.25459,-0.58392 -5.83874,-1.97094c-1.38013,-1.32204 -2.05176,-3.16839 -2.05176,-5.6444v-6.36103c0,-2.476 0.67164,-4.32236 2.05263,-5.64524c1.58439,-1.38598 3.69203,-2.09726 5.83786,-1.97011h107.7243c2.14941,-0.12952 4.26234,0.57564 5.85803,1.95505l0.0228,0.02174c1.44675,1.54213 2.18401,3.57346 2.04651,5.63854v6.36103c0.13821,2.05837 -0.59343,4.08384 -2.0316,5.62433l-0.02542,0.02509c-1.5983,1.38692 -3.71812,2.0963 -5.87468,1.96592z" fill="#3859cd"/><path d="M349.49734,254.6025c2.27853,0 4.04362,-0.57775 5.24646,-1.71733l0.01861,-0.01832c1.20146,-1.19286 1.78542,-2.84261 1.78542,-5.04342v-6.36133c0,-2.19809 -0.58718,-3.85105 -1.79505,-5.05294l-0.01649,-0.01575c-1.19363,-1.13506 -2.95626,-1.71058 -5.23899,-1.71058h-107.72442c-2.2673,0 -4.02233,0.58 -5.21651,1.72386c-1.20916,1.15821 -1.79699,2.81183 -1.79699,5.05541v6.36133c0,2.24385 0.5874,3.89718 1.79635,5.05486c1.19289,1.14413 2.94814,1.72421 5.21714,1.72421h107.72442M349.49734,255.4387h-107.72441c-2.5108,0 -4.47519,-0.66283 -5.8389,-1.97083c-1.38041,-1.32194 -2.05141,-3.16844 -2.05141,-5.64445v-6.36133c0,-2.47601 0.67132,-4.32251 2.05248,-5.64541c1.36468,-1.30728 3.32908,-1.97007 5.83784,-1.97007h107.72442c2.52333,0 4.49413,0.65769 5.85805,1.95465l0.02312,0.022c1.38149,1.37037 2.04618,3.21029 2.04618,5.63884v6.36133c0,2.42784 -0.66436,4.26775 -2.03139,5.6242l-0.02538,0.02491c-1.37773,1.30898 -3.34823,1.96619 -5.87057,1.96619z" fill-opacity="0.05" fill="#ffffff"/></g><text transform="translate(271.63509,247.07685) scale(0.17116,0.16323)" font-size="40" xml:space="preserve" fill="#ffffff" fill-rule="nonzero" stroke="#000000" stroke-width="0" stroke-linecap="butt" stroke-linejoin="miter" stroke-miterlimit="10" stroke-dasharray="" stroke-dashoffset="0" font-family="Sans Serif" font-weight="normal" text-anchor="start" style="mix-blend-mode: normal"><tspan x="0" dy="0">More Wallpapers</tspan></text><path d="M268.18971,243.38269v2.51866c0.04784,0.56387 -0.13929,1.123 -0.52083,1.55618c-0.44468,0.35959 -1.02086,0.53613 -1.60196,0.49085h-4.64714c-0.57879,0.04444 -1.15218,-0.13382 -1.59231,-0.49503c-0.29352,-0.30845 -0.46689,-0.70379 -0.49102,-1.11969c0,-0.00251 0,-0.00752 0,-0.00752c-0.0035,-0.02927 -0.00526,-0.05854 -0.00788,-0.09115c-0.00263,-0.03261 -0.00877,-0.06439 -0.00877,-0.09784c-0.00701,-0.07609 -0.00701,-0.15219 -0.00701,-0.2358v-2.51698c-0.00685,-0.31104 0.03632,-0.62126 0.12802,-0.91983c0.14333,-0.48445 0.53891,-0.86392 1.04605,-1.00344c0.06604,-0.02063 0.13531,-0.03874 0.2078,-0.05435c0.23885,-0.04882 0.48261,-0.07237 0.72689,-0.07024h4.64715c0.16918,-0.00074 0.33823,0.00959 0.50591,0.03093c0.40838,0.03443 0.79351,0.19605 1.09602,0.45992c0.13397,0.13432 0.24176,0.29036 0.31829,0.46075c0.05645,0.12468 0.09991,0.25437 0.12977,0.38716c0.03354,0.14983 0.05494,0.30192 0.06401,0.45489c0.00701,0.08139 0.00936,0.16558 0.00701,0.25254zM261.29441,242.54649c-0.35379,0.06733 -0.63084,0.33024 -0.70321,0.66729c-0.07805,0.36941 0.10681,0.74396 0.45506,0.92199c0.34825,0.17806 0.77765,0.11756 1.05704,-0.1489c0.2794,-0.26646 0.34281,-0.67598 0.15612,-1.00809c-0.18669,-0.3321 -0.57943,-0.5084 -0.96677,-0.43397zM267.15067,246.96919c0.23886,-0.30676 0.34837,-0.6878 0.30688,-1.06784v-0.44236c-0.00011,-0.19135 -0.0799,-0.37484 -0.22184,-0.51008l-0.45156,-0.42981c-0.20227,-0.22713 -0.49156,-0.36748 -0.80315,-0.38968c-0.31746,0.02477 -0.61121,0.16996 -0.81545,0.40305l-1.54407,1.47257c-0.18384,0.17511 -0.48168,0.17511 -0.6655,0l-0.33495,-0.31943c-0.20228,-0.22713 -0.49157,-0.36748 -0.80317,-0.38968c-0.31746,0.02476 -0.61121,0.16996 -0.81544,0.40305l-0.63569,0.60624c-0.19572,0.18785 -0.19572,0.49115 0,0.679v0c0.17681,0.17029 0.41772,0.26604 0.66901,0.26592h5.03206c0.38455,0.03577 0.76945,-0.06488 1.08112,-0.28264z" fill="#ffffff"/></g></g></g></svg>