<svg version="1.1" xmlns="http://www.w3.org/2000/svg" xmlns:xlink="http://www.w3.org/1999/xlink" width="29.71795" height="29.09296" viewBox="0,0,29.71795,29.09296"><defs><linearGradient x1="197.00005" y1="396.47591" x2="197.00005" y2="415.5241" gradientUnits="userSpaceOnUse" id="color-1"><stop offset="0" stop-color="#ffc400"/><stop offset="1" stop-color="#ffde00"/></linearGradient><linearGradient x1="197.00005" y1="396.47591" x2="197.00005" y2="415.5241" gradientUnits="userSpaceOnUse" id="color-2"><stop offset="0" stop-color="#ffc400"/><stop offset="1" stop-color="#ffde00"/></linearGradient><linearGradient x1="197.00005" y1="396.47591" x2="197.00005" y2="415.5241" gradientUnits="userSpaceOnUse" id="color-3"><stop offset="0" stop-color="#ffc400"/><stop offset="1" stop-color="#ffde00"/></linearGradient><linearGradient x1="197.00005" y1="396.47591" x2="197.00005" y2="415.5241" gradientUnits="userSpaceOnUse" id="color-4"><stop offset="0" stop-color="#ffc400"/><stop offset="1" stop-color="#ffde00"/></linearGradient><linearGradient x1="197.00005" y1="397.1009" x2="197.00005" y2="414.89909" gradientUnits="userSpaceOnUse" id="color-5"><stop offset="0" stop-color="#ffc400"/><stop offset="1" stop-color="#ffde00"/></linearGradient></defs><g transform="translate(-182.14104,-391.45352)"><g data-paper-data="{&quot;isPaintingLayer&quot;:true}" stroke="none" stroke-width="1" stroke-linejoin="miter" stroke-miterlimit="10" stroke-dasharray="" stroke-dashoffset="0" style="mix-blend-mode: normal"><path d="M182.14105,395.50007c0,-2.23485 1.85062,-4.04655 4.13348,-4.04655h21.45101c1.09626,0 2.14763,0.42634 2.92281,1.18521c0.77516,0.75887 1.21065,1.78812 1.21065,2.86133v20.99987c0,2.23485 -1.85061,4.04655 -4.13346,4.04655h-21.45101c-2.28286,0 -4.13348,-1.8117 -4.13348,-4.04655z" fill-opacity="0.00784" fill="#3d3d3d" fill-rule="evenodd" stroke-linecap="square"/><path d="M198.72392,401.85727c0.53548,0.23002 1.02182,0.56075 1.43256,0.97422c0.41,0.41314 0.73859,0.89975 0.96865,1.43442c0.47236,1.10845 0.47236,2.36159 0,3.47005c-0.23078,0.53316 -0.55932,1.01842 -0.96865,1.4307c-0.41036,0.41258 -0.89603,0.74266 -1.43069,0.97235c-1.10583,0.47263 -2.35679,0.47263 -3.46262,0c-0.53461,-0.2318 -1.02112,-0.56158 -1.43441,-0.97235c-0.41316,-0.40989 -0.74331,-0.89569 -0.97235,-1.4307c-0.46662,-1.10962 -0.46662,-2.36042 0,-3.47005c0.22834,-0.5365 0.55854,-1.02365 0.97235,-1.43442c0.41328,-0.41077 0.8998,-0.74055 1.43441,-0.97235c0.54675,-0.23752 1.13706,-0.35824 1.73318,-0.35442c0.59407,-0.00336 1.18236,0.11669 1.7276,0.35258zM197.85732,399.07381c0.00422,0.22624 -0.08586,0.44406 -0.24866,0.60123c-0.15927,0.16352 -0.37853,0.25473 -0.60679,0.25237c-0.47017,-0.00304 -0.85056,-0.38343 -0.8536,-0.8536v-1.73502c-0.00236,-0.22826 0.08885,-0.44752 0.25237,-0.60679c0.15458,-0.16408 0.37021,-0.25682 0.59566,-0.25607c0.2283,-0.00152 0.44714,0.09111 0.60493,0.25607c0.16563,0.15813 0.25834,0.3778 0.25607,0.60679zM202.51869,399.27606c0.33344,-0.33043 0.87087,-0.33043 1.20431,0c0.15854,0.16337 0.24594,0.38288 0.24309,0.6105c0.00828,0.22862 -0.07994,0.45016 -0.24309,0.6105l-1.23029,1.23029c-0.16066,0.16639 -0.38292,0.25907 -0.61423,0.25607c-0.34725,0.00263 -0.66148,-0.20537 -0.79473,-0.52606c-0.13324,-0.32068 -0.05894,-0.69012 0.18793,-0.93433zM203.91045,406.85636c-0.22826,0.00236 -0.44752,-0.08885 -0.60679,-0.25237c-0.16386,-0.15745 -0.2565,-0.37491 -0.2565,-0.60215c0,-0.22725 0.09263,-0.4447 0.2565,-0.60215c0.15927,-0.16352 0.37853,-0.25473 0.60679,-0.25237h1.72575c0.2306,-0.00308 0.45243,0.08807 0.61423,0.25237c0.16386,0.15745 0.2565,0.3749 0.2565,0.60215c0,0.22725 -0.09263,0.4447 -0.2565,0.60215c-0.16179,0.1643 -0.38363,0.25544 -0.61423,0.25237zM203.72301,411.50661c0.16374,0.16239 0.25247,0.3856 0.24494,0.61607c0.00641,0.22483 -0.08018,0.44234 -0.23937,0.60123c-0.15951,0.16317 -0.37862,0.25428 -0.60681,0.25237c-0.22603,0.00807 -0.44545,-0.07715 -0.60679,-0.23567l-1.247,-1.247c-0.16258,-0.15945 -0.25193,-0.3791 -0.24681,-0.60679c-0.00596,-0.22511 0.08372,-0.44222 0.24681,-0.59752c0.15951,-0.16317 0.37862,-0.25428 0.60679,-0.25237c0.22745,-0.00792 0.44773,0.08031 0.60681,0.24309zM197.85732,414.66119c-0.00598,0.47334 -0.3877,0.85587 -0.86102,0.86287c-0.22737,0.00229 -0.44534,-0.09056 -0.60123,-0.25607c-0.16352,-0.15927 -0.25472,-0.37853 -0.25237,-0.60679v-1.73502c-0.00382,-0.22961 0.08752,-0.4506 0.25237,-0.6105c0.15704,-0.16341 0.3746,-0.25472 0.60123,-0.25237c0.2279,-0.00135 0.44644,0.09048 0.60493,0.25422c0.16697,0.15875 0.25983,0.38016 0.25607,0.6105zM191.50731,410.28559c0.16035,-0.16316 0.38189,-0.25138 0.6105,-0.24309c0.22934,-0.00229 0.44973,0.08881 0.6105,0.25237c0.16341,0.15455 0.25091,0.37291 0.23938,0.59752c-0.00096,0.22834 -0.09315,0.44683 -0.25607,0.60681l-1.2303,1.23771c-0.16291,0.15823 -0.38358,0.24273 -0.61049,0.23381c-0.22934,0.00229 -0.44973,-0.0888 -0.6105,-0.25237c-0.31331,-0.34571 -0.30602,-0.87481 0.0167,-1.21174zM190.08036,405.14917c0.22826,-0.00236 0.44752,0.08885 0.60681,0.25237c0.16386,0.15745 0.2565,0.37491 0.2565,0.60215c0,0.22725 -0.09263,0.4447 -0.2565,0.60215c-0.15927,0.16352 -0.37854,0.25472 -0.60681,0.25237h-1.73316c-0.22526,0.00089 -0.44111,-0.09027 -0.59752,-0.25237c-0.16386,-0.15745 -0.2565,-0.3749 -0.2565,-0.60215c0,-0.22725 0.09263,-0.4447 0.2565,-0.60215c0.15641,-0.16209 0.37226,-0.25326 0.59752,-0.25237zM190.27147,400.48966c-0.1584,-0.16168 -0.24472,-0.38052 -0.23938,-0.60679c-0.00514,-0.22769 0.08422,-0.44734 0.24681,-0.60679c0.16006,-0.16319 0.38219,-0.25027 0.6105,-0.23938c0.22527,-0.00103 0.44166,0.0878 0.60124,0.24681l1.23029,1.23771c0.16468,0.15754 0.25215,0.37926 0.23938,0.60681c0.00137,0.2288 -0.09119,0.44815 -0.25607,0.60679c-0.15628,0.1635 -0.37522,0.25202 -0.60123,0.24309c-0.22675,0.00302 -0.44456,-0.08841 -0.60124,-0.25237z" fill="url(#color-1)" fill-rule="nonzero" stroke-linecap="butt"/><path d="M198.72392,401.85727c0.53548,0.23002 1.02182,0.56076 1.43256,0.97422c0.41,0.41314 0.73859,0.89975 0.96865,1.43442c0.47237,1.10845 0.47237,2.36159 0,3.47005c-0.23078,0.53316 -0.55932,1.01841 -0.96865,1.4307c-0.41036,0.41258 -0.89602,0.74266 -1.43068,0.97235c-1.10583,0.47263 -2.35679,0.47263 -3.46263,0c-0.53462,-0.23179 -1.02112,-0.56158 -1.43441,-0.97235c-0.41317,-0.40989 -0.74331,-0.89569 -0.97235,-1.4307c-0.46662,-1.10962 -0.46662,-2.36042 0,-3.47005c0.22834,-0.5365 0.55854,-1.02365 0.97235,-1.43442c0.41328,-0.41077 0.89979,-0.74055 1.43441,-0.97235c0.54675,-0.23752 1.13706,-0.35824 1.73317,-0.35442c0.59407,-0.00336 1.18236,0.11669 1.7276,0.35257zM197.85732,399.07381c0.00421,0.22623 -0.08586,0.44406 -0.24866,0.60123c-0.15926,0.16352 -0.37853,0.25473 -0.60679,0.25237c-0.47017,-0.00304 -0.85056,-0.38343 -0.8536,-0.8536v-1.73502c-0.00236,-0.22826 0.08885,-0.44752 0.25237,-0.60679c0.15458,-0.16409 0.37021,-0.25682 0.59566,-0.25607c0.22829,-0.00152 0.44714,0.09111 0.60494,0.25607c0.16563,0.15813 0.25834,0.3778 0.25607,0.60679zM202.51869,399.27606c0.33343,-0.33043 0.87088,-0.33043 1.20431,0c0.15854,0.16337 0.24594,0.38288 0.24309,0.6105c0.00829,0.22862 -0.07993,0.45016 -0.24309,0.6105l-1.23029,1.23029c-0.16066,0.16639 -0.38292,0.25906 -0.61423,0.25607c-0.34725,0.00264 -0.66148,-0.20536 -0.79473,-0.52605c-0.13324,-0.32068 -0.05894,-0.69012 0.18793,-0.93434zM203.91045,406.85636c-0.22826,0.00236 -0.44752,-0.08885 -0.6068,-0.25237c-0.16386,-0.15745 -0.2565,-0.3749 -0.2565,-0.60215c0,-0.22725 0.09263,-0.44471 0.2565,-0.60215c0.15926,-0.16352 0.37854,-0.25473 0.6068,-0.25237h1.72575c0.2306,-0.00307 0.45243,0.08807 0.61423,0.25237c0.16386,0.15745 0.2565,0.3749 0.2565,0.60215c0,0.22725 -0.09263,0.4447 -0.2565,0.60215c-0.16178,0.1643 -0.38363,0.25544 -0.61423,0.25237zM203.72301,411.5066c0.16374,0.16239 0.25247,0.38561 0.24494,0.61608c0.00641,0.22483 -0.08018,0.44234 -0.23937,0.60123c-0.15951,0.16318 -0.37862,0.25428 -0.60681,0.25237c-0.22603,0.00807 -0.44544,-0.07715 -0.60679,-0.23567l-1.247,-1.247c-0.16258,-0.15945 -0.25193,-0.3791 -0.24681,-0.60679c-0.00596,-0.2251 0.08372,-0.44222 0.24681,-0.59752c0.15951,-0.16318 0.37861,-0.25428 0.60679,-0.25237c0.22745,-0.00792 0.44773,0.08031 0.60681,0.24309zM197.85732,414.66119c-0.00597,0.47334 -0.3877,0.85587 -0.86101,0.86287c-0.22737,0.00229 -0.44534,-0.09055 -0.60123,-0.25607c-0.16352,-0.15926 -0.25472,-0.37853 -0.25237,-0.60679v-1.73502c-0.00382,-0.22961 0.08752,-0.4506 0.25237,-0.61051c0.15704,-0.16342 0.37461,-0.25472 0.60123,-0.25237c0.2279,-0.00136 0.44644,0.09048 0.60494,0.25422c0.16698,0.15875 0.25982,0.38016 0.25607,0.61051zM191.50732,410.28559c0.16036,-0.16315 0.38189,-0.25138 0.6105,-0.2431c0.22934,-0.00229 0.44974,0.08882 0.61051,0.25237c0.16342,0.15454 0.25091,0.3729 0.23938,0.59752c-0.00096,0.22834 -0.09316,0.44682 -0.25608,0.60681l-1.2303,1.2377c-0.16291,0.15823 -0.38358,0.24273 -0.6105,0.23382c-0.22934,0.00229 -0.44973,-0.0888 -0.6105,-0.25237c-0.31331,-0.34571 -0.30602,-0.87481 0.0167,-1.21174zM190.08036,405.14917c0.22826,-0.00236 0.44752,0.08885 0.60681,0.25237c0.16386,0.15745 0.2565,0.37491 0.2565,0.60215c0,0.22725 -0.09263,0.44471 -0.2565,0.60215c-0.15926,0.16352 -0.37854,0.25472 -0.60681,0.25237h-1.73316c-0.22525,0.00089 -0.44111,-0.09028 -0.59752,-0.25237c-0.16386,-0.15745 -0.2565,-0.3749 -0.2565,-0.60215c0,-0.22725 0.09263,-0.44471 0.2565,-0.60215c0.15641,-0.16208 0.37226,-0.25326 0.59752,-0.25237zM190.27147,400.48965c-0.1584,-0.16168 -0.24472,-0.38051 -0.23938,-0.60679c-0.00514,-0.22768 0.08421,-0.44734 0.24681,-0.60679c0.16006,-0.16319 0.38219,-0.25028 0.61051,-0.23938c0.22528,-0.00104 0.44166,0.0878 0.60124,0.24681l1.23029,1.23771c0.16467,0.15754 0.25215,0.37926 0.23938,0.60681c0.00137,0.2288 -0.09119,0.44815 -0.25607,0.60679c-0.15628,0.1635 -0.37522,0.25202 -0.60123,0.2431c-0.22675,0.00303 -0.44456,-0.08841 -0.60124,-0.25237z" fill="url(#color-2)" fill-rule="nonzero" stroke-linecap="butt"/><path d="M198.72392,401.85727c0.53548,0.23002 1.02182,0.56076 1.43256,0.97422c0.41,0.41314 0.73859,0.89975 0.96865,1.43442c0.47237,1.10845 0.47237,2.36159 0,3.47005c-0.23078,0.53316 -0.55932,1.01841 -0.96865,1.4307c-0.41036,0.41258 -0.89602,0.74266 -1.43068,0.97235c-1.10583,0.47263 -2.35679,0.47263 -3.46263,0c-0.53462,-0.23179 -1.02112,-0.56158 -1.43441,-0.97235c-0.41317,-0.40989 -0.74331,-0.89569 -0.97235,-1.4307c-0.46662,-1.10962 -0.46662,-2.36042 0,-3.47005c0.22834,-0.5365 0.55854,-1.02365 0.97235,-1.43442c0.41328,-0.41077 0.89979,-0.74055 1.43441,-0.97235c0.54675,-0.23752 1.13706,-0.35824 1.73317,-0.35442c0.59407,-0.00336 1.18236,0.11669 1.7276,0.35257zM197.85732,399.07381c0.00421,0.22623 -0.08586,0.44406 -0.24866,0.60123c-0.15926,0.16352 -0.37853,0.25473 -0.60679,0.25237c-0.47017,-0.00304 -0.85056,-0.38343 -0.8536,-0.8536v-1.73502c-0.00236,-0.22826 0.08885,-0.44752 0.25237,-0.60679c0.15458,-0.16409 0.37021,-0.25682 0.59566,-0.25607c0.22829,-0.00152 0.44714,0.09111 0.60494,0.25607c0.16563,0.15813 0.25834,0.3778 0.25607,0.60679zM202.51869,399.27606c0.33343,-0.33043 0.87088,-0.33043 1.20431,0c0.15854,0.16337 0.24594,0.38288 0.24308,0.6105c0.00829,0.22862 -0.07994,0.45016 -0.24308,0.6105l-1.23029,1.23029c-0.16066,0.16639 -0.38292,0.25906 -0.61423,0.25607c-0.34725,0.00264 -0.66148,-0.20536 -0.79473,-0.52605c-0.13324,-0.32068 -0.05894,-0.69012 0.18793,-0.93434zM203.91045,406.85636c-0.22826,0.00236 -0.44752,-0.08885 -0.6068,-0.25237c-0.16386,-0.15745 -0.2565,-0.3749 -0.2565,-0.60215c0,-0.22725 0.09263,-0.44471 0.2565,-0.60215c0.15926,-0.16352 0.37853,-0.25473 0.6068,-0.25237h1.72575c0.2306,-0.00307 0.45243,0.08807 0.61423,0.25237c0.16386,0.15745 0.2565,0.3749 0.2565,0.60215c0,0.22725 -0.09263,0.4447 -0.2565,0.60215c-0.16179,0.1643 -0.38363,0.25544 -0.61423,0.25237zM203.72301,411.5066c0.16374,0.16239 0.25247,0.38561 0.24494,0.61608c0.00641,0.22483 -0.08017,0.44234 -0.23937,0.60123c-0.15951,0.16318 -0.37862,0.25428 -0.60681,0.25237c-0.22604,0.00807 -0.44545,-0.07715 -0.60679,-0.23567l-1.247,-1.247c-0.16258,-0.15945 -0.25193,-0.3791 -0.24681,-0.60679c-0.00596,-0.2251 0.08372,-0.44222 0.24681,-0.59752c0.15951,-0.16318 0.37861,-0.25428 0.60679,-0.25237c0.22745,-0.00792 0.44773,0.08031 0.60681,0.24309zM197.85732,414.66119c-0.00597,0.47334 -0.3877,0.85587 -0.86101,0.86287c-0.22737,0.00229 -0.44534,-0.09055 -0.60123,-0.25607c-0.16352,-0.15926 -0.25472,-0.37853 -0.25237,-0.60679v-1.73502c-0.00382,-0.22961 0.08752,-0.4506 0.25237,-0.61051c0.15704,-0.16342 0.37461,-0.25472 0.60123,-0.25237c0.2279,-0.00136 0.44644,0.09048 0.60494,0.25422c0.16698,0.15875 0.25982,0.38016 0.25607,0.61051zM191.50732,410.28559c0.16036,-0.16315 0.38189,-0.25138 0.6105,-0.2431c0.22934,-0.00229 0.44974,0.08882 0.61051,0.25237c0.16342,0.15454 0.25091,0.3729 0.23938,0.59752c-0.00096,0.22834 -0.09316,0.44682 -0.25608,0.60681l-1.2303,1.2377c-0.16291,0.15823 -0.38358,0.24273 -0.6105,0.23382c-0.22934,0.00229 -0.44973,-0.0888 -0.6105,-0.25237c-0.31331,-0.34571 -0.30602,-0.87481 0.0167,-1.21174zM190.08036,405.14917c0.22826,-0.00236 0.44752,0.08885 0.60681,0.25237c0.16386,0.15745 0.2565,0.37491 0.2565,0.60215c0,0.22725 -0.09263,0.44471 -0.2565,0.60215c-0.15926,0.16352 -0.37854,0.25472 -0.60681,0.25237h-1.73316c-0.22525,0.00089 -0.44111,-0.09028 -0.59752,-0.25237c-0.16386,-0.15745 -0.2565,-0.3749 -0.2565,-0.60215c0,-0.22725 0.09263,-0.44471 0.2565,-0.60215c0.15641,-0.16208 0.37226,-0.25326 0.59752,-0.25237zM190.27147,400.48965c-0.1584,-0.16168 -0.24472,-0.38051 -0.23938,-0.60679c-0.00514,-0.22768 0.08421,-0.44734 0.24681,-0.60679c0.16006,-0.16319 0.38219,-0.25028 0.61051,-0.23938c0.22528,-0.00104 0.44166,0.0878 0.60124,0.24681l1.23029,1.23771c0.16467,0.15754 0.25215,0.37926 0.23938,0.60681c0.00137,0.2288 -0.09119,0.44815 -0.25607,0.60679c-0.15628,0.1635 -0.37522,0.25202 -0.60123,0.2431c-0.22675,0.00303 -0.44456,-0.08841 -0.60124,-0.25237z" fill="url(#color-3)" fill-rule="nonzero" stroke-linecap="butt"/><path d="M198.72392,401.85727c0.53548,0.23002 1.02182,0.56076 1.43256,0.97422c0.41,0.41314 0.73859,0.89975 0.96865,1.43442c0.47236,1.10845 0.47236,2.36159 0,3.47005c-0.23078,0.53316 -0.55932,1.01841 -0.96865,1.4307c-0.41036,0.41258 -0.89603,0.74266 -1.43068,0.97235c-1.10583,0.47263 -2.35679,0.47263 -3.46263,0c-0.53462,-0.23179 -1.02112,-0.56158 -1.43441,-0.97235c-0.41317,-0.40989 -0.74331,-0.89569 -0.97235,-1.4307c-0.46662,-1.10962 -0.46662,-2.36042 0,-3.47005c0.22834,-0.5365 0.55854,-1.02365 0.97235,-1.43442c0.41328,-0.41077 0.89979,-0.74055 1.43441,-0.97235c0.54675,-0.23752 1.13706,-0.35824 1.73317,-0.35442c0.59407,-0.00336 1.18236,0.11669 1.7276,0.35257zM197.85732,399.07381c0.00421,0.22623 -0.08586,0.44406 -0.24866,0.60123c-0.15926,0.16352 -0.37853,0.25473 -0.60679,0.25237c-0.47017,-0.00304 -0.85056,-0.38343 -0.8536,-0.8536v-1.73502c-0.00236,-0.22826 0.08885,-0.44752 0.25237,-0.60679c0.15458,-0.16409 0.37021,-0.25682 0.59566,-0.25607c0.22829,-0.00152 0.44714,0.09111 0.60494,0.25607c0.16563,0.15813 0.25834,0.3778 0.25607,0.60679zM202.51869,399.27606c0.33343,-0.33043 0.87088,-0.33043 1.20431,0c0.15854,0.16337 0.24594,0.38288 0.24308,0.6105c0.00829,0.22862 -0.07994,0.45016 -0.24308,0.6105l-1.23029,1.23029c-0.16066,0.16639 -0.38292,0.25906 -0.61423,0.25607c-0.34725,0.00264 -0.66149,-0.20536 -0.79473,-0.52605c-0.13324,-0.32068 -0.05894,-0.69012 0.18793,-0.93434zM203.91045,406.85636c-0.22826,0.00236 -0.44752,-0.08885 -0.6068,-0.25237c-0.16386,-0.15745 -0.2565,-0.3749 -0.2565,-0.60215c0,-0.22725 0.09263,-0.44471 0.2565,-0.60215c0.15926,-0.16352 0.37853,-0.25473 0.6068,-0.25237h1.72575c0.2306,-0.00307 0.45243,0.08807 0.61423,0.25237c0.16386,0.15745 0.2565,0.3749 0.2565,0.60215c0,0.22725 -0.09263,0.4447 -0.2565,0.60215c-0.16179,0.1643 -0.38363,0.25544 -0.61423,0.25237zM203.72301,411.5066c0.16374,0.16239 0.25247,0.38561 0.24494,0.61608c0.00641,0.22483 -0.08017,0.44234 -0.23937,0.60123c-0.15951,0.16318 -0.37862,0.25428 -0.60681,0.25237c-0.22604,0.00807 -0.44545,-0.07715 -0.60679,-0.23567l-1.247,-1.247c-0.16258,-0.15945 -0.25193,-0.3791 -0.2468,-0.60679c-0.00596,-0.2251 0.08372,-0.44222 0.2468,-0.59752c0.15951,-0.16318 0.37862,-0.25428 0.60679,-0.25237c0.22745,-0.00792 0.44773,0.08031 0.60681,0.24309zM197.85732,414.66119c-0.00597,0.47334 -0.3877,0.85587 -0.86101,0.86287c-0.22737,0.00229 -0.44534,-0.09055 -0.60123,-0.25607c-0.16352,-0.15926 -0.25472,-0.37853 -0.25237,-0.60679v-1.73502c-0.00382,-0.22961 0.08752,-0.4506 0.25237,-0.61051c0.15704,-0.16342 0.37461,-0.25472 0.60123,-0.25237c0.2279,-0.00136 0.44644,0.09048 0.60494,0.25422c0.16698,0.15875 0.25982,0.38016 0.25607,0.61051zM191.50732,410.28559c0.16036,-0.16315 0.38189,-0.25138 0.6105,-0.2431c0.22934,-0.00229 0.44974,0.08882 0.61051,0.25237c0.16342,0.15454 0.25091,0.3729 0.23938,0.59752c-0.00096,0.22834 -0.09316,0.44682 -0.25608,0.60681l-1.2303,1.2377c-0.16291,0.15823 -0.38358,0.24273 -0.6105,0.23382c-0.22934,0.00229 -0.44973,-0.0888 -0.6105,-0.25237c-0.31331,-0.34571 -0.30602,-0.87481 0.0167,-1.21174zM190.08036,405.14917c0.22826,-0.00236 0.44752,0.08885 0.60681,0.25237c0.16386,0.15745 0.2565,0.37491 0.2565,0.60215c0,0.22725 -0.09263,0.44471 -0.2565,0.60215c-0.15926,0.16352 -0.37854,0.25472 -0.60681,0.25237h-1.73316c-0.22525,0.00089 -0.44111,-0.09028 -0.59752,-0.25237c-0.16386,-0.15745 -0.2565,-0.3749 -0.2565,-0.60215c0,-0.22725 0.09263,-0.44471 0.2565,-0.60215c0.15641,-0.16208 0.37226,-0.25326 0.59752,-0.25237zM190.27147,400.48965c-0.1584,-0.16168 -0.24472,-0.38051 -0.23938,-0.60679c-0.00514,-0.22768 0.08421,-0.44734 0.24681,-0.60679c0.16006,-0.16319 0.38219,-0.25028 0.61051,-0.23938c0.22528,-0.00104 0.44166,0.0878 0.60124,0.24681l1.23029,1.23771c0.16467,0.15754 0.25215,0.37926 0.23938,0.60681c0.00137,0.2288 -0.09119,0.44815 -0.25607,0.60679c-0.15628,0.1635 -0.37522,0.25202 -0.60123,0.2431c-0.22675,0.00303 -0.44456,-0.08841 -0.60124,-0.25237z" fill="url(#color-4)" fill-rule="nonzero" stroke-linecap="butt"/><path d="M198.6108,402.12911c0.50034,0.21493 0.95477,0.52396 1.33855,0.91029c0.38309,0.38603 0.69012,0.84071 0.90508,1.34029c0.44136,1.03571 0.44136,2.20662 0,3.24233c-0.21564,0.49817 -0.52262,0.95158 -0.90508,1.33681c-0.38343,0.38551 -0.83723,0.69392 -1.33679,0.90854c-1.03326,0.44161 -2.20213,0.44161 -3.2354,0c-0.49953,-0.21658 -0.95411,-0.52473 -1.34028,-0.90854c-0.38605,-0.38299 -0.69453,-0.83691 -0.90854,-1.33681c-0.436,-1.0368 -0.436,-2.20552 0,-3.24233c0.21336,-0.50129 0.52189,-0.95647 0.90854,-1.34029c0.38616,-0.38381 0.84075,-0.69195 1.34028,-0.90854c0.51087,-0.22193 1.06244,-0.33473 1.61943,-0.33116c0.55509,-0.00314 1.10477,0.10903 1.61423,0.32943zM197.80104,399.52831c0.00393,0.21138 -0.08023,0.41492 -0.23233,0.56178c-0.14881,0.15279 -0.35369,0.23801 -0.56697,0.23581c-0.43932,-0.00284 -0.79474,-0.35827 -0.79758,-0.79758v-1.62116c-0.00221,-0.21328 0.08302,-0.41815 0.23581,-0.56697c0.14444,-0.15332 0.34592,-0.23997 0.55657,-0.23927c0.21331,-0.00142 0.41779,0.08513 0.56524,0.23927c0.15476,0.14775 0.24139,0.35301 0.23927,0.56697zM202.15656,399.71729c0.31155,-0.30875 0.81373,-0.30875 1.12528,0c0.14814,0.15265 0.2298,0.35775 0.22713,0.57044c0.00775,0.21362 -0.07469,0.42062 -0.22713,0.57044l-1.14955,1.14955c-0.15012,0.15547 -0.35779,0.24206 -0.57392,0.23927c-0.32446,0.00247 -0.61808,-0.19188 -0.74258,-0.49153c-0.1245,-0.29964 -0.05507,-0.64483 0.1756,-0.87303zM203.45697,406.80015c-0.21328,0.00221 -0.41815,-0.08302 -0.56698,-0.23581c-0.15311,-0.14712 -0.23967,-0.3503 -0.23967,-0.56264c0,-0.21234 0.08655,-0.41553 0.23967,-0.56264c0.14881,-0.15279 0.35369,-0.23801 0.56698,-0.23581h1.6125c0.21547,-0.00287 0.42274,0.08229 0.57392,0.23581c0.15311,0.14712 0.23967,0.3503 0.23967,0.56264c0,0.21234 -0.08655,0.41552 -0.23967,0.56264c-0.15117,0.15352 -0.35846,0.23868 -0.57392,0.23581zM203.28182,411.14522c0.15299,0.15173 0.2359,0.36031 0.22887,0.57565c0.00599,0.21008 -0.07491,0.41331 -0.22366,0.56178c-0.14904,0.15247 -0.35377,0.23759 -0.56699,0.23581c-0.21121,0.00754 -0.41622,-0.07209 -0.56697,-0.2202l-1.16517,-1.16517c-0.15191,-0.14899 -0.2354,-0.35422 -0.2306,-0.56697c-0.00557,-0.21033 0.07823,-0.4132 0.2306,-0.55831c0.14904,-0.15247 0.35377,-0.23759 0.56697,-0.23581c0.21252,-0.0074 0.41835,0.07504 0.56699,0.22714zM197.80104,414.0928c-0.00558,0.44228 -0.36225,0.79971 -0.80451,0.80625c-0.21245,0.00214 -0.41612,-0.08461 -0.56178,-0.23927c-0.15279,-0.14881 -0.238,-0.35369 -0.23581,-0.56697v-1.62116c-0.00357,-0.21454 0.08179,-0.42103 0.23581,-0.57045c0.14673,-0.1527 0.35003,-0.238 0.56178,-0.23581c0.21294,-0.00127 0.41714,0.08454 0.56523,0.23754c0.15602,0.14833 0.24277,0.35521 0.23927,0.57045zM191.86775,410.00434c0.14984,-0.15244 0.35683,-0.23488 0.57044,-0.22715c0.21429,-0.00214 0.42023,0.08299 0.57045,0.23581c0.1527,0.1444 0.23444,0.34843 0.22367,0.55831c-0.0009,0.21336 -0.08705,0.4175 -0.23928,0.56699l-1.14956,1.15648c-0.15222,0.14785 -0.35841,0.2268 -0.57044,0.21848c-0.21429,0.00214 -0.42022,-0.08297 -0.57044,-0.23581c-0.29275,-0.32302 -0.28594,-0.8174 0.0156,-1.13222zM190.53443,405.20499c0.21328,-0.00221 0.41815,0.08302 0.56699,0.23581c0.15311,0.14712 0.23967,0.35031 0.23967,0.56264c0,0.21234 -0.08655,0.41553 -0.23967,0.56264c-0.14881,0.15279 -0.3537,0.238 -0.56699,0.23581h-1.61942c-0.21047,0.00083 -0.41216,-0.08436 -0.55831,-0.23581c-0.15311,-0.14712 -0.23967,-0.3503 -0.23967,-0.56264c0,-0.21234 0.08655,-0.41553 0.23967,-0.56264c0.14615,-0.15144 0.34783,-0.23664 0.55831,-0.23581zM190.713,400.85124c-0.14801,-0.15107 -0.22866,-0.35554 -0.22367,-0.56697c-0.0048,-0.21274 0.07868,-0.41798 0.23061,-0.56697c0.14956,-0.15248 0.35711,-0.23386 0.57045,-0.22367c0.2105,-0.00097 0.41268,0.08204 0.56178,0.23061l1.14955,1.15649c0.15386,0.1472 0.2356,0.35437 0.22367,0.56699c0.00128,0.21379 -0.08521,0.41874 -0.23927,0.56697c-0.14602,0.15277 -0.3506,0.23548 -0.56178,0.22715c-0.21187,0.00283 -0.41539,-0.08261 -0.56178,-0.23581z" fill="url(#color-5)" fill-rule="nonzero" stroke-linecap="butt"/></g></g></svg>