<svg version="1.1" xmlns="http://www.w3.org/2000/svg" xmlns:xlink="http://www.w3.org/1999/xlink" width="89.21484" height="89.21484" viewBox="0,0,89.21484,89.21484"><defs><linearGradient x1="222.63016" y1="187.75141" x2="258.52368" y2="213.50786" gradientUnits="userSpaceOnUse" id="color-1"><stop offset="0" stop-color="#ea66ff"/><stop offset="1" stop-color="#4de7ff"/></linearGradient><linearGradient x1="229.16267" y1="155.18336" x2="251.99117" y2="172.87399" gradientUnits="userSpaceOnUse" id="color-2"><stop offset="0" stop-color="#ea66ff"/><stop offset="1" stop-color="#ae98ff"/></linearGradient></defs><g transform="translate(-195.39258,-135.39258)"><g data-paper-data="{&quot;isPaintingLayer&quot;:true}" fill-rule="nonzero" stroke-linecap="butt" stroke-linejoin="miter" stroke-miterlimit="10" stroke-dasharray="" stroke-dashoffset="0" style="mix-blend-mode: normal"><g><path d="M195.39258,180c0,-24.636 19.97142,-44.60742 44.60742,-44.60742c24.636,0 44.60742,19.97142 44.60742,44.60742c0,24.636 -19.97142,44.60742 -44.60742,44.60742c-24.636,0 -44.60742,-19.97142 -44.60742,-44.60742z" fill="#fef5ff" stroke="none" stroke-width="0"/><path d="M222.63016,187.75141c7.11245,-9.91172 20.91327,-12.18099 30.82499,-5.06854c9.91172,7.11245 12.18099,20.91327 5.06854,30.82499c-7.11245,9.91172 -20.91327,12.18099 -30.82499,5.06854c-9.91172,-7.11245 -12.18099,-20.91327 -5.06854,-30.82499z" fill="url(#color-1)" stroke="#fef5ff" stroke-width="1.5"/><path d="M229.16267,155.18336c4.88513,-6.30392 13.95565,-7.45407 20.25956,-2.56894c6.30392,4.88513 7.45407,13.95565 2.56894,20.25956c-4.88513,6.30392 -13.95565,7.45407 -20.25956,2.56894c-6.30392,-4.88513 -7.45407,-13.95565 -2.56894,-20.25956z" fill="url(#color-2)" stroke="#fef5ff" stroke-width="1.5"/><path d="M217.35131,216.7636v-16.60413h46.09756v16.60413c0,0 -16.2409,7.30769 -24.24953,7.30769c-7.28946,0 -21.84803,-7.30769 -21.84803,-7.30769z" fill="#fef5ff" stroke="none" stroke-width="0"/></g></g></g></svg>