<svg version="1.1" xmlns="http://www.w3.org/2000/svg" xmlns:xlink="http://www.w3.org/1999/xlink" width="29.71795" height="29.09296" viewBox="0,0,29.71795,29.09296"><g transform="translate(-139.14116,-391.45352)"><g data-paper-data="{&quot;isPaintingLayer&quot;:true}" stroke="none" stroke-linejoin="miter" stroke-miterlimit="10" stroke-dasharray="" stroke-dashoffset="0" style="mix-blend-mode: normal"><path d="M143.79252,406c0,-5.63744 4.57004,-10.20748 10.20748,-10.20748c5.63744,0 10.20748,4.57004 10.20748,10.20748c0,5.63744 -4.57004,10.20748 -10.20748,10.20748c-5.63744,0 -10.20748,-4.57004 -10.20748,-10.20748z" fill="#d4d4d4" fill-rule="nonzero" stroke-width="0" stroke-linecap="butt"/><path d="M153.99985,397.54128c4.67241,0 8.45946,3.78723 8.45946,8.45875c0,4.67201 -3.78703,8.45907 -8.45936,8.45907c-4.67182,0 -8.45926,-3.78703 -8.45926,-8.45907c0,-4.67182 3.78745,-8.45917 8.45926,-8.45917z" fill="#ffffff" fill-rule="nonzero" stroke-width="1" stroke-linecap="butt"/><g fill-rule="nonzero" stroke-width="0" stroke-linecap="butt"><path d="M158.34098,406.06361c0,0.8152 -3.16589,2.31359 -3.96152,2.49107c-0.41013,0.09148 -0.98353,-1.07353 -1.40377,-1.07353c-1.33006,0 0.33532,-0.74293 0.33532,-1.50898c0,-0.76604 1.07823,-1.38704 2.40828,-1.38704c0,0 0.26913,-0.43377 0.60735,-0.35564c0.89889,0.20767 2.01433,1.0681 2.01433,1.83415z" fill="#fe015d"/><path d="M153.19367,405.73983c-1.20099,0 -2.17456,-0.69607 -2.17456,-1.55471c0,-0.85864 2.36544,-1.84838 2.58276,-1.78413c0.65199,0.19273 3.33435,2.04877 3.33431,2.05302c0,0 -2.59565,1.28581 -3.74252,1.28581z" fill="#e50d5e"/><path d="M155.65829,407.98413c0,0.36197 -1.17531,0.93541 -1.83901,1.29764c-0.62166,0.33929 -1.88081,1.20033 -1.88081,1.20033c-0.42786,-0.0216 -0.54805,-1.87305 -0.54805,-1.87305c-0.89232,0 -1.06696,-0.53732 -1.06696,-0.89929c0,-0.36197 0.38804,-1.0822 1.28036,-1.0822c0.63108,0 0.30606,-1.60095 0.90968,-1.41686c0.76422,0.23306 3.14477,1.97446 3.14477,2.77343z" fill="#fe7c30"/><path d="M152.44529,403.47663c-0.68653,0.40668 -1.10585,0.76941 -1.9038,0.76941c-0.65099,0 -0.81292,-0.85018 -0.81292,-1.42261c0,-0.36494 -0.06848,-0.6235 0.12629,-0.93211c0.17582,-0.27862 0.27945,-0.38951 0.56654,-0.55114c0.2871,-0.16162 0.41233,-0.16367 0.79288,-0.05672c0.89743,0.25221 2.22199,0.85136 2.44925,1.0606c0,0 0.39866,0.27258 0.3907,0.27613c0,0 -1.07475,0.53998 -1.60897,0.85643z" fill="#bf155f"/><path d="M149.72875,406.76887l-0.00001,-1.36672c0,0 0.01585,-1.48929 0.01584,-2.62618c0.00876,0.00123 0.01751,0.00239 0.02632,0.0035c0.00652,0.00497 0.01305,0.00997 0.01959,0.01495c0.04303,0.07118 3.45656,2.68944 4.03227,3.19691c-0.00784,0.0198 -2.21097,1.56771 -3.32166,1.74938c-0.31037,0.05074 -0.53543,-0.62776 -0.60345,-0.71858z" fill="#f34f43"/><path d="M152.63721,409.69266c0,0.41678 -0.2373,0.52141 -0.60002,0.7267c-0.35457,0.20066 -0.45584,0.37074 -0.86322,0.37074c-0.79131,0 -1.43277,-0.76432 -1.43277,-1.70714c0,-0.94284 -0.0495,-1.11777 -0.05082,-2.37779c0,0 -0.09071,-0.02756 0.03647,0.00664c0.38157,0.10257 2.91035,2.03803 2.91035,2.98084z" fill="#fec100"/><path d="M149.76226,402.86474c-0.00277,-0.00458 -0.0053,-0.00906 -0.00757,-0.01348c0.0028,0.00033 0.00555,0.00066 0.00834,0.00097c0.01048,0.01262 0.02112,0.02511 0.03191,0.03747c-0.01093,-0.00834 -0.02181,-0.01665 -0.03268,-0.02495z" fill="#f34f43"/></g><path d="M139.14117,395.50007c0,-2.23485 1.85062,-4.04655 4.13348,-4.04655h21.45101c1.09626,0 2.14763,0.42634 2.92281,1.18521c0.77516,0.75887 1.21065,1.78812 1.21065,2.86133v20.99987c0,2.23485 -1.85061,4.04655 -4.13346,4.04655h-21.45101c-2.28286,0 -4.13348,-1.8117 -4.13348,-4.04655z" fill-opacity="0.00784" fill="#3d3d3d" fill-rule="evenodd" stroke-width="1" stroke-linecap="square"/></g></g></svg>