<svg version="1.1" xmlns="http://www.w3.org/2000/svg" xmlns:xlink="http://www.w3.org/1999/xlink" width="480.08061" height="305.1181" viewBox="0,0,480.08061,305.1181"><defs><linearGradient x1="279.81318" y1="162.93654" x2="321.87247" y2="125.87468" gradientUnits="userSpaceOnUse" id="color-1"><stop offset="0" stop-color="#8c21bc"/><stop offset="0.473" stop-color="#bf2268"/><stop offset="1" stop-color="#ff3e28"/></linearGradient></defs><g transform="translate(0.0403,-27.44095)"><g data-paper-data="{&quot;isPaintingLayer&quot;:true}" fill-rule="nonzero" stroke-miterlimit="10" stroke-dasharray="" stroke-dashoffset="0" style="mix-blend-mode: normal"><path d="M9.9597,37.94095c0,0 7.35842,0 9.31419,0c19.82628,0 83.48271,0 83.48271,0v284.6181h-92.7969z" fill="#f0f1f4" stroke="#f0f1f4" stroke-width="20" stroke-linecap="round" stroke-linejoin="round"/><path d="M111.1061,37.44095c0,0 28.46205,0 36.02687,0c76.68719,0 322.90734,0 322.90734,0v284.6181h-358.93421z" fill="#ffffff" stroke="#ffffff" stroke-width="20" stroke-linecap="round" stroke-linejoin="round"/><path d="M79.32091,321.75v-284h21v284z" fill="#f0f1f4" stroke="#f0f1f4" stroke-width="20" stroke-linecap="butt" stroke-linejoin="miter"/><path d="M12.58243,50.31h2.624l1.788,7.9l1.952,-7.9h2.212l2.032,7.952l1.856,-7.952h2.4l-2.784,11.44h-2.64l-2.056,-7.9l-2.1,7.9h-2.5zM28.8187,60.78411c-0.83422,-0.81356 -1.27867,-1.94633 -1.22027,-3.11011v-0.128c-0.05619,-1.16142 0.37697,-2.29322 1.19422,-3.12036c0.81725,-0.82713 1.94377,-1.27387 3.10578,-1.23164c2.16,0 4.08,1.264 4.08,4.256v0.636h-6.032c-0.05441,0.57592 0.14258,1.14728 0.54037,1.5673c0.39779,0.42002 0.9576,0.64775 1.53563,0.6247c1.072,0 1.6,-0.468 1.744,-1.168h2.192c-0.272,1.808 -1.712,2.816 -4,2.816c-1.16195,0.08757 -2.30551,-0.32834 -3.13973,-1.14189zM33.71843,56.662c-0.08,-1.264 -0.724,-1.872 -1.824,-1.872c-1.04192,-0.00033 -1.89395,0.8304 -1.92,1.872zM37.03041,59.43c0,-1.952 1.792,-2.688 4.352,-2.688h0.944v-0.336c0,-0.992 -0.304,-1.536 -1.36,-1.536c-0.34732,-0.04471 -0.69758,0.05703 -0.96691,0.28084c-0.26933,0.22381 -0.43346,0.54953 -0.45309,0.89916h-2.2c0.148,-1.98 1.724,-2.856 3.768,-2.856c2.044,0 3.5,0.828 3.5,3.1v5.456h-2.256v-1.008c-0.57782,0.80937 -1.53632,1.25829 -2.528,1.184c-1.52,0 -2.8,-0.736 -2.8,-2.496zM42.33043,58.818v-0.7h-0.9c-1.344,0 -2.128,0.284 -2.128,1.184c0,0.608 0.368,1.008 1.216,1.008c1.028,0 1.808,-0.56 1.812,-1.492zM49.62243,61.91c-0.73252,0.10362 -1.47167,-0.13841 -2.00103,-0.65524c-0.52935,-0.51683 -0.78902,-1.24997 -0.70297,-1.98476v-4.24h-1.072v-1.648h1.072v-1.808h2.3v1.808h1.76v1.648h-1.76v4.032c0,0.672 0.336,0.992 0.928,0.992c0.30128,0.00865 0.60104,-0.04585 0.88,-0.16v1.792c-0.45321,0.15408 -0.92935,0.22983 -1.408,0.224zM52.59843,49.59h2.32v5.12c0.53269,-0.99372 1.5945,-1.58708 2.72,-1.52c1.648,0 2.816,0.992 2.816,3.232v5.328h-2.32v-4.992c0,-1.136 -0.448,-1.68 -1.472,-1.68c-0.488,-0.02875 -0.9638,0.15945 -1.30009,0.51425c-0.33629,0.3548 -0.49875,0.83999 -0.44391,1.32575v4.832h-2.32zM66.29441,61.926c-1.16262,0.08878 -2.30728,-0.32659 -3.14241,-1.14029c-0.83513,-0.8137 -1.28011,-1.94718 -1.22159,-3.11171v-0.128c-0.05619,-1.16142 0.37697,-2.29322 1.19422,-3.12036c0.81725,-0.82713 1.94377,-1.27387 3.10578,-1.23164c2.16,0 4.08,1.264 4.08,4.256v0.636h-6.032c-0.05453,0.57665 0.14298,1.1487 0.54168,1.56886c0.39869,0.42016 0.95961,0.64738 1.53832,0.62314c1.072,0 1.6,-0.468 1.744,-1.168h2.196c-0.272,1.808 -1.712,2.816 -4,2.816zM68.05442,56.662c-0.08,-1.264 -0.724,-1.872 -1.824,-1.872c-1.04192,-0.00033 -1.89395,0.8304 -1.92,1.872zM71.82642,53.378h2.32v1.6c0.43602,-1.09565 1.52246,-1.79097 2.7,-1.728v2.164c-1.708,-0.016 -2.7,0.544 -2.7,2.144v4.192h-2.316z" fill="#000000" stroke="none" stroke-width="1" stroke-linecap="butt" stroke-linejoin="miter"/><g stroke="none" stroke-width="1" stroke-linecap="butt" stroke-linejoin="miter"><text transform="translate(211.3687,250.53882) scale(0.33741,0.33741)" font-size="40" xml:space="preserve" fill="#000000" fill-rule="nonzero" stroke="none" stroke-width="1" stroke-linecap="butt" stroke-linejoin="miter" stroke-miterlimit="10" stroke-dasharray="" stroke-dashoffset="0" font-family="Sans Serif" font-weight="normal" text-anchor="start" style="mix-blend-mode: normal"><tspan x="0" dy="0">App Center is coming soon</tspan></text><path d="M314.41393,144.64633c-0.7744,-0.57478 -1.14914,-1.54373 -0.963,-2.49l0.183,-1.428l-1.029,-1.013l-1.843,0.4c-1.51871,0.3124 -3.08533,-0.24383 -4.067,-1.444l-3.171,-3.188c-1.19722,-1.09969 -1.52807,-2.85609 -0.813,-4.316l0.847,-2.208c-1.925,-1.066 -4.548,-0.83 -7.271,-0.066c-1.1121,0.39303 -2.35053,0.01603 -3.055,-0.93c-0.65996,-1.07813 -0.4578,-2.4735 0.481,-3.32c5.063,-5.13 14.759,-4.665 19.822,0.382l3.187,3.2c1.477,1.461 1.992,2.855 1.66,4.366l-0.4,1.743l1.013,1l1.41,-0.133c0.93771,-0.16974 1.89315,0.18711 2.49,0.93l1.078,1.113c0.53585,0.46612 0.85169,1.13557 0.8707,1.84553c0.01901,0.70996 -0.26056,1.39535 -0.7707,1.88947l-4.814,4.831c-0.48882,0.52643 -1.18048,0.81714 -1.8986,0.798c-0.71813,-0.01914 -1.39331,-0.34628 -1.8534,-0.898zM281.14093,158.49333c-1.859,-1.876 -1.792,-4.316 0.366,-6.143l18.776,-16.037l6.159,6.159l-16.037,18.777c-1.826,2.141 -4.267,2.224 -6.126,0.365z" fill="url(#color-1)" opacity="0.9"/><path d="M222.75572,197.6417c-0.65204,-0.67741 -0.97599,-1.60565 -0.88702,-2.54167v-4.922c-0.038,-0.35596 0.08265,-0.71059 0.32983,-0.96952c0.24718,-0.25894 0.59583,-0.39591 0.95317,-0.37448c0.35773,-0.02286 0.70725,0.11367 0.95477,0.37295c0.24752,0.25928 0.36768,0.61477 0.32823,0.97105v4.386c0,1.257 0.624,1.925 1.758,1.925c0.53251,0.00872 1.04265,-0.21385 1.39846,-0.61014c0.35581,-0.39628 0.52235,-0.92736 0.45654,-1.45586v-4.245c-0.038,-0.35596 0.08265,-0.71059 0.32983,-0.96952c0.24718,-0.25894 0.59583,-0.39591 0.95317,-0.37448c0.35823,-0.02379 0.7086,0.11233 0.95681,0.37173c0.24821,0.2594 0.36875,0.61543 0.32919,0.97227v7.156c0.04001,0.34468 -0.07531,0.6893 -0.31471,0.94049c-0.2394,0.25118 -0.57808,0.38292 -0.92429,0.35951c-0.34852,0.02617 -0.69045,-0.10511 -0.93191,-0.3578c-0.24146,-0.25269 -0.35707,-0.60023 -0.31509,-0.9472v-0.58h-0.053c-0.41195,1.18592 -1.56291,1.95269 -2.816,1.876c-0.93873,0.0532 -1.85394,-0.30592 -2.50598,-0.98333zM233.7467,198.63403c-0.35608,0.02349 -0.70438,-0.1114 -0.95175,-0.36861c-0.24737,-0.25721 -0.36859,-0.61049 -0.33125,-0.96539v-7.172c-0.03708,-0.3433 0.07951,-0.68543 0.31851,-0.93464c0.23899,-0.24922 0.57594,-0.38003 0.92049,-0.35736c0.35053,-0.02561 0.69466,0.10373 0.94154,0.35388c0.24688,0.25015 0.37168,0.59596 0.34146,0.94612v0.527h0.053c0.46632,-1.17314 1.64122,-1.90685 2.9,-1.811c2.092,0 3.27,1.318 3.27,3.524v4.922c0.03798,0.35523 -0.08296,0.70908 -0.33041,0.96675c-0.24745,0.25767 -0.59612,0.39283 -0.95259,0.36925c-0.35667,0.02497 -0.70603,-0.1096 -0.95378,-0.36739c-0.24775,-0.25779 -0.36834,-0.61222 -0.32922,-0.96761v-4.386c0,-1.234 -0.58,-1.934 -1.731,-1.934c-0.53388,-0.00702 -1.04522,0.21487 -1.40477,0.6096c-0.35955,0.39472 -0.5329,0.92449 -0.47623,1.4554v4.254c0.03944,0.35556 -0.08101,0.71027 -0.3288,0.9683c-0.24779,0.25802 -0.59734,0.39273 -0.9542,0.3677zM242.6717,193.72503c0,-2.989 1.494,-4.843 3.858,-4.843c1.22771,-0.04841 2.36304,0.64962 2.874,1.767h0.053v-3.731c-0.03832,-0.35612 0.08219,-0.71103 0.32941,-0.9702c0.24722,-0.25917 0.59606,-0.39628 0.95359,-0.3748c0.35792,-0.02291 0.70763,0.11375 0.95519,0.37327c0.24756,0.25952 0.36757,0.61529 0.32781,0.97173v10.414c0.03379,0.34943 -0.08856,0.69593 -0.33428,0.94667c-0.24572,0.25073 -0.58968,0.38006 -0.93972,0.35333c-0.35203,0.0284 -0.69869,-0.09971 -0.94765,-0.35021c-0.24896,-0.2505 -0.37493,-0.59795 -0.34435,-0.94979v-0.545h-0.044c-0.48481,1.15757 -1.6471,1.8834 -2.9,1.811c-2.355,0 -3.841,-1.863 -3.841,-4.873zM249.4747,193.73803c0,-1.71 -0.818,-2.8 -2.092,-2.8c-1.292,0 -2.083,1.068 -2.083,2.8c0,1.732 0.791,2.795 2.083,2.795c1.275,0 2.092,-1.085 2.092,-2.795zM253.5777,193.78203c0,-3.033 1.764,-4.957 4.55,-4.957c1.18957,-0.06918 2.35302,0.3673 3.20356,1.20184c0.85053,0.83454 1.30902,1.98949 1.26244,3.18016c0.03257,0.30481 -0.0745,0.60799 -0.29125,0.82475c-0.21676,0.21676 -0.51994,0.32382 -0.82475,0.29125h-5.381v0.114c-0.06116,0.60059 0.13912,1.19846 0.54971,1.64102c0.4106,0.44256 0.9918,0.68702 1.59529,0.67098c0.89204,0.02235 1.73628,-0.4024 2.25,-1.132c0.20528,-0.24785 0.51331,-0.3873 0.835,-0.378c0.26029,-0.01967 0.51686,0.07095 0.70705,0.24973c0.19019,0.17878 0.2965,0.42926 0.29295,0.69027c-0.00588,0.2194 -0.06637,0.43387 -0.176,0.624c-0.86615,1.28042 -2.36065,1.98782 -3.9,1.846c-2.945,0 -4.673,-1.817 -4.673,-4.867zM260.1227,192.74903c0.02402,-0.53476 -0.17364,-1.05575 -0.54634,-1.43999c-0.3727,-0.38425 -0.88741,-0.59771 -1.42266,-0.59001c-1.12114,0 -2.03,0.90886 -2.03,2.03zM264.42483,198.2648c-0.2476,-0.25763 -0.36878,-0.61145 -0.33113,-0.96677v-7.172c-0.03386,-0.34256 0.0838,-0.68279 0.32206,-0.93124c0.23826,-0.24845 0.57327,-0.38025 0.91694,-0.36076c0.34035,-0.01543 0.67044,0.11865 0.90364,0.36703c0.2332,0.24838 0.3462,0.58627 0.30936,0.92497v0.615h0.053c0.10465,-1.0193 0.9367,-1.81017 1.96,-1.863c0.28637,-0.0187 0.57003,0.06533 0.8,0.237c0.26595,0.24032 0.40275,0.59215 0.369,0.949c0.02334,0.34771 -0.11239,0.68721 -0.369,0.923c-0.32194,0.23752 -0.7165,0.35561 -1.116,0.334c-1.169,0.018 -1.582,0.677 -1.582,1.793v4.184c0.03944,0.35556 -0.08101,0.71027 -0.3288,0.9683c-0.24779,0.25802 -0.59734,0.39273 -0.9542,0.3677c-0.35654,0.02353 -0.70528,-0.1116 -0.95287,-0.36923zM274.2147,193.73303c0,-3.013 1.793,-4.913 4.623,-4.913c1.65855,-0.12724 3.22909,0.76219 3.973,2.25c0.08494,0.20072 0.13271,0.4152 0.141,0.633c0.00142,0.28349 -0.11755,0.55426 -0.32731,0.74495c-0.20977,0.1907 -0.49062,0.2834 -0.77269,0.25505c-0.46385,0.02251 -0.89363,-0.24308 -1.081,-0.668c-0.32111,-0.73588 -1.05116,-1.2084 -1.854,-1.2c-1.3,0 -2.1,1.073 -2.1,2.892c0,1.854 0.8,2.909 2.083,2.909c0.77745,0.01835 1.496,-0.41255 1.846,-1.107c0.20116,-0.46502 0.66239,-0.7633 1.169,-0.756c0.28263,-0.01815 0.56001,0.0825 0.76524,0.27767c0.20523,0.19517 0.31968,0.46714 0.31576,0.75033c-0.00709,0.23207 -0.06405,0.45989 -0.167,0.668c-0.79924,1.42587 -2.34099,2.27183 -3.973,2.18c-2.839,0 -4.64,-1.861 -4.641,-4.916zM284.2037,193.72903c0,-3.046 1.846,-4.9 4.667,-4.9c2.821,0 4.667,1.841 4.667,4.9c0,3.103 -1.819,4.92 -4.667,4.92c-2.847,0 -4.667,-1.826 -4.667,-4.92zM288.8707,196.69103c1.257,0 2.057,-1.063 2.057,-2.953c0,-1.872 -0.809,-2.955 -2.057,-2.955c-1.248,0 -2.065,1.081 -2.065,2.953c0,1.89 0.799,2.953 2.065,2.953zM295.36523,198.26705c-0.2483,-0.25736 -0.37003,-0.61138 -0.33253,-0.96702v-7.172c-0.03708,-0.3433 0.07951,-0.68543 0.31851,-0.93464c0.23899,-0.24922 0.57594,-0.38003 0.92049,-0.35736c0.35053,-0.02561 0.69466,0.10373 0.94154,0.35388c0.24688,0.25015 0.37168,0.59596 0.34146,0.94612v0.527h0.053c0.46632,-1.17314 1.64122,-1.90685 2.9,-1.811c2.092,0 3.27,1.318 3.27,3.524v4.922c0.03786,0.35467 -0.08269,0.70798 -0.32945,0.96553c-0.24676,0.25756 -0.59458,0.39312 -0.95055,0.37047c-0.35667,0.02497 -0.70603,-0.1096 -0.95378,-0.36739c-0.24775,-0.25779 -0.36834,-0.61222 -0.32922,-0.96761v-4.386c0,-1.234 -0.58,-1.934 -1.731,-1.934c-0.53388,-0.00702 -1.04522,0.21487 -1.40477,0.6096c-0.35955,0.39472 -0.5329,0.92449 -0.47623,1.4554v4.254c0.03944,0.35556 -0.08101,0.71027 -0.3288,0.9683c-0.24779,0.25802 -0.59734,0.39273 -0.9542,0.3677c-0.35676,0.02473 -0.70618,-0.10962 -0.95447,-0.36698zM305.3777,196.77203c-0.06022,-0.15146 -0.09404,-0.31212 -0.1,-0.475c-0.00457,-0.27172 0.10505,-0.5329 0.30219,-0.71997c0.19714,-0.18706 0.4637,-0.28284 0.73481,-0.26403c0.4407,0.01412 0.85119,0.22745 1.116,0.58c0.46946,0.65888 1.25057,1.02267 2.057,0.958c0.932,0 1.538,-0.387 1.538,-1.011c0,-0.509 -0.325,-0.784 -1.248,-0.984l-1.582,-0.334c-1.845,-0.395 -2.777,-1.333 -2.777,-2.733c0,-1.802 1.557,-2.962 4,-2.962c1.951,0 3.383,0.888 3.691,1.951c0.03703,0.12276 0.05787,0.24984 0.062,0.378c0,0.519 -0.325,0.879 -0.984,0.879c-0.35389,0.0077 -0.69379,-0.13817 -0.932,-0.4c-0.41296,-0.63638 -1.1224,-1.01769 -1.881,-1.011c-0.871,0 -1.477,0.414 -1.477,1.02c0,0.493 0.37,0.82 1.31,1.02l1.556,0.334c2.004,0.421 2.83,1.16 2.83,2.566c0,1.872 -1.679,3.085 -4.166,3.085c-2.162,0 -3.603,-0.771 -4.05,-1.877zM315.72569,190.96503h-0.492c-0.26545,0.02423 -0.5282,-0.06888 -0.71917,-0.25485c-0.19096,-0.18596 -0.29101,-0.44616 -0.27383,-0.71215c-0.01718,-0.26599 0.08287,-0.52619 0.27383,-0.71215c0.19096,-0.18596 0.45372,-0.27907 0.71917,-0.25485h0.492v-1.046c-0.03762,-0.35514 0.08344,-0.70878 0.33081,-0.96637c0.24737,-0.25759 0.59582,-0.39285 0.95219,-0.36963c0.35627,-0.02428 0.7051,0.10992 0.95324,0.36673c0.24813,0.25681 0.37027,0.61004 0.33376,0.96527v1.046h0.905c0.26421,-0.02248 0.52507,0.07153 0.7142,0.25739c0.18913,0.18586 0.28767,0.44504 0.2698,0.70961c0.01787,0.26457 -0.08067,0.52375 -0.2698,0.70961c-0.18913,0.18586 -0.44999,0.27987 -0.7142,0.25739h-0.905v4.509c0,0.668 0.228,0.949 0.782,0.993l0.163,0.016c0.633,0.071 0.976,0.332 0.976,0.932c0,0.756 -0.738,1.143 -1.819,1.143h-0.088c-0.69967,0.10506 -1.40822,-0.12316 -1.91504,-0.61684c-0.50682,-0.49367 -0.75359,-1.19597 -0.66696,-1.89816zM321.94883,198.2648c-0.2476,-0.25763 -0.36878,-0.61145 -0.33113,-0.96677v-7.172c-0.03386,-0.34256 0.0838,-0.68279 0.32206,-0.93124c0.23826,-0.24845 0.57327,-0.38025 0.91694,-0.36076c0.34035,-0.01543 0.67044,0.11865 0.90364,0.36703c0.2332,0.24838 0.3462,0.58627 0.30936,0.92497v0.615h0.053c0.10465,-1.0193 0.9367,-1.81017 1.96,-1.863c0.28637,-0.0187 0.57003,0.06533 0.8,0.237c0.26595,0.24032 0.40275,0.59215 0.369,0.949c0.02334,0.34771 -0.11239,0.68721 -0.369,0.923c-0.32194,0.23752 -0.7165,0.35561 -1.116,0.334c-1.169,0.018 -1.582,0.677 -1.582,1.793v4.184c0.03944,0.35556 -0.08101,0.71027 -0.3288,0.9683c-0.24779,0.25802 -0.59734,0.39273 -0.9542,0.3677c-0.35654,0.02353 -0.70528,-0.1116 -0.95287,-0.36923zM329.18737,197.6425c-0.6525,-0.67749 -0.97671,-1.60608 -0.88767,-2.54247v-4.922c-0.03832,-0.35612 0.08219,-0.71103 0.32941,-0.9702c0.24722,-0.25917 0.59606,-0.39628 0.95359,-0.3748c0.35792,-0.02291 0.70763,0.11375 0.95519,0.37327c0.24756,0.25952 0.36757,0.61529 0.32781,0.97173v4.385c0,1.257 0.624,1.925 1.758,1.925c0.53214,0.00838 1.04182,-0.21418 1.39737,-0.61019c0.35555,-0.39601 0.5221,-0.92664 0.45663,-1.45481v-4.245c-0.03843,-0.35667 0.08246,-0.71213 0.33037,-0.97142c0.24791,-0.25929 0.59759,-0.39599 0.95563,-0.37358c0.35792,-0.02291 0.70763,0.11375 0.95519,0.37327c0.24756,0.25952 0.36757,0.61529 0.32781,0.97173v7.151c0.04001,0.34468 -0.07531,0.6893 -0.31471,0.94049c-0.2394,0.25118 -0.57808,0.38292 -0.92429,0.35951c-0.3462,0.02341 -0.68489,-0.10833 -0.92429,-0.35951c-0.2394,-0.25118 -0.35472,-0.59581 -0.31471,-0.94049v-0.58h-0.053c-0.41245,1.1878 -1.56611,1.955 -2.821,1.876c-0.93907,0.05381 -1.85483,-0.30505 -2.50733,-0.98253zM343.1947,198.64903c-2.839,0 -4.64,-1.861 -4.641,-4.914c0,-3.013 1.793,-4.913 4.623,-4.913c1.65855,-0.12724 3.22909,0.76219 3.973,2.25c0.08494,0.20072 0.13271,0.4152 0.141,0.633c0.00142,0.28349 -0.11755,0.55426 -0.32731,0.74495c-0.20977,0.1907 -0.49062,0.2834 -0.77269,0.25505c-0.46385,0.02251 -0.89363,-0.24308 -1.081,-0.668c-0.32111,-0.73588 -1.05116,-1.2084 -1.854,-1.2c-1.3,0 -2.1,1.073 -2.1,2.892c0,1.854 0.8,2.909 2.083,2.909c0.77745,0.01835 1.496,-0.41255 1.846,-1.107c0.20116,-0.46502 0.66239,-0.7633 1.169,-0.756c0.28263,-0.01815 0.56001,0.0825 0.76524,0.27767c0.20523,0.19517 0.31968,0.46714 0.31576,0.75033c-0.00709,0.23207 -0.06405,0.45989 -0.167,0.668c-0.79924,1.42587 -2.34099,2.27183 -3.973,2.18zM349.5697,190.96103h-0.492c-0.26545,0.02423 -0.5282,-0.06888 -0.71917,-0.25485c-0.19096,-0.18596 -0.29101,-0.44616 -0.27383,-0.71215c-0.01718,-0.26599 0.08287,-0.52619 0.27383,-0.71215c0.19096,-0.18596 0.45372,-0.27907 0.71917,-0.25485h0.494v-1.046c-0.03762,-0.35514 0.08344,-0.70878 0.33081,-0.96637c0.24737,-0.25759 0.59582,-0.39285 0.95219,-0.36963c0.35637,-0.02322 0.70483,0.11205 0.95219,0.36963c0.24737,0.25759 0.36843,0.61123 0.33081,0.96637v1.046h0.905c0.26421,-0.02248 0.52507,0.07153 0.7142,0.25739c0.18913,0.18586 0.28767,0.44504 0.2698,0.70961c0.01787,0.26457 -0.08067,0.52375 -0.2698,0.70961c-0.18913,0.18586 -0.44999,0.27987 -0.7142,0.25739h-0.905v4.507c0,0.668 0.228,0.949 0.782,0.993l0.167,0.018c0.633,0.071 0.976,0.332 0.976,0.932c0,0.756 -0.738,1.143 -1.819,1.143h-0.088c-0.69976,0.10597 -1.4088,-0.12154 -1.91626,-0.61487c-0.50746,-0.49333 -0.7549,-1.19566 -0.66874,-1.89813zM356.7917,187.85803c-0.35897,0.00968 -0.70672,-0.12555 -0.96484,-0.3752c-0.25812,-0.24965 -0.40487,-0.59271 -0.40716,-0.9518c0.00092,-0.35935 0.1471,-0.70306 0.40531,-0.95298c0.25821,-0.24992 0.6065,-0.38482 0.96569,-0.37402c0.35919,-0.0108 0.70748,0.1241 0.96569,0.37402c0.25821,0.24992 0.40439,0.59363 0.40531,0.95298c-0.00229,0.35891 -0.14891,0.70181 -0.40681,0.95143c-0.2579,0.24962 -0.60539,0.38498 -0.96419,0.37557zM356.7917,198.63403c-0.35655,0.02413 -0.70544,-0.11111 -0.95258,-0.36925c-0.24713,-0.25814 -0.36706,-0.61259 -0.32742,-0.96775v-7.119c-0.03976,-0.35644 0.08026,-0.71221 0.32781,-0.97173c0.24756,-0.25952 0.59727,-0.39618 0.95519,-0.37327c0.35743,-0.02113 0.70605,0.11609 0.95319,0.37517c0.24714,0.25908 0.36776,0.61379 0.32981,0.96983v7.12c0.03746,0.35572 -0.08425,0.7098 -0.3325,0.96731c-0.24825,0.25751 -0.59764,0.3921 -0.9545,0.36769zM359.6167,193.72703c0,-3.046 1.846,-4.9 4.667,-4.9c2.821,0 4.667,1.841 4.667,4.9c0,3.103 -1.819,4.922 -4.667,4.922c-2.847,0 -4.667,-1.826 -4.667,-4.922zM364.2837,196.69103c1.257,0 2.057,-1.063 2.057,-2.955c0,-1.872 -0.809,-2.953 -2.057,-2.953c-1.248,0 -2.065,1.081 -2.065,2.953c0,1.89 0.799,2.953 2.065,2.953zM370.78027,198.26583c-0.2476,-0.25724 -0.36895,-0.61071 -0.33157,-0.9658v-7.172c-0.03708,-0.3433 0.07951,-0.68543 0.31851,-0.93464c0.23899,-0.24922 0.57594,-0.38003 0.92049,-0.35736c0.35053,-0.02561 0.69466,0.10373 0.94154,0.35388c0.24688,0.25015 0.37168,0.59596 0.34146,0.94612v0.527h0.053c0.46632,-1.17314 1.64122,-1.90685 2.9,-1.811c2.092,0 3.27,1.318 3.27,3.524v4.922c0.03798,0.35523 -0.08296,0.70908 -0.33041,0.96675c-0.24745,0.25767 -0.59612,0.39283 -0.95259,0.36925c-0.35667,0.02497 -0.70603,-0.1096 -0.95378,-0.36739c-0.24775,-0.25779 -0.36834,-0.61222 -0.32922,-0.96761v-4.386c0,-1.234 -0.58,-1.934 -1.731,-1.934c-0.53388,-0.00702 -1.04522,0.21487 -1.40477,0.6096c-0.35955,0.39472 -0.5329,0.92449 -0.47623,1.4554v4.254c0.03944,0.35556 -0.08101,0.71027 -0.3288,0.9683c-0.24779,0.25802 -0.59734,0.39273 -0.9542,0.3677c-0.35625,0.0238 -0.70483,-0.11096 -0.95243,-0.3682z" fill="#000000"/></g><text transform="translate(211.3687,250.53882) scale(0.33741,0.33741)" font-size="40" xml:space="preserve" fill="#000000" fill-rule="nonzero" stroke="none" stroke-width="1" stroke-linecap="butt" stroke-linejoin="miter" stroke-miterlimit="10" stroke-dasharray="" stroke-dashoffset="0" font-family="Sans Serif" font-weight="normal" text-anchor="start" style="mix-blend-mode: normal"><tspan x="0" dy="0">App Center is coming soon</tspan></text></g></g></svg>