<svg version="1.1" viewBox="0.0 0.0 960.0 720.0" fill="none" stroke="none" stroke-linecap="square" stroke-miterlimit="10" xmlns:xlink="http://www.w3.org/1999/xlink" xmlns="http://www.w3.org/2000/svg"><clipPath id="p.0"><path d="m0 0l960.0 0l0 720.0l-960.0 0l0 -720.0z" clip-rule="nonzero"/></clipPath><g clip-path="url(#p.0)"><path fill="#000000" fill-opacity="0.0" d="m0 0l960.0 0l0 720.0l-960.0 0z" fill-rule="evenodd"/><path fill="#000000" fill-opacity="0.0" d="m55.385826 175.19685l540.2835 0l0 42.015747l-540.2835 0z" fill-rule="evenodd"/><path fill="#000000" d="m88.03892 201.2731q0 0.21875 -0.078125 0.390625q-0.0625 0.15625 -0.1875 0.265625q-0.125 0.109375 -0.296875 0.15625q-0.15625 0.046875 -0.328125 0.046875l-1.03125 0q-0.3125 0 -0.546875 -0.0625q-0.234375 -0.0625 -0.4375 -0.234375q-0.1875 -0.171875 -0.375 -0.453125q-0.171875 -0.28125 -0.40625 -0.734375l-2.9375 -5.515625q-0.25 -0.5 -0.515625 -1.0625q-0.265625 -0.578125 -0.46875 -1.109375l-0.015625 0q0.03125 0.65625 0.046875 1.3125q0.015625 0.640625 0.015625 1.34375l0 6.15625q0 0.09375 -0.046875 0.171875q-0.046875 0.078125 -0.171875 0.125q-0.125 0.046875 -0.34375 0.0625q-0.203125 0.03125 -0.53125 0.03125q-0.3125 0 -0.53125 -0.03125q-0.203125 -0.015625 -0.328125 -0.0625q-0.109375 -0.046875 -0.15625 -0.125q-0.046875 -0.078125 -0.046875 -0.171875l0 -10.59375q0 -0.421875 0.25 -0.625q0.25 -0.21875 0.625 -0.21875l1.28125 0q0.34375 0 0.578125 0.0625q0.234375 0.046875 0.421875 0.1875q0.1875 0.140625 0.34375 0.390625q0.171875 0.234375 0.34375 0.578125l2.296875 4.3125q0.203125 0.390625 0.390625 0.78125q0.203125 0.375 0.375 0.75q0.1875 0.375 0.359375 0.75q0.1875 0.359375 0.34375 0.71875l0.015625 0q-0.03125 -0.640625 -0.046875 -1.328125q-0.015625 -0.703125 -0.015625 -1.328125l0 -5.53125q0 -0.09375 0.046875 -0.15625q0.0625 -0.078125 0.1875 -0.125q0.125 -0.0625 0.328125 -0.078125q0.21875 -0.03125 0.546875 -0.03125q0.3125 0 0.515625 0.03125q0.21875 0.015625 0.328125 0.078125q0.109375 0.046875 0.15625 0.125q0.046875 0.0625 0.046875 0.15625l0 10.59375zm9.366837 0.5625q0 0.125 -0.09375 0.203125q-0.09375 0.0625 -0.296875 0.09375q-0.1875 0.03125 -0.578125 0.03125q-0.40625 0 -0.59375 -0.03125q-0.1875 -0.03125 -0.265625 -0.09375q-0.078125 -0.078125 -0.078125 -0.203125l0 -0.640625q-0.5 0.53125 -1.140625 0.828125q-0.640625 0.296875 -1.421875 0.296875q-0.65625 0 -1.203125 -0.171875q-0.53125 -0.15625 -0.9375 -0.484375q-0.390625 -0.34375 -0.609375 -0.828125q-0.21875 -0.5 -0.21875 -1.15625q0 -0.703125 0.28125 -1.21875q0.28125 -0.53125 0.828125 -0.875q0.5625 -0.34375 1.375 -0.5q0.8125 -0.171875 1.90625 -0.171875l0.796875 0l0 -0.484375q0 -0.390625 -0.078125 -0.671875q-0.078125 -0.296875 -0.265625 -0.484375q-0.171875 -0.1875 -0.46875 -0.28125q-0.296875 -0.09375 -0.734375 -0.09375q-0.578125 0 -1.03125 0.140625q-0.4375 0.125 -0.796875 0.28125q-0.34375 0.140625 -0.578125 0.28125q-0.21875 0.125 -0.375 0.125q-0.09375 0 -0.171875 -0.0625q-0.078125 -0.0625 -0.140625 -0.1875q-0.046875 -0.125 -0.078125 -0.296875q-0.015625 -0.171875 -0.015625 -0.375q0 -0.28125 0.046875 -0.4375q0.046875 -0.171875 0.171875 -0.296875q0.125 -0.140625 0.4375 -0.296875q0.328125 -0.171875 0.75 -0.296875q0.4375 -0.140625 0.9375 -0.21875q0.5 -0.09375 1.046875 -0.09375q0.953125 0 1.625 0.1875q0.6875 0.1875 1.125 0.578125q0.4375 0.375 0.640625 0.984375q0.203125 0.609375 0.203125 1.453125l0 5.46875zm-2.25 -3.484375l-0.875 0q-0.5625 0 -0.953125 0.09375q-0.390625 0.078125 -0.640625 0.25q-0.25 0.15625 -0.359375 0.390625q-0.109375 0.21875 -0.109375 0.53125q0 0.5 0.3125 0.796875q0.328125 0.296875 0.90625 0.296875q0.484375 0 0.890625 -0.25q0.40625 -0.25 0.828125 -0.71875l0 -1.390625zm17.459702 3.453125q0 0.09375 -0.0625 0.171875q-0.046875 0.0625 -0.1875 0.109375q-0.125 0.046875 -0.34375 0.0625q-0.21875 0.015625 -0.546875 0.015625q-0.34375 0 -0.5625 -0.015625q-0.21875 -0.015625 -0.359375 -0.0625q-0.125 -0.046875 -0.1875 -0.109375q-0.046875 -0.078125 -0.046875 -0.171875l0 -4.8125q0 -0.40625 -0.078125 -0.75q-0.0625 -0.34375 -0.234375 -0.578125q-0.15625 -0.25 -0.40625 -0.375q-0.234375 -0.125 -0.5625 -0.125q-0.421875 0 -0.84375 0.3125q-0.40625 0.3125 -0.90625 0.921875l0 5.40625q0 0.09375 -0.0625 0.171875q-0.046875 0.0625 -0.1875 0.109375q-0.125 0.046875 -0.34375 0.0625q-0.21875 0.015625 -0.546875 0.015625q-0.328125 0 -0.546875 -0.015625q-0.21875 -0.015625 -0.359375 -0.0625q-0.125 -0.046875 -0.1875 -0.109375q-0.046875 -0.078125 -0.046875 -0.171875l0 -4.8125q0 -0.40625 -0.078125 -0.75q-0.078125 -0.34375 -0.234375 -0.578125q-0.15625 -0.25 -0.40625 -0.375q-0.234375 -0.125 -0.5625 -0.125q-0.421875 0 -0.84375 0.3125q-0.421875 0.3125 -0.90625 0.921875l0 5.40625q0 0.09375 -0.0625 0.171875q-0.046875 0.0625 -0.1875 0.109375q-0.125 0.046875 -0.34375 0.0625q-0.21875 0.015625 -0.546875 0.015625q-0.34375 0 -0.5625 -0.015625q-0.21875 -0.015625 -0.359375 -0.0625q-0.125 -0.046875 -0.1875 -0.109375q-0.046875 -0.078125 -0.046875 -0.171875l0 -8.125q0 -0.09375 0.046875 -0.15625q0.046875 -0.0625 0.15625 -0.109375q0.125 -0.046875 0.3125 -0.0625q0.1875 -0.03125 0.46875 -0.03125q0.296875 0 0.484375 0.03125q0.203125 0.015625 0.296875 0.0625q0.109375 0.046875 0.15625 0.109375q0.046875 0.0625 0.046875 0.15625l0 0.9375q0.671875 -0.71875 1.34375 -1.078125q0.671875 -0.375 1.390625 -0.375q0.5 0 0.90625 0.109375q0.40625 0.09375 0.71875 0.296875q0.3125 0.1875 0.53125 0.46875q0.234375 0.265625 0.390625 0.609375q0.359375 -0.390625 0.703125 -0.671875q0.359375 -0.28125 0.703125 -0.453125q0.34375 -0.1875 0.6875 -0.265625q0.34375 -0.09375 0.6875 -0.09375q0.8125 0 1.359375 0.28125q0.5625 0.265625 0.90625 0.734375q0.34375 0.46875 0.484375 1.09375q0.15625 0.625 0.15625 1.328125l0 5.203125zm9.754547 -4.296875q0 0.421875 -0.1875 0.625q-0.1875 0.1875 -0.515625 0.1875l-4.953125 0q0 0.53125 0.125 0.953125q0.125 0.421875 0.390625 0.71875q0.28125 0.296875 0.703125 0.453125q0.421875 0.15625 1.015625 0.15625q0.59375 0 1.046875 -0.078125q0.453125 -0.09375 0.78125 -0.203125q0.34375 -0.109375 0.5625 -0.1875q0.21875 -0.09375 0.359375 -0.09375q0.078125 0 0.125 0.03125q0.0625 0.03125 0.09375 0.125q0.046875 0.078125 0.046875 0.234375q0.015625 0.140625 0.015625 0.359375q0 0.203125 -0.015625 0.34375q0 0.140625 -0.015625 0.25q-0.015625 0.09375 -0.0625 0.171875q-0.03125 0.0625 -0.09375 0.125q-0.046875 0.0625 -0.3125 0.171875q-0.265625 0.109375 -0.6875 0.21875q-0.40625 0.09375 -0.9375 0.171875q-0.515625 0.078125 -1.125 0.078125q-1.078125 0 -1.890625 -0.265625q-0.8125 -0.28125 -1.359375 -0.828125q-0.546875 -0.5625 -0.828125 -1.40625q-0.265625 -0.84375 -0.265625 -1.984375q0 -1.078125 0.28125 -1.953125q0.28125 -0.875 0.8125 -1.46875q0.546875 -0.609375 1.3125 -0.921875q0.78125 -0.328125 1.734375 -0.328125q1.03125 0 1.75 0.296875q0.71875 0.296875 1.1875 0.84375q0.46875 0.53125 0.6875 1.265625q0.21875 0.71875 0.21875 1.578125l0 0.359375zm-2.21875 -0.65625q0.015625 -0.96875 -0.40625 -1.515625q-0.40625 -0.546875 -1.265625 -0.546875q-0.4375 0 -0.765625 0.171875q-0.3125 0.15625 -0.53125 0.4375q-0.21875 0.265625 -0.328125 0.65625q-0.109375 0.375 -0.140625 0.796875l3.4375 0zm168.44669 3.484375q0 0.21875 -0.015625 0.390625q-0.015625 0.15625 -0.046875 0.265625q-0.015625 0.109375 -0.0625 0.203125q-0.046875 0.078125 -0.15625 0.1875q-0.09375 0.09375 -0.390625 0.265625q-0.28125 0.15625 -0.703125 0.3125q-0.40625 0.140625 -0.9375 0.234375q-0.53125 0.109375 -1.15625 0.109375q-1.203125 0 -2.1875 -0.375q-0.96875 -0.375 -1.65625 -1.109375q-0.671875 -0.75 -1.046875 -1.859375q-0.359375 -1.109375 -0.359375 -2.578125q0 -1.5 0.390625 -2.671875q0.40625 -1.171875 1.125 -1.953125q0.71875 -0.796875 1.71875 -1.203125q1.015625 -0.421875 2.234375 -0.421875q0.484375 0 0.9375 0.09375q0.46875 0.078125 0.84375 0.21875q0.390625 0.125 0.703125 0.296875q0.3125 0.171875 0.4375 0.296875q0.125 0.125 0.15625 0.203125q0.046875 0.078125 0.078125 0.203125q0.03125 0.125 0.046875 0.3125q0.015625 0.171875 0.015625 0.421875q0 0.265625 -0.03125 0.46875q-0.015625 0.1875 -0.0625 0.3125q-0.03125 0.109375 -0.109375 0.171875q-0.0625 0.046875 -0.140625 0.046875q-0.140625 0 -0.34375 -0.15625q-0.203125 -0.15625 -0.546875 -0.34375q-0.328125 -0.203125 -0.796875 -0.359375q-0.453125 -0.171875 -1.09375 -0.171875q-0.703125 0 -1.25 0.296875q-0.546875 0.28125 -0.9375 0.8125q-0.390625 0.53125 -0.59375 1.296875q-0.1875 0.75 -0.1875 1.703125q0 1.03125 0.203125 1.796875q0.21875 0.75 0.609375 1.25q0.40625 0.484375 0.953125 0.734375q0.5625 0.234375 1.265625 0.234375q0.640625 0 1.109375 -0.140625q0.46875 -0.15625 0.796875 -0.328125q0.328125 -0.1875 0.546875 -0.328125q0.21875 -0.15625 0.328125 -0.15625q0.09375 0 0.140625 0.046875q0.0625 0.03125 0.09375 0.140625q0.046875 0.109375 0.0625 0.3125q0.015625 0.1875 0.015625 0.515625zm9.79657 -6.421875q0 0.984375 -0.3125 1.75q-0.3125 0.765625 -0.90625 1.296875q-0.59375 0.515625 -1.453125 0.796875q-0.859375 0.265625 -2.015625 0.265625l-0.984375 0l0 3.765625q0 0.09375 -0.0625 0.171875q-0.0625 0.0625 -0.203125 0.109375q-0.140625 0.046875 -0.375 0.0625q-0.21875 0.03125 -0.5625 0.03125q-0.359375 0 -0.59375 -0.03125q-0.21875 -0.015625 -0.359375 -0.0625q-0.140625 -0.046875 -0.203125 -0.109375q-0.046875 -0.078125 -0.046875 -0.171875l0 -10.609375q0 -0.421875 0.21875 -0.625q0.234375 -0.21875 0.59375 -0.21875l2.78125 0q0.421875 0 0.796875 0.03125q0.375 0.03125 0.90625 0.140625q0.53125 0.09375 1.0625 0.375q0.546875 0.28125 0.921875 0.71875q0.390625 0.4375 0.59375 1.015625q0.203125 0.578125 0.203125 1.296875zm-2.515625 0.171875q0 -0.625 -0.21875 -1.015625q-0.21875 -0.40625 -0.53125 -0.59375q-0.3125 -0.203125 -0.671875 -0.25q-0.34375 -0.046875 -0.71875 -0.046875l-1.015625 0l0 4.0l1.0625 0q0.578125 0 0.96875 -0.15625q0.390625 -0.15625 0.625 -0.4375q0.25 -0.28125 0.375 -0.65625q0.125 -0.390625 0.125 -0.84375zm13.991852 3.640625q0 1.078125 -0.328125 1.9375q-0.3125 0.859375 -0.9375 1.453125q-0.609375 0.59375 -1.53125 0.90625q-0.90625 0.296875 -2.09375 0.296875q-1.109375 0 -2.0 -0.265625q-0.875 -0.28125 -1.484375 -0.84375q-0.609375 -0.5625 -0.9375 -1.40625q-0.3125 -0.84375 -0.3125 -1.984375l0 -7.15625q0 -0.09375 0.046875 -0.171875q0.0625 -0.078125 0.203125 -0.109375q0.140625 -0.046875 0.359375 -0.078125q0.234375 -0.03125 0.59375 -0.03125q0.34375 0 0.5625 0.03125q0.234375 0.03125 0.359375 0.078125q0.140625 0.03125 0.203125 0.109375q0.0625 0.078125 0.0625 0.171875l0 6.953125q0 0.703125 0.171875 1.21875q0.171875 0.515625 0.5 0.859375q0.328125 0.328125 0.765625 0.5q0.453125 0.15625 1.015625 0.15625q0.5625 0 1.0 -0.171875q0.453125 -0.171875 0.765625 -0.5q0.3125 -0.328125 0.46875 -0.8125q0.171875 -0.5 0.171875 -1.109375l0 -7.09375q0 -0.09375 0.046875 -0.171875q0.0625 -0.078125 0.203125 -0.109375q0.140625 -0.046875 0.359375 -0.078125q0.234375 -0.03125 0.59375 -0.03125q0.34375 0 0.5625 0.03125q0.21875 0.03125 0.359375 0.078125q0.140625 0.03125 0.1875 0.109375q0.0625 0.078125 0.0625 0.171875l0 7.0625zm32.392914 4.078125q0 0.109375 -0.046875 0.171875q-0.03125 0.0625 -0.171875 0.109375q-0.125 0.046875 -0.390625 0.0625q-0.265625 0.015625 -0.71875 0.015625q-0.390625 0 -0.625 -0.015625q-0.21875 -0.015625 -0.359375 -0.0625q-0.125 -0.046875 -0.1875 -0.125q-0.046875 -0.078125 -0.078125 -0.1875l-1.0625 -2.640625q-0.1875 -0.4375 -0.375 -0.78125q-0.171875 -0.359375 -0.40625 -0.578125q-0.21875 -0.234375 -0.515625 -0.34375q-0.28125 -0.125 -0.671875 -0.125l-0.734375 0l0 4.484375q0 0.09375 -0.0625 0.171875q-0.0625 0.0625 -0.203125 0.109375q-0.140625 0.046875 -0.375 0.0625q-0.21875 0.03125 -0.5625 0.03125q-0.359375 0 -0.59375 -0.03125q-0.21875 -0.015625 -0.359375 -0.0625q-0.140625 -0.046875 -0.203125 -0.109375q-0.046875 -0.078125 -0.046875 -0.171875l0 -10.703125q0 -0.40625 0.203125 -0.578125q0.203125 -0.171875 0.515625 -0.171875l3.046875 0q0.46875 0 0.765625 0.015625q0.296875 0.015625 0.546875 0.046875q0.703125 0.09375 1.265625 0.34375q0.578125 0.25 0.96875 0.640625q0.40625 0.390625 0.609375 0.9375q0.21875 0.546875 0.21875 1.25q0 0.578125 -0.15625 1.078125q-0.140625 0.484375 -0.4375 0.875q-0.296875 0.375 -0.734375 0.65625q-0.421875 0.28125 -0.96875 0.453125q0.265625 0.125 0.5 0.3125q0.234375 0.1875 0.4375 0.453125q0.203125 0.25 0.390625 0.578125q0.1875 0.328125 0.359375 0.75l0.984375 2.328125q0.140625 0.34375 0.1875 0.5q0.046875 0.15625 0.046875 0.25zm-3.09375 -8.0q0 -0.578125 -0.265625 -0.96875q-0.265625 -0.40625 -0.859375 -0.578125q-0.1875 -0.046875 -0.421875 -0.0625q-0.21875 -0.03125 -0.640625 -0.03125l-1.0625 0l0 3.34375l1.21875 0q0.5 0 0.875 -0.125q0.390625 -0.125 0.640625 -0.34375q0.265625 -0.234375 0.390625 -0.53125q0.125 -0.3125 0.125 -0.703125zm14.503235 7.421875q0.109375 0.328125 0.140625 0.515625q0.03125 0.1875 -0.078125 0.296875q-0.09375 0.09375 -0.359375 0.109375q-0.25 0.015625 -0.6875 0.015625q-0.46875 0 -0.734375 -0.015625q-0.25 0 -0.390625 -0.03125q-0.140625 -0.046875 -0.203125 -0.125q-0.046875 -0.078125 -0.078125 -0.1875l-0.796875 -2.375l-4.421875 0l-0.75 2.3125q-0.03125 0.125 -0.09375 0.21875q-0.0625 0.078125 -0.203125 0.125q-0.125 0.046875 -0.375 0.0625q-0.234375 0.015625 -0.625 0.015625q-0.421875 0 -0.65625 -0.03125q-0.234375 -0.015625 -0.328125 -0.109375q-0.09375 -0.109375 -0.0625 -0.296875q0.03125 -0.203125 0.140625 -0.515625l3.640625 -10.46875q0.046875 -0.15625 0.109375 -0.25q0.078125 -0.09375 0.234375 -0.140625q0.171875 -0.046875 0.453125 -0.0625q0.28125 -0.015625 0.75 -0.015625q0.53125 0 0.84375 0.015625q0.328125 0.015625 0.5 0.0625q0.1875 0.046875 0.25 0.15625q0.078125 0.09375 0.140625 0.265625l3.640625 10.453125zm-5.40625 -8.640625l-0.015625 0l-1.65625 5.0l3.34375 0l-1.671875 -5.0zm20.789246 9.203125q0 0.09375 -0.046875 0.171875q-0.046875 0.0625 -0.1875 0.109375q-0.125 0.046875 -0.34375 0.0625q-0.21875 0.03125 -0.546875 0.03125q-0.328125 0 -0.546875 -0.03125q-0.21875 -0.015625 -0.359375 -0.0625q-0.125 -0.046875 -0.1875 -0.109375q-0.046875 -0.078125 -0.046875 -0.171875l0 -9.59375l-0.015625 0l-3.421875 9.578125q-0.03125 0.125 -0.109375 0.203125q-0.078125 0.078125 -0.21875 0.125q-0.140625 0.046875 -0.359375 0.046875q-0.21875 0.015625 -0.53125 0.015625q-0.3125 0 -0.53125 -0.015625q-0.21875 -0.015625 -0.359375 -0.0625q-0.140625 -0.0625 -0.234375 -0.125q-0.078125 -0.078125 -0.09375 -0.1875l-3.296875 -9.578125l-0.03125 0l0 9.59375q0 0.09375 -0.046875 0.171875q-0.046875 0.0625 -0.1875 0.109375q-0.140625 0.046875 -0.359375 0.0625q-0.203125 0.03125 -0.546875 0.03125q-0.3125 0 -0.53125 -0.03125q-0.21875 -0.015625 -0.359375 -0.0625q-0.125 -0.046875 -0.1875 -0.109375q-0.046875 -0.078125 -0.046875 -0.171875l0 -10.5q0 -0.46875 0.25 -0.703125q0.25 -0.25 0.65625 -0.25l1.5625 0q0.421875 0 0.71875 0.0625q0.296875 0.0625 0.515625 0.234375q0.21875 0.15625 0.359375 0.421875q0.15625 0.25 0.265625 0.625l2.546875 7.03125l0.046875 0l2.640625 -7.0q0.109375 -0.390625 0.25 -0.65625q0.140625 -0.265625 0.328125 -0.421875q0.1875 -0.171875 0.4375 -0.234375q0.265625 -0.0625 0.609375 -0.0625l1.609375 0q0.234375 0 0.40625 0.0625q0.1875 0.0625 0.296875 0.1875q0.125 0.109375 0.171875 0.296875q0.0625 0.171875 0.0625 0.40625l0 10.5zm33.45703 -5.734375q0 1.609375 -0.421875 2.765625q-0.421875 1.15625 -1.21875 1.890625q-0.796875 0.71875 -1.9375 1.0625q-1.125 0.34375 -2.6875 0.34375l-2.8125 0q-0.3125 0 -0.515625 -0.171875q-0.203125 -0.1875 -0.203125 -0.578125l0 -10.28125q0 -0.40625 0.203125 -0.578125q0.203125 -0.171875 0.515625 -0.171875l3.015625 0q1.578125 0 2.671875 0.375q1.109375 0.359375 1.859375 1.09375q0.75 0.71875 1.140625 1.78125q0.390625 1.0625 0.390625 2.46875zm-2.484375 0.078125q0 -0.84375 -0.203125 -1.5625q-0.1875 -0.71875 -0.625 -1.234375q-0.421875 -0.53125 -1.109375 -0.828125q-0.671875 -0.296875 -1.78125 -0.296875l-1.203125 0l0 8.015625l1.25 0q0.984375 0 1.65625 -0.25q0.671875 -0.265625 1.125 -0.78125q0.453125 -0.515625 0.671875 -1.28125q0.21875 -0.765625 0.21875 -1.78125zm6.854126 5.65625q0 0.09375 -0.0625 0.171875q-0.046875 0.0625 -0.1875 0.109375q-0.140625 0.046875 -0.375 0.0625q-0.21875 0.03125 -0.578125 0.03125q-0.34375 0 -0.578125 -0.03125q-0.234375 -0.015625 -0.375 -0.0625q-0.125 -0.046875 -0.1875 -0.109375q-0.0625 -0.078125 -0.0625 -0.171875l0 -11.125q0 -0.09375 0.0625 -0.171875q0.0625 -0.078125 0.203125 -0.109375q0.140625 -0.046875 0.359375 -0.078125q0.234375 -0.03125 0.578125 -0.03125q0.359375 0 0.578125 0.03125q0.234375 0.03125 0.375 0.078125q0.140625 0.03125 0.1875 0.109375q0.0625 0.078125 0.0625 0.171875l0 11.125zm9.55191 -3.203125q0 0.921875 -0.34375 1.625q-0.34375 0.703125 -0.9375 1.171875q-0.59375 0.46875 -1.390625 0.703125q-0.78125 0.234375 -1.6875 0.234375q-0.609375 0 -1.140625 -0.09375q-0.515625 -0.09375 -0.921875 -0.234375q-0.390625 -0.140625 -0.671875 -0.296875q-0.265625 -0.15625 -0.390625 -0.265625q-0.109375 -0.125 -0.15625 -0.34375q-0.046875 -0.234375 -0.046875 -0.65625q0 -0.28125 0.015625 -0.46875q0.015625 -0.1875 0.046875 -0.3125q0.046875 -0.125 0.109375 -0.171875q0.078125 -0.046875 0.171875 -0.046875q0.125 0 0.359375 0.15625q0.234375 0.140625 0.59375 0.328125q0.359375 0.1875 0.859375 0.34375q0.515625 0.140625 1.1875 0.140625q0.4375 0 0.78125 -0.109375q0.34375 -0.109375 0.578125 -0.296875q0.25 -0.1875 0.375 -0.46875q0.125 -0.28125 0.125 -0.625q0 -0.40625 -0.21875 -0.6875q-0.21875 -0.296875 -0.578125 -0.515625q-0.34375 -0.21875 -0.796875 -0.40625q-0.4375 -0.203125 -0.90625 -0.421875q-0.46875 -0.21875 -0.921875 -0.5q-0.453125 -0.28125 -0.796875 -0.671875q-0.34375 -0.390625 -0.5625 -0.90625q-0.21875 -0.53125 -0.21875 -1.265625q0 -0.859375 0.3125 -1.5q0.3125 -0.640625 0.84375 -1.0625q0.53125 -0.421875 1.25 -0.625q0.734375 -0.21875 1.546875 -0.21875q0.40625 0 0.828125 0.0625q0.421875 0.0625 0.78125 0.171875q0.375 0.109375 0.65625 0.25q0.28125 0.140625 0.359375 0.234375q0.09375 0.078125 0.125 0.15625q0.046875 0.0625 0.0625 0.171875q0.015625 0.09375 0.03125 0.25q0.015625 0.15625 0.015625 0.40625q0 0.265625 -0.015625 0.453125q-0.015625 0.171875 -0.046875 0.296875q-0.03125 0.109375 -0.09375 0.171875q-0.0625 0.046875 -0.15625 0.046875q-0.109375 0 -0.328125 -0.125q-0.21875 -0.125 -0.53125 -0.28125q-0.3125 -0.15625 -0.734375 -0.265625q-0.421875 -0.125 -0.921875 -0.125q-0.390625 0 -0.6875 0.09375q-0.28125 0.09375 -0.484375 0.265625q-0.203125 0.171875 -0.296875 0.40625q-0.09375 0.234375 -0.09375 0.5q0 0.390625 0.21875 0.6875q0.21875 0.28125 0.578125 0.5q0.359375 0.21875 0.8125 0.421875q0.453125 0.1875 0.921875 0.40625q0.484375 0.21875 0.9375 0.5q0.453125 0.28125 0.796875 0.671875q0.359375 0.375 0.578125 0.90625q0.21875 0.515625 0.21875 1.234375zm10.442993 3.171875q0 0.109375 -0.046875 0.1875q-0.046875 0.078125 -0.1875 0.125q-0.140625 0.046875 -0.390625 0.0625q-0.25 0.03125 -0.625 0.03125q-0.59375 0 -0.859375 -0.046875q-0.25 -0.03125 -0.359375 -0.125q-0.109375 -0.09375 -0.1875 -0.21875l-3.546875 -5.59375l0 5.59375q0 0.09375 -0.0625 0.171875q-0.046875 0.078125 -0.1875 0.125q-0.140625 0.046875 -0.375 0.0625q-0.21875 0.03125 -0.578125 0.03125q-0.34375 0 -0.578125 -0.03125q-0.234375 -0.015625 -0.375 -0.0625q-0.125 -0.046875 -0.1875 -0.125q-0.0625 -0.078125 -0.0625 -0.171875l0 -11.109375q0 -0.09375 0.0625 -0.171875q0.0625 -0.078125 0.1875 -0.109375q0.140625 -0.046875 0.375 -0.078125q0.234375 -0.03125 0.578125 -0.03125q0.359375 0 0.578125 0.03125q0.234375 0.03125 0.375 0.078125q0.140625 0.03125 0.1875 0.109375q0.0625 0.078125 0.0625 0.171875l0 5.015625l3.4375 -5.0q0.078125 -0.125 0.15625 -0.203125q0.09375 -0.078125 0.234375 -0.125q0.15625 -0.046875 0.375 -0.0625q0.234375 -0.015625 0.59375 -0.015625q0.359375 0 0.59375 0.03125q0.234375 0.03125 0.375 0.078125q0.140625 0.046875 0.1875 0.125q0.0625 0.0625 0.0625 0.15625q0 0.15625 -0.078125 0.328125q-0.078125 0.15625 -0.3125 0.515625l-3.234375 4.234375l3.53125 5.328125q0.203125 0.375 0.234375 0.5q0.046875 0.125 0.046875 0.1875zm32.13492 -9.59375q0 0.265625 -0.03125 0.453125q-0.015625 0.1875 -0.0625 0.3125q-0.03125 0.109375 -0.09375 0.15625q-0.046875 0.046875 -0.140625 0.046875q-0.109375 0 -0.375 -0.15625q-0.265625 -0.171875 -0.703125 -0.359375q-0.4375 -0.203125 -1.046875 -0.359375q-0.609375 -0.171875 -1.40625 -0.171875q-0.859375 0 -1.546875 0.296875q-0.6875 0.296875 -1.1875 0.84375q-0.484375 0.53125 -0.75 1.296875q-0.265625 0.765625 -0.265625 1.6875q0 1.0 0.265625 1.78125q0.265625 0.765625 0.75 1.28125q0.484375 0.515625 1.15625 0.78125q0.6875 0.265625 1.515625 0.265625q0.390625 0 0.78125 -0.09375q0.390625 -0.09375 0.734375 -0.265625l0 -2.734375l-2.234375 0q-0.15625 0 -0.25 -0.203125q-0.09375 -0.203125 -0.09375 -0.703125q0 -0.25 0.015625 -0.421875q0.03125 -0.171875 0.078125 -0.28125q0.046875 -0.109375 0.109375 -0.15625q0.0625 -0.046875 0.140625 -0.046875l3.984375 0q0.140625 0 0.25 0.046875q0.125 0.046875 0.203125 0.15625q0.09375 0.09375 0.140625 0.234375q0.046875 0.140625 0.046875 0.328125l0 4.6875q0 0.28125 -0.109375 0.484375q-0.09375 0.203125 -0.390625 0.328125q-0.296875 0.109375 -0.734375 0.234375q-0.421875 0.125 -0.90625 0.21875q-0.46875 0.09375 -0.953125 0.140625q-0.46875 0.046875 -0.953125 0.046875q-1.40625 0 -2.53125 -0.40625q-1.109375 -0.40625 -1.890625 -1.171875q-0.765625 -0.78125 -1.171875 -1.875q-0.40625 -1.109375 -0.40625 -2.515625q0 -1.453125 0.4375 -2.59375q0.4375 -1.15625 1.234375 -1.953125q0.796875 -0.8125 1.921875 -1.234375q1.140625 -0.4375 2.546875 -0.4375q0.75 0 1.375 0.109375q0.640625 0.09375 1.109375 0.25q0.46875 0.140625 0.78125 0.328125q0.3125 0.171875 0.421875 0.296875q0.125 0.125 0.171875 0.359375q0.0625 0.234375 0.0625 0.6875zm10.512878 1.75q0 0.984375 -0.3125 1.75q-0.3125 0.765625 -0.90625 1.296875q-0.59375 0.515625 -1.453125 0.796875q-0.859375 0.265625 -2.015625 0.265625l-0.984375 0l0 3.765625q0 0.09375 -0.0625 0.171875q-0.0625 0.0625 -0.203125 0.109375q-0.140625 0.046875 -0.375 0.0625q-0.21875 0.03125 -0.5625 0.03125q-0.359375 0 -0.59375 -0.03125q-0.21875 -0.015625 -0.359375 -0.0625q-0.140625 -0.046875 -0.203125 -0.109375q-0.046875 -0.078125 -0.046875 -0.171875l0 -10.609375q0 -0.421875 0.21875 -0.625q0.234375 -0.21875 0.59375 -0.21875l2.78125 0q0.421875 0 0.796875 0.03125q0.375 0.03125 0.90625 0.140625q0.53125 0.09375 1.0625 0.375q0.546875 0.28125 0.921875 0.71875q0.390625 0.4375 0.59375 1.015625q0.203125 0.578125 0.203125 1.296875zm-2.515625 0.171875q0 -0.625 -0.21875 -1.015625q-0.21875 -0.40625 -0.53125 -0.59375q-0.3125 -0.203125 -0.671875 -0.25q-0.34375 -0.046875 -0.71875 -0.046875l-1.015625 0l0 4.0l1.0625 0q0.578125 0 0.96875 -0.15625q0.390625 -0.15625 0.625 -0.4375q0.25 -0.28125 0.375 -0.65625q0.125 -0.390625 0.125 -0.84375zm13.991852 3.640625q0 1.078125 -0.328125 1.9375q-0.3125 0.859375 -0.9375 1.453125q-0.609375 0.59375 -1.53125 0.90625q-0.90625 0.296875 -2.09375 0.296875q-1.109375 0 -2.0 -0.265625q-0.875 -0.28125 -1.484375 -0.84375q-0.609375 -0.5625 -0.9375 -1.40625q-0.3125 -0.84375 -0.3125 -1.984375l0 -7.15625q0 -0.09375 0.046875 -0.171875q0.0625 -0.078125 0.203125 -0.109375q0.140625 -0.046875 0.359375 -0.078125q0.234375 -0.03125 0.59375 -0.03125q0.34375 0 0.5625 0.03125q0.234375 0.03125 0.359375 0.078125q0.140625 0.03125 0.203125 0.109375q0.0625 0.078125 0.0625 0.171875l0 6.953125q0 0.703125 0.171875 1.21875q0.171875 0.515625 0.5 0.859375q0.328125 0.328125 0.765625 0.5q0.453125 0.15625 1.015625 0.15625q0.5625 0 1.0 -0.171875q0.453125 -0.171875 0.765625 -0.5q0.3125 -0.328125 0.46875 -0.8125q0.171875 -0.5 0.171875 -1.109375l0 -7.09375q0 -0.09375 0.046875 -0.171875q0.0625 -0.078125 0.203125 -0.109375q0.140625 -0.046875 0.359375 -0.078125q0.234375 -0.03125 0.59375 -0.03125q0.34375 0 0.5625 0.03125q0.21875 0.03125 0.359375 0.078125q0.140625 0.03125 0.1875 0.109375q0.0625 0.078125 0.0625 0.171875l0 7.0625z" fill-rule="nonzero"/></g></svg>