<svg version="1.1" xmlns="http://www.w3.org/2000/svg" xmlns:xlink="http://www.w3.org/1999/xlink" width="316.7969" height="111.6181" viewBox="0,0,316.7969,111.6181"><g transform="translate(-139.97224,-48.77431)"><g data-paper-data="{&quot;isPaintingLayer&quot;:true}" stroke-miterlimit="10" stroke-dasharray="" stroke-dashoffset="0" style="mix-blend-mode: normal"><g><path d="M146.47224,55.27432c0,0 24.08987,0 30.49264,0c64.90694,0 273.30426,0 273.30426,0v98.6181h-303.7969z" fill="#262727" fill-rule="nonzero" stroke="#262727" stroke-width="13" stroke-linecap="round" stroke-linejoin="round"/><text transform="translate(290.08092,86.28873) scale(0.39278,0.39278)" font-size="40" xml:space="preserve" fill="#ffffff" fill-rule="nonzero" stroke="none" stroke-width="1" stroke-linecap="butt" stroke-linejoin="miter" stroke-miterlimit="10" stroke-dasharray="" stroke-dashoffset="0" font-family="Sans Serif" font-weight="normal" text-anchor="start" style="mix-blend-mode: normal"><tspan x="0" dy="0">Song of the day</tspan></text><text transform="translate(313.41435,105.70441) scale(0.29885,0.29885)" font-size="40" xml:space="preserve" fill="#ffffff" fill-rule="nonzero" stroke="none" stroke-width="1" stroke-linecap="butt" stroke-linejoin="miter" stroke-miterlimit="10" stroke-dasharray="" stroke-dashoffset="0" font-family="Sans Serif" font-weight="normal" text-anchor="start" style="mix-blend-mode: normal"><tspan x="0" dy="0">Baby Shark</tspan></text><path d="M159.12554,67.94097c0,0 5.61496,0 7.10735,0c15.12878,0 63.70292,0 63.70292,0v73.95144h-70.81027z" fill="#343435" fill-rule="nonzero" stroke="#343435" stroke-width="13" stroke-linecap="round" stroke-linejoin="round"/><g stroke="none" stroke-width="1" stroke-linecap="butt" stroke-linejoin="miter"><path d="M164.83129,107.81128c1.90248,-2.57117 5.69802,-3.58834 9.06032,-3.27754c-3.90856,-9.58774 2.52408,-23.02752 15.95445,-24.80756c0.00942,-3.02324 0.56509,-5.92406 1.71411,-8.69301c1.14902,2.77837 1.70469,5.67918 1.71411,8.69301c13.43036,1.77062 19.863,15.21982 15.94503,24.80756c3.37172,-0.30138 7.16726,0.7252 9.06974,3.28695c-2.06259,4.3983 -9.0038,7.60049 -16.80208,6.58333c-0.1036,0.06593 -6.78111,11.71625 2.9479,13.6564c2.71245,-2.83488 5.82987,-3.78612 9.3617,-2.87255c-4.60551,3.99332 -6.91297,8.50464 -6.30078,13.64698c-2.39223,-1.46924 -4.31354,-3.34346 -4.58667,-6.61158c-14.59822,1.17727 -21.53944,-8.70242 -24.48734,-17.6403c-6.43264,-0.09418 -11.81044,-2.98558 -13.59048,-6.77169z" fill="#4dbce9" fill-rule="evenodd"/><path d="M203.56839,93.03411c0,-2.3263 -1.89306,-4.21936 -4.21936,-4.21936c-2.3263,0 -4.21936,1.89306 -4.21936,4.21936c0,2.3263 1.89306,4.21936 4.21936,4.21936c2.3263,0 4.21936,-1.89306 4.21936,-4.21936zM183.79018,97.25347c-2.3263,0 -4.21936,-1.89306 -4.21936,-4.21936c0,-2.3263 1.89306,-4.21936 4.21936,-4.21936c2.3263,0 4.21936,1.89306 4.21936,4.21936c0,2.3263 -1.89306,4.21936 -4.21936,4.21936zM208.78609,103.78028c-1.3468,3.54125 -3.88972,6.22544 -7.26144,7.89246c-3.56008,5.77336 -4.2382,10.40712 -3.04208,13.17608c1.3468,3.12684 5.55674,4.01215 4.98223,5.3307c-0.518,1.17727 -3.42823,1.90248 -7.05424,1.27146c-9.04148,-1.56342 -17.09404,-11.45254 -16.2935,-20.62588c-2.66535,-1.69528 -4.64318,-4.10634 -5.76394,-7.05424c-0.79113,-2.08142 -1.11135,-4.2947 -1.02659,-6.50798c3.87089,-0.39556 8.62708,2.7407 18.24307,2.76895c9.61599,-0.02826 14.37219,-3.16452 18.24307,-2.76895c0.08477,2.21328 -0.23546,4.42656 -1.02659,6.5174z" fill="#ffffff" fill-rule="evenodd"/><path d="M201.5435,93.42968c0,1.72353 -1.40332,3.12684 -3.12685,3.12684c-1.72353,0 -3.12684,-1.40331 -3.12684,-3.12684c0,-1.72353 1.40331,-3.12685 3.12684,-3.12685c0.52742,0 1.03601,0.13185 1.4975,0.37673l0.30139,0.16953l-0.23546,0.25429c-0.18836,0.2072 -0.29197,0.47091 -0.29197,0.74404c0,0.61219 0.49916,1.11135 1.11135,1.11135c0.12244,0 0.24488,-0.01883 0.36731,-0.06593l0.32964,-0.11302l0.02825,0.34847c0.01883,0.1036 0.01884,0.2072 0.01884,0.30139zM184.72258,90.30283c-0.52742,0 -1.03601,0.13185 -1.4975,0.37673l-0.30138,0.16953l0.23546,0.25429c0.18836,0.2072 0.29196,0.47091 0.29196,0.74404c0,0.61219 -0.49916,1.11135 -1.11135,1.11135c-0.12244,0 -0.24487,-0.01883 -0.36731,-0.06593l-0.32964,-0.11302l-0.02825,0.34847c-0.00942,0.1036 -0.01884,0.19779 -0.01884,0.30139c0,1.72353 1.40331,3.12684 3.12684,3.12684c1.72353,0 3.12684,-1.40331 3.12684,-3.12684c0,-1.72353 -1.40331,-3.12685 -3.12684,-3.12685z" fill="#000000" fill-rule="nonzero"/><path d="M193.54744,96.55652c0,-0.47091 -0.25429,-0.85706 -0.56509,-0.85706c-0.3108,0 -0.56509,0.38615 -0.56509,0.85706c0,0.47092 0.25429,0.85706 0.56509,0.85706c0.3108,0 0.56509,-0.38615 0.56509,-0.85706zM189.59177,96.55652c0,-0.47091 0.25429,-0.85706 0.56509,-0.85706c0.3108,0 0.5651,0.38615 0.5651,0.85706c0,0.47092 -0.2543,0.85706 -0.5651,0.85706c-0.3108,0 -0.56509,-0.38615 -0.56509,-0.85706z" fill="#38889b" fill-rule="evenodd"/><path d="M202.3252,99.32547c-0.40498,12.04589 -21.10621,12.04589 -21.51119,0c0.8288,0.2072 1.63877,0.39556 2.44873,0.55567l0.67811,1.64819l1.59168,-0.88531l1.96841,1.89306l1.9684,-1.37506l2.10026,1.71411l2.1191,-1.71411l1.96841,1.37506l1.9684,-1.89306l1.57284,0.88531l0.67811,-1.64819c0.80055,-0.16011 1.61993,-0.33906 2.44873,-0.55567z" fill="#a01116" fill-rule="nonzero"/><path d="M199.68811,105.3908c-4.13459,3.96506 -12.11182,3.96506 -16.24641,0c4.23819,-2.21328 12.01763,-2.21328 16.24641,0z" fill="#d61b22" fill-rule="evenodd"/></g></g></g></g></svg>