<svg version="1.1" xmlns="http://www.w3.org/2000/svg" xmlns:xlink="http://www.w3.org/1999/xlink" width="27.969" height="20" viewBox="0,0,27.969,20"><g transform="translate(-239.547,-160.408)"><g data-paper-data="{&quot;isPaintingLayer&quot;:true}" fill="#ffffff" fill-rule="nonzero" stroke="none" stroke-width="1" stroke-linecap="butt" stroke-linejoin="miter" stroke-miterlimit="10" stroke-dasharray="" stroke-dashoffset="0" style="mix-blend-mode: normal"><path d="M267.516,160.408l-5.996,20h-3.321l-4.121,-14.317c-0.156,-0.546 -0.26,-1.165 -0.312,-1.855h-0.078c-0.04,0.469 -0.176,1.074 -0.411,1.816l-4.472,14.356h-3.203l-6.055,-20h3.359l4.141,15.039c0.13,0.456 0.221,1.055 0.273,1.797h0.157c0.039,-0.573 0.156,-1.185 0.351,-1.836l4.61,-15h2.929l4.141,15.078c0.13,0.482 0.228,1.081 0.293,1.797h0.156c0.026,-0.508 0.137,-1.107 0.332,-1.797l4.063,-15.078z"/></g></g></svg>