<svg version="1.1" xmlns="http://www.w3.org/2000/svg" xmlns:xlink="http://www.w3.org/1999/xlink" width="439.12475" height="282.08989" viewBox="0,0,439.12475,282.08989"><defs><linearGradient x1="106.82628" y1="155.37455" x2="106.82628" y2="232.42464" gradientUnits="userSpaceOnUse" id="color-1"><stop offset="0" stop-color="#15adff"/><stop offset="1" stop-color="#972fff"/></linearGradient></defs><g transform="translate(-20.43763,-38.95506)"><g data-paper-data="{&quot;isPaintingLayer&quot;:true}" fill-rule="nonzero" stroke-miterlimit="10" stroke-dasharray="" stroke-dashoffset="0" style="mix-blend-mode: normal"><path d="M27.93765,46.45507c0,0 33.63139,0 42.57014,0c90.6153,0 381.5546,0 381.5546,0v267.08989h-424.12475z" fill="#ffffff" stroke="#ffffff" stroke-width="15" stroke-linecap="round" stroke-linejoin="round"/><g stroke="none" stroke-width="0" stroke-linecap="butt" stroke-linejoin="miter"><path d="M68.30126,193.89957c0,-21.27678 17.24824,-38.525 38.52502,-38.525c21.27678,0 38.52501,17.24822 38.52501,38.525c0,21.27678 -17.24823,38.52503 -38.52501,38.52503c-21.27678,0 -38.52502,-17.24824 -38.52502,-38.52502z" fill="url(#color-1)"/><g fill-opacity="0.2" fill="#ffffff"><path d="M69.46888,184.07824c0.5891,-3.39544 3.47153,-9.70419 7.37328,-14.46753c3.77095,-4.60364 8.56724,-7.72196 9.01549,-7.74312c4.57831,-0.21626 5.98005,7.06209 8.27806,7.06209c3.44727,0 10.67829,-3.03555 13.6038,-1.65911c7.70029,3.62299 9.06731,15.25655 9.06731,24.3302c0,1.61571 0.94922,3.37743 -2.33464,3.81439c-4.64649,0.61827 -14.11405,-0.30367 -15.13117,1.57474c-1.8646,3.44351 0.12996,5.71977 1.75589,7.45051c0.50284,0.53527 -1.87055,0.46488 -2.18766,0.8153c-0.76628,0.84675 -1.1491,1.89137 -1.72512,1.69856c-4.25571,-1.42443 -10.68747,-5.99602 -15.8473,-8.62039c-3.53689,-1.79891 -5.3497,-0.31526 -7.48952,-2.16558c-6.6299,-5.73289 -4.6582,-10.47735 -4.3784,-12.09005z"/><path d="M101.58705,162.03322c0,1.35717 -3.37648,3.09151 -5.39034,3.09151c-2.01385,0 -2.3781,-1.73435 -2.3781,-3.09151c0,-1.35717 1.63254,-2.45735 3.6464,-2.45735c2.01385,0 4.12201,1.10019 4.12201,2.45735z"/><path d="M140.03278,178.12496c-2.84369,0 -5.1513,6.10649 -9.54091,4.29011c-3.6523,-1.51131 -9.7216,-10.70282 -9.7216,-13.1683c0,-5.42864 -1.16701,-8.8782 4.04275,-8.8782c5.20974,0 20.42951,17.75638 15.21976,17.75638z"/><path d="M127.30137,225.98855c-3.40874,4.50833 -15.21412,6.51533 -19.37277,6.51533c-2.59833,0 -1.87373,-3.09842 -4.18935,-5.31266c-2.44433,-2.3373 -7.85963,-3.87051 -7.85963,-6.8156c0,-5.7351 -0.26783,-15.61611 5.07325,-15.61611c2.25465,0 17.50135,1.49202 20.76584,5.70955c2.74794,3.55018 6.02563,14.93359 5.58266,15.51945z"/></g><g fill-opacity="0.2" fill="#ffffff"><path d="M69.73157,184.07031c0.5891,-3.39544 3.47151,-9.70418 7.37327,-14.46752c3.77095,-4.60364 8.56723,-7.72197 9.01549,-7.74313c4.57831,-0.21626 5.98005,7.06209 8.27807,7.06209c3.44727,0 10.67832,-3.03555 13.60382,-1.65911c7.70029,3.62299 9.06728,15.25655 9.06728,24.3302c0,1.61571 0.94923,3.37745 -2.33463,3.81439c-4.64649,0.61827 -14.11405,-0.30369 -15.13119,1.57472c-1.8646,3.44351 0.12996,5.71977 1.75591,7.45051c0.50284,0.53527 -1.87056,0.4649 -2.18767,0.81531c-0.76628,0.84675 -1.1491,1.89137 -1.72511,1.69855c-4.25571,-1.42443 -10.68748,-5.99601 -15.84731,-8.62038c-3.53689,-1.79891 -5.34968,-0.31527 -7.4895,-2.16558c-6.6299,-5.73289 -4.65821,-10.47735 -4.37841,-12.09005z"/><path d="M101.84975,162.02531c0,1.35717 -3.37649,3.09151 -5.39034,3.09151c-2.01385,0 -2.37807,-1.73435 -2.37807,-3.09151c0,-1.35717 1.63254,-2.45735 3.6464,-2.45735c2.01385,0 4.12201,1.10019 4.12201,2.45735z"/><path d="M140.29546,178.11703c-2.84369,0 -5.15132,6.10649 -9.54091,4.29011c-3.6523,-1.51131 -9.72161,-10.70282 -9.72161,-13.1683c0,-5.42864 -1.16699,-8.8782 4.04275,-8.8782c5.20974,0 20.42951,17.75638 15.21976,17.75638z"/><path d="M127.56408,225.98063c-3.40874,4.50833 -15.21414,6.51533 -19.37278,6.51533c-2.59833,0 -1.87375,-3.09843 -4.18937,-5.31266c-2.44433,-2.3373 -7.85961,-3.87051 -7.85961,-6.8156c0,-5.7351 -0.26784,-15.61611 5.07324,-15.61611c2.25465,0 17.50134,1.49202 20.76585,5.70955c2.74794,3.55018 6.02563,14.93359 5.58266,15.51945z"/></g></g><g stroke="none" stroke-width="1" stroke-linecap="butt" stroke-linejoin="miter" font-weight="normal" font-size="40" text-anchor="start"><text transform="translate(239.70756,72.58457) scale(0.32207,0.32207)" font-size="40" xml:space="preserve" fill="#000000" fill-rule="nonzero" stroke="none" stroke-width="1" stroke-linecap="butt" stroke-linejoin="miter" stroke-miterlimit="10" stroke-dasharray="" stroke-dashoffset="0" font-family="Sans Serif" font-weight="normal" text-anchor="start" style="mix-blend-mode: normal"><tspan x="0" dy="0">Is this the right region?</tspan></text><text transform="translate(241.90747,89.98391) scale(0.16461,0.16461)" font-size="40" xml:space="preserve" fill="#7f888f" fill-rule="nonzero" stroke="none" stroke-width="1" stroke-linecap="butt" stroke-linejoin="miter" stroke-miterlimit="10" stroke-dasharray="" stroke-dashoffset="0" font-family="&quot;ヒラギノ角ゴ Pro W3&quot;, &quot;Hiragino Kaku Gothic Pro&quot;, Osaka, &quot;メイリオ&quot;, Meiryo, &quot;ＭＳ Ｐゴシック&quot;, &quot;MS PGothic&quot;" font-weight="normal" text-anchor="start" style="mix-blend-mode: normal"><tspan x="0" dy="0">Select the right region</tspan></text></g><path d="M237.8748,127.10255c0,0 14.29824,0 18.09851,0c38.52471,0 162.21633,0 162.21633,0v19.03708h-180.31486z" fill="#f3f3f3" stroke="#f3f3f3" stroke-width="10" stroke-linecap="round" stroke-linejoin="round"/><path d="M237.93963,166.64876c0,0 14.29824,0 18.09851,0c38.52472,0 162.21633,0 162.21633,0v19.03707h-180.31485z" fill="#f3f3f3" stroke="#f3f3f3" stroke-width="10" stroke-linecap="round" stroke-linejoin="round"/><path d="M236.79638,206.16794c0,0 14.29824,0 18.09851,0c38.52472,0 162.21633,0 162.21633,0v19.03707h-180.31485z" fill="#f3f3f3" stroke="#f3f3f3" stroke-width="10" stroke-linecap="round" stroke-linejoin="round"/></g></g></svg>