<svg version="1.1" xmlns="http://www.w3.org/2000/svg" xmlns:xlink="http://www.w3.org/1999/xlink" width="29.71795" height="29.09296" viewBox="0,0,29.71795,29.09296"><defs><linearGradient x1="243.68917" y1="409.68915" x2="236.26162" y2="402.26158" gradientUnits="userSpaceOnUse" id="color-1"><stop offset="0" stop-color="#ffffff"/><stop offset="0.242" stop-color="#f2f2f2"/><stop offset="1" stop-color="#cccccc"/></linearGradient><linearGradient x1="236.98407" y1="402.98403" x2="242.27466" y2="408.27464" gradientUnits="userSpaceOnUse" id="color-2"><stop offset="0" stop-color="#0d61a9"/><stop offset="0.363" stop-color="#0e5fa4"/><stop offset="0.78" stop-color="#135796"/><stop offset="1" stop-color="#16528c"/></linearGradient><linearGradient x1="231.40153" y1="397.44663" x2="246.48412" y2="412.52876" gradientUnits="userSpaceOnUse" id="color-3"><stop offset="0" stop-color="#889097"/><stop offset="0.331" stop-color="#848c94"/><stop offset="0.669" stop-color="#78828b"/><stop offset="1" stop-color="#64717c"/></linearGradient></defs><g transform="translate(-225.14115,-391.45352)"><g data-paper-data="{&quot;isPaintingLayer&quot;:true}" stroke="none" stroke-width="1" stroke-linejoin="miter" stroke-miterlimit="10" stroke-dasharray="" stroke-dashoffset="0" style="mix-blend-mode: normal"><path d="M226.47908,396.44556c0,-2.03361 1.68398,-3.68217 3.76127,-3.68217h19.5194c0.99754,0 1.95424,0.38795 2.65962,1.07849c0.70536,0.69054 1.10163,1.6271 1.10163,2.60367v19.10889c0,2.03361 -1.68397,3.68217 -3.76125,3.68217h-19.5194c-2.07729,0 -3.76127,-1.64856 -3.76127,-3.68217z" fill-opacity="0.00784" fill="#3d3d3d" fill-rule="evenodd" stroke-linecap="square"/><path d="M225.14115,395.50007c0,-2.23485 1.85062,-4.04655 4.13348,-4.04655h21.45101c1.09626,0 2.14763,0.42634 2.92281,1.18521c0.77516,0.75887 1.21065,1.78812 1.21065,2.86133v20.99987c0,2.23485 -1.85061,4.04655 -4.13346,4.04655h-21.45101c-2.28286,0 -4.13348,-1.8117 -4.13348,-4.04655z" fill-opacity="0.00784" fill="#3d3d3d" fill-rule="evenodd" stroke-linecap="square"/><g fill-rule="nonzero" stroke-linecap="butt"><path d="M234.70482,406c0,-2.92445 2.37075,-5.29521 5.29521,-5.29521c2.92445,0 5.29521,2.37075 5.29521,5.29521c0,2.92445 -2.37075,5.29521 -5.29521,5.29521c-2.92445,0 -5.29521,-2.37075 -5.29521,-5.29521z" fill="url(#color-1)"/><path d="M236.77685,406c0,-1.78011 1.44306,-3.22317 3.22317,-3.22317c1.78011,0 3.22317,1.44306 3.22317,3.22317c0,1.78011 -1.44306,3.22317 -3.22317,3.22317c-1.78011,0 -3.22317,-1.44306 -3.22317,-3.22317z" fill="url(#color-2)"/><path d="M249.20908,406.03684c0,0.59123 -0.06125,1.16725 -0.16761,1.72808c-1.13732,-0.02348 -2.25207,0.55623 -2.8608,1.61066c-0.6299,1.09127 -0.54654,2.3962 0.1013,3.38203c-0.95866,0.8965 -2.10565,1.59133 -3.37973,2.01448c-0.52031,-1.08068 -1.62264,-1.82846 -2.90224,-1.82846c-1.2796,0 -2.38193,0.74777 -2.90224,1.82799c-1.27407,-0.42315 -2.42106,-1.11798 -3.37973,-2.01448c0.64786,-0.98583 0.7312,-2.29075 0.1013,-3.38203c-0.60872,-1.05443 -1.72394,-1.63415 -2.8608,-1.61066c-0.10636,-0.56037 -0.16761,-1.1364 -0.16761,-1.72762c0,-0.75606 0.1013,-1.48726 0.2735,-2.19037c1.10002,-0.01335 2.16506,-0.58661 2.7549,-1.60837c0.56774,-0.98352 0.55622,-2.14064 0.07459,-3.08182c0.97846,-0.86888 2.13743,-1.53744 3.42118,-1.92838c0.57741,0.86888 1.5637,1.44167 2.6849,1.44167c1.12119,0 2.10749,-0.5728 2.68536,-1.44167c1.28374,0.39093 2.4427,1.0595 3.42116,1.92838c-0.48164,0.94117 -0.49315,2.0983 0.07459,3.08182c0.58984,1.02174 1.65486,1.595 2.75488,1.60837c0.17175,0.70311 0.27306,1.43431 0.27306,2.19037zM244.83477,406.03684c0,-2.67017 -2.1646,-4.83476 -4.83476,-4.83476c-2.67017,0 -4.83476,2.16459 -4.83476,4.83476c0,2.67017 2.1646,4.83476 4.83476,4.83476c2.67017,0 4.83476,-2.16459 4.83476,-4.83476z" fill="url(#color-3)"/></g></g></g></svg>