<svg version="1.1" xmlns="http://www.w3.org/2000/svg" xmlns:xlink="http://www.w3.org/1999/xlink" width="97.57348" height="15.60766" viewBox="0,0,97.57348,15.60766"><g transform="translate(-247.43247,-180.17132)"><g data-paper-data="{&quot;isPaintingLayer&quot;:true}" fill-rule="nonzero" stroke-linejoin="miter" stroke-miterlimit="10" stroke-dasharray="" stroke-dashoffset="0" style="mix-blend-mode: normal"><path d="M247.43248,195.77898v-15.60766h97.57348v15.60766z" fill="#ffffff" stroke="#000000" stroke-width="0" stroke-linecap="butt"/><path d="M256.58041,190.36141v-4.92154h1.75769c0.38178,0 0.69741,0.06615 0.94689,0.19845c0.25326,0.12852 0.44226,0.30996 0.567,0.54432c0.12852,0.23058 0.19278,0.49707 0.19278,0.79947c0,0.3024 -0.06426,0.567 -0.19278,0.7938c-0.12474,0.2268 -0.31374,0.40446 -0.567,0.53298c-0.25326,0.12474 -0.56889,0.18711 -0.94689,0.18711h-1.33245v-0.63504h1.26441c0.23814,0 0.43281,-0.03402 0.58401,-0.10206c0.1512,-0.07182 0.26271,-0.17199 0.33453,-0.30051c0.07182,-0.1323 0.10773,-0.29106 0.10773,-0.47628c0,-0.18522 -0.03591,-0.34587 -0.10773,-0.48195c-0.07182,-0.13608 -0.18333,-0.24003 -0.33453,-0.31185c-0.1512,-0.0756 -0.34965,-0.1134 -0.59535,-0.1134h-0.93555v4.2865zM259.01283,188.13878l1.21905,2.22263h-0.8505l-1.1907,-2.22263zM262.43718,190.43512c-0.36288,0 -0.67662,-0.07749 -0.94122,-0.23247c-0.26082,-0.15876 -0.46305,-0.37989 -0.60669,-0.66339c-0.13986,-0.2835 -0.20979,-0.61614 -0.20979,-0.99792c0,-0.378 0.06993,-0.71064 0.20979,-0.99792c0.14364,-0.29106 0.34209,-0.51786 0.59535,-0.6804c0.25704,-0.16254 0.55755,-0.24381 0.90153,-0.24381c0.2079,0 0.41013,0.03591 0.60669,0.10773c0.19656,0.06804 0.37233,0.17577 0.52731,0.32319c0.15498,0.14742 0.27594,0.33831 0.36288,0.57267c0.09072,0.23436 0.13608,0.51975 0.13608,0.85617v0.25515h-2.93138v-0.53865h2.2283c0,-0.189 -0.03969,-0.35721 -0.11907,-0.50463c-0.0756,-0.14742 -0.18333,-0.26271 -0.32319,-0.34587c-0.13608,-0.08694 -0.29673,-0.13041 -0.48195,-0.13041c-0.20412,0 -0.38178,0.04914 -0.53298,0.14742c-0.14742,0.09828 -0.26271,0.2268 -0.34587,0.38556c-0.07938,0.15876 -0.11907,0.32886 -0.11907,0.5103v0.42525c0,0.2457 0.04347,0.45549 0.13041,0.62937c0.09072,0.17388 0.21357,0.30618 0.36855,0.3969c0.15876,0.08694 0.34209,0.13041 0.54999,0.13041c0.13608,0 0.26082,-0.0189 0.37422,-0.0567c0.1134,-0.0378 0.20979,-0.09639 0.28917,-0.17577c0.08316,-0.07938 0.14553,-0.17577 0.18711,-0.28917l0.6804,0.11907c-0.05292,0.20034 -0.14931,0.37611 -0.28917,0.52731c-0.13986,0.14742 -0.31563,0.26271 -0.52731,0.34587c-0.21168,0.08316 -0.45171,0.12474 -0.72009,0.12474zM266.57805,186.67025v0.57267h-2.08655v-0.57267zM265.06416,190.36141v-4.12207c0,-0.23058 0.04914,-0.42147 0.14742,-0.57267c0.10206,-0.15498 0.23625,-0.27027 0.40257,-0.34587c0.1701,-0.0756 0.35154,-0.1134 0.54432,-0.1134c0.14742,0 0.27216,0.01134 0.37422,0.03402c0.10206,0.02268 0.17766,0.04347 0.2268,0.06237l-0.1701,0.58401c-0.03402,-0.01134 -0.07749,-0.02268 -0.13041,-0.03402c-0.05292,-0.01512 -0.11718,-0.02268 -0.19278,-0.02268c-0.17388,0 -0.29862,0.04347 -0.37422,0.13041c-0.07182,0.08694 -0.10773,0.21168 -0.10773,0.37422v4.02569zM267.31825,190.36141v-3.69116h0.69741v0.58401h0.03969c0.06426,-0.19656 0.18144,-0.35154 0.35154,-0.46494c0.17388,-0.11718 0.36855,-0.17577 0.58401,-0.17577c0.04536,0 0.09828,0.00189 0.15876,0.00567c0.06048,0.00378 0.10962,0.00756 0.14742,0.01134v0.68607c-0.03024,-0.00756 -0.08316,-0.01512 -0.15876,-0.02268c-0.07182,-0.01134 -0.14364,-0.01701 -0.21546,-0.01701c-0.1701,0 -0.3213,0.03591 -0.4536,0.10773c-0.1323,0.06804 -0.23814,0.16632 -0.31752,0.29484c-0.0756,0.12474 -0.1134,0.26649 -0.1134,0.42525v2.25665zM271.37808,190.43512c-0.36288,0 -0.67662,-0.07749 -0.94122,-0.23247c-0.26082,-0.15876 -0.46305,-0.37989 -0.60669,-0.66339c-0.13986,-0.2835 -0.20979,-0.61614 -0.20979,-0.99792c0,-0.378 0.06993,-0.71064 0.20979,-0.99792c0.14364,-0.29106 0.34209,-0.51786 0.59535,-0.6804c0.25704,-0.16254 0.55755,-0.24381 0.90153,-0.24381c0.2079,0 0.41013,0.03591 0.60669,0.10773c0.19656,0.06804 0.37233,0.17577 0.52731,0.32319c0.15498,0.14742 0.27594,0.33831 0.36288,0.57267c0.09072,0.23436 0.13608,0.51975 0.13608,0.85617v0.25515h-2.93138v-0.53865h2.2283c0,-0.189 -0.03969,-0.35721 -0.11907,-0.50463c-0.0756,-0.14742 -0.18333,-0.26271 -0.32319,-0.34587c-0.13608,-0.08694 -0.29673,-0.13041 -0.48195,-0.13041c-0.20412,0 -0.38178,0.04914 -0.53298,0.14742c-0.14742,0.09828 -0.26271,0.2268 -0.34587,0.38556c-0.07938,0.15876 -0.11907,0.32886 -0.11907,0.5103v0.42525c0,0.2457 0.04347,0.45549 0.13041,0.62937c0.09072,0.17388 0.21357,0.30618 0.36855,0.3969c0.15876,0.08694 0.34209,0.13041 0.54999,0.13041c0.13608,0 0.26082,-0.0189 0.37422,-0.0567c0.1134,-0.0378 0.20979,-0.09639 0.28917,-0.17577c0.08316,-0.07938 0.14553,-0.17577 0.18711,-0.28917l0.6804,0.11907c-0.05292,0.20034 -0.14931,0.37611 -0.28917,0.52731c-0.13986,0.14742 -0.31563,0.26271 -0.52731,0.34587c-0.21168,0.08316 -0.45171,0.12474 -0.72009,0.12474zM276.52821,187.57178l-0.65205,0.1134c-0.02646,-0.08316 -0.06993,-0.16254 -0.13041,-0.23814c-0.0567,-0.0756 -0.13419,-0.13608 -0.23247,-0.18144c-0.09828,-0.04914 -0.22302,-0.07371 -0.37422,-0.07371c-0.20412,0 -0.37422,0.04536 -0.5103,0.13608c-0.13608,0.09072 -0.20412,0.20601 -0.20412,0.34587c0,0.12474 0.04536,0.22491 0.13608,0.30051c0.0945,0.0756 0.24192,0.13797 0.44226,0.18711l0.58968,0.13041c0.3402,0.07938 0.59346,0.20223 0.75978,0.36855c0.16632,0.16254 0.24948,0.37422 0.24948,0.63504c0,0.21924 -0.06426,0.4158 -0.19278,0.58968c-0.12474,0.1701 -0.30051,0.30429 -0.52731,0.40257c-0.2268,0.09828 -0.48951,0.14742 -0.78813,0.14742c-0.4158,0 -0.75411,-0.08883 -1.01493,-0.26649c-0.26082,-0.17766 -0.42147,-0.42903 -0.48195,-0.75411l0.69741,-0.10773c0.04158,0.18144 0.13041,0.31941 0.26649,0.41391c0.13608,0.09072 0.31185,0.13608 0.52731,0.13608c0.23436,0 0.42147,-0.04914 0.56133,-0.14742c0.14364,-0.09828 0.21546,-0.21924 0.21546,-0.36288c0,-0.1134 -0.04347,-0.20979 -0.13041,-0.28917c-0.08694,-0.07938 -0.21735,-0.13986 -0.39123,-0.18144l-0.6237,-0.13608c-0.34776,-0.07938 -0.6048,-0.20412 -0.77112,-0.37422c-0.16254,-0.1701 -0.24381,-0.38745 -0.24381,-0.65205c0,-0.21924 0.06048,-0.41013 0.18144,-0.57267c0.12474,-0.16254 0.29484,-0.28917 0.5103,-0.37989c0.21546,-0.0945 0.46116,-0.14175 0.7371,-0.14175c0.3969,0 0.71064,0.08694 0.94122,0.26082c0.23058,0.1701 0.38178,0.40068 0.4536,0.69174zM278.10919,188.16712v2.19428h-0.72009v-4.92154h0.70875v1.8314h0.04536c0.08694,-0.20034 0.21924,-0.3591 0.3969,-0.47628c0.17766,-0.11718 0.41013,-0.17577 0.69741,-0.17577c0.25326,0 0.47439,0.05292 0.66339,0.15876c0.19278,0.10206 0.3402,0.25704 0.44226,0.46494c0.10584,0.20412 0.15876,0.46116 0.15876,0.77112v2.34737h-0.71442v-2.26232c0,-0.27216 -0.06993,-0.48195 -0.20979,-0.62937c-0.13986,-0.1512 -0.33453,-0.2268 -0.58401,-0.2268c-0.1701,0 -0.32319,0.03591 -0.45927,0.10773c-0.1323,0.07182 -0.23625,0.17766 -0.31185,0.31752c-0.0756,0.13986 -0.1134,0.30618 -0.1134,0.49896z" fill="#000000" stroke="none" stroke-width="1" stroke-linecap="square"/></g></g></svg>