<svg version="1.1" xmlns="http://www.w3.org/2000/svg" xmlns:xlink="http://www.w3.org/1999/xlink" width="41.43221" height="39.20699" viewBox="0,0,41.43221,39.20699"><g transform="translate(-219.2839,-160.39651)"><g data-paper-data="{&quot;isPaintingLayer&quot;:true}" fill-rule="nonzero" stroke-miterlimit="10" stroke-dasharray="" stroke-dashoffset="0" style="mix-blend-mode: normal"><path d="M226.78393,167.89652c0,0 2.09597,0 2.65304,0c5.6473,0 23.77915,0 23.77915,0v24.20699h-26.43221z" fill="#3859cd" stroke="#3859cd" stroke-width="15" stroke-linecap="round" stroke-linejoin="round"/><text transform="translate(227.64584,191.55066) scale(0.15312,0.15312)" font-size="40" xml:space="preserve" fill="#ffffff" fill-rule="nonzero" stroke="none" stroke-width="1" stroke-linecap="butt" stroke-linejoin="miter" stroke-miterlimit="10" stroke-dasharray="" stroke-dashoffset="0" font-family="Sans Serif" font-weight="normal" text-anchor="start" style="mix-blend-mode: normal"><tspan x="0" dy="0">Ambient</tspan></text><path d="M243.47759,168.15002c0.3453,0 0.62523,0.17209 0.62523,0.38437v0.58856c0.00321,1.22559 -1.37686,2.2886 -3.32154,2.55845c-0.40446,0.06635 -0.69521,0.28374 -0.72292,0.54051v4.88868c0.02419,0.77813 -0.94529,1.43216 -2.20785,1.48943h-0.35169c-1.27872,-0.07629 -2.2147,-0.77539 -2.09061,-1.5615c0.12409,-0.7861 1.26128,-1.36151 2.54,-1.28523h0.09769c0.42084,0 0.762,-0.20973 0.762,-0.46845v-5.4292c0.03339,-0.62091 0.73695,-1.15172 1.71938,-1.29724l2.85261,-0.39638z" fill="#ffffff" stroke="none" stroke-width="1" stroke-linecap="butt" stroke-linejoin="miter"/></g></g></svg>