<svg version="1.1" xmlns="http://www.w3.org/2000/svg" xmlns:xlink="http://www.w3.org/1999/xlink" width="26.484" height="28.946" viewBox="0,0,26.484,28.946"><g transform="translate(-239.961,-152.056)"><g data-paper-data="{&quot;isPaintingLayer&quot;:true}" fill="#ffffff" fill-rule="nonzero" stroke="none" stroke-width="1" stroke-linecap="butt" stroke-linejoin="miter" stroke-miterlimit="10" stroke-dasharray="" stroke-dashoffset="0" style="mix-blend-mode: normal"><path d="M253.086,181.002c-3.971,0 -7.152,-1.309 -9.541,-3.926c-2.389,-2.617 -3.584,-6.022 -3.584,-10.215c0,-4.505 1.217,-8.099 3.652,-10.781c2.435,-2.683 5.749,-4.024 9.942,-4.024c3.867,0 6.982,1.302 9.345,3.907c2.364,2.604 3.545,6.009 3.545,10.214c0,4.571 -1.211,8.184 -3.632,10.84c-2.422,2.656 -5.665,3.985 -9.727,3.985zM253.32,155.025c-2.942,0 -5.332,1.061 -7.168,3.184c-1.836,2.122 -2.754,4.909 -2.754,8.359c0,3.451 0.896,6.227 2.686,8.33c1.79,2.103 4.124,3.154 7.002,3.154c3.073,0 5.495,-1.002 7.266,-3.007c1.77,-2.006 2.656,-4.812 2.656,-8.418c0,-3.698 -0.86,-6.556 -2.578,-8.575c-1.719,-2.018 -4.089,-3.027 -7.11,-3.027z"/></g></g></svg>