<svg version="1.1" viewBox="0.0 0.0 960.0 720.0" fill="none" stroke="none" stroke-linecap="square" stroke-miterlimit="10" xmlns:xlink="http://www.w3.org/1999/xlink" xmlns="http://www.w3.org/2000/svg"><clipPath id="p.0"><path d="m0 0l960.0 0l0 720.0l-960.0 0l0 -720.0z" clip-rule="nonzero"/></clipPath><g clip-path="url(#p.0)"><path fill="#000000" fill-opacity="0.0" d="m0 0l960.0 0l0 720.0l-960.0 0z" fill-rule="evenodd"/><path fill="#000000" fill-opacity="0.0" d="m30.39895 398.76904l638.01575 0l0 74.33069l-638.01575 0z" fill-rule="evenodd"/><path fill="#000000" d="m65.97707 449.11716q0.265625 0.796875 0.328125 1.265625q0.078125 0.46875 -0.171875 0.703125q-0.234375 0.21875 -0.859375 0.265625q-0.625 0.0625 -1.703125 0.0625q-1.125 0 -1.765625 -0.03125q-0.625 -0.03125 -0.96875 -0.125q-0.328125 -0.09375 -0.46875 -0.265625q-0.125 -0.1875 -0.203125 -0.484375l-1.9375 -5.75l-10.75 0l-1.8125 5.609375q-0.09375 0.296875 -0.234375 0.515625q-0.140625 0.203125 -0.46875 0.328125q-0.3125 0.125 -0.90625 0.15625q-0.578125 0.046875 -1.53125 0.046875q-1.015625 0 -1.59375 -0.0625q-0.578125 -0.0625 -0.796875 -0.3125q-0.21875 -0.265625 -0.15625 -0.71875q0.0625 -0.46875 0.328125 -1.25l8.828125 -25.40625q0.140625 -0.375 0.3125 -0.609375q0.171875 -0.234375 0.5625 -0.34375q0.390625 -0.125 1.078125 -0.15625q0.6875 -0.03125 1.8125 -0.03125q1.3125 0 2.078125 0.03125q0.78125 0.03125 1.203125 0.15625q0.4375 0.109375 0.625 0.359375q0.1875 0.25 0.328125 0.65625l8.84375 25.390625zm-13.140625 -21.0l-0.03125 0l-4.046875 12.171875l8.125 0l-4.046875 -12.171875zm36.70128 12.265625q0 2.625 -0.578125 4.75q-0.5625 2.109375 -1.65625 3.59375q-1.078125 1.484375 -2.6875 2.28125q-1.609375 0.796875 -3.703125 0.796875q-0.859375 0 -1.578125 -0.171875q-0.71875 -0.171875 -1.390625 -0.515625q-0.671875 -0.34375 -1.34375 -0.84375q-0.65625 -0.515625 -1.375 -1.203125l0 9.296875q0 0.21875 -0.140625 0.390625q-0.125 0.1875 -0.453125 0.3125q-0.3125 0.125 -0.84375 0.1875q-0.53125 0.0625 -1.34375 0.0625q-0.8125 0 -1.34375 -0.0625q-0.53125 -0.0625 -0.859375 -0.1875q-0.328125 -0.125 -0.46875 -0.3125q-0.125 -0.171875 -0.125 -0.390625l0 -27.578125q0 -0.21875 0.109375 -0.375q0.125 -0.171875 0.390625 -0.28125q0.28125 -0.109375 0.734375 -0.15625q0.453125 -0.0625 1.140625 -0.0625q0.671875 0 1.125 0.0625q0.453125 0.046875 0.71875 0.15625q0.28125 0.109375 0.390625 0.28125q0.109375 0.15625 0.109375 0.375l0 2.328125q0.859375 -0.890625 1.6875 -1.5625q0.84375 -0.671875 1.703125 -1.125q0.859375 -0.453125 1.78125 -0.671875q0.921875 -0.21875 1.953125 -0.21875q2.171875 0 3.703125 0.859375q1.53125 0.84375 2.484375 2.328125q0.96875 1.46875 1.40625 3.453125q0.453125 1.96875 0.453125 4.203125zm-5.8125 0.390625q0 -1.265625 -0.1875 -2.421875q-0.1875 -1.15625 -0.640625 -2.0625q-0.453125 -0.90625 -1.203125 -1.453125q-0.734375 -0.546875 -1.84375 -0.546875q-0.546875 0 -1.09375 0.171875q-0.53125 0.15625 -1.109375 0.546875q-0.5625 0.375 -1.15625 0.96875q-0.59375 0.59375 -1.265625 1.484375l0 6.5q1.1875 1.484375 2.234375 2.296875q1.0625 0.796875 2.21875 0.796875q1.09375 0 1.84375 -0.546875q0.765625 -0.546875 1.25 -1.4375q0.5 -0.90625 0.71875 -2.03125q0.234375 -1.140625 0.234375 -2.265625zm30.136536 -0.390625q0 2.625 -0.578125 4.75q-0.5625 2.109375 -1.65625 3.59375q-1.078125 1.484375 -2.6875 2.28125q-1.609375 0.796875 -3.703125 0.796875q-0.859375 0 -1.578125 -0.171875q-0.71875 -0.171875 -1.390625 -0.515625q-0.671875 -0.34375 -1.34375 -0.84375q-0.65625 -0.515625 -1.375 -1.203125l0 9.296875q0 0.21875 -0.140625 0.390625q-0.125 0.1875 -0.453125 0.3125q-0.3125 0.125 -0.84375 0.1875q-0.53125 0.0625 -1.34375 0.0625q-0.8125 0 -1.34375 -0.0625q-0.53125 -0.0625 -0.859375 -0.1875q-0.328125 -0.125 -0.46875 -0.3125q-0.125 -0.171875 -0.125 -0.390625l0 -27.578125q0 -0.21875 0.109375 -0.375q0.125 -0.171875 0.390625 -0.28125q0.28125 -0.109375 0.734375 -0.15625q0.453125 -0.0625 1.140625 -0.0625q0.671875 0 1.125 0.0625q0.453125 0.046875 0.71875 0.15625q0.28125 0.109375 0.390625 0.28125q0.109375 0.15625 0.109375 0.375l0 2.328125q0.859375 -0.890625 1.6875 -1.5625q0.84375 -0.671875 1.703125 -1.125q0.859375 -0.453125 1.78125 -0.671875q0.921875 -0.21875 1.953125 -0.21875q2.171875 0 3.703125 0.859375q1.53125 0.84375 2.484375 2.328125q0.96875 1.46875 1.40625 3.453125q0.453125 1.96875 0.453125 4.203125zm-5.8125 0.390625q0 -1.265625 -0.1875 -2.421875q-0.1875 -1.15625 -0.640625 -2.0625q-0.453125 -0.90625 -1.203125 -1.453125q-0.734375 -0.546875 -1.84375 -0.546875q-0.546875 0 -1.09375 0.171875q-0.53125 0.15625 -1.109375 0.546875q-0.5625 0.375 -1.15625 0.96875q-0.59375 0.59375 -1.265625 1.484375l0 6.5q1.1875 1.484375 2.234375 2.296875q1.0625 0.796875 2.21875 0.796875q1.09375 0 1.84375 -0.546875q0.765625 -0.546875 1.25 -1.4375q0.5 -0.90625 0.71875 -2.03125q0.234375 -1.140625 0.234375 -2.265625zm40.63407 6.171875q0 0.5625 -0.03125 0.953125q-0.03125 0.375 -0.09375 0.65625q-0.0625 0.28125 -0.171875 0.484375q-0.109375 0.1875 -0.359375 0.453125q-0.25 0.25 -0.953125 0.65625q-0.6875 0.390625 -1.703125 0.765625q-1.0 0.359375 -2.296875 0.59375q-1.28125 0.25 -2.796875 0.25q-2.9375 0 -5.3125 -0.90625q-2.359375 -0.90625 -4.03125 -2.703125q-1.65625 -1.8125 -2.546875 -4.515625q-0.8750076 -2.703125 -0.8750076 -6.28125q0 -3.65625 0.9687576 -6.484375q0.984375 -2.84375 2.71875 -4.765625q1.75 -1.921875 4.1875 -2.921875q2.453125 -1.0 5.40625 -1.0q1.1875 0 2.296875 0.203125q1.109375 0.203125 2.046875 0.53125q0.9375 0.3125 1.6875 0.734375q0.765625 0.421875 1.0625 0.71875q0.296875 0.296875 0.40625 0.5q0.109375 0.1875 0.171875 0.5q0.078125 0.3125 0.109375 0.734375q0.03125 0.421875 0.03125 1.046875q0 0.65625 -0.046875 1.125q-0.046875 0.46875 -0.15625 0.75q-0.109375 0.28125 -0.265625 0.421875q-0.15625 0.125 -0.359375 0.125q-0.328125 0 -0.84375 -0.375q-0.5 -0.390625 -1.3125 -0.859375q-0.796875 -0.484375 -1.921875 -0.875q-1.109375 -0.390625 -2.671875 -0.390625q-1.703125 0 -3.046875 0.703125q-1.328125 0.703125 -2.265625 2.0q-0.9375 1.28125 -1.4375 3.125q-0.484375 1.828125 -0.484375 4.140625q0 2.515625 0.515625 4.375q0.53125 1.84375 1.484375 3.046875q0.96875 1.1875 2.328125 1.78125q1.359375 0.578125 3.0625 0.578125q1.546875 0 2.671875 -0.359375q1.140625 -0.375 1.9375 -0.8125q0.8125 -0.453125 1.328125 -0.796875q0.53125 -0.359375 0.8125 -0.359375q0.234375 0 0.359375 0.09375q0.140625 0.078125 0.21875 0.34375q0.09375 0.265625 0.125 0.75q0.046875 0.46875 0.046875 1.265625zm22.10141 -6.859375q0 1.015625 -0.453125 1.515625q-0.453125 0.484375 -1.25 0.484375l-12.03125 0q0 1.25 0.296875 2.28125q0.3125 1.03125 0.953125 1.75q0.65625 0.71875 1.6875 1.09375q1.03125 0.375 2.46875 0.375q1.46875 0 2.5625 -0.203125q1.109375 -0.203125 1.921875 -0.453125q0.8125 -0.265625 1.34375 -0.46875q0.53125 -0.21875 0.859375 -0.21875q0.203125 0 0.328125 0.078125q0.140625 0.078125 0.21875 0.28125q0.09375 0.1875 0.125 0.5625q0.03125 0.359375 0.03125 0.921875q0 0.484375 -0.03125 0.828125q-0.015625 0.34375 -0.0625 0.59375q-0.03125 0.234375 -0.125 0.40625q-0.09375 0.15625 -0.234375 0.3125q-0.140625 0.15625 -0.78125 0.421875q-0.640625 0.265625 -1.640625 0.515625q-1.0 0.25 -2.28125 0.4375q-1.28125 0.203125 -2.75 0.203125q-2.625 0 -4.609375 -0.65625q-1.984375 -0.671875 -3.3125 -2.015625q-1.328125 -1.359375 -1.984375 -3.421875q-0.640625 -2.0625 -0.640625 -4.828125q0 -2.625 0.6875 -4.734375q0.6875 -2.125 1.984375 -3.59375q1.3125 -1.46875 3.171875 -2.234375q1.875 -0.78125 4.21875 -0.78125q2.484375 0 4.234375 0.734375q1.765625 0.71875 2.890625 2.015625q1.140625 1.296875 1.671875 3.0625q0.53125 1.765625 0.53125 3.859375l0 0.875zm-5.40625 -1.59375q0.0625 -2.34375 -0.953125 -3.671875q-1.0 -1.34375 -3.09375 -1.34375q-1.0625 0 -1.859375 0.40625q-0.78125 0.390625 -1.296875 1.0625q-0.515625 0.671875 -0.796875 1.59375q-0.28125 0.921875 -0.328125 1.953125l8.328125 0zm28.834625 12.046875q0 0.21875 -0.140625 0.390625q-0.125 0.15625 -0.4375 0.265625q-0.296875 0.109375 -0.84375 0.15625q-0.546875 0.0625 -1.34375 0.0625q-0.8125 0 -1.359375 -0.0625q-0.546875 -0.046875 -0.859375 -0.15625q-0.296875 -0.109375 -0.4375 -0.265625q-0.125 -0.171875 -0.125 -0.390625l0 -11.265625q0 -1.4375 -0.21875 -2.25q-0.203125 -0.828125 -0.609375 -1.40625q-0.390625 -0.59375 -1.03125 -0.90625q-0.625 -0.328125 -1.46875 -0.328125q-1.0625 0 -2.140625 0.78125q-1.078125 0.765625 -2.265625 2.25l0 13.125q0 0.21875 -0.140625 0.390625q-0.125 0.15625 -0.453125 0.265625q-0.3125 0.109375 -0.84375 0.15625q-0.53125 0.0625 -1.34375 0.0625q-0.8125 0 -1.34375 -0.0625q-0.53125 -0.046875 -0.859375 -0.15625q-0.328125 -0.109375 -0.46875 -0.265625q-0.125 -0.171875 -0.125 -0.390625l0 -19.75q0 -0.21875 0.109375 -0.375q0.125 -0.171875 0.40625 -0.28125q0.28125 -0.109375 0.734375 -0.15625q0.46875 -0.0625 1.140625 -0.0625q0.71875 0 1.171875 0.0625q0.46875 0.046875 0.71875 0.15625q0.265625 0.109375 0.375 0.28125q0.109375 0.15625 0.109375 0.375l0 2.28125q1.640625 -1.765625 3.328125 -2.640625q1.703125 -0.890625 3.53125 -0.890625q2.015625 0 3.390625 0.671875q1.390625 0.65625 2.234375 1.796875q0.859375 1.125 1.234375 2.65625q0.375 1.53125 0.375 3.671875l0 12.203125zm16.731583 -1.953125q0 0.984375 -0.125 1.5q-0.109375 0.515625 -0.3125 0.734375q-0.203125 0.203125 -0.59375 0.375q-0.375 0.15625 -0.90625 0.28125q-0.515625 0.125 -1.125 0.1875q-0.609375 0.0625 -1.21875 0.0625q-1.671875 0 -2.890625 -0.421875q-1.203125 -0.40625 -2.0 -1.28125q-0.796875 -0.875 -1.1875 -2.203125q-0.375 -1.328125 -0.375 -3.15625l0 -10.109375l-2.359375 0q-0.421875 0 -0.640625 -0.515625q-0.21875 -0.515625 -0.21875 -1.734375q0 -0.640625 0.046875 -1.078125q0.0625 -0.453125 0.171875 -0.703125q0.109375 -0.265625 0.265625 -0.375q0.171875 -0.109375 0.390625 -0.109375l2.34375 0l0 -4.40625q0 -0.21875 0.125 -0.390625q0.125 -0.1875 0.4375 -0.296875q0.328125 -0.125 0.859375 -0.171875q0.546875 -0.0625 1.34375 -0.0625q0.828125 0 1.359375 0.0625q0.546875 0.046875 0.859375 0.171875q0.3125 0.109375 0.4375 0.296875q0.140625 0.171875 0.140625 0.390625l0 4.40625l4.296875 0q0.21875 0 0.375 0.109375q0.171875 0.109375 0.28125 0.375q0.109375 0.25 0.15625 0.703125q0.0625 0.4375 0.0625 1.078125q0 1.21875 -0.21875 1.734375q-0.21875 0.515625 -0.640625 0.515625l-4.3125 0l0 9.28125q0 1.609375 0.5 2.421875q0.515625 0.796875 1.828125 0.796875q0.4375 0 0.78125 -0.0625q0.359375 -0.078125 0.640625 -0.171875q0.28125 -0.109375 0.46875 -0.1875q0.1875 -0.078125 0.34375 -0.078125q0.125 0 0.25 0.078125q0.125 0.078125 0.1875 0.3125q0.0625 0.234375 0.109375 0.640625q0.0625 0.390625 0.0625 1.0zm21.72345 -8.5q0 1.015625 -0.453125 1.515625q-0.453125 0.484375 -1.25 0.484375l-12.03125 0q0 1.25 0.296875 2.28125q0.3125 1.03125 0.953125 1.75q0.65625 0.71875 1.6875 1.09375q1.03125 0.375 2.46875 0.375q1.46875 0 2.5625 -0.203125q1.109375 -0.203125 1.921875 -0.453125q0.8125 -0.265625 1.34375 -0.46875q0.53125 -0.21875 0.859375 -0.21875q0.203125 0 0.328125 0.078125q0.140625 0.078125 0.21875 0.28125q0.09375 0.1875 0.125 0.5625q0.03125 0.359375 0.03125 0.921875q0 0.484375 -0.03125 0.828125q-0.015625 0.34375 -0.0625 0.59375q-0.03125 0.234375 -0.125 0.40625q-0.09375 0.15625 -0.234375 0.3125q-0.140625 0.15625 -0.78125 0.421875q-0.640625 0.265625 -1.640625 0.515625q-1.0 0.25 -2.28125 0.4375q-1.28125 0.203125 -2.75 0.203125q-2.625 0 -4.609375 -0.65625q-1.984375 -0.671875 -3.3125 -2.015625q-1.328125 -1.359375 -1.984375 -3.421875q-0.640625 -2.0625 -0.640625 -4.828125q0 -2.625 0.6875 -4.734375q0.6875 -2.125 1.984375 -3.59375q1.3125 -1.46875 3.171875 -2.234375q1.875 -0.78125 4.21875 -0.78125q2.484375 0 4.234375 0.734375q1.765625 0.71875 2.890625 2.015625q1.140625 1.296875 1.671875 3.0625q0.53125 1.765625 0.53125 3.859375l0 0.875zm-5.40625 -1.59375q0.0625 -2.34375 -0.953125 -3.671875q-1.0 -1.34375 -3.09375 -1.34375q-1.0625 0 -1.859375 0.40625q-0.78125 0.390625 -1.296875 1.0625q-0.515625 0.671875 -0.796875 1.59375q-0.28125 0.921875 -0.328125 1.953125l8.328125 0zm22.66275 -5.859375q0 0.796875 -0.046875 1.3125q-0.046875 0.5 -0.140625 0.796875q-0.078125 0.28125 -0.21875 0.390625q-0.140625 0.109375 -0.359375 0.109375q-0.1875 0 -0.40625 -0.078125q-0.21875 -0.078125 -0.5 -0.15625q-0.28125 -0.09375 -0.609375 -0.171875q-0.328125 -0.078125 -0.734375 -0.078125q-0.453125 0 -0.921875 0.1875q-0.46875 0.1875 -0.96875 0.59375q-0.484375 0.390625 -1.03125 1.0625q-0.546875 0.65625 -1.171875 1.625l0 12.3125q0 0.21875 -0.140625 0.390625q-0.125 0.15625 -0.453125 0.265625q-0.3125 0.109375 -0.84375 0.15625q-0.53125 0.0625 -1.34375 0.0625q-0.8125 0 -1.34375 -0.0625q-0.53125 -0.046875 -0.859375 -0.15625q-0.328125 -0.109375 -0.46875 -0.265625q-0.125 -0.171875 -0.125 -0.390625l0 -19.75q0 -0.21875 0.109375 -0.375q0.125 -0.171875 0.40625 -0.28125q0.28125 -0.109375 0.734375 -0.15625q0.46875 -0.0625 1.140625 -0.0625q0.71875 0 1.171875 0.0625q0.46875 0.046875 0.71875 0.15625q0.265625 0.109375 0.375 0.28125q0.109375 0.15625 0.109375 0.375l0 2.46875q0.78125 -1.109375 1.453125 -1.828125q0.6875 -0.71875 1.3125 -1.140625q0.625 -0.421875 1.234375 -0.578125q0.625 -0.171875 1.25 -0.171875q0.28125 0 0.609375 0.03125q0.34375 0.03125 0.6875 0.109375q0.359375 0.078125 0.625 0.171875q0.265625 0.09375 0.390625 0.21875q0.125 0.109375 0.171875 0.25q0.0625 0.125 0.09375 0.359375q0.046875 0.21875 0.0625 0.6875q0.03125 0.46875 0.03125 1.265625z" fill-rule="nonzero"/><path fill="#000000" fill-opacity="0.0" d="m30.39895 478.17322l638.01575 0l0 74.33075l-638.01575 0z" fill-rule="evenodd"/><path fill="#000000" d="m49.02395 530.69324l-8.5625 0l11.125 -32.96875l10.609375 0l11.125 32.96875l-8.5625 0l-7.75 -24.65625l-0.25 0l-7.734375 24.65625zm-1.140625 -12.96875l17.890625 0l0 6.046875l-17.890625 0l0 -6.046875zm28.993515 22.234375l0 -33.984375l7.78125 0l0 4.234375l0.25 0q0.484375 -1.140625 1.375 -2.171875q0.890625 -1.046875 2.28125 -1.71875q1.390625 -0.671875 3.34375 -0.671875q2.578125 0 4.8125 1.359375q2.25 1.34375 3.625 4.171875q1.390625 2.8125 1.390625 7.171875q0 4.203125 -1.328125 7.03125q-1.328125 2.828125 -3.578125 4.25q-2.234375 1.421875 -4.96875 1.421875q-1.875 0 -3.25 -0.609375q-1.359375 -0.625 -2.28125 -1.609375q-0.921875 -1.0 -1.421875 -2.15625l-0.171875 0l0 13.28125l-7.859375 0zm7.703125 -21.625q0 2.0 0.53125 3.484375q0.546875 1.46875 1.5625 2.28125q1.03125 0.8125 2.46875 0.8125q1.4375 0 2.453125 -0.8125q1.015625 -0.8125 1.53125 -2.28125q0.53125 -1.484375 0.53125 -3.484375q0 -2.0 -0.53125 -3.453125q-0.515625 -1.46875 -1.53125 -2.265625q-1.0 -0.8125 -2.453125 -0.8125q-1.453125 0 -2.46875 0.796875q-1.015625 0.78125 -1.5625 2.25q-0.53125 1.453125 -0.53125 3.484375zm21.302933 21.625l0 -33.984375l7.78125 0l0 4.234375l0.25 0q0.484375 -1.140625 1.375 -2.171875q0.890625 -1.046875 2.28125 -1.71875q1.390625 -0.671875 3.34375 -0.671875q2.578125 0 4.8125 1.359375q2.25 1.34375 3.6250076 4.171875q1.390625 2.8125 1.390625 7.171875q0 4.203125 -1.328125 7.03125q-1.328125 2.828125 -3.5781326 4.25q-2.234375 1.421875 -4.96875 1.421875q-1.875 0 -3.25 -0.609375q-1.359375 -0.625 -2.28125 -1.609375q-0.921875 -1.0 -1.421875 -2.15625l-0.171875 0l0 13.28125l-7.859375 0zm7.703125 -21.625q0 2.0 0.53125 3.484375q0.546875 1.46875 1.5625 2.28125q1.03125 0.8125 2.46875 0.8125q1.4375 0 2.453125 -0.8125q1.015625 -0.8125 1.53125 -2.28125q0.53125 -1.484375 0.53125 -3.484375q0 -2.0 -0.53125 -3.453125q-0.515625 -1.46875 -1.53125 -2.265625q-1.0 -0.8125 -2.453125 -0.8125q-1.453125 0 -2.46875 0.796875q-1.015625 0.78125 -1.5625 2.25q-0.53125 1.453125 -0.53125 3.484375zm60.979347 -8.65625l-8.046875 0q-0.171875 -1.25 -0.671875 -2.234375q-0.484375 -1.0 -1.3125 -1.703125q-0.828125 -0.71875 -1.953125 -1.09375q-1.109375 -0.390625 -2.453125 -0.390625q-2.40625 0 -4.140625 1.1875q-1.71875 1.171875 -2.65625 3.390625q-0.921875 2.21875 -0.921875 5.375q0 3.28125 0.9375 5.5q0.953125 2.21875 2.65625 3.34375q1.71875 1.109375 4.078125 1.109375q1.3125 0 2.390625 -0.34375q1.09375 -0.34375 1.921875 -0.984375q0.828125 -0.65625 1.359375 -1.59375q0.546875 -0.9375 0.765625 -2.140625l8.046875 0.046875q-0.21875 2.1875 -1.28125 4.3125q-1.046875 2.125 -2.875 3.875q-1.828125 1.75 -4.46875 2.78125q-2.625 1.03125 -6.03125 1.03125q-4.46875 0 -8.0 -1.96875q-3.53125 -1.984375 -5.578125 -5.765625q-2.046875 -3.78125 -2.046875 -9.203125q0 -5.4375 2.078125 -9.21875q2.078125 -3.78125 5.609375 -5.75q3.546875 -1.96875 7.9375 -1.96875q3.0 0 5.53125 0.828125q2.546875 0.828125 4.484375 2.421875q1.9375 1.578125 3.140625 3.890625q1.203125 2.296875 1.5 5.265625zm16.0878 21.484375q-3.875 0 -6.6875 -1.53125q-2.796875 -1.546875 -4.3125 -4.40625q-1.5 -2.859375 -1.5 -6.796875q0 -3.828125 1.515625 -6.703125q1.515625 -2.875 4.265625 -4.46875q2.75 -1.609375 6.484375 -1.609375q2.640625 0 4.828125 0.828125q2.1875 0.8125 3.78125 2.421875q1.59375 1.609375 2.46875 3.96875q0.890625 2.359375 0.890625 5.40625l0 1.953125l-21.484375 0l0 -4.5625l14.171875 0q-0.015625 -1.265625 -0.609375 -2.234375q-0.578125 -0.984375 -1.578125 -1.53125q-1.0 -0.5625 -2.3125 -0.5625q-1.3125 0 -2.359375 0.59375q-1.046875 0.578125 -1.65625 1.59375q-0.609375 1.0 -0.65625 2.265625l0 4.65625q0 1.515625 0.59375 2.65625q0.609375 1.125 1.703125 1.75q1.09375 0.625 2.609375 0.625q1.046875 0 1.890625 -0.28125q0.859375 -0.296875 1.46875 -0.859375q0.609375 -0.5625 0.921875 -1.390625l7.21875 0.21875q-0.453125 2.421875 -1.96875 4.21875q-1.515625 1.796875 -3.984375 2.796875q-2.46875 0.984375 -5.703125 0.984375zm23.644516 -14.5625l0 14.09375l-7.859375 0l0 -24.71875l7.484375 0l0 4.53125l0.265625 0q0.828125 -2.265625 2.796875 -3.5625q1.984375 -1.296875 4.71875 -1.296875q2.609375 0 4.53125 1.171875q1.921875 1.15625 2.984375 3.25q1.078125 2.078125 1.0625 4.859375l0 15.765625l-7.859375 0l0 -14.21875q0.015625 -2.0625 -1.046875 -3.21875q-1.046875 -1.15625 -2.921875 -1.15625q-1.234375 0 -2.1875 0.546875q-0.9375 0.53125 -1.453125 1.53125q-0.5 1.0 -0.515625 2.421875zm34.84227 -10.625l0 5.796875l-15.59375 0l0 -5.796875l15.59375 0zm-12.328125 -5.921875l7.859375 0l0 22.859375q0 0.734375 0.234375 1.171875q0.234375 0.4375 0.6875 0.625q0.453125 0.1875 1.078125 0.1875q0.453125 0 0.953125 -0.078125q0.515625 -0.09375 0.765625 -0.15625l1.203125 5.671875q-0.5625 0.171875 -1.59375 0.40625q-1.015625 0.25 -2.4375 0.3125q-2.765625 0.125 -4.734375 -0.65625q-1.96875 -0.78125 -3.015625 -2.4375q-1.03125 -1.65625 -1.0 -4.171875l0 -23.734375zm27.644196 31.109375q-3.875 0 -6.6875 -1.53125q-2.796875 -1.546875 -4.3125 -4.40625q-1.5 -2.859375 -1.5 -6.796875q0 -3.828125 1.515625 -6.703125q1.515625 -2.875 4.265625 -4.46875q2.75 -1.609375 6.484375 -1.609375q2.640625 0 4.828125 0.828125q2.1875 0.8125 3.78125 2.421875q1.59375 1.609375 2.46875 3.96875q0.890625 2.359375 0.890625 5.40625l0 1.953125l-21.484375 0l0 -4.5625l14.171875 0q-0.015625 -1.265625 -0.609375 -2.234375q-0.578125 -0.984375 -1.578125 -1.53125q-1.0 -0.5625 -2.3125 -0.5625q-1.3125 0 -2.359375 0.59375q-1.046875 0.578125 -1.65625 1.59375q-0.609375 1.0 -0.65625 2.265625l0 4.65625q0 1.515625 0.59375 2.65625q0.609375 1.125 1.703125 1.75q1.09375 0.625 2.609375 0.625q1.046875 0 1.890625 -0.28125q0.859375 -0.296875 1.46875 -0.859375q0.609375 -0.5625 0.921875 -1.390625l7.21875 0.21875q-0.453125 2.421875 -1.96875 4.21875q-1.515625 1.796875 -3.984375 2.796875q-2.46875 0.984375 -5.703125 0.984375zm15.785126 -0.46875l0 -24.71875l7.6406555 0l0 4.5l0.25 0q0.6875 -2.4375 2.203125 -3.640625q1.53125 -1.203125 3.5625 -1.203125q0.546875 0 1.125 0.078125q0.59375 0.0625 1.078125 0.21875l0 6.828125q-0.5625 -0.1875 -1.46875 -0.296875q-0.90625 -0.109375 -1.609375 -0.109375q-1.40625 0 -2.53125 0.625q-1.109375 0.609375 -1.75 1.71875q-0.640625 1.09375 -0.640625 2.578125l0 13.421875l-7.8594055 0z" fill-rule="nonzero"/><path fill="#000000" fill-opacity="0.0" d="m22.028872 626.83466l638.01575 0l0 74.33069l-638.01575 0z" fill-rule="evenodd"/><path fill="#000000" d="m39.575745 679.3546l-7.46875 0l11.375 -32.96875l8.984375 0l11.375 32.96875l-7.46875 0l-8.265625 -25.4375l-0.25 0l-8.28125 25.4375zm-0.46875 -12.953125l17.640625 0l0 5.4375l-17.640625 0l0 -5.4375zm28.55568 22.21875l0 -33.984375l6.765625 0l0 4.140625l0.296875 0q0.453125 -0.984375 1.3125 -2.015625q0.859375 -1.046875 2.25 -1.75q1.40625 -0.703125 3.484375 -0.703125q2.703125 0 4.984375 1.40625q2.28125 1.40625 3.640625 4.234375q1.375 2.828125 1.375 7.078125q0 4.140625 -1.328125 6.984375q-1.328125 2.828125 -3.609375 4.296875q-2.265625 1.453125 -5.078125 1.453125q-2.0 0 -3.390625 -0.65625q-1.390625 -0.671875 -2.28125 -1.671875q-0.890625 -1.0 -1.359375 -2.03125l-0.203125 0l0 13.21875l-6.859375 0zm6.71875 -21.625q0 2.203125 0.609375 3.84375q0.609375 1.640625 1.765625 2.5625q1.15625 0.90625 2.8125 0.90625q1.6875 0 2.84375 -0.921875q1.15625 -0.9375 1.75 -2.578125q0.609375 -1.65625 0.609375 -3.8125q0 -2.140625 -0.59375 -3.765625q-0.59375 -1.625 -1.75 -2.546875q-1.15625 -0.921875 -2.859375 -0.921875q-1.671875 0 -2.828125 0.890625q-1.140625 0.890625 -1.75 2.515625q-0.609375 1.625 -0.609375 3.828125zm21.94928 21.625l0 -33.984375l6.765625 0l0 4.140625l0.296875 0q0.453125 -0.984375 1.3125 -2.015625q0.859375 -1.046875 2.25 -1.75q1.40625 -0.703125 3.484375 -0.703125q2.703125 0 4.984375 1.40625q2.28125 1.40625 3.640625 4.234375q1.375 2.828125 1.375 7.078125q0 4.140625 -1.328125 6.984375q-1.328125 2.828125 -3.609375 4.296875q-2.265625 1.453125 -5.078125 1.453125q-2.0 0 -3.390625 -0.65625q-1.390625 -0.671875 -2.28125 -1.671875q-0.890625 -1.0 -1.359375 -2.03125l-0.203125 0l0 13.21875l-6.859375 0zm6.71875 -21.625q0 2.203125 0.609375 3.84375q0.609375 1.640625 1.765625 2.5625q1.15625 0.90625 2.8125 0.90625q1.6875 0 2.84375 -0.921875q1.15625 -0.9375 1.75 -2.578125q0.609375 -1.65625 0.609375 -3.8125q0 -2.140625 -0.59375 -3.765625q-0.59375 -1.625 -1.75 -2.546875q-1.15625 -0.921875 -2.859375 -0.921875q-1.671875 0 -2.828125 0.890625q-1.140625 0.890625 -1.75 2.515625q-0.609375 1.625 -0.609375 3.828125zm61.679108 -9.0625l-7.046875 0q-0.203125 -1.375 -0.796875 -2.4375q-0.59375 -1.078125 -1.53125 -1.828125q-0.921875 -0.765625 -2.140625 -1.15625q-1.21875 -0.40625 -2.640625 -0.40625q-2.546875 0 -4.453125 1.265625q-1.90625 1.265625 -2.953125 3.671875q-1.03125 2.40625 -1.03125 5.828125q0 3.53125 1.046875 5.9375q1.046875 2.390625 2.953125 3.609375q1.90625 1.21875 4.390625 1.21875q1.40625 0 2.59375 -0.359375q1.203125 -0.375 2.140625 -1.09375q0.9375 -0.71875 1.546875 -1.75q0.625 -1.03125 0.875 -2.34375l7.046875 0.03125q-0.28125 2.265625 -1.375 4.375q-1.078125 2.09375 -2.90625 3.75q-1.828125 1.640625 -4.34375 2.609375q-2.515625 0.953125 -5.6875 0.953125q-4.40625 0 -7.875 -2.0q-3.46875 -2.0 -5.484375 -5.78125q-2.0 -3.78125 -2.0 -9.15625q0 -5.390625 2.03125 -9.171875q2.03125 -3.78125 5.5 -5.765625q3.484375 -2.0 7.828125 -2.0q2.859375 0 5.3125 0.8125q2.46875 0.796875 4.359375 2.34375q1.90625 1.53125 3.09375 3.75q1.203125 2.21875 1.546875 5.09375zm16.13945 21.90625q-3.8125 0 -6.5625 -1.546875q-2.734375 -1.5625 -4.21875 -4.421875q-1.484375 -2.859375 -1.484375 -6.765625q0 -3.8125 1.484375 -6.6875q1.484375 -2.890625 4.171875 -4.5q2.703125 -1.609375 6.34375 -1.609375q2.4375 0 4.546875 0.78125q2.125 0.78125 3.703125 2.34375q1.59375 1.5625 2.484375 3.921875q0.890625 2.359375 0.890625 5.515625l0 1.875l-20.890625 0l0 -4.25l14.421875 0q0 -1.484375 -0.640625 -2.625q-0.640625 -1.140625 -1.78125 -1.78125q-1.125 -0.65625 -2.625 -0.65625q-1.5625 0 -2.765625 0.71875q-1.1875 0.703125 -1.875 1.90625q-0.671875 1.203125 -0.6875 2.671875l0 4.03125q0 1.84375 0.6875 3.1875q0.6875 1.328125 1.9375 2.046875q1.25 0.71875 2.96875 0.71875q1.15625 0 2.09375 -0.3125q0.953125 -0.328125 1.625 -0.96875q0.6875 -0.640625 1.03125 -1.578125l6.34375 0.421875q-0.484375 2.28125 -1.96875 3.984375q-1.484375 1.6875 -3.828125 2.640625q-2.34375 0.9375 -5.40625 0.9375zm22.68431 -14.78125l0 14.296875l-6.859375 0l0 -24.71875l6.53125 0l0 4.359375l0.296875 0q0.8125 -2.15625 2.75 -3.421875q1.9375 -1.265625 4.6875 -1.265625q2.578125 0 4.484375 1.125q1.921875 1.125 2.984375 3.21875q1.0625 2.078125 1.0625 4.953125l0 15.75l-6.859375 0l0 -14.515625q0.015625 -2.265625 -1.15625 -3.546875q-1.171875 -1.28125 -3.234375 -1.28125q-1.390625 0 -2.453125 0.59375q-1.046875 0.59375 -1.640625 1.734375q-0.578125 1.125 -0.59375 2.71875zm34.48201 -10.421875l0 5.140625l-14.890625 0l0 -5.140625l14.890625 0zm-11.515625 -5.921875l6.859375 0l0 23.046875q0 0.953125 0.28125 1.46875q0.296875 0.515625 0.8125 0.734375q0.53125 0.203125 1.21875 0.203125q0.484375 0 0.96875 -0.078125q0.484375 -0.09375 0.75 -0.140625l1.078125 5.09375q-0.515625 0.171875 -1.453125 0.390625q-0.9375 0.21875 -2.265625 0.265625q-2.484375 0.09375 -4.34375 -0.65625q-1.859375 -0.765625 -2.890625 -2.359375q-1.03125 -1.59375 -1.015625 -4.03125l0 -23.9375zm26.977097 31.125q-3.8125 0 -6.5625 -1.546875q-2.734375 -1.5625 -4.21875 -4.421875q-1.484375 -2.859375 -1.484375 -6.765625q0 -3.8125 1.484375 -6.6875q1.484375 -2.890625 4.171875 -4.5q2.703125 -1.609375 6.34375 -1.609375q2.4375 0 4.5468903 0.78125q2.125 0.78125 3.703125 2.34375q1.59375 1.5625 2.484375 3.921875q0.890625 2.359375 0.890625 5.515625l0 1.875l-20.89064 0l0 -4.25l14.42189 0q0 -1.484375 -0.640625 -2.625q-0.640625 -1.140625 -1.7812653 -1.78125q-1.125 -0.65625 -2.625 -0.65625q-1.5625 0 -2.765625 0.71875q-1.1875 0.703125 -1.875 1.90625q-0.671875 1.203125 -0.6875 2.671875l0 4.03125q0 1.84375 0.6875 3.1875q0.6875 1.328125 1.9375 2.046875q1.25 0.71875 2.96875 0.71875q1.15625 0 2.09375 -0.3125q0.95314026 -0.328125 1.6250153 -0.96875q0.6875 -0.640625 1.03125 -1.578125l6.34375 0.421875q-0.484375 2.28125 -1.96875 3.984375q-1.484375 1.6875 -3.828125 2.640625q-2.34375 0.9375 -5.4062653 0.9375zm15.824936 -0.484375l0 -24.71875l6.65625 0l0 4.3125l0.25 0q0.671875 -2.3125 2.265625 -3.484375q1.59375 -1.1875 3.671875 -1.1875q0.515625 0 1.109375 0.0625q0.59375 0.0625 1.046875 0.171875l0 6.09375q-0.484375 -0.140625 -1.34375 -0.25q-0.84375 -0.125 -1.546875 -0.125q-1.515625 0 -2.703125 0.65625q-1.171875 0.65625 -1.859375 1.8125q-0.6875 1.15625 -0.6875 2.671875l0 13.984375l-6.859375 0z" fill-rule="nonzero"/><path fill="#000000" fill-opacity="0.0" d="m22.028872 552.50397l638.01575 0l0 74.33069l-638.01575 0z" fill-rule="evenodd"/><path fill="#000000" d="m41.71637 605.0239l-9.65625 0l10.875 -32.96875l12.234375 0l10.890625 32.96875l-9.65625 0l-7.21875 -23.890625l-0.25 0l-7.21875 23.890625zm-1.796875 -13.0l18.15625 0l0 6.6875l-18.15625 0l0 -6.6875zm29.415741 22.265625l0 -33.984375l8.828125 0l0 4.3125l0.1875 0q0.484375 -1.265625 1.421875 -2.3125q0.9375 -1.0625 2.3125 -1.6875q1.390625 -0.640625 3.21875 -0.640625q2.453125 0 4.65625 1.3125q2.21875 1.296875 3.609375 4.09375q1.390625 2.796875 1.390625 7.28125q0 4.28125 -1.328125 7.09375q-1.328125 2.8125 -3.546875 4.203125q-2.203125 1.390625 -4.84375 1.390625q-1.734375 0 -3.09375 -0.578125q-1.359375 -0.578125 -2.328125 -1.5625q-0.953125 -0.984375 -1.46875 -2.25l-0.125 0l0 13.328125l-8.890625 0zm8.703125 -21.625q0 1.796875 0.46875 3.109375q0.46875 1.3125 1.34375 2.03125q0.890625 0.71875 2.109375 0.71875q1.21875 0 2.078125 -0.703125q0.859375 -0.703125 1.3125 -2.015625q0.46875 -1.3125 0.46875 -3.140625q0 -1.84375 -0.46875 -3.15625q-0.453125 -1.3125 -1.3125 -2.0q-0.859375 -0.703125 -2.078125 -0.703125q-1.21875 0 -2.109375 0.703125q-0.875 0.6875 -1.34375 2.0q-0.46875 1.3125 -0.46875 3.15625zm20.657059 21.625l0 -33.984375l8.828125 0l0 4.3125l0.1875 0q0.484375 -1.265625 1.421875 -2.3125q0.9375 -1.0625 2.3125 -1.6875q1.390625 -0.640625 3.21875 -0.640625q2.453125 0 4.65625 1.3125q2.21875 1.296875 3.609375 4.09375q1.390625 2.796875 1.390625 7.28125q0 4.28125 -1.328125 7.09375q-1.328125 2.8125 -3.546875 4.203125q-2.203125 1.390625 -4.84375 1.390625q-1.734375 0 -3.09375 -0.578125q-1.359375 -0.578125 -2.328125 -1.5625q-0.953125 -0.984375 -1.46875 -2.25l-0.125 0l0 13.328125l-8.890625 0zm8.703125 -21.625q0 1.796875 0.46875 3.109375q0.46875 1.3125 1.34375 2.03125q0.890625 0.71875 2.109375 0.71875q1.21875 0 2.078125 -0.703125q0.859375 -0.703125 1.3125 -2.015625q0.46875 -1.3125 0.46875 -3.140625q0 -1.84375 -0.46875 -3.15625q-0.453125 -1.3125 -1.3125 -2.0q-0.859375 -0.703125 -2.078125 -0.703125q-1.21875 0 -2.109375 0.703125q-0.875 0.6875 -1.34375 2.0q-0.46875 1.3125 -0.46875 3.15625zm60.327408 -8.25l-9.078125 0q-0.109375 -1.125 -0.515625 -2.03125q-0.40625 -0.921875 -1.125 -1.59375q-0.71875 -0.671875 -1.734375 -1.03125q-1.015625 -0.359375 -2.296875 -0.359375q-2.25 0 -3.8125 1.09375q-1.546875 1.09375 -2.34375 3.140625q-0.796875 2.046875 -0.796875 4.90625q0 3.03125 0.8125 5.0625q0.8125 2.03125 2.359375 3.0625q1.546875 1.015625 3.71875 1.015625q1.234375 0 2.21875 -0.3125q0.984375 -0.3125 1.703125 -0.90625q0.734375 -0.59375 1.1875 -1.4375q0.453125 -0.84375 0.625 -1.90625l9.078125 0.0625q-0.171875 2.09375 -1.1875 4.265625q-1.0 2.15625 -2.859375 3.984375q-1.859375 1.828125 -4.609375 2.9375q-2.734375 1.109375 -6.34375 1.109375q-4.546875 0 -8.140625 -1.9375q-3.59375 -1.953125 -5.6875 -5.734375q-2.078125 -3.796875 -2.078125 -9.265625q0 -5.5 2.125 -9.265625q2.125 -3.78125 5.71875 -5.71875q3.609375 -1.953125 8.0625 -1.953125q3.109375 0 5.734375 0.859375q2.625 0.859375 4.609375 2.5q1.984375 1.625 3.1875 4.015625q1.203125 2.375 1.46875 5.4375zm16.020523 21.0625q-3.953125 0 -6.8125 -1.515625q-2.859375 -1.53125 -4.390625 -4.390625q-1.53125 -2.859375 -1.53125 -6.84375q0 -3.828125 1.53125 -6.6875q1.546875 -2.875 4.359375 -4.46875q2.828125 -1.59375 6.65625 -1.59375q2.796875 0 5.0625 0.875q2.28125 0.859375 3.890625 2.515625q1.609375 1.640625 2.46875 4.0q0.875 2.34375 0.875 5.296875l0 2.0625l-22.078125 0l0 -4.890625l13.90625 0q-0.015625 -1.0625 -0.546875 -1.875q-0.515625 -0.828125 -1.390625 -1.28125q-0.875 -0.453125 -2.0 -0.453125q-1.078125 0 -1.984375 0.453125q-0.890625 0.453125 -1.4375 1.265625q-0.53125 0.796875 -0.5625 1.890625l0 5.265625q0 1.203125 0.5 2.140625q0.5 0.921875 1.421875 1.453125q0.9375 0.53125 2.265625 0.53125q0.921875 0 1.671875 -0.25q0.765625 -0.265625 1.3125 -0.75q0.546875 -0.5 0.8125 -1.1875l8.109375 0q-0.421875 2.578125 -1.984375 4.46875q-1.5625 1.890625 -4.125 2.9375q-2.5625 1.03125 -6.0 1.03125zm24.604248 -14.359375l0 13.90625l-8.890625 0l0 -24.71875l8.4375 0l0 4.6875l0.265625 0q0.796875 -2.34375 2.828125 -3.671875q2.046875 -1.34375 4.765625 -1.34375q2.625 0 4.5625 1.203125q1.9375 1.203125 3.0 3.296875q1.078125 2.078125 1.0625 4.765625l0 15.78125l-8.890625 0l0 -13.90625q0.015625 -1.84375 -0.921875 -2.875q-0.9375 -1.046875 -2.609375 -1.046875q-1.09375 0 -1.90625 0.46875q-0.8125 0.46875 -1.25 1.359375q-0.4375 0.875 -0.453125 2.09375zm35.155167 -10.8125l0 6.4375l-16.296875 0l0 -6.4375l16.296875 0zm-13.140625 -5.921875l8.890625 0l0 22.6875q0 0.515625 0.171875 0.859375q0.1875 0.34375 0.546875 0.515625q0.375 0.171875 0.953125 0.171875q0.40625 0 0.9375 -0.09375q0.546875 -0.09375 0.796875 -0.15625l1.296875 6.234375q-0.59375 0.1875 -1.703125 0.4375q-1.109375 0.265625 -2.609375 0.34375q-3.0625 0.15625 -5.140625 -0.640625q-2.078125 -0.796875 -3.125 -2.515625q-1.046875 -1.71875 -1.015625 -4.3125l0 -23.53125zm28.326935 31.09375q-3.9531403 0 -6.8125153 -1.515625q-2.859375 -1.53125 -4.390625 -4.390625q-1.53125 -2.859375 -1.53125 -6.84375q0 -3.828125 1.53125 -6.6875q1.546875 -2.875 4.359375 -4.46875q2.828125 -1.59375 6.6562653 -1.59375q2.796875 0 5.0625 0.875q2.28125 0.859375 3.890625 2.515625q1.609375 1.640625 2.46875 4.0q0.875 2.34375 0.875 5.296875l0 2.0625l-22.07814 0l0 -4.890625l13.906265 0q-0.015625 -1.0625 -0.546875 -1.875q-0.515625 -0.828125 -1.390625 -1.28125q-0.875 -0.453125 -2.0 -0.453125q-1.078125 0 -1.984375 0.453125q-0.89064026 0.453125 -1.4375153 1.265625q-0.53125 0.796875 -0.5625 1.890625l0 5.265625q0 1.203125 0.5 2.140625q0.5 0.921875 1.4218903 1.453125q0.9375 0.53125 2.265625 0.53125q0.921875 0 1.671875 -0.25q0.765625 -0.265625 1.3125 -0.75q0.546875 -0.5 0.8125 -1.1875l8.109375 0q-0.421875 2.578125 -1.984375 4.46875q-1.5625 1.890625 -4.125 2.9375q-2.5625 1.03125 -6.0 1.03125zm15.713623 -0.453125l0 -24.71875l8.625 0l0 4.6875l0.265625 0q0.671875 -2.59375 2.140625 -3.796875q1.484375 -1.21875 3.453125 -1.21875q0.578125 0 1.15625 0.09375q0.578125 0.078125 1.109375 0.25l0 7.578125q-0.671875 -0.234375 -1.640625 -0.34375q-0.953125 -0.109375 -1.65625 -0.109375q-1.296875 0 -2.34375 0.59375q-1.03125 0.578125 -1.625 1.640625q-0.59375 1.046875 -0.59375 2.46875l0 12.875l-8.890625 0z" fill-rule="nonzero"/><path fill="#000000" fill-opacity="0.0" d="m100.80052 132.92389l513.95276 0l0 42.015747l-513.95276 0z" fill-rule="evenodd"/><path fill="#000000" d="m112.87865 159.84389l-2.625 0l4.78125 -13.5625l3.03125 0l4.78125 13.5625l-2.625 0l-3.625 -10.78125l-0.09375 0l-3.625 10.78125zm0.09375 -5.3125l7.15625 0l0 1.96875l-7.15625 0l0 -1.96875zm11.564606 9.125l0 -13.984375l2.359375 0l0 1.671875l0.140625 0q0.1875 -0.359375 0.515625 -0.78125q0.34375 -0.421875 0.921875 -0.71875q0.578125 -0.3125 1.46875 -0.3125q1.171875 0 2.125 0.609375q0.953125 0.59375 1.515625 1.765625q0.5625 1.171875 0.5625 2.859375q0 1.671875 -0.5625 2.859375q-0.546875 1.171875 -1.5 1.78125q-0.9375 0.609375 -2.140625 0.609375q-0.875 0 -1.453125 -0.28125q-0.5625 -0.296875 -0.921875 -0.703125q-0.34375 -0.421875 -0.53125 -0.796875l-0.109375 0l0 5.421875l-2.390625 0zm2.34375 -8.90625q0 1.0 0.28125 1.75q0.28125 0.734375 0.8125 1.15625q0.546875 0.40625 1.296875 0.40625q0.796875 0 1.328125 -0.421875q0.546875 -0.4375 0.8125 -1.1875q0.28125 -0.75 0.28125 -1.703125q0 -0.9375 -0.28125 -1.671875q-0.265625 -0.734375 -0.796875 -1.15625q-0.53125 -0.421875 -1.34375 -0.421875q-0.765625 0 -1.296875 0.40625q-0.53125 0.40625 -0.8125 1.140625q-0.28125 0.71875 -0.28125 1.703125zm9.309937 8.90625l0 -13.984375l2.359375 0l0 1.671875l0.140625 0q0.1875 -0.359375 0.515625 -0.78125q0.34375 -0.421875 0.921875 -0.71875q0.578125 -0.3125 1.46875 -0.3125q1.171875 0 2.125 0.609375q0.953125 0.59375 1.515625 1.765625q0.5625 1.171875 0.5625 2.859375q0 1.671875 -0.5625 2.859375q-0.546875 1.171875 -1.5 1.78125q-0.9375 0.609375 -2.140625 0.609375q-0.875 0 -1.453125 -0.28125q-0.5625 -0.296875 -0.921875 -0.703125q-0.34375 -0.421875 -0.53125 -0.796875l-0.109375 0l0 5.421875l-2.390625 0zm2.34375 -8.90625q0 1.0 0.28125 1.75q0.28125 0.734375 0.8125 1.15625q0.546875 0.40625 1.296875 0.40625q0.796875 0 1.328125 -0.421875q0.546875 -0.4375 0.8125 -1.1875q0.28125 -0.75 0.28125 -1.703125q0 -0.9375 -0.28125 -1.671875q-0.265625 -0.734375 -0.796875 -1.15625q-0.53125 -0.421875 -1.34375 -0.421875q-0.765625 0 -1.296875 0.40625q-0.53125 0.40625 -0.8125 1.140625q-0.28125 0.71875 -0.28125 1.703125zm25.659683 -3.890625l-2.484375 0q-0.09375 -0.609375 -0.390625 -1.078125q-0.28125 -0.484375 -0.703125 -0.8125q-0.421875 -0.328125 -0.96875 -0.5q-0.53125 -0.171875 -1.15625 -0.171875q-1.109375 0 -1.96875 0.5625q-0.84375 0.546875 -1.328125 1.609375q-0.484375 1.0625 -0.484375 2.59375q0 1.546875 0.484375 2.625q0.484375 1.0625 1.328125 1.609375q0.859375 0.53125 1.953125 0.53125q0.609375 0 1.140625 -0.15625q0.546875 -0.171875 0.96875 -0.484375q0.421875 -0.328125 0.71875 -0.78125q0.296875 -0.46875 0.40625 -1.0625l2.484375 0.015625q-0.140625 0.953125 -0.609375 1.8125q-0.453125 0.84375 -1.203125 1.5q-0.734375 0.640625 -1.734375 1.0q-0.984375 0.359375 -2.203125 0.359375q-1.78125 0 -3.1875 -0.828125q-1.40625 -0.828125 -2.21875 -2.390625q-0.796875 -1.5625 -0.796875 -3.75q0 -2.203125 0.8125 -3.75q0.8125 -1.5625 2.21875 -2.390625q1.40625 -0.828125 3.171875 -0.828125q1.140625 0 2.109375 0.3125q0.96875 0.3125 1.734375 0.9375q0.765625 0.609375 1.25 1.5q0.5 0.875 0.65625 2.015625zm6.654373 9.1875q-1.53125 0 -2.640625 -0.640625q-1.109375 -0.640625 -1.703125 -1.8125q-0.59375 -1.1875 -0.59375 -2.78125q0 -1.5625 0.59375 -2.75q0.609375 -1.203125 1.6875 -1.859375q1.078125 -0.671875 2.53125 -0.671875q0.9375 0 1.78125 0.3125q0.84375 0.296875 1.484375 0.921875q0.640625 0.625 1.015625 1.609375q0.375 0.96875 0.375 2.296875l0 0.734375l-8.34375 0l0 -1.609375l6.046875 0q-0.015625 -0.6875 -0.3125 -1.21875q-0.28125 -0.546875 -0.8125 -0.859375q-0.515625 -0.3125 -1.203125 -0.3125q-0.734375 0 -1.296875 0.359375q-0.546875 0.34375 -0.859375 0.921875q-0.296875 0.578125 -0.3125 1.25l0 1.421875q0 0.875 0.328125 1.515625q0.328125 0.625 0.90625 0.96875q0.578125 0.328125 1.359375 0.328125q0.53125 0 0.953125 -0.140625q0.421875 -0.15625 0.734375 -0.4375q0.3125 -0.296875 0.46875 -0.734375l2.234375 0.25q-0.203125 0.890625 -0.796875 1.5625q-0.59375 0.65625 -1.515625 1.015625q-0.921875 0.359375 -2.109375 0.359375zm8.948044 -6.171875l0 5.96875l-2.390625 0l0 -10.171875l2.296875 0l0 1.71875l0.109375 0q0.359375 -0.84375 1.125 -1.34375q0.765625 -0.515625 1.90625 -0.515625q1.0625 0 1.84375 0.453125q0.78125 0.453125 1.21875 1.3125q0.4375 0.84375 0.421875 2.0625l0 6.484375l-2.390625 0l0 -6.109375q0 -1.015625 -0.53125 -1.59375q-0.515625 -0.578125 -1.453125 -0.578125q-0.625 0 -1.109375 0.28125q-0.484375 0.265625 -0.765625 0.78125q-0.28125 0.515625 -0.28125 1.25zm14.062927 -4.203125l0 1.84375l-5.84375 0l0 -1.84375l5.84375 0zm-4.40625 -2.4375l2.40625 0l0 9.546875q0 0.484375 0.140625 0.75q0.15625 0.25 0.390625 0.34375q0.25 0.09375 0.546875 0.09375q0.234375 0 0.421875 -0.03125q0.1875 -0.046875 0.28125 -0.0625l0.40625 1.875q-0.1875 0.0625 -0.546875 0.140625q-0.359375 0.078125 -0.859375 0.09375q-0.90625 0.03125 -1.625 -0.265625q-0.71875 -0.3125 -1.140625 -0.9375q-0.421875 -0.640625 -0.421875 -1.59375l0 -9.953125zm10.811005 12.8125q-1.53125 0 -2.640625 -0.640625q-1.109375 -0.640625 -1.703125 -1.8125q-0.59375 -1.1875 -0.59375 -2.78125q0 -1.5625 0.59375 -2.75q0.609375 -1.203125 1.6875 -1.859375q1.078125 -0.671875 2.53125 -0.671875q0.9375 0 1.78125 0.3125q0.84375 0.296875 1.484375 0.921875q0.640625 0.625 1.015625 1.609375q0.375 0.96875 0.375 2.296875l0 0.734375l-8.34375 0l0 -1.609375l6.046875 0q-0.015625 -0.6875 -0.3125 -1.21875q-0.28125 -0.546875 -0.8125 -0.859375q-0.515625 -0.3125 -1.203125 -0.3125q-0.734375 0 -1.296875 0.359375q-0.546875 0.34375 -0.859375 0.921875q-0.296875 0.578125 -0.3125 1.25l0 1.421875q0 0.875 0.328125 1.515625q0.328125 0.625 0.90625 0.96875q0.578125 0.328125 1.359375 0.328125q0.53125 0 0.953125 -0.140625q0.421875 -0.15625 0.734375 -0.4375q0.3125 -0.296875 0.46875 -0.734375l2.234375 0.25q-0.203125 0.890625 -0.796875 1.5625q-0.59375 0.65625 -1.515625 1.015625q-0.921875 0.359375 -2.109375 0.359375zm6.557419 -0.203125l0 -10.171875l2.328125 0l0 1.6875l0.09375 0q0.28125 -0.875 0.953125 -1.359375q0.6875 -0.484375 1.5625 -0.484375q0.203125 0 0.453125 0.03125q0.25 0.015625 0.40625 0.046875l0 2.203125q-0.140625 -0.0625 -0.46875 -0.09375q-0.328125 -0.046875 -0.640625 -0.046875q-0.65625 0 -1.171875 0.28125q-0.515625 0.28125 -0.828125 0.78125q-0.296875 0.5 -0.296875 1.140625l0 5.984375l-2.390625 0zm12.031311 0l0 -10.171875l2.390625 0l0 10.171875l-2.390625 0zm1.203125 -11.625q-0.5625 0 -0.984375 -0.375q-0.40625 -0.375 -0.40625 -0.921875q0 -0.546875 0.40625 -0.921875q0.421875 -0.375 0.984375 -0.375q0.578125 0 0.984375 0.375q0.40625 0.375 0.40625 0.921875q0 0.546875 -0.40625 0.921875q-0.40625 0.375 -0.984375 0.375zm11.7066345 4.140625l-2.1875 0.234375q-0.09375 -0.328125 -0.328125 -0.609375q-0.234375 -0.296875 -0.625 -0.46875q-0.375 -0.1875 -0.921875 -0.1875q-0.75 0 -1.265625 0.328125q-0.5 0.3125 -0.5 0.828125q0 0.453125 0.328125 0.734375q0.34375 0.265625 1.109375 0.453125l1.734375 0.375q1.453125 0.296875 2.15625 0.984375q0.703125 0.671875 0.71875 1.765625q-0.015625 0.953125 -0.578125 1.6875q-0.546875 0.734375 -1.53125 1.15625q-0.96875 0.40625 -2.25 0.40625q-1.859375 0 -3.0 -0.78125q-1.140625 -0.796875 -1.359375 -2.203125l2.34375 -0.21875q0.15625 0.6875 0.671875 1.046875q0.515625 0.34375 1.34375 0.34375q0.859375 0 1.375 -0.34375q0.515625 -0.359375 0.515625 -0.875q0 -0.4375 -0.34375 -0.71875q-0.328125 -0.296875 -1.015625 -0.4375l-1.75 -0.375q-1.453125 -0.296875 -2.15625 -1.015625q-0.703125 -0.734375 -0.703125 -1.84375q0 -0.9375 0.515625 -1.625q0.515625 -0.703125 1.453125 -1.078125q0.9375 -0.390625 2.15625 -0.390625q1.78125 0 2.8125 0.765625q1.03125 0.765625 1.28125 2.0625zm11.264145 7.6875q-1.53125 0 -2.625 -0.671875q-1.078125 -0.671875 -1.671875 -1.84375q-0.578125 -1.1875 -0.578125 -2.734375q0 -1.546875 0.59375 -2.734375q0.59375 -1.203125 1.6875 -1.859375q1.09375 -0.671875 2.578125 -0.671875q1.234375 0 2.1875 0.453125q0.96875 0.453125 1.53125 1.28125q0.578125 0.828125 0.65625 1.921875l-2.296875 0q-0.140625 -0.734375 -0.65625 -1.21875q-0.515625 -0.5 -1.390625 -0.5q-0.734375 0 -1.296875 0.40625q-0.546875 0.390625 -0.859375 1.125q-0.3125 0.734375 -0.3125 1.75q0 1.046875 0.3125 1.796875q0.3125 0.734375 0.859375 1.140625q0.546875 0.40625 1.296875 0.40625q0.53125 0 0.953125 -0.203125q0.421875 -0.203125 0.703125 -0.578125q0.28125 -0.390625 0.390625 -0.953125l2.296875 0q-0.09375 1.09375 -0.640625 1.921875q-0.546875 0.828125 -1.5 1.296875q-0.9375 0.46875 -2.21875 0.46875zm10.772537 0q-1.484375 0 -2.578125 -0.65625q-1.09375 -0.65625 -1.703125 -1.828125q-0.59375 -1.1875 -0.59375 -2.765625q0 -1.578125 0.59375 -2.765625q0.609375 -1.1875 1.703125 -1.84375q1.09375 -0.65625 2.578125 -0.65625q1.484375 0 2.5781403 0.65625q1.09375 0.65625 1.6875 1.84375q0.609375 1.1875 0.609375 2.765625q0 1.578125 -0.609375 2.765625q-0.59375 1.171875 -1.6875 1.828125q-1.0937653 0.65625 -2.5781403 0.65625zm0.015625 -1.921875q0.8125 0 1.34375 -0.4375q0.546875 -0.453125 0.8125 -1.203125q0.26564026 -0.765625 0.26564026 -1.703125q0 -0.921875 -0.26564026 -1.671875q-0.265625 -0.765625 -0.8125 -1.21875q-0.53125 -0.453125 -1.34375 -0.453125q-0.828125 0 -1.375 0.453125q-0.546875 0.453125 -0.828125 1.21875q-0.265625 0.75 -0.265625 1.671875q0 0.9375 0.265625 1.703125q0.28125 0.75 0.828125 1.203125q0.546875 0.4375 1.375 0.4375zm6.8891754 1.71875l0 -10.171875l2.296875 0l0 1.71875l0.109375 0q0.328125 -0.875 1.0625 -1.359375q0.734375 -0.5 1.75 -0.5q1.03125 0 1.734375 0.5q0.71875 0.5 1.015625 1.359375l0.109375 0q0.328125 -0.84375 1.125 -1.34375q0.8125 -0.515625 1.921875 -0.515625q1.40625 0 2.296875 0.890625q0.890625 0.890625 0.890625 2.59375l0 6.828125l-2.40625 0l0 -6.453125q0 -0.953125 -0.515625 -1.390625q-0.5 -0.4375 -1.21875 -0.4375q-0.875 0 -1.359375 0.546875q-0.484375 0.53125 -0.484375 1.390625l0 6.34375l-2.359375 0l0 -6.5625q0 -0.78125 -0.46875 -1.25q-0.46875 -0.46875 -1.234375 -0.46875q-0.515625 0 -0.9375 0.265625q-0.421875 0.25 -0.6875 0.734375q-0.25 0.46875 -0.25 1.09375l0 6.1875l-2.390625 0zm16.748444 0l0 -10.171875l2.390625 0l0 10.171875l-2.390625 0zm1.203125 -11.625q-0.5625 0 -0.984375 -0.375q-0.40625 -0.375 -0.40625 -0.921875q0 -0.546875 0.40625 -0.921875q0.421875 -0.375 0.984375 -0.375q0.578125 0 0.984375 0.375q0.40625 0.375 0.40625 0.921875q0 0.546875 -0.40625 0.921875q-0.40625 0.375 -0.984375 0.375zm6.0503845 5.65625l0 5.96875l-2.390625 0l0 -10.171875l2.296875 0l0 1.71875l0.109375 0q0.359375 -0.84375 1.125 -1.34375q0.765625 -0.515625 1.90625 -0.515625q1.0625 0 1.84375 0.453125q0.78125 0.453125 1.21875 1.3125q0.4375 0.84375 0.421875 2.0625l0 6.484375l-2.390625 0l0 -6.109375q0 -1.015625 -0.53125 -1.59375q-0.515625 -0.578125 -1.453125 -0.578125q-0.625 0 -1.109375 0.28125q-0.484375 0.265625 -0.765625 0.78125q-0.28125 0.515625 -0.28125 1.25zm13.406677 10.0q-1.296875 0 -2.21875 -0.359375q-0.921875 -0.34375 -1.484375 -0.921875q-0.5625 -0.578125 -0.78125 -1.296875l2.15625 -0.515625q0.140625 0.296875 0.421875 0.59375q0.28125 0.296875 0.75 0.484375q0.46875 0.203125 1.203125 0.203125q1.015625 0 1.6875 -0.5q0.671875 -0.5 0.671875 -1.625l0 -1.921875l-0.125 0q-0.1875 0.375 -0.546875 0.765625q-0.34375 0.390625 -0.921875 0.65625q-0.578125 0.265625 -1.453125 0.265625q-1.171875 0 -2.125 -0.546875q-0.953125 -0.5625 -1.515625 -1.65625q-0.5625 -1.109375 -0.5625 -2.78125q0 -1.671875 0.5625 -2.828125q0.5625 -1.15625 1.515625 -1.75q0.953125 -0.609375 2.125 -0.609375q0.890625 0 1.46875 0.3125q0.578125 0.296875 0.921875 0.71875q0.359375 0.421875 0.53125 0.78125l0.125 0l0 -1.671875l2.375 0l0 10.34375q0 1.296875 -0.625 2.15625q-0.625 0.859375 -1.703125 1.28125q-1.078125 0.421875 -2.453125 0.421875zm0.015625 -6.0625q0.765625 0 1.296875 -0.359375q0.546875 -0.375 0.8125 -1.0625q0.28125 -0.703125 0.28125 -1.6875q0 -0.953125 -0.28125 -1.671875q-0.265625 -0.734375 -0.796875 -1.125q-0.53125 -0.40625 -1.3125 -0.40625q-0.796875 0 -1.34375 0.421875q-0.53125 0.421875 -0.796875 1.140625q-0.265625 0.71875 -0.265625 1.640625q0 0.9375 0.265625 1.640625q0.28125 0.703125 0.8125 1.09375q0.546875 0.375 1.328125 0.375zm19.907318 -5.453125l-2.1875 0.234375q-0.09375 -0.328125 -0.328125 -0.609375q-0.234375 -0.296875 -0.625 -0.46875q-0.375 -0.1875 -0.921875 -0.1875q-0.75 0 -1.265625 0.328125q-0.5 0.3125 -0.5 0.828125q0 0.453125 0.328125 0.734375q0.34375 0.265625 1.109375 0.453125l1.734375 0.375q1.453125 0.296875 2.15625 0.984375q0.703125 0.671875 0.71875 1.765625q-0.015625 0.953125 -0.578125 1.6875q-0.546875 0.734375 -1.53125 1.15625q-0.96875 0.40625 -2.25 0.40625q-1.859375 0 -3.0 -0.78125q-1.140625 -0.796875 -1.359375 -2.203125l2.34375 -0.21875q0.15625 0.6875 0.671875 1.046875q0.515625 0.34375 1.34375 0.34375q0.859375 0 1.375 -0.34375q0.515625 -0.359375 0.515625 -0.875q0 -0.4375 -0.34375 -0.71875q-0.328125 -0.296875 -1.015625 -0.4375l-1.75 -0.375q-1.453125 -0.296875 -2.15625 -1.015625q-0.703125 -0.734375 -0.703125 -1.84375q0 -0.9375 0.515625 -1.625q0.515625 -0.703125 1.453125 -1.078125q0.9375 -0.390625 2.15625 -0.390625q1.78125 0 2.8125 0.765625q1.03125 0.765625 1.28125 2.0625zm6.633148 7.6875q-1.484375 0 -2.578125 -0.65625q-1.09375 -0.65625 -1.703125 -1.828125q-0.59375 -1.1875 -0.59375 -2.765625q0 -1.578125 0.59375 -2.765625q0.609375 -1.1875 1.703125 -1.84375q1.09375 -0.65625 2.578125 -0.65625q1.484375 0 2.578125 0.65625q1.09375 0.65625 1.6875 1.84375q0.609375 1.1875 0.609375 2.765625q0 1.578125 -0.609375 2.765625q-0.59375 1.171875 -1.6875 1.828125q-1.09375 0.65625 -2.578125 0.65625zm0.015625 -1.921875q0.8125 0 1.34375 -0.4375q0.546875 -0.453125 0.8125 -1.203125q0.265625 -0.765625 0.265625 -1.703125q0 -0.921875 -0.265625 -1.671875q-0.265625 -0.765625 -0.8125 -1.21875q-0.53125 -0.453125 -1.34375 -0.453125q-0.828125 0 -1.375 0.453125q-0.546875 0.453125 -0.828125 1.21875q-0.265625 0.75 -0.265625 1.671875q0 0.9375 0.265625 1.703125q0.28125 0.75 0.828125 1.203125q0.546875 0.4375 1.375 0.4375zm11.32666 1.921875q-1.484375 0 -2.578125 -0.65625q-1.09375 -0.65625 -1.703125 -1.828125q-0.59375 -1.1875 -0.59375 -2.765625q0 -1.578125 0.59375 -2.765625q0.609375 -1.1875 1.703125 -1.84375q1.09375 -0.65625 2.578125 -0.65625q1.484375 0 2.578125 0.65625q1.09375 0.65625 1.6875 1.84375q0.609375 1.1875 0.609375 2.765625q0 1.578125 -0.609375 2.765625q-0.59375 1.171875 -1.6875 1.828125q-1.09375 0.65625 -2.578125 0.65625zm0.015625 -1.921875q0.8125 0 1.34375 -0.4375q0.546875 -0.453125 0.8125 -1.203125q0.265625 -0.765625 0.265625 -1.703125q0 -0.921875 -0.265625 -1.671875q-0.265625 -0.765625 -0.8125 -1.21875q-0.53125 -0.453125 -1.34375 -0.453125q-0.828125 0 -1.375 0.453125q-0.546875 0.453125 -0.828125 1.21875q-0.265625 0.75 -0.265625 1.671875q0 0.9375 0.265625 1.703125q0.28125 0.75 0.828125 1.203125q0.546875 0.4375 1.375 0.4375zm9.279816 -4.25l0 5.96875l-2.390625 0l0 -10.171875l2.296875 0l0 1.71875l0.109375 0q0.359375 -0.84375 1.125 -1.34375q0.765625 -0.515625 1.90625 -0.515625q1.0625 0 1.84375 0.453125q0.78125 0.453125 1.21875 1.3125q0.4375 0.84375 0.421875 2.0625l0 6.484375l-2.390625 0l0 -6.109375q0 -1.015625 -0.53125 -1.59375q-0.515625 -0.578125 -1.453125 -0.578125q-0.625 0 -1.109375 0.28125q-0.484375 0.265625 -0.765625 0.78125q-0.28125 0.515625 -0.28125 1.25z" fill-rule="nonzero"/></g></svg>