<svg version="1.1" xmlns="http://www.w3.org/2000/svg" xmlns:xlink="http://www.w3.org/1999/xlink" width="289.82372" height="274.82274" viewBox="0,0,289.82372,274.82274"><g transform="translate(-95.0882,-42.63906)"><g data-paper-data="{&quot;isPaintingLayer&quot;:true}" stroke-miterlimit="10" stroke-dasharray="" stroke-dashoffset="0" style="mix-blend-mode: normal"><path d="M105.0882,52.63906c0,0 21.39594,0 27.08269,0c57.64851,0 242.74103,0 242.74103,0v254.82274h-269.82372z" fill="#fafafa" fill-rule="nonzero" stroke="#fafafa" stroke-width="20" stroke-linecap="round" stroke-linejoin="round"/><path d="M104.64913,181.4808c0,-2.86605 1.51013,-5.18941 3.37297,-5.18941h263.77178c0.89456,0 1.7525,0.54675 2.38506,1.51996c0.63254,0.9732 0.98791,2.29313 0.98791,3.66942v107.0232c0,2.86605 -1.51013,5.18941 -3.37297,5.18941h-263.77178c-1.86284,0 -3.37297,-2.32336 -3.37297,-5.18941z" fill="#f3f3f3" fill-rule="evenodd" stroke="none" stroke-width="1" stroke-linecap="square" stroke-linejoin="miter"/><path d="M111.14912,201.60286c0,-0.03111 1.43198,-0.05634 3.19841,-0.05634h250.1209c0.84826,0 1.6618,0.00593 2.26163,0.0165c0.5998,0.01057 0.93678,0.02489 0.93678,0.03984v1.16192c0,0.03111 -1.43198,0.05634 -3.19841,0.05634h-250.1209c-1.76643,0 -3.19841,-0.02523 -3.19841,-0.05634z" fill="#616161" fill-rule="evenodd" stroke="none" stroke-width="1" stroke-linecap="square" stroke-linejoin="miter"/><path d="M275.49606,144.49272h-74.41795" fill="#000000" fill-rule="nonzero" stroke="#005dc8" stroke-width="1.5" stroke-linecap="round" stroke-linejoin="miter"/><text transform="translate(106.1903,63.11085) scale(0.4037,0.4037)" font-size="24" xml:space="preserve" fill="#000000" fill-rule="nonzero" stroke="#000000" stroke-width="0" stroke-linecap="butt" stroke-linejoin="miter" stroke-miterlimit="10" stroke-dasharray="" stroke-dashoffset="0" font-family="Sans Serif" font-weight="bold" text-anchor="start" style="mix-blend-mode: normal"><tspan x="0" dy="0">About Oryx OS</tspan></text><text transform="translate(112.6903,193.33611) scale(0.4037,0.4037)" font-size="24" xml:space="preserve" fill="#000000" fill-rule="nonzero" stroke="#000000" stroke-width="0" stroke-linecap="butt" stroke-linejoin="miter" stroke-miterlimit="10" stroke-dasharray="" stroke-dashoffset="0" font-family="Sans Serif" font-weight="bold" text-anchor="start" style="mix-blend-mode: normal"><tspan x="0" dy="0">About Oryx OS</tspan></text><text transform="translate(111.63052,217.94034) scale(0.33849,0.33849)" font-size="24" xml:space="preserve" fill="#000000" fill-rule="nonzero" stroke="#000000" stroke-width="0" stroke-linecap="butt" stroke-linejoin="miter" stroke-miterlimit="10" stroke-dasharray="" stroke-dashoffset="0" font-family="&quot;ヒラギノ角ゴ Pro W3&quot;, &quot;Hiragino Kaku Gothic Pro&quot;, Osaka, &quot;メイリオ&quot;, Meiryo, &quot;ＭＳ Ｐゴシック&quot;, &quot;MS PGothic&quot;" font-weight="bold" text-anchor="start" style="mix-blend-mode: normal"><tspan x="0" dy="0">System Name</tspan><tspan x="0" dy="28.799999999999997px">System Version</tspan><tspan x="0" dy="28.799999999999997px">Kernel Version</tspan><tspan x="0" dy="28.799999999999997px">Website</tspan></text><text transform="translate(111.1903,263.8782) scale(0.39086,0.39086)" font-size="24" xml:space="preserve" fill="#000000" fill-rule="nonzero" stroke="#000000" stroke-width="0" stroke-linecap="butt" stroke-linejoin="miter" stroke-miterlimit="10" stroke-dasharray="" stroke-dashoffset="0" font-family="Sans Serif" font-weight="bold" text-anchor="start" style="mix-blend-mode: normal"><tspan x="0" dy="0">What is Oryx OS?</tspan></text><text transform="translate(111.6903,276.74719) scale(0.32146,0.32146)" font-size="24" xml:space="preserve" fill="#7a7a7a" fill-rule="nonzero" stroke="#000000" stroke-width="0" stroke-linecap="butt" stroke-linejoin="miter" stroke-miterlimit="10" stroke-dasharray="" stroke-dashoffset="0" font-family="Sans Serif" font-weight="bold" text-anchor="start" style="mix-blend-mode: normal"><tspan x="0" dy="0">Oryx OS is an elegant, beautiful and easy-to-use OS. Our goal is to </tspan><tspan x="0" dy="28.799999999999997px">provide users with a comfortable and beautiful user interface design.</tspan></text><text transform="translate(186.13975,217.32877) scale(0.3676,0.34609)" font-size="24" xml:space="preserve" fill="#333333" fill-rule="nonzero" stroke="#a8a8a8" stroke-width="1" stroke-linecap="butt" stroke-linejoin="miter" stroke-miterlimit="10" stroke-dasharray="" stroke-dashoffset="0" font-family="Sans Serif" font-weight="400" text-anchor="start" style="mix-blend-mode: normal"><tspan x="0" dy="0">Oryx OS</tspan><tspan x="0" dy="28.799999999999997px">0.2.1</tspan><tspan x="0" dy="28.799999999999997px">Cobalt 0.7</tspan><tspan x="0" dy="28.799999999999997px">Coming soon</tspan></text><path d="M238.96432,120.79619c2.3723,-0.10139 7.70045,-0.39056 10.50885,-7.18509c2.83488,-6.85858 -2.83841,-11.31671 -2.83841,-11.31671c0,0 -3.81385,-4.30164 -4.86312,-7.93664c-1.04926,-3.635 0.12803,-8.30851 0.12803,-8.30851c0,0 0.34644,0.03337 0.52862,0.0544c2.64144,0.30479 6.51542,1.24313 10.35593,3.94786c3.31696,2.33598 7.44831,6.37277 9.12268,11.77788c4.47132,12.63137 -2.2679,24.00191 -9.81403,28.38949c-15.67945,9.11655 -28.55676,-0.54815 -32.40171,-6.85081c-8.2965,-13.59971 -2.27684,-25.42024 2.61649,-30.27125c4.67256,-4.63215 10.40091,-6.2369 13.81438,-6.79287c0.17635,-0.02874 0.50997,-0.07801 0.50997,-0.07801c0,0 1.81624,3.97443 -0.21966,9.14515c-2.10535,5.34707 -5.34145,8.01005 -5.34145,8.01005c0,0 -4.35668,4.91099 -0.91198,11.80329c2.14182,4.28543 7.0773,5.68566 8.80537,5.61182z" fill="#005dc8" fill-rule="nonzero" stroke="none" stroke-width="0" stroke-linecap="butt" stroke-linejoin="miter"/><text transform="translate(181.25005,310.51311) scale(0.19551,0.19551)" font-size="40" xml:space="preserve" fill="#7a7a7a" fill-rule="nonzero" stroke="none" stroke-width="1" stroke-linecap="butt" stroke-linejoin="miter" stroke-miterlimit="10" stroke-dasharray="" stroke-dashoffset="0" font-family="Sans Serif" font-weight="normal" text-anchor="start" style="mix-blend-mode: normal"><tspan x="0" dy="0">Oryx OS is by @omar_BESTcoder</tspan></text><g fill-rule="nonzero" stroke-linejoin="miter"><path d="M361.68799,58.7359c0,-3.85021 3.12119,-6.9714 6.9714,-6.9714c3.85021,0 6.9714,3.12119 6.9714,6.9714c0,3.85021 -3.12118,6.9714 -6.9714,6.9714c-3.85021,0 -6.9714,-3.12119 -6.9714,-6.9714z" fill="#ff4848" stroke="#ff3535" stroke-width="0" stroke-linecap="butt"/><path d="M371.21167,61.27368l-5.12381,-5.12381" fill="none" stroke="#ffffff" stroke-width="1.5" stroke-linecap="round"/><path d="M371.21164,56.14989l-5.12381,5.12381" data-paper-data="{&quot;index&quot;:null}" fill="none" stroke="#ffffff" stroke-width="1.5" stroke-linecap="round"/></g><path d="M213.55105,161.87139c-1.43317,0 -2.57154,-0.39004 -3.41512,-1.17012c-0.84357,-0.78915 -1.26536,-1.91845 -1.26536,-3.3879v-2.72121c0,-1.46038 0.42179,-2.58515 1.26536,-3.3743c0.84357,-0.78915 1.98195,-1.18373 3.41512,-1.18373c1.4241,0 2.55794,0.39458 3.40151,1.18373c0.84357,0.78915 1.26536,1.91391 1.26536,3.3743v2.72121c0,1.46945 -0.42179,2.59875 -1.26536,3.3879c-0.84357,0.78008 -1.97741,1.17012 -3.40151,1.17012zM213.55105,159.95293c0.79822,0 1.41957,-0.2313 1.86403,-0.69391c0.44446,-0.47167 0.6667,-1.09755 0.6667,-1.87763v-2.85727c0,-0.78008 -0.22223,-1.40142 -0.6667,-1.86403c-0.44446,-0.47167 -1.06581,-0.70751 -1.86403,-0.70751c-0.79822,0 -1.4241,0.23584 -1.87763,0.70751c-0.44446,0.46261 -0.6667,1.08395 -0.6667,1.86403v2.85727c0,0.78008 0.22223,1.40596 0.6667,1.87763c0.45354,0.46261 1.07941,0.69391 1.87763,0.69391zM220.17916,161.64008v-8.05478h2.01369v0.9116h0.28573c0.11792,-0.32654 0.31294,-0.56692 0.58506,-0.72112c0.28119,-0.1542 0.60774,-0.2313 0.97963,-0.2313h0.96603v1.82321h-1.00685c-0.51703,0 -0.94335,0.1406 -1.27897,0.42179c-0.33561,0.27212 -0.50342,0.69391 -0.50342,1.26536v4.58524zM227.48321,164.89193v-1.796h4.38115c0.3084,0 0.46261,-0.15874 0.46261,-0.47621v-2.04091h-0.29933c-0.08164,0.19048 -0.2177,0.37643 -0.40818,0.55785c-0.18142,0.18142 -0.43086,0.33561 -0.74833,0.46261c-0.3084,0.11792 -0.70751,0.17688 -1.19733,0.17688c-0.62588,0 -1.17466,-0.14513 -1.64633,-0.43539c-0.47167,-0.29026 -0.83904,-0.68937 -1.10209,-1.19733c-0.25398,-0.50796 -0.38097,-1.09302 -0.38097,-1.75518v-4.80293h2.04091v4.63966c0,0.60774 0.14967,1.06581 0.449,1.37421c0.29933,0.29933 0.72566,0.449 1.27897,0.449c0.62588,0 1.11116,-0.20863 1.45585,-0.62588c0.34469,-0.41725 0.51703,-0.99778 0.51703,-1.74157v-4.09542h2.05451v9.48341c0,0.55331 -0.16327,0.99324 -0.48982,1.31979c-0.32654,0.33561 -0.7574,0.50342 -1.29257,0.50342zM235.8986,161.64008l2.9253,-4.06821l-2.89809,-3.98657h2.38106l1.83682,2.68039h0.28573l1.83682,-2.68039h2.36745l-2.88448,3.98657l2.9253,4.06821h-2.40827l-1.83682,-2.7076h-0.28573l-1.83682,2.7076zM254.71745,161.87139c-1.43317,0 -2.57154,-0.39004 -3.41512,-1.17012c-0.84357,-0.78915 -1.26536,-1.91845 -1.26536,-3.3879v-2.72121c0,-1.46038 0.42179,-2.58515 1.26536,-3.3743c0.84357,-0.78915 1.98195,-1.18373 3.41512,-1.18373c1.4241,0 2.55794,0.39458 3.40151,1.18373c0.84357,0.78915 1.26536,1.91391 1.26536,3.3743v2.72121c0,1.46945 -0.42179,2.59875 -1.26536,3.3879c-0.84357,0.78008 -1.97741,1.17012 -3.40151,1.17012zM254.71745,159.95293c0.79822,0 1.41957,-0.2313 1.86403,-0.69391c0.44446,-0.47167 0.6667,-1.09755 0.6667,-1.87763v-2.85727c0,-0.78008 -0.22223,-1.40142 -0.6667,-1.86403c-0.44446,-0.47167 -1.06581,-0.70751 -1.86403,-0.70751c-0.79822,0 -1.4241,0.23584 -1.87763,0.70751c-0.44446,0.46261 -0.6667,1.08395 -0.6667,1.86403v2.85727c0,0.78008 0.22223,1.40596 0.6667,1.87763c0.45354,0.46261 1.07941,0.69391 1.87763,0.69391zM265.22328,161.87139c-0.87986,0 -1.6554,-0.15874 -2.32663,-0.47621c-0.67123,-0.31748 -1.19733,-0.76648 -1.5783,-1.347c-0.3719,-0.58052 -0.55785,-1.2835 -0.55785,-2.10894v-0.46261h2.10894v0.46261c0,0.6803 0.20863,1.19279 0.62588,1.53748c0.42632,0.33561 1.00231,0.50342 1.72797,0.50342c0.73473,0 1.2835,-0.14513 1.64633,-0.43539c0.36283,-0.29026 0.54424,-0.66216 0.54424,-1.1157c0,-0.31748 -0.09071,-0.57145 -0.27212,-0.76194c-0.17234,-0.19955 -0.43086,-0.35829 -0.77554,-0.47621c-0.33561,-0.12699 -0.74833,-0.24491 -1.23815,-0.35376l-0.38097,-0.08164c-0.78008,-0.17234 -1.45131,-0.39004 -2.01369,-0.65309c-0.55331,-0.27212 -0.97963,-0.62588 -1.27897,-1.06127c-0.29026,-0.43539 -0.43539,-0.99778 -0.43539,-1.68715c0,-0.68937 0.16327,-1.27897 0.48982,-1.76879c0.33561,-0.49889 0.80276,-0.87986 1.40142,-1.14291c0.59867,-0.27212 1.30618,-0.40818 2.12254,-0.40818c0.80729,0 1.52841,0.1406 2.16336,0.42179c0.63495,0.27212 1.13384,0.68484 1.49666,1.23815c0.36283,0.54424 0.54424,1.22908 0.54424,2.05451v0.48982h-2.10894v-0.48982c0,-0.43539 -0.08617,-0.78461 -0.25851,-1.04767c-0.16327,-0.27212 -0.40364,-0.46714 -0.72112,-0.58506c-0.31748,-0.12699 -0.68937,-0.19048 -1.1157,-0.19048c-0.65309,0 -1.13384,0.12245 -1.44224,0.36736c-0.3084,0.24491 -0.46261,0.57599 -0.46261,0.99324c0,0.28119 0.07257,0.52157 0.2177,0.72112c0.14513,0.19048 0.36283,0.35376 0.65309,0.48982c0.29933,0.12699 0.67577,0.24037 1.1293,0.34015l0.36736,0.08164c0.81636,0.17234 1.52388,0.39458 2.12254,0.6667c0.59867,0.26305 1.06581,0.61681 1.40142,1.06127c0.33561,0.44446 0.50342,1.01592 0.50342,1.71436c0,0.68937 -0.17688,1.29711 -0.53064,1.82321c-0.34469,0.5261 -0.83904,0.93882 -1.48306,1.23815c-0.64402,0.29933 -1.40596,0.449 -2.28581,0.449z" fill="#005dc8" fill-rule="nonzero" stroke="none" stroke-width="1" stroke-linecap="square" stroke-linejoin="miter"/></g></g></svg>