<svg version="1.1" xmlns="http://www.w3.org/2000/svg" xmlns:xlink="http://www.w3.org/1999/xlink" width="41.43221" height="39.20699" viewBox="0,0,41.43221,39.20699"><g transform="translate(-223.03431,-163.95621)"><g data-paper-data="{&quot;isPaintingLayer&quot;:true}" stroke-miterlimit="10" stroke-dasharray="" stroke-dashoffset="0" style="mix-blend-mode: normal"><path d="M230.53433,171.45621c0,0 2.09597,0 2.65304,0c5.6473,0 23.77915,0 23.77915,0v24.20699h-26.43221z" fill="#3f3f3f" fill-rule="nonzero" stroke="#3f3f3f" stroke-width="15" stroke-linecap="round" stroke-linejoin="round"/><text transform="translate(226.77125,195.11035) scale(0.15311,0.15311)" font-size="40" xml:space="preserve" fill="#ffffff" fill-rule="nonzero" stroke="none" stroke-width="1" stroke-linecap="butt" stroke-linejoin="miter" stroke-miterlimit="10" stroke-dasharray="" stroke-dashoffset="0" font-family="Sans Serif" font-weight="normal" text-anchor="start" style="mix-blend-mode: normal"><tspan x="0" dy="0">Click Effects</tspan></text><path d="M241.01438,181.51312c-0.37962,0.42318 -1.08532,0.15669 -1.08532,-0.41083v-9.53444c0,-0.53668 0.64472,-0.81675 1.04301,-0.4528l7.03968,6.42661c0.41696,0.38 0.14563,1.06967 -0.42193,1.06967h-2.85992l1.13167,2.52255c0.22543,0.50304 0.00506,1.09696 -0.49393,1.32608c-0.49899,0.22783 -1.08663,0.00512 -1.31208,-0.4992l-1.14487,-2.55089z" fill="#ffffff" fill-rule="evenodd" stroke="none" stroke-width="1" stroke-linecap="butt" stroke-linejoin="miter"/></g></g></svg>