<svg version="1.1" xmlns="http://www.w3.org/2000/svg" xmlns:xlink="http://www.w3.org/1999/xlink" width="17.773" height="28.946" viewBox="0,0,17.773,28.946"><g transform="translate(-240.336,-151.931)"><g data-paper-data="{&quot;isPaintingLayer&quot;:true}" fill="#ffffff" fill-rule="nonzero" stroke="none" stroke-width="1" stroke-linecap="butt" stroke-linejoin="miter" stroke-miterlimit="10" stroke-dasharray="" stroke-dashoffset="0" style="mix-blend-mode: normal"><path d="M241.859,179.939v-3.086c1.563,0.886 3.217,1.328 4.961,1.328c2.539,0 4.515,-1.022 5.928,-3.066c1.413,-2.044 2.119,-4.948 2.119,-8.711c-0.026,0.013 -0.052,0.013 -0.078,0c-1.198,2.409 -3.281,3.613 -6.25,3.613c-2.396,0 -4.362,-0.814 -5.898,-2.441c-1.537,-1.628 -2.305,-3.724 -2.305,-6.289c0,-2.735 0.843,-4.977 2.529,-6.729c1.686,-1.751 3.845,-2.627 6.475,-2.627c2.76,0 4.912,1.091 6.455,3.272c1.543,2.181 2.314,5.355 2.314,9.521c0,5.17 -1.002,9.154 -3.007,11.953c-2.006,2.8 -4.792,4.2 -8.36,4.2c-1.875,0 -3.502,-0.313 -4.883,-0.938zM249.047,154.646c-1.55,0 -2.842,0.583 -3.877,1.748c-1.035,1.166 -1.553,2.647 -1.553,4.444c0,1.966 0.508,3.512 1.524,4.638c1.015,1.127 2.389,1.69 4.121,1.69c1.51,0 2.789,-0.515 3.838,-1.543c1.048,-1.029 1.572,-2.285 1.572,-3.77c0,-2.122 -0.521,-3.854 -1.563,-5.195c-1.041,-1.341 -2.395,-2.012 -4.062,-2.012z"/></g></g></svg>