<svg version="1.1" xmlns="http://www.w3.org/2000/svg" xmlns:xlink="http://www.w3.org/1999/xlink" width="68.21252" height="51.16078" viewBox="0,0,68.21252,51.16078"><defs><linearGradient x1="674.42892" y1="1039.44745" x2="732.90552" y2="967.90465" gradientUnits="userSpaceOnUse" id="color-1"><stop offset="0" stop-color="#db0658"/><stop offset="1" stop-color="#ee7026"/></linearGradient><linearGradient x1="895.58045" y1="1035.87745" x2="962.55365" y2="961.26445" gradientUnits="userSpaceOnUse" id="color-2"><stop offset="0" stop-color="#ff6e1a"/><stop offset="1" stop-color="#edc307"/></linearGradient><linearGradient x1="1113.87597" y1="1045.73065" x2="1174.70873" y2="960.33625" gradientUnits="userSpaceOnUse" id="color-3"><stop offset="0" stop-color="#0e7b8a"/><stop offset="1" stop-color="#05b87c"/></linearGradient><linearGradient x1="1333.81365" y1="1043.51725" x2="1393.07569" y2="966.61945" gradientUnits="userSpaceOnUse" id="color-4"><stop offset="0" stop-color="#1684d9"/><stop offset="1" stop-color="#06c1cf"/></linearGradient><linearGradient x1="668.07395" y1="1219.65041" x2="738.11772" y2="1155.81881" gradientUnits="userSpaceOnUse" id="color-5"><stop offset="0" stop-color="#5114c4"/><stop offset="1" stop-color="#9906cf"/></linearGradient><linearGradient x1="891.51065" y1="1226.50481" x2="955.41365" y2="1146.46541" gradientUnits="userSpaceOnUse" id="color-6"><stop offset="0" stop-color="#009e91"/><stop offset="1" stop-color="#2ee631"/></linearGradient></defs><g transform="translate(-157.45176,-64.72192)"><g data-paper-data="{&quot;isPaintingLayer&quot;:true}" fill-rule="nonzero" stroke="none" stroke-width="1" stroke-linecap="butt" stroke-linejoin="miter" stroke-miterlimit="10" stroke-dasharray="" stroke-dashoffset="0" style="mix-blend-mode: normal"><path d="M220.18732,115.88269h-57.25859c-1.45348,0.00295 -2.84828,-0.57313 -3.87605,-1.6009c-1.02777,-1.02777 -1.60386,-2.42257 -1.60091,-3.87606v-40.20685c0,-3.02484 2.45212,-5.47696 5.47696,-5.47696h57.25859c3.02484,0 5.47696,2.45211 5.47696,5.47696v40.20685c0.00147,1.45303 -0.57509,2.84698 -1.60254,3.87442c-1.02744,1.02744 -2.42139,1.60401 -3.87442,1.60254z" fill="#ffffff"/><path d="M164.27561,74.26225c0,-1.97165 1.59835,-3.57 3.57,-3.57c1.97165,0 3.57,1.59835 3.57,3.57c0,1.97165 -1.59835,3.57 -3.57,3.57c-1.97165,0 -3.57,-1.59835 -3.57,-3.57z" fill="url(#color-1)"/><path d="M180.15231,74.26225c0,-1.97165 1.59835,-3.57 3.57,-3.57c1.97165,0 3.57,1.59835 3.57,3.57c0,1.97165 -1.59835,3.57 -3.57,3.57c-1.97165,0 -3.57,-1.59835 -3.57,-3.57z" fill="url(#color-2)"/><path d="M196.02883,74.26225c0,-1.97165 1.59835,-3.57 3.57,-3.57c1.97165,0 3.57,1.59835 3.57,3.57c0,1.97165 -1.59835,3.57 -3.57,3.57c-1.97165,0 -3.57,-1.59835 -3.57,-3.57z" fill="url(#color-3)"/><path d="M211.90538,74.26225c0,-1.97165 1.59835,-3.57 3.57,-3.57c1.97165,0 3.57,1.59835 3.57,3.57c0,1.97165 -1.59835,3.57 -3.57,3.57c-1.97165,0 -3.57,-1.59835 -3.57,-3.57z" fill="url(#color-4)"/><path d="M164.27561,87.38921c0,-1.97165 1.59835,-3.57 3.57,-3.57c1.97165,0 3.57,1.59835 3.57,3.57c0,1.97165 -1.59835,3.57 -3.57,3.57c-1.97165,0 -3.57,-1.59835 -3.57,-3.57z" fill="url(#color-5)"/><path d="M180.15231,87.38921c0,-1.97165 1.59835,-3.57 3.57,-3.57c1.97165,0 3.57,1.59835 3.57,3.57c0,1.97165 -1.59835,3.57 -3.57,3.57c-1.97165,0 -3.57,-1.59835 -3.57,-3.57z" fill="url(#color-6)"/></g></g></svg>