<svg version="1.1" xmlns="http://www.w3.org/2000/svg" xmlns:xlink="http://www.w3.org/1999/xlink" width="29.71795" height="29.09296" viewBox="0,0,29.71795,29.09296"><g transform="translate(-225.14103,-165.20352)"><g data-paper-data="{&quot;isPaintingLayer&quot;:true}" stroke-miterlimit="10" stroke-dasharray="" stroke-dashoffset="0" style="mix-blend-mode: normal"><path d="M225.14103,169.25007c0,-2.23485 1.85062,-4.04655 4.13348,-4.04655h21.45101c1.09626,0 2.14763,0.42634 2.92281,1.18521c0.77516,0.75887 1.21065,1.78812 1.21065,2.86133v20.99987c0,2.23485 -1.85061,4.04655 -4.13346,4.04655h-21.45101c-2.28286,0 -4.13348,-1.8117 -4.13348,-4.04655z" fill-opacity="0.00784" fill="#3d3d3d" fill-rule="evenodd" stroke="none" stroke-width="1" stroke-linecap="square" stroke-linejoin="miter"/><path d="M234.00373,184.62157c0,0 0,-0.75276 0,-0.95285c0,-2.02823 0,-8.54029 0,-8.54029h4.1176c0,0 0,6.04245 0,7.71137c0,0.80222 0,1.78176 0,1.78176z" fill="#ffffff" fill-rule="nonzero" stroke="#ffffff" stroke-width="2" stroke-linecap="round" stroke-linejoin="round"/><path d="M247.4341,178.4338c0,0 -0.39593,0 -0.50117,0c-1.0668,0 -4.49197,0 -4.49197,0v-1.9926c0,0 3.17817,0 4.05597,0c0.42195,0 0.93716,0 0.93716,0z" fill="#ffffff" fill-rule="nonzero" stroke="#ffffff" stroke-width="2" stroke-linecap="round" stroke-linejoin="round"/><path d="M247.4341,184.0588c0,0 -0.39593,0 -0.50117,0c-1.0668,0 -4.49196,0 -4.49196,0v-1.9926c0,0 3.17817,0 4.05597,0c0.42194,0 0.93715,0 0.93715,0z" fill="#ffffff" fill-rule="nonzero" stroke="#ffffff" stroke-width="2" stroke-linecap="round" stroke-linejoin="round"/></g></g></svg>