<svg version="1.1" xmlns="http://www.w3.org/2000/svg" xmlns:xlink="http://www.w3.org/1999/xlink" width="14.66795" height="42.63174" viewBox="0,0,14.66795,42.63174"><g transform="translate(-232.16607,-142.80912)"><g data-paper-data="{&quot;isPaintingLayer&quot;:true}" stroke="none" stroke-width="1" stroke-linejoin="miter" stroke-miterlimit="10" stroke-dasharray="" stroke-dashoffset="0" style="mix-blend-mode: normal"><path d="M238.61519,177.02361v5.28955c0.00002,0.14522 -0.08324,0.27759 -0.21412,0.34049c-0.13089,0.06291 -0.28626,0.04519 -0.39964,-0.04554l-1.78558,-1.42847h-0.62268c-0.62571,-0.00062 -1.13281,-0.50765 -1.13353,-1.13336v-0.75579c0.00072,-0.6257 0.50781,-1.13273 1.13353,-1.13336h0.62316l1.78559,-1.42847c0.11338,-0.09045 0.26855,-0.10796 0.39925,-0.0451c0.13071,0.06286 0.21388,0.19501 0.21402,0.34005zM241.79679,179.66676l0.86356,-0.86357c0.14752,-0.14752 0.14752,-0.38671 0,-0.53422c-0.14752,-0.14752 -0.3867,-0.14752 -0.53422,0l-0.86503,0.86374l-0.86747,-0.86568c-0.14792,-0.14743 -0.38736,-0.14702 -0.53478,0.00089c-0.14743,0.14792 -0.14703,0.38734 0.00089,0.53477l0.86699,0.86504l-0.86666,0.8665c-0.14752,0.14752 -0.14752,0.38669 0,0.53421c0.14752,0.14752 0.38669,0.14752 0.53421,0l0.86714,-0.86713l0.85806,0.85626c0.14792,0.14743 0.38736,0.14703 0.53478,-0.00089c0.14743,-0.14792 0.14703,-0.38736 -0.00089,-0.53479z" fill="#3d3d3d" fill-rule="nonzero" stroke-linecap="butt"/><path d="M232.16608,148.73878c0,-3.27488 0.21348,-5.92966 0.4768,-5.92966h13.71435c0.12646,0 0.24773,0.62475 0.33715,1.73676c0.08942,1.11202 0.13965,2.62024 0.13965,4.19288v30.77244c0,3.27488 -0.21347,5.92966 -0.4768,5.92966h-13.71435c-0.26333,0 -0.4768,-2.6548 -0.4768,-5.92966z" fill-opacity="0.00784" fill="#3d3d3d" fill-rule="evenodd" stroke-linecap="square"/></g></g></svg>