<svg version="1.1" xmlns="http://www.w3.org/2000/svg" xmlns:xlink="http://www.w3.org/1999/xlink" width="18.399" height="30.079" viewBox="0,0,18.399,30.079"><g transform="translate(-239.57,-150.798)"><g data-paper-data="{&quot;isPaintingLayer&quot;:true}" fill="#ffffff" fill-rule="nonzero" stroke="none" stroke-width="1" stroke-linecap="butt" stroke-linejoin="miter" stroke-miterlimit="10" stroke-dasharray="" stroke-dashoffset="0" style="mix-blend-mode: normal"><path d="M242.852,177.517h-0.079v2.891h-3.203v-29.61h3.203v13.125h0.079c1.575,-2.656 3.88,-3.984 6.914,-3.984c2.565,0 4.573,0.895 6.025,2.686c1.452,1.79 2.178,4.189 2.178,7.197c0,3.346 -0.814,6.025 -2.442,8.037c-1.627,2.012 -3.854,3.018 -6.679,3.018c-2.644,0 -4.642,-1.12 -5.996,-3.36zM242.773,169.451v2.793c0,1.653 0.538,3.056 1.612,4.209c1.074,1.152 2.438,1.728 4.092,1.728c1.94,0 3.46,-0.742 4.56,-2.226c1.1,-1.485 1.65,-3.548 1.651,-6.192c-0.001,-2.226 -0.515,-3.971 -1.543,-5.234c-1.029,-1.263 -2.422,-1.895 -4.18,-1.895c-1.862,0 -3.36,0.648 -4.492,1.944c-1.133,1.295 -1.7,2.92 -1.7,4.873z"/></g></g></svg>