<svg version="1.1" xmlns="http://www.w3.org/2000/svg" xmlns:xlink="http://www.w3.org/1999/xlink" width="439.12475" height="282.08989" viewBox="0,0,439.12475,282.08989"><defs><linearGradient x1="69.12526" y1="179.59729" x2="69.12526" y2="225.70788" gradientUnits="userSpaceOnUse" id="color-1"><stop offset="0" stop-color="#4e44d9"/><stop offset="1" stop-color="#1667da"/></linearGradient><linearGradient x1="80.46118" y1="160.89156" x2="93.12263" y2="160.89156" gradientUnits="userSpaceOnUse" id="color-2"><stop offset="0" stop-color="#90e7d6"/><stop offset="1" stop-color="#2fc1ae"/></linearGradient><linearGradient x1="109.74077" y1="161.15534" x2="122.40219" y2="161.15534" gradientUnits="userSpaceOnUse" id="color-3"><stop offset="0" stop-color="#90e7d6"/><stop offset="1" stop-color="#2fc1ae"/></linearGradient><linearGradient x1="138.49275" y1="161.41912" x2="151.1542" y2="161.41912" gradientUnits="userSpaceOnUse" id="color-4"><stop offset="0" stop-color="#90e7d6"/><stop offset="1" stop-color="#33d6c1"/></linearGradient></defs><g transform="translate(-20.43762,-38.95506)"><g data-paper-data="{&quot;isPaintingLayer&quot;:true}" stroke-miterlimit="10" stroke-dasharray="" stroke-dashoffset="0" style="mix-blend-mode: normal"><path d="M27.93764,46.45506c0,0 33.63139,0 42.57014,0c90.6153,0 381.5546,0 381.5546,0v267.08989h-424.12475z" fill="#ffffff" fill-rule="nonzero" stroke="#ffffff" stroke-width="15" stroke-linecap="round" stroke-linejoin="round"/><path d="M73.86719,214.23438c0,-12.17288 0,-55.83855 0,-62.78644c0,-1.82383 1.16404,-3.35265 3.22648,-3.35265c14.7773,0 75.67573,0 84.99187,0c2.33853,0 4.28048,1.26618 4.28048,3.44891c0,12.43142 0,54.59321 0,61.89817c0,2.10843 -1.87621,3.93911 -4.15013,3.93911c-9.20461,0 -70.26059,0 -85.10186,0c-2.07519,0 -3.24682,-1.14951 -3.24682,-3.14709z" fill="#f9f9f9" fill-rule="nonzero" stroke="none" stroke-width="0" stroke-linecap="butt" stroke-linejoin="miter"/><path d="M87.97726,185.36117c0,0 0,8.28549 0,20.17336c0,11.88788 -18.85199,20.17336 -18.85199,20.17336c0,0 -18.85199,-8.28549 -18.85199,-20.17336c0,-11.88788 0,-20.17336 0,-20.17336c0,0 11.76683,1.68159 18.85199,-5.76381c7.08518,7.44543 18.85199,5.76381 18.85199,5.76381z" fill="url(#color-1)" fill-rule="nonzero" stroke="none" stroke-width="1" stroke-linecap="butt" stroke-linejoin="miter"/><path d="M79.67082,195.29957l-13.45278,14.77168" fill="none" fill-rule="nonzero" stroke="#ffffff" stroke-width="2.5" stroke-linecap="round" stroke-linejoin="miter"/><path d="M65.63395,209.82631l-5.2756,-5.87853" fill="none" fill-rule="nonzero" stroke="#ffffff" stroke-width="2.5" stroke-linecap="round" stroke-linejoin="miter"/><path d="M96.18848,189.16982v10.28742" fill="none" fill-rule="nonzero" stroke="#dadada" stroke-width="2.5" stroke-linecap="round" stroke-linejoin="miter"/><path d="M102.25542,200.77612v-14.24412" fill="none" fill-rule="nonzero" stroke="#dadada" stroke-width="2.5" stroke-linecap="round" stroke-linejoin="miter"/><path d="M108.05858,202.09504v-19.25594" fill="none" fill-rule="nonzero" stroke="#dadada" stroke-width="2.5" stroke-linecap="round" stroke-linejoin="miter"/><path d="M113.59792,187.05958v12.92522" fill="none" fill-rule="nonzero" stroke="#dadada" stroke-width="2.5" stroke-linecap="round" stroke-linejoin="miter"/><path d="M118.60974,198.40211v-7.9134" fill="none" fill-rule="nonzero" stroke="#dadada" stroke-width="2.5" stroke-linecap="round" stroke-linejoin="miter"/><path d="M123.88534,191.01626v5.80316" fill="none" fill-rule="nonzero" stroke="#dadada" stroke-width="2.5" stroke-linecap="round" stroke-linejoin="miter"/><path d="M130.17183,199.15718v-10.28742" fill="none" fill-rule="nonzero" stroke="#dadada" stroke-width="2.5" stroke-linecap="round" stroke-linejoin="miter"/><path d="M136.23879,186.75952v14.5079" fill="none" fill-rule="nonzero" stroke="#dadada" stroke-width="2.5" stroke-linecap="round" stroke-linejoin="miter"/><path d="M142.04196,202.58632v-18.20081" fill="none" fill-rule="nonzero" stroke="#dadada" stroke-width="2.5" stroke-linecap="round" stroke-linejoin="miter"/><path d="M146.52621,187.55084v12.39766" fill="none" fill-rule="nonzero" stroke="#dadada" stroke-width="2.5" stroke-linecap="round" stroke-linejoin="miter"/><path d="M152.32936,189.39731v8.70474" fill="none" fill-rule="nonzero" stroke="#dadada" stroke-width="2.5" stroke-linecap="round" stroke-linejoin="miter"/><path d="M80.46118,160.89156c0,-3.49636 2.83436,-6.33072 6.33072,-6.33072c3.49636,0 6.33072,2.83436 6.33072,6.33072c0,3.49636 -2.83436,6.33072 -6.33072,6.33072c-3.49636,0 -6.33072,-2.83436 -6.33072,-6.33072z" fill="url(#color-2)" fill-rule="nonzero" stroke="none" stroke-width="0" stroke-linecap="butt" stroke-linejoin="miter"/><path d="M109.74077,161.15534c0,-3.49636 2.83436,-6.33072 6.33072,-6.33072c3.49636,0 6.33072,2.83436 6.33072,6.33072c0,3.49636 -2.83436,6.33072 -6.33072,6.33072c-3.49636,0 -6.33072,-2.83436 -6.33072,-6.33072z" fill="url(#color-3)" fill-rule="nonzero" stroke="none" stroke-width="0" stroke-linecap="butt" stroke-linejoin="miter"/><path d="M138.49275,161.41912c0,-3.49636 2.83436,-6.33072 6.33072,-6.33072c3.49636,0 6.33072,2.83436 6.33072,6.33072c0,3.49636 -2.83436,6.33072 -6.33072,6.33072c-3.49636,0 -6.33072,-2.83436 -6.33072,-6.33072z" fill="url(#color-4)" fill-rule="nonzero" stroke="none" stroke-width="0" stroke-linecap="butt" stroke-linejoin="miter"/><path d="M83.70767,159.43057c0,-1.74819 1.41718,-3.16536 3.16536,-3.16536c1.74818,0 3.16536,1.41717 3.16536,3.16536c0,1.74819 -3.24653,5.9249 -3.24653,5.9249c0,0 -3.08419,-4.17672 -3.08419,-5.9249z" fill="#fafafa" fill-rule="nonzero" stroke="none" stroke-width="0" stroke-linecap="butt" stroke-linejoin="miter"/><path d="M85.65563,159.3494c0,-0.62755 0.50872,-1.13629 1.13628,-1.13629c0.62755,0 1.13629,0.50873 1.13629,1.13629c0,0.62755 -0.50874,1.13628 -1.13629,1.13628c-0.62755,0 -1.13628,-0.50872 -1.13628,-1.13628z" fill="#60d4c1" fill-rule="nonzero" stroke="none" stroke-width="0" stroke-linecap="butt" stroke-linejoin="miter"/><path d="M141.97263,165.3656v-5.80316h5.80316v5.80316z" fill="#ffffff" fill-rule="nonzero" stroke="none" stroke-width="0" stroke-linecap="butt" stroke-linejoin="miter"/><g fill-rule="evenodd" stroke="none" stroke-width="1" stroke-linecap="butt" stroke-linejoin="miter"><path d="M190.60968,128.7077c-6.87954,5.01928 -13.9245,9.83955 -21.13497,14.46077c0.10234,-9.92816 5.10799,-15.11918 15.01695,-15.57314c2.20732,-0.11449 4.24668,0.2563 6.11802,1.11237z" fill="#fedc00" opacity="0.954"/><path d="M190.60968,128.7077c4.49519,1.92423 7.46148,5.26133 8.89894,10.0113c-7.97195,5.19102 -15.94395,10.38211 -23.91589,15.57314c-0.54139,-0.27069 -1.09757,-0.54879 -1.66855,-0.83428c-1.03672,-1.49486 -2.1491,-2.88531 -3.3371,-4.17137c-0.88495,-1.92506 -1.25575,-3.96442 -1.11237,-6.11802c7.21047,-4.62122 14.25543,-9.44149 21.13497,-14.46077zM186.71639,134.82572c5.20054,-0.07486 6.68366,2.24254 4.44946,6.95229c-4.75192,1.84787 -6.88394,0.27203 -6.39611,-4.72756c0.3836,-1.02905 1.0325,-1.77066 1.94664,-2.22473z" fill="#fed800" opacity="0.967"/><path d="M199.50862,138.719c0.84974,13.88929 -5.63909,20.10003 -19.46643,18.63215c-0.77904,-0.22809 -1.5206,-0.50618 -2.22473,-0.83428c-0.74156,-0.74156 -1.48318,-1.48317 -2.22474,-2.22473c7.97195,-5.19102 15.94395,-10.38211 23.91589,-15.57314z" fill="#ffd300" opacity="0.969"/><path d="M170.58707,149.28649c1.18801,1.28607 2.30038,2.67652 3.3371,4.17137c0.57098,0.28549 1.12716,0.56358 1.66855,0.83428c0.74156,0.74156 1.48318,1.48317 2.22474,2.22473c-1.37016,1.09073 -2.6679,2.29581 -3.89328,3.61519c-2.87364,-0.09271 -4.26409,1.29774 -4.17138,4.17138c-0.86637,1.2612 -2.07145,1.9101 -3.61519,1.94664c-0.85152,4.00163 -3.26162,5.4848 -7.23039,4.44947c-2.5871,-1.6616 -3.42137,-3.97899 -2.50283,-6.95229c4.84007,-4.74703 9.56763,-9.5673 14.18268,-14.46077z" fill="#fcb600" opacity="0.949"/></g><path d="M144.61041,163.16752v-1.58268h0.52756v1.58268z" fill="#62dfcb" fill-rule="nonzero" stroke="none" stroke-width="0" stroke-linecap="butt" stroke-linejoin="miter"/><path d="M143.58828,159.23272c0,-0.78304 0.63478,-1.41782 1.41782,-1.41782c0.78304,0 1.41782,0.63478 1.41782,1.41782c0,0.78304 -0.63478,1.41782 -1.41782,1.41782c-0.78304,0 -1.41782,-0.63478 -1.41782,-1.41782z" fill="none" fill-rule="nonzero" stroke="#ffffff" stroke-width="0.5" stroke-linecap="butt" stroke-linejoin="miter"/><path d="M114.47056,164.26485c0.07318,0.04615 0.09494,0.14242 0.04879,0.2156l-0.31714,0.50637c-0.04615,0.07318 -0.14242,0.09494 -0.2156,0.04879c-0.07318,-0.04615 -0.09494,-0.14242 -0.04879,-0.2156l0.31714,-0.50637c0.04615,-0.07318 0.14242,-0.09495 0.2156,-0.04879zM112.45496,162.49981c-0.08374,0.02176 -0.16945,-0.02769 -0.19121,-0.11143c-0.02571,-0.0989 -0.04814,-0.19846 -0.06725,-0.29934c-0.01846,-0.10022 -0.03296,-0.19977 -0.04351,-0.29934c-0.0066,-0.06462 -0.01187,-0.13055 -0.01451,-0.19714c-0.00396,-0.07186 -0.00528,-0.13846 -0.00528,-0.19912c0,-1.1189 0.45363,-2.13165 1.18681,-2.86417c0.73253,-0.73318 1.74527,-1.18681 2.86417,-1.18681c1.1189,0 2.1323,0.45032 2.86615,1.18088c0.73253,0.72923 1.18484,1.73803 1.18484,2.85494c0,0.08637 -0.07054,0.15693 -0.15692,0.15693c-0.08637,0 -0.15693,-0.07054 -0.15693,-0.15693c0,-1.03121 -0.41736,-1.96088 -1.09187,-2.63274c-0.67648,-0.67384 -1.61142,-1.08923 -2.64527,-1.08923c-1.03186,0 -1.96615,0.41803 -2.64263,1.09451c-0.67583,0.67648 -1.09451,1.61077 -1.09451,2.64263c0,0.06857 0.00132,0.12989 0.00396,0.18461c0.00264,0.05999 0.00725,0.12 0.01319,0.18c0.00989,0.0923 0.02307,0.18395 0.04022,0.27494c0.01715,0.09033 0.03759,0.18198 0.06198,0.27561c0.02176,0.08374 -0.0277,0.16945 -0.11143,0.19121zM112.76749,163.71365c-0.0567,-0.06527 -0.04945,-0.16418 0.01583,-0.22088c0.03956,-0.03428 0.0745,-0.07517 0.10417,-0.12264c0.03099,-0.04879 0.0567,-0.10615 0.07714,-0.17142c0.10484,-0.33363 0.04154,-0.68176 -0.02242,-1.0345c-0.04351,-0.24 -0.08769,-0.48198 -0.08572,-0.7345c0.00791,-1.29231 0.81626,-2.34593 1.87384,-2.88593c0.44373,-0.22681 0.93297,-0.36263 1.42615,-0.38835c0.49517,-0.02571 0.99428,0.06131 1.45516,0.28022c1.02923,0.48923 1.86527,1.63451 2.03933,3.66264c0.00725,0.08637 -0.05736,0.16219 -0.14374,0.16945c-0.08637,0.00725 -0.16219,-0.05736 -0.16945,-0.14374c-0.16286,-1.89823 -0.9244,-2.95978 -1.86,-3.40483c-0.41274,-0.19648 -0.86044,-0.27362 -1.30549,-0.25121c-0.44769,0.02308 -0.8934,0.14769 -1.29956,0.35472c-0.96197,0.49055 -1.69648,1.4433 -1.70373,2.60769c-0.00132,0.22418 0.04022,0.45231 0.0811,0.67846c0.07121,0.39165 0.1411,0.77802 0.01384,1.18352c-0.02835,0.09099 -0.06593,0.17275 -0.11143,0.24527c-0.04615,0.07318 -0.10155,0.13714 -0.16418,0.19187c-0.06527,0.0567 -0.16418,0.04944 -0.22088,-0.01583zM119.49144,162.59277c0.08637,0 0.15692,0.07054 0.15692,0.15692v0.65803c0,0.08704 -0.07054,0.15692 -0.15692,0.15692c-0.08637,0 -0.15693,-0.07054 -0.15693,-0.15692v-0.65803c0,-0.08704 0.07054,-0.15692 0.15693,-0.15692zM113.23166,164.35517c-0.05737,-0.06462 -0.05143,-0.16351 0.01319,-0.22088c0.1945,-0.17143 0.33627,-0.39297 0.41802,-0.67055c0.0844,-0.28616 0.10549,-0.63362 0.05605,-1.04966c-0.09099,-0.44703 -0.10747,-0.85977 -0.05406,-1.23231c0.05538,-0.38967 0.18725,-0.73517 0.38835,-1.03055c0.04879,-0.07121 0.14638,-0.08967 0.21759,-0.04088c0.07121,0.04879 0.08966,0.14638 0.04087,0.21759c-0.17406,0.25517 -0.28813,0.55648 -0.33692,0.89802c-0.04814,0.33824 -0.03296,0.71473 0.05077,1.1255c0.00197,0.00791 0.00396,0.01583 0.00461,0.02374c0.05538,0.45956 0.02967,0.84924 -0.06659,1.17692c-0.0989,0.33627 -0.27231,0.60528 -0.51098,0.81626c-0.06462,0.05737 -0.16351,0.05143 -0.22088,-0.01319zM114.83188,159.59079c-0.04351,-0.07517 -0.0178,-0.17077 0.05737,-0.21428c0.17538,-0.10153 0.36263,-0.18198 0.55583,-0.24066c0.53011,-0.16087 1.10571,-0.15626 1.62923,0.02703c0.52616,0.18461 0.9989,0.54857 1.32066,1.10571c0.10747,0.18528 0.1978,0.39297 0.26769,0.62308c0.09956,0.32835 0.16747,0.69494 0.20241,1.0978c0.03428,0.39626 0.03626,0.83143 0.00593,1.30484c0,0.00461 -0.00065,0.00857 -0.00132,0.01319l-0.10945,1.08c-0.00857,0.08572 -0.08505,0.14901 -0.17143,0.14044c-0.08572,-0.00857 -0.14901,-0.08505 -0.14043,-0.17143l0.10945,-1.08132v-0.00065c0.029,-0.4556 0.02703,-0.87627 -0.00593,-1.25934c-0.03296,-0.38374 -0.09627,-0.72857 -0.18857,-1.03253c-0.06198,-0.20505 -0.14307,-0.39033 -0.23934,-0.55715c-0.28154,-0.48791 -0.69428,-0.80638 -1.15253,-0.96725c-0.46088,-0.16154 -0.96791,-0.1655 -1.43538,-0.02373c-0.16945,0.05274 -0.33363,0.12329 -0.48989,0.21363c-0.07517,0.04351 -0.17077,0.0178 -0.21428,-0.05736zM114.52001,163.94108c-0.08505,-0.01516 -0.14242,-0.09626 -0.12726,-0.18132c0.03626,-0.20308 0.0567,-0.43055 0.06395,-0.67846c0.00725,-0.25121 0.00132,-0.52616 -0.01583,-0.82022c-0.00329,-0.0633 -0.00923,-0.14176 -0.01451,-0.21824c-0.0356,-0.50044 -0.06395,-0.90395 0.22879,-1.42418c0.06462,-0.11472 0.14176,-0.22154 0.23407,-0.31912c0.0923,-0.09758 0.19846,-0.18593 0.31912,-0.26307c0.00791,-0.00528 0.01583,-0.00923 0.02439,-0.01252c0.17869,-0.08572 0.35604,-0.15231 0.53341,-0.19583c0.18264,-0.04483 0.36395,-0.06462 0.54264,-0.05472c0.08637,0.00461 0.15297,0.0778 0.14835,0.16418c-0.00461,0.08637 -0.0778,0.15297 -0.16418,0.14835c-0.14835,-0.00791 -0.29934,0.00857 -0.45296,0.04615c-0.15297,0.03758 -0.30989,0.09627 -0.46946,0.17274c-0.09692,0.06263 -0.18132,0.13252 -0.25319,0.20901c-0.07385,0.07846 -0.13648,0.16417 -0.18857,0.25781c-0.24659,0.43912 -0.22153,0.80044 -0.18989,1.24879c0.00461,0.06594 0.00923,0.13451 0.01451,0.22286c0.01715,0.29934 0.02308,0.58286 0.01583,0.84593c-0.00857,0.26769 -0.02967,0.51033 -0.06791,0.72461c-0.01516,0.08505 -0.09626,0.14242 -0.18132,0.12726zM116.85737,160.06222c0.04483,-0.07385 0.1411,-0.09692 0.21495,-0.05209c0.04814,0.02967 0.09494,0.06132 0.14044,0.0956c0.04483,0.03363 0.08901,0.07054 0.13319,0.11077c0.59737,0.54264 0.79978,1.41495 0.81297,2.32747c0.01252,0.88879 -0.15429,1.81582 -0.30725,2.49956c-0.01846,0.0844 -0.1022,0.1378 -0.1866,0.11868c-0.0844,-0.01846 -0.1378,-0.1022 -0.11868,-0.1866c0.14901,-0.66725 0.31253,-1.56989 0.3,-2.42835c-0.01187,-0.83473 -0.18989,-1.62528 -0.71143,-2.09934c-0.03626,-0.03296 -0.07385,-0.06395 -0.11143,-0.0923c-0.03758,-0.02967 -0.07582,-0.05538 -0.11407,-0.07846c-0.07385,-0.04483 -0.09692,-0.14176 -0.05209,-0.21495zM114.76001,165.27167c-0.07054,-0.05011 -0.08769,-0.1477 -0.03758,-0.21824c0.11077,-0.15626 0.2044,-0.32769 0.28088,-0.51362c0.07649,-0.18725 0.13583,-0.39098 0.1767,-0.61121c0.07649,-0.41077 0.04022,-0.93429 0.00528,-1.42879c-0.01187,-0.16681 -0.02308,-0.32967 -0.03032,-0.49714c-0.01055,-0.24462 -0.01516,-0.48462 0.03032,-0.70286c0.04945,-0.23803 0.15626,-0.44439 0.37055,-0.59473c0.04814,-0.03363 0.10022,-0.06396 0.15626,-0.08967c0.05605,-0.02571 0.11671,-0.04879 0.18198,-0.06726c0.04879,-0.01384 0.09692,-0.02505 0.14374,-0.03296c0.32109,-0.05473 0.5756,0.02835 0.77208,0.19977c0.1866,0.16286 0.31319,0.40286 0.39099,0.67516c0.02308,0.08176 0.04219,0.16681 0.05737,0.25384c0.00791,0.04747 0.01516,0.0956 0.02044,0.14374c0.00528,0.04747 0.00989,0.09626 0.01319,0.14638c0.03296,0.49714 0.0112,1.11758 -0.05605,1.72484c-0.06462,0.58219 -0.17143,1.15582 -0.31318,1.6022c-0.02637,0.08242 -0.11407,0.12791 -0.19648,0.1022c-0.08242,-0.02637 -0.12791,-0.11407 -0.1022,-0.19649c0.13451,-0.42396 0.23671,-0.97648 0.29934,-1.54154c0.06527,-0.59011 0.08637,-1.19077 0.05472,-1.67077c-0.00264,-0.04154 -0.00659,-0.08505 -0.01187,-0.12988c-0.00461,-0.04219 -0.01121,-0.0844 -0.01847,-0.12594c-0.01319,-0.07517 -0.02967,-0.14901 -0.04945,-0.22088c-0.06198,-0.21824 -0.15824,-0.40549 -0.29538,-0.52484c-0.12659,-0.11011 -0.29472,-0.16286 -0.5123,-0.12594c-0.03495,0.00593 -0.07186,0.01451 -0.11077,0.02571c-0.05077,0.01451 -0.09626,0.03099 -0.13648,0.05011c-0.04088,0.01912 -0.07714,0.03956 -0.10813,0.06131c-0.1378,0.09626 -0.20835,0.23671 -0.24263,0.40154c-0.03824,0.18396 -0.03363,0.4022 -0.0244,0.62572c0.0066,0.14835 0.01847,0.31714 0.03032,0.48989c0.0356,0.51297 0.07385,1.05561 -0.01055,1.50659c-0.04483,0.24066 -0.11011,0.46418 -0.19517,0.67252c-0.0844,0.20572 -0.18989,0.39758 -0.3145,0.57363c-0.05011,0.07054 -0.1477,0.08769 -0.21824,0.03758zM116.17826,161.25829c0.08505,-0.01583 0.16681,0.04088 0.18197,0.12593c0.07978,0.42989 0.11803,0.8644 0.11935,1.30088c0.00132,0.43451 -0.03428,0.87099 -0.10154,1.30813c-0.01319,0.08505 -0.09297,0.14374 -0.17868,0.13055c-0.08505,-0.01319 -0.14374,-0.09297 -0.13055,-0.17869c0.06527,-0.42066 0.09956,-0.84132 0.09824,-1.26c-0.00132,-0.41736 -0.03824,-0.83274 -0.11472,-1.24483c-0.01583,-0.08505 0.04088,-0.16681 0.12593,-0.18198zM116.05956,164.36506c0.0844,0.01846 0.1378,0.1022 0.11868,0.1866l-0.13714,0.6178c-0.01846,0.0844 -0.1022,0.1378 -0.1866,0.11868c-0.0844,-0.01846 -0.1378,-0.1022 -0.11868,-0.1866l0.13715,-0.61781c0.01846,-0.0844 0.1022,-0.1378 0.18659,-0.11868z" fill="#ffffff" fill-rule="nonzero" stroke="none" stroke-width="1" stroke-linecap="butt" stroke-linejoin="miter"/><g fill-rule="nonzero" stroke="none" stroke-width="1" stroke-linecap="butt" stroke-linejoin="miter" font-weight="normal" font-size="40" text-anchor="start"><text transform="translate(239.70759,72.58459) scale(0.32207,0.32207)" font-size="40" xml:space="preserve" fill="#000000" fill-rule="nonzero" stroke="none" stroke-width="1" stroke-linecap="butt" stroke-linejoin="miter" stroke-miterlimit="10" stroke-dasharray="" stroke-dashoffset="0" font-family="Sans Serif" font-weight="normal" text-anchor="start" style="mix-blend-mode: normal"><tspan x="0" dy="0">Let's Set a password</tspan></text><text transform="translate(241.9075,89.98393) scale(0.16461,0.16461)" font-size="40" xml:space="preserve" fill="#7f888f" fill-rule="nonzero" stroke="none" stroke-width="1" stroke-linecap="butt" stroke-linejoin="miter" stroke-miterlimit="10" stroke-dasharray="" stroke-dashoffset="0" font-family="&quot;ヒラギノ角ゴ Pro W3&quot;, &quot;Hiragino Kaku Gothic Pro&quot;, Osaka, &quot;メイリオ&quot;, Meiryo, &quot;ＭＳ Ｐゴシック&quot;, &quot;MS PGothic&quot;" font-weight="normal" text-anchor="start" style="mix-blend-mode: normal"><tspan x="0" dy="0">Make it super memorable for you but hard for ohers to </tspan><tspan x="0" dy="48px">guess. Don't use any emoji or special symbols - only letters </tspan><tspan x="0" dy="48px">and numbers.</tspan></text></g><g fill-rule="nonzero"><path d="M247.45661,190.03588c0,0 10.17837,0 12.88365,0c27.42427,0 115.47561,0 115.47561,0v10.31068h-128.35926z" fill="#f2f2f2" stroke="#f2f2f2" stroke-width="7.5" stroke-linecap="round" stroke-linejoin="round"/><text transform="translate(247.59029,197.47156) scale(0.15331,0.15331)" font-size="40" xml:space="preserve" fill="#7f888f" fill-rule="nonzero" stroke="none" stroke-width="1" stroke-linecap="butt" stroke-linejoin="miter" stroke-miterlimit="10" stroke-dasharray="" stroke-dashoffset="0" font-family="&quot;ヒラギノ角ゴ Pro W3&quot;, &quot;Hiragino Kaku Gothic Pro&quot;, Osaka, &quot;メイリオ&quot;, Meiryo, &quot;ＭＳ Ｐゴシック&quot;, &quot;MS PGothic&quot;" font-weight="normal" text-anchor="start" style="mix-blend-mode: normal"><tspan x="0" dy="0">Set Password</tspan></text></g></g></g></svg>