<svg version="1.1" xmlns="http://www.w3.org/2000/svg" xmlns:xlink="http://www.w3.org/1999/xlink" width="489.478" height="370.137" viewBox="0,0,489.478,370.137"><defs><linearGradient x1="240" y1="142.285" x2="240" y2="217.715" gradientUnits="userSpaceOnUse" id="color-1"><stop offset="0" stop-color="#e8735b"/><stop offset="1" stop-color="#e85f5f"/></linearGradient></defs><g transform="translate(0.0735,0.068)"><g data-paper-data="{&quot;isPaintingLayer&quot;:true}" fill-rule="nonzero" stroke="none" stroke-width="1" stroke-linecap="butt" stroke-linejoin="miter" stroke-miterlimit="10" stroke-dasharray="" stroke-dashoffset="0" style="mix-blend-mode: normal"><path d="M489.4035,357.123c0,4.421 -0.969,7.641 -2.963,9.84c-1.951,2.061 -5.018,3.106 -9.116,3.106h-465.4c-4.06,0 -7.107,-1.053 -9.058,-3.129c-1.978,-2.106 -2.94,-5.317 -2.94,-9.816v-344.246c0,-4.5 0.962,-7.709 2.94,-9.815c1.951,-2.078 5,-3.131 9.058,-3.131h465.4c4.1,0 7.166,1.045 9.116,3.106c1.995,2.2 2.964,5.417 2.964,9.839z" fill="#ffffff"/><path d="M277.715,194.36699c0,7.95955 -1.85722,13.77002 -5.67781,17.7498c-3.82059,3.97977 -9.57799,5.59822 -17.43141,5.59822h-29.37074c-7.77383,0 -13.61083,-1.91029 -17.32529,-5.65128c-3.71446,-3.74099 -5.62475,-9.57799 -5.62475,-17.69673v-28.73397c0,-8.11874 1.8307,-13.90268 5.62475,-17.69673c3.79405,-3.79405 9.55146,-5.65128 17.32529,-5.65128h29.37074c7.95955,0 13.71696,1.88376 17.43141,5.59822c3.71446,3.71446 5.67781,9.76372 5.67781,17.7498z" fill="url(#color-1)"/><path d="M254.68537,175.50285v14.99049c0.18936,2.25184 -0.52679,4.48624 -1.98988,6.20845c-1.69374,1.43694 -3.88845,2.14308 -6.10232,1.96335h-13.39857c-2.20564,0.17843 -4.39165,-0.52796 -6.07579,-1.96335c-1.4562,-1.72486 -2.16301,-3.95996 -1.96335,-6.20845v-14.99049c-0.19965,-2.24849 0.50715,-4.48359 1.96335,-6.20845c1.18868,-1.07616 2.69983,-1.72911 4.29816,-1.85722c0.25213,-4.51201 3.98442,-8.04156 8.50345,-8.04156c4.51903,0 8.25132,3.52953 8.50345,8.04156c1.59201,0.12191 3.09667,0.77611 4.27162,1.85722c1.4631,1.72221 2.17924,3.95662 1.98988,6.20845zM235.47632,167.33105h9.02082c-0.29153,-2.27468 -2.21721,-3.98513 -4.51041,-4.0063c-2.2932,0.02117 -4.21888,1.73163 -4.51041,4.0063z" fill="#ffffff"/></g></g></svg>