<svg version="1.1" xmlns="http://www.w3.org/2000/svg" xmlns:xlink="http://www.w3.org/1999/xlink" width="22.53522" height="28.02806" viewBox="0,0,22.53522,28.02806"><g transform="translate(-240,-152.39345)"><g data-paper-data="{&quot;isPaintingLayer&quot;:true}" fill="#ffffff" fill-rule="nonzero" stroke="none" stroke-width="1" stroke-linecap="butt" stroke-linejoin="miter" stroke-miterlimit="10" stroke-dasharray="" stroke-dashoffset="0" style="mix-blend-mode: normal"><path d="M240,180.408c0,-9.336 0,-18.672 0,-28.008c3.319,0.032 6.642,-0.076 9.957,0.083c3.729,0.259 7.707,1.507 10.044,4.604c2.407,3.197 2.803,7.444 2.394,11.307c-0.438,4.111 -2.89,7.945 -6.5,9.981c-2.98,1.76 -6.515,2.127 -9.911,2.033c-1.995,0 -3.989,0 -5.984,0zM243.281,155.369c0,7.357 0,14.713 0,22.07c3.214,-0.066 6.553,0.325 9.604,-0.933c3.181,-1.188 5.463,-4.2 5.974,-7.527c0.504,-3.233 0.335,-6.801 -1.504,-9.614c-1.919,-2.881 -5.533,-3.887 -8.822,-3.98c-1.75,-0.033 -3.501,-0.009 -5.252,-0.016z"/></g></g></svg>