<svg version="1.1" xmlns="http://www.w3.org/2000/svg" xmlns:xlink="http://www.w3.org/1999/xlink" width="720" height="540" viewBox="0,0,720,540"><defs><clipPath id="clip-1"><rect x="-240" y="-180" transform="scale(0.5,0.5)" width="1440" height="1080" fill="none" fill-rule="nonzero" stroke-width="0.5" stroke-linecap="butt"/></clipPath></defs><g transform="translate(120,90)"><g clip-path="url(#clip-1)" data-paper-data="{&quot;isPaintingLayer&quot;:true}" stroke="none" stroke-linejoin="miter" stroke-miterlimit="10" stroke-dasharray="" stroke-dashoffset="0" style="mix-blend-mode: normal"><path d="M-240,-180h960v720h-960z" fill-opacity="0" fill="#000000" fill-rule="evenodd" stroke-width="1" stroke-linecap="square"/><path d="M-184.61417,-4.80315h540.2835v42.01575h-540.2835z" fill-opacity="0" fill="#000000" fill-rule="evenodd" stroke-width="1" stroke-linecap="square"/><path d="M-149.23681,8.55435v13.5625h-2.1875l-6.39062,-9.23437h-0.10937v9.23438h-2.45312v-13.5625h2.1875l6.39063,9.25h0.125v-9.25zM-143.74482,22.31998c-0.64583,0 -1.22396,-0.11458 -1.73437,-0.34375c-0.51042,-0.22917 -0.91667,-0.57292 -1.21875,-1.03125c-0.30208,-0.45833 -0.45312,-1.02083 -0.45312,-1.6875c0,-0.57292 0.10417,-1.04687 0.3125,-1.42187c0.21875,-0.375 0.51042,-0.67187 0.875,-0.89062c0.36458,-0.22917 0.77604,-0.40104 1.23438,-0.51562c0.46875,-0.125 0.95313,-0.21354 1.45313,-0.26562c0.59375,-0.0625 1.07292,-0.11458 1.4375,-0.15625c0.375,-0.05208 0.64583,-0.13021 0.8125,-0.23437c0.17708,-0.11458 0.26563,-0.28646 0.26563,-0.51562v-0.04687c0,-0.5 -0.15104,-0.88542 -0.45312,-1.15625c-0.29167,-0.27083 -0.71875,-0.40625 -1.28125,-0.40625c-0.58333,0 -1.04687,0.13021 -1.39062,0.39063c-0.34375,0.25 -0.57292,0.54688 -0.6875,0.89063l-2.23437,-0.3125c0.16667,-0.61458 0.45313,-1.13021 0.85938,-1.54687c0.41667,-0.41667 0.91667,-0.72917 1.5,-0.9375c0.58333,-0.21875 1.23438,-0.32812 1.95313,-0.32812c0.48958,0 0.97396,0.05729 1.45313,0.17188c0.48958,0.11458 0.93229,0.30729 1.32813,0.57813c0.40625,0.26042 0.72917,0.61458 0.96875,1.0625c0.25,0.44792 0.375,1.01042 0.375,1.6875v6.8125h-2.29687v-1.39062h-0.07812c-0.14583,0.28125 -0.35417,0.54688 -0.625,0.79688c-0.26042,0.23958 -0.58854,0.43229 -0.98437,0.57813c-0.39583,0.14583 -0.85937,0.21875 -1.39062,0.21875zM-143.11982,20.55435c0.47917,0 0.89583,-0.09375 1.25,-0.28125c0.35417,-0.19792 0.625,-0.45312 0.8125,-0.76562c0.19792,-0.32292 0.29688,-0.67187 0.29688,-1.04687v-1.1875c-0.07292,0.0625 -0.19792,0.11979 -0.375,0.17188c-0.17708,0.05208 -0.38021,0.09896 -0.60937,0.14063c-0.21875,0.03125 -0.4375,0.0625 -0.65625,0.09375c-0.20833,0.03125 -0.39583,0.05729 -0.5625,0.07813c-0.35417,0.05208 -0.67187,0.13542 -0.95312,0.25c-0.28125,0.10417 -0.50521,0.25521 -0.67187,0.45313c-0.16667,0.19792 -0.25,0.45313 -0.25,0.76563c0,0.4375 0.16146,0.77083 0.48438,1c0.32292,0.21875 0.73438,0.32813 1.23438,0.32813zM-135.94717,22.11685v-10.17187h2.29688v1.71875h0.10938c0.21875,-0.58333 0.57292,-1.03646 1.0625,-1.35937c0.48958,-0.33333 1.07292,-0.5 1.75,-0.5c0.6875,0 1.26563,0.16667 1.73438,0.5c0.47917,0.33333 0.81771,0.78646 1.01563,1.35938h0.10938c0.21875,-0.5625 0.59375,-1.01042 1.125,-1.34375c0.54167,-0.34375 1.18229,-0.51562 1.92188,-0.51562c0.9375,0 1.70313,0.29688 2.29688,0.89063c0.59375,0.59375 0.89063,1.45833 0.89063,2.59375v6.82813h-2.40625v-6.45312c0,-0.63542 -0.17187,-1.09896 -0.51562,-1.39062c-0.33333,-0.29167 -0.73958,-0.4375 -1.21875,-0.4375c-0.58333,0 -1.03646,0.18229 -1.35937,0.54688c-0.32292,0.35417 -0.48437,0.81771 -0.48437,1.39063v6.34375h-2.35937v-6.5625c0,-0.52083 -0.15625,-0.9375 -0.46875,-1.25c-0.3125,-0.3125 -0.72396,-0.46875 -1.23437,-0.46875c-0.34375,0 -0.65625,0.08854 -0.9375,0.26563c-0.28125,0.16667 -0.51042,0.41146 -0.6875,0.73438c-0.16667,0.3125 -0.25,0.67708 -0.25,1.09375v6.1875zM-114.69872,22.31998c-1.02083,0 -1.90104,-0.21354 -2.64062,-0.64062c-0.73958,-0.42708 -1.30729,-1.03125 -1.70312,-1.8125c-0.39583,-0.79167 -0.59375,-1.71875 -0.59375,-2.78125c0,-1.04167 0.19792,-1.95833 0.59375,-2.75c0.40625,-0.80208 0.96875,-1.42187 1.6875,-1.85937c0.71875,-0.44792 1.5625,-0.67187 2.53125,-0.67187c0.625,0 1.21875,0.10417 1.78125,0.3125c0.5625,0.19792 1.05729,0.50521 1.48438,0.92188c0.42708,0.41667 0.76563,0.95313 1.01563,1.60938c0.25,0.64583 0.375,1.41146 0.375,2.29688v0.73438h-8.34376v-1.60937h6.04688c-0.01042,-0.45833 -0.11458,-0.86458 -0.3125,-1.21875c-0.1875,-0.36458 -0.45833,-0.65104 -0.8125,-0.85937c-0.34375,-0.20833 -0.74479,-0.3125 -1.20312,-0.3125c-0.48958,0 -0.92187,0.11979 -1.29687,0.35938c-0.36458,0.22917 -0.65104,0.53646 -0.85937,0.92188c-0.19792,0.38542 -0.30208,0.80208 -0.3125,1.25v1.42188c0,0.58333 0.10938,1.08854 0.32813,1.51563c0.21875,0.41667 0.52083,0.73958 0.90625,0.96875c0.38542,0.21875 0.83854,0.32813 1.35938,0.32813c0.35417,0 0.67188,-0.04687 0.95313,-0.14062c0.28125,-0.10417 0.52604,-0.25 0.73438,-0.4375c0.20833,-0.19792 0.36458,-0.44271 0.46875,-0.73437l2.23438,0.25c-0.13542,0.59375 -0.40104,1.11458 -0.79687,1.5625c-0.39583,0.4375 -0.90104,0.77604 -1.51563,1.01563c-0.61458,0.23958 -1.31771,0.35938 -2.10937,0.35938zM74.92436,13.13248h-2.48437c-0.0625,-0.40625 -0.19271,-0.76562 -0.39062,-1.07812c-0.1875,-0.32292 -0.42189,-0.59375 -0.70316,-0.8125c-0.28125,-0.21875 -0.60417,-0.38542 -0.96875,-0.5c-0.35417,-0.11458 -0.73958,-0.17187 -1.15625,-0.17187c-0.73958,0 -1.39583,0.1875 -1.96875,0.5625c-0.5625,0.36458 -1.00521,0.90104 -1.32812,1.60938c-0.32292,0.70833 -0.48437,1.57292 -0.48437,2.59375c0,1.03125 0.16146,1.90625 0.48438,2.625c0.32292,0.70833 0.76563,1.24479 1.32813,1.60938c0.57292,0.35417 1.22396,0.53125 1.95313,0.53125c0.40625,0 0.78646,-0.05208 1.14063,-0.15625c0.36458,-0.11458 0.6875,-0.27604 0.96875,-0.48437c0.28127,-0.21875 0.52086,-0.47917 0.71878,-0.78125c0.19792,-0.3125 0.33333,-0.66667 0.40625,-1.0625l2.48438,0.01563c-0.09375,0.63542 -0.29687,1.23958 -0.60937,1.8125c-0.30208,0.5625 -0.70312,1.0625 -1.20312,1.5c-0.48958,0.42708 -1.06772,0.76042 -1.73441,1c-0.65625,0.23958 -1.39062,0.35938 -2.20312,0.35938c-1.1875,0 -2.25,-0.27604 -3.1875,-0.82812c-0.9375,-0.55208 -1.67708,-1.34896 -2.21875,-2.39062c-0.53125,-1.04167 -0.79687,-2.29167 -0.79687,-3.75c0,-1.46875 0.27083,-2.71875 0.8125,-3.75c0.54167,-1.04167 1.28125,-1.83854 2.21875,-2.39062c0.9375,-0.55208 1.99479,-0.82812 3.17188,-0.82812c0.76042,0 1.46354,0.10417 2.10938,0.3125c0.64585,0.20833 1.22399,0.52083 1.73441,0.9375c0.51042,0.40625 0.92708,0.90625 1.25,1.5c0.33333,0.58333 0.55208,1.25521 0.65625,2.01563zM77.18809,22.11685v-13.5625h5.07813c1.04167,0 1.91667,0.19271 2.625,0.57813c0.70833,0.38542 1.24479,0.91667 1.60938,1.59375c0.36458,0.67708 0.54688,1.44792 0.54688,2.3125c0,0.875 -0.18229,1.65104 -0.54687,2.32813c-0.36458,0.66667 -0.90625,1.19792 -1.625,1.59375c-0.70833,0.38542 -1.58854,0.57813 -2.64062,0.57813h-3.375v-2.03125h3.04688c0.60417,0 1.09896,-0.10417 1.48438,-0.3125c0.39583,-0.20833 0.6875,-0.5 0.875,-0.875c0.1875,-0.375 0.28125,-0.80208 0.28125,-1.28125c0,-0.47917 -0.09375,-0.90104 -0.28125,-1.26562c-0.1875,-0.36458 -0.47917,-0.65104 -0.875,-0.85937c-0.38542,-0.20833 -0.88542,-0.3125 -1.5,-0.3125h-2.25v11.51563zM97.73979,8.55435h2.45313v8.85938c0,0.96875 -0.22917,1.82292 -0.6875,2.5625c-0.44792,0.73958 -1.08854,1.31771 -1.92187,1.73438c-0.82292,0.40625 -1.78646,0.60938 -2.89062,0.60938c-1.10417,0 -2.07292,-0.20312 -2.90625,-0.60937c-0.82292,-0.41667 -1.46354,-0.99479 -1.92187,-1.73437c-0.44792,-0.73958 -0.67187,-1.59375 -0.67187,-2.5625v-8.85937h2.45313v8.65625c0,0.5625 0.125,1.06771 0.375,1.51563c0.25,0.4375 0.59896,0.78125 1.04688,1.03125c0.45833,0.25 1,0.375 1.625,0.375c0.625,0 1.16667,-0.125 1.625,-0.375c0.45833,-0.25 0.80729,-0.59375 1.04688,-1.03125c0.25,-0.44792 0.375,-0.95312 0.375,-1.51562zM126.03544,22.11685v-13.5625h5.07813c1.04167,0 1.91667,0.18229 2.625,0.54688c0.70833,0.35417 1.24479,0.85938 1.60938,1.51563c0.36458,0.64583 0.54688,1.40104 0.54688,2.26563c0,0.875 -0.18229,1.63021 -0.54687,2.26563c-0.36458,0.63542 -0.90625,1.13021 -1.625,1.48438c-0.71875,0.34375 -1.59896,0.51563 -2.64062,0.51563h-3.625v-2.04687h3.29688c0.60417,0 1.09896,-0.08333 1.48438,-0.25c0.39583,-0.16667 0.6875,-0.41146 0.875,-0.73437c0.1875,-0.33333 0.28125,-0.74479 0.28125,-1.23437c0,-0.47917 -0.09375,-0.89062 -0.28125,-1.23437c-0.1875,-0.34375 -0.47917,-0.60417 -0.875,-0.78125c-0.38542,-0.17708 -0.88542,-0.26562 -1.5,-0.26562h-2.25v11.51563zM133.03544,15.97623l3.35938,6.14063h-2.73437l-3.29687,-6.14062zM139.90714,22.11685h-2.625l4.78125,-13.5625h3.03125l4.78125,13.5625h-2.625l-3.625,-10.78125h-0.09375zM140.00089,16.80435h7.15625v1.96875h-7.15625zM151.67488,8.55435h3l4.03125,9.82813h0.15625l4.03125,-9.82812h3v13.5625h-2.35937v-9.32812h-0.125l-3.75,9.28125h-1.75l-3.75,-9.29687h-0.125v9.34375h-2.35937zM196.33097,22.11685h-4.59375v-13.5625h4.6875c1.34375,0 2.5,0.27083 3.46875,0.8125c0.96875,0.54167 1.71354,1.31771 2.23438,2.32813c0.52083,1.01042 0.78125,2.21875 0.78125,3.625c0,1.41667 -0.26042,2.63542 -0.78125,3.65625c-0.52083,1.01042 -1.27604,1.78646 -2.26562,2.32813c-0.97917,0.54167 -2.15625,0.8125 -3.53125,0.8125zM194.19035,19.99185h2.01563c0.94792,0 1.73438,-0.17187 2.35938,-0.51562c0.63542,-0.35417 1.10938,-0.875 1.42188,-1.5625c0.32292,-0.6875 0.48438,-1.55208 0.48438,-2.59375c0,-1.04167 -0.16146,-1.90625 -0.48437,-2.59375c-0.3125,-0.6875 -0.78125,-1.19792 -1.40625,-1.53125c-0.61458,-0.34375 -1.38021,-0.51562 -2.29687,-0.51562h-2.09375zM207.70573,8.55435v13.5625h-2.45312v-13.5625zM217.75547,12.2731c-0.0625,-0.57292 -0.32292,-1.02083 -0.78125,-1.34375c-0.45833,-0.32292 -1.05208,-0.48437 -1.78125,-0.48437c-0.51042,0 -0.95312,0.07813 -1.32812,0.23438c-0.36458,0.15625 -0.64583,0.36458 -0.84375,0.625c-0.1875,0.26042 -0.28125,0.5625 -0.28125,0.90625c0,0.28125 0.0625,0.52604 0.1875,0.73438c0.13542,0.20833 0.3125,0.38542 0.53125,0.53125c0.22917,0.14583 0.47917,0.26563 0.75,0.35938c0.27083,0.09375 0.54688,0.17708 0.82813,0.25l1.28125,0.3125c0.51042,0.11458 1,0.27604 1.46875,0.48438c0.47917,0.19792 0.90625,0.45313 1.28125,0.76563c0.375,0.3125 0.67188,0.6875 0.89063,1.125c0.22917,0.4375 0.34375,0.94792 0.34375,1.53125c0,0.80208 -0.20312,1.50521 -0.60937,2.10938c-0.40625,0.59375 -0.99479,1.0625 -1.76562,1.40625c-0.76042,0.33333 -1.6875,0.5 -2.78125,0.5c-1.05208,0 -1.96875,-0.16146 -2.75,-0.48437c-0.77083,-0.33333 -1.375,-0.8125 -1.8125,-1.4375c-0.42708,-0.625 -0.66146,-1.39062 -0.70312,-2.29687h2.42188c0.03125,0.47917 0.17708,0.875 0.4375,1.1875c0.26042,0.3125 0.59375,0.54688 1,0.70313c0.41667,0.15625 0.88021,0.23438 1.39063,0.23438c0.53125,0 1,-0.07812 1.40625,-0.23437c0.40625,-0.16667 0.72396,-0.39583 0.95313,-0.6875c0.22917,-0.29167 0.34896,-0.63021 0.35938,-1.01562c-0.01042,-0.35417 -0.11979,-0.64583 -0.32812,-0.875c-0.19792,-0.23958 -0.47917,-0.4375 -0.84375,-0.59375c-0.36458,-0.15625 -0.79167,-0.29167 -1.28125,-0.40625l-1.53125,-0.40625c-1.125,-0.28125 -2.01042,-0.71354 -2.65625,-1.29687c-0.64583,-0.59375 -0.96875,-1.375 -0.96875,-2.34375c0,-0.80208 0.21875,-1.5 0.65625,-2.09375c0.4375,-0.60417 1.03125,-1.07292 1.78125,-1.40625c0.75,-0.33333 1.59896,-0.5 2.54688,-0.5c0.95833,0 1.80208,0.16667 2.53125,0.5c0.72917,0.33333 1.30208,0.79688 1.71875,1.39063c0.41667,0.58333 0.63021,1.25521 0.64063,2.01563zM222.49131,22.11685v-13.5625h2.45313v6.23438h0.17188l5.28125,-6.23437h3l-5.23437,6.07813l5.28125,7.48438h-2.95312l-4.04687,-5.8125l-1.5,1.76563v4.04688zM267.35191,12.88248c-0.10417,-0.35417 -0.25521,-0.67187 -0.45312,-0.95312c-0.1875,-0.29167 -0.41667,-0.53646 -0.6875,-0.73437c-0.26042,-0.20833 -0.56771,-0.36458 -0.92187,-0.46875c-0.34375,-0.10417 -0.71875,-0.15625 -1.125,-0.15625c-0.72917,0 -1.38021,0.18229 -1.95312,0.54688c-0.5625,0.36458 -1.00521,0.90104 -1.32812,1.60938c-0.32292,0.70833 -0.48437,1.57292 -0.48437,2.59375c0,1.02083 0.16146,1.89063 0.48438,2.60938c0.32292,0.70833 0.77083,1.25 1.34375,1.625c0.57292,0.36458 1.23958,0.54688 2,0.54688c0.6875,0 1.28125,-0.13021 1.78125,-0.39062c0.51042,-0.27083 0.90104,-0.65104 1.17188,-1.14062c0.28125,-0.48958 0.42188,-1.0625 0.42188,-1.71875l0.54688,0.07813h-3.67187v-1.92187h5.5v1.64063c0,1.15625 -0.25,2.16146 -0.75,3.01563c-0.48958,0.84375 -1.16667,1.49479 -2.03125,1.95313c-0.86458,0.45833 -1.85937,0.6875 -2.98437,0.6875c-1.25,0 -2.34896,-0.28125 -3.29687,-0.84375c-0.9375,-0.5625 -1.67187,-1.36458 -2.20312,-2.40625c-0.52083,-1.04167 -0.78125,-2.27604 -0.78125,-3.70312c0,-1.09375 0.15104,-2.07292 0.45313,-2.9375c0.3125,-0.86458 0.75,-1.59896 1.3125,-2.20312c0.5625,-0.60417 1.21875,-1.0625 1.96875,-1.375c0.76042,-0.3125 1.58333,-0.46875 2.46875,-0.46875c0.75,0 1.44792,0.10938 2.09375,0.32813c0.65625,0.21875 1.23438,0.53125 1.73438,0.9375c0.51042,0.39583 0.92708,0.86979 1.25,1.42188c0.33333,0.55208 0.55208,1.16146 0.65625,1.82813zM272.3589,22.11685v-13.5625h5.07813c1.04167,0 1.91667,0.19271 2.625,0.57813c0.70833,0.38542 1.24479,0.91667 1.60938,1.59375c0.36458,0.67708 0.54688,1.44792 0.54688,2.3125c0,0.875 -0.18229,1.65104 -0.54687,2.32813c-0.36458,0.66667 -0.90625,1.19792 -1.625,1.59375c-0.70833,0.38542 -1.58854,0.57813 -2.64062,0.57813h-3.375v-2.03125h3.04688c0.60417,0 1.09896,-0.10417 1.48438,-0.3125c0.39583,-0.20833 0.6875,-0.5 0.875,-0.875c0.1875,-0.375 0.28125,-0.80208 0.28125,-1.28125c0,-0.47917 -0.09375,-0.90104 -0.28125,-1.26562c-0.1875,-0.36458 -0.47917,-0.65104 -0.875,-0.85937c-0.38542,-0.20833 -0.88542,-0.3125 -1.5,-0.3125h-2.25v11.51563zM292.91059,8.55435h2.45313v8.85938c0,0.96875 -0.22917,1.82292 -0.6875,2.5625c-0.44792,0.73958 -1.08854,1.31771 -1.92187,1.73438c-0.82292,0.40625 -1.78646,0.60938 -2.89062,0.60938c-1.10417,0 -2.07292,-0.20312 -2.90625,-0.60937c-0.82292,-0.41667 -1.46354,-0.99479 -1.92187,-1.73437c-0.44792,-0.73958 -0.67187,-1.59375 -0.67187,-2.5625v-8.85937h2.45313v8.65625c0,0.5625 0.125,1.06771 0.375,1.51563c0.25,0.4375 0.59896,0.78125 1.04688,1.03125c0.45833,0.25 1,0.375 1.625,0.375c0.625,0 1.16667,-0.125 1.625,-0.375c0.45833,-0.25 0.80729,-0.59375 1.04688,-1.03125c0.25,-0.44792 0.375,-0.95312 0.375,-1.51562z" fill="#000000" fill-rule="nonzero" stroke-width="1" stroke-linecap="square"/><path d="M-168.61417,79.01312h540.2835v42.01575h-540.2835z" fill-opacity="0" fill="#000000" fill-rule="evenodd" stroke-width="1" stroke-linecap="square"/><path d="M-132.34952,92.36952v13.5625h-1.875l-6.90625,-9.95312h-0.125v9.95313h-2.04687v-13.5625h1.90625l6.89063,9.95313h0.14063v-9.95312zM-126.55741,106.15077c-0.64583,0 -1.22917,-0.11979 -1.75,-0.35937c-0.52083,-0.23958 -0.93229,-0.58854 -1.23437,-1.04687c-0.30208,-0.45833 -0.45312,-1.02083 -0.45312,-1.6875c0,-0.57292 0.10938,-1.04167 0.32813,-1.40625c0.21875,-0.375 0.51563,-0.67187 0.89063,-0.89062c0.375,-0.21875 0.79167,-0.38021 1.25,-0.48437c0.46875,-0.11458 0.94271,-0.20312 1.42188,-0.26562c0.61458,-0.0625 1.10938,-0.11458 1.48438,-0.15625c0.38542,-0.05208 0.66146,-0.13021 0.82813,-0.23437c0.17708,-0.11458 0.26563,-0.29167 0.26563,-0.53125v-0.04687c0,-0.57292 -0.16146,-1.01562 -0.48437,-1.32812c-0.32292,-0.32292 -0.80729,-0.48437 -1.45312,-0.48437c-0.66667,0 -1.19271,0.14583 -1.57812,0.4375c-0.375,0.29167 -0.63542,0.61979 -0.78125,0.98438l-1.85937,-0.4375c0.21875,-0.61458 0.54167,-1.10937 0.96875,-1.48437c0.42708,-0.38542 0.91667,-0.66667 1.46875,-0.84375c0.5625,-0.17708 1.14583,-0.26562 1.75,-0.26562c0.40625,0 0.83854,0.04688 1.29688,0.14063c0.45833,0.09375 0.88542,0.27083 1.28125,0.53125c0.40625,0.25 0.73438,0.60938 0.98438,1.07813c0.26042,0.45833 0.39063,1.0625 0.39063,1.8125v6.75h-1.9375v-1.39062h-0.07812c-0.125,0.26042 -0.31771,0.51563 -0.57812,0.76563c-0.25,0.23958 -0.57812,0.44271 -0.98437,0.60938c-0.39583,0.15625 -0.875,0.23438 -1.4375,0.23438zM-126.13554,104.57265c0.55208,0 1.02083,-0.10937 1.40625,-0.32812c0.39583,-0.21875 0.69271,-0.5 0.89063,-0.84375c0.20833,-0.35417 0.3125,-0.73437 0.3125,-1.14062v-1.3125c-0.0625,0.07292 -0.19792,0.14063 -0.40625,0.20313c-0.19792,0.05208 -0.42708,0.09896 -0.6875,0.14063c-0.25,0.04167 -0.5,0.08333 -0.75,0.125c-0.23958,0.03125 -0.44271,0.05729 -0.60937,0.07813c-0.375,0.05208 -0.72396,0.13542 -1.04687,0.25c-0.3125,0.11458 -0.5625,0.28125 -0.75,0.5c-0.1875,0.20833 -0.28125,0.48958 -0.28125,0.84375c0,0.48958 0.17708,0.85938 0.53125,1.10938c0.36458,0.25 0.82813,0.375 1.39063,0.375zM-118.906,105.93202v-10.17187h1.90625v1.65625h0.125c0.20833,-0.5625 0.55208,-1 1.03125,-1.3125c0.48958,-0.32292 1.06771,-0.48437 1.73438,-0.48437c0.6875,0 1.26042,0.16146 1.71875,0.48438c0.45834,0.3125 0.79688,0.75 1.01563,1.3125h0.10938c0.23958,-0.54167 0.625,-0.97396 1.15625,-1.29687c0.53125,-0.33333 1.16667,-0.5 1.90625,-0.5c0.91667,0 1.66667,0.29167 2.25,0.875c0.59375,0.57292 0.89063,1.44271 0.89063,2.60938v6.82813h-1.98437v-6.64062c0,-0.6875 -0.1875,-1.18229 -0.5625,-1.48437c-0.375,-0.3125 -0.82292,-0.46875 -1.34375,-0.46875c-0.64583,0 -1.15104,0.19792 -1.51562,0.59375c-0.35417,0.39583 -0.53125,0.90104 -0.53125,1.51563v6.48438h-1.96876v-6.76562c0,-0.55208 -0.17187,-0.99479 -0.51562,-1.32812c-0.34375,-0.33333 -0.79167,-0.5 -1.34375,-0.5c-0.375,0 -0.72396,0.09896 -1.04687,0.29688c-0.3125,0.1875 -0.56771,0.45833 -0.76562,0.8125c-0.1875,0.34375 -0.28125,0.74479 -0.28125,1.20313v6.28125zM-98.03192,106.13515c-1,0 -1.86458,-0.21354 -2.59375,-0.64062c-0.71875,-0.4375 -1.27604,-1.04687 -1.67187,-1.82812c-0.38542,-0.78125 -0.57812,-1.69792 -0.57812,-2.75c0,-1.04167 0.19271,-1.95833 0.57813,-2.75c0.39583,-0.80208 0.94271,-1.42708 1.64063,-1.875c0.70833,-0.44792 1.53646,-0.67187 2.48438,-0.67187c0.57292,0 1.13021,0.09896 1.67188,0.29688c0.54167,0.1875 1.02604,0.48438 1.45313,0.89063c0.42708,0.40625 0.76042,0.93229 1,1.57813c0.25,0.64583 0.375,1.43229 0.375,2.35938v0.70313h-8.07812v-1.48437h6.14063c0,-0.52083 -0.10937,-0.98437 -0.32812,-1.39062c-0.20833,-0.40625 -0.50521,-0.72396 -0.89062,-0.95312c-0.375,-0.23958 -0.81771,-0.35937 -1.32812,-0.35937c-0.5625,0 -1.05208,0.13542 -1.46875,0.40625c-0.40625,0.27083 -0.72396,0.625 -0.95312,1.0625c-0.21875,0.4375 -0.32812,0.90625 -0.32812,1.40625v1.17188c0,0.67708 0.11979,1.25521 0.35938,1.73438c0.25,0.47917 0.58854,0.84375 1.01563,1.09375c0.4375,0.23958 0.94271,0.35938 1.51563,0.35938c0.375,0 0.71875,-0.05208 1.03125,-0.15625c0.3125,-0.10417 0.57813,-0.26562 0.79688,-0.48437c0.22917,-0.21875 0.40104,-0.48437 0.51563,-0.79687l1.875,0.32813c-0.14583,0.55208 -0.41146,1.03646 -0.79687,1.45313c-0.38542,0.40625 -0.86979,0.72396 -1.45312,0.95313c-0.58333,0.22917 -1.24479,0.34375 -1.98437,0.34375zM102.84116,96.77577h-2.07812c-0.07292,-0.4375 -0.21875,-0.82292 -0.4375,-1.15625c-0.21875,-0.34375 -0.48437,-0.63021 -0.79687,-0.85937c-0.3125,-0.23958 -0.66146,-0.41667 -1.04687,-0.53125c-0.38542,-0.125 -0.79687,-0.1875 -1.23437,-0.1875c-0.78125,0 -1.47917,0.19792 -2.09375,0.59375c-0.61458,0.39583 -1.09896,0.97396 -1.45312,1.73438c-0.35417,0.76042 -0.53125,1.6875 -0.53125,2.78125c0,1.10417 0.17708,2.03646 0.53125,2.79688c0.35417,0.76042 0.83854,1.33333 1.45313,1.71875c0.625,0.38542 1.32292,0.57813 2.09375,0.57813c0.42708,0 0.83333,-0.05729 1.21875,-0.17187c0.38542,-0.11458 0.73438,-0.28646 1.04688,-0.51562c0.3125,-0.22917 0.57813,-0.51042 0.79688,-0.84375c0.21875,-0.33333 0.36979,-0.71875 0.45313,-1.15625l2.07813,0.01563c-0.11458,0.66667 -0.33333,1.28125 -0.65625,1.84375c-0.3125,0.55208 -0.71354,1.03125 -1.20312,1.4375c-0.48958,0.39583 -1.05208,0.70833 -1.6875,0.9375c-0.625,0.21875 -1.3125,0.32813 -2.0625,0.32813c-1.17708,0 -2.22396,-0.27604 -3.14062,-0.82812c-0.91667,-0.5625 -1.64062,-1.36458 -2.17187,-2.40625c-0.53125,-1.05208 -0.79687,-2.29687 -0.79687,-3.73437c0,-1.44792 0.26563,-2.69271 0.79688,-3.73437c0.53125,-1.04167 1.25521,-1.83854 2.17188,-2.39062c0.92708,-0.5625 1.97396,-0.84375 3.14063,-0.84375c0.71875,0 1.39063,0.10417 2.01563,0.3125c0.625,0.19792 1.1875,0.49479 1.6875,0.89063c0.5,0.39583 0.91146,0.88021 1.23438,1.45313c0.33333,0.5625 0.55729,1.20833 0.67188,1.9375zM105.28064,105.93202v-13.5625h4.84375c1.05208,0 1.92188,0.19271 2.60938,0.57813c0.69792,0.375 1.21875,0.89583 1.5625,1.5625c0.35417,0.66667 0.53125,1.41667 0.53125,2.25c0,0.83333 -0.17708,1.58333 -0.53125,2.25c-0.34375,0.66667 -0.86458,1.19271 -1.5625,1.57813c-0.69792,0.38542 -1.56771,0.57813 -2.60937,0.57813h-3.32812v-1.73437h3.14063c0.66667,0 1.20313,-0.11458 1.60938,-0.34375c0.41667,-0.23958 0.72396,-0.55729 0.92188,-0.95312c0.19792,-0.40625 0.29688,-0.86458 0.29688,-1.375c0,-0.51042 -0.09896,-0.96354 -0.29687,-1.35937c-0.19792,-0.40625 -0.50521,-0.71875 -0.92187,-0.9375c-0.41667,-0.22917 -0.96354,-0.34375 -1.64062,-0.34375h-2.57812v11.8125zM125.94034,92.36952h2.04688v8.92188c0,0.94792 -0.22396,1.78646 -0.67187,2.51563c-0.4375,0.72917 -1.0625,1.30208 -1.875,1.71875c-0.8125,0.41667 -1.76042,0.625 -2.84375,0.625c-1.08333,0 -2.03125,-0.20833 -2.84375,-0.625c-0.80208,-0.41667 -1.42708,-0.98958 -1.875,-1.71875c-0.44792,-0.72917 -0.67187,-1.56771 -0.67187,-2.51562v-8.92187h2.04688v8.75c0,0.61458 0.13542,1.16146 0.40625,1.64063c0.28125,0.47917 0.66667,0.85417 1.15625,1.125c0.5,0.27083 1.09375,0.40625 1.78125,0.40625c0.6875,0 1.28125,-0.13542 1.78125,-0.40625c0.51042,-0.27083 0.89583,-0.64583 1.15625,-1.125c0.27083,-0.47917 0.40625,-1.02604 0.40625,-1.64062zM155.67838,105.93202v-13.5625h4.84375c1.05208,0 1.92188,0.18229 2.60938,0.54688c0.69792,0.35417 1.21875,0.85417 1.5625,1.5c0.35417,0.63542 0.53125,1.36979 0.53125,2.20313c0,0.83333 -0.17708,1.5625 -0.53125,2.1875c-0.34375,0.625 -0.86458,1.11458 -1.5625,1.46875c-0.69792,0.34375 -1.56771,0.51563 -2.60937,0.51563h-3.67187v-1.75h3.48438c0.65625,0 1.19271,-0.09375 1.60938,-0.28125c0.41667,-0.19792 0.72396,-0.47396 0.92188,-0.82812c0.19792,-0.36458 0.29688,-0.80208 0.29688,-1.3125c0,-0.51042 -0.09896,-0.95312 -0.29687,-1.32812c-0.19792,-0.375 -0.50521,-0.66146 -0.92187,-0.85937c-0.41667,-0.20833 -0.96354,-0.3125 -1.64062,-0.3125h-2.57812v11.8125zM162.3815,99.80702l3.35938,6.125h-2.34375l-3.28125,-6.125zM168.86594,105.93202h-2.17187l4.875,-13.5625h2.375l4.875,13.5625h-2.17187l-3.84375,-11.10937h-0.09375zM169.22531,100.61952h7.04688v1.71875h-7.04687zM180.76792,92.36952h2.48438l4.32813,10.54688h0.15625l4.3125,-10.54687h2.48438v13.5625h-1.9375v-9.8125h-0.125l-4,9.79688h-1.625l-4,-9.8125h-0.125v9.82813h-1.95312zM226.63452,105.93202h-4.40625v-13.5625h4.53125c1.33333,0 2.47396,0.27083 3.42188,0.8125c0.95833,0.54167 1.69271,1.31771 2.20313,2.32813c0.51042,1 0.76563,2.20833 0.76563,3.625c0,1.40625 -0.26042,2.61979 -0.78125,3.64063c-0.51042,1.01042 -1.25,1.79167 -2.21875,2.34375c-0.96875,0.54167 -2.14062,0.8125 -3.51562,0.8125zM224.27515,104.15077h2.23438c1.04167,0 1.90104,-0.19792 2.57813,-0.59375c0.6875,-0.39583 1.19792,-0.96354 1.53125,-1.70312c0.34375,-0.73958 0.51563,-1.64583 0.51563,-2.71875c0,-1.07292 -0.17187,-1.97917 -0.51562,-2.71875c-0.33333,-0.73958 -0.83333,-1.30208 -1.5,-1.6875c-0.66667,-0.38542 -1.49479,-0.57812 -2.48437,-0.57812h-2.35937zM237.73752,92.36952v13.5625h-2.04687v-13.5625zM248.1254,95.93202c-0.07292,-0.625 -0.36458,-1.10937 -0.875,-1.45312c-0.51042,-0.35417 -1.15625,-0.53125 -1.9375,-0.53125c-0.55208,0 -1.03125,0.08854 -1.4375,0.26563c-0.40625,0.16667 -0.72396,0.40625 -0.95312,0.71875c-0.21875,0.30208 -0.32812,0.64063 -0.32812,1.01563c0,0.32292 0.07292,0.60417 0.21875,0.84375c0.15625,0.22917 0.35938,0.42188 0.60938,0.57813c0.25,0.15625 0.51563,0.28646 0.79688,0.39063c0.29167,0.10417 0.57292,0.19271 0.84375,0.26563l1.32813,0.34375c0.42708,0.10417 0.86458,0.25 1.3125,0.4375c0.45833,0.17708 0.88021,0.41667 1.26563,0.71875c0.39583,0.29167 0.71354,0.65625 0.95313,1.09375c0.23958,0.42708 0.35938,0.94792 0.35938,1.5625c0,0.77083 -0.19792,1.45313 -0.59375,2.04688c-0.39583,0.59375 -0.96875,1.0625 -1.71875,1.40625c-0.73958,0.34375 -1.64062,0.51563 -2.70312,0.51563c-1.02083,0 -1.90104,-0.15625 -2.64062,-0.46875c-0.73958,-0.32292 -1.32292,-0.78125 -1.75,-1.375c-0.41667,-0.60417 -0.64583,-1.3125 -0.6875,-2.125h2.0625c0.03125,0.48958 0.1875,0.89583 0.46875,1.21875c0.28125,0.32292 0.64063,0.56771 1.07813,0.73438c0.44792,0.15625 0.93229,0.23438 1.45313,0.23438c0.58333,0 1.09896,-0.09375 1.54688,-0.28125c0.44792,-0.1875 0.80208,-0.44271 1.0625,-0.76562c0.27083,-0.33333 0.40625,-0.71875 0.40625,-1.15625c0,-0.40625 -0.11458,-0.73437 -0.34375,-0.98437c-0.22917,-0.26042 -0.53646,-0.47396 -0.92187,-0.64062c-0.38542,-0.16667 -0.82292,-0.31771 -1.3125,-0.45312l-1.60937,-0.4375c-1.08333,-0.29167 -1.94271,-0.72396 -2.57812,-1.29687c-0.63542,-0.57292 -0.95312,-1.33333 -0.95312,-2.28125c0,-0.78125 0.21354,-1.46354 0.64063,-2.04687c0.42708,-0.58333 1,-1.03646 1.71875,-1.35937c0.72917,-0.32292 1.54688,-0.48437 2.45313,-0.48437c0.91667,0 1.72917,0.16146 2.4375,0.48438c0.70833,0.32292 1.26563,0.76563 1.67188,1.32813c0.40625,0.5625 0.61458,1.20833 0.625,1.9375zM252.72397,105.93202v-13.5625h2.04688v6.46875h0.17188l5.6875,-6.46875h2.57813l-5.46875,6.10938l5.48438,7.45313h-2.45312l-4.39062,-6.0625l-1.60937,1.84375v4.21875zM299.01905,96.65077c-0.125,-0.40625 -0.29687,-0.76562 -0.51562,-1.07812c-0.20833,-0.32292 -0.46354,-0.59896 -0.76562,-0.82812c-0.29167,-0.22917 -0.63021,-0.40104 -1.01562,-0.51562c-0.375,-0.125 -0.78646,-0.1875 -1.23437,-0.1875c-0.76042,0 -1.44792,0.19792 -2.0625,0.59375c-0.61458,0.39583 -1.09896,0.97396 -1.45312,1.73438c-0.35417,0.75 -0.53125,1.67188 -0.53125,2.76563c0,1.10417 0.17708,2.03646 0.53125,2.79688c0.35417,0.76042 0.84375,1.33854 1.46875,1.73438c0.625,0.38542 1.33333,0.57813 2.125,0.57813c0.73958,0 1.38542,-0.14583 1.9375,-0.4375c0.55208,-0.30208 0.97917,-0.72917 1.28125,-1.28125c0.30208,-0.55208 0.45313,-1.20312 0.45313,-1.95312l0.53125,0.10938h-3.89062v-1.6875h5.32813v1.53125c0,1.14583 -0.23958,2.14063 -0.71875,2.98438c-0.47917,0.83333 -1.14583,1.47917 -2,1.9375c-0.85417,0.44792 -1.82812,0.67188 -2.92187,0.67188c-1.22917,0 -2.30729,-0.28125 -3.23437,-0.84375c-0.91667,-0.57292 -1.63542,-1.375 -2.15625,-2.40625c-0.52083,-1.04167 -0.78125,-2.28125 -0.78125,-3.71875c0,-1.08333 0.15104,-2.05208 0.45313,-2.90625c0.30208,-0.86458 0.72396,-1.59896 1.26563,-2.20312c0.55208,-0.60417 1.19792,-1.0625 1.9375,-1.375c0.73958,-0.32292 1.54688,-0.48437 2.42188,-0.48437c0.73958,0 1.42188,0.10938 2.04688,0.32813c0.63542,0.20833 1.20313,0.51563 1.70313,0.92188c0.5,0.39583 0.91146,0.86458 1.23438,1.40625c0.32292,0.54167 0.54167,1.14583 0.65625,1.8125zM303.80402,105.93202v-13.5625h4.84375c1.05208,0 1.92188,0.19271 2.60938,0.57813c0.69792,0.375 1.21875,0.89583 1.5625,1.5625c0.35417,0.66667 0.53125,1.41667 0.53125,2.25c0,0.83333 -0.17708,1.58333 -0.53125,2.25c-0.34375,0.66667 -0.86458,1.19271 -1.5625,1.57813c-0.69792,0.38542 -1.56771,0.57813 -2.60937,0.57813h-3.32812v-1.73437h3.14063c0.66667,0 1.20313,-0.11458 1.60938,-0.34375c0.41667,-0.23958 0.72396,-0.55729 0.92188,-0.95312c0.19792,-0.40625 0.29688,-0.86458 0.29688,-1.375c0,-0.51042 -0.09896,-0.96354 -0.29687,-1.35937c-0.19792,-0.40625 -0.50521,-0.71875 -0.92187,-0.9375c-0.41667,-0.22917 -0.96354,-0.34375 -1.64062,-0.34375h-2.57812v11.8125zM324.46375,92.36952h2.04688v8.92188c0,0.94792 -0.22396,1.78646 -0.67187,2.51563c-0.4375,0.72917 -1.0625,1.30208 -1.875,1.71875c-0.8125,0.41667 -1.76042,0.625 -2.84375,0.625c-1.08333,0 -2.03125,-0.20833 -2.84375,-0.625c-0.80208,-0.41667 -1.42708,-0.98958 -1.875,-1.71875c-0.44792,-0.72917 -0.67187,-1.56771 -0.67187,-2.51562v-8.92187h2.04688v8.75c0,0.61458 0.13542,1.16146 0.40625,1.64063c0.28125,0.47917 0.66667,0.85417 1.15625,1.125c0.5,0.27083 1.09375,0.40625 1.78125,0.40625c0.6875,0 1.28125,-0.13542 1.78125,-0.40625c0.51042,-0.27083 0.89583,-0.64583 1.15625,-1.125c0.27083,-0.47917 0.40625,-1.02604 0.40625,-1.64062z" fill="#000000" fill-rule="nonzero" stroke-width="1" stroke-linecap="square"/></g></g></svg>