<svg version="1.1" xmlns="http://www.w3.org/2000/svg" xmlns:xlink="http://www.w3.org/1999/xlink" width="17.813" height="28.946" viewBox="0,0,17.813,28.946"><g transform="translate(-240.148,-151.931)"><g data-paper-data="{&quot;isPaintingLayer&quot;:true}" fill="#ffffff" fill-rule="nonzero" stroke="none" stroke-width="1" stroke-linecap="butt" stroke-linejoin="miter" stroke-miterlimit="10" stroke-dasharray="" stroke-dashoffset="0" style="mix-blend-mode: normal"><path d="M256.242,152.732v3.027c-1.445,-0.742 -2.969,-1.113 -4.57,-1.113c-2.487,0 -4.476,1.107 -5.967,3.32c-1.491,2.214 -2.236,5.176 -2.236,8.887h0.078c1.302,-2.643 3.437,-3.965 6.406,-3.965c2.448,0 4.395,0.785 5.84,2.354c1.445,1.569 2.168,3.668 2.168,6.299c0,2.747 -0.827,4.99 -2.481,6.728c-1.653,1.738 -3.756,2.608 -6.308,2.608c-2.813,0 -5.02,-1.12 -6.621,-3.36c-1.602,-2.239 -2.403,-5.384 -2.403,-9.433c0,-4.909 1.049,-8.828 3.145,-11.758c2.096,-2.93 4.863,-4.395 8.301,-4.395c1.953,0 3.502,0.267 4.648,0.801zM249.25,165.603c-1.654,0 -2.995,0.56 -4.023,1.68c-1.029,1.12 -1.543,2.441 -1.543,3.965c0,1.914 0.511,3.548 1.533,4.902c1.022,1.354 2.379,2.031 4.072,2.031c1.615,0 2.917,-0.589 3.906,-1.767c0.99,-1.179 1.485,-2.673 1.485,-4.483c0,-1.979 -0.476,-3.528 -1.426,-4.648c-0.951,-1.12 -2.285,-1.68 -4.004,-1.68z"/></g></g></svg>