<svg version="1.1" xmlns="http://www.w3.org/2000/svg" xmlns:xlink="http://www.w3.org/1999/xlink" width="41.43221" height="39.20699" viewBox="0,0,41.43221,39.20699"><g transform="translate(-223.03431,-163.95621)"><g data-paper-data="{&quot;isPaintingLayer&quot;:true}" fill-rule="nonzero" stroke-miterlimit="10" stroke-dasharray="" stroke-dashoffset="0" style="mix-blend-mode: normal"><path d="M230.53433,171.45621c0,0 2.09597,0 2.65304,0c5.6473,0 23.77915,0 23.77915,0v24.20699h-26.43221z" fill="#f0f1f4" stroke="#f0f1f4" stroke-width="15" stroke-linecap="round" stroke-linejoin="round"/><text transform="translate(229.14625,191.86035) scale(0.15311,0.15311)" font-size="40" xml:space="preserve" fill="#474747" fill-rule="nonzero" stroke="none" stroke-width="1" stroke-linecap="butt" stroke-linejoin="miter" stroke-miterlimit="10" stroke-dasharray="" stroke-dashoffset="0" font-family="Sans Serif" font-weight="normal" text-anchor="start" style="mix-blend-mode: normal"><tspan x="0" dy="0">Motion </tspan><tspan x="0" dy="48px">Wallpaper</tspan></text><g fill="#484848" stroke="none" stroke-width="1" stroke-linecap="butt" stroke-linejoin="miter"><path d="M250.3707,174.75616v4.35308c0.07975,0.97956 -0.2335,1.9506 -0.87061,2.69891c-0.73274,0.62284 -1.68207,0.93059 -2.64087,0.85611h-7.69043c-0.9588,0.07448 -1.90813,-0.23327 -2.64087,-0.85611c-0.48216,-0.53808 -0.76849,-1.22321 -0.81257,-1.94437v0c0.00653,-0.05301 0.00653,-0.10661 0,-0.15961c0,-0.05804 0,-0.17412 0,-0.17412c-0.0075,-0.13532 -0.0075,-0.27097 0,-0.40629v-4.35308c0.00003,-0.53943 0.07325,-1.07637 0.21765,-1.59613c0.23363,-0.84119 0.88752,-1.50056 1.72672,-1.74123l0.34825,-0.08706c0.3955,-0.08717 0.79934,-0.13096 1.20435,-0.13059h7.69043c0.28014,-0.02111 0.56146,-0.02111 0.84159,0c0.67608,0.05868 1.31377,0.33926 1.81378,0.79806c0.21694,0.23539 0.39346,0.50506 0.52237,0.79806c0.0856,0.21802 0.15828,0.44089 0.21765,0.66747c0.05521,0.26287 0.08918,0.52975 0.10157,0.79806c0.01451,0.1451 0.01451,0.2902 -0.02902,0.47884zM237.83384,174.42243c-0.02903,0.19238 -0.02903,0.38803 0,0.58041c0.17122,0.77516 0.93356,1.26882 1.71092,1.10795c0.77736,-0.16087 1.28116,-0.91656 1.13067,-1.69599c-0.15048,-0.77943 -0.89939,-1.29326 -1.68077,-1.15317c-0.58967,0.10982 -1.05099,0.57115 -1.16082,1.16082zM249.19537,179.09472v-0.76904c0.00145,-0.33152 -0.12907,-0.64999 -0.36275,-0.88513l-0.74002,-0.74002c-0.34176,-0.3892 -0.81929,-0.63316 -1.33494,-0.68198c-0.52338,0.04749 -1.00755,0.29739 -1.34945,0.6965l-2.55381,2.56832c-0.30538,0.30245 -0.79739,0.30245 -1.10278,0l-0.55139,-0.5659c-0.3343,-0.39655 -0.81711,-0.63797 -1.33494,-0.66747c-0.52517,0.04126 -1.01158,0.29232 -1.34945,0.69649l-1.04474,1.04474c-0.16137,0.15585 -0.25251,0.37057 -0.25251,0.59492c0,0.22435 0.09114,0.43907 0.25251,0.59492v0c0.28629,0.30084 0.68776,0.4646 1.10278,0.44982h8.32888c0.63405,0.07165 1.27172,-0.09943 1.78476,-0.47884c0.40236,-0.5305 0.5843,-1.19589 0.50786,-1.85732z"/><path d="M250.3707,174.75616v4.35308c0.07975,0.97956 -0.2335,1.9506 -0.87061,2.69891c-0.73274,0.62284 -1.68207,0.93059 -2.64087,0.85611h-7.69043c-0.9588,0.07448 -1.90813,-0.23327 -2.64087,-0.85611c-0.48216,-0.53808 -0.76849,-1.22321 -0.81257,-1.94437v0c0.00653,-0.05301 0.00653,-0.10661 0,-0.15961c0,-0.05804 0,-0.17412 0,-0.17412c-0.0075,-0.13532 -0.0075,-0.27097 0,-0.40629v-4.35308c0.00003,-0.53943 0.07325,-1.07637 0.21765,-1.59613c0.23363,-0.84119 0.88752,-1.50056 1.72672,-1.74123l0.34825,-0.08706c0.3955,-0.08717 0.79934,-0.13096 1.20435,-0.13059h7.69043c0.28014,-0.02111 0.56146,-0.02111 0.84159,0c0.67608,0.05868 1.31377,0.33926 1.81378,0.79806c0.21694,0.23539 0.39346,0.50506 0.52237,0.79806c0.0856,0.21802 0.15828,0.44089 0.21765,0.66747c0.05521,0.26287 0.08918,0.52975 0.10157,0.79806c0.01451,0.1451 0.01451,0.2902 -0.02902,0.47884zM237.83384,174.42243c-0.02903,0.19238 -0.02903,0.38803 0,0.58041c0.17122,0.77516 0.93356,1.26882 1.71092,1.10795c0.77736,-0.16087 1.28116,-0.91656 1.13067,-1.69599c-0.15048,-0.77943 -0.89939,-1.29326 -1.68077,-1.15317c-0.58967,0.10982 -1.05099,0.57115 -1.16082,1.16082zM249.19537,179.09472v-0.76904c0.00145,-0.33152 -0.12907,-0.64999 -0.36275,-0.88513l-0.74002,-0.74002c-0.34176,-0.3892 -0.81929,-0.63316 -1.33494,-0.68198c-0.52338,0.04749 -1.00755,0.29739 -1.34945,0.6965l-2.55381,2.56832c-0.30538,0.30245 -0.79739,0.30245 -1.10278,0l-0.55139,-0.5659c-0.3343,-0.39655 -0.81711,-0.63797 -1.33494,-0.66747c-0.52517,0.04126 -1.01158,0.29232 -1.34945,0.69649l-1.04474,1.04474c-0.16137,0.15585 -0.25251,0.37057 -0.25251,0.59492c0,0.22435 0.09114,0.43907 0.25251,0.59492v0c0.28629,0.30084 0.68776,0.4646 1.10278,0.44982h8.32888c0.63405,0.07165 1.27172,-0.09943 1.78476,-0.47884c0.40236,-0.5305 0.5843,-1.19589 0.50786,-1.85732z"/><path d="M250.3707,174.75616v4.35308c0.07975,0.97956 -0.2335,1.9506 -0.87061,2.69891c-0.73274,0.62284 -1.68207,0.93059 -2.64087,0.85611h-7.69043c-0.9588,0.07448 -1.90813,-0.23327 -2.64087,-0.85611c-0.48216,-0.53808 -0.76849,-1.22321 -0.81257,-1.94437v0c0.00653,-0.05301 0.00653,-0.10661 0,-0.15961c0,-0.05804 0,-0.17412 0,-0.17412c-0.0075,-0.13532 -0.0075,-0.27097 0,-0.40629v-4.35308c0.00003,-0.53943 0.07325,-1.07637 0.21765,-1.59613c0.23363,-0.84119 0.88752,-1.50056 1.72672,-1.74123l0.34825,-0.08706c0.3955,-0.08717 0.79934,-0.13096 1.20435,-0.13059h7.69043c0.28014,-0.02111 0.56146,-0.02111 0.84159,0c0.67608,0.05868 1.31377,0.33926 1.81378,0.79806c0.21694,0.23539 0.39346,0.50506 0.52237,0.79806c0.0856,0.21802 0.15828,0.44089 0.21765,0.66747c0.05521,0.26287 0.08918,0.52975 0.10157,0.79806c0.01451,0.1451 0.01451,0.2902 -0.02902,0.47884zM237.83384,174.42243c-0.02903,0.19238 -0.02903,0.38803 0,0.58041c0.17122,0.77516 0.93356,1.26882 1.71092,1.10795c0.77736,-0.16087 1.28116,-0.91656 1.13067,-1.69599c-0.15048,-0.77943 -0.89939,-1.29326 -1.68077,-1.15317c-0.58967,0.10982 -1.05099,0.57115 -1.16082,1.16082zM249.19537,179.09472v-0.76904c0.00145,-0.33152 -0.12907,-0.64999 -0.36275,-0.88513l-0.74002,-0.74002c-0.34176,-0.3892 -0.81929,-0.63316 -1.33494,-0.68198c-0.52338,0.04749 -1.00755,0.29739 -1.34945,0.6965l-2.55381,2.56832c-0.30538,0.30245 -0.79739,0.30245 -1.10278,0l-0.55139,-0.5659c-0.3343,-0.39655 -0.81711,-0.63797 -1.33494,-0.66747c-0.52517,0.04126 -1.01158,0.29232 -1.34945,0.69649l-1.04474,1.04474c-0.16137,0.15585 -0.25251,0.37057 -0.25251,0.59492c0,0.22435 0.09114,0.43907 0.25251,0.59492v0c0.28629,0.30084 0.68776,0.4646 1.10278,0.44982h8.32888c0.63405,0.07165 1.27172,-0.09943 1.78476,-0.47884c0.40236,-0.5305 0.5843,-1.19589 0.50786,-1.85732z"/></g></g></g></svg>