<svg version="1.1" xmlns="http://www.w3.org/2000/svg" xmlns:xlink="http://www.w3.org/1999/xlink" width="244.62285" height="131.4551" viewBox="0,0,244.62285,131.4551"><g transform="translate(-27.7266,-90.27604)"><g data-paper-data="{&quot;isPaintingLayer&quot;:true}" stroke-miterlimit="10" stroke-dasharray="" stroke-dashoffset="0" style="mix-blend-mode: normal"><path d="M272.34945,214.28841c0,0.95805 -0.77665,1.73471 -1.7347,1.73471h-61.22952c-0.46007,0 -0.90129,-0.18277 -1.22663,-0.50809c-0.32531,-0.32531 -0.50806,-0.76655 -0.50806,-1.22663v-68.57681c0,-0.95805 0.77665,-1.73471 1.7347,-1.73471h61.22951c0.95805,0 1.7347,0.77665 1.7347,1.73471z" fill="#f1f1f1" fill-rule="evenodd" stroke="none" stroke-width="1" stroke-linecap="square" stroke-linejoin="miter"/><text transform="translate(234.00664,162.30839) scale(0.54437,0.54437)" font-size="24" xml:space="preserve" fill="#000000" fill-rule="nonzero" stroke="#000000" stroke-width="0" stroke-linecap="butt" stroke-linejoin="miter" stroke-miterlimit="10" stroke-dasharray="" stroke-dashoffset="0" font-family="Segoe UI" font-weight="bold" text-anchor="start" style="mix-blend-mode: normal"><tspan x="0" dy="0">80º</tspan></text><text transform="translate(234.11774,168.18926) scale(0.21993,0.21993)" font-size="24" xml:space="preserve" fill="#000000" fill-rule="nonzero" stroke="#000000" stroke-width="0" stroke-linecap="butt" stroke-linejoin="miter" stroke-miterlimit="10" stroke-dasharray="" stroke-dashoffset="0" font-family="Segoe UI" font-weight="bold" text-anchor="start" style="mix-blend-mode: normal"><tspan x="0" dy="0">Partly Cloudy</tspan></text><path d="M216.33709,206.77401c0,0 0,-2.12608 0,-2.69121c0,-5.72849 0,-24.12103 0,-24.12103h19.27365c0,0 0,9.80256 0,16.60125c0,2.17195 0,4.03734 0,5.1786c0,2.26577 0,5.03237 0,5.03237z" fill="#f9f9f9" fill-rule="nonzero" stroke="#fbfbfb" stroke-width="6" stroke-linecap="round" stroke-linejoin="round"/><text transform="translate(215.97173,183.17501) scale(0.17091,0.17091)" font-size="24" xml:space="preserve" fill="#000000" fill-rule="nonzero" stroke="#000000" stroke-width="0" stroke-linecap="butt" stroke-linejoin="miter" stroke-miterlimit="10" stroke-dasharray="" stroke-dashoffset="0" font-family="Segoe UI" font-weight="bold" text-anchor="start" style="mix-blend-mode: normal"><tspan x="0" dy="0">Tomorrow</tspan></text><path d="M244.00376,206.77401c0,0 0,-2.12608 0,-2.69121c0,-5.7285 0,-24.12103 0,-24.12103h19.27365c0,0 0,9.80256 0,16.60124c0,2.17195 0,4.03734 0,5.1786c0,2.26577 0,5.03237 0,5.03237z" fill="#fbfbfb" fill-rule="nonzero" stroke="#fbfbfb" stroke-width="6" stroke-linecap="round" stroke-linejoin="round"/><text transform="translate(220.97173,203.00041) scale(0.14225,0.14225)" font-size="24" xml:space="preserve" fill="#000000" fill-rule="nonzero" stroke="#000000" stroke-width="0" stroke-linecap="butt" stroke-linejoin="miter" stroke-miterlimit="10" stroke-dasharray="" stroke-dashoffset="0" font-family="Segoe UI" font-weight="bold" text-anchor="start" style="mix-blend-mode: normal"><tspan x="0" dy="0">Sunny</tspan><tspan x="0" dy="28.799999999999997px"> 82º</tspan></text><text transform="translate(244.74951,183.39723) scale(0.17091,0.17091)" font-size="24" xml:space="preserve" fill="#000000" fill-rule="nonzero" stroke="#000000" stroke-width="0" stroke-linecap="butt" stroke-linejoin="miter" stroke-miterlimit="10" stroke-dasharray="" stroke-dashoffset="0" font-family="Segoe UI" font-weight="bold" text-anchor="start" style="mix-blend-mode: normal"><tspan x="0" dy="0">In 2 days</tspan></text><text transform="translate(248.52728,203.22263) scale(0.14225,0.14225)" font-size="24" xml:space="preserve" fill="#000000" fill-rule="nonzero" stroke="#000000" stroke-width="0" stroke-linecap="butt" stroke-linejoin="miter" stroke-miterlimit="10" stroke-dasharray="" stroke-dashoffset="0" font-family="Segoe UI" font-weight="bold" text-anchor="start" style="mix-blend-mode: normal"><tspan x="0" dy="0">Cloudy</tspan><tspan x="0" dy="28.799999999999997px"> 13º</tspan></text><g fill-rule="nonzero" stroke="none" stroke-width="1" stroke-linecap="butt" stroke-linejoin="miter"><path d="M213.18449,152.60254h17.65076v14.03045h-17.65076z" fill="#000000" opacity="0"/><path d="M225.60345,159.8393c-0.30374,-0.46385 -0.71602,-0.84662 -1.20112,-1.11514c-0.52896,-0.28874 -1.11538,-0.45647 -1.71701,-0.49113c-0.0901,-0.17061 -0.19332,-0.33393 -0.30875,-0.48853c-0.11021,-0.14624 -0.22944,-0.28546 -0.35696,-0.41687c0.25171,-0.43366 0.61349,-0.79318 1.0487,-1.04219c0.45395,-0.26637 0.97184,-0.40418 1.49815,-0.39864c0.79659,-0.00631 1.56238,0.30734 2.12566,0.87063c0.56329,0.56329 0.87694,1.32908 0.87063,2.12566c0.00467,0.50915 -0.12471,1.01055 -0.37519,1.45386c-0.25053,0.44257 -0.6001,0.82112 -1.02134,1.10602c-0.05763,-0.57165 -0.25056,-1.12136 -0.56279,-1.60367zM220.13715,155.20803c-0.10348,-0.09719 -0.16159,-0.23323 -0.16024,-0.37519c-0.00299,-0.1471 0.05556,-0.28876 0.16153,-0.39081c0.21126,-0.20723 0.54953,-0.20723 0.76079,0l0.88064,0.89368c0.10197,0.09977 0.15727,0.23782 0.15242,0.3804c0.00122,0.14192 -0.05354,0.27858 -0.15242,0.3804c-0.09801,0.1034 -0.23538,0.16024 -0.37779,0.15632c-0.14701,0.00253 -0.28851,-0.05595 -0.39081,-0.16153zM224.56646,154.93444c-0.14337,-0.00012 -0.28005,-0.06065 -0.37649,-0.16675c-0.10187,-0.10034 -0.15914,-0.23742 -0.15894,-0.3804v-1.2402c-0.00137,-0.14398 0.05603,-0.28229 0.15894,-0.383c0.09818,-0.103 0.23421,-0.16136 0.37649,-0.16153c0.14429,-0.00091 0.2825,0.05805 0.3817,0.16285c0.10463,0.09973 0.16316,0.23846 0.16153,0.383v1.2402c0.00088,0.14364 -0.05756,0.28129 -0.16153,0.3804c-0.09906,0.10608 -0.23786,0.16604 -0.383,0.16545zM228.67141,159.26082c-0.10397,-0.09911 -0.16243,-0.23677 -0.16153,-0.3804c0.00068,-0.29865 0.24072,-0.54159 0.53934,-0.54585h1.24671c0.14326,-0.00156 0.28085,0.05591 0.3804,0.15894c0.1057,0.10205 0.16342,0.24397 0.15894,0.39081c-0.00142,0.29727 -0.24206,0.53792 -0.53934,0.53934h-1.24671c-0.14293,-0.00018 -0.27953,-0.05904 -0.37779,-0.16285zM227.35956,156.09649c-0.1021,-0.10137 -0.15773,-0.24047 -0.15372,-0.3843c-0.00391,-0.14242 0.05293,-0.27978 0.15632,-0.37779l0.88716,-0.88716c0.10148,-0.10144 0.23953,-0.15778 0.383,-0.15632c0.14197,-0.00154 0.27842,0.05492 0.37779,0.15632c0.20792,0.21098 0.20792,0.54982 0,0.76079l-0.88326,0.88977c-0.1025,0.10476 -0.24436,0.16149 -0.39081,0.15632c-0.14322,0.00417 -0.28148,-0.05266 -0.3804,-0.15632zM227.35691,162.44861c-0.10285,-0.10394 -0.16005,-0.24459 -0.15894,-0.39081c-0.00451,-0.14381 0.05345,-0.28254 0.15894,-0.3804c0.09968,-0.10209 0.23781,-0.15743 0.3804,-0.15242c0.14192,-0.00122 0.27858,0.05354 0.3804,0.15242l0.88064,0.88064c0.10531,0.09819 0.16403,0.23643 0.16153,0.3804c0.00512,0.1441 -0.0497,0.28386 -0.15141,0.38605c-0.10171,0.1022 -0.24121,0.15769 -0.38532,0.15328c-0.14257,0.00485 -0.28063,-0.05046 -0.3804,-0.15242z" fill="#ffd60a"/><path d="M214.38687,164.62157c-0.3664,-0.18558 -0.67369,-0.46983 -0.88716,-0.82073c-0.46954,-0.83529 -0.41001,-1.86745 0.15242,-2.64325c0.30914,-0.40552 0.74311,-0.69804 1.23499,-0.83245c0.04389,-0.48561 0.17913,-0.95854 0.39864,-1.39392c0.2133,-0.42383 0.50151,-0.8056 0.85068,-1.12686c0.3495,-0.32135 0.7548,-0.57609 1.19592,-0.75168c0.4498,-0.18024 0.93021,-0.27182 1.41477,-0.26966c0.49839,-0.00547 0.99308,0.08613 1.45645,0.26966c0.43446,0.17372 0.83223,0.42785 1.17246,0.74907c0.34167,0.32491 0.62811,0.70332 0.84809,1.12035c0.56759,-0.01006 1.12842,0.12444 1.62973,0.39081c0.46706,0.25007 0.85984,0.61902 1.1386,1.06954c0.28185,0.4593 0.42733,0.98927 0.41949,1.52811c0.00759,0.5377 -0.13254,1.06717 -0.40515,1.53071c-0.54867,0.93335 -1.55818,1.49812 -2.64065,1.4773h-6.65307c-0.45965,0.01052 -0.91492,-0.09145 -1.32618,-0.29702z" fill="#adbaca"/></g><g fill-rule="nonzero" stroke="none" stroke-width="1" stroke-linecap="butt" stroke-linejoin="miter"><path d="M219.66426,186.96322h11.85429v11.88553h-11.85429z" fill="#000000" opacity="0"/><path d="M226.66629,190.31843c0.33387,0.14341 0.63708,0.34962 0.89318,0.60741c0.25564,0.25758 0.46051,0.56098 0.60394,0.89433c0.29452,0.6911 0.29452,1.47243 0,2.16353c-0.14389,0.33242 -0.34873,0.63497 -0.60394,0.89202c-0.25585,0.25724 -0.55867,0.46304 -0.89202,0.60626c-0.68947,0.29468 -1.46943,0.29468 -2.1589,0c-0.33332,-0.14453 -0.63665,-0.35015 -0.89433,-0.60626c-0.2576,-0.25556 -0.46344,-0.55844 -0.60626,-0.89202c-0.29094,-0.69184 -0.29094,-1.47169 0,-2.16353c0.14237,-0.33451 0.34825,-0.63823 0.60626,-0.89433c0.25768,-0.25611 0.56101,-0.46173 0.89433,-0.60626c0.34089,-0.14809 0.70895,-0.22337 1.08061,-0.22099c0.3704,-0.00209 0.73719,0.07276 1.07714,0.21982zM226.12595,188.58301c0.00262,0.14106 -0.05353,0.27686 -0.15504,0.37486c-0.0993,0.10196 -0.23601,0.15881 -0.37833,0.15735c-0.29314,-0.0019 -0.53031,-0.23907 -0.53221,-0.53221v-1.08176c-0.00147,-0.14232 0.05539,-0.27902 0.15735,-0.37833c0.09638,-0.10231 0.23083,-0.16012 0.37138,-0.15967c0.14234,-0.00095 0.27878,0.05681 0.37717,0.15967c0.10327,0.09859 0.16107,0.23556 0.15967,0.37833zM229.03227,188.70907c0.20789,-0.20602 0.54298,-0.20602 0.75087,0c0.09885,0.10186 0.15334,0.23872 0.15156,0.38064c0.00516,0.14253 -0.04985,0.28067 -0.15156,0.38064l-0.76707,0.76707c-0.10016,0.10375 -0.23876,0.16152 -0.38296,0.15967c-0.2165,0.00165 -0.41242,-0.12805 -0.49551,-0.32799c-0.08307,-0.19993 -0.03674,-0.43027 0.11718,-0.58255zM229.90009,193.43534c-0.14232,0.00147 -0.27902,-0.05539 -0.37833,-0.15735c-0.10217,-0.09817 -0.15993,-0.23374 -0.15993,-0.37544c0,-0.14169 0.05776,-0.27727 0.15993,-0.37544c0.0993,-0.10196 0.23601,-0.15881 0.37833,-0.15735h1.07598c0.14376,-0.00192 0.28208,0.05491 0.38296,0.15735c0.10217,0.09817 0.15993,0.23374 0.15993,0.37544c0,0.14169 -0.05776,0.27727 -0.15993,0.37544c-0.10087,0.10244 -0.23919,0.15927 -0.38296,0.15735zM229.78324,196.33466c0.10209,0.10125 0.15742,0.24042 0.15272,0.38412c0.004,0.14018 -0.04999,0.2758 -0.14924,0.37486c-0.09946,0.10173 -0.23606,0.15854 -0.37833,0.15735c-0.14094,0.00504 -0.27773,-0.0481 -0.37833,-0.14694l-0.77748,-0.77748c-0.10138,-0.09942 -0.15708,-0.23636 -0.15387,-0.37833c-0.00372,-0.14035 0.0522,-0.27572 0.15387,-0.37255c0.09946,-0.10173 0.23606,-0.15854 0.37833,-0.15735c0.14181,-0.00494 0.27915,0.05008 0.37833,0.15156zM226.12595,198.30155c-0.00373,0.29512 -0.24173,0.53362 -0.53683,0.53799c-0.14177,0.00142 -0.27766,-0.05646 -0.37486,-0.15967c-0.10196,-0.0993 -0.15881,-0.23601 -0.15735,-0.37833v-1.08176c-0.00238,-0.14316 0.05457,-0.28095 0.15735,-0.38064c0.09792,-0.10188 0.23356,-0.15881 0.37486,-0.15735c0.14209,-0.00084 0.27835,0.05641 0.37717,0.1585c0.10411,0.09897 0.162,0.23701 0.15967,0.38064zM222.16686,195.57341c0.09997,-0.10172 0.23811,-0.15672 0.38064,-0.15156c0.14299,-0.00142 0.2804,0.05537 0.38064,0.15735c0.10188,0.09635 0.15643,0.2325 0.14924,0.37255c-0.0006,0.14237 -0.05808,0.27859 -0.15967,0.37833l-0.76707,0.77169c-0.10157,0.09865 -0.23915,0.15135 -0.38064,0.14578c-0.14299,0.00142 -0.2804,-0.05537 -0.38064,-0.15735c-0.19534,-0.21554 -0.1908,-0.54543 0.01041,-0.7555zM221.27708,192.37091c0.14232,-0.00147 0.27902,0.05539 0.37833,0.15735c0.10217,0.09817 0.15993,0.23374 0.15993,0.37544c0,0.14169 -0.05776,0.27727 -0.15993,0.37544c-0.0993,0.10196 -0.23601,0.15881 -0.37833,0.15735h-1.08061c-0.14044,0.00055 -0.27502,-0.05629 -0.37255,-0.15735c-0.10217,-0.09817 -0.15993,-0.23374 -0.15993,-0.37544c0,-0.14169 0.05776,-0.27727 0.15993,-0.37544c0.09752,-0.10107 0.2321,-0.1579 0.37255,-0.15735zM221.39625,189.46572c-0.09876,-0.1008 -0.15259,-0.23725 -0.14924,-0.37833c-0.00321,-0.14196 0.05251,-0.27891 0.15387,-0.37833c0.0998,-0.10174 0.23829,-0.15604 0.38064,-0.14924c0.14045,-0.00065 0.27537,0.05474 0.37486,0.15387l0.76707,0.77169c0.10267,0.09823 0.1572,0.23646 0.14924,0.37833c0.00085,0.14265 -0.05686,0.27942 -0.15967,0.37833c-0.09744,0.10194 -0.23395,0.15713 -0.37486,0.15156c-0.14138,0.00189 -0.27717,-0.05511 -0.37486,-0.15735z" fill="#ffd60a"/></g><g fill="#dedede" fill-rule="nonzero" stroke="none" stroke-width="1" stroke-linecap="butt" stroke-linejoin="miter"><path d="M246.89967,188.42987h12.17021v8.61929h-12.17021z" opacity="0"/><path d="M248.10363,196.22514c-0.36574,-0.18668 -0.67249,-0.47118 -0.8861,-0.82187c-0.21597,-0.36391 -0.32605,-0.78087 -0.31787,-1.20395c-0.00214,-0.34439 0.07223,-0.68498 0.21771,-0.99713c0.13868,-0.30078 0.34198,-0.56728 0.59545,-0.78051c0.26335,-0.21943 0.56959,-0.38144 0.89917,-0.47571c0.04209,-0.4847 0.17737,-0.9567 0.39842,-1.3901c0.21404,-0.41944 0.50079,-0.79758 0.84691,-1.11687c0.34403,-0.31806 0.74366,-0.57009 1.17892,-0.74349c0.44773,-0.17822 0.92563,-0.26841 1.40752,-0.26561c0.718,-0.01197 1.42416,0.18384 2.03345,0.56387c0.60104,0.38454 1.08402,0.9278 1.39555,1.56972c0.43286,-0.0059 0.86311,0.06791 1.26927,0.21772c0.37586,0.1403 0.72054,0.35295 1.01455,0.62592c0.59022,0.54826 0.92117,1.32047 0.91113,2.12598c0.00346,0.40333 -0.07581,0.80309 -0.23296,1.17457c-0.152,0.35693 -0.37412,0.67971 -0.65314,0.94923c-0.28132,0.272 -0.61201,0.48776 -0.97427,0.63572c-0.38,0.15521 -0.78696,0.23364 -1.19743,0.23077h-6.57605c-0.46108,0.01046 -0.91775,-0.09195 -1.33023,-0.29827z"/></g><path d="M216.90852,213.23115c0,0 0,-5.07133 0,-6.41933c0,-13.66414 0,-57.53577 0,-57.53577h45.97334c0,0 0,23.382 0,39.59888c0,5.18074 0,9.63025 0,12.35249c0,5.40453 0,12.00369 0,12.00369z" fill="#f9f9f9" fill-rule="nonzero" stroke="#fbfbfb" stroke-width="17" stroke-linecap="round" stroke-linejoin="round"/><path d="M36.22661,212.21476c0,0 0,-8.99514 0,-11.38612c0,-24.23641 0,-102.05259 0,-102.05259h86.93531c0,0 0,41.47322 0,70.23749c0,9.18921 0,17.0814 0,21.90991c0,9.58615 0,21.29124 0,21.29124z" fill="#ffffff" fill-rule="nonzero" stroke="#ffffff" stroke-width="17" stroke-linecap="round" stroke-linejoin="round"/><text transform="translate(68.55905,120.92012) scale(1.0294,1.0294)" font-size="24" xml:space="preserve" fill="#000000" fill-rule="nonzero" stroke="#000000" stroke-width="0" stroke-linecap="butt" stroke-linejoin="miter" stroke-miterlimit="10" stroke-dasharray="" stroke-dashoffset="0" font-family="Segoe UI" font-weight="bold" text-anchor="start" style="mix-blend-mode: normal"><tspan x="0" dy="0">80º</tspan></text><text transform="translate(68.76914,132.04081) scale(0.41589,0.41589)" font-size="24" xml:space="preserve" fill="#000000" fill-rule="nonzero" stroke="#000000" stroke-width="0" stroke-linecap="butt" stroke-linejoin="miter" stroke-miterlimit="10" stroke-dasharray="" stroke-dashoffset="0" font-family="Segoe UI" font-weight="bold" text-anchor="start" style="mix-blend-mode: normal"><tspan x="0" dy="0">Partly Cloudy</tspan></text><path d="M35.14605,205.00434c0,0 0,-4.02041 0,-5.08906c0,-10.83254 0,-45.61272 0,-45.61272h36.44635c0,0 0,18.53659 0,31.39287c0,4.10715 0,7.63458 0,9.7927c0,4.28456 0,9.51618 0,9.51618z" fill="#f2f2f2" fill-rule="nonzero" stroke="#f2f2f2" stroke-width="6" stroke-linecap="round" stroke-linejoin="round"/><text transform="translate(34.45514,160.37877) scale(0.32319,0.32319)" font-size="24" xml:space="preserve" fill="#000000" fill-rule="nonzero" stroke="#000000" stroke-width="0" stroke-linecap="butt" stroke-linejoin="miter" stroke-miterlimit="10" stroke-dasharray="" stroke-dashoffset="0" font-family="Segoe UI" font-weight="bold" text-anchor="start" style="mix-blend-mode: normal"><tspan x="0" dy="0">Tomorrow</tspan></text><path d="M87.46354,205.00434c0,0 0,-4.02041 0,-5.08906c0,-10.83256 0,-45.61272 0,-45.61272h36.44636c0,0 0,18.53658 0,31.39284c0,4.10715 0,7.63459 0,9.7927c0,4.28456 0,9.51618 0,9.51618z" fill="#f2f2f2" fill-rule="nonzero" stroke="#f2f2f2" stroke-width="6" stroke-linecap="round" stroke-linejoin="round"/><text transform="translate(43.91011,197.86849) scale(0.269,0.269)" font-size="24" xml:space="preserve" fill="#000000" fill-rule="nonzero" stroke="#000000" stroke-width="0" stroke-linecap="butt" stroke-linejoin="miter" stroke-miterlimit="10" stroke-dasharray="" stroke-dashoffset="0" font-family="Segoe UI" font-weight="bold" text-anchor="start" style="mix-blend-mode: normal"><tspan x="0" dy="0">Sunny</tspan><tspan x="0" dy="28.8px"> 82º</tspan></text><text transform="translate(88.87375,160.79899) scale(0.32319,0.32319)" font-size="24" xml:space="preserve" fill="#000000" fill-rule="nonzero" stroke="#000000" stroke-width="0" stroke-linecap="butt" stroke-linejoin="miter" stroke-miterlimit="10" stroke-dasharray="" stroke-dashoffset="0" font-family="Segoe UI" font-weight="bold" text-anchor="start" style="mix-blend-mode: normal"><tspan x="0" dy="0">In 2 days</tspan></text><text transform="translate(96.01751,198.28871) scale(0.269,0.269)" font-size="24" xml:space="preserve" fill="#000000" fill-rule="nonzero" stroke="#000000" stroke-width="0" stroke-linecap="butt" stroke-linejoin="miter" stroke-miterlimit="10" stroke-dasharray="" stroke-dashoffset="0" font-family="Segoe UI" font-weight="bold" text-anchor="start" style="mix-blend-mode: normal"><tspan x="0" dy="0">Cloudy</tspan><tspan x="0" dy="28.8px"> 13º</tspan></text><g fill-rule="nonzero" stroke="none" stroke-width="1" stroke-linecap="butt" stroke-linejoin="miter"><path d="M29.18449,102.56642h33.37748v26.5315h-33.37748z" fill="#000000" opacity="0"/><path d="M52.66867,116.25109c-0.57437,-0.87714 -1.35399,-1.60095 -2.27131,-2.10872c-1.00026,-0.546 -2.10918,-0.86319 -3.24686,-0.92872c-0.17038,-0.32262 -0.36557,-0.63146 -0.58384,-0.92381c-0.2084,-0.27654 -0.43387,-0.5398 -0.67501,-0.7883c0.47598,-0.82005 1.16011,-1.4999 1.98309,-1.97078c0.85842,-0.5037 1.83774,-0.7643 2.83299,-0.75383c1.50635,-0.01193 2.95445,0.58118 4.01961,1.64635c1.06518,1.06518 1.65829,2.51328 1.64636,4.01961c0.00883,0.9628 -0.23583,1.91094 -0.70949,2.74924c-0.47375,0.83689 -1.13479,1.55273 -1.93135,2.09148c-0.10898,-1.08098 -0.47381,-2.12048 -1.06424,-3.03253zM42.33194,107.49339c-0.19568,-0.18379 -0.30557,-0.44104 -0.30301,-0.70949c-0.00565,-0.27817 0.10506,-0.54604 0.30545,-0.73902c0.39949,-0.39187 1.03916,-0.39187 1.43865,0l1.66529,1.68994c0.19282,0.18867 0.29739,0.44971 0.28822,0.71934c0.0023,0.26837 -0.10124,0.5268 -0.28822,0.71934c-0.18534,0.19553 -0.44511,0.30301 -0.7144,0.2956c-0.27799,0.00478 -0.54556,-0.1058 -0.73901,-0.30545zM50.70772,106.97603c-0.27111,-0.00023 -0.52958,-0.11469 -0.71194,-0.31532c-0.19264,-0.18974 -0.30094,-0.44896 -0.30056,-0.71933v-2.34521c-0.00259,-0.27227 0.10596,-0.53381 0.30056,-0.72425c0.18566,-0.19477 0.44289,-0.30513 0.71194,-0.30545c0.27285,-0.00172 0.53421,0.10977 0.7218,0.30795c0.19785,0.18859 0.30853,0.45092 0.30545,0.72425v2.34521c0.00167,0.27162 -0.10885,0.53192 -0.30545,0.71934c-0.18732,0.2006 -0.44979,0.31398 -0.72425,0.31287zM58.47016,115.15719c-0.1966,-0.18742 -0.30715,-0.44773 -0.30545,-0.71934c0.00129,-0.56475 0.4552,-1.02415 1.01989,-1.0322h2.35752c0.2709,-0.00295 0.53109,0.10573 0.71934,0.30056c0.19988,0.19298 0.30902,0.46134 0.30055,0.73902c-0.00268,0.56213 -0.45773,1.01721 -1.01989,1.01989h-2.35752c-0.27028,-0.00034 -0.52859,-0.11164 -0.7144,-0.30795zM55.98948,109.17346c-0.19307,-0.19169 -0.29827,-0.45473 -0.29068,-0.72671c-0.0074,-0.26932 0.10009,-0.52906 0.2956,-0.7144l1.67761,-1.67762c0.1919,-0.19182 0.45295,-0.29836 0.72425,-0.2956c0.26846,-0.00291 0.52649,0.10385 0.7144,0.2956c0.39317,0.39896 0.39317,1.03971 0,1.43865l-1.67024,1.68255c-0.19382,0.1981 -0.46209,0.30538 -0.73902,0.2956c-0.27083,0.00789 -0.53227,-0.09958 -0.71933,-0.2956zM55.98445,121.18528c-0.19449,-0.19655 -0.30266,-0.46252 -0.30056,-0.73902c-0.00853,-0.27195 0.10108,-0.53427 0.30056,-0.71933c0.1885,-0.19305 0.4497,-0.2977 0.71934,-0.28822c0.26837,-0.00231 0.52679,0.10124 0.71934,0.28822l1.66528,1.66529c0.19914,0.18568 0.31018,0.44709 0.30545,0.71933c0.00968,0.27249 -0.09398,0.53678 -0.28632,0.73002c-0.19233,0.19326 -0.45613,0.29819 -0.72863,0.28985c-0.2696,0.00917 -0.53067,-0.09542 -0.71934,-0.28822z" fill="#ffd60a"/><path d="M31.45818,125.29433c-0.69286,-0.35093 -1.27394,-0.88845 -1.67761,-1.552c-0.8879,-1.57953 -0.77532,-3.53133 0.28823,-4.99837c0.58458,-0.76684 1.40522,-1.31999 2.33536,-1.57416c0.08299,-0.91828 0.33873,-1.8126 0.75382,-2.6359c0.40335,-0.80146 0.94835,-1.52338 1.60863,-2.13088c0.6609,-0.60767 1.42732,-1.08938 2.26148,-1.42142c0.85057,-0.34083 1.75902,-0.51401 2.67532,-0.50992c0.94245,-0.01035 1.87791,0.16287 2.75414,0.50992c0.82156,0.32851 1.57374,0.80906 2.21711,1.41648c0.6461,0.61441 1.18776,1.32998 1.60374,2.11858c1.07331,-0.01902 2.13383,0.23531 3.08181,0.73902c0.88321,0.47288 1.62595,1.17057 2.15309,2.0225c0.53298,0.86853 0.80808,1.8707 0.79325,2.88964c0.01436,1.01678 -0.25064,2.01802 -0.76614,2.89457c-1.03753,1.76496 -2.9465,2.83294 -4.99345,2.79357h-12.58092c-0.86919,0.0199 -1.73011,-0.17293 -2.5078,-0.56166z" fill="#adbaca"/></g><g fill-rule="nonzero" stroke="none" stroke-width="1" stroke-linecap="butt" stroke-linejoin="miter"><path d="M41.43769,167.54226h22.41639v22.47546h-22.41639z" fill="#000000" opacity="0"/><path d="M54.67849,173.88694c0.63135,0.27119 1.20471,0.66112 1.689,1.14861c0.48342,0.48708 0.87082,1.06081 1.14204,1.69117c0.55694,1.30686 0.55694,2.78436 0,4.09122c-0.2721,0.6286 -0.65944,1.20073 -1.14204,1.68681c-0.48381,0.48644 -1.05644,0.87561 -1.6868,1.14643c-1.30378,0.55724 -2.77868,0.55724 -4.08246,0c-0.6303,-0.2733 -1.2039,-0.66214 -1.69118,-1.14643c-0.48712,-0.48326 -0.87636,-1.05601 -1.14643,-1.68681c-0.55016,-1.30827 -0.55016,-2.78295 0,-4.09122c0.26922,-0.63255 0.65854,-1.20689 1.14643,-1.69117c0.48727,-0.4843 1.06087,-0.87313 1.69118,-1.14643c0.64462,-0.28003 1.34062,-0.4224 2.04342,-0.4179c0.70043,-0.00395 1.39402,0.13759 2.03686,0.41568zM53.65673,170.60527c0.00496,0.26674 -0.10122,0.52354 -0.29318,0.70885c-0.18778,0.1928 -0.44629,0.30031 -0.71542,0.29755c-0.55432,-0.00359 -1.00281,-0.45208 -1.00641,-1.00641v-2.0456c-0.00278,-0.26913 0.10475,-0.52763 0.29755,-0.71542c0.18225,-0.19347 0.4365,-0.30279 0.70228,-0.30193c0.26917,-0.00179 0.52717,0.10742 0.71323,0.30193c0.19528,0.18643 0.30458,0.44545 0.30194,0.71542zM59.15254,170.84365c0.39312,-0.38959 1.02677,-0.38959 1.41989,0c0.18693,0.19261 0.28997,0.45141 0.2866,0.71979c0.00976,0.26952 -0.09427,0.53074 -0.2866,0.71979l-1.45052,1.45052c-0.1894,0.19619 -0.45149,0.30544 -0.72417,0.30194c-0.4094,0.00312 -0.77988,-0.24214 -0.93701,-0.62023c-0.15709,-0.37806 -0.06947,-0.81364 0.22159,-1.1016zM60.79359,179.781c-0.26913,0.00278 -0.52763,-0.10474 -0.71542,-0.29754c-0.1932,-0.18564 -0.30243,-0.442 -0.30243,-0.70996c0,-0.26793 0.10923,-0.52432 0.30243,-0.70996c0.18778,-0.1928 0.44629,-0.30031 0.71542,-0.29755h2.03467c0.27185,-0.00363 0.53341,0.10384 0.72418,0.29755c0.1932,0.18564 0.30242,0.442 0.30242,0.70996c0,0.26793 -0.10922,0.52432 -0.30242,0.70996c-0.19074,0.19371 -0.45231,0.30117 -0.72418,0.29754zM60.57262,185.2636c0.19305,0.19146 0.29769,0.45463 0.2888,0.72636c0.00756,0.26508 -0.09454,0.52154 -0.28222,0.70886c-0.18808,0.19237 -0.44639,0.29979 -0.71542,0.29754c-0.26651,0.00953 -0.52519,-0.09096 -0.71542,-0.27786l-1.47021,-1.47021c-0.19171,-0.18801 -0.29704,-0.44696 -0.29096,-0.71542c-0.00704,-0.2654 0.09871,-0.52138 0.29096,-0.70449c0.18808,-0.19237 0.44639,-0.2998 0.71542,-0.29755c0.26816,-0.00934 0.52787,0.0947 0.71542,0.2866zM53.65673,188.98297c-0.00706,0.55807 -0.45711,1.00907 -1.01514,1.01734c-0.26808,0.00269 -0.52506,-0.10676 -0.70886,-0.30193c-0.1928,-0.18777 -0.30031,-0.4463 -0.29754,-0.71542v-2.0456c-0.0045,-0.27071 0.10319,-0.53128 0.29754,-0.71979c0.18516,-0.19266 0.44167,-0.3003 0.70886,-0.29754c0.26869,-0.00159 0.52636,0.10667 0.71323,0.29972c0.19687,0.18715 0.30634,0.44819 0.30194,0.71979zM46.1701,183.82408c0.18905,-0.19235 0.45026,-0.29636 0.71978,-0.2866c0.2704,-0.00269 0.53024,0.1047 0.71979,0.29754c0.19266,0.1822 0.29581,0.43966 0.28221,0.70449c-0.00113,0.26922 -0.10983,0.52681 -0.30194,0.71542l-1.45052,1.45926c-0.19207,0.18654 -0.45223,0.2862 -0.71979,0.27567c-0.2704,0.00269 -0.53023,-0.1047 -0.71979,-0.29754c-0.36939,-0.40759 -0.3608,-1.03141 0.01968,-1.42865zM44.48753,177.76817c0.26913,-0.00278 0.52763,0.10475 0.71542,0.29755c0.1932,0.18564 0.30242,0.442 0.30242,0.70995c0,0.26793 -0.10922,0.52432 -0.30242,0.70996c-0.18778,0.1928 -0.44629,0.30031 -0.71542,0.29755h-2.04343c-0.26557,0.00104 -0.52006,-0.10644 -0.70449,-0.29755c-0.1932,-0.18564 -0.30242,-0.442 -0.30242,-0.70996c0,-0.26793 0.10922,-0.52431 0.30242,-0.70995c0.18441,-0.19112 0.4389,-0.29859 0.70449,-0.29755zM44.71288,172.27447c-0.18675,-0.19061 -0.28855,-0.44864 -0.28221,-0.71542c-0.00607,-0.26845 0.0993,-0.52742 0.29097,-0.71542c0.18872,-0.19239 0.4506,-0.29507 0.71979,-0.28221c0.26559,-0.00123 0.52072,0.10351 0.70886,0.29097l1.45052,1.45926c0.19415,0.18575 0.29726,0.44715 0.28221,0.71542c0.0016,0.26975 -0.10752,0.52838 -0.30194,0.71542c-0.18426,0.19277 -0.44239,0.29714 -0.70885,0.2866c-0.26735,0.00358 -0.52413,-0.10422 -0.70886,-0.29755z" fill="#ffd60a"/></g><g fill="#dedede" fill-rule="nonzero" stroke="none" stroke-width="1" stroke-linecap="butt" stroke-linejoin="miter"><path d="M92.93969,170.31569h23.0138v16.29903h-23.01379z" opacity="0"/><path d="M95.21637,185.05649c-0.69161,-0.35301 -1.27167,-0.891 -1.67561,-1.55415c-0.4084,-0.68815 -0.61656,-1.47662 -0.60109,-2.27666c-0.00405,-0.65124 0.13658,-1.2953 0.41168,-1.88557c0.26224,-0.56877 0.64669,-1.07273 1.126,-1.47594c0.498,-0.41494 1.07709,-0.7213 1.70032,-0.89956c0.07959,-0.91656 0.33541,-1.80911 0.75341,-2.62867c0.40475,-0.79316 0.94699,-1.50822 1.6015,-2.112c0.65056,-0.60145 1.40626,-1.07803 2.22933,-1.40593c0.84665,-0.33702 1.75037,-0.50756 2.66161,-0.50226c1.35774,-0.02264 2.69308,0.34764 3.84524,1.06627c1.13657,0.72717 2.04988,1.75447 2.63898,2.96833c0.81853,-0.01116 1.63214,0.12841 2.40018,0.4117c0.71075,0.26531 1.36253,0.66743 1.9185,1.18362c1.1161,1.03675 1.74193,2.497 1.72294,4.02022c0.00655,0.7627 -0.14336,1.51864 -0.44053,2.2211c-0.28743,0.67495 -0.70745,1.28533 -1.23508,1.79498c-0.53198,0.51435 -1.15731,0.92236 -1.84234,1.20215c-0.71858,0.2935 -1.48814,0.44181 -2.26434,0.43639h-12.43527c-0.8719,0.01978 -1.73546,-0.17388 -2.51546,-0.56403z"/></g></g></g></svg>