<svg version="1.1" xmlns="http://www.w3.org/2000/svg" xmlns:xlink="http://www.w3.org/1999/xlink" width="27.875" height="27.875" viewBox="0,0,27.875,27.875"><defs><radialGradient cx="240" cy="180" r="9.6875" gradientUnits="userSpaceOnUse" id="color-1"><stop offset="0" stop-color="#000000"/><stop offset="1" stop-color="#000000" stop-opacity="0"/></radialGradient><linearGradient x1="234.25" y1="180" x2="245.75" y2="180" gradientUnits="userSpaceOnUse" id="color-2"><stop offset="0" stop-color="#2ae098"/><stop offset="1" stop-color="#1bc089"/></linearGradient></defs><g transform="translate(-226.0625,-166.0625)"><g data-paper-data="{&quot;isPaintingLayer&quot;:true}" fill="none" fill-rule="nonzero" stroke-linecap="butt" stroke-linejoin="miter" stroke-miterlimit="10" stroke-dasharray="" stroke-dashoffset="0" style="mix-blend-mode: normal"><path d="M230.3125,180c0,-5.35026 4.33724,-9.6875 9.6875,-9.6875c5.35026,0 9.6875,4.33724 9.6875,9.6875c0,5.35026 -4.33724,9.6875 -9.6875,9.6875c-5.35026,0 -9.6875,-4.33724 -9.6875,-9.6875z" stroke="url(#color-1)" stroke-width="8.5"/><path d="M234.25,180c0,-3.17564 2.57436,-5.75 5.75,-5.75c3.17564,0 5.75,2.57436 5.75,5.75c0,3.17564 -2.57436,5.75 -5.75,5.75c-3.17564,0 -5.75,-2.57436 -5.75,-5.75z" stroke="url(#color-2)" stroke-width="2"/></g></g></svg>