<svg version="1.1" xmlns="http://www.w3.org/2000/svg" xmlns:xlink="http://www.w3.org/1999/xlink" width="289.82372" height="274.82274" viewBox="0,0,289.82372,274.82274"><g transform="translate(-95.08827,-42.63914)"><g data-paper-data="{&quot;isPaintingLayer&quot;:true}" stroke-miterlimit="10" stroke-dasharray="" stroke-dashoffset="0" style="mix-blend-mode: normal"><path d="M105.08827,52.63914c0,0 21.39594,0 27.08269,0c57.64851,0 242.74103,0 242.74103,0v254.82274h-269.82372z" fill="#d7e5f6" fill-rule="nonzero" stroke="#d7e5f6" stroke-width="20" stroke-linecap="round" stroke-linejoin="round"/><path d="M105.39095,181.48092c0,-2.86605 1.51013,-5.18941 3.37297,-5.18941h263.77178c0.89456,0 1.7525,0.54675 2.38506,1.51996c0.63254,0.9732 0.98791,2.29313 0.98791,3.66942v107.0232c0,2.86605 -1.51013,5.18941 -3.37297,5.18941h-263.77178c-1.86284,0 -3.37297,-2.32336 -3.37297,-5.18941z" fill="#c3d9f2" fill-rule="evenodd" stroke="none" stroke-width="1" stroke-linecap="square" stroke-linejoin="miter"/><path d="M111.14918,201.60297c0,-0.03111 1.43198,-0.05634 3.19841,-0.05634h250.1209c0.84826,0 1.6618,0.00593 2.26163,0.0165c0.5998,0.01057 0.93678,0.02489 0.93678,0.03984v1.16192c0,0.03111 -1.43198,0.05634 -3.19841,0.05634h-250.1209c-1.76643,0 -3.19841,-0.02523 -3.19841,-0.05634z" fill="#396ca6" fill-rule="evenodd" stroke="none" stroke-width="1" stroke-linecap="square" stroke-linejoin="miter"/><path d="M201.07815,144.49276h74.41795" fill="#000000" fill-rule="nonzero" stroke="#396ca6" stroke-width="1.5" stroke-linecap="round" stroke-linejoin="miter"/><text transform="translate(112.61188,273.42168) scale(0.32146,0.32146)" font-size="24" xml:space="preserve" fill="#507299" fill-rule="nonzero" stroke="#000000" stroke-width="0" stroke-linecap="butt" stroke-linejoin="miter" stroke-miterlimit="10" stroke-dasharray="" stroke-dashoffset="0" font-family="Sans Serif" font-weight="bold" text-anchor="start" style="mix-blend-mode: normal"><tspan x="0" dy="0">Make sure to love and favourite Oryx OS! Follow me as well to </tspan><tspan x="0" dy="28.799999999999997px">motivate me so that I continue the development! </tspan></text><path d="M209.96434,124.29628c2.3723,-0.10139 7.70045,-0.39056 10.50885,-7.18509c2.83488,-6.85858 -2.83841,-11.31671 -2.83841,-11.31671c0,0 -3.81385,-4.30164 -4.86312,-7.93664c-1.04926,-3.635 0.12803,-8.30851 0.12803,-8.30851c0,0 0.34644,0.03337 0.52862,0.0544c2.64144,0.30479 6.51542,1.24313 10.35593,3.94786c3.31696,2.33598 7.44831,6.37277 9.12268,11.77788c4.47132,12.63137 -2.2679,24.00191 -9.81403,28.38949c-15.67945,9.11655 -28.55676,-0.54815 -32.40171,-6.85081c-8.2965,-13.59971 -2.27684,-25.42024 2.61649,-30.27125c4.67256,-4.63215 10.40091,-6.2369 13.81438,-6.79287c0.17635,-0.02874 0.50997,-0.07801 0.50997,-0.07801c0,0 1.81624,3.97443 -0.21966,9.14515c-2.10535,5.34707 -5.34145,8.01005 -5.34145,8.01005c0,0 -4.35668,4.91099 -0.91198,11.80329c2.14182,4.28543 7.0773,5.68566 8.80537,5.61182z" fill="#396ca6" fill-rule="nonzero" stroke="none" stroke-width="0" stroke-linecap="butt" stroke-linejoin="miter"/><text transform="translate(181.25007,307.94709) scale(0.17756,0.17756)" font-size="40" xml:space="preserve" fill="#396ca6" fill-rule="nonzero" stroke="none" stroke-width="1" stroke-linecap="butt" stroke-linejoin="miter" stroke-miterlimit="10" stroke-dasharray="" stroke-dashoffset="0" font-family="Sans Serif" font-weight="normal" text-anchor="start" style="mix-blend-mode: normal"><tspan x="0" dy="0">Oryx OS is by @omar_BESTcoder</tspan></text><g fill-rule="nonzero" stroke-linejoin="miter"><path d="M361.68807,58.73598c0,-3.85021 3.12119,-6.9714 6.9714,-6.9714c3.85021,0 6.9714,3.12119 6.9714,6.9714c0,3.85021 -3.12118,6.9714 -6.9714,6.9714c-3.85021,0 -6.9714,-3.12119 -6.9714,-6.9714z" fill="#ff4848" stroke="#ff3535" stroke-width="0" stroke-linecap="butt"/><path d="M371.21178,61.27376l-5.12381,-5.12381" fill="none" stroke="#d7e5f6" stroke-width="1.5" stroke-linecap="round"/><path d="M366.08791,61.27378l5.12381,-5.12381" data-paper-data="{&quot;index&quot;:null}" fill="none" stroke="#d7e5f6" stroke-width="1.5" stroke-linecap="round"/></g><path d="M239.25221,128.18893v-15.28357h3.82089v1.72973h0.54215c0.22374,-0.6196 0.59379,-1.0757 1.11012,-1.36829c0.53355,-0.29259 1.15315,-0.43889 1.85881,-0.43889h1.833v3.45946h-1.91045c-0.98104,0 -1.78997,0.26678 -2.42678,0.80032c-0.63681,0.51634 -0.95522,1.31666 -0.95522,2.40097v8.70028zM253.1113,134.35916v-3.40782h8.31302c0.58518,0 0.87777,-0.30119 0.87777,-0.90359v-3.87253h-0.56797c-0.1549,0.36144 -0.41307,0.71426 -0.77451,1.05849c-0.34423,0.34423 -0.81753,0.63681 -1.41993,0.87777c-0.58518,0.22374 -1.34248,0.33562 -2.27188,0.33562c-1.18757,0 -2.22886,-0.27538 -3.12384,-0.82614c-0.89498,-0.55076 -1.59204,-1.30805 -2.09116,-2.27188c-0.48191,-0.96383 -0.72287,-2.07396 -0.72287,-3.33037v-9.11335h3.87253v8.80354c0,1.15315 0.28399,2.02232 0.85196,2.6075c0.56797,0.56797 1.3769,0.85196 2.42678,0.85196c1.18757,0 2.10837,-0.39586 2.7624,-1.18757c0.65403,-0.79171 0.98104,-1.89324 0.98104,-3.30456v-7.77087h3.89834v17.99434c0,1.04988 -0.3098,1.88463 -0.92941,2.50423c-0.6196,0.63681 -1.43714,0.95522 -2.4526,0.95522zM269.07908,128.18893l5.55062,-7.71924l-5.49899,-7.56434h4.51795l3.48527,5.08592h0.54215l3.48527,-5.08592h4.49213l-5.47317,7.56434l5.55062,7.71924h-4.56958l-3.48527,-5.13755h-0.54215l-3.48527,5.13755z" fill="#396ca6" fill-rule="nonzero" stroke="none" stroke-width="1" stroke-linecap="square" stroke-linejoin="miter"/><path d="M199.33923,159.97959v-8.2534h3.30897c0.60855,0 1.11567,0.08875 1.52136,0.26624c0.4057,0.17749 0.70997,0.42788 0.91282,0.75117c0.20285,0.31695 0.30427,0.68144 0.30427,1.09348c0,0.32329 -0.06339,0.60855 -0.19017,0.85577c-0.12678,0.24088 -0.30427,0.44056 -0.53248,0.59904c-0.22187,0.15214 -0.47543,0.2599 -0.76068,0.32329v0.07607c0.31061,0.01268 0.60221,0.10142 0.87478,0.26624c0.27892,0.16482 0.50395,0.39619 0.67511,0.69412c0.17115,0.29159 0.25673,0.64024 0.25673,1.04594c0,0.43739 -0.10776,0.82724 -0.32329,1.16955c-0.21553,0.34231 -0.53565,0.61488 -0.96036,0.81773c-0.41838,0.19651 -0.93817,0.29476 -1.5594,0.29476zM201.0888,158.55337h1.42628c0.48176,0 0.83358,-0.09191 1.05545,-0.27575c0.2282,-0.19017 0.34231,-0.44056 0.34231,-0.75117c0,-0.2282 -0.05705,-0.42788 -0.17115,-0.59904c-0.10776,-0.17749 -0.26307,-0.31695 -0.46592,-0.41838c-0.20285,-0.10142 -0.44373,-0.15214 -0.72265,-0.15214h-1.46431zM201.0888,155.17783h1.29316c0.24088,0 0.45324,-0.0412 0.63707,-0.12361c0.19017,-0.08875 0.33914,-0.20919 0.4469,-0.36132c0.10776,-0.15847 0.16165,-0.34548 0.16165,-0.561c0,-0.29793 -0.10459,-0.53882 -0.31378,-0.72265c-0.20919,-0.18383 -0.50712,-0.27575 -0.8938,-0.27575h-1.33119zM206.8422,159.97959v-8.2534h5.572v1.43579h-3.82243v1.96827h3.53717v1.43579h-3.53717v1.97777h3.83194v1.43579zM213.48321,153.162v-1.43579h6.78909v1.43579h-2.52927v6.81762h-1.73055v-6.81762zM221.79438,159.97959h-1.87318l2.85256,-8.2534h2.25352l2.84305,8.2534h-1.87318l-2.06335,-6.37072h-0.06656zM221.6803,156.73724h4.42147v1.35972h-4.42147zM231.17785,153.162v-1.43579h6.78909v1.43579h-2.52927v6.81762h-1.73055v-6.81762zM239.07935,159.97959v-8.2534h5.572v1.43579h-3.82243v1.96827h3.53717v1.43579h-3.53717v1.97777h3.83194v1.43579zM250.52209,154.09385c-0.03803,-0.32329 -0.18066,-0.57368 -0.42788,-0.75117c-0.24088,-0.18383 -0.57051,-0.27575 -0.98889,-0.27575c-0.28526,0 -0.52614,0.0412 -0.72265,0.12361c-0.19651,0.07607 -0.34548,0.18383 -0.4469,0.32329c-0.10142,0.13946 -0.15214,0.29793 -0.15214,0.47543c-0.00634,0.15214 0.02219,0.28209 0.08558,0.38985c0.06973,0.10776 0.16482,0.20285 0.28526,0.28526c0.12678,0.07607 0.26941,0.1458 0.42788,0.20919c0.15847,0.05705 0.32646,0.10459 0.50395,0.14263l0.74167,0.18066c0.36132,0.07607 0.69095,0.18383 0.98889,0.32329c0.30427,0.13312 0.56417,0.29793 0.7797,0.49444c0.22187,0.19651 0.39302,0.42788 0.51346,0.69412c0.12678,0.26624 0.19017,0.57051 0.19017,0.91282c0,0.50712 -0.12678,0.94452 -0.38034,1.31218c-0.25356,0.36766 -0.62122,0.65292 -1.10299,0.85577c-0.47543,0.20285 -1.04911,0.30427 -1.72104,0.30427c-0.6656,0 -1.24562,-0.10142 -1.74006,-0.30427c-0.48811,-0.20285 -0.87161,-0.50395 -1.15053,-0.90331c-0.27258,-0.4057 -0.41838,-0.90648 -0.43739,-1.50235h1.69252c0.01902,0.27892 0.09826,0.51029 0.23771,0.69412c0.1458,0.18383 0.33597,0.32329 0.57051,0.41838c0.24088,0.08875 0.51029,0.13312 0.80823,0.13312c0.29793,0 0.55467,-0.0412 0.77019,-0.12361c0.22187,-0.08875 0.39302,-0.20919 0.51346,-0.36132c0.12044,-0.15214 0.18066,-0.32646 0.18066,-0.52297c0,-0.19017 -0.05388,-0.34865 -0.16165,-0.47543c-0.10776,-0.12678 -0.26624,-0.23454 -0.47543,-0.32329c-0.20919,-0.08875 -0.46275,-0.16798 -0.76068,-0.23771l-0.90331,-0.2282c-0.69729,-0.16482 -1.24879,-0.42788 -1.65448,-0.78921c-0.39936,-0.36132 -0.59904,-0.84626 -0.59904,-1.45481c0,-0.50078 0.13312,-0.93817 0.39936,-1.31218c0.27258,-0.374 0.64341,-0.6656 1.1125,-0.87478c0.47543,-0.20919 1.01424,-0.31378 1.61645,-0.31378c0.61488,0 1.15053,0.10459 1.60694,0.31378c0.46275,0.20919 0.8209,0.50078 1.07446,0.87478c0.25356,0.374 0.38668,0.80505 0.39936,1.29316zM253.15479,153.162v-1.43579h6.78909v1.43579h-2.52927v6.81762h-1.73055v-6.81762zM262.8058,151.72619v8.2534h-1.74957v-8.2534zM271.15405,151.72619v8.2534h-1.51186l-3.59422,-5.20117h-0.05705v5.20117h-1.74957v-8.2534h1.54038l3.55619,5.19166h0.07607v-5.19166zM278.06386,154.38861c-0.05705,-0.19651 -0.13629,-0.37083 -0.23771,-0.52297c-0.10142,-0.15214 -0.22503,-0.27892 -0.37083,-0.38034c-0.1458,-0.10776 -0.31378,-0.19017 -0.50395,-0.24722c-0.18383,-0.05705 -0.38985,-0.08558 -0.61805,-0.08558c-0.41838,0 -0.78921,0.10459 -1.1125,0.31378c-0.31695,0.20919 -0.56417,0.51346 -0.74167,0.91282c-0.17749,0.39936 -0.26624,0.88746 -0.26624,1.46431c0,0.57685 0.08558,1.06813 0.25673,1.47382c0.17749,0.39936 0.42471,0.70363 0.74167,0.91282c0.32329,0.20919 0.70363,0.31378 1.14102,0.31378c0.39302,0 0.72899,-0.06973 1.0079,-0.20919c0.28526,-0.13946 0.50078,-0.33597 0.64658,-0.58953c0.15214,-0.2599 0.2282,-0.56734 0.2282,-0.92233l0.35182,0.05705h-2.1204v-1.32169h3.4516v1.04594c0,0.72265 -0.15531,1.34387 -0.46592,1.86367c-0.30427,0.5198 -0.72582,0.92233 -1.26463,1.20758c-0.53248,0.27892 -1.14736,0.41838 -1.84465,0.41838c-0.77336,0 -1.45481,-0.17115 -2.04433,-0.51346c-0.58319,-0.34231 -1.0396,-0.83041 -1.36923,-1.46431c-0.32329,-0.6339 -0.48494,-1.38507 -0.48494,-2.25352c0,-0.67194 0.09826,-1.27097 0.29476,-1.79711c0.19651,-0.52614 0.46909,-0.96987 0.81773,-1.33119c0.35499,-0.36766 0.76385,-0.64658 1.2266,-0.83675c0.46909,-0.19017 0.97621,-0.28526 1.52136,-0.28526c0.46909,0 0.90331,0.06973 1.30267,0.20919c0.4057,0.13312 0.76385,0.32329 1.07446,0.57051c0.31695,0.24722 0.57368,0.54199 0.77019,0.88429c0.20285,0.33597 0.3328,0.7068 0.38985,1.1125z" fill="#396ca6" fill-rule="nonzero" stroke="none" stroke-width="1" stroke-linecap="square" stroke-linejoin="miter"/><path d="M105.87312,62.95283h-1.4272l2.59954,-7.37387h1.64808l2.59954,7.37387h-1.4272l-1.97089,-5.86171h-0.05097zM105.92409,60.06446h3.89082v1.0704h-3.89082zM112.27118,62.95283v-7.37387h1.29977v2.75246h0.05947c0.0623,-0.13026 0.15575,-0.27185 0.28034,-0.42476c0.1246,-0.15291 0.28884,-0.28318 0.49272,-0.39078c0.20955,-0.11327 0.47857,-0.1699 0.80705,-0.1699c0.42476,0 0.80988,0.11044 1.15535,0.33131c0.34547,0.21521 0.61732,0.5352 0.81554,0.95996c0.20389,0.42476 0.30583,0.94297 0.30583,1.55463c0,0.60599 -0.09911,1.1242 -0.29733,1.55463c-0.19822,0.42476 -0.47007,0.74758 -0.81554,0.96846c-0.33981,0.22088 -0.72776,0.33131 -1.16385,0.33131c-0.31716,0 -0.58051,-0.05097 -0.79006,-0.15291c-0.20955,-0.10761 -0.37662,-0.23503 -0.50122,-0.38229c-0.1246,-0.15291 -0.22088,-0.29733 -0.28884,-0.43326h-0.07646v0.87501zM113.54546,60.18339c0,0.36246 0.05097,0.67962 0.15291,0.95147c0.10194,0.26618 0.24919,0.47573 0.44175,0.62865c0.19256,0.14725 0.42759,0.22088 0.7051,0.22088c0.28884,0 0.52954,-0.07646 0.7221,-0.22937c0.19822,-0.15858 0.34547,-0.37379 0.44175,-0.64564c0.10194,-0.27185 0.15291,-0.58051 0.15291,-0.92598c0,-0.33981 -0.05097,-0.64281 -0.15291,-0.90899c-0.09628,-0.26618 -0.2407,-0.47573 -0.43326,-0.62865c-0.19256,-0.15291 -0.43609,-0.22937 -0.73059,-0.22937c-0.27751,0 -0.51538,0.07362 -0.7136,0.22088c-0.19256,0.14725 -0.33981,0.35397 -0.44175,0.62015c-0.09628,0.26052 -0.14442,0.56918 -0.14442,0.92598zM121.01804,63.06327c-0.53803,0 -1.00527,-0.11893 -1.40171,-0.3568c-0.39644,-0.23787 -0.7051,-0.56918 -0.92598,-0.99394c-0.21521,-0.43042 -0.32282,-0.93164 -0.32282,-1.50366c0,-0.57201 0.10761,-1.07323 0.32282,-1.50366c0.22088,-0.43042 0.52954,-0.76457 0.92598,-1.00244c0.39644,-0.23787 0.86368,-0.3568 1.40171,-0.3568c0.53803,0 1.00527,0.11893 1.40171,0.3568c0.39644,0.23787 0.70227,0.57201 0.91749,1.00244c0.22088,0.43042 0.33131,0.93164 0.33131,1.50366c0,0.57201 -0.11044,1.07323 -0.33131,1.50366c-0.21521,0.42476 -0.52104,0.75608 -0.91749,0.99394c-0.39644,0.23787 -0.86368,0.3568 -1.40171,0.3568zM121.02653,62.01837c0.2945,0 0.53803,-0.07929 0.73059,-0.23787c0.19822,-0.16424 0.34547,-0.38229 0.44175,-0.65413c0.09628,-0.27751 0.14442,-0.58617 0.14442,-0.92598c0,-0.33415 -0.04814,-0.63714 -0.14442,-0.90899c-0.09628,-0.27751 -0.24353,-0.49839 -0.44175,-0.66263c-0.19256,-0.16424 -0.43609,-0.24636 -0.73059,-0.24636c-0.30017,0 -0.54936,0.08212 -0.74758,0.24636c-0.19822,0.16424 -0.3483,0.38512 -0.45025,0.66263c-0.09628,0.27185 -0.14442,0.57484 -0.14442,0.90899c0,0.33981 0.04814,0.64847 0.14442,0.92598c0.10194,0.27185 0.25202,0.48989 0.45025,0.65413c0.19822,0.15858 0.44741,0.23787 0.74758,0.23787zM128.29764,60.62513v-3.2027h1.29977v5.5304h-1.25729v-0.98545h-0.05947c-0.1246,0.31149 -0.33131,0.56635 -0.62015,0.76457c-0.28318,0.19256 -0.63148,0.28884 -1.04491,0.28884c-0.36246,0 -0.68245,-0.07929 -0.95996,-0.23787c-0.27751,-0.16424 -0.49556,-0.40211 -0.65413,-0.7136c-0.15291,-0.31149 -0.22937,-0.68811 -0.22937,-1.12987v-3.51703h1.29977v3.32164c0,0.35114 0.09628,0.62865 0.28884,0.83253c0.19256,0.20389 0.44458,0.30583 0.75608,0.30583c0.19256,0 0.37945,-0.04531 0.56069,-0.13592c0.18123,-0.09628 0.32848,-0.23503 0.44175,-0.41627c0.11893,-0.1869 0.1784,-0.42193 0.1784,-0.7051zM133.70342,57.42242v1.00244h-3.17722v-1.00244zM131.30775,56.09717h1.30827v5.19059c0,0.17557 0.02549,0.31149 0.07646,0.40777c0.05663,0.09061 0.12743,0.15291 0.21238,0.1869c0.09061,0.03398 0.18973,0.05097 0.29733,0.05097c0.08495,0 0.16141,-0.00566 0.22937,-0.01699c0.06796,-0.01699 0.11893,-0.02832 0.15291,-0.03398l0.22088,1.01943c-0.06796,0.02265 -0.16707,0.04814 -0.29733,0.07646c-0.13026,0.02832 -0.28601,0.04531 -0.46724,0.05097c-0.32848,0.01133 -0.62298,-0.03681 -0.8835,-0.14442c-0.26052,-0.11327 -0.46724,-0.28318 -0.62015,-0.50971c-0.15291,-0.2322 -0.22937,-0.52104 -0.22937,-0.86651zM143.9663,59.26589c0,0.79289 -0.15008,1.47251 -0.45025,2.03886c-0.2945,0.56635 -0.69661,0.99961 -1.20632,1.29977c-0.50971,0.30017 -1.08739,0.45025 -1.73303,0.45025c-0.64564,0 -1.22615,-0.15008 -1.74152,-0.45025c-0.50971,-0.30583 -0.91182,-0.73909 -1.20632,-1.29977c-0.2945,-0.56635 -0.44175,-1.24597 -0.44175,-2.03886c0,-0.79855 0.14725,-1.47817 0.44175,-2.03886c0.2945,-0.56635 0.69661,-0.99961 1.20632,-1.29977c0.51538,-0.30017 1.09589,-0.45025 1.74152,-0.45025c0.64564,0 1.22331,0.15008 1.73303,0.45025c0.50971,0.30017 0.91182,0.73342 1.20632,1.29977c0.30017,0.56069 0.45025,1.2403 0.45025,2.03886zM142.61557,59.26589c0,-0.56069 -0.08779,-1.03359 -0.26335,-1.4187c-0.1699,-0.38512 -0.4106,-0.67679 -0.7221,-0.87501c-0.30583,-0.19822 -0.65697,-0.29733 -1.05341,-0.29733c-0.40211,0 -0.75891,0.09911 -1.0704,0.29733c-0.30583,0.19822 -0.54653,0.48989 -0.7221,0.87501c-0.1699,0.38512 -0.25486,0.85802 -0.25486,1.4187c0,0.56069 0.08495,1.03359 0.25486,1.4187c0.17557,0.38512 0.41627,0.67679 0.7221,0.87501c0.31149,0.19822 0.66829,0.29733 1.0704,0.29733c0.39644,0 0.74758,-0.09911 1.05341,-0.29733c0.31149,-0.19822 0.55219,-0.48989 0.7221,-0.87501c0.17557,-0.38512 0.26335,-0.85802 0.26335,-1.4187zM145.17431,62.95283v-5.5304h1.26579v0.91749h0.05097c0.10194,-0.31716 0.27468,-0.56352 0.51821,-0.73909c0.24919,-0.17557 0.53237,-0.26335 0.84952,-0.26335c0.07362,0 0.15575,0.00566 0.24636,0.01699c0.09061,0.00566 0.16424,0.01416 0.22088,0.02549v1.19783c-0.05097,-0.02265 -0.13592,-0.03964 -0.25486,-0.05097c-0.11893,-0.01699 -0.23503,-0.02549 -0.3483,-0.02549c-0.23787,0 -0.45025,0.05097 -0.63714,0.15291c-0.1869,0.10194 -0.33698,0.24353 -0.45025,0.42476c-0.10761,0.18123 -0.16141,0.38795 -0.16141,0.62015v3.25368zM150.17782,65.02566c-0.17557,0 -0.33981,-0.01416 -0.49272,-0.04248c-0.14725,-0.02832 -0.26618,-0.05947 -0.3568,-0.09345l0.30583,-1.01093c0.1869,0.05097 0.35397,0.07362 0.50122,0.06796c0.15291,0 0.28601,-0.04531 0.39928,-0.13592c0.11327,-0.08495 0.20955,-0.2322 0.28884,-0.44175l0.11044,-0.29733l-2.00488,-5.64933h1.38472l1.27429,4.17966h0.05947l1.27429,-4.17966h1.39322l-2.21726,6.20152c-0.10194,0.2945 -0.2407,0.54653 -0.41627,0.75608c-0.1699,0.20955 -0.37945,0.36813 -0.62865,0.47573c-0.24353,0.11327 -0.5352,0.1699 -0.87501,0.1699zM156.27524,57.42242l1.12137,2.03886l1.12987,-2.03886h1.38472l-1.67356,2.76095l1.69905,2.76945h-1.36773l-1.17234,-1.98789l-1.16385,1.98789h-1.38472l1.69055,-2.76945l-1.63958,-2.76095zM170.0887,59.26589c0,0.79289 -0.15008,1.47251 -0.45025,2.03886c-0.2945,0.56635 -0.69661,0.99961 -1.20632,1.29977c-0.50971,0.30017 -1.08739,0.45025 -1.73303,0.45025c-0.64564,0 -1.22615,-0.15008 -1.74152,-0.45025c-0.50971,-0.30583 -0.91182,-0.73909 -1.20632,-1.29977c-0.2945,-0.56635 -0.44175,-1.24597 -0.44175,-2.03886c0,-0.79855 0.14725,-1.47817 0.44175,-2.03886c0.2945,-0.56635 0.69661,-0.99961 1.20632,-1.29977c0.51538,-0.30017 1.09589,-0.45025 1.74152,-0.45025c0.64564,0 1.22331,0.15008 1.73303,0.45025c0.50971,0.30017 0.91182,0.73342 1.20632,1.29977c0.30017,0.56069 0.45025,1.2403 0.45025,2.03886zM168.73789,59.26589c0,-0.56069 -0.08779,-1.03359 -0.26335,-1.4187c-0.1699,-0.38512 -0.4106,-0.67679 -0.7221,-0.87501c-0.30583,-0.19822 -0.65697,-0.29733 -1.05341,-0.29733c-0.40211,0 -0.75891,0.09911 -1.0704,0.29733c-0.30583,0.19822 -0.54653,0.48989 -0.7221,0.87501c-0.1699,0.38512 -0.25486,0.85802 -0.25486,1.4187c0,0.56069 0.08495,1.03359 0.25486,1.4187c0.17557,0.38512 0.41627,0.67679 0.7221,0.87501c0.31149,0.19822 0.66829,0.29733 1.0704,0.29733c0.39644,0 0.74758,-0.09911 1.05341,-0.29733c0.31149,-0.19822 0.55219,-0.48989 0.7221,-0.87501c0.17557,-0.38512 0.26335,-0.85802 0.26335,-1.4187zM175.36584,57.60082c-0.03398,-0.31149 -0.17557,-0.55502 -0.42476,-0.73059c-0.24919,-0.17557 -0.57201,-0.26335 -0.96846,-0.26335c-0.27751,0 -0.51821,0.04248 -0.7221,0.12743c-0.19822,0.08495 -0.35114,0.19822 -0.45874,0.33981c-0.10194,0.14159 -0.15291,0.30583 -0.15291,0.49272c0,0.15291 0.03398,0.28601 0.10194,0.39928c0.07362,0.11327 0.1699,0.20955 0.28884,0.28884c0.1246,0.07929 0.26052,0.14442 0.40777,0.19539c0.14725,0.05097 0.29733,0.09628 0.45025,0.13592l0.69661,0.1699c0.27751,0.0623 0.5437,0.15008 0.79855,0.26335c0.26052,0.10761 0.49272,0.24636 0.69661,0.41627c0.20389,0.1699 0.3653,0.37379 0.48423,0.61166c0.1246,0.23787 0.1869,0.51538 0.1869,0.83253c0,0.43609 -0.11044,0.81838 -0.33131,1.14686c-0.22088,0.32282 -0.54086,0.57768 -0.95996,0.76457c-0.41343,0.18123 -0.91749,0.27185 -1.51215,0.27185c-0.57201,0 -1.0704,-0.08779 -1.49516,-0.26335c-0.4191,-0.18123 -0.74758,-0.44175 -0.98545,-0.78156c-0.2322,-0.33981 -0.35963,-0.75608 -0.38229,-1.2488h1.31676c0.01699,0.26052 0.09628,0.47573 0.23787,0.64564c0.14159,0.1699 0.32282,0.29733 0.5437,0.38229c0.22654,0.08495 0.47857,0.12743 0.75608,0.12743c0.28884,0 0.5437,-0.04248 0.76457,-0.12743c0.22088,-0.09061 0.39361,-0.21521 0.51821,-0.37379c0.1246,-0.15858 0.18973,-0.34264 0.19539,-0.55219c-0.00566,-0.19256 -0.06513,-0.35114 -0.1784,-0.47573c-0.10761,-0.13026 -0.26052,-0.23787 -0.45874,-0.32282c-0.19822,-0.08495 -0.43042,-0.15858 -0.69661,-0.22088l-0.83253,-0.22088c-0.61166,-0.15291 -1.09305,-0.38795 -1.44419,-0.7051c-0.35114,-0.32282 -0.5267,-0.74758 -0.5267,-1.27429c0,-0.43609 0.11893,-0.81554 0.3568,-1.13836c0.23787,-0.32848 0.56069,-0.58334 0.96846,-0.76457c0.40777,-0.18123 0.86935,-0.27185 1.38472,-0.27185c0.52104,0 0.97978,0.09061 1.37623,0.27185c0.39644,0.18123 0.70794,0.43326 0.93448,0.75608c0.22654,0.31716 0.34264,0.68245 0.3483,1.09589z" fill="#315e91" fill-rule="nonzero" stroke="none" stroke-width="1" stroke-linecap="square" stroke-linejoin="miter"/><path d="M114.22908,193.21022h-1.29987l2.36763,-6.71602h1.50105l2.36763,6.71602h-1.29987l-1.79506,-5.33877h-0.04642zM114.27551,190.57949h3.54371v0.97491h-3.54371zM120.05635,193.21022v-6.71602h1.18382v2.50689h0.05416c0.05674,-0.11864 0.14185,-0.2476 0.25534,-0.38687c0.11347,-0.13928 0.26306,-0.25791 0.44876,-0.35592c0.19086,-0.10316 0.43587,-0.15474 0.73505,-0.15474c0.38687,0 0.73763,0.10059 1.05228,0.30175c0.31465,0.19602 0.56225,0.48746 0.74279,0.87433c0.1857,0.38687 0.27854,0.85884 0.27854,1.41593c0,0.55194 -0.09027,1.02391 -0.2708,1.41594c-0.18055,0.38687 -0.42814,0.68089 -0.74279,0.88206c-0.30949,0.20117 -0.66283,0.30175 -1.06001,0.30175c-0.28886,0 -0.52872,-0.04642 -0.71958,-0.13928c-0.19086,-0.098 -0.34302,-0.21406 -0.4565,-0.34818c-0.11347,-0.13928 -0.20117,-0.2708 -0.26307,-0.39461h-0.06963v0.79695zM121.21695,190.68784c0,0.33012 0.04641,0.61899 0.13927,0.86658c0.09285,0.24244 0.22697,0.4333 0.40235,0.57257c0.17538,0.13411 0.38944,0.20117 0.6422,0.20117c0.26307,0 0.48229,-0.06964 0.65767,-0.20891c0.18054,-0.14442 0.31465,-0.34044 0.40234,-0.58804c0.09285,-0.2476 0.13927,-0.52872 0.13927,-0.84337c0,-0.30949 -0.04642,-0.58546 -0.13927,-0.8279c-0.08769,-0.24244 -0.21923,-0.43329 -0.39461,-0.57257c-0.17538,-0.13927 -0.39718,-0.20891 -0.66541,-0.20891c-0.25275,0 -0.4694,0.06706 -0.64994,0.20117c-0.17538,0.13411 -0.30949,0.32239 -0.40235,0.56482c-0.08769,0.23728 -0.13153,0.5184 -0.13153,0.84337zM128.02287,193.31078c-0.49004,0 -0.91559,-0.10833 -1.27667,-0.32497c-0.36107,-0.21664 -0.6422,-0.5184 -0.84337,-0.90527c-0.19602,-0.39202 -0.29402,-0.84852 -0.29402,-1.36951c0,-0.52099 0.09801,-0.97748 0.29402,-1.36951c0.20117,-0.39202 0.4823,-0.69637 0.84337,-0.91301c0.36107,-0.21664 0.78663,-0.32497 1.27667,-0.32497c0.49004,0 0.91559,0.10832 1.27666,0.32497c0.36107,0.21664 0.63962,0.52099 0.83563,0.91301c0.20117,0.39202 0.30176,0.84852 0.30176,1.36951c0,0.52098 -0.10059,0.97749 -0.30176,1.36951c-0.19602,0.38687 -0.47456,0.68863 -0.83563,0.90527c-0.36107,0.21664 -0.78663,0.32497 -1.27666,0.32497zM128.0306,192.3591c0.26823,0 0.49003,-0.07222 0.66541,-0.21664c0.18055,-0.14959 0.31465,-0.34818 0.40235,-0.59577c0.08769,-0.25275 0.13154,-0.53388 0.13154,-0.84337c0,-0.30434 -0.04385,-0.5803 -0.13154,-0.8279c-0.08769,-0.25275 -0.2218,-0.45393 -0.40235,-0.60351c-0.17538,-0.14959 -0.39718,-0.22438 -0.66541,-0.22438c-0.27339,0 -0.50035,0.07479 -0.68089,0.22438c-0.18054,0.14959 -0.31723,0.35076 -0.41008,0.60351c-0.08769,0.2476 -0.13154,0.52356 -0.13154,0.8279c0,0.30949 0.04385,0.59062 0.13154,0.84337c0.09285,0.2476 0.22955,0.44619 0.41008,0.59577c0.18055,0.14442 0.4075,0.21664 0.68089,0.21664zM134.65303,191.09017v-2.91698h1.18381v5.03701h-1.14512v-0.89753h-0.05416c-0.11347,0.2837 -0.30175,0.51582 -0.56482,0.69636c-0.25791,0.17538 -0.57514,0.26307 -0.9517,0.26307c-0.33013,0 -0.62157,-0.07222 -0.87432,-0.21664c-0.25275,-0.14959 -0.45135,-0.36624 -0.59577,-0.64994c-0.13928,-0.2837 -0.20891,-0.62673 -0.20891,-1.02907v-3.20326h1.18381v3.02529c0,0.3198 0.08769,0.57257 0.26307,0.75827c0.17538,0.1857 0.40492,0.27855 0.68863,0.27855c0.17538,0 0.3456,-0.04127 0.51066,-0.12379c0.16507,-0.08769 0.29918,-0.21406 0.40235,-0.37913c0.10832,-0.17022 0.16248,-0.38429 0.16248,-0.6422zM139.57652,188.17318v0.91301h-2.89377v-0.91301zM137.39462,186.96618h1.19155v4.72752c0,0.15991 0.02321,0.2837 0.06963,0.3714c0.05158,0.08253 0.11606,0.13928 0.19343,0.17022c0.08254,0.03095 0.1728,0.04642 0.27081,0.04642c0.07737,0 0.14701,-0.00516 0.20891,-0.01547c0.0619,-0.01547 0.10832,-0.02578 0.13927,-0.03095l0.20117,0.92848c-0.0619,0.02063 -0.15217,0.04385 -0.2708,0.06964c-0.11864,0.02579 -0.26049,0.04126 -0.42556,0.04642c-0.29918,0.01032 -0.5674,-0.03354 -0.80469,-0.13154c-0.23728,-0.10316 -0.42555,-0.25791 -0.56482,-0.46424c-0.13928,-0.21149 -0.20892,-0.47456 -0.20892,-0.78921zM148.92382,189.85219c0,0.72215 -0.13669,1.34114 -0.41008,1.85697c-0.26823,0.51582 -0.63446,0.91043 -1.0987,1.18381c-0.46424,0.27339 -0.99038,0.41008 -1.57842,0.41008c-0.58804,0 -1.11676,-0.13669 -1.58615,-0.41008c-0.46424,-0.27855 -0.83047,-0.67315 -1.0987,-1.18381c-0.26823,-0.51582 -0.40235,-1.13481 -0.40235,-1.85697c0,-0.72731 0.13412,-1.3463 0.40235,-1.85697c0.26823,-0.51582 0.63446,-0.91043 1.0987,-1.18382c0.4694,-0.27338 0.99811,-0.41007 1.58615,-0.41007c0.58804,0 1.11417,0.13669 1.57842,0.41007c0.46424,0.27339 0.83047,0.668 1.0987,1.18382c0.27338,0.51067 0.41008,1.12966 0.41008,1.85697zM147.6936,189.85219c0,-0.51067 -0.07996,-0.94138 -0.23986,-1.29213c-0.15474,-0.35076 -0.37398,-0.61641 -0.65767,-0.79695c-0.27855,-0.18054 -0.59835,-0.2708 -0.95943,-0.2708c-0.36624,0 -0.6912,0.09027 -0.97491,0.2708c-0.27855,0.18055 -0.49777,0.44619 -0.65767,0.79695c-0.15474,0.35076 -0.23212,0.78147 -0.23212,1.29213c0,0.51066 0.07737,0.94138 0.23212,1.29213c0.15991,0.35076 0.37913,0.6164 0.65767,0.79695c0.2837,0.18055 0.60867,0.2708 0.97491,0.2708c0.36107,0 0.68089,-0.09027 0.95943,-0.2708c0.2837,-0.18055 0.50293,-0.44619 0.65767,-0.79695c0.15991,-0.35076 0.23986,-0.78147 0.23986,-1.29213zM150.02403,193.21022v-5.03701h1.15286v0.83563h0.04642c0.09285,-0.28886 0.25017,-0.51325 0.47198,-0.67314c0.22696,-0.15991 0.48488,-0.23986 0.77373,-0.23986c0.06705,0 0.14185,0.00516 0.22438,0.01547c0.08254,0.00516 0.14959,0.0129 0.20117,0.02322v1.09096c-0.04642,-0.02063 -0.12379,-0.0361 -0.23212,-0.04642c-0.10832,-0.01547 -0.21407,-0.02322 -0.31724,-0.02322c-0.21664,0 -0.41007,0.04642 -0.5803,0.13928c-0.17022,0.09285 -0.30692,0.22179 -0.41008,0.38687c-0.09801,0.16506 -0.14701,0.35334 -0.14701,0.56482v2.96341zM154.58117,195.09811c-0.15991,0 -0.30949,-0.0129 -0.44876,-0.03869c-0.13411,-0.02579 -0.24244,-0.05416 -0.32497,-0.08511l0.27855,-0.92074c0.17022,0.04642 0.32239,0.06705 0.4565,0.0619c0.13928,0 0.26049,-0.04127 0.36366,-0.1238c0.10316,-0.07737 0.19086,-0.21148 0.26307,-0.40234l0.10058,-0.27081l-1.82601,-5.14533h1.26119l1.1606,3.80677h0.05416l1.1606,-3.80677h1.26893l-2.01944,5.64826c-0.09285,0.26823 -0.21923,0.49777 -0.37912,0.68863c-0.15474,0.19086 -0.34561,0.33529 -0.57257,0.43329c-0.2218,0.10316 -0.48745,0.15475 -0.79695,0.15475zM160.13462,188.17318l1.02134,1.85696l1.02907,-1.85696h1.26118l-1.52426,2.51464l1.54747,2.52238h-1.24571l-1.06775,-1.81054l-1.06002,1.81054h-1.26119l1.53974,-2.52238l-1.49331,-2.51464zM172.71572,189.85219c0,0.72215 -0.13669,1.34114 -0.41007,1.85697c-0.26823,0.51582 -0.63446,0.91043 -1.09871,1.18381c-0.46424,0.27339 -0.99038,0.41008 -1.57842,0.41008c-0.58804,0 -1.11676,-0.13669 -1.58615,-0.41008c-0.46424,-0.27855 -0.83047,-0.67315 -1.0987,-1.18381c-0.26823,-0.51582 -0.40235,-1.13481 -0.40235,-1.85697c0,-0.72731 0.13412,-1.3463 0.40235,-1.85697c0.26823,-0.51582 0.63446,-0.91043 1.0987,-1.18382c0.4694,-0.27338 0.99811,-0.41007 1.58615,-0.41007c0.58804,0 1.11417,0.13669 1.57842,0.41007c0.46424,0.27339 0.83048,0.668 1.09871,1.18382c0.27338,0.51067 0.41007,1.12966 0.41007,1.85697zM171.48547,189.85219c0,-0.51067 -0.07996,-0.94138 -0.23986,-1.29213c-0.15474,-0.35076 -0.37398,-0.61641 -0.65768,-0.79695c-0.27855,-0.18054 -0.59835,-0.2708 -0.95943,-0.2708c-0.36624,0 -0.6912,0.09027 -0.97491,0.2708c-0.27855,0.18055 -0.49777,0.44619 -0.65767,0.79695c-0.15474,0.35076 -0.23211,0.78147 -0.23211,1.29213c0,0.51066 0.07737,0.94138 0.23211,1.29213c0.15991,0.35076 0.37913,0.6164 0.65767,0.79695c0.2837,0.18055 0.60867,0.2708 0.97491,0.2708c0.36107,0 0.68089,-0.09027 0.95943,-0.2708c0.2837,-0.18055 0.50293,-0.44619 0.65768,-0.79695c0.15991,-0.35076 0.23986,-0.78147 0.23986,-1.29213zM177.52213,188.33571c-0.03095,-0.2837 -0.15991,-0.50551 -0.38687,-0.66541c-0.22696,-0.15991 -0.52098,-0.23986 -0.88205,-0.23986c-0.25275,0 -0.47198,0.03869 -0.65767,0.11606c-0.18055,0.07737 -0.31981,0.18055 -0.41782,0.30949c-0.09285,0.12896 -0.13927,0.27855 -0.13927,0.44877c0,0.13928 0.03096,0.26049 0.09285,0.36366c0.06705,0.10316 0.15474,0.19085 0.26306,0.26306c0.11347,0.07222 0.23729,0.13154 0.3714,0.17796c0.13411,0.04642 0.2708,0.08769 0.41007,0.1238l0.63446,0.15474c0.25275,0.05674 0.49519,0.1367 0.72731,0.23986c0.23728,0.098 0.44876,0.22438 0.63446,0.37912c0.1857,0.15475 0.33271,0.34044 0.44103,0.55709c0.11347,0.21664 0.17023,0.4694 0.17023,0.75826c0,0.39718 -0.10059,0.74537 -0.30176,1.04454c-0.20117,0.29402 -0.49261,0.52614 -0.87432,0.69637c-0.37655,0.16506 -0.83564,0.24759 -1.37725,0.24759c-0.52098,0 -0.97491,-0.07995 -1.36177,-0.23986c-0.38171,-0.16507 -0.68089,-0.40235 -0.89753,-0.71184c-0.21148,-0.30949 -0.32755,-0.68863 -0.34818,-1.13739h1.19929c0.01547,0.23728 0.08769,0.4333 0.21664,0.58804c0.12895,0.15474 0.29402,0.27081 0.49519,0.34818c0.20633,0.07737 0.43587,0.11606 0.68863,0.11606c0.26307,0 0.49519,-0.03869 0.69636,-0.11606c0.20117,-0.08254 0.3585,-0.19602 0.47198,-0.34044c0.11347,-0.14442 0.1728,-0.31207 0.17796,-0.50293c-0.00516,-0.17538 -0.05932,-0.31981 -0.16248,-0.43329c-0.09801,-0.11864 -0.23728,-0.21664 -0.41781,-0.29401c-0.18055,-0.07737 -0.39202,-0.14443 -0.63446,-0.20117l-0.75826,-0.20117c-0.55709,-0.13928 -0.99554,-0.35334 -1.31535,-0.6422c-0.3198,-0.29402 -0.47971,-0.68089 -0.47971,-1.16061c0,-0.39718 0.10832,-0.74278 0.32497,-1.0368c0.21664,-0.29918 0.51067,-0.5313 0.88206,-0.69637c0.37139,-0.16506 0.79179,-0.2476 1.26119,-0.2476c0.47456,0 0.89237,0.08253 1.25345,0.2476c0.36107,0.16506 0.64478,0.39461 0.85111,0.68863c0.20633,0.28886 0.31207,0.62157 0.31723,0.99812z" fill="#2a507b" fill-rule="nonzero" stroke="none" stroke-width="1" stroke-linecap="square" stroke-linejoin="miter"/><text transform="translate(111.32954,215.78395) scale(0.39687,0.39687)" font-size="24" xml:space="preserve" fill="#2a507b" fill-rule="nonzero" stroke="#000000" stroke-width="0" stroke-linecap="butt" stroke-linejoin="miter" stroke-miterlimit="10" stroke-dasharray="" stroke-dashoffset="0" font-family="Segoe UI" font-weight="bold" text-anchor="start" style="mix-blend-mode: normal"><tspan x="0" dy="0">System Name</tspan><tspan x="0" dy="28.799999999999997px">System Version</tspan><tspan x="0" dy="28.799999999999997px">Kernel Version</tspan><tspan x="0" dy="28.799999999999997px">UI </tspan></text><text transform="translate(188.82849,216.14126) scale(0.39687,0.39687)" font-size="24" xml:space="preserve" fill="#2a507b" fill-rule="nonzero" stroke="#000000" stroke-width="0" stroke-linecap="butt" stroke-linejoin="miter" stroke-miterlimit="10" stroke-dasharray="" stroke-dashoffset="0" font-family="Segoe UI" font-weight="bold" text-anchor="start" style="mix-blend-mode: normal"><tspan x="0" dy="0">Oryx OS</tspan><tspan x="0" dy="28.799999999999997px">0.4</tspan><tspan x="0" dy="28.799999999999997px">Cobalt 0.5.4</tspan><tspan x="0" dy="28.799999999999997px">Redmond UI</tspan></text></g></g></svg>