<svg viewBox="0,0,218,220" height="220" width="218" xmlns:xlink="http://www.w3.org/1999/xlink" xmlns="http://www.w3.org/2000/svg" version="1.1"><g transform="translate(-131,-70)"><g style="mix-blend-mode: normal" stroke-dashoffset="0" stroke-dasharray="" stroke-miterlimit="10" stroke-linejoin="miter" stroke-linecap="butt" stroke="none" data-paper-data="{&quot;isPaintingLayer&quot;:true}"><path stroke-width="0" fill-rule="nonzero" fill="#222222" d="M131,290v-220h218v220z"></path><path stroke-width="0" fill-rule="nonzero" fill="#e6e6e6" data-paper-data="{&quot;index&quot;:null}" d=""></path><path stroke-width="0" fill-rule="nonzero" fill="#e6e6e6" data-paper-data="{&quot;index&quot;:null}" d=""></path><path stroke-width="0" fill-rule="nonzero" fill="#6c9bdd" d=""></path><path stroke-width="0" fill-rule="nonzero" fill="#6793d1" data-paper-data="{&quot;index&quot;:null}" d=""></path><path stroke-width="0" fill-rule="nonzero" fill="#5d86bf" data-paper-data="{&quot;index&quot;:null}" d=""></path><path stroke-width="1" fill-rule="evenodd" fill="#a5dffa" d="M231.73134,119.02516c8.50559,-0.01051 16.91587,0.80739 25.23083,2.453c5.3994,1.7984 10.53948,4.13435 15.41884,7.00856c-2.23012,2.34717 -4.56608,4.56678 -7.00856,6.65814c-19.70808,-10.34254 -38.6312,-9.05717 -56.76936,3.85471c-4.11122,3.87644 -7.96593,7.96523 -11.56413,12.26499c-5.00552,7.42417 -7.6919,15.60036 -8.05985,24.52997c4.43852,0 8.87775,0 13.31627,0c3.60661,-21.00677 16.10498,-32.45385 37.49581,-34.34196c8.87284,0.23409 16.81565,3.03751 23.82911,8.41028c5.37347,-5.37347 10.74623,-10.74623 16.1197,-16.1197c18.57199,17.04553 24.8797,37.83783 18.92312,62.37621c-10.393,30.02819 -31.53573,44.97956 -63.4275,44.8548c0,-7.70942 0,-15.41884 0,-23.12826c-18.99251,-3.34028 -29.97282,-14.55398 -32.94025,-33.6411c-7.70942,0 -15.41884,0 -23.12826,0c0.76744,-35.33437 18.28885,-57.06092 52.56422,-65.17964z"></path><path stroke-width="1" fill-rule="evenodd" fill="#222222" d="M279.38957,147.05942c9.80218,10.91444 13.89027,23.76394 12.26499,38.5471c-4.60463,26.44892 -20.14051,41.63437 -46.60695,45.55566c0,-4.43852 0,-8.87775 0,-13.31627c20.96191,-4.03062 32.17561,-16.76308 33.6411,-38.19667c-0.34833,-5.4828 -1.6337,-10.73922 -3.85471,-15.76927c-2.10257,2.10257 -4.20514,4.20514 -6.30771,6.30771c3.57577,19.13828 -3.78322,31.87074 -22.07697,38.19667c-13.36042,2.01847 -23.75693,-2.5371 -31.18811,-13.6667c-6.92236,-14.14188 -4.70275,-26.64025 6.65814,-37.49581c10.77356,-7.09617 21.98726,-7.79703 33.6411,-2.10257c2.89664,2.19438 5.58302,4.64738 8.05985,7.35899c5.61035,-4.79246 10.86678,-9.93183 15.76927,-15.41884z"></path><path stroke-width="1" fill-rule="evenodd" fill="#a5dffa" d="M180.56883,193.31593c3.30384,-0.22918 6.57403,0.00491 9.81199,0.70086c5.726,18.50611 17.87394,30.42067 36.44453,35.74367c0.22918,3.30384 -0.00491,6.57403 -0.70086,9.81199c-23.67703,-7.08986 -38.86248,-22.5087 -45.55566,-46.25652z"></path></g></g></svg>