<svg version="1.1" xmlns="http://www.w3.org/2000/svg" xmlns:xlink="http://www.w3.org/1999/xlink" width="10.87022" height="38.64976" viewBox="0,0,10.87022,38.64976"><g transform="translate(-232.961,-151.17974)"><g data-paper-data="{&quot;isPaintingLayer&quot;:true}" fill="#ffffff" fill-rule="nonzero" stroke="none" stroke-width="1" stroke-linecap="butt" stroke-linejoin="miter" stroke-miterlimit="10" stroke-dasharray="" stroke-dashoffset="0" style="mix-blend-mode: normal"><path d="M243.273,179.568c0.006,3.228 -0.639,6.936 -3.388,8.994c-1.973,1.385 -4.737,1.693 -6.924,0.635c0,-0.996 0,-1.992 0,-2.988c1.761,1.232 4.584,1.276 5.875,-0.658c1.601,-2.515 1.164,-5.59 1.234,-8.427c0,-5.572 0,-11.144 0,-16.716c1.068,0 2.136,0 3.203,0c0,6.387 0,12.773 0,19.16zM241.711,155.33c-1.626,0.101 -2.665,-1.957 -1.73,-3.248c0.914,-1.52 3.543,-1.018 3.801,0.747c0.295,1.265 -0.779,2.549 -2.071,2.501z"/></g></g></svg>