<svg version="1.1" xmlns="http://www.w3.org/2000/svg" xmlns:xlink="http://www.w3.org/1999/xlink" width="96.69928" height="15.60766" viewBox="0,0,96.69928,15.60766"><g transform="translate(-247.86959,-204.50038)"><g data-paper-data="{&quot;isPaintingLayer&quot;:true}" fill-rule="nonzero" stroke="none" stroke-linejoin="miter" stroke-miterlimit="10" stroke-dasharray="" stroke-dashoffset="0" style="mix-blend-mode: normal"><path d="M247.86959,220.10804v-15.60766h96.69928v15.60766z" fill="#ffffff" stroke-width="0" stroke-linecap="butt"/><path d="M260.8691,211.89436h-0.78532c-0.02755,-0.16533 -0.08267,-0.31098 -0.16533,-0.43695c-0.08267,-0.1299 -0.18305,-0.23816 -0.30114,-0.32476c-0.11809,-0.09054 -0.24997,-0.15746 -0.39561,-0.20076c-0.14565,-0.04724 -0.30114,-0.07086 -0.46647,-0.07086c-0.29523,0 -0.55898,0.07479 -0.79123,0.22438c-0.23225,0.14959 -0.4153,0.36806 -0.54914,0.65542c-0.13384,0.28736 -0.20076,0.63771 -0.20076,1.05104c0,0.41726 0.06692,0.76958 0.20076,1.05694c0.13384,0.28736 0.31688,0.50387 0.54914,0.64952c0.23619,0.14565 0.49993,0.21847 0.79123,0.21847c0.1614,0 0.31492,-0.02165 0.46057,-0.06495c0.14565,-0.0433 0.27752,-0.10825 0.39561,-0.19485c0.11809,-0.0866 0.21847,-0.19289 0.30114,-0.31885c0.08267,-0.12597 0.13974,-0.27162 0.17124,-0.43695l0.78532,0.0059c-0.0433,0.25193 -0.12597,0.48418 -0.248,0.69675c-0.11809,0.20863 -0.26965,0.38971 -0.45466,0.54323c-0.18501,0.14959 -0.39758,0.26768 -0.63771,0.35428c-0.23619,0.08267 -0.49599,0.124 -0.77942,0.124c-0.44482,0 -0.84044,-0.10432 -1.18684,-0.31295c-0.34641,-0.21257 -0.61999,-0.51568 -0.82075,-0.90932c-0.20076,-0.39758 -0.30114,-0.86799 -0.30114,-1.41122c0,-0.54717 0.10038,-1.01758 0.30114,-1.41122c0.20076,-0.39365 0.47434,-0.69478 0.82075,-0.90342c0.35035,-0.21257 0.74596,-0.31885 1.18684,-0.31885c0.27162,0 0.52552,0.03936 0.76171,0.11809c0.23619,0.07479 0.44876,0.18698 0.63771,0.33657c0.18895,0.14959 0.34444,0.33263 0.46647,0.54914c0.12597,0.21257 0.2106,0.45663 0.2539,0.73218zM264.17057,213.76025v-2.24969h0.7499v3.84396h-0.73809v-0.66723h-0.03543c-0.09054,0.2047 -0.23422,0.37593 -0.43104,0.51371c-0.19289,0.13384 -0.43301,0.20076 -0.72037,0.20076c-0.248,0 -0.46647,-0.05314 -0.65542,-0.15943c-0.18895,-0.11022 -0.33854,-0.27162 -0.44876,-0.48418c-0.10628,-0.2165 -0.15943,-0.48418 -0.15943,-0.80304v-2.44454h0.7499v2.35597c0,0.25981 0.07283,0.46844 0.21847,0.6259c0.14565,0.15352 0.3346,0.23028 0.56685,0.23028c0.13778,0 0.27555,-0.03346 0.41333,-0.10038c0.14171,-0.07086 0.25784,-0.17714 0.34838,-0.31885c0.09448,-0.14565 0.14171,-0.32673 0.14171,-0.54323zM268.80455,212.4494l-0.67904,0.11809c-0.02755,-0.0866 -0.07283,-0.16927 -0.13581,-0.248c-0.05905,-0.07873 -0.13974,-0.14171 -0.24209,-0.18895c-0.10235,-0.05117 -0.23225,-0.07676 -0.38971,-0.07676c-0.21257,0 -0.38971,0.04724 -0.53142,0.14171c-0.14171,0.09448 -0.21257,0.21454 -0.21257,0.36019c0,0.1299 0.04724,0.23422 0.14171,0.31295c0.09841,0.07873 0.25193,0.14368 0.46057,0.19485l0.61409,0.13581c0.35428,0.08267 0.61802,0.2106 0.79123,0.38381c0.1732,0.16927 0.25981,0.38971 0.25981,0.66133c0,0.22831 -0.06692,0.43301 -0.20076,0.61409c-0.1299,0.17714 -0.31295,0.31688 -0.54914,0.41923c-0.23619,0.10235 -0.50977,0.15352 -0.82075,0.15352c-0.43301,0 -0.78532,-0.09251 -1.05694,-0.27752c-0.27162,-0.18501 -0.43892,-0.44679 -0.5019,-0.78532l0.72628,-0.11219c0.0433,0.18895 0.13581,0.33263 0.27752,0.43104c0.14171,0.09448 0.32476,0.14171 0.54914,0.14171c0.24406,0 0.43892,-0.05117 0.58456,-0.15352c0.14959,-0.10235 0.22438,-0.22831 0.22438,-0.3779c0,-0.11809 -0.04527,-0.21847 -0.13581,-0.30114c-0.09054,-0.08267 -0.22635,-0.14565 -0.40742,-0.18895l-0.64952,-0.14171c-0.36216,-0.08267 -0.62983,-0.21257 -0.80304,-0.38971c-0.16927,-0.17714 -0.2539,-0.40349 -0.2539,-0.67904c0,-0.22831 0.06298,-0.42711 0.18895,-0.59637c0.1299,-0.16927 0.30704,-0.30114 0.53142,-0.39561c0.22438,-0.09841 0.48025,-0.14762 0.76761,-0.14762c0.41333,0 0.74006,0.09054 0.98018,0.27162c0.24012,0.17714 0.39758,0.41726 0.47238,0.72037zM271.4961,211.51056v0.59637h-2.10207v-0.59637zM269.96088,210.58943h0.7499v3.63729c0,0.14565 0.02165,0.25587 0.06495,0.33066c0.0433,0.07086 0.09841,0.12006 0.16533,0.14762c0.07086,0.02362 0.14762,0.03543 0.23028,0.03543c0.05905,0 0.11022,-0.00394 0.15352,-0.01181c0.04724,-0.01181 0.08267,-0.01968 0.10628,-0.02362l0.13581,0.61999c-0.0433,0.01575 -0.10628,0.03149 -0.18895,0.04724c-0.07873,0.01968 -0.17714,0.02952 -0.29523,0.02952c-0.19682,0.00394 -0.38184,-0.02952 -0.55504,-0.10038c-0.16927,-0.07479 -0.30704,-0.18895 -0.41333,-0.34247c-0.10235,-0.15352 -0.15352,-0.34641 -0.15352,-0.57866zM273.90611,215.43127c-0.36216,0 -0.67904,-0.08267 -0.95066,-0.248c-0.26768,-0.16533 -0.47631,-0.39561 -0.6259,-0.69085c-0.14565,-0.29917 -0.21847,-0.64755 -0.21847,-1.04513c0,-0.39758 0.07283,-0.74596 0.21847,-1.04513c0.14959,-0.29917 0.35822,-0.53142 0.6259,-0.69675c0.27162,-0.16533 0.5885,-0.248 0.95066,-0.248c0.35822,0 0.67117,0.08267 0.93885,0.248c0.27162,0.16533 0.48025,0.39758 0.6259,0.69675c0.14959,0.29917 0.22438,0.64755 0.22438,1.04513c0,0.39758 -0.07479,0.74596 -0.22438,1.04513c-0.14565,0.29523 -0.35428,0.52552 -0.6259,0.69085c-0.26768,0.16533 -0.58063,0.248 -0.93885,0.248zM273.90611,214.80538c0.23225,0 0.42514,-0.06102 0.57866,-0.18305c0.15352,-0.12597 0.26768,-0.2913 0.34247,-0.49599c0.07479,-0.2047 0.11219,-0.43104 0.11219,-0.67904c0,-0.24406 -0.0374,-0.46844 -0.11219,-0.67314c-0.07479,-0.20863 -0.18895,-0.37593 -0.34247,-0.5019c-0.15352,-0.12597 -0.34641,-0.18895 -0.57866,-0.18895c-0.23619,0 -0.43104,0.06298 -0.58456,0.18895c-0.15352,0.12597 -0.26768,0.29327 -0.34247,0.5019c-0.07479,0.2047 -0.11219,0.42907 -0.11219,0.67314c0,0.248 0.0374,0.47434 0.11219,0.67904c0.07479,0.2047 0.18895,0.37003 0.34247,0.49599c0.15352,0.12203 0.34838,0.18305 0.58456,0.18305zM276.52852,215.35451v-3.84396h0.72037v0.6259h0.04724c0.07873,-0.21257 0.20863,-0.3779 0.38971,-0.49599c0.18501,-0.12203 0.40349,-0.18305 0.65542,-0.18305c0.25981,0 0.47631,0.06102 0.64952,0.18305c0.1732,0.11809 0.30114,0.28343 0.38381,0.49599h0.04133c0.09054,-0.2047 0.23619,-0.36806 0.43695,-0.49009c0.20076,-0.12597 0.44088,-0.18895 0.72037,-0.18895c0.34641,0 0.62983,0.11022 0.85028,0.33066c0.22438,0.2165 0.33657,0.5452 0.33657,0.98608v2.58035h-0.7499v-2.50949c0,-0.25981 -0.07086,-0.44679 -0.21257,-0.56095c-0.14171,-0.11809 -0.31098,-0.17714 -0.5078,-0.17714c-0.24406,0 -0.43498,0.07479 -0.57276,0.22438c-0.13384,0.14959 -0.20076,0.3405 -0.20076,0.57276v2.45045h-0.74399v-2.55673c0,-0.20863 -0.06495,-0.37593 -0.19485,-0.5019c-0.1299,-0.12597 -0.29917,-0.18895 -0.5078,-0.18895c-0.14171,0 -0.27358,0.0374 -0.39561,0.11219c-0.11809,0.07086 -0.21454,0.1732 -0.28933,0.30704c-0.07086,0.1299 -0.10628,0.28146 -0.10628,0.45466v2.37369zM282.75761,215.35451v-3.84396h0.7499v3.84396zM283.13552,210.91418c-0.1299,0 -0.24209,-0.0433 -0.33657,-0.1299c-0.09054,-0.0866 -0.1358,-0.19092 -0.1358,-0.31295c0,-0.12597 0.04526,-0.23225 0.1358,-0.31885c0.09448,-0.0866 0.20666,-0.1299 0.33657,-0.1299c0.1299,0 0.24012,0.0433 0.33066,0.1299c0.09448,0.0866 0.14171,0.19289 0.14171,0.31885c0,0.12203 -0.04724,0.22635 -0.14171,0.31295c-0.09054,0.0866 -0.20076,0.1299 -0.33066,0.1299zM287.39417,212.4494l-0.67904,0.11809c-0.02755,-0.0866 -0.07283,-0.16927 -0.13581,-0.248c-0.05905,-0.07873 -0.13974,-0.14171 -0.24209,-0.18895c-0.10235,-0.05117 -0.23225,-0.07676 -0.38971,-0.07676c-0.21257,0 -0.38971,0.04724 -0.53142,0.14171c-0.14171,0.09448 -0.21257,0.21454 -0.21257,0.36019c0,0.1299 0.04724,0.23422 0.14171,0.31295c0.09841,0.07873 0.25193,0.14368 0.46057,0.19485l0.61409,0.13581c0.35428,0.08267 0.61802,0.2106 0.79123,0.38381c0.1732,0.16927 0.25981,0.38971 0.25981,0.66133c0,0.22831 -0.06692,0.43301 -0.20076,0.61409c-0.1299,0.17714 -0.31295,0.31688 -0.54914,0.41923c-0.23619,0.10235 -0.50977,0.15352 -0.82075,0.15352c-0.43301,0 -0.78532,-0.09251 -1.05694,-0.27752c-0.27162,-0.18501 -0.43892,-0.44679 -0.5019,-0.78532l0.72628,-0.11219c0.0433,0.18895 0.13581,0.33263 0.27752,0.43104c0.14171,0.09448 0.32476,0.14171 0.54914,0.14171c0.24406,0 0.43892,-0.05117 0.58456,-0.15352c0.14959,-0.10235 0.22438,-0.22831 0.22438,-0.3779c0,-0.11809 -0.04527,-0.21847 -0.13581,-0.30114c-0.09054,-0.08267 -0.22635,-0.14565 -0.40742,-0.18895l-0.64952,-0.14171c-0.36216,-0.08267 -0.62983,-0.21257 -0.80304,-0.38971c-0.16927,-0.17714 -0.2539,-0.40349 -0.2539,-0.67904c0,-0.22831 0.06298,-0.42711 0.18895,-0.59637c0.1299,-0.16927 0.30704,-0.30114 0.53142,-0.39561c0.22438,-0.09841 0.48025,-0.14762 0.76761,-0.14762c0.41333,0 0.74006,0.09054 0.98018,0.27162c0.24012,0.17714 0.39758,0.41726 0.47238,0.72037zM289.94991,215.43127c-0.3779,0 -0.70463,-0.0807 -0.98018,-0.24209c-0.27162,-0.16533 -0.48222,-0.39561 -0.6318,-0.69085c-0.14565,-0.29523 -0.21847,-0.64164 -0.21847,-1.03923c0,-0.39365 0.07283,-0.74006 0.21847,-1.03923c0.14959,-0.30311 0.35625,-0.5393 0.61999,-0.70856c0.26768,-0.16927 0.58063,-0.2539 0.93885,-0.2539c0.2165,0 0.42711,0.0374 0.6318,0.11219c0.2047,0.07086 0.38774,0.18305 0.54914,0.33657c0.1614,0.15352 0.28736,0.35231 0.3779,0.59637c0.09448,0.24406 0.14171,0.54126 0.14171,0.89161v0.26571h-3.05273v-0.56095h2.32054c0,-0.19682 -0.04133,-0.372 -0.124,-0.52552c-0.07873,-0.15352 -0.19092,-0.27358 -0.33657,-0.36019c-0.14171,-0.09054 -0.30901,-0.13581 -0.5019,-0.13581c-0.21257,0 -0.39758,0.05117 -0.55504,0.15352c-0.15352,0.10235 -0.27358,0.23619 -0.36019,0.40152c-0.08267,0.16533 -0.124,0.34247 -0.124,0.53142v0.44285c0,0.25587 0.04527,0.47434 0.13581,0.65542c0.09448,0.18108 0.22241,0.31885 0.38381,0.41333c0.16533,0.09054 0.35625,0.13581 0.57276,0.13581c0.14171,0 0.27162,-0.01968 0.38971,-0.05905c0.11809,-0.03936 0.21847,-0.10038 0.30114,-0.18305c0.0866,-0.08267 0.15155,-0.18305 0.19485,-0.30114l0.70856,0.124c-0.05511,0.20863 -0.15549,0.39168 -0.30114,0.54914c-0.14565,0.15352 -0.32869,0.27358 -0.54914,0.36019c-0.22044,0.0866 -0.47041,0.1299 -0.7499,0.1299z" fill="#000000" stroke-width="1" stroke-linecap="square"/></g></g></svg>