<svg version="1.1" xmlns="http://www.w3.org/2000/svg" xmlns:xlink="http://www.w3.org/1999/xlink" width="478.80729" height="304.44314" viewBox="0,0,478.80729,304.44314"><g transform="translate(-0.13881,-16.02432)"><g data-paper-data="{&quot;isPaintingLayer&quot;:true}" fill-rule="nonzero" stroke-miterlimit="10" stroke-dasharray="" stroke-dashoffset="0" style="mix-blend-mode: normal"><path d="M110.01189,26.02432c0,0 28.46205,0 36.02687,0c76.68719,0 322.90734,0 322.90734,0v283.6181h-358.93421z" fill="#ffffff" stroke="#ffffff" stroke-width="20" stroke-linecap="round" stroke-linejoin="round"/><path d="M10.13881,26.51603c0,0 7.35842,0 9.31419,0c19.82628,0 83.48271,0 83.48271,0v283.95143h-92.7969z" fill="#f0f1f4" stroke="#f0f1f4" stroke-width="20" stroke-linecap="round" stroke-linejoin="round"/><path d="M83.50002,309.45822v-283.33333h21v283.33333z" fill="#f0f1f4" stroke="#f0f1f4" stroke-width="20" stroke-linecap="butt" stroke-linejoin="miter"/><g stroke-linejoin="miter"><path d="M456.87366,26.86408c0,-3.85021 3.12119,-6.9714 6.9714,-6.9714c3.85021,0 6.9714,3.12119 6.9714,6.9714c0,3.85021 -3.12118,6.9714 -6.9714,6.9714c-3.85021,0 -6.9714,-3.12119 -6.9714,-6.9714z" fill="#ff4848" stroke="#ff3535" stroke-width="0" stroke-linecap="butt"/><path d="M461.27338,24.27805l5.12381,5.12381" fill="none" stroke="#ffffff" stroke-width="1.5" stroke-linecap="round"/><path d="M461.27329,29.40188l5.12381,-5.12381" data-paper-data="{&quot;index&quot;:null}" fill="none" stroke="#ffffff" stroke-width="1.5" stroke-linecap="round"/><path d="M421.27054,26.87673c0,-3.85021 3.12119,-6.9714 6.9714,-6.9714c3.85021,0 6.9714,3.12119 6.9714,6.9714c0,3.85021 -3.12118,6.9714 -6.9714,6.9714c-3.85021,0 -6.9714,-3.12119 -6.9714,-6.9714z" fill="#ffffff" stroke="#ff3535" stroke-width="0" stroke-linecap="butt"/><path d="M424.76952,26.79706h7.02478" fill="none" stroke="#000000" stroke-width="1.5" stroke-linecap="round"/><path d="M438.96156,26.86408c0,-3.85021 3.12119,-6.9714 6.9714,-6.9714c3.85021,0 6.9714,3.12119 6.9714,6.9714c0,3.85021 -3.12118,6.9714 -6.9714,6.9714c-3.85021,0 -6.9714,-3.12119 -6.9714,-6.9714z" fill="#ffffff" stroke="#ff3535" stroke-width="0" stroke-linecap="butt"/></g><g fill="none" stroke="#000000" stroke-width="1" stroke-linecap="round" stroke-linejoin="miter"><path d="M443.43073,29.46362l4.91018,-4.91018"/><path d="M445.32242,24.48406h3.06157"/><path d="M448.39126,24.6438l0.00001,3.06157"/><path d="M446.49031,29.6468h-3.06157"/><path d="M443.42121,29.48706c0,0 0,-1.4257 -0.00001,-1.98704c0,-0.4128 0,-1.07453 0,-1.07453"/></g><path d="M164.74346,119.29345h-14.25" fill="none" stroke="none" stroke-width="0" stroke-linecap="round" stroke-linejoin="miter"/><path d="M166.24347,116.79345h-12.25" fill="none" stroke="none" stroke-width="0" stroke-linecap="round" stroke-linejoin="miter"/></g></g></svg>