<svg version="1.1" xmlns="http://www.w3.org/2000/svg" xmlns:xlink="http://www.w3.org/1999/xlink" width="28.554" height="28.008" viewBox="0,0,28.554,28.008"><g transform="translate(-240.063,-152.4)"><g data-paper-data="{&quot;isPaintingLayer&quot;:true}" fill="#ffffff" fill-rule="nonzero" stroke="none" stroke-width="1" stroke-linecap="butt" stroke-linejoin="miter" stroke-miterlimit="10" stroke-dasharray="" stroke-dashoffset="0" style="mix-blend-mode: normal"><path d="M268.617,180.408h-3.262v-18.789c0,-1.485 0.092,-3.301 0.274,-5.449h-0.078c-0.313,1.263 -0.593,2.168 -0.84,2.714l-9.57,21.524h-1.602l-9.551,-21.367c-0.273,-0.625 -0.553,-1.582 -0.84,-2.871h-0.078c0.105,1.119 0.157,2.949 0.157,5.488v18.75h-3.164v-28.008h4.336l8.593,19.531c0.664,1.498 1.094,2.617 1.289,3.36h0.118c0.559,-1.537 1.009,-2.683 1.347,-3.438l8.77,-19.453h4.101z"/></g></g></svg>