<svg version="1.1" xmlns="http://www.w3.org/2000/svg" xmlns:xlink="http://www.w3.org/1999/xlink" width="15.039" height="20.938" viewBox="0,0,15.039,20.938"><g transform="translate(-239.656,-159.939)"><g data-paper-data="{&quot;isPaintingLayer&quot;:true}" fill="#ffffff" fill-rule="nonzero" stroke="none" stroke-width="1" stroke-linecap="butt" stroke-linejoin="miter" stroke-miterlimit="10" stroke-dasharray="" stroke-dashoffset="0" style="mix-blend-mode: normal"><path d="M254.656,179.49c-1.536,0.924 -3.359,1.387 -5.468,1.387c-2.852,0 -5.153,-0.928 -6.905,-2.784c-1.751,-1.855 -2.627,-4.261 -2.627,-7.216c0,-3.295 0.944,-5.941 2.832,-7.94c1.888,-1.999 4.408,-2.998 7.559,-2.998c1.758,0 3.307,0.326 4.648,0.977v3.281c-1.484,-1.042 -3.073,-1.563 -4.765,-1.563c-2.045,0 -3.721,0.733 -5.03,2.198c-1.308,1.465 -1.963,3.388 -1.962,5.771c-0.001,2.344 0.615,4.193 1.845,5.547c1.231,1.354 2.881,2.031 4.951,2.031c1.745,0 3.386,-0.579 4.922,-1.738z"/></g></g></svg>