<svg version="1.1" xmlns="http://www.w3.org/2000/svg" xmlns:xlink="http://www.w3.org/1999/xlink" width="28.398" height="20.469" viewBox="0,0,28.398,20.469"><g transform="translate(-240.18,-159.939)"><g data-paper-data="{&quot;isPaintingLayer&quot;:true}" fill="#ffffff" fill-rule="nonzero" stroke="none" stroke-width="1" stroke-linecap="butt" stroke-linejoin="miter" stroke-miterlimit="10" stroke-dasharray="" stroke-dashoffset="0" style="mix-blend-mode: normal"><path d="M268.578,180.408h-3.203v-11.485c0,-2.213 -0.342,-3.815 -1.025,-4.804c-0.684,-0.99 -1.833,-1.485 -3.448,-1.485c-1.367,0 -2.529,0.625 -3.486,1.875c-0.957,1.25 -1.436,2.748 -1.436,4.493v11.406h-3.203v-11.875c0,-3.932 -1.517,-5.899 -4.55,-5.899c-1.407,0 -2.566,0.59 -3.477,1.768c-0.911,1.178 -1.367,2.712 -1.367,4.6v11.406h-3.203v-20h3.203v3.164h0.078c1.419,-2.422 3.489,-3.633 6.211,-3.633c1.367,0 2.558,0.381 3.574,1.143c1.016,0.761 1.712,1.761 2.09,2.998c1.484,-2.761 3.698,-4.141 6.641,-4.141c4.401,0 6.601,2.715 6.601,8.145z"/></g></g></svg>