<svg version="1.1" xmlns="http://www.w3.org/2000/svg" xmlns:xlink="http://www.w3.org/1999/xlink" width="439.12475" height="282.08989" viewBox="0,0,439.12475,282.08989"><defs><linearGradient x1="97.57222" y1="169.98379" x2="97.57222" y2="236.9838" gradientUnits="userSpaceOnUse" id="color-1"><stop offset="0" stop-color="#0170c9"/><stop offset="1" stop-color="#5542d1"/></linearGradient></defs><g transform="translate(-20.43763,-38.95505)"><g data-paper-data="{&quot;isPaintingLayer&quot;:true}" fill-rule="nonzero" stroke-miterlimit="10" stroke-dasharray="" stroke-dashoffset="0" style="mix-blend-mode: normal"><path d="M27.93765,46.45506c0,0 33.63139,0 42.57014,0c90.6153,0 381.5546,0 381.5546,0v267.08989h-424.12475z" fill="#ffffff" stroke="#ffffff" stroke-width="15" stroke-linecap="round" stroke-linejoin="round"/><g stroke="none" stroke-width="0" stroke-linecap="butt" stroke-linejoin="miter"><path d="M110.84739,176.26559c0,-14.29037 11.58463,-25.875 25.875,-25.875c14.29037,0 25.875,11.58463 25.875,25.875c0,14.29037 -11.58463,25.875 -25.875,25.875c-14.29037,0 -25.875,-11.58463 -25.875,-25.875z" fill="#e1ddda"/><path d="M64.07221,203.4838c0,-18.50154 14.99846,-33.5 33.5,-33.5c18.50154,0 33.5,14.99846 33.5,33.5c0,18.50154 -14.99846,33.5 -33.5,33.5c-18.50154,0 -33.5,-14.99846 -33.5,-33.5z" fill="url(#color-1)"/><path d="M85.40556,194.4838c0,-5.79899 4.70101,-10.5 10.5,-10.5c5.79899,0 10.5,4.70101 10.5,10.5c0,5.79899 -4.70101,10.5 -10.5,10.5c-5.79899,0 -10.5,-4.70101 -10.5,-10.5z" fill="#ffffff"/><path d="M112.80556,211.88382c0,1.5677 0.66479,6.60623 -2.43972,10.13434c-3.27534,3.72225 -10.4296,5.89899 -14.49362,5.89899c-3.61819,0 -10.05753,-1.43473 -12.94279,-4.60331c-3.42727,-3.76381 -2.99054,-9.48088 -2.99054,-11.23002c0,-3.22166 16.13334,-2.43333 16.13334,-2.43333c0,0 16.73333,-0.98832 16.73333,2.23334z" fill="#ffffff"/><path d="M130.15553,167.60879c0,-3.38274 2.74226,-6.125 6.125,-6.125c3.38274,0 6.125,2.74226 6.125,6.125c0,3.38274 -2.74226,6.125 -6.125,6.125c-3.38274,0 -6.125,-2.74226 -6.125,-6.125z" fill="#ffffff"/><path d="M146.96185,180.88348c0,0.90773 0.38493,3.82516 -1.41265,5.86802c-1.8965,2.15527 -6.03898,3.41565 -8.39214,3.41565c-2.09502,0 -5.82354,-0.83074 -7.49417,-2.66542c-1.98447,-2.17933 -1.73159,-5.48965 -1.73159,-6.50244c0,-1.86542 9.34158,-1.40895 9.34158,-1.40895c0,0 9.68898,-0.57226 9.68898,1.29316z" fill="#ffffff"/><path d="M88.09739,149.89058c0,-4.69442 3.80558,-8.5 8.5,-8.5c4.69442,0 8.5,3.80558 8.5,8.5c0,4.69442 -3.80558,8.5 -8.5,8.5c-4.69442,0 -8.5,-3.80558 -8.5,-8.5z" fill="#e1ddda"/></g><g stroke="none" stroke-width="1" stroke-linecap="butt" stroke-linejoin="miter" font-weight="normal" font-size="40" text-anchor="start"><text transform="translate(239.70759,72.58459) scale(0.32207,0.32207)" font-size="40" xml:space="preserve" fill="#000000" fill-rule="nonzero" stroke="none" stroke-width="1" stroke-linecap="butt" stroke-linejoin="miter" stroke-miterlimit="10" stroke-dasharray="" stroke-dashoffset="0" font-family="Sans Serif" font-weight="normal" text-anchor="start" style="mix-blend-mode: normal"><tspan x="0" dy="0">Who's going to use this device?</tspan></text><text transform="translate(241.90748,89.98393) scale(0.16461,0.16461)" font-size="40" xml:space="preserve" fill="#7f888f" fill-rule="nonzero" stroke="none" stroke-width="1" stroke-linecap="butt" stroke-linejoin="miter" stroke-miterlimit="10" stroke-dasharray="" stroke-dashoffset="0" font-family="&quot;ヒラギノ角ゴ Pro W3&quot;, &quot;Hiragino Kaku Gothic Pro&quot;, Osaka, &quot;メイリオ&quot;, Meiryo, &quot;ＭＳ Ｐゴシック&quot;, &quot;MS PGothic&quot;" font-weight="normal" text-anchor="start" style="mix-blend-mode: normal"><tspan x="0" dy="0">Set a username that will be displayed on the lockscreen</tspan></text></g><g><path d="M247.45662,190.03588c0,0 10.17837,0 12.88365,0c27.42427,0 115.47561,0 115.47561,0v10.31068h-128.35926z" fill="#f2f2f2" stroke="#f2f2f2" stroke-width="7.5" stroke-linecap="round" stroke-linejoin="round"/><text transform="translate(247.5903,197.47156) scale(0.15331,0.15331)" font-size="40" xml:space="preserve" fill="#7f888f" fill-rule="nonzero" stroke="none" stroke-width="1" stroke-linecap="butt" stroke-linejoin="miter" stroke-miterlimit="10" stroke-dasharray="" stroke-dashoffset="0" font-family="&quot;ヒラギノ角ゴ Pro W3&quot;, &quot;Hiragino Kaku Gothic Pro&quot;, Osaka, &quot;メイリオ&quot;, Meiryo, &quot;ＭＳ Ｐゴシック&quot;, &quot;MS PGothic&quot;" font-weight="normal" text-anchor="start" style="mix-blend-mode: normal"><tspan x="0" dy="0">Enter username</tspan></text></g></g></g></svg>