<svg version="1.1" xmlns="http://www.w3.org/2000/svg" xmlns:xlink="http://www.w3.org/1999/xlink" width="9.043" height="34.375" viewBox="0,0,9.043,34.375"><g transform="translate(-240.484,-151.4)"><g data-paper-data="{&quot;isPaintingLayer&quot;:true}" fill="#ffffff" fill-rule="nonzero" stroke="none" stroke-width="1" stroke-linecap="butt" stroke-linejoin="miter" stroke-miterlimit="10" stroke-dasharray="" stroke-dashoffset="0" style="mix-blend-mode: normal"><path d="M249.527,185.775c-3.997,-0.052 -5.996,-2.07 -5.996,-6.055v-5.859c0,-2.63 -1.015,-4.01 -3.047,-4.141v-2.265c2.032,-0.13 3.047,-1.537 3.047,-4.219v-5.703c0,-4.037 1.999,-6.081 5.996,-6.133v2.5c-2.07,0.052 -3.105,1.341 -3.105,3.867v5.723c0,2.734 -0.977,4.414 -2.93,5.039v0.078c1.953,0.586 2.93,2.253 2.93,5v5.645c0,1.445 0.231,2.477 0.693,3.095c0.462,0.619 1.266,0.941 2.412,0.967z"/></g></g></svg>