<svg version="1.1" xmlns="http://www.w3.org/2000/svg" xmlns:xlink="http://www.w3.org/1999/xlink" width="160.05573" height="146.02471" viewBox="0,0,160.05573,146.02471"><defs><linearGradient x1="245.15015" y1="140.05942" x2="245.15015" y2="143.10202" gradientUnits="userSpaceOnUse" id="color-1"><stop offset="0" stop-color="#e5e5e5"/><stop offset="1" stop-color="#e5e5e5" stop-opacity="0"/></linearGradient></defs><g transform="translate(-159.97215,-110.8756)"><g data-paper-data="{&quot;isPaintingLayer&quot;:true}" fill-rule="nonzero" stroke="none" stroke-linejoin="miter" stroke-miterlimit="10" stroke-dasharray="" stroke-dashoffset="0" style="mix-blend-mode: normal"><path d="M160.02824,246.23366c0,-26.09646 0,-113.67119 0,-126.69138c0,-4.37992 4.56512,-8.66667 9.43835,-8.66667c13.44113,0 116.33907,0 140.88019,0c6.01555,0 9.6811,4.55498 9.6811,9.16667c0,13.35817 0,101.08938 0,126.69138c0,6.31251 -4.69814,10.16666 -9.6811,10.16666c-13.59363,0 -116.58399,0 -140.88019,0c-5.87085,0 -9.43835,-4.05728 -9.43835,-10.66666z" fill="#fbfbfb" stroke-width="0" stroke-linecap="butt"/><path d="M320.01373,140.05942v3.0426h-160.04158v-3.0426z" fill="url(#color-1)" stroke-width="0" stroke-linecap="butt"/><path d="M159.97931,140.18114v-0.33333h160.03442v0.33333z" fill="#dfdfdf" stroke-width="0" stroke-linecap="butt"/><path d="M175.06392,159.31416c-0.09256,0 -0.1704,-0.02945 -0.2335,-0.08835c-0.0589,-0.06311 -0.08835,-0.13673 -0.08835,-0.22089v-4.28516l0.09466,0.10097l-0.85198,0.59323c-0.05049,0.03366 -0.10939,0.05049 -0.17671,0.05049c-0.08415,0 -0.15777,-0.03156 -0.22089,-0.09466c-0.0589,-0.06311 -0.08835,-0.13464 -0.08835,-0.21458c0,-0.10939 0.0547,-0.19774 0.16409,-0.26506l1.19277,-0.78887c0.04207,-0.02525 0.08204,-0.04207 0.11991,-0.05049c0.04207,-0.01262 0.08415,-0.01683 0.12622,-0.01262c0.08835,0 0.15777,0.02945 0.20827,0.08835c0.0547,0.0589 0.08204,0.13042 0.08204,0.21458v4.66382c0,0.08415 -0.03156,0.15777 -0.09466,0.22089c-0.06311,0.0589 -0.14095,0.08835 -0.2335,0.08835z" fill="#000000" stroke-width="1" stroke-linecap="square"/><path d="M197.90831,158.6618c0.07944,0 0.14632,0.02927 0.20068,0.0878c0.05435,0.05435 0.08153,0.12124 0.08153,0.20068c0,0.07944 -0.02718,0.14632 -0.08152,0.20068c-0.05435,0.05017 -0.12124,0.07526 -0.20068,0.07526h-2.71539c-0.09198,0 -0.16723,-0.02509 -0.22576,-0.07526c-0.05435,-0.05435 -0.08152,-0.12751 -0.08152,-0.21949c0,-0.07944 0.02927,-0.1505 0.0878,-0.21322l1.69321,-1.84998c0.24666,-0.27174 0.43271,-0.52468 0.55813,-0.75881c0.12961,-0.2383 0.19441,-0.44943 0.19441,-0.63338c0,-0.3052 -0.09198,-0.54768 -0.27593,-0.72745c-0.17977,-0.18395 -0.42226,-0.27593 -0.72745,-0.27593c-0.13378,0 -0.26757,0.02927 -0.40135,0.0878c-0.13378,0.05435 -0.25711,0.1317 -0.37,0.23203c-0.1087,0.09615 -0.19859,0.20277 -0.26965,0.31983c-0.03763,0.06689 -0.07735,0.1087 -0.11915,0.12542c-0.04181,0.01672 -0.0857,0.02509 -0.13169,0.02509c-0.07526,0 -0.14424,-0.02509 -0.20695,-0.07526c-0.05853,-0.05435 -0.0878,-0.11497 -0.0878,-0.18186c0,-0.05853 0.01463,-0.11079 0.0439,-0.15678c0.03345,-0.04599 0.07526,-0.10034 0.12542,-0.16305c0.10452,-0.14215 0.23412,-0.27174 0.38881,-0.38881c0.15887,-0.11707 0.33028,-0.21113 0.51423,-0.2822c0.18813,-0.07107 0.37209,-0.10661 0.55186,-0.10661c0.32191,0 0.59994,0.06271 0.83406,0.18813c0.2383,0.12542 0.42226,0.30311 0.55186,0.53305c0.12961,0.22994 0.19441,0.4996 0.19441,0.80898c0,0.26339 -0.07944,0.55604 -0.2383,0.87796c-0.15887,0.31774 -0.39299,0.64175 -0.70237,0.97203l-1.31066,1.44863l-0.07526,-0.07526z" fill="#000000" stroke-width="1" stroke-linecap="square"/><path d="M216.71184,157.96978c0.02958,0 0.06336,0.00634 0.10138,0.01901c0.03802,0.01267 0.08026,0.04014 0.12673,0.08238c0.10138,0.09294 0.21966,0.16685 0.35483,0.22177c0.13517,0.05492 0.29147,0.08238 0.46889,0.08238c0.21543,0 0.41396,-0.04858 0.5956,-0.14574c0.18164,-0.10138 0.32949,-0.24289 0.44354,-0.42453c0.11405,-0.18164 0.17108,-0.39074 0.17108,-0.62729c0,-0.25767 -0.05703,-0.46677 -0.17108,-0.62729c-0.11405,-0.16475 -0.25767,-0.28513 -0.43087,-0.36116c-0.17319,-0.08026 -0.35694,-0.12039 -0.55126,-0.12039c-0.06759,0 -0.13305,0.00422 -0.19642,0.01267c-0.05914,0.00844 -0.11617,0.02113 -0.17108,0.03802c-0.05069,0.0169 -0.09926,0.02535 -0.14574,0.02535c-0.08026,0 -0.14362,-0.02746 -0.19009,-0.08237c-0.04224,-0.05914 -0.06336,-0.12884 -0.06336,-0.2091c0,-0.04646 0.00844,-0.08659 0.02535,-0.12039c0.0169,-0.03802 0.04436,-0.08026 0.08238,-0.12673l1.47001,-1.5904l0.12039,0.14574h-2.14799c-0.08026,0 -0.14784,-0.02746 -0.20276,-0.08237c-0.05492,-0.05914 -0.08237,-0.12884 -0.08237,-0.2091c0,-0.08026 0.02746,-0.14574 0.08238,-0.19642c0.05492,-0.05492 0.1225,-0.08237 0.20276,-0.08237h2.4648c0.11405,0 0.19432,0.03168 0.24077,0.09504c0.05069,0.06336 0.07604,0.13306 0.07604,0.2091c0,0.04646 -0.01056,0.09082 -0.03168,0.13306c-0.02113,0.03802 -0.05069,0.07393 -0.08871,0.10772l-1.46367,1.59673l-0.17741,-0.15206c0.02535,-0.02113 0.08238,-0.04014 0.17108,-0.05703c0.09294,-0.0169 0.17108,-0.02535 0.23444,-0.02535c0.27879,0 0.53648,0.0697 0.77302,0.2091c0.24077,0.13517 0.43087,0.32737 0.57027,0.5766c0.14362,0.245 0.21543,0.53013 0.21543,0.85539c0,0.36328 -0.08448,0.68009 -0.25345,0.95044c-0.16475,0.26613 -0.39285,0.47312 -0.68431,0.62095c-0.29147,0.14362 -0.61884,0.21543 -0.98211,0.21543c-0.19854,0 -0.39496,-0.03168 -0.58928,-0.09504c-0.19432,-0.06336 -0.36328,-0.1563 -0.5069,-0.27879c-0.06336,-0.03379 -0.10772,-0.07181 -0.13305,-0.11405c-0.02113,-0.04646 -0.03168,-0.09294 -0.03168,-0.1394c0,-0.07604 0.02958,-0.14996 0.08871,-0.22177c0.05914,-0.07181 0.13095,-0.10772 0.21543,-0.10772z" fill="#000000" stroke-width="1" stroke-linecap="square"/><path d="M240.52343,158.89783c-0.08809,0 -0.16151,-0.02937 -0.22024,-0.08809c-0.05454,-0.06292 -0.0818,-0.13634 -0.0818,-0.22024v-4.10899l0.11956,0.04405l-1.79336,2.34709l-0.03146,-0.09439h2.81275c0.07971,0 0.14682,0.02937 0.20136,0.08809c0.05454,0.05454 0.08181,0.12165 0.08181,0.20136c0,0.07552 -0.02727,0.14053 -0.0818,0.19506c-0.05454,0.05034 -0.12165,0.07552 -0.20136,0.07552h-3.22804c-0.07552,0 -0.14473,-0.02938 -0.20765,-0.0881c-0.05873,-0.06292 -0.08809,-0.13424 -0.08809,-0.21394c0,-0.07552 0.02307,-0.14053 0.06922,-0.19506l2.39743,-3.08332c0.03776,-0.04195 0.0776,-0.07131 0.11956,-0.08809c0.04614,-0.02098 0.09229,-0.03146 0.13844,-0.03146c0.0839,0 0.15312,0.02937 0.20765,0.08809c0.05873,0.05873 0.08809,0.13004 0.08809,0.21394v4.65014c0,0.0839 -0.02937,0.15731 -0.08809,0.22024c-0.05873,0.05873 -0.13004,0.08809 -0.21394,0.08809z" fill="#000000" stroke-width="1" stroke-linecap="square"/><path d="M260.36051,158.56939c-0.20387,0 -0.41199,-0.03186 -0.62434,-0.09556c-0.20812,-0.06371 -0.39074,-0.15927 -0.54789,-0.28669c-0.03823,-0.03398 -0.07007,-0.07856 -0.09556,-0.13377c-0.02549,-0.05945 -0.03823,-0.11256 -0.03823,-0.15927c0,-0.06371 0.02549,-0.12316 0.07645,-0.17837c0.05522,-0.05945 0.12529,-0.08921 0.21024,-0.08921c0.06795,0 0.14441,0.03187 0.22935,0.09557c0.11043,0.0892 0.23359,0.15927 0.36951,0.21024c0.14017,0.04672 0.27819,0.07006 0.41409,0.07006c0.28457,0 0.53091,-0.05309 0.73903,-0.15927c0.20812,-0.10617 0.36739,-0.25485 0.47782,-0.44596c0.11043,-0.19112 0.16565,-0.41621 0.16565,-0.6753c0,-0.23359 -0.05308,-0.43748 -0.15927,-0.61162c-0.10193,-0.17838 -0.24633,-0.31428 -0.43321,-0.40772c-0.18264,-0.09769 -0.39288,-0.14653 -0.63072,-0.14653c-0.17838,0 -0.33766,0.0276 -0.47782,0.08282c-0.14017,0.05097 -0.26334,0.10406 -0.36951,0.15927c-0.10193,0.05522 -0.18899,0.08282 -0.2612,0.08282c-0.09769,0 -0.172,-0.02124 -0.22298,-0.0637c-0.05097,-0.04248 -0.08495,-0.09556 -0.10194,-0.15927c-0.01274,-0.06795 -0.01698,-0.12955 -0.01274,-0.18476l0.29943,-1.96859c0.01274,-0.06795 0.04672,-0.12741 0.10193,-0.17837c0.05522,-0.05097 0.12529,-0.07645 0.21024,-0.07645h2.25529c0.0807,0 0.14866,0.0276 0.20387,0.08282c0.05946,0.05522 0.0892,0.12742 0.0892,0.21661c0,0.0807 -0.02974,0.14866 -0.0892,0.20387c-0.05522,0.05097 -0.12317,0.07645 -0.20387,0.07645h-2.10875l0.07645,-0.07007l-0.28031,1.72014l-0.12105,-0.15927c0.05522,-0.05097 0.14017,-0.10194 0.25485,-0.15291c0.11467,-0.05097 0.24633,-0.09345 0.395,-0.12741c0.14865,-0.03824 0.30156,-0.05734 0.4587,-0.05734c0.33128,0 0.62646,0.07645 0.88555,0.22935c0.26333,0.14866 0.47144,0.35251 0.62434,0.61161c0.1529,0.25909 0.22935,0.55426 0.22935,0.88555c0,0.37376 -0.08281,0.70081 -0.24845,0.98111c-0.16139,0.27608 -0.39073,0.49267 -0.68804,0.64982c-0.2973,0.1529 -0.64771,0.22935 -1.05119,0.22935z" fill="#000000" stroke-width="1" stroke-linecap="square"/><path d="M282.47127,158.47107c-0.2888,0 -0.54365,-0.05308 -0.76451,-0.15927c-0.22086,-0.11043 -0.4056,-0.25909 -0.55426,-0.44596c-0.14866,-0.19113 -0.2612,-0.40349 -0.33765,-0.63708c-0.07221,-0.23359 -0.1083,-0.47358 -0.1083,-0.7199c0,-0.21661 0.0276,-0.4587 0.08282,-0.72628c0.05522,-0.27182 0.14017,-0.54789 0.25484,-0.82822c0.11468,-0.28457 0.26333,-0.55426 0.44596,-0.8091c0.18264,-0.25909 0.39924,-0.49055 0.64983,-0.69442c0.25484,-0.20812 0.54789,-0.36739 0.87918,-0.47781c0.04248,-0.01274 0.08282,-0.01911 0.12105,-0.01911c0.0807,0 0.1529,0.02336 0.21661,0.07007c0.06371,0.04248 0.09556,0.11893 0.09556,0.22935c0,0.07221 -0.02336,0.1359 -0.07007,0.19113c-0.04672,0.05097 -0.1083,0.0892 -0.18475,0.11468c-0.19963,0.07645 -0.39711,0.18687 -0.5925,0.33128c-0.19538,0.14441 -0.37589,0.31429 -0.54152,0.50967c-0.16565,0.19538 -0.30794,0.4056 -0.42686,0.63072c-0.11893,0.2251 -0.20175,0.4587 -0.24845,0.7008l-0.18475,0.06371c0.0892,-0.14017 0.19963,-0.2697 0.33128,-0.38862c0.13166,-0.12316 0.28457,-0.22298 0.4587,-0.29943c0.17414,-0.07645 0.36527,-0.11468 0.57338,-0.11468c0.2251,0 0.43322,0.04885 0.62434,0.14653c0.19113,0.09769 0.36101,0.22722 0.50967,0.38862c0.14866,0.16139 0.26333,0.34828 0.34403,0.56064c0.08495,0.20812 0.12742,0.42686 0.12742,0.6562c0,0.31005 -0.07433,0.59673 -0.22298,0.86006c-0.14866,0.25909 -0.35251,0.46932 -0.61161,0.63072c-0.25484,0.15715 -0.54365,0.23572 -0.86644,0.23572zM282.45851,157.89769c0.20812,0 0.395,-0.04885 0.56064,-0.14653c0.16565,-0.09769 0.29518,-0.23359 0.38862,-0.40772c0.09769,-0.17837 0.14653,-0.37801 0.14653,-0.59886c0,-0.20812 -0.04248,-0.40136 -0.12742,-0.57974c-0.08495,-0.17837 -0.20812,-0.32067 -0.36951,-0.42686c-0.15715,-0.11043 -0.34828,-0.16565 -0.57338,-0.16565c-0.23784,0 -0.44384,0.05308 -0.61796,0.15927c-0.16989,0.10618 -0.30156,0.25059 -0.395,0.43322c-0.09345,0.17837 -0.14017,0.37589 -0.14017,0.5925c0,0.20387 0.0446,0.39288 0.13379,0.567c0.09345,0.16989 0.2251,0.30794 0.395,0.41409c0.16989,0.10618 0.36951,0.15927 0.59886,0.15927z" fill="#000000" stroke-width="1" stroke-linecap="square"/><path d="M303.45599,158.2772c-0.0807,0 -0.1529,-0.02548 -0.21661,-0.07645c-0.06371,-0.05522 -0.09556,-0.12742 -0.09556,-0.21661c0,-0.04672 0.01061,-0.09132 0.03186,-0.13378l1.96222,-4.45323l0.0892,0.14017h-2.44641c-0.0807,0 -0.15078,-0.02548 -0.21024,-0.07645c-0.05522,-0.05522 -0.08281,-0.12742 -0.08281,-0.21661c0,-0.0807 0.0276,-0.14653 0.08282,-0.1975c0.05945,-0.05522 0.12954,-0.08281 0.21024,-0.08281h2.74584c0.0892,0 0.16351,0.0276 0.22298,0.08282c0.05945,0.05522 0.0892,0.12742 0.0892,0.21661c0,0.04248 -0.01061,0.08706 -0.03186,0.13379l-2.06415,4.68895c-0.02548,0.05945 -0.06584,0.10618 -0.12105,0.14017c-0.05097,0.03398 -0.10618,0.05097 -0.16565,0.05097z" fill="#000000" stroke-width="1" stroke-linecap="square"/><path d="M175.7063,176.53616l-0.01274,-0.1083c0.17414,0.07645 0.33128,0.1805 0.47144,0.31218c0.14441,0.13166 0.25909,0.28244 0.34403,0.45233c0.08495,0.16989 0.12742,0.35251 0.12742,0.54789c0,0.27607 -0.07645,0.52879 -0.22935,0.75813c-0.14866,0.22935 -0.3504,0.41409 -0.60523,0.55426c-0.25484,0.1359 -0.5394,0.20387 -0.85368,0.20387c-0.31429,0 -0.59886,-0.06795 -0.85368,-0.20387c-0.25484,-0.14017 -0.45657,-0.32492 -0.60523,-0.55426c-0.14866,-0.22935 -0.22298,-0.48207 -0.22298,-0.75813c0,-0.2251 0.04672,-0.42472 0.14017,-0.59886c0.09345,-0.17414 0.21236,-0.32067 0.35677,-0.43959c0.14441,-0.12316 0.29518,-0.22086 0.45233,-0.29307l-0.03824,0.12742c-0.13166,-0.05945 -0.25696,-0.14229 -0.37589,-0.24845c-0.11893,-0.11043 -0.21661,-0.24208 -0.29307,-0.395c-0.07645,-0.15715 -0.11468,-0.33341 -0.11468,-0.52879c0,-0.27607 0.06795,-0.52453 0.20387,-0.74538c0.1359,-0.2251 0.32279,-0.40136 0.56064,-0.52879c0.24208,-0.13166 0.50542,-0.1975 0.78998,-0.1975c0.2888,0 0.54789,0.06584 0.77724,0.1975c0.23359,0.12742 0.42048,0.30367 0.56064,0.52879c0.14017,0.22086 0.21024,0.46932 0.21024,0.74538c0,0.20812 -0.04036,0.38862 -0.12105,0.54152c-0.0807,0.1529 -0.1805,0.28244 -0.29943,0.38862c-0.11893,0.10193 -0.24208,0.18264 -0.36951,0.24208zM174.01166,175.3703c0,0.18264 0.04036,0.3419 0.12105,0.47781c0.08495,0.1359 0.19963,0.24421 0.34403,0.32492c0.14441,0.07645 0.30156,0.11468 0.47144,0.11468c0.16989,0 0.32492,-0.03824 0.46507,-0.11468c0.14017,-0.0807 0.25272,-0.18899 0.33765,-0.32492c0.08495,-0.1359 0.12742,-0.29518 0.12742,-0.47781c0,-0.26333 -0.08706,-0.47994 -0.2612,-0.64983c-0.17414,-0.16989 -0.39711,-0.25484 -0.66893,-0.25484c-0.27607,0 -0.50117,0.08495 -0.67531,0.25484c-0.17414,0.16989 -0.2612,0.3865 -0.2612,0.64983zM174.94818,178.68314c0.31429,0 0.57125,-0.09132 0.77087,-0.27395c0.19963,-0.18264 0.29943,-0.40772 0.29943,-0.67531c0,-0.18687 -0.04885,-0.35251 -0.14653,-0.49693c-0.09345,-0.14441 -0.22298,-0.25696 -0.38862,-0.33765c-0.16139,-0.08495 -0.33978,-0.12742 -0.53516,-0.12742c-0.19538,0 -0.37375,0.04248 -0.53516,0.12742c-0.16139,0.0807 -0.29094,0.19324 -0.38862,0.33765c-0.09769,0.14441 -0.14653,0.31005 -0.14653,0.49693c0,0.26759 0.09981,0.49267 0.29943,0.67531c0.20387,0.18264 0.46082,0.27396 0.77087,0.27396z" fill="#000000" stroke-width="1" stroke-linecap="square"/><path d="M196.73156,173.57682c0.2888,0 0.54365,0.05522 0.76451,0.16565c0.22086,0.10618 0.40349,0.25484 0.54789,0.44596c0.14866,0.18687 0.26121,0.39711 0.33765,0.63072c0.07645,0.22935 0.11468,0.46932 0.11468,0.71991c0,0.21661 -0.0276,0.46082 -0.08281,0.73265c-0.05522,0.26759 -0.14017,0.54152 -0.25484,0.82185c-0.11468,0.27607 -0.26333,0.54365 -0.44596,0.80273c-0.18264,0.25484 -0.40136,0.48418 -0.6562,0.68804c-0.25059,0.19963 -0.54152,0.35677 -0.87282,0.47144c-0.04672,0.01274 -0.08706,0.01911 -0.12105,0.01911c-0.0807,0 -0.1529,-0.02548 -0.21661,-0.07645c-0.06371,-0.05097 -0.09556,-0.12742 -0.09556,-0.22935c0,-0.06795 0.02336,-0.12742 0.07007,-0.17837c0.04672,-0.05522 0.1083,-0.09556 0.18475,-0.12105c0.27182,-0.10193 0.53302,-0.2612 0.78361,-0.47781c0.25059,-0.21661 0.4672,-0.46932 0.64983,-0.75813c0.18687,-0.29307 0.31218,-0.59886 0.37589,-0.9174l0.17837,-0.06371c-0.0807,0.1359 -0.18687,0.26546 -0.31854,0.38862c-0.13166,0.11893 -0.28457,0.21661 -0.4587,0.29307c-0.17414,0.07221 -0.36739,0.1083 -0.57974,0.1083c-0.33128,0 -0.61585,-0.07857 -0.85368,-0.23572c-0.23784,-0.15715 -0.4226,-0.36739 -0.55426,-0.63071c-0.13166,-0.26333 -0.1975,-0.55426 -0.1975,-0.87282c0,-0.31005 0.07433,-0.59462 0.22298,-0.85368c0.14866,-0.26333 0.35251,-0.47358 0.61161,-0.63071c0.25909,-0.16139 0.54789,-0.24208 0.86644,-0.24208zM196.73793,174.14383c-0.20812,0 -0.395,0.05097 -0.56064,0.1529c-0.16139,0.09769 -0.29094,0.23359 -0.38862,0.40772c-0.09769,0.17414 -0.14653,0.37375 -0.14653,0.59886c0,0.21236 0.04248,0.40772 0.12742,0.58613c0.08495,0.17837 0.20599,0.32067 0.36315,0.42686c0.16139,0.10193 0.35677,0.1529 0.58613,0.1529c0.23784,0 0.4417,-0.05308 0.61161,-0.15927c0.17414,-0.11043 0.30794,-0.25484 0.40137,-0.43322c0.09345,-0.17837 0.14017,-0.37375 0.14017,-0.58613c0,-0.20812 -0.04672,-0.39711 -0.14017,-0.567c-0.0892,-0.16989 -0.21874,-0.30794 -0.38862,-0.41409c-0.16989,-0.11043 -0.37164,-0.16565 -0.60523,-0.16565z" fill="#000000" stroke-width="1" stroke-linecap="square"/><g fill="#000000" stroke-width="1" stroke-linecap="square"><path d="M219.54087,178.85464c-0.42048,0 -0.77087,-0.11893 -1.05119,-0.35677c-0.28031,-0.23784 -0.49267,-0.56489 -0.63708,-0.98111c-0.14441,-0.41622 -0.21661,-0.88344 -0.21661,-1.40159c0,-0.52666 0.07221,-0.99597 0.21661,-1.40796c0.14441,-0.41199 0.35677,-0.73689 0.63708,-0.97475c0.28031,-0.23784 0.63072,-0.35677 1.05119,-0.35677c0.42048,0 0.77087,0.11893 1.05119,0.35677c0.28457,0.23784 0.49693,0.56276 0.63708,0.97476c0.14441,0.41199 0.21661,0.88131 0.21661,1.40796c0,0.51817 -0.07221,0.98537 -0.21661,1.40159c-0.14017,0.41622 -0.35251,0.74326 -0.63708,0.98111c-0.28031,0.23784 -0.63071,0.35677 -1.05119,0.35677zM219.54087,178.23667c0.27182,0 0.49905,-0.08495 0.68168,-0.25484c0.18687,-0.17414 0.32703,-0.41836 0.42048,-0.73265c0.09769,-0.31854 0.14653,-0.69655 0.14653,-1.13401c0,-0.4417 -0.04885,-0.81972 -0.14653,-1.13401c-0.09345,-0.31854 -0.23359,-0.56276 -0.42048,-0.73265c-0.18264,-0.16989 -0.40986,-0.25484 -0.68168,-0.25484c-0.26759,0 -0.49481,0.08495 -0.68168,0.25484c-0.18264,0.16989 -0.32492,0.41409 -0.42686,0.73265c-0.09769,0.31429 -0.14653,0.69229 -0.14653,1.13401c0,0.43747 0.04885,0.81547 0.14653,1.13401c0.10193,0.31429 0.24421,0.55851 0.42686,0.73265c0.18687,0.16989 0.41409,0.25484 0.68168,0.25484z"/><path d="M216.13526,178.80196c-0.09345,0 -0.172,-0.02974 -0.23572,-0.0892c-0.05945,-0.06371 -0.0892,-0.13802 -0.0892,-0.22298v-4.32581l0.09556,0.10193l-0.86006,0.59886c-0.05097,0.03398 -0.11043,0.05097 -0.17837,0.05097c-0.08495,0 -0.15927,-0.03186 -0.22298,-0.09556c-0.05945,-0.06371 -0.0892,-0.1359 -0.0892,-0.21661c0,-0.11043 0.05522,-0.19963 0.16565,-0.26759l1.2041,-0.79636c0.04248,-0.02548 0.08282,-0.04248 0.12105,-0.05097c0.04248,-0.01274 0.08495,-0.01699 0.12742,-0.01274c0.0892,0 0.15927,0.02974 0.21024,0.0892c0.05522,0.05945 0.08282,0.13166 0.08282,0.21661v4.70807c0,0.08495 -0.03186,0.15927 -0.09556,0.22298c-0.06371,0.05945 -0.14229,0.0892 -0.23572,0.0892z"/></g><g fill="#000000" stroke-width="1" stroke-linecap="square"><path d="M241.78595,178.77527c-0.09345,0 -0.172,-0.02974 -0.23572,-0.0892c-0.05945,-0.06371 -0.0892,-0.13802 -0.0892,-0.22298v-4.32581l0.09556,0.10193l-0.86006,0.59886c-0.05097,0.03398 -0.11043,0.05097 -0.17837,0.05097c-0.08495,0 -0.15927,-0.03186 -0.22298,-0.09556c-0.05945,-0.06371 -0.0892,-0.1359 -0.0892,-0.21661c0,-0.11043 0.05522,-0.19963 0.16565,-0.26759l1.2041,-0.79636c0.04248,-0.02548 0.08282,-0.04248 0.12105,-0.05097c0.04248,-0.01274 0.08495,-0.01699 0.12742,-0.01274c0.0892,0 0.15927,0.02974 0.21024,0.0892c0.05522,0.05945 0.08282,0.13166 0.08282,0.21661v4.70807c0,0.08495 -0.03186,0.15927 -0.09556,0.22298c-0.06371,0.05945 -0.14229,0.0892 -0.23572,0.0892z"/><path d="M238.78595,178.77527c-0.09345,0 -0.172,-0.02974 -0.23572,-0.0892c-0.05945,-0.06371 -0.0892,-0.13802 -0.0892,-0.22298v-4.32581l0.09556,0.10193l-0.86006,0.59886c-0.05097,0.03398 -0.11043,0.05097 -0.17837,0.05097c-0.08495,0 -0.15927,-0.03186 -0.22298,-0.09556c-0.05945,-0.06371 -0.0892,-0.1359 -0.0892,-0.21661c0,-0.11043 0.05522,-0.19963 0.16565,-0.26759l1.2041,-0.79636c0.04248,-0.02548 0.08282,-0.04248 0.12105,-0.05097c0.04248,-0.01274 0.08495,-0.01699 0.12742,-0.01274c0.0892,0 0.15927,0.02974 0.21024,0.0892c0.05522,0.05945 0.08282,0.13166 0.08282,0.21661v4.70807c0,0.08495 -0.03186,0.15927 -0.09556,0.22298c-0.06371,0.05945 -0.14229,0.0892 -0.23572,0.0892z"/></g><g fill="#000000" stroke-width="1" stroke-linecap="square"><path d="M259.26858,178.46049c-0.09345,0 -0.172,-0.02974 -0.23572,-0.0892c-0.05945,-0.06371 -0.0892,-0.13802 -0.0892,-0.22298v-4.32581l0.09556,0.10193l-0.86006,0.59886c-0.05097,0.03398 -0.11043,0.05097 -0.17837,0.05097c-0.08495,0 -0.15927,-0.03186 -0.22298,-0.09556c-0.05945,-0.06371 -0.0892,-0.1359 -0.0892,-0.21661c0,-0.11043 0.05522,-0.19963 0.16565,-0.26759l1.2041,-0.79636c0.04248,-0.02548 0.08282,-0.04248 0.12105,-0.05097c0.04248,-0.01274 0.08495,-0.01699 0.12742,-0.01274c0.0892,0 0.15927,0.02974 0.21024,0.0892c0.05522,0.05945 0.08282,0.13166 0.08282,0.21661v4.70807c0,0.08495 -0.03186,0.15927 -0.09556,0.22298c-0.06371,0.05945 -0.14229,0.0892 -0.23572,0.0892z"/><path d="M263.66201,177.91087c0.0807,0 0.14866,0.02974 0.20387,0.0892c0.05522,0.05522 0.08282,0.12316 0.08282,0.20387c0,0.0807 -0.0276,0.14866 -0.08281,0.20387c-0.05522,0.05097 -0.12316,0.07645 -0.20387,0.07645h-2.75858c-0.09345,0 -0.16989,-0.02548 -0.22935,-0.07645c-0.05522,-0.05522 -0.08281,-0.12954 -0.08281,-0.22298c0,-0.0807 0.02974,-0.1529 0.0892,-0.21661l1.72014,-1.8794c0.25059,-0.27607 0.4396,-0.53302 0.567,-0.77087c0.13166,-0.24208 0.1975,-0.45657 0.1975,-0.64346c0,-0.31005 -0.09345,-0.55639 -0.28031,-0.73903c-0.18264,-0.18687 -0.42897,-0.28031 -0.73903,-0.28031c-0.1359,0 -0.27182,0.02974 -0.40772,0.0892c-0.1359,0.05522 -0.2612,0.13379 -0.37589,0.23572c-0.11043,0.09769 -0.20175,0.20599 -0.27395,0.32492c-0.03824,0.06795 -0.07857,0.11043 -0.12105,0.12742c-0.04248,0.01699 -0.08706,0.02548 -0.13378,0.02548c-0.07645,0 -0.14653,-0.02548 -0.21024,-0.07645c-0.05945,-0.05522 -0.0892,-0.1168 -0.0892,-0.18475c0,-0.05945 0.01486,-0.11256 0.0446,-0.15927c0.03398,-0.04672 0.07645,-0.10193 0.12742,-0.16565c0.10618,-0.14441 0.23784,-0.27607 0.395,-0.395c0.16139,-0.11893 0.33553,-0.21448 0.52241,-0.28669c0.19113,-0.07221 0.37801,-0.1083 0.56064,-0.1083c0.32703,0 0.60947,0.06371 0.84733,0.19113c0.24208,0.12742 0.42897,0.30794 0.56064,0.54152c0.13166,0.23359 0.1975,0.50753 0.1975,0.82185c0,0.26759 -0.0807,0.56489 -0.24208,0.89192c-0.16139,0.32279 -0.39924,0.65195 -0.71353,0.98748l-1.33152,1.47167l-0.07645,-0.07645z"/></g><g fill="#000000" stroke-width="1" stroke-linecap="square"><path d="M280.90058,178.37427c-0.09345,0 -0.172,-0.02974 -0.23572,-0.0892c-0.05945,-0.06371 -0.0892,-0.13802 -0.0892,-0.22298v-4.32581l0.09556,0.10193l-0.86006,0.59886c-0.05097,0.03398 -0.11043,0.05097 -0.17837,0.05097c-0.08495,0 -0.15927,-0.03186 -0.22298,-0.09556c-0.05945,-0.06371 -0.0892,-0.1359 -0.0892,-0.21661c0,-0.11043 0.05522,-0.19963 0.16565,-0.26759l1.2041,-0.79636c0.04248,-0.02548 0.08282,-0.04248 0.12105,-0.05097c0.04248,-0.01274 0.08495,-0.01699 0.12742,-0.01274c0.0892,0 0.15927,0.02974 0.21024,0.0892c0.05522,0.05945 0.08282,0.13166 0.08282,0.21661v4.70807c0,0.08495 -0.03186,0.15927 -0.09556,0.22298c-0.06371,0.05945 -0.14229,0.0892 -0.23572,0.0892z"/><path d="M282.85703,177.53623c0.02974,0 0.06371,0.00637 0.10193,0.01911c0.03824,0.01274 0.0807,0.04036 0.12742,0.08282c0.10193,0.09345 0.22086,0.16777 0.35677,0.22298c0.1359,0.05522 0.29307,0.08282 0.47144,0.08282c0.21661,0 0.41622,-0.04885 0.59886,-0.14653c0.18264,-0.10193 0.33128,-0.24421 0.44596,-0.42686c0.11468,-0.18264 0.17201,-0.39288 0.17201,-0.63071c0,-0.25909 -0.05735,-0.46932 -0.172,-0.63071c-0.11468,-0.16565 -0.25909,-0.28669 -0.43322,-0.36314c-0.17414,-0.0807 -0.35888,-0.12105 -0.55426,-0.12105c-0.06795,0 -0.13378,0.00424 -0.1975,0.01274c-0.05945,0.00849 -0.1168,0.02124 -0.172,0.03824c-0.05097,0.01699 -0.09981,0.02548 -0.14653,0.02548c-0.0807,0 -0.14441,-0.0276 -0.19113,-0.08281c-0.04248,-0.05945 -0.06371,-0.12954 -0.06371,-0.21024c0,-0.04672 0.00849,-0.08706 0.02548,-0.12105c0.01699,-0.03824 0.0446,-0.0807 0.08282,-0.12742l1.47804,-1.59908l0.12105,0.14653h-2.15972c-0.0807,0 -0.14866,-0.0276 -0.20387,-0.08281c-0.05522,-0.05945 -0.08281,-0.12954 -0.08281,-0.21024c0,-0.0807 0.0276,-0.14653 0.08282,-0.1975c0.05522,-0.05522 0.12316,-0.08281 0.20387,-0.08281h2.47827c0.11468,0 0.19538,0.03186 0.24208,0.09556c0.05097,0.06371 0.07645,0.13379 0.07645,0.21024c0,0.04672 -0.01061,0.09132 -0.03186,0.13379c-0.02124,0.03824 -0.05097,0.07433 -0.0892,0.1083l-1.47166,1.60546l-0.17837,-0.1529c0.02548,-0.02124 0.08282,-0.04036 0.17201,-0.05735c0.09345,-0.01699 0.17201,-0.02548 0.23572,-0.02548c0.28031,0 0.5394,0.07007 0.77724,0.21024c0.24208,0.1359 0.43322,0.32916 0.57338,0.57975c0.14441,0.24634 0.21661,0.53302 0.21661,0.86006c0,0.36527 -0.08495,0.6838 -0.25484,0.95562c-0.16565,0.26759 -0.395,0.4757 -0.68804,0.62434c-0.29307,0.14441 -0.62223,0.21661 -0.98747,0.21661c-0.19963,0 -0.39711,-0.03186 -0.5925,-0.09556c-0.19538,-0.06371 -0.36527,-0.15715 -0.50967,-0.28031c-0.06371,-0.03398 -0.1083,-0.07221 -0.13378,-0.11468c-0.02124,-0.04672 -0.03186,-0.09345 -0.03186,-0.14017c0,-0.07645 0.02974,-0.15078 0.0892,-0.22298c0.05945,-0.07221 0.13166,-0.1083 0.21661,-0.1083z"/></g><g fill="#000000" stroke-width="1" stroke-linecap="square"><path d="M302.99268,178.52709c-0.09345,0 -0.172,-0.02974 -0.23572,-0.0892c-0.05945,-0.06371 -0.0892,-0.13802 -0.0892,-0.22298v-4.32581l0.09556,0.10193l-0.86006,0.59886c-0.05097,0.03398 -0.11043,0.05097 -0.17837,0.05097c-0.08495,0 -0.15927,-0.03186 -0.22298,-0.09556c-0.05945,-0.06371 -0.0892,-0.1359 -0.0892,-0.21661c0,-0.11043 0.05522,-0.19963 0.16565,-0.26759l1.2041,-0.79636c0.04248,-0.02548 0.08282,-0.04248 0.12105,-0.05097c0.04248,-0.01274 0.08495,-0.01699 0.12742,-0.01274c0.0892,0 0.15927,0.02974 0.21024,0.0892c0.05522,0.05945 0.08282,0.13166 0.08282,0.21661v4.70807c0,0.08495 -0.03186,0.15927 -0.09556,0.22298c-0.06371,0.05945 -0.14229,0.0892 -0.23572,0.0892z"/><path d="M306.76571,178.34837c-0.0892,0 -0.16351,-0.02974 -0.22298,-0.0892c-0.05522,-0.06371 -0.08281,-0.13802 -0.08281,-0.22298v-4.16018l0.12105,0.0446l-1.8157,2.37633l-0.03186,-0.09556h2.84779c0.0807,0 0.14866,0.02974 0.20387,0.0892c0.05522,0.05522 0.08282,0.12316 0.08282,0.20387c0,0.07645 -0.0276,0.14229 -0.08281,0.1975c-0.05522,0.05097 -0.12316,0.07645 -0.20387,0.07645h-3.26825c-0.07645,0 -0.14653,-0.02974 -0.21024,-0.0892c-0.05945,-0.06371 -0.0892,-0.1359 -0.0892,-0.21661c0,-0.07645 0.02336,-0.14229 0.07007,-0.1975l2.4273,-3.12173c0.03824,-0.04248 0.07857,-0.07221 0.12105,-0.0892c0.04672,-0.02124 0.09345,-0.03186 0.14017,-0.03186c0.08495,0 0.15502,0.02974 0.21024,0.0892c0.05945,0.05945 0.0892,0.13166 0.0892,0.21661v4.70807c0,0.08495 -0.02974,0.15927 -0.0892,0.22298c-0.05945,0.05945 -0.13166,0.0892 -0.21661,0.0892z"/></g><g fill="#000000" stroke-width="1" stroke-linecap="square"><path d="M173.64912,200.19248c-0.09345,0 -0.172,-0.02974 -0.23572,-0.0892c-0.05945,-0.06371 -0.0892,-0.13802 -0.0892,-0.22298v-4.32581l0.09556,0.10193l-0.86006,0.59886c-0.05097,0.03398 -0.11043,0.05097 -0.17837,0.05097c-0.08495,0 -0.15927,-0.03186 -0.22298,-0.09556c-0.05945,-0.06371 -0.0892,-0.1359 -0.0892,-0.21661c0,-0.11043 0.05522,-0.19963 0.16565,-0.26759l1.2041,-0.79636c0.04248,-0.02548 0.08282,-0.04248 0.12105,-0.05097c0.04248,-0.01274 0.08495,-0.01699 0.12742,-0.01274c0.0892,0 0.15927,0.02974 0.21024,0.0892c0.05522,0.05945 0.08282,0.13166 0.08282,0.21661v4.70807c0,0.08495 -0.03186,0.15927 -0.09556,0.22298c-0.06371,0.05945 -0.14229,0.0892 -0.23572,0.0892z"/><path d="M176.36051,200.31938c-0.20387,0 -0.41199,-0.03186 -0.62434,-0.09556c-0.20812,-0.06371 -0.39074,-0.15927 -0.54789,-0.28669c-0.03824,-0.03398 -0.07007,-0.07857 -0.09556,-0.13378c-0.02548,-0.05945 -0.03824,-0.11256 -0.03824,-0.15927c0,-0.06371 0.02548,-0.12316 0.07645,-0.17837c0.05522,-0.05945 0.12529,-0.0892 0.21024,-0.0892c0.06795,0 0.14441,0.03186 0.22935,0.09556c0.11043,0.0892 0.23359,0.15927 0.36951,0.21024c0.14017,0.04672 0.27819,0.07007 0.41409,0.07007c0.28457,0 0.53091,-0.05308 0.73903,-0.15927c0.20812,-0.10618 0.36739,-0.25484 0.47781,-0.44596c0.11043,-0.19113 0.16565,-0.41622 0.16565,-0.67531c0,-0.23359 -0.05308,-0.43747 -0.15927,-0.61161c-0.10193,-0.17837 -0.24634,-0.31429 -0.43322,-0.40772c-0.18264,-0.09769 -0.39288,-0.14653 -0.63071,-0.14653c-0.17837,0 -0.33765,0.0276 -0.47781,0.08282c-0.14017,0.05097 -0.26333,0.10406 -0.36951,0.15927c-0.10193,0.05522 -0.18899,0.08282 -0.2612,0.08282c-0.09769,0 -0.172,-0.02124 -0.22298,-0.06371c-0.05097,-0.04248 -0.08495,-0.09556 -0.10193,-0.15927c-0.01274,-0.06795 -0.01699,-0.12954 -0.01274,-0.18475l0.29943,-1.96859c0.01274,-0.06795 0.04672,-0.12742 0.10193,-0.17837c0.05522,-0.05097 0.12529,-0.07645 0.21024,-0.07645h2.2553c0.0807,0 0.14866,0.0276 0.20387,0.08282c0.05945,0.05522 0.0892,0.12742 0.0892,0.21661c0,0.0807 -0.02974,0.14866 -0.0892,0.20387c-0.05522,0.05097 -0.12316,0.07645 -0.20387,0.07645h-2.10876l0.07645,-0.07007l-0.28031,1.72014l-0.12105,-0.15927c0.05522,-0.05097 0.14017,-0.10193 0.25484,-0.1529c0.11468,-0.05097 0.24634,-0.09345 0.395,-0.12742c0.14866,-0.03824 0.30156,-0.05735 0.4587,-0.05735c0.33128,0 0.62646,0.07645 0.88555,0.22935c0.26333,0.14866 0.47144,0.35251 0.62434,0.61161c0.1529,0.25909 0.22935,0.55426 0.22935,0.88555c0,0.37375 -0.08281,0.7008 -0.24845,0.98111c-0.16139,0.27607 -0.39074,0.49267 -0.68804,0.64983c-0.2973,0.1529 -0.64771,0.22935 -1.05119,0.22935z"/></g><g fill="#000000" stroke-width="1" stroke-linecap="square"><path d="M195.09343,200.02581c-0.09345,0 -0.172,-0.02974 -0.23572,-0.0892c-0.05945,-0.06371 -0.0892,-0.13802 -0.0892,-0.22298v-4.32581l0.09556,0.10193l-0.86006,0.59886c-0.05097,0.03398 -0.11043,0.05097 -0.17837,0.05097c-0.08495,0 -0.15927,-0.03186 -0.22298,-0.09556c-0.05945,-0.06371 -0.0892,-0.1359 -0.0892,-0.21661c0,-0.11043 0.05522,-0.19963 0.16565,-0.26759l1.2041,-0.79636c0.04248,-0.02548 0.08282,-0.04248 0.12105,-0.05097c0.04248,-0.01274 0.08495,-0.01699 0.12742,-0.01274c0.0892,0 0.15927,0.02974 0.21024,0.0892c0.05522,0.05945 0.08282,0.13166 0.08282,0.21661v4.70807c0,0.08495 -0.03186,0.15927 -0.09556,0.22298c-0.06371,0.05945 -0.14229,0.0892 -0.23572,0.0892z"/><path d="M198.26028,200.22106c-0.2888,0 -0.54365,-0.05308 -0.76451,-0.15927c-0.22086,-0.11043 -0.4056,-0.25909 -0.55426,-0.44596c-0.14866,-0.19113 -0.2612,-0.40349 -0.33765,-0.63708c-0.07221,-0.23359 -0.1083,-0.47358 -0.1083,-0.7199c0,-0.21661 0.0276,-0.4587 0.08282,-0.72628c0.05522,-0.27182 0.14017,-0.54789 0.25484,-0.82822c0.11468,-0.28457 0.26333,-0.55426 0.44596,-0.8091c0.18264,-0.25909 0.39924,-0.49055 0.64983,-0.69442c0.25484,-0.20812 0.54789,-0.36739 0.87918,-0.47781c0.04248,-0.01274 0.08282,-0.01911 0.12105,-0.01911c0.0807,0 0.1529,0.02336 0.21661,0.07007c0.06371,0.04248 0.09556,0.11893 0.09556,0.22935c0,0.07221 -0.02336,0.1359 -0.07007,0.19113c-0.04672,0.05097 -0.1083,0.0892 -0.18475,0.11468c-0.19963,0.07645 -0.39711,0.18687 -0.5925,0.33128c-0.19538,0.14441 -0.37589,0.31429 -0.54152,0.50967c-0.16565,0.19538 -0.30794,0.4056 -0.42686,0.63072c-0.11893,0.2251 -0.20175,0.4587 -0.24845,0.7008l-0.18475,0.06371c0.0892,-0.14017 0.19963,-0.2697 0.33128,-0.38862c0.13166,-0.12316 0.28457,-0.22298 0.4587,-0.29943c0.17414,-0.07645 0.36527,-0.11468 0.57338,-0.11468c0.2251,0 0.43322,0.04885 0.62434,0.14653c0.19113,0.09769 0.36101,0.22722 0.50967,0.38862c0.14866,0.16139 0.26333,0.34828 0.34403,0.56064c0.08495,0.20812 0.12742,0.42686 0.12742,0.6562c0,0.31005 -0.07433,0.59673 -0.22298,0.86006c-0.14866,0.25909 -0.35251,0.46932 -0.61161,0.63072c-0.25484,0.15715 -0.54365,0.23572 -0.86644,0.23572zM198.24753,199.64768c0.20812,0 0.395,-0.04885 0.56064,-0.14653c0.16565,-0.09769 0.29518,-0.23359 0.38862,-0.40772c0.09769,-0.17837 0.14653,-0.37801 0.14653,-0.59886c0,-0.20812 -0.04248,-0.40136 -0.12742,-0.57974c-0.08495,-0.17837 -0.20812,-0.32067 -0.36951,-0.42686c-0.15715,-0.11043 -0.34828,-0.16565 -0.57338,-0.16565c-0.23784,0 -0.44384,0.05308 -0.61796,0.15927c-0.16989,0.10618 -0.30156,0.25059 -0.395,0.43322c-0.09345,0.17837 -0.14017,0.37589 -0.14017,0.5925c0,0.20387 0.0446,0.39288 0.13379,0.567c0.09345,0.16989 0.2251,0.30794 0.395,0.41409c0.16989,0.10618 0.36951,0.15927 0.59886,0.15927z"/></g><g fill="#000000" stroke-width="1" stroke-linecap="square"><path d="M216.56578,199.49341c-0.09345,0 -0.172,-0.02974 -0.23572,-0.0892c-0.05945,-0.06371 -0.0892,-0.13802 -0.0892,-0.22298v-4.32581l0.09556,0.10193l-0.86006,0.59886c-0.05097,0.03398 -0.11043,0.05097 -0.17837,0.05097c-0.08495,0 -0.15927,-0.03186 -0.22298,-0.09556c-0.05945,-0.06371 -0.0892,-0.1359 -0.0892,-0.21661c0,-0.11043 0.05522,-0.19963 0.16565,-0.26759l1.2041,-0.79636c0.04248,-0.02548 0.08282,-0.04248 0.12105,-0.05097c0.04248,-0.01274 0.08495,-0.01699 0.12742,-0.01274c0.0892,0 0.15927,0.02974 0.21024,0.0892c0.05522,0.05945 0.08282,0.13166 0.08282,0.21661v4.70807c0,0.08495 -0.03186,0.15927 -0.09556,0.22298c-0.06371,0.05945 -0.14229,0.0892 -0.23572,0.0892z"/><path d="M219.04762,199.66147c-0.0807,0 -0.1529,-0.02548 -0.21661,-0.07645c-0.06371,-0.05522 -0.09556,-0.12742 -0.09556,-0.21661c0,-0.04672 0.01061,-0.09132 0.03186,-0.13378l1.96222,-4.45323l0.0892,0.14017h-2.44641c-0.0807,0 -0.15078,-0.02548 -0.21024,-0.07645c-0.05522,-0.05522 -0.08281,-0.12742 -0.08281,-0.21661c0,-0.0807 0.0276,-0.14653 0.08282,-0.1975c0.05945,-0.05522 0.12954,-0.08281 0.21024,-0.08281h2.74584c0.0892,0 0.16351,0.0276 0.22298,0.08282c0.05945,0.05522 0.0892,0.12742 0.0892,0.21661c0,0.04248 -0.01061,0.08706 -0.03186,0.13379l-2.06415,4.68895c-0.02548,0.05945 -0.06584,0.10618 -0.12105,0.14017c-0.05097,0.03398 -0.10618,0.05097 -0.16565,0.05097z"/></g><g fill="#000000" stroke-width="1" stroke-linecap="square"><path d="M238.18455,199.79435c-0.09345,0 -0.172,-0.02974 -0.23572,-0.0892c-0.05945,-0.06371 -0.0892,-0.13802 -0.0892,-0.22298v-4.32581l0.09556,0.10193l-0.86006,0.59886c-0.05097,0.03398 -0.11043,0.05097 -0.17837,0.05097c-0.08495,0 -0.15927,-0.03186 -0.22298,-0.09556c-0.05945,-0.06371 -0.0892,-0.1359 -0.0892,-0.21661c0,-0.11043 0.05522,-0.19963 0.16565,-0.26759l1.2041,-0.79636c0.04248,-0.02548 0.08282,-0.04248 0.12105,-0.05097c0.04248,-0.01274 0.08495,-0.01699 0.12742,-0.01274c0.0892,0 0.15927,0.02974 0.21024,0.0892c0.05522,0.05945 0.08282,0.13166 0.08282,0.21661v4.70807c0,0.08495 -0.03186,0.15927 -0.09556,0.22298c-0.06371,0.05945 -0.14229,0.0892 -0.23572,0.0892z"/><path d="M242.02413,197.02855l-0.01274,-0.1083c0.17414,0.07645 0.33128,0.1805 0.47144,0.31218c0.14441,0.13166 0.25909,0.28244 0.34403,0.45233c0.08495,0.16989 0.12742,0.35251 0.12742,0.54789c0,0.27607 -0.07645,0.52879 -0.22935,0.75813c-0.14866,0.22935 -0.3504,0.41409 -0.60523,0.55426c-0.25484,0.1359 -0.5394,0.20387 -0.85368,0.20387c-0.31429,0 -0.59886,-0.06795 -0.85368,-0.20387c-0.25484,-0.14017 -0.45657,-0.32492 -0.60523,-0.55426c-0.14866,-0.22935 -0.22298,-0.48207 -0.22298,-0.75813c0,-0.2251 0.04672,-0.42472 0.14017,-0.59886c0.09345,-0.17414 0.21236,-0.32067 0.35677,-0.43959c0.14441,-0.12316 0.29518,-0.22086 0.45233,-0.29307l-0.03824,0.12742c-0.13166,-0.05945 -0.25696,-0.14229 -0.37589,-0.24845c-0.11893,-0.11043 -0.21661,-0.24208 -0.29307,-0.395c-0.07645,-0.15715 -0.11468,-0.33341 -0.11468,-0.52879c0,-0.27607 0.06795,-0.52453 0.20387,-0.74538c0.1359,-0.2251 0.32279,-0.40136 0.56064,-0.52879c0.24208,-0.13166 0.50542,-0.1975 0.78998,-0.1975c0.2888,0 0.54789,0.06584 0.77724,0.1975c0.23359,0.12742 0.42048,0.30367 0.56064,0.52879c0.14017,0.22086 0.21024,0.46932 0.21024,0.74538c0,0.20812 -0.04036,0.38862 -0.12105,0.54152c-0.0807,0.1529 -0.1805,0.28244 -0.29943,0.38862c-0.11893,0.10193 -0.24208,0.18264 -0.36951,0.24208zM240.32949,195.86269c0,0.18264 0.04036,0.3419 0.12105,0.47781c0.08495,0.1359 0.19963,0.24421 0.34403,0.32492c0.14441,0.07645 0.30156,0.11468 0.47144,0.11468c0.16989,0 0.32492,-0.03824 0.46507,-0.11468c0.14017,-0.0807 0.25272,-0.18899 0.33765,-0.32492c0.08495,-0.1359 0.12742,-0.29518 0.12742,-0.47781c0,-0.26333 -0.08706,-0.47994 -0.2612,-0.64983c-0.17414,-0.16989 -0.39711,-0.25484 -0.66893,-0.25484c-0.27607,0 -0.50117,0.08495 -0.67531,0.25484c-0.17414,0.16989 -0.2612,0.3865 -0.2612,0.64983zM241.26601,199.17553c0.31429,0 0.57125,-0.09132 0.77087,-0.27395c0.19963,-0.18264 0.29943,-0.40772 0.29943,-0.67531c0,-0.18687 -0.04885,-0.35251 -0.14653,-0.49693c-0.09345,-0.14441 -0.22298,-0.25696 -0.38862,-0.33765c-0.16139,-0.08495 -0.33978,-0.12742 -0.53516,-0.12742c-0.19538,0 -0.37375,0.04248 -0.53516,0.12742c-0.16139,0.0807 -0.29094,0.19324 -0.38862,0.33765c-0.09769,0.14441 -0.14653,0.31005 -0.14653,0.49693c0,0.26759 0.09981,0.49267 0.29943,0.67531c0.20387,0.18264 0.46082,0.27396 0.77087,0.27396z"/></g><g fill="#000000" stroke-width="1" stroke-linecap="square"><path d="M259.39912,199.5953c-0.09345,0 -0.172,-0.02974 -0.23572,-0.0892c-0.05945,-0.06371 -0.0892,-0.13802 -0.0892,-0.22298v-4.32581l0.09556,0.10193l-0.86006,0.59886c-0.05097,0.03398 -0.11043,0.05097 -0.17837,0.05097c-0.08495,0 -0.15927,-0.03186 -0.22298,-0.09556c-0.05945,-0.06371 -0.0892,-0.1359 -0.0892,-0.21661c0,-0.11043 0.05522,-0.19963 0.16565,-0.26759l1.2041,-0.79636c0.04248,-0.02548 0.08282,-0.04248 0.12105,-0.05097c0.04248,-0.01274 0.08495,-0.01699 0.12742,-0.01274c0.0892,0 0.15927,0.02974 0.21024,0.0892c0.05522,0.05945 0.08282,0.13166 0.08282,0.21661v4.70807c0,0.08495 -0.03186,0.15927 -0.09556,0.22298c-0.06371,0.05945 -0.14229,0.0892 -0.23572,0.0892z"/><path d="M262.2394,194.12016c0.2888,0 0.54365,0.05522 0.76451,0.16565c0.22086,0.10618 0.40349,0.25484 0.54789,0.44596c0.14866,0.18687 0.26121,0.39711 0.33765,0.63072c0.07645,0.22935 0.11468,0.46932 0.11468,0.71991c0,0.21661 -0.0276,0.46082 -0.08281,0.73265c-0.05522,0.26759 -0.14017,0.54152 -0.25484,0.82185c-0.11468,0.27607 -0.26333,0.54365 -0.44596,0.80273c-0.18264,0.25484 -0.40136,0.48418 -0.6562,0.68804c-0.25059,0.19963 -0.54152,0.35677 -0.87282,0.47144c-0.04672,0.01274 -0.08706,0.01911 -0.12105,0.01911c-0.0807,0 -0.1529,-0.02548 -0.21661,-0.07645c-0.06371,-0.05097 -0.09556,-0.12742 -0.09556,-0.22935c0,-0.06795 0.02336,-0.12742 0.07007,-0.17837c0.04672,-0.05522 0.1083,-0.09556 0.18475,-0.12105c0.27182,-0.10193 0.53302,-0.2612 0.78361,-0.47781c0.25059,-0.21661 0.4672,-0.46932 0.64983,-0.75813c0.18687,-0.29307 0.31218,-0.59886 0.37589,-0.9174l0.17837,-0.06371c-0.0807,0.1359 -0.18687,0.26546 -0.31854,0.38862c-0.13166,0.11893 -0.28457,0.21661 -0.4587,0.29307c-0.17414,0.07221 -0.36739,0.1083 -0.57974,0.1083c-0.33128,0 -0.61585,-0.07857 -0.85368,-0.23572c-0.23784,-0.15715 -0.4226,-0.36739 -0.55426,-0.63071c-0.13166,-0.26333 -0.1975,-0.55426 -0.1975,-0.87282c0,-0.31005 0.07433,-0.59462 0.22298,-0.85368c0.14866,-0.26333 0.35251,-0.47358 0.61161,-0.63071c0.25909,-0.16139 0.54789,-0.24208 0.86644,-0.24208zM262.24577,194.68717c-0.20812,0 -0.395,0.05097 -0.56064,0.1529c-0.16139,0.09769 -0.29094,0.23359 -0.38862,0.40772c-0.09769,0.17414 -0.14653,0.37375 -0.14653,0.59886c0,0.21236 0.04248,0.40772 0.12742,0.58613c0.08495,0.17837 0.20599,0.32067 0.36315,0.42686c0.16139,0.10193 0.35677,0.1529 0.58613,0.1529c0.23784,0 0.4417,-0.05308 0.61161,-0.15927c0.17414,-0.11043 0.30794,-0.25484 0.40137,-0.43322c0.09345,-0.17837 0.14017,-0.37375 0.14017,-0.58613c0,-0.20812 -0.04672,-0.39711 -0.14017,-0.567c-0.0892,-0.16989 -0.21874,-0.30794 -0.38862,-0.41409c-0.16989,-0.11043 -0.37164,-0.16565 -0.60523,-0.16565z"/></g><g fill="#000000" stroke-width="1" stroke-linecap="square"><path d="M284.87099,199.24985c-0.42048,0 -0.77087,-0.11893 -1.05119,-0.35677c-0.28031,-0.23784 -0.49267,-0.56489 -0.63708,-0.98111c-0.14441,-0.41622 -0.21661,-0.88344 -0.21661,-1.40159c0,-0.52666 0.07221,-0.99597 0.21661,-1.40796c0.14441,-0.41199 0.35677,-0.73689 0.63708,-0.97475c0.28031,-0.23784 0.63072,-0.35677 1.05119,-0.35677c0.42048,0 0.77087,0.11893 1.05119,0.35677c0.28457,0.23784 0.49693,0.56276 0.63708,0.97476c0.14441,0.41199 0.21661,0.88131 0.21661,1.40796c0,0.51817 -0.07221,0.98537 -0.21661,1.40159c-0.14017,0.41622 -0.35251,0.74326 -0.63708,0.98111c-0.28031,0.23784 -0.63071,0.35677 -1.05119,0.35677zM284.87099,198.63187c0.27182,0 0.49905,-0.08495 0.68168,-0.25484c0.18687,-0.17414 0.32703,-0.41836 0.42048,-0.73265c0.09769,-0.31854 0.14653,-0.69655 0.14653,-1.13401c0,-0.4417 -0.04885,-0.81972 -0.14653,-1.13401c-0.09345,-0.31854 -0.23359,-0.56276 -0.42048,-0.73265c-0.18264,-0.16989 -0.40986,-0.25484 -0.68168,-0.25484c-0.26759,0 -0.49481,0.08495 -0.68168,0.25484c-0.18264,0.16989 -0.32492,0.41409 -0.42686,0.73265c-0.09769,0.31429 -0.14653,0.69229 -0.14653,1.13401c0,0.43747 0.04885,0.81547 0.14653,1.13401c0.10193,0.31429 0.24421,0.55851 0.42686,0.73265c0.18687,0.16989 0.41409,0.25484 0.68168,0.25484z"/><path d="M282.10881,198.64756c0.0807,0 0.14866,0.02974 0.20387,0.0892c0.05522,0.05522 0.08282,0.12316 0.08282,0.20387c0,0.0807 -0.0276,0.14866 -0.08281,0.20387c-0.05522,0.05097 -0.12316,0.07645 -0.20387,0.07645h-2.75858c-0.09345,0 -0.16989,-0.02548 -0.22935,-0.07645c-0.05522,-0.05522 -0.08281,-0.12954 -0.08281,-0.22298c0,-0.0807 0.02974,-0.1529 0.0892,-0.21661l1.72014,-1.8794c0.25059,-0.27607 0.4396,-0.53302 0.567,-0.77087c0.13166,-0.24208 0.1975,-0.45657 0.1975,-0.64346c0,-0.31005 -0.09345,-0.55639 -0.28031,-0.73903c-0.18264,-0.18687 -0.42897,-0.28031 -0.73903,-0.28031c-0.1359,0 -0.27182,0.02974 -0.40772,0.0892c-0.1359,0.05522 -0.2612,0.13379 -0.37589,0.23572c-0.11043,0.09769 -0.20175,0.20599 -0.27395,0.32492c-0.03824,0.06795 -0.07857,0.11043 -0.12105,0.12742c-0.04248,0.01699 -0.08706,0.02548 -0.13378,0.02548c-0.07645,0 -0.14653,-0.02548 -0.21024,-0.07645c-0.05945,-0.05522 -0.0892,-0.1168 -0.0892,-0.18475c0,-0.05945 0.01486,-0.11256 0.0446,-0.15927c0.03398,-0.04672 0.07645,-0.10193 0.12742,-0.16565c0.10618,-0.14441 0.23784,-0.27607 0.395,-0.395c0.16139,-0.11893 0.33553,-0.21448 0.52241,-0.28669c0.19113,-0.07221 0.37801,-0.1083 0.56064,-0.1083c0.32703,0 0.60947,0.06371 0.84733,0.19113c0.24208,0.12742 0.42897,0.30794 0.56064,0.54152c0.13166,0.23359 0.1975,0.50753 0.1975,0.82185c0,0.26759 -0.0807,0.56489 -0.24208,0.89192c-0.16139,0.32279 -0.39924,0.65195 -0.71353,0.98748l-1.33152,1.47167l-0.07645,-0.07645z"/></g><g fill="#000000" stroke-width="1" stroke-linecap="square"><path d="M304.7009,198.4485c0.0807,0 0.14866,0.02974 0.20387,0.0892c0.05522,0.05522 0.08282,0.12316 0.08282,0.20387c0,0.0807 -0.0276,0.14866 -0.08281,0.20387c-0.05522,0.05097 -0.12316,0.07645 -0.20387,0.07645h-2.75858c-0.09345,0 -0.16989,-0.02548 -0.22935,-0.07645c-0.05522,-0.05522 -0.08281,-0.12954 -0.08281,-0.22298c0,-0.0807 0.02974,-0.1529 0.0892,-0.21661l1.72014,-1.8794c0.25059,-0.27607 0.4396,-0.53302 0.567,-0.77087c0.13166,-0.24208 0.1975,-0.45657 0.1975,-0.64346c0,-0.31005 -0.09345,-0.55639 -0.28031,-0.73903c-0.18264,-0.18687 -0.42897,-0.28031 -0.73903,-0.28031c-0.1359,0 -0.27182,0.02974 -0.40772,0.0892c-0.1359,0.05522 -0.2612,0.13379 -0.37589,0.23572c-0.11043,0.09769 -0.20175,0.20599 -0.27395,0.32492c-0.03824,0.06795 -0.07857,0.11043 -0.12105,0.12742c-0.04248,0.01699 -0.08706,0.02548 -0.13378,0.02548c-0.07645,0 -0.14653,-0.02548 -0.21024,-0.07645c-0.05945,-0.05522 -0.0892,-0.1168 -0.0892,-0.18475c0,-0.05945 0.01486,-0.11256 0.0446,-0.15927c0.03398,-0.04672 0.07645,-0.10193 0.12742,-0.16565c0.10618,-0.14441 0.23784,-0.27607 0.395,-0.395c0.16139,-0.11893 0.33553,-0.21448 0.52241,-0.28669c0.19113,-0.07221 0.37801,-0.1083 0.56064,-0.1083c0.32703,0 0.60947,0.06371 0.84733,0.19113c0.24208,0.12742 0.42897,0.30794 0.56064,0.54152c0.13166,0.23359 0.1975,0.50753 0.1975,0.82185c0,0.26759 -0.0807,0.56489 -0.24208,0.89192c-0.16139,0.32279 -0.39924,0.65195 -0.71353,0.98748l-1.33152,1.47167l-0.07645,-0.07645z"/><path d="M307.30746,198.99812c-0.09345,0 -0.172,-0.02974 -0.23572,-0.0892c-0.05945,-0.06371 -0.0892,-0.13802 -0.0892,-0.22298v-4.32581l0.09556,0.10193l-0.86006,0.59886c-0.05097,0.03398 -0.11043,0.05097 -0.17837,0.05097c-0.08495,0 -0.15927,-0.03186 -0.22298,-0.09556c-0.05945,-0.06371 -0.0892,-0.1359 -0.0892,-0.21661c0,-0.11043 0.05522,-0.19963 0.16565,-0.26759l1.2041,-0.79636c0.04248,-0.02548 0.08282,-0.04248 0.12105,-0.05097c0.04248,-0.01274 0.08495,-0.01699 0.12742,-0.01274c0.0892,0 0.15927,0.02974 0.21024,0.0892c0.05522,0.05945 0.08282,0.13166 0.08282,0.21661v4.70807c0,0.08495 -0.03186,0.15927 -0.09556,0.22298c-0.06371,0.05945 -0.14229,0.0892 -0.23572,0.0892z"/></g><g fill="#000000" stroke-width="1" stroke-linecap="square"><path d="M174.75481,219.25403c0.0807,0 0.14866,0.02974 0.20387,0.0892c0.05522,0.05522 0.08282,0.12316 0.08282,0.20387c0,0.0807 -0.0276,0.14866 -0.08281,0.20387c-0.05522,0.05097 -0.12316,0.07645 -0.20387,0.07645h-2.75858c-0.09345,0 -0.16989,-0.02548 -0.22935,-0.07645c-0.05522,-0.05522 -0.08281,-0.12954 -0.08281,-0.22298c0,-0.0807 0.02974,-0.1529 0.0892,-0.21661l1.72014,-1.8794c0.25059,-0.27607 0.4396,-0.53302 0.567,-0.77087c0.13166,-0.24208 0.1975,-0.45657 0.1975,-0.64346c0,-0.31005 -0.09345,-0.55639 -0.28031,-0.73903c-0.18264,-0.18687 -0.42897,-0.28031 -0.73903,-0.28031c-0.1359,0 -0.27182,0.02974 -0.40772,0.0892c-0.1359,0.05522 -0.2612,0.13379 -0.37589,0.23572c-0.11043,0.09769 -0.20175,0.20599 -0.27395,0.32492c-0.03824,0.06795 -0.07857,0.11043 -0.12105,0.12742c-0.04248,0.01699 -0.08706,0.02548 -0.13378,0.02548c-0.07645,0 -0.14653,-0.02548 -0.21024,-0.07645c-0.05945,-0.05522 -0.0892,-0.1168 -0.0892,-0.18475c0,-0.05945 0.01486,-0.11256 0.0446,-0.15927c0.03398,-0.04672 0.07645,-0.10193 0.12742,-0.16565c0.10618,-0.14441 0.23784,-0.27607 0.395,-0.395c0.16139,-0.11893 0.33553,-0.21448 0.52241,-0.28669c0.19113,-0.07221 0.37801,-0.1083 0.56064,-0.1083c0.32703,0 0.60947,0.06371 0.84733,0.19113c0.24208,0.12742 0.42897,0.30794 0.56064,0.54152c0.13166,0.23359 0.1975,0.50753 0.1975,0.82185c0,0.26759 -0.0807,0.56489 -0.24208,0.89192c-0.16139,0.32279 -0.39924,0.65195 -0.71353,0.98748l-1.33152,1.47167l-0.07645,-0.07645z"/><path d="M179.00481,219.25403c0.0807,0 0.14866,0.02974 0.20387,0.0892c0.05522,0.05522 0.08282,0.12316 0.08282,0.20387c0,0.0807 -0.0276,0.14866 -0.08281,0.20387c-0.05522,0.05097 -0.12316,0.07645 -0.20387,0.07645h-2.75858c-0.09345,0 -0.16989,-0.02548 -0.22935,-0.07645c-0.05522,-0.05522 -0.08281,-0.12954 -0.08281,-0.22298c0,-0.0807 0.02974,-0.1529 0.0892,-0.21661l1.72014,-1.8794c0.25059,-0.27607 0.4396,-0.53302 0.567,-0.77087c0.13166,-0.24208 0.1975,-0.45657 0.1975,-0.64346c0,-0.31005 -0.09345,-0.55639 -0.28031,-0.73903c-0.18264,-0.18687 -0.42897,-0.28031 -0.73903,-0.28031c-0.1359,0 -0.27182,0.02974 -0.40772,0.0892c-0.1359,0.05522 -0.2612,0.13379 -0.37589,0.23572c-0.11043,0.09769 -0.20175,0.20599 -0.27395,0.32492c-0.03824,0.06795 -0.07857,0.11043 -0.12105,0.12742c-0.04248,0.01699 -0.08706,0.02548 -0.13378,0.02548c-0.07645,0 -0.14653,-0.02548 -0.21024,-0.07645c-0.05945,-0.05522 -0.0892,-0.1168 -0.0892,-0.18475c0,-0.05945 0.01486,-0.11256 0.0446,-0.15927c0.03398,-0.04672 0.07645,-0.10193 0.12742,-0.16565c0.10618,-0.14441 0.23784,-0.27607 0.395,-0.395c0.16139,-0.11893 0.33553,-0.21448 0.52241,-0.28669c0.19113,-0.07221 0.37801,-0.1083 0.56064,-0.1083c0.32703,0 0.60947,0.06371 0.84733,0.19113c0.24208,0.12742 0.42897,0.30794 0.56064,0.54152c0.13166,0.23359 0.1975,0.50753 0.1975,0.82185c0,0.26759 -0.0807,0.56489 -0.24208,0.89192c-0.16139,0.32279 -0.39924,0.65195 -0.71353,0.98748l-1.33152,1.47167l-0.07645,-0.07645z"/></g><g fill="#000000" stroke-width="1" stroke-linecap="square"><path d="M196.48686,219.08736c0.0807,0 0.14866,0.02974 0.20387,0.0892c0.05522,0.05522 0.08282,0.12316 0.08282,0.20387c0,0.0807 -0.0276,0.14866 -0.08281,0.20387c-0.05522,0.05097 -0.12316,0.07645 -0.20387,0.07645h-2.75858c-0.09345,0 -0.16989,-0.02548 -0.22935,-0.07645c-0.05522,-0.05522 -0.08281,-0.12954 -0.08281,-0.22298c0,-0.0807 0.02974,-0.1529 0.0892,-0.21661l1.72014,-1.8794c0.25059,-0.27607 0.4396,-0.53302 0.567,-0.77087c0.13166,-0.24208 0.1975,-0.45657 0.1975,-0.64346c0,-0.31005 -0.09345,-0.55639 -0.28031,-0.73903c-0.18264,-0.18687 -0.42897,-0.28031 -0.73903,-0.28031c-0.1359,0 -0.27182,0.02974 -0.40772,0.0892c-0.1359,0.05522 -0.2612,0.13379 -0.37589,0.23572c-0.11043,0.09769 -0.20175,0.20599 -0.27395,0.32492c-0.03824,0.06795 -0.07857,0.11043 -0.12105,0.12742c-0.04248,0.01699 -0.08706,0.02548 -0.13378,0.02548c-0.07645,0 -0.14653,-0.02548 -0.21024,-0.07645c-0.05945,-0.05522 -0.0892,-0.1168 -0.0892,-0.18475c0,-0.05945 0.01486,-0.11256 0.0446,-0.15927c0.03398,-0.04672 0.07645,-0.10193 0.12742,-0.16565c0.10618,-0.14441 0.23784,-0.27607 0.395,-0.395c0.16139,-0.11893 0.33553,-0.21448 0.52241,-0.28669c0.19113,-0.07221 0.37801,-0.1083 0.56064,-0.1083c0.32703,0 0.60947,0.06371 0.84733,0.19113c0.24208,0.12742 0.42897,0.30794 0.56064,0.54152c0.13166,0.23359 0.1975,0.50753 0.1975,0.82185c0,0.26759 -0.0807,0.56489 -0.24208,0.89192c-0.16139,0.32279 -0.39924,0.65195 -0.71353,0.98748l-1.33152,1.47167l-0.07645,-0.07645z"/><path d="M197.79987,218.79893c0.02974,0 0.06371,0.00637 0.10193,0.01911c0.03824,0.01274 0.0807,0.04036 0.12742,0.08282c0.10193,0.09345 0.22086,0.16777 0.35677,0.22298c0.1359,0.05522 0.29307,0.08282 0.47144,0.08282c0.21661,0 0.41622,-0.04885 0.59886,-0.14653c0.18264,-0.10193 0.33128,-0.24421 0.44596,-0.42686c0.11468,-0.18264 0.17201,-0.39288 0.17201,-0.63071c0,-0.25909 -0.05735,-0.46932 -0.172,-0.63071c-0.11468,-0.16565 -0.25909,-0.28669 -0.43322,-0.36314c-0.17414,-0.0807 -0.35888,-0.12105 -0.55426,-0.12105c-0.06795,0 -0.13378,0.00424 -0.1975,0.01274c-0.05945,0.00849 -0.1168,0.02124 -0.172,0.03824c-0.05097,0.01699 -0.09981,0.02548 -0.14653,0.02548c-0.0807,0 -0.14441,-0.0276 -0.19113,-0.08281c-0.04248,-0.05945 -0.06371,-0.12954 -0.06371,-0.21024c0,-0.04672 0.00849,-0.08706 0.02548,-0.12105c0.01699,-0.03824 0.0446,-0.0807 0.08282,-0.12742l1.47804,-1.59908l0.12105,0.14653h-2.15972c-0.0807,0 -0.14866,-0.0276 -0.20387,-0.08281c-0.05522,-0.05945 -0.08281,-0.12954 -0.08281,-0.21024c0,-0.0807 0.0276,-0.14653 0.08282,-0.1975c0.05522,-0.05522 0.12316,-0.08281 0.20387,-0.08281h2.47827c0.11468,0 0.19538,0.03186 0.24208,0.09556c0.05097,0.06371 0.07645,0.13379 0.07645,0.21024c0,0.04672 -0.01061,0.09132 -0.03186,0.13379c-0.02124,0.03824 -0.05097,0.07433 -0.0892,0.1083l-1.47166,1.60546l-0.17837,-0.1529c0.02548,-0.02124 0.08282,-0.04036 0.17201,-0.05735c0.09345,-0.01699 0.17201,-0.02548 0.23572,-0.02548c0.28031,0 0.5394,0.07007 0.77724,0.21024c0.24208,0.1359 0.43322,0.32916 0.57338,0.57975c0.14441,0.24634 0.21661,0.53302 0.21661,0.86006c0,0.36527 -0.08495,0.6838 -0.25484,0.95562c-0.16565,0.26759 -0.395,0.4757 -0.68804,0.62434c-0.29307,0.14441 -0.62223,0.21661 -0.98747,0.21661c-0.19963,0 -0.39711,-0.03186 -0.5925,-0.09556c-0.19538,-0.06371 -0.36527,-0.15715 -0.50967,-0.28031c-0.06371,-0.03398 -0.1083,-0.07221 -0.13378,-0.11468c-0.02124,-0.04672 -0.03186,-0.09345 -0.03186,-0.14017c0,-0.07645 0.02974,-0.15078 0.0892,-0.22298c0.05945,-0.07221 0.13166,-0.1083 0.21661,-0.1083z"/></g><g fill="#000000" stroke-width="1" stroke-linecap="square"><path d="M217.95921,218.9207c0.0807,0 0.14866,0.02974 0.20387,0.0892c0.05522,0.05522 0.08282,0.12316 0.08282,0.20387c0,0.0807 -0.0276,0.14866 -0.08281,0.20387c-0.05522,0.05097 -0.12316,0.07645 -0.20387,0.07645h-2.75858c-0.09345,0 -0.16989,-0.02548 -0.22935,-0.07645c-0.05522,-0.05522 -0.08281,-0.12954 -0.08281,-0.22298c0,-0.0807 0.02974,-0.1529 0.0892,-0.21661l1.72014,-1.8794c0.25059,-0.27607 0.4396,-0.53302 0.567,-0.77087c0.13166,-0.24208 0.1975,-0.45657 0.1975,-0.64346c0,-0.31005 -0.09345,-0.55639 -0.28031,-0.73903c-0.18264,-0.18687 -0.42897,-0.28031 -0.73903,-0.28031c-0.1359,0 -0.27182,0.02974 -0.40772,0.0892c-0.1359,0.05522 -0.2612,0.13379 -0.37589,0.23572c-0.11043,0.09769 -0.20175,0.20599 -0.27395,0.32492c-0.03824,0.06795 -0.07857,0.11043 -0.12105,0.12742c-0.04248,0.01699 -0.08706,0.02548 -0.13378,0.02548c-0.07645,0 -0.14653,-0.02548 -0.21024,-0.07645c-0.05945,-0.05522 -0.0892,-0.1168 -0.0892,-0.18475c0,-0.05945 0.01486,-0.11256 0.0446,-0.15927c0.03398,-0.04672 0.07645,-0.10193 0.12742,-0.16565c0.10618,-0.14441 0.23784,-0.27607 0.395,-0.395c0.16139,-0.11893 0.33553,-0.21448 0.52241,-0.28669c0.19113,-0.07221 0.37801,-0.1083 0.56064,-0.1083c0.32703,0 0.60947,0.06371 0.84733,0.19113c0.24208,0.12742 0.42897,0.30794 0.56064,0.54152c0.13166,0.23359 0.1975,0.50753 0.1975,0.82185c0,0.26759 -0.0807,0.56489 -0.24208,0.89192c-0.16139,0.32279 -0.39924,0.65195 -0.71353,0.98748l-1.33152,1.47167l-0.07645,-0.07645z"/><path d="M221.33882,219.54158c-0.0892,0 -0.16351,-0.02974 -0.22298,-0.0892c-0.05522,-0.06371 -0.08281,-0.13802 -0.08281,-0.22298v-4.16018l0.12105,0.0446l-1.8157,2.37633l-0.03186,-0.09556h2.84779c0.0807,0 0.14866,0.02974 0.20387,0.0892c0.05522,0.05522 0.08282,0.12316 0.08282,0.20387c0,0.07645 -0.0276,0.14229 -0.08281,0.1975c-0.05522,0.05097 -0.12316,0.07645 -0.20387,0.07645h-3.26825c-0.07645,0 -0.14653,-0.02974 -0.21024,-0.0892c-0.05945,-0.06371 -0.0892,-0.1359 -0.0892,-0.21661c0,-0.07645 0.02336,-0.14229 0.07007,-0.1975l2.4273,-3.12173c0.03824,-0.04248 0.07857,-0.07221 0.12105,-0.0892c0.04672,-0.02124 0.09345,-0.03186 0.14017,-0.03186c0.08495,0 0.15502,0.02974 0.21024,0.0892c0.05945,0.05945 0.0892,0.13166 0.0892,0.21661v4.70807c0,0.08495 -0.02974,0.15927 -0.0892,0.22298c-0.05945,0.05945 -0.13166,0.0892 -0.21661,0.0892z"/></g><g fill="#000000" stroke-width="1" stroke-linecap="square"><path d="M239.57798,218.90845c0.0807,0 0.14866,0.02974 0.20387,0.0892c0.05522,0.05522 0.08282,0.12316 0.08282,0.20387c0,0.0807 -0.0276,0.14866 -0.08281,0.20387c-0.05522,0.05097 -0.12316,0.07645 -0.20387,0.07645h-2.75858c-0.09345,0 -0.16989,-0.02548 -0.22935,-0.07645c-0.05522,-0.05522 -0.08281,-0.12954 -0.08281,-0.22298c0,-0.0807 0.02974,-0.1529 0.0892,-0.21661l1.72014,-1.8794c0.25059,-0.27607 0.4396,-0.53302 0.567,-0.77087c0.13166,-0.24208 0.1975,-0.45657 0.1975,-0.64346c0,-0.31005 -0.09345,-0.55639 -0.28031,-0.73903c-0.18264,-0.18687 -0.42897,-0.28031 -0.73903,-0.28031c-0.1359,0 -0.27182,0.02974 -0.40772,0.0892c-0.1359,0.05522 -0.2612,0.13379 -0.37589,0.23572c-0.11043,0.09769 -0.20175,0.20599 -0.27395,0.32492c-0.03824,0.06795 -0.07857,0.11043 -0.12105,0.12742c-0.04248,0.01699 -0.08706,0.02548 -0.13378,0.02548c-0.07645,0 -0.14653,-0.02548 -0.21024,-0.07645c-0.05945,-0.05522 -0.0892,-0.1168 -0.0892,-0.18475c0,-0.05945 0.01486,-0.11256 0.0446,-0.15927c0.03398,-0.04672 0.07645,-0.10193 0.12742,-0.16565c0.10618,-0.14441 0.23784,-0.27607 0.395,-0.395c0.16139,-0.11893 0.33553,-0.21448 0.52241,-0.28669c0.19113,-0.07221 0.37801,-0.1083 0.56064,-0.1083c0.32703,0 0.60947,0.06371 0.84733,0.19113c0.24208,0.12742 0.42897,0.30794 0.56064,0.54152c0.13166,0.23359 0.1975,0.50753 0.1975,0.82185c0,0.26759 -0.0807,0.56489 -0.24208,0.89192c-0.16139,0.32279 -0.39924,0.65195 -0.71353,0.98748l-1.33152,1.47167l-0.07645,-0.07645z"/><path d="M241.89594,219.58497c-0.20387,0 -0.41199,-0.03186 -0.62434,-0.09556c-0.20812,-0.06371 -0.39074,-0.15927 -0.54789,-0.28669c-0.03824,-0.03398 -0.07007,-0.07857 -0.09556,-0.13378c-0.02548,-0.05945 -0.03824,-0.11256 -0.03824,-0.15927c0,-0.06371 0.02548,-0.12316 0.07645,-0.17837c0.05522,-0.05945 0.12529,-0.0892 0.21024,-0.0892c0.06795,0 0.14441,0.03186 0.22935,0.09556c0.11043,0.0892 0.23359,0.15927 0.36951,0.21024c0.14017,0.04672 0.27819,0.07007 0.41409,0.07007c0.28457,0 0.53091,-0.05308 0.73903,-0.15927c0.20812,-0.10618 0.36739,-0.25484 0.47781,-0.44596c0.11043,-0.19113 0.16565,-0.41622 0.16565,-0.67531c0,-0.23359 -0.05308,-0.43747 -0.15927,-0.61161c-0.10193,-0.17837 -0.24634,-0.31429 -0.43322,-0.40772c-0.18264,-0.09769 -0.39288,-0.14653 -0.63071,-0.14653c-0.17837,0 -0.33765,0.0276 -0.47781,0.08282c-0.14017,0.05097 -0.26333,0.10406 -0.36951,0.15927c-0.10193,0.05522 -0.18899,0.08282 -0.2612,0.08282c-0.09769,0 -0.172,-0.02124 -0.22298,-0.06371c-0.05097,-0.04248 -0.08495,-0.09556 -0.10193,-0.15927c-0.01274,-0.06795 -0.01699,-0.12954 -0.01274,-0.18475l0.29943,-1.96859c0.01274,-0.06795 0.04672,-0.12742 0.10193,-0.17837c0.05522,-0.05097 0.12529,-0.07645 0.21024,-0.07645h2.2553c0.0807,0 0.14866,0.0276 0.20387,0.08282c0.05945,0.05522 0.0892,0.12742 0.0892,0.21661c0,0.0807 -0.02974,0.14866 -0.0892,0.20387c-0.05522,0.05097 -0.12316,0.07645 -0.20387,0.07645h-2.10876l0.07645,-0.07007l-0.28031,1.72014l-0.12105,-0.15927c0.05522,-0.05097 0.14017,-0.10193 0.25484,-0.1529c0.11468,-0.05097 0.24634,-0.09345 0.395,-0.12742c0.14866,-0.03824 0.30156,-0.05735 0.4587,-0.05735c0.33128,0 0.62646,0.07645 0.88555,0.22935c0.26333,0.14866 0.47144,0.35251 0.62434,0.61161c0.1529,0.25909 0.22935,0.55426 0.22935,0.88555c0,0.37375 -0.08281,0.7008 -0.24845,0.98111c-0.16139,0.27607 -0.39074,0.49267 -0.68804,0.64983c-0.2973,0.1529 -0.64771,0.22935 -1.05119,0.22935z"/></g><g fill="#000000" stroke-width="1" stroke-linecap="square"><path d="M260.95921,218.85706c0.0807,0 0.14866,0.02974 0.20387,0.0892c0.05522,0.05522 0.08282,0.12316 0.08282,0.20387c0,0.0807 -0.0276,0.14866 -0.08281,0.20387c-0.05522,0.05097 -0.12316,0.07645 -0.20387,0.07645h-2.75858c-0.09345,0 -0.16989,-0.02548 -0.22935,-0.07645c-0.05522,-0.05522 -0.08281,-0.12954 -0.08281,-0.22298c0,-0.0807 0.02974,-0.1529 0.0892,-0.21661l1.72014,-1.8794c0.25059,-0.27607 0.4396,-0.53302 0.567,-0.77087c0.13166,-0.24208 0.1975,-0.45657 0.1975,-0.64346c0,-0.31005 -0.09345,-0.55639 -0.28031,-0.73903c-0.18264,-0.18687 -0.42897,-0.28031 -0.73903,-0.28031c-0.1359,0 -0.27182,0.02974 -0.40772,0.0892c-0.1359,0.05522 -0.2612,0.13379 -0.37589,0.23572c-0.11043,0.09769 -0.20175,0.20599 -0.27395,0.32492c-0.03824,0.06795 -0.07857,0.11043 -0.12105,0.12742c-0.04248,0.01699 -0.08706,0.02548 -0.13378,0.02548c-0.07645,0 -0.14653,-0.02548 -0.21024,-0.07645c-0.05945,-0.05522 -0.0892,-0.1168 -0.0892,-0.18475c0,-0.05945 0.01486,-0.11256 0.0446,-0.15927c0.03398,-0.04672 0.07645,-0.10193 0.12742,-0.16565c0.10618,-0.14441 0.23784,-0.27607 0.395,-0.395c0.16139,-0.11893 0.33553,-0.21448 0.52241,-0.28669c0.19113,-0.07221 0.37801,-0.1083 0.56064,-0.1083c0.32703,0 0.60947,0.06371 0.84733,0.19113c0.24208,0.12742 0.42897,0.30794 0.56064,0.54152c0.13166,0.23359 0.1975,0.50753 0.1975,0.82185c0,0.26759 -0.0807,0.56489 -0.24208,0.89192c-0.16139,0.32279 -0.39924,0.65195 -0.71353,0.98748l-1.33152,1.47167l-0.07645,-0.07645z"/><path d="M263.2326,219.60193c-0.2888,0 -0.54365,-0.05308 -0.76451,-0.15927c-0.22086,-0.11043 -0.4056,-0.25909 -0.55426,-0.44596c-0.14866,-0.19113 -0.2612,-0.40349 -0.33765,-0.63708c-0.07221,-0.23359 -0.1083,-0.47358 -0.1083,-0.7199c0,-0.21661 0.0276,-0.4587 0.08282,-0.72628c0.05522,-0.27182 0.14017,-0.54789 0.25484,-0.82822c0.11468,-0.28457 0.26333,-0.55426 0.44596,-0.8091c0.18264,-0.25909 0.39924,-0.49055 0.64983,-0.69442c0.25484,-0.20812 0.54789,-0.36739 0.87918,-0.47781c0.04248,-0.01274 0.08282,-0.01911 0.12105,-0.01911c0.0807,0 0.1529,0.02336 0.21661,0.07007c0.06371,0.04248 0.09556,0.11893 0.09556,0.22935c0,0.07221 -0.02336,0.1359 -0.07007,0.19113c-0.04672,0.05097 -0.1083,0.0892 -0.18475,0.11468c-0.19963,0.07645 -0.39711,0.18687 -0.5925,0.33128c-0.19538,0.14441 -0.37589,0.31429 -0.54152,0.50967c-0.16565,0.19538 -0.30794,0.4056 -0.42686,0.63072c-0.11893,0.2251 -0.20175,0.4587 -0.24845,0.7008l-0.18475,0.06371c0.0892,-0.14017 0.19963,-0.2697 0.33128,-0.38862c0.13166,-0.12316 0.28457,-0.22298 0.4587,-0.29943c0.17414,-0.07645 0.36527,-0.11468 0.57338,-0.11468c0.2251,0 0.43322,0.04885 0.62434,0.14653c0.19113,0.09769 0.36101,0.22722 0.50967,0.38862c0.14866,0.16139 0.26333,0.34828 0.34403,0.56064c0.08495,0.20812 0.12742,0.42686 0.12742,0.6562c0,0.31005 -0.07433,0.59673 -0.22298,0.86006c-0.14866,0.25909 -0.35251,0.46932 -0.61161,0.63072c-0.25484,0.15715 -0.54365,0.23572 -0.86644,0.23572zM263.21988,219.02855c0.20812,0 0.395,-0.04885 0.56064,-0.14653c0.16565,-0.09769 0.29518,-0.23359 0.38862,-0.40772c0.09769,-0.17837 0.14653,-0.37801 0.14653,-0.59886c0,-0.20812 -0.04248,-0.40136 -0.12742,-0.57974c-0.08495,-0.17837 -0.20812,-0.32067 -0.36951,-0.42686c-0.15715,-0.11043 -0.34828,-0.16565 -0.57338,-0.16565c-0.23784,0 -0.44384,0.05308 -0.61796,0.15927c-0.16989,0.10618 -0.30156,0.25059 -0.395,0.43322c-0.09345,0.17837 -0.14017,0.37589 -0.14017,0.5925c0,0.20387 0.0446,0.39288 0.13379,0.567c0.09345,0.16989 0.2251,0.30794 0.395,0.41409c0.16989,0.10618 0.36951,0.15927 0.59886,0.15927z"/></g><g fill="#000000" stroke-width="1" stroke-linecap="square"><path d="M282.47454,218.8179c0.0807,0 0.14866,0.02974 0.20387,0.0892c0.05522,0.05522 0.08282,0.12316 0.08282,0.20387c0,0.0807 -0.0276,0.14866 -0.08281,0.20387c-0.05522,0.05097 -0.12316,0.07645 -0.20387,0.07645h-2.75858c-0.09345,0 -0.16989,-0.02548 -0.22935,-0.07645c-0.05522,-0.05522 -0.08281,-0.12954 -0.08281,-0.22298c0,-0.0807 0.02974,-0.1529 0.0892,-0.21661l1.72014,-1.8794c0.25059,-0.27607 0.4396,-0.53302 0.567,-0.77087c0.13166,-0.24208 0.1975,-0.45657 0.1975,-0.64346c0,-0.31005 -0.09345,-0.55639 -0.28031,-0.73903c-0.18264,-0.18687 -0.42897,-0.28031 -0.73903,-0.28031c-0.1359,0 -0.27182,0.02974 -0.40772,0.0892c-0.1359,0.05522 -0.2612,0.13379 -0.37589,0.23572c-0.11043,0.09769 -0.20175,0.20599 -0.27395,0.32492c-0.03824,0.06795 -0.07857,0.11043 -0.12105,0.12742c-0.04248,0.01699 -0.08706,0.02548 -0.13378,0.02548c-0.07645,0 -0.14653,-0.02548 -0.21024,-0.07645c-0.05945,-0.05522 -0.0892,-0.1168 -0.0892,-0.18475c0,-0.05945 0.01486,-0.11256 0.0446,-0.15927c0.03398,-0.04672 0.07645,-0.10193 0.12742,-0.16565c0.10618,-0.14441 0.23784,-0.27607 0.395,-0.395c0.16139,-0.11893 0.33553,-0.21448 0.52241,-0.28669c0.19113,-0.07221 0.37801,-0.1083 0.56064,-0.1083c0.32703,0 0.60947,0.06371 0.84733,0.19113c0.24208,0.12742 0.42897,0.30794 0.56064,0.54152c0.13166,0.23359 0.1975,0.50753 0.1975,0.82185c0,0.26759 -0.0807,0.56489 -0.24208,0.89192c-0.16139,0.32279 -0.39924,0.65195 -0.71353,0.98748l-1.33152,1.47167l-0.07645,-0.07645z"/><path d="M284.39628,219.3689c-0.0807,0 -0.1529,-0.02548 -0.21661,-0.07645c-0.06371,-0.05522 -0.09556,-0.12742 -0.09556,-0.21661c0,-0.04672 0.01061,-0.09132 0.03186,-0.13378l1.96222,-4.45323l0.0892,0.14017h-2.44641c-0.0807,0 -0.15078,-0.02548 -0.21024,-0.07645c-0.05522,-0.05522 -0.08281,-0.12742 -0.08281,-0.21661c0,-0.0807 0.0276,-0.14653 0.08282,-0.1975c0.05945,-0.05522 0.12954,-0.08281 0.21024,-0.08281h2.74584c0.0892,0 0.16351,0.0276 0.22298,0.08282c0.05945,0.05522 0.0892,0.12742 0.0892,0.21661c0,0.04248 -0.01061,0.08706 -0.03186,0.13379l-2.06415,4.68895c-0.02548,0.05945 -0.06584,0.10618 -0.12105,0.14017c-0.05097,0.03398 -0.10618,0.05097 -0.16565,0.05097z"/></g><g fill="#000000" stroke-width="1" stroke-linecap="square"><path d="M304.4509,218.66719c0.0807,0 0.14866,0.02974 0.20387,0.0892c0.05522,0.05522 0.08282,0.12316 0.08282,0.20387c0,0.0807 -0.0276,0.14866 -0.08281,0.20387c-0.05522,0.05097 -0.12316,0.07645 -0.20387,0.07645h-2.75858c-0.09345,0 -0.16989,-0.02548 -0.22935,-0.07645c-0.05522,-0.05522 -0.08281,-0.12954 -0.08281,-0.22298c0,-0.0807 0.02974,-0.1529 0.0892,-0.21661l1.72014,-1.8794c0.25059,-0.27607 0.4396,-0.53302 0.567,-0.77087c0.13166,-0.24208 0.1975,-0.45657 0.1975,-0.64346c0,-0.31005 -0.09345,-0.55639 -0.28031,-0.73903c-0.18264,-0.18687 -0.42897,-0.28031 -0.73903,-0.28031c-0.1359,0 -0.27182,0.02974 -0.40772,0.0892c-0.1359,0.05522 -0.2612,0.13379 -0.37589,0.23572c-0.11043,0.09769 -0.20175,0.20599 -0.27395,0.32492c-0.03824,0.06795 -0.07857,0.11043 -0.12105,0.12742c-0.04248,0.01699 -0.08706,0.02548 -0.13378,0.02548c-0.07645,0 -0.14653,-0.02548 -0.21024,-0.07645c-0.05945,-0.05522 -0.0892,-0.1168 -0.0892,-0.18475c0,-0.05945 0.01486,-0.11256 0.0446,-0.15927c0.03398,-0.04672 0.07645,-0.10193 0.12742,-0.16565c0.10618,-0.14441 0.23784,-0.27607 0.395,-0.395c0.16139,-0.11893 0.33553,-0.21448 0.52241,-0.28669c0.19113,-0.07221 0.37801,-0.1083 0.56064,-0.1083c0.32703,0 0.60947,0.06371 0.84733,0.19113c0.24208,0.12742 0.42897,0.30794 0.56064,0.54152c0.13166,0.23359 0.1975,0.50753 0.1975,0.82185c0,0.26759 -0.0807,0.56489 -0.24208,0.89192c-0.16139,0.32279 -0.39924,0.65195 -0.71353,0.98748l-1.33152,1.47167l-0.07645,-0.07645z"/><path d="M307.64704,216.70101l-0.01274,-0.1083c0.17414,0.07645 0.33128,0.1805 0.47144,0.31218c0.14441,0.13166 0.25909,0.28244 0.34403,0.45233c0.08495,0.16989 0.12742,0.35251 0.12742,0.54789c0,0.27607 -0.07645,0.52879 -0.22935,0.75813c-0.14866,0.22935 -0.3504,0.41409 -0.60523,0.55426c-0.25484,0.1359 -0.5394,0.20387 -0.85368,0.20387c-0.31429,0 -0.59886,-0.06795 -0.85368,-0.20387c-0.25484,-0.14017 -0.45657,-0.32492 -0.60523,-0.55426c-0.14866,-0.22935 -0.22298,-0.48207 -0.22298,-0.75813c0,-0.2251 0.04672,-0.42472 0.14017,-0.59886c0.09345,-0.17414 0.21236,-0.32067 0.35677,-0.43959c0.14441,-0.12316 0.29518,-0.22086 0.45233,-0.29307l-0.03824,0.12742c-0.13166,-0.05945 -0.25696,-0.14229 -0.37589,-0.24845c-0.11893,-0.11043 -0.21661,-0.24208 -0.29307,-0.395c-0.07645,-0.15715 -0.11468,-0.33341 -0.11468,-0.52879c0,-0.27607 0.06795,-0.52453 0.20387,-0.74538c0.1359,-0.2251 0.32279,-0.40136 0.56064,-0.52879c0.24208,-0.13166 0.50542,-0.1975 0.78998,-0.1975c0.2888,0 0.54789,0.06584 0.77724,0.1975c0.23359,0.12742 0.42048,0.30367 0.56064,0.52879c0.14017,0.22086 0.21024,0.46932 0.21024,0.74538c0,0.20812 -0.04036,0.38862 -0.12105,0.54152c-0.0807,0.1529 -0.1805,0.28244 -0.29943,0.38862c-0.11893,0.10193 -0.24208,0.18264 -0.36951,0.24208zM305.95241,215.53515c0,0.18264 0.04036,0.3419 0.12105,0.47781c0.08495,0.1359 0.19963,0.24421 0.34403,0.32492c0.14441,0.07645 0.30156,0.11468 0.47144,0.11468c0.16989,0 0.32492,-0.03824 0.46507,-0.11468c0.14017,-0.0807 0.25272,-0.18899 0.33765,-0.32492c0.08495,-0.1359 0.12742,-0.29518 0.12742,-0.47781c0,-0.26333 -0.08706,-0.47994 -0.2612,-0.64983c-0.17414,-0.16989 -0.39711,-0.25484 -0.66893,-0.25484c-0.27607,0 -0.50117,0.08495 -0.67531,0.25484c-0.17414,0.16989 -0.2612,0.3865 -0.2612,0.64983zM306.88892,218.848c0.31429,0 0.57125,-0.09132 0.77087,-0.27395c0.19963,-0.18264 0.29943,-0.40772 0.29943,-0.67531c0,-0.18687 -0.04885,-0.35251 -0.14653,-0.49693c-0.09345,-0.14441 -0.22298,-0.25696 -0.38862,-0.33765c-0.16139,-0.08495 -0.33978,-0.12742 -0.53516,-0.12742c-0.19538,0 -0.37375,0.04248 -0.53516,0.12742c-0.16139,0.0807 -0.29094,0.19324 -0.38862,0.33765c-0.09769,0.14441 -0.14653,0.31005 -0.14653,0.49693c0,0.26759 0.09981,0.49267 0.29943,0.67531c0.20387,0.18264 0.46082,0.27396 0.77087,0.27396z"/></g><g fill="#000000" stroke-width="1" stroke-linecap="square"><path d="M174.83814,240.1676c0.0807,0 0.14866,0.02974 0.20387,0.0892c0.05522,0.05522 0.08282,0.12316 0.08282,0.20387c0,0.0807 -0.0276,0.14866 -0.08281,0.20387c-0.05522,0.05097 -0.12316,0.07645 -0.20387,0.07645h-2.75858c-0.09345,0 -0.16989,-0.02548 -0.22935,-0.07645c-0.05522,-0.05522 -0.08281,-0.12954 -0.08281,-0.22298c0,-0.0807 0.02974,-0.1529 0.0892,-0.21661l1.72014,-1.8794c0.25059,-0.27607 0.4396,-0.53302 0.567,-0.77087c0.13166,-0.24208 0.1975,-0.45657 0.1975,-0.64346c0,-0.31005 -0.09345,-0.55639 -0.28031,-0.73903c-0.18264,-0.18687 -0.42897,-0.28031 -0.73903,-0.28031c-0.1359,0 -0.27182,0.02974 -0.40772,0.0892c-0.1359,0.05522 -0.2612,0.13379 -0.37589,0.23572c-0.11043,0.09769 -0.20175,0.20599 -0.27395,0.32492c-0.03824,0.06795 -0.07857,0.11043 -0.12105,0.12742c-0.04248,0.01699 -0.08706,0.02548 -0.13378,0.02548c-0.07645,0 -0.14653,-0.02548 -0.21024,-0.07645c-0.05945,-0.05522 -0.0892,-0.1168 -0.0892,-0.18475c0,-0.05945 0.01486,-0.11256 0.0446,-0.15927c0.03398,-0.04672 0.07645,-0.10193 0.12742,-0.16565c0.10618,-0.14441 0.23784,-0.27607 0.395,-0.395c0.16139,-0.11893 0.33553,-0.21448 0.52241,-0.28669c0.19113,-0.07221 0.37801,-0.1083 0.56064,-0.1083c0.32703,0 0.60947,0.06371 0.84733,0.19113c0.24208,0.12742 0.42897,0.30794 0.56064,0.54152c0.13166,0.23359 0.1975,0.50753 0.1975,0.82185c0,0.26759 -0.0807,0.56489 -0.24208,0.89192c-0.16139,0.32279 -0.39924,0.65195 -0.71353,0.98748l-1.33152,1.47167l-0.07645,-0.07645z"/><path d="M177.45167,235.32541c0.2888,0 0.54365,0.05522 0.76451,0.16565c0.22086,0.10618 0.40349,0.25484 0.54789,0.44596c0.14866,0.18687 0.26121,0.39711 0.33765,0.63072c0.07645,0.22935 0.11468,0.46932 0.11468,0.71991c0,0.21661 -0.0276,0.46082 -0.08281,0.73265c-0.05522,0.26759 -0.14017,0.54152 -0.25484,0.82185c-0.11468,0.27607 -0.26333,0.54365 -0.44596,0.80273c-0.18264,0.25484 -0.40136,0.48418 -0.6562,0.68804c-0.25059,0.19963 -0.54152,0.35677 -0.87282,0.47144c-0.04672,0.01274 -0.08706,0.01911 -0.12105,0.01911c-0.0807,0 -0.1529,-0.02548 -0.21661,-0.07645c-0.06371,-0.05097 -0.09556,-0.12742 -0.09556,-0.22935c0,-0.06795 0.02336,-0.12742 0.07007,-0.17837c0.04672,-0.05522 0.1083,-0.09556 0.18475,-0.12105c0.27182,-0.10193 0.53302,-0.2612 0.78361,-0.47781c0.25059,-0.21661 0.4672,-0.46932 0.64983,-0.75813c0.18687,-0.29307 0.31218,-0.59886 0.37589,-0.9174l0.17837,-0.06371c-0.0807,0.1359 -0.18687,0.26546 -0.31854,0.38862c-0.13166,0.11893 -0.28457,0.21661 -0.4587,0.29307c-0.17414,0.07221 -0.36739,0.1083 -0.57974,0.1083c-0.33128,0 -0.61585,-0.07857 -0.85368,-0.23572c-0.23784,-0.15715 -0.4226,-0.36739 -0.55426,-0.63071c-0.13166,-0.26333 -0.1975,-0.55426 -0.1975,-0.87282c0,-0.31005 0.07433,-0.59462 0.22298,-0.85368c0.14866,-0.26333 0.35251,-0.47358 0.61161,-0.63071c0.25909,-0.16139 0.54789,-0.24208 0.86644,-0.24208zM177.45804,235.89241c-0.20812,0 -0.395,0.05097 -0.56064,0.1529c-0.16139,0.09769 -0.29094,0.23359 -0.38862,0.40772c-0.09769,0.17414 -0.14653,0.37375 -0.14653,0.59886c0,0.21236 0.04248,0.40772 0.12742,0.58613c0.08495,0.17837 0.20599,0.32067 0.36315,0.42686c0.16139,0.10193 0.35677,0.1529 0.58613,0.1529c0.23784,0 0.4417,-0.05308 0.61161,-0.15927c0.17414,-0.11043 0.30794,-0.25484 0.40137,-0.43322c0.09345,-0.17837 0.14017,-0.37375 0.14017,-0.58613c0,-0.20812 -0.04672,-0.39711 -0.14017,-0.567c-0.0892,-0.16989 -0.21874,-0.30794 -0.38862,-0.41409c-0.16989,-0.11043 -0.37164,-0.16565 -0.60523,-0.16565z"/></g><g fill="#000000" stroke-width="1" stroke-linecap="square"><path d="M199.08237,240.60323c-0.42048,0 -0.77087,-0.11893 -1.05119,-0.35677c-0.28031,-0.23784 -0.49267,-0.56489 -0.63708,-0.98111c-0.14441,-0.41622 -0.21661,-0.88344 -0.21661,-1.40159c0,-0.52666 0.07221,-0.99597 0.21661,-1.40796c0.14441,-0.41199 0.35677,-0.73689 0.63708,-0.97475c0.28031,-0.23784 0.63072,-0.35677 1.05119,-0.35677c0.42048,0 0.77087,0.11893 1.05119,0.35677c0.28457,0.23784 0.49693,0.56276 0.63708,0.97476c0.14441,0.41199 0.21661,0.88131 0.21661,1.40796c0,0.51817 -0.07221,0.98537 -0.21661,1.40159c-0.14017,0.41622 -0.35251,0.74326 -0.63708,0.98111c-0.28031,0.23784 -0.63071,0.35677 -1.05119,0.35677zM199.08237,239.98525c0.27182,0 0.49905,-0.08495 0.68168,-0.25484c0.18687,-0.17414 0.32703,-0.41836 0.42048,-0.73265c0.09769,-0.31854 0.14653,-0.69655 0.14653,-1.13401c0,-0.4417 -0.04885,-0.81972 -0.14653,-1.13401c-0.09345,-0.31854 -0.23359,-0.56276 -0.42048,-0.73265c-0.18264,-0.16989 -0.40986,-0.25484 -0.68168,-0.25484c-0.26759,0 -0.49481,0.08495 -0.68168,0.25484c-0.18264,0.16989 -0.32492,0.41409 -0.42686,0.73265c-0.09769,0.31429 -0.14653,0.69229 -0.14653,1.13401c0,0.43747 0.04885,0.81547 0.14653,1.13401c0.10193,0.31429 0.24421,0.55851 0.42686,0.73265c0.18687,0.16989 0.41409,0.25484 0.68168,0.25484z"/><path d="M193.71654,239.54584c0.02974,0 0.06371,0.00637 0.10193,0.01911c0.03824,0.01274 0.0807,0.04036 0.12742,0.08282c0.10193,0.09345 0.22086,0.16777 0.35677,0.22298c0.1359,0.05522 0.29307,0.08282 0.47144,0.08282c0.21661,0 0.41622,-0.04885 0.59886,-0.14653c0.18264,-0.10193 0.33128,-0.24421 0.44596,-0.42686c0.11468,-0.18264 0.17201,-0.39288 0.17201,-0.63071c0,-0.25909 -0.05735,-0.46932 -0.172,-0.63071c-0.11468,-0.16565 -0.25909,-0.28669 -0.43322,-0.36314c-0.17414,-0.0807 -0.35888,-0.12105 -0.55426,-0.12105c-0.06795,0 -0.13378,0.00424 -0.1975,0.01274c-0.05945,0.00849 -0.1168,0.02124 -0.172,0.03824c-0.05097,0.01699 -0.09981,0.02548 -0.14653,0.02548c-0.0807,0 -0.14441,-0.0276 -0.19113,-0.08281c-0.04248,-0.05945 -0.06371,-0.12954 -0.06371,-0.21024c0,-0.04672 0.00849,-0.08706 0.02548,-0.12105c0.01699,-0.03824 0.0446,-0.0807 0.08282,-0.12742l1.47804,-1.59908l0.12105,0.14653h-2.15972c-0.0807,0 -0.14866,-0.0276 -0.20387,-0.08281c-0.05522,-0.05945 -0.08281,-0.12954 -0.08281,-0.21024c0,-0.0807 0.0276,-0.14653 0.08282,-0.1975c0.05522,-0.05522 0.12316,-0.08281 0.20387,-0.08281h2.47827c0.11468,0 0.19538,0.03186 0.24208,0.09556c0.05097,0.06371 0.07645,0.13379 0.07645,0.21024c0,0.04672 -0.01061,0.09132 -0.03186,0.13379c-0.02124,0.03824 -0.05097,0.07433 -0.0892,0.1083l-1.47166,1.60546l-0.17837,-0.1529c0.02548,-0.02124 0.08282,-0.04036 0.17201,-0.05735c0.09345,-0.01699 0.17201,-0.02548 0.23572,-0.02548c0.28031,0 0.5394,0.07007 0.77724,0.21024c0.24208,0.1359 0.43322,0.32916 0.57338,0.57975c0.14441,0.24634 0.21661,0.53302 0.21661,0.86006c0,0.36527 -0.08495,0.6838 -0.25484,0.95562c-0.16565,0.26759 -0.395,0.4757 -0.68804,0.62434c-0.29307,0.14441 -0.62223,0.21661 -0.98747,0.21661c-0.19963,0 -0.39711,-0.03186 -0.5925,-0.09556c-0.19538,-0.06371 -0.36527,-0.15715 -0.50967,-0.28031c-0.06371,-0.03398 -0.1083,-0.07221 -0.13378,-0.11468c-0.02124,-0.04672 -0.03186,-0.09345 -0.03186,-0.14017c0,-0.07645 0.02974,-0.15078 0.0892,-0.22298c0.05945,-0.07221 0.13166,-0.1083 0.21661,-0.1083z"/></g><g fill="#000000" stroke-width="1" stroke-linecap="square"><path d="M215.43889,239.54584c0.02974,0 0.06371,0.00637 0.10193,0.01911c0.03824,0.01274 0.0807,0.04036 0.12742,0.08282c0.10193,0.09345 0.22086,0.16777 0.35677,0.22298c0.1359,0.05522 0.29307,0.08282 0.47144,0.08282c0.21661,0 0.41622,-0.04885 0.59886,-0.14653c0.18264,-0.10193 0.33128,-0.24421 0.44596,-0.42686c0.11468,-0.18264 0.17201,-0.39288 0.17201,-0.63071c0,-0.25909 -0.05735,-0.46932 -0.172,-0.63071c-0.11468,-0.16565 -0.25909,-0.28669 -0.43322,-0.36314c-0.17414,-0.0807 -0.35888,-0.12105 -0.55426,-0.12105c-0.06795,0 -0.13378,0.00424 -0.1975,0.01274c-0.05945,0.00849 -0.1168,0.02124 -0.172,0.03824c-0.05097,0.01699 -0.09981,0.02548 -0.14653,0.02548c-0.0807,0 -0.14441,-0.0276 -0.19113,-0.08281c-0.04248,-0.05945 -0.06371,-0.12954 -0.06371,-0.21024c0,-0.04672 0.00849,-0.08706 0.02548,-0.12105c0.01699,-0.03824 0.0446,-0.0807 0.08282,-0.12742l1.47804,-1.59908l0.12105,0.14653h-2.15972c-0.0807,0 -0.14866,-0.0276 -0.20387,-0.08281c-0.05522,-0.05945 -0.08281,-0.12954 -0.08281,-0.21024c0,-0.0807 0.0276,-0.14653 0.08282,-0.1975c0.05522,-0.05522 0.12316,-0.08281 0.20387,-0.08281h2.47827c0.11468,0 0.19538,0.03186 0.24208,0.09556c0.05097,0.06371 0.07645,0.13379 0.07645,0.21024c0,0.04672 -0.01061,0.09132 -0.03186,0.13379c-0.02124,0.03824 -0.05097,0.07433 -0.0892,0.1083l-1.47166,1.60546l-0.17837,-0.1529c0.02548,-0.02124 0.08282,-0.04036 0.17201,-0.05735c0.09345,-0.01699 0.17201,-0.02548 0.23572,-0.02548c0.28031,0 0.5394,0.07007 0.77724,0.21024c0.24208,0.1359 0.43322,0.32916 0.57338,0.57975c0.14441,0.24634 0.21661,0.53302 0.21661,0.86006c0,0.36527 -0.08495,0.6838 -0.25484,0.95562c-0.16565,0.26759 -0.395,0.4757 -0.68804,0.62434c-0.29307,0.14441 -0.62223,0.21661 -0.98747,0.21661c-0.19963,0 -0.39711,-0.03186 -0.5925,-0.09556c-0.19538,-0.06371 -0.36527,-0.15715 -0.50967,-0.28031c-0.06371,-0.03398 -0.1083,-0.07221 -0.13378,-0.11468c-0.02124,-0.04672 -0.03186,-0.09345 -0.03186,-0.14017c0,-0.07645 0.02974,-0.15078 0.0892,-0.22298c0.05945,-0.07221 0.13166,-0.1083 0.21661,-0.1083z"/><path d="M220.64912,240.38388c-0.09345,0 -0.172,-0.02974 -0.23572,-0.0892c-0.05945,-0.06371 -0.0892,-0.13802 -0.0892,-0.22298v-4.32581l0.09556,0.10193l-0.86006,0.59886c-0.05097,0.03398 -0.11043,0.05097 -0.17837,0.05097c-0.08495,0 -0.15927,-0.03186 -0.22298,-0.09556c-0.05945,-0.06371 -0.0892,-0.1359 -0.0892,-0.21661c0,-0.11043 0.05522,-0.19963 0.16565,-0.26759l1.2041,-0.79636c0.04248,-0.02548 0.08282,-0.04248 0.12105,-0.05097c0.04248,-0.01274 0.08495,-0.01699 0.12742,-0.01274c0.0892,0 0.15927,0.02974 0.21024,0.0892c0.05522,0.05945 0.08282,0.13166 0.08282,0.21661v4.70807c0,0.08495 -0.03186,0.15927 -0.09556,0.22298c-0.06371,0.05945 -0.14229,0.0892 -0.23572,0.0892z"/></g><path d="M240.62249,240.50554c-0.09841,0 -0.18116,-0.03131 -0.24825,-0.09393c-0.06262,-0.0671 -0.09393,-0.14537 -0.09393,-0.23484v-4.55581l0.10064,0.10735l-0.90579,0.6307c-0.05368,0.03579 -0.1163,0.05368 -0.18787,0.05368c-0.08946,0 -0.16774,-0.03355 -0.23484,-0.10064c-0.06262,-0.0671 -0.09393,-0.14314 -0.09393,-0.22813c0,-0.1163 0.05815,-0.21023 0.17445,-0.2818l1.26811,-0.8387c0.04473,-0.02684 0.08722,-0.04473 0.12748,-0.05368c0.04473,-0.01342 0.08946,-0.01789 0.13419,-0.01342c0.09393,0 0.16774,0.03131 0.22142,0.09393c0.05815,0.06262 0.08722,0.13866 0.08722,0.22813v4.95839c0,0.08946 -0.03355,0.16774 -0.10064,0.23484c-0.0671,0.06262 -0.14985,0.09393 -0.24825,0.09393z" fill="#b7b7b7" stroke-width="1" stroke-linecap="square"/><path d="M262.81321,239.18655c0.07944,0 0.14632,0.02927 0.20068,0.0878c0.05435,0.05435 0.08153,0.12124 0.08153,0.20068c0,0.07944 -0.02718,0.14632 -0.08152,0.20068c-0.05435,0.05017 -0.12124,0.07526 -0.20068,0.07526h-2.71539c-0.09198,0 -0.16723,-0.02509 -0.22576,-0.07526c-0.05435,-0.05435 -0.08152,-0.12751 -0.08152,-0.21949c0,-0.07944 0.02927,-0.1505 0.0878,-0.21322l1.69321,-1.84998c0.24666,-0.27174 0.43271,-0.52468 0.55813,-0.75881c0.12961,-0.2383 0.19441,-0.44943 0.19441,-0.63338c0,-0.3052 -0.09198,-0.54768 -0.27593,-0.72745c-0.17977,-0.18395 -0.42226,-0.27593 -0.72745,-0.27593c-0.13378,0 -0.26757,0.02927 -0.40135,0.0878c-0.13378,0.05435 -0.25711,0.1317 -0.37,0.23203c-0.1087,0.09615 -0.19859,0.20277 -0.26965,0.31983c-0.03763,0.06689 -0.07735,0.1087 -0.11915,0.12542c-0.04181,0.01672 -0.0857,0.02509 -0.13169,0.02509c-0.07526,0 -0.14424,-0.02509 -0.20695,-0.07526c-0.05853,-0.05435 -0.0878,-0.11497 -0.0878,-0.18186c0,-0.05853 0.01463,-0.11079 0.0439,-0.15678c0.03345,-0.04599 0.07526,-0.10034 0.12542,-0.16305c0.10452,-0.14215 0.23412,-0.27174 0.38881,-0.38881c0.15887,-0.11707 0.33028,-0.21113 0.51423,-0.2822c0.18813,-0.07107 0.37209,-0.10661 0.55186,-0.10661c0.32191,0 0.59994,0.06271 0.83406,0.18813c0.2383,0.12542 0.42226,0.30311 0.55186,0.53305c0.12961,0.22994 0.19441,0.4996 0.19441,0.80898c0,0.26339 -0.07944,0.55604 -0.2383,0.87796c-0.15887,0.31774 -0.39299,0.64175 -0.70237,0.97203l-1.31066,1.44863l-0.07526,-0.07526z" fill="#b7b7b7" stroke-width="1" stroke-linecap="square"/><path d="M282.00712,238.49449c0.02958,0 0.06336,0.00634 0.10138,0.01901c0.03802,0.01267 0.08026,0.04014 0.12673,0.08238c0.10138,0.09294 0.21966,0.16685 0.35483,0.22177c0.13517,0.05492 0.29147,0.08238 0.46889,0.08238c0.21543,0 0.41396,-0.04858 0.5956,-0.14574c0.18164,-0.10138 0.32949,-0.24289 0.44354,-0.42453c0.11405,-0.18164 0.17108,-0.39074 0.17108,-0.62729c0,-0.25767 -0.05703,-0.46677 -0.17108,-0.62729c-0.11405,-0.16475 -0.25767,-0.28513 -0.43087,-0.36116c-0.17319,-0.08026 -0.35694,-0.12039 -0.55126,-0.12039c-0.06759,0 -0.13305,0.00422 -0.19642,0.01267c-0.05914,0.00844 -0.11617,0.02113 -0.17108,0.03802c-0.05069,0.0169 -0.09926,0.02535 -0.14574,0.02535c-0.08026,0 -0.14362,-0.02746 -0.19009,-0.08237c-0.04224,-0.05914 -0.06336,-0.12884 -0.06336,-0.2091c0,-0.04646 0.00844,-0.08659 0.02535,-0.12039c0.0169,-0.03802 0.04436,-0.08026 0.08238,-0.12673l1.47001,-1.5904l0.12039,0.14574h-2.14799c-0.08026,0 -0.14784,-0.02746 -0.20276,-0.08237c-0.05492,-0.05914 -0.08237,-0.12884 -0.08237,-0.2091c0,-0.08026 0.02746,-0.14574 0.08238,-0.19642c0.05492,-0.05492 0.1225,-0.08237 0.20276,-0.08237h2.4648c0.11405,0 0.19432,0.03168 0.24077,0.09504c0.05069,0.06336 0.07604,0.13306 0.07604,0.2091c0,0.04646 -0.01056,0.09082 -0.03168,0.13306c-0.02113,0.03802 -0.05069,0.07393 -0.08871,0.10772l-1.46367,1.59673l-0.17741,-0.15206c0.02535,-0.02113 0.08238,-0.04014 0.17108,-0.05703c0.09294,-0.0169 0.17108,-0.02535 0.23444,-0.02535c0.27879,0 0.53648,0.0697 0.77302,0.2091c0.24077,0.13517 0.43087,0.32737 0.57027,0.5766c0.14362,0.245 0.21543,0.53013 0.21543,0.85539c0,0.36328 -0.08448,0.68009 -0.25345,0.95044c-0.16475,0.26613 -0.39285,0.47312 -0.68431,0.62095c-0.29147,0.14362 -0.61884,0.21543 -0.98211,0.21543c-0.19854,0 -0.39496,-0.03168 -0.58928,-0.09504c-0.19432,-0.06336 -0.36328,-0.1563 -0.5069,-0.27879c-0.06336,-0.03379 -0.10772,-0.07181 -0.13305,-0.11405c-0.02113,-0.04646 -0.03168,-0.09294 -0.03168,-0.1394c0,-0.07604 0.02958,-0.14996 0.08871,-0.22177c0.05914,-0.07181 0.13095,-0.10772 0.21543,-0.10772z" fill="#b7b7b7" stroke-width="1" stroke-linecap="square"/><path d="M305.68505,239.08922c-0.08809,0 -0.16151,-0.02937 -0.22024,-0.08809c-0.05454,-0.06292 -0.0818,-0.13634 -0.0818,-0.22024v-4.10899l0.11956,0.04405l-1.79336,2.34709l-0.03146,-0.09439h2.81275c0.07971,0 0.14682,0.02937 0.20136,0.08809c0.05454,0.05454 0.08181,0.12165 0.08181,0.20136c0,0.07552 -0.02727,0.14053 -0.0818,0.19506c-0.05454,0.05034 -0.12165,0.07552 -0.20136,0.07552h-3.22804c-0.07552,0 -0.14473,-0.02938 -0.20765,-0.0881c-0.05873,-0.06292 -0.08809,-0.13424 -0.08809,-0.21394c0,-0.07552 0.02307,-0.14053 0.06922,-0.19506l2.39743,-3.08332c0.03776,-0.04195 0.0776,-0.07131 0.11956,-0.08809c0.04614,-0.02098 0.09229,-0.03146 0.13844,-0.03146c0.0839,0 0.15312,0.02937 0.20765,0.08809c0.05873,0.05873 0.08809,0.13004 0.08809,0.21394v4.65014c0,0.0839 -0.02937,0.15731 -0.08809,0.22024c-0.05873,0.05873 -0.13004,0.08809 -0.21394,0.08809z" fill="#b7b7b7" stroke-width="1" stroke-linecap="square"/></g></g></svg>