<svg version="1.1" xmlns="http://www.w3.org/2000/svg" xmlns:xlink="http://www.w3.org/1999/xlink" width="27.55668" height="26.97714" viewBox="0,0,27.55668,26.97714"><defs><linearGradient x1="325.79752" y1="413.22321" x2="325.79752" y2="396.77673" gradientUnits="userSpaceOnUse" id="color-1"><stop offset="0" stop-color="#c3ffe8"/><stop offset="0.9973" stop-color="#f0fff4"/></linearGradient><linearGradient x1="325.99999" y1="395.1933" x2="325.99999" y2="414.80661" gradientUnits="userSpaceOnUse" id="color-2"><stop offset="0" stop-color="#00b59c"/><stop offset="1" stop-color="#9cffac"/></linearGradient></defs><g transform="translate(-312.22166,-391.51143)"><g data-paper-data="{&quot;isPaintingLayer&quot;:true}" stroke="none" stroke-width="1" stroke-linejoin="miter" stroke-miterlimit="10" stroke-dasharray="" stroke-dashoffset="0" style="mix-blend-mode: normal"><path d="M312.22166,395.26369c0,-2.07232 1.71603,-3.75226 3.83287,-3.75226h19.89096c1.01653,0 1.99144,0.39533 2.71025,1.09901c0.71879,0.70368 1.1226,1.65808 1.1226,2.65324v19.47263c0,2.07232 -1.71602,3.75226 -3.83285,3.75226h-19.89096c-2.11684,0 -3.83287,-1.67994 -3.83287,-3.75226z" fill-opacity="0.00784" fill="#3d3d3d" fill-rule="evenodd" stroke-linecap="square"/><g fill-rule="nonzero" stroke-linecap="butt"><path d="M318.72163,404.99996c0,-4.54157 3.16799,-8.22324 7.07589,-8.22324c3.9079,0 7.07589,3.68166 7.07589,8.22324c0,4.54157 -3.16798,8.22324 -7.07589,8.22324c-3.9079,0 -7.07589,-3.68166 -7.07589,-8.22324z" fill="url(#color-1)"/><path d="M328.89483,405.03528c0,1.59615 -1.29871,2.89487 -2.89487,2.89487c-1.59615,0 -2.89487,-1.29877 -2.89487,-2.89487c0,-1.59608 1.29871,-2.89486 2.89487,-2.89486c1.59615,0 2.89487,1.29871 2.89487,2.89486zM327.56723,404.04703c-0.22613,-0.22613 -0.59256,-0.22613 -0.81869,0l-1.32754,1.32753l-0.16962,-0.16963c-0.22613,-0.22613 -0.59256,-0.22613 -0.81869,0c-0.22613,0.22613 -0.22613,0.59256 0,0.81869l0.57898,0.57898c0.11308,0.11314 0.2612,0.16963 0.40934,0.16963c0.14814,0 0.29628,-0.05656 0.40935,-0.16963l1.73694,-1.73694c0.22613,-0.22613 0.22609,-0.59248 -0.00007,-0.81864zM333.5267,398.92216v6.89512c0,5.45672 -3.91208,7.6499 -7.32031,8.95147c-0.06618,0.02545 -0.13626,0.03787 -0.2064,0.03787c-0.07014,0 -0.14021,-0.01239 -0.20639,-0.03787c-3.4083,-1.30157 -7.32031,-3.49474 -7.32031,-8.95147v-6.89512c0,-0.32004 0.259,-0.57898 0.57898,-0.57898c3.20477,0 6.5259,-2.97064 6.5593,-3.00057c0.22049,-0.19898 0.55639,-0.19898 0.77687,0c0.0334,0.02993 3.35459,3.00057 6.5593,3.00057c0.31999,0 0.57891,0.25893 0.57898,0.57898zM330.05279,405.03528c0,-2.2345 -1.81833,-4.05282 -4.05282,-4.05282c-2.2345,0 -4.05282,1.81831 -4.05282,4.05282c0,2.2345 1.81833,4.05282 4.05282,4.05282c2.2345,0 4.05282,-1.81833 4.05282,-4.05282z" fill="url(#color-2)"/></g></g></g></svg>