<svg version="1.1" xmlns="http://www.w3.org/2000/svg" xmlns:xlink="http://www.w3.org/1999/xlink" width="16.973" height="28.946" viewBox="0,0,16.973,28.946"><g transform="translate(-240.363,-151.931)"><g data-paper-data="{&quot;isPaintingLayer&quot;:true}" fill="#ffffff" fill-rule="nonzero" stroke="none" stroke-width="1" stroke-linecap="butt" stroke-linejoin="miter" stroke-miterlimit="10" stroke-dasharray="" stroke-dashoffset="0" style="mix-blend-mode: normal"><path d="M240.363,179.275v-3.867c0.443,0.39 0.974,0.742 1.592,1.055c0.619,0.312 1.27,0.576 1.953,0.791c0.684,0.214 1.371,0.38 2.061,0.498c0.69,0.117 1.328,0.175 1.914,0.175c2.018,0 3.525,-0.374 4.521,-1.123c0.996,-0.748 1.494,-1.826 1.494,-3.232c0,-0.755 -0.166,-1.413 -0.498,-1.973c-0.332,-0.56 -0.791,-1.071 -1.377,-1.533c-0.586,-0.462 -1.279,-0.905 -2.08,-1.328c-0.8,-0.423 -1.663,-0.869 -2.588,-1.338c-0.976,-0.495 -1.888,-0.996 -2.734,-1.504c-0.846,-0.508 -1.582,-1.068 -2.207,-1.68c-0.625,-0.612 -1.116,-1.305 -1.475,-2.08c-0.358,-0.774 -0.537,-1.683 -0.537,-2.724c0,-1.276 0.28,-2.386 0.84,-3.33c0.56,-0.944 1.296,-1.722 2.207,-2.334c0.912,-0.612 1.95,-1.068 3.115,-1.368c1.166,-0.299 2.354,-0.449 3.565,-0.449c2.76,0 4.772,0.332 6.035,0.996v3.692c-1.654,-1.146 -3.776,-1.719 -6.367,-1.719c-0.716,0 -1.432,0.075 -2.149,0.225c-0.716,0.149 -1.354,0.394 -1.914,0.732c-0.56,0.339 -1.015,0.775 -1.367,1.309c-0.351,0.534 -0.527,1.185 -0.527,1.953c0,0.716 0.133,1.334 0.4,1.855c0.267,0.521 0.661,0.996 1.182,1.426c0.521,0.43 1.155,0.846 1.904,1.25c0.749,0.404 1.611,0.846 2.588,1.328c1.003,0.495 1.953,1.016 2.852,1.563c0.898,0.547 1.686,1.152 2.363,1.816c0.677,0.664 1.214,1.4 1.611,2.207c0.397,0.807 0.596,1.732 0.596,2.774c0,1.38 -0.27,2.548 -0.811,3.505c-0.54,0.957 -1.269,1.735 -2.187,2.334c-0.918,0.599 -1.976,1.032 -3.174,1.299c-1.198,0.267 -2.461,0.401 -3.789,0.401c-0.443,0 -0.99,-0.036 -1.641,-0.108c-0.651,-0.071 -1.315,-0.176 -1.992,-0.312c-0.677,-0.137 -1.318,-0.306 -1.924,-0.508c-0.605,-0.202 -1.09,-0.427 -1.455,-0.674z"/></g></g></svg>