<svg version="1.1" xmlns="http://www.w3.org/2000/svg" xmlns:xlink="http://www.w3.org/1999/xlink" width="96.48073" height="15.60766" viewBox="0,0,96.48073,15.60766"><g transform="translate(-247.86959,-245.42889)"><g data-paper-data="{&quot;isPaintingLayer&quot;:true}" fill-rule="nonzero" stroke="none" stroke-linejoin="miter" stroke-miterlimit="10" stroke-dasharray="" stroke-dashoffset="0" style="mix-blend-mode: normal"><path d="M247.86959,261.03655v-15.60766h96.48073v15.60766z" fill="#ffffff" stroke-width="0" stroke-linecap="butt"/><path d="M259.34681,252.23776c-0.02756,-0.23622 -0.13779,-0.41929 -0.33071,-0.54921c-0.19291,-0.13386 -0.437,-0.20079 -0.73228,-0.20079c-0.20866,0 -0.38976,0.03346 -0.5433,0.10039c-0.15354,0.06299 -0.27362,0.15354 -0.36023,0.27165c-0.08268,0.11417 -0.12401,0.24212 -0.12401,0.38386c0,0.12205 0.02756,0.22834 0.08268,0.3189c0.05905,0.08661 0.13583,0.15945 0.23031,0.2185c0.09449,0.05905 0.19488,0.10827 0.30118,0.14764c0.11023,0.03937 0.21653,0.07283 0.3189,0.10039l0.50196,0.12992c0.16142,0.03937 0.32677,0.09449 0.49606,0.16535c0.17323,0.06693 0.33268,0.15748 0.47834,0.27165c0.14961,0.11023 0.26968,0.24803 0.36023,0.41338c0.09055,0.16142 0.13583,0.35826 0.13583,0.59055c0,0.29134 -0.0748,0.54921 -0.22441,0.77362c-0.14961,0.22441 -0.36614,0.40157 -0.6496,0.53149c-0.27953,0.12992 -0.62007,0.19488 -1.02165,0.19488c-0.38582,0 -0.7185,-0.05905 -0.99802,-0.17716c-0.27953,-0.12205 -0.5,-0.29527 -0.66141,-0.51968c-0.15748,-0.22834 -0.24409,-0.49606 -0.25984,-0.80314h0.77952c0.01181,0.18504 0.07087,0.33858 0.17716,0.46063c0.1063,0.12205 0.24212,0.21457 0.40748,0.27756c0.16929,0.05905 0.35236,0.08858 0.54921,0.08858c0.22047,0 0.41535,-0.03543 0.58464,-0.1063c0.16929,-0.07087 0.30315,-0.16732 0.40157,-0.28937c0.10236,-0.12598 0.15354,-0.27165 0.15354,-0.437c0,-0.15354 -0.04331,-0.27756 -0.12992,-0.37204c-0.08661,-0.09842 -0.20275,-0.17913 -0.34842,-0.24212c-0.14567,-0.06299 -0.31102,-0.12008 -0.49606,-0.17126l-0.60826,-0.16535c-0.40945,-0.11023 -0.73425,-0.27362 -0.9744,-0.49015c-0.24015,-0.21653 -0.36023,-0.50393 -0.36023,-0.8622c0,-0.29527 0.08071,-0.55314 0.24212,-0.77362c0.16142,-0.22047 0.37795,-0.39173 0.6496,-0.51378c0.27559,-0.12205 0.58464,-0.18307 0.92716,-0.18307c0.34645,0 0.65354,0.06102 0.92125,0.18307c0.26772,0.12205 0.47834,0.28937 0.63188,0.50196c0.15354,0.2126 0.23228,0.45669 0.23622,0.73228zM262.68522,256.09403c-0.37795,0 -0.70472,-0.08071 -0.98031,-0.24212c-0.27165,-0.16535 -0.48228,-0.39567 -0.63188,-0.69094c-0.14567,-0.29527 -0.2185,-0.64173 -0.2185,-1.03936c0,-0.3937 0.07283,-0.74015 0.2185,-1.03936c0.14961,-0.30315 0.3563,-0.53937 0.62007,-0.70866c0.26772,-0.16929 0.5807,-0.25394 0.93897,-0.25394c0.21653,0 0.42716,0.0374 0.63188,0.1122c0.20472,0.07087 0.38779,0.18307 0.54921,0.33661c0.16142,0.15354 0.2874,0.35236 0.37795,0.59645c0.09449,0.24409 0.14173,0.54133 0.14173,0.89173v0.26575h-3.05313v-0.56102h2.32085c0,-0.19685 -0.04134,-0.37204 -0.12401,-0.52559c-0.07874,-0.15354 -0.19094,-0.27362 -0.33661,-0.36023c-0.14173,-0.09055 -0.30905,-0.13583 -0.50196,-0.13583c-0.2126,0 -0.39764,0.05118 -0.55511,0.15354c-0.15354,0.10236 -0.27362,0.23622 -0.36023,0.40157c-0.08268,0.16535 -0.12401,0.34252 -0.12401,0.53149v0.44291c0,0.2559 0.04527,0.47441 0.13583,0.65551c0.09449,0.1811 0.22244,0.3189 0.38386,0.41338c0.16535,0.09055 0.3563,0.13583 0.57283,0.13583c0.14173,0 0.27165,-0.01969 0.38976,-0.05905c0.11811,-0.03937 0.2185,-0.10039 0.30118,-0.18307c0.08661,-0.08268 0.15157,-0.18307 0.19488,-0.30118l0.70866,0.12401c-0.05512,0.20866 -0.15551,0.39173 -0.30118,0.54921c-0.14567,0.15354 -0.32874,0.27362 -0.54921,0.36023c-0.22047,0.08661 -0.47047,0.12992 -0.74999,0.12992zM266.96263,252.1728v0.59645h-2.10235v-0.59645zM265.42721,251.25155h0.74999v3.63777c0,0.14567 0.02165,0.2559 0.06496,0.33071c0.04331,0.07087 0.09842,0.12008 0.16535,0.14764c0.07087,0.02362 0.14764,0.03543 0.23031,0.03543c0.05905,0 0.11023,-0.00394 0.15354,-0.01181c0.04724,-0.01181 0.08268,-0.01969 0.1063,-0.02362l0.13583,0.62007c-0.04331,0.01575 -0.1063,0.0315 -0.18897,0.04724c-0.07874,0.01969 -0.17716,0.02953 -0.29527,0.02953c-0.19685,0.00394 -0.38189,-0.02953 -0.55511,-0.10039c-0.16929,-0.0748 -0.30708,-0.18897 -0.41338,-0.34252c-0.10236,-0.15354 -0.15354,-0.34645 -0.15354,-0.57874zM269.5843,252.1728v0.59645h-2.10235v-0.59645zM268.04888,251.25155h0.74999v3.63777c0,0.14567 0.02165,0.2559 0.06496,0.33071c0.04331,0.07087 0.09842,0.12008 0.16535,0.14764c0.07087,0.02362 0.14764,0.03543 0.23031,0.03543c0.05905,0 0.11023,-0.00394 0.15354,-0.01181c0.04724,-0.01181 0.08268,-0.01969 0.1063,-0.02362l0.13583,0.62007c-0.04331,0.01575 -0.1063,0.0315 -0.18897,0.04724c-0.07874,0.01969 -0.17716,0.02953 -0.29527,0.02953c-0.19685,0.00394 -0.38189,-0.02953 -0.55511,-0.10039c-0.16929,-0.0748 -0.30708,-0.18897 -0.41338,-0.34252c-0.10236,-0.15354 -0.15354,-0.34645 -0.15354,-0.57874zM270.41071,256.01726v-3.84446h0.74999v3.84446zM270.78866,251.57635c-0.12992,0 -0.24212,-0.04331 -0.33661,-0.12992c-0.09055,-0.08661 -0.13583,-0.19094 -0.13583,-0.31299c0,-0.12598 0.04527,-0.23228 0.13583,-0.3189c0.09449,-0.08661 0.20669,-0.12992 0.33661,-0.12992c0.12992,0 0.24015,0.04331 0.33071,0.12992c0.09449,0.08661 0.14173,0.19291 0.14173,0.3189c0,0.12205 -0.04724,0.22638 -0.14173,0.31299c-0.09055,0.08661 -0.20079,0.12992 -0.33071,0.12992zM272.91599,253.73185v2.28542h-0.74999v-3.84446h0.72047v0.62598h0.04724c0.08661,-0.20472 0.22441,-0.36811 0.41338,-0.49015c0.19291,-0.12598 0.43307,-0.18897 0.72047,-0.18897c0.26378,0 0.49409,0.05512 0.69094,0.16535c0.19685,0.11023 0.34842,0.27362 0.45472,0.49015c0.11023,0.2126 0.16535,0.47834 0.16535,0.79724v2.44486h-0.74999v-2.35628c0,-0.27953 -0.07283,-0.49803 -0.2185,-0.65551c-0.14567,-0.15748 -0.34449,-0.23622 -0.59645,-0.23622c-0.17323,0 -0.32874,0.0374 -0.46653,0.1122c-0.13386,0.0748 -0.24015,0.18504 -0.3189,0.33071c-0.0748,0.14567 -0.1122,0.3189 -0.1122,0.51968zM277.98989,257.54087c-0.30315,0 -0.56496,-0.04134 -0.78543,-0.12401c-0.22047,-0.07874 -0.3996,-0.18504 -0.5374,-0.3189c-0.13779,-0.12992 -0.24212,-0.27362 -0.31299,-0.4311l0.6437,-0.26575c0.04724,0.0748 0.10827,0.15354 0.18307,0.23622c0.0748,0.08268 0.17716,0.15354 0.30708,0.2126c0.13386,0.05905 0.30512,0.08858 0.51378,0.08858c0.28346,0 0.51771,-0.0689 0.70275,-0.20669c0.18504,-0.13779 0.27756,-0.35826 0.27756,-0.66141v-0.7559h-0.04724c-0.04724,0.08268 -0.11417,0.17519 -0.20079,0.27756c-0.08268,0.09842 -0.19685,0.18504 -0.34252,0.25984c-0.14567,0.07087 -0.33661,0.1063 -0.57283,0.1063c-0.30315,0 -0.57677,-0.07087 -0.82086,-0.2126c-0.24409,-0.14173 -0.437,-0.35236 -0.57874,-0.63188c-0.13779,-0.27953 -0.20669,-0.62401 -0.20669,-1.03346c0,-0.40945 0.0689,-0.75984 0.20669,-1.05117c0.14173,-0.29134 0.33268,-0.51574 0.57283,-0.67322c0.24409,-0.15748 0.52165,-0.23622 0.83267,-0.23622c0.24015,0 0.43307,0.04134 0.57874,0.12401c0.14567,0.07874 0.25984,0.17126 0.34252,0.27756c0.08268,0.10236 0.14764,0.19291 0.19488,0.27165h0.05315v-0.62007h0.73228v3.92713c0,0.33071 -0.07677,0.60236 -0.23031,0.81495c-0.15354,0.2126 -0.3622,0.37008 -0.62598,0.47244c-0.25984,0.10236 -0.55314,0.15354 -0.87991,0.15354zM277.98398,255.33813c0.21653,0 0.3996,-0.04921 0.54921,-0.14764c0.14961,-0.10236 0.26181,-0.24803 0.33661,-0.437c0.07874,-0.18897 0.11811,-0.41732 0.11811,-0.68503c0,-0.25984 -0.03937,-0.48818 -0.11811,-0.68503c-0.0748,-0.19685 -0.18701,-0.35039 -0.33661,-0.46063c-0.14567,-0.11023 -0.32874,-0.16535 -0.54921,-0.16535c-0.22441,0 -0.41338,0.05905 -0.56692,0.17716c-0.14961,0.11417 -0.26181,0.27165 -0.33661,0.47244c-0.0748,0.19685 -0.1122,0.41732 -0.1122,0.66141c0,0.25197 0.0374,0.47441 0.1122,0.66732c0.07874,0.18897 0.19291,0.33661 0.34252,0.44291c0.15354,0.1063 0.34055,0.15945 0.56102,0.15945zM283.61149,253.11177l-0.67913,0.11811c-0.02756,-0.08661 -0.07283,-0.16929 -0.13583,-0.24803c-0.05905,-0.07874 -0.13976,-0.14173 -0.24212,-0.18897c-0.10236,-0.05118 -0.23228,-0.07677 -0.38976,-0.07677c-0.2126,0 -0.38976,0.04724 -0.53149,0.14173c-0.14173,0.09449 -0.2126,0.21457 -0.2126,0.36023c0,0.12992 0.04724,0.23425 0.14173,0.31299c0.09842,0.07874 0.25197,0.1437 0.46063,0.19488l0.61417,0.13583c0.35433,0.08268 0.6181,0.21063 0.79133,0.38386c0.17323,0.16929 0.25984,0.38976 0.25984,0.66141c0,0.22834 -0.06693,0.43307 -0.20079,0.61417c-0.12992,0.17716 -0.31299,0.31693 -0.54921,0.41929c-0.23622,0.10236 -0.50984,0.15354 -0.82086,0.15354c-0.43307,0 -0.78543,-0.09252 -1.05708,-0.27756c-0.27165,-0.18504 -0.43897,-0.44685 -0.50196,-0.78543l0.72637,-0.1122c0.04331,0.18897 0.13583,0.33268 0.27756,0.4311c0.14173,0.09449 0.3248,0.14173 0.54921,0.14173c0.24409,0 0.43897,-0.05118 0.58464,-0.15354c0.14961,-0.10236 0.22441,-0.22834 0.22441,-0.37795c0,-0.11811 -0.04527,-0.2185 -0.13583,-0.30118c-0.09055,-0.08268 -0.22638,-0.14567 -0.40748,-0.18897l-0.6496,-0.14173c-0.3622,-0.08268 -0.62992,-0.2126 -0.80314,-0.38976c-0.16929,-0.17716 -0.25394,-0.40354 -0.25394,-0.67913c0,-0.22834 0.06299,-0.42716 0.18897,-0.59645c0.12992,-0.16929 0.30708,-0.30118 0.53149,-0.39567c0.22441,-0.09842 0.48031,-0.14764 0.76771,-0.14764c0.41338,0 0.74015,0.09055 0.98031,0.27165c0.24015,0.17716 0.39764,0.41732 0.47244,0.72047z" fill="#000000" stroke-width="1" stroke-linecap="square"/></g></g></svg>