<svg version="1.1" xmlns="http://www.w3.org/2000/svg" xmlns:xlink="http://www.w3.org/1999/xlink" width="243.65526" height="137.93871" viewBox="0,0,243.65526,137.93871"><g transform="translate(-27.7266,-87.77604)"><g data-paper-data="{&quot;isPaintingLayer&quot;:true}" fill-rule="nonzero" stroke-miterlimit="10" stroke-dasharray="" stroke-dashoffset="0" style="mix-blend-mode: normal"><path d="M216.90853,213.23115c0,0 0,-5.07133 0,-6.41933c0,-13.66414 0,-57.53577 0,-57.53577h45.97334c0,0 0,23.382 0,39.59888c0,5.18074 0,9.63025 0,12.35249c0,5.40453 0,12.00369 0,12.00369z" fill="#ffffff" stroke="#ffffff" stroke-width="17" stroke-linecap="round" stroke-linejoin="round"/><text transform="translate(234.00665,162.30839) scale(0.54437,0.54437)" font-size="24" xml:space="preserve" fill="#000000" fill-rule="nonzero" stroke="#000000" stroke-width="0" stroke-linecap="butt" stroke-linejoin="miter" stroke-miterlimit="10" stroke-dasharray="" stroke-dashoffset="0" font-family="Segoe UI" font-weight="bold" text-anchor="start" style="mix-blend-mode: normal"><tspan x="0" dy="0">80º</tspan></text><text transform="translate(234.11775,168.18926) scale(0.21993,0.21993)" font-size="24" xml:space="preserve" fill="#000000" fill-rule="nonzero" stroke="#000000" stroke-width="0" stroke-linecap="butt" stroke-linejoin="miter" stroke-miterlimit="10" stroke-dasharray="" stroke-dashoffset="0" font-family="Segoe UI" font-weight="bold" text-anchor="start" style="mix-blend-mode: normal"><tspan x="0" dy="0">Partly Cloudy</tspan></text><path d="M216.33709,206.77401c0,0 0,-2.12608 0,-2.69121c0,-5.72849 0,-24.12103 0,-24.12103h19.27365c0,0 0,9.80256 0,16.60125c0,2.17195 0,4.03734 0,5.1786c0,2.26577 0,5.03237 0,5.03237z" fill="#f9f9f9" stroke="#fbfbfb" stroke-width="6" stroke-linecap="round" stroke-linejoin="round"/><text transform="translate(215.97174,183.17501) scale(0.17091,0.17091)" font-size="24" xml:space="preserve" fill="#000000" fill-rule="nonzero" stroke="#000000" stroke-width="0" stroke-linecap="butt" stroke-linejoin="miter" stroke-miterlimit="10" stroke-dasharray="" stroke-dashoffset="0" font-family="Segoe UI" font-weight="bold" text-anchor="start" style="mix-blend-mode: normal"><tspan x="0" dy="0">Tomorrow</tspan></text><path d="M244.00377,206.77401c0,0 0,-2.12608 0,-2.69121c0,-5.7285 0,-24.12103 0,-24.12103h19.27365c0,0 0,9.80256 0,16.60124c0,2.17195 0,4.03734 0,5.1786c0,2.26577 0,5.03237 0,5.03237z" fill="#fbfbfb" stroke="#fbfbfb" stroke-width="6" stroke-linecap="round" stroke-linejoin="round"/><text transform="translate(220.97174,203.00041) scale(0.14225,0.14225)" font-size="24" xml:space="preserve" fill="#000000" fill-rule="nonzero" stroke="#000000" stroke-width="0" stroke-linecap="butt" stroke-linejoin="miter" stroke-miterlimit="10" stroke-dasharray="" stroke-dashoffset="0" font-family="Segoe UI" font-weight="bold" text-anchor="start" style="mix-blend-mode: normal"><tspan x="0" dy="0">Sunny</tspan><tspan x="0" dy="28.799999999999997px"> 82º</tspan></text><text transform="translate(244.74951,183.39723) scale(0.17091,0.17091)" font-size="24" xml:space="preserve" fill="#000000" fill-rule="nonzero" stroke="#000000" stroke-width="0" stroke-linecap="butt" stroke-linejoin="miter" stroke-miterlimit="10" stroke-dasharray="" stroke-dashoffset="0" font-family="Segoe UI" font-weight="bold" text-anchor="start" style="mix-blend-mode: normal"><tspan x="0" dy="0">In 2 days</tspan></text><text transform="translate(248.52728,203.22263) scale(0.14225,0.14225)" font-size="24" xml:space="preserve" fill="#000000" fill-rule="nonzero" stroke="#000000" stroke-width="0" stroke-linecap="butt" stroke-linejoin="miter" stroke-miterlimit="10" stroke-dasharray="" stroke-dashoffset="0" font-family="Segoe UI" font-weight="bold" text-anchor="start" style="mix-blend-mode: normal"><tspan x="0" dy="0">Cloudy</tspan><tspan x="0" dy="28.799999999999997px"> 13º</tspan></text><g stroke="none" stroke-width="1" stroke-linecap="butt" stroke-linejoin="miter"><path d="M213.1845,152.60254h17.65076v14.03045h-17.65076z" fill="#000000" opacity="0"/><path d="M225.60346,159.8393c-0.30374,-0.46385 -0.71602,-0.84662 -1.20112,-1.11514c-0.52896,-0.28874 -1.11538,-0.45647 -1.71701,-0.49113c-0.0901,-0.17061 -0.19332,-0.33393 -0.30875,-0.48853c-0.11021,-0.14624 -0.22944,-0.28546 -0.35696,-0.41687c0.25171,-0.43366 0.61349,-0.79318 1.0487,-1.04219c0.45395,-0.26637 0.97184,-0.40418 1.49815,-0.39864c0.79659,-0.00631 1.56238,0.30734 2.12566,0.87063c0.56329,0.56329 0.87694,1.32908 0.87063,2.12566c0.00467,0.50915 -0.12471,1.01055 -0.37519,1.45386c-0.25053,0.44257 -0.6001,0.82112 -1.02134,1.10602c-0.05763,-0.57165 -0.25056,-1.12136 -0.56279,-1.60367zM220.13715,155.20803c-0.10348,-0.09719 -0.16159,-0.23323 -0.16024,-0.37519c-0.00299,-0.1471 0.05556,-0.28876 0.16153,-0.39081c0.21126,-0.20723 0.54953,-0.20723 0.76079,0l0.88064,0.89368c0.10197,0.09977 0.15727,0.23782 0.15242,0.3804c0.00122,0.14192 -0.05354,0.27858 -0.15242,0.3804c-0.09801,0.1034 -0.23538,0.16024 -0.37779,0.15632c-0.14701,0.00253 -0.28851,-0.05595 -0.39081,-0.16153zM224.56647,154.93444c-0.14337,-0.00012 -0.28005,-0.06065 -0.37649,-0.16675c-0.10187,-0.10034 -0.15914,-0.23742 -0.15894,-0.3804v-1.2402c-0.00137,-0.14398 0.05603,-0.28229 0.15894,-0.383c0.09818,-0.103 0.23421,-0.16136 0.37649,-0.16153c0.14429,-0.00091 0.2825,0.05805 0.3817,0.16285c0.10463,0.09973 0.16316,0.23846 0.16153,0.383v1.2402c0.00088,0.14364 -0.05756,0.28129 -0.16153,0.3804c-0.09906,0.10608 -0.23786,0.16604 -0.383,0.16545zM228.67142,159.26082c-0.10397,-0.09911 -0.16243,-0.23677 -0.16153,-0.3804c0.00068,-0.29865 0.24072,-0.54159 0.53934,-0.54585h1.24671c0.14326,-0.00156 0.28085,0.05591 0.3804,0.15894c0.1057,0.10205 0.16342,0.24397 0.15894,0.39081c-0.00142,0.29727 -0.24206,0.53792 -0.53934,0.53934h-1.24671c-0.14293,-0.00018 -0.27953,-0.05904 -0.37779,-0.16285zM227.35956,156.09649c-0.1021,-0.10137 -0.15773,-0.24047 -0.15372,-0.3843c-0.00391,-0.14242 0.05293,-0.27978 0.15632,-0.37779l0.88716,-0.88716c0.10148,-0.10144 0.23953,-0.15778 0.383,-0.15632c0.14197,-0.00154 0.27842,0.05492 0.37779,0.15632c0.20792,0.21098 0.20792,0.54982 0,0.76079l-0.88326,0.88977c-0.1025,0.10476 -0.24436,0.16149 -0.39081,0.15632c-0.14322,0.00417 -0.28148,-0.05266 -0.3804,-0.15632zM227.35692,162.44861c-0.10285,-0.10394 -0.16005,-0.24459 -0.15894,-0.39081c-0.00451,-0.14381 0.05345,-0.28254 0.15894,-0.3804c0.09968,-0.10209 0.23781,-0.15743 0.3804,-0.15242c0.14192,-0.00122 0.27858,0.05354 0.3804,0.15242l0.88064,0.88064c0.10531,0.09819 0.16403,0.23643 0.16153,0.3804c0.00512,0.1441 -0.0497,0.28386 -0.15141,0.38605c-0.10171,0.1022 -0.24121,0.15769 -0.38532,0.15328c-0.14257,0.00485 -0.28063,-0.05046 -0.3804,-0.15242z" fill="#ffd60a"/><path d="M214.38687,164.62157c-0.3664,-0.18558 -0.67369,-0.46983 -0.88716,-0.82073c-0.46954,-0.83529 -0.41001,-1.86745 0.15242,-2.64325c0.30914,-0.40552 0.74311,-0.69804 1.23499,-0.83245c0.04389,-0.48561 0.17913,-0.95854 0.39864,-1.39392c0.2133,-0.42383 0.50151,-0.8056 0.85068,-1.12686c0.3495,-0.32135 0.7548,-0.57609 1.19592,-0.75168c0.4498,-0.18024 0.93021,-0.27182 1.41477,-0.26966c0.49839,-0.00547 0.99308,0.08613 1.45645,0.26966c0.43446,0.17372 0.83223,0.42785 1.17246,0.74907c0.34167,0.32491 0.62811,0.70332 0.84809,1.12035c0.56759,-0.01006 1.12842,0.12444 1.62973,0.39081c0.46706,0.25007 0.85984,0.61902 1.1386,1.06954c0.28185,0.4593 0.42733,0.98927 0.41949,1.52811c0.00759,0.5377 -0.13254,1.06717 -0.40515,1.53071c-0.54867,0.93335 -1.55818,1.49812 -2.64065,1.4773h-6.65307c-0.45965,0.01052 -0.91492,-0.09145 -1.32618,-0.29702z" fill="#adbaca"/></g><g stroke="none" stroke-width="1" stroke-linecap="butt" stroke-linejoin="miter"><path d="M219.66427,186.96322h11.85429v11.88553h-11.85429z" fill="#000000" opacity="0"/><path d="M226.6663,190.31843c0.33387,0.14341 0.63708,0.34962 0.89318,0.60741c0.25564,0.25758 0.46051,0.56098 0.60394,0.89433c0.29452,0.6911 0.29452,1.47243 0,2.16353c-0.14389,0.33242 -0.34873,0.63497 -0.60394,0.89202c-0.25585,0.25724 -0.55867,0.46304 -0.89202,0.60626c-0.68947,0.29468 -1.46943,0.29468 -2.1589,0c-0.33332,-0.14453 -0.63665,-0.35015 -0.89433,-0.60626c-0.2576,-0.25556 -0.46344,-0.55844 -0.60626,-0.89202c-0.29094,-0.69184 -0.29094,-1.47169 0,-2.16353c0.14237,-0.33451 0.34825,-0.63823 0.60626,-0.89433c0.25768,-0.25611 0.56101,-0.46173 0.89433,-0.60626c0.34089,-0.14809 0.70895,-0.22337 1.08061,-0.22099c0.3704,-0.00209 0.73719,0.07276 1.07714,0.21982zM226.12595,188.58301c0.00262,0.14106 -0.05353,0.27686 -0.15504,0.37486c-0.0993,0.10196 -0.23601,0.15881 -0.37833,0.15735c-0.29314,-0.0019 -0.53031,-0.23907 -0.53221,-0.53221v-1.08176c-0.00147,-0.14232 0.05539,-0.27902 0.15735,-0.37833c0.09638,-0.10231 0.23083,-0.16012 0.37138,-0.15967c0.14234,-0.00095 0.27878,0.05681 0.37717,0.15967c0.10327,0.09859 0.16107,0.23556 0.15967,0.37833zM229.03228,188.70907c0.20789,-0.20602 0.54298,-0.20602 0.75087,0c0.09885,0.10186 0.15334,0.23872 0.15156,0.38064c0.00516,0.14253 -0.04985,0.28067 -0.15156,0.38064l-0.76707,0.76707c-0.10016,0.10375 -0.23876,0.16152 -0.38296,0.15967c-0.2165,0.00165 -0.41242,-0.12805 -0.49551,-0.32799c-0.08307,-0.19993 -0.03674,-0.43027 0.11718,-0.58255zM229.9001,193.43534c-0.14232,0.00147 -0.27902,-0.05539 -0.37833,-0.15735c-0.10217,-0.09817 -0.15993,-0.23374 -0.15993,-0.37544c0,-0.14169 0.05776,-0.27727 0.15993,-0.37544c0.0993,-0.10196 0.23601,-0.15881 0.37833,-0.15735h1.07598c0.14376,-0.00192 0.28208,0.05491 0.38296,0.15735c0.10217,0.09817 0.15993,0.23374 0.15993,0.37544c0,0.14169 -0.05776,0.27727 -0.15993,0.37544c-0.10087,0.10244 -0.23919,0.15927 -0.38296,0.15735zM229.78325,196.33466c0.10209,0.10125 0.15742,0.24042 0.15272,0.38412c0.004,0.14018 -0.04999,0.2758 -0.14924,0.37486c-0.09946,0.10173 -0.23606,0.15854 -0.37833,0.15735c-0.14094,0.00504 -0.27773,-0.0481 -0.37833,-0.14694l-0.77748,-0.77748c-0.10138,-0.09942 -0.15708,-0.23636 -0.15387,-0.37833c-0.00372,-0.14035 0.0522,-0.27572 0.15387,-0.37255c0.09946,-0.10173 0.23606,-0.15854 0.37833,-0.15735c0.14181,-0.00494 0.27915,0.05008 0.37833,0.15156zM226.12595,198.30155c-0.00373,0.29512 -0.24173,0.53362 -0.53683,0.53799c-0.14177,0.00142 -0.27766,-0.05646 -0.37486,-0.15967c-0.10196,-0.0993 -0.15881,-0.23601 -0.15735,-0.37833v-1.08176c-0.00238,-0.14316 0.05457,-0.28095 0.15735,-0.38064c0.09792,-0.10188 0.23356,-0.15881 0.37486,-0.15735c0.14209,-0.00084 0.27835,0.05641 0.37717,0.1585c0.10411,0.09897 0.162,0.23701 0.15967,0.38064zM222.16687,195.57341c0.09997,-0.10172 0.23811,-0.15672 0.38064,-0.15156c0.14299,-0.00142 0.2804,0.05537 0.38064,0.15735c0.10188,0.09635 0.15643,0.2325 0.14924,0.37255c-0.0006,0.14237 -0.05808,0.27859 -0.15967,0.37833l-0.76707,0.77169c-0.10157,0.09865 -0.23915,0.15135 -0.38064,0.14578c-0.14299,0.00142 -0.2804,-0.05537 -0.38064,-0.15735c-0.19534,-0.21554 -0.1908,-0.54543 0.01041,-0.7555zM221.27709,192.37091c0.14232,-0.00147 0.27902,0.05539 0.37833,0.15735c0.10217,0.09817 0.15993,0.23374 0.15993,0.37544c0,0.14169 -0.05776,0.27727 -0.15993,0.37544c-0.0993,0.10196 -0.23601,0.15881 -0.37833,0.15735h-1.08061c-0.14044,0.00055 -0.27502,-0.05629 -0.37255,-0.15735c-0.10217,-0.09817 -0.15993,-0.23374 -0.15993,-0.37544c0,-0.14169 0.05776,-0.27727 0.15993,-0.37544c0.09752,-0.10107 0.2321,-0.1579 0.37255,-0.15735zM221.39626,189.46572c-0.09876,-0.1008 -0.15259,-0.23725 -0.14924,-0.37833c-0.00321,-0.14196 0.05251,-0.27891 0.15387,-0.37833c0.0998,-0.10174 0.23829,-0.15604 0.38064,-0.14924c0.14045,-0.00065 0.27537,0.05474 0.37486,0.15387l0.76707,0.77169c0.10267,0.09823 0.1572,0.23646 0.14924,0.37833c0.00085,0.14265 -0.05686,0.27942 -0.15967,0.37833c-0.09744,0.10194 -0.23395,0.15713 -0.37486,0.15156c-0.14138,0.00189 -0.27717,-0.05511 -0.37486,-0.15735z" fill="#ffd60a"/></g><g fill="#dedede" stroke="none" stroke-width="1" stroke-linecap="butt" stroke-linejoin="miter"><path d="M246.89967,188.42987h12.17021v8.61929h-12.17021z" opacity="0"/><path d="M248.10364,196.22514c-0.36574,-0.18668 -0.67249,-0.47118 -0.8861,-0.82187c-0.21597,-0.36391 -0.32605,-0.78087 -0.31787,-1.20395c-0.00214,-0.34439 0.07223,-0.68498 0.21771,-0.99713c0.13868,-0.30078 0.34198,-0.56728 0.59545,-0.78051c0.26335,-0.21943 0.56959,-0.38144 0.89917,-0.47571c0.04209,-0.4847 0.17737,-0.9567 0.39842,-1.3901c0.21404,-0.41944 0.50079,-0.79758 0.84691,-1.11687c0.34403,-0.31806 0.74366,-0.57009 1.17892,-0.74349c0.44773,-0.17822 0.92563,-0.26841 1.40752,-0.26561c0.718,-0.01197 1.42416,0.18384 2.03345,0.56387c0.60104,0.38454 1.08402,0.9278 1.39555,1.56972c0.43286,-0.0059 0.86311,0.06791 1.26927,0.21772c0.37586,0.1403 0.72054,0.35295 1.01455,0.62592c0.59022,0.54826 0.92117,1.32047 0.91113,2.12598c0.00346,0.40333 -0.07581,0.80309 -0.23296,1.17457c-0.152,0.35693 -0.37412,0.67971 -0.65314,0.94923c-0.28132,0.272 -0.61201,0.48776 -0.97427,0.63572c-0.38,0.15521 -0.78696,0.23364 -1.19743,0.23077h-6.57605c-0.46108,0.01046 -0.91775,-0.09195 -1.33023,-0.29827z"/></g><g><path d="M36.22661,217.21476c0,0 0,-9.58985 0,-12.13891c0,-25.83881 0,-108.79979 0,-108.79979h86.93531c0,0 0,44.21522 0,74.88124c0,9.79675 0,18.21074 0,23.35848c0,10.21993 0,22.69891 0,22.69891z" fill="#ffffff" stroke="#ffffff" stroke-width="17" stroke-linecap="round" stroke-linejoin="round"/><text transform="translate(68.55905,120.92012) scale(1.0294,1.0294)" font-size="24" xml:space="preserve" fill="#000000" fill-rule="nonzero" stroke="#000000" stroke-width="0" stroke-linecap="butt" stroke-linejoin="miter" stroke-miterlimit="10" stroke-dasharray="" stroke-dashoffset="0" font-family="Segoe UI" font-weight="bold" text-anchor="start" style="mix-blend-mode: normal"><tspan x="0" dy="0">80º</tspan></text><text transform="translate(68.76914,132.04081) scale(0.41589,0.41589)" font-size="24" xml:space="preserve" fill="#000000" fill-rule="nonzero" stroke="#000000" stroke-width="0" stroke-linecap="butt" stroke-linejoin="miter" stroke-miterlimit="10" stroke-dasharray="" stroke-dashoffset="0" font-family="Segoe UI" font-weight="bold" text-anchor="start" style="mix-blend-mode: normal"><tspan x="0" dy="0">Partly Cloudy</tspan></text><path d="M35.14605,205.00434c0,0 0,-4.02041 0,-5.08906c0,-10.83254 0,-45.61272 0,-45.61272h36.44635c0,0 0,18.53659 0,31.39287c0,4.10715 0,7.63458 0,9.7927c0,4.28456 0,9.51618 0,9.51618z" fill="#f9f9f9" stroke="#fbfbfb" stroke-width="6" stroke-linecap="round" stroke-linejoin="round"/><text transform="translate(34.45514,160.37877) scale(0.32319,0.32319)" font-size="24" xml:space="preserve" fill="#000000" fill-rule="nonzero" stroke="#000000" stroke-width="0" stroke-linecap="butt" stroke-linejoin="miter" stroke-miterlimit="10" stroke-dasharray="" stroke-dashoffset="0" font-family="Segoe UI" font-weight="bold" text-anchor="start" style="mix-blend-mode: normal"><tspan x="0" dy="0">Tomorrow</tspan></text><path d="M87.46354,205.00434c0,0 0,-4.02041 0,-5.08906c0,-10.83256 0,-45.61272 0,-45.61272h36.44636c0,0 0,18.53658 0,31.39284c0,4.10715 0,7.63459 0,9.7927c0,4.28456 0,9.51618 0,9.51618z" fill="#fbfbfb" stroke="#fbfbfb" stroke-width="6" stroke-linecap="round" stroke-linejoin="round"/><text transform="translate(43.91011,197.86849) scale(0.269,0.269)" font-size="24" xml:space="preserve" fill="#000000" fill-rule="nonzero" stroke="#000000" stroke-width="0" stroke-linecap="butt" stroke-linejoin="miter" stroke-miterlimit="10" stroke-dasharray="" stroke-dashoffset="0" font-family="Segoe UI" font-weight="bold" text-anchor="start" style="mix-blend-mode: normal"><tspan x="0" dy="0">Sunny</tspan><tspan x="0" dy="28.8px"> 82º</tspan></text><text transform="translate(88.87375,160.79899) scale(0.32319,0.32319)" font-size="24" xml:space="preserve" fill="#000000" fill-rule="nonzero" stroke="#000000" stroke-width="0" stroke-linecap="butt" stroke-linejoin="miter" stroke-miterlimit="10" stroke-dasharray="" stroke-dashoffset="0" font-family="Segoe UI" font-weight="bold" text-anchor="start" style="mix-blend-mode: normal"><tspan x="0" dy="0">In 2 days</tspan></text><text transform="translate(96.01751,198.28871) scale(0.269,0.269)" font-size="24" xml:space="preserve" fill="#000000" fill-rule="nonzero" stroke="#000000" stroke-width="0" stroke-linecap="butt" stroke-linejoin="miter" stroke-miterlimit="10" stroke-dasharray="" stroke-dashoffset="0" font-family="Segoe UI" font-weight="bold" text-anchor="start" style="mix-blend-mode: normal"><tspan x="0" dy="0">Cloudy</tspan><tspan x="0" dy="28.8px"> 13º</tspan></text><g stroke="none" stroke-width="1" stroke-linecap="butt" stroke-linejoin="miter"><path d="" fill="#000000" opacity="0"/><path fill="#ffd60a"/><path d="" fill="#adbaca"/></g><g stroke="none" stroke-width="1" stroke-linecap="butt" stroke-linejoin="miter"><path d="" fill="#000000" opacity="0"/><path fill="#ffd60a"/></g><g fill="#dedede" stroke="none" stroke-width="1" stroke-linecap="butt" stroke-linejoin="miter"><path d="" opacity="0"/><path d=""/></g></g></g></g></svg>