<svg version="1.1" xmlns="http://www.w3.org/2000/svg" xmlns:xlink="http://www.w3.org/1999/xlink" width="29.97332" height="29.34296" viewBox="0,0,29.97332,29.34296"><defs><linearGradient x1="239.77699" y1="258.16717" x2="239.77699" y2="239.83276" gradientUnits="userSpaceOnUse" id="color-1"><stop offset="0" stop-color="#c3ffe8"/><stop offset="0.9973" stop-color="#f0fff4"/></linearGradient><linearGradient x1="240.00269" y1="238.06756" x2="240.00269" y2="259.93234" gradientUnits="userSpaceOnUse" id="color-2"><stop offset="0" stop-color="#00b59c"/><stop offset="1" stop-color="#9cffac"/></linearGradient></defs><g transform="translate(-225.01604,-234.32852)"><g data-paper-data="{&quot;isPaintingLayer&quot;:true}" stroke="none" stroke-width="1" stroke-linejoin="miter" stroke-miterlimit="10" stroke-dasharray="" stroke-dashoffset="0" style="mix-blend-mode: normal"><path d="M225.01605,238.40984c0,-2.25405 1.86652,-4.08132 4.169,-4.08132h21.63534c1.10568,0 2.16608,0.43 2.94793,1.19539c0.78182,0.76539 1.22105,1.80349 1.22105,2.88592v21.18032c0,2.25405 -1.86651,4.08132 -4.16898,4.08132h-21.63534c-2.30248,0 -4.169,-1.82727 -4.169,-4.08132z" fill-opacity="0.00784" fill="#3d3d3d" fill-rule="evenodd" stroke-linecap="square"/><g fill-rule="nonzero" stroke-linecap="butt"><path d="M231.88883,248.99996c0,-5.06292 3.53165,-9.1672 7.88816,-9.1672c4.3565,0 7.88816,4.10429 7.88816,9.1672c0,5.06292 -3.53164,9.1672 -7.88816,9.1672c-4.3565,0 -7.88816,-4.10429 -7.88816,-9.1672z" fill="url(#color-1)"/><path d="M243.22984,249.03934c0,1.77937 -1.4478,3.22718 -3.22718,3.22718c-1.77937,0 -3.22718,-1.44786 -3.22718,-3.22718c0,-1.7793 1.4478,-3.22717 3.22718,-3.22717c1.77937,0 3.22718,1.44779 3.22718,3.22717zM241.74984,247.93764c-0.25209,-0.25209 -0.66058,-0.25209 -0.91267,0l-1.47993,1.47992l-0.1891,-0.18911c-0.25209,-0.25209 -0.66058,-0.25209 -0.91267,0c-0.25209,0.25209 -0.25209,0.66058 0,0.91267l0.64544,0.64544c0.12606,0.12612 0.29119,0.18911 0.45633,0.18911c0.16515,0 0.33029,-0.06306 0.45634,-0.18911l1.93633,-1.93633c0.25209,-0.25209 0.25204,-0.6605 -0.00008,-0.91262zM248.39342,242.22447v7.68664c0,6.08311 -4.36116,8.52806 -8.16063,9.97903c-0.07378,0.02837 -0.15189,0.04221 -0.23009,0.04221c-0.0782,0 -0.1563,-0.01382 -0.23008,-0.04221c-3.79955,-1.45097 -8.16063,-3.89591 -8.16063,-9.97903v-7.68664c0,-0.35678 0.28873,-0.64544 0.64544,-0.64544c3.57265,0 7.27503,-3.31164 7.31226,-3.34502c0.24579,-0.22183 0.62025,-0.22183 0.86605,0c0.03723,0.03337 3.73968,3.34502 7.31226,3.34502c0.35672,0 0.64537,0.28865 0.64544,0.64544zM244.52072,249.03934c0,-2.491 -2.02706,-4.51805 -4.51805,-4.51805c-2.491,0 -4.51805,2.02704 -4.51805,4.51805c0,2.491 2.02706,4.51805 4.51805,4.51805c2.491,0 4.51805,-2.02706 4.51805,-4.51805z" fill="url(#color-2)"/></g></g></g></svg>