<svg version="1.1" xmlns="http://www.w3.org/2000/svg" xmlns:xlink="http://www.w3.org/1999/xlink" width="29.71795" height="29.09296" viewBox="0,0,29.71795,29.09296"><defs><linearGradient x1="369.29332" y1="408.56623" x2="369.29332" y2="414.06832" gradientUnits="userSpaceOnUse" id="color-1"><stop offset="0" stop-color="#686868"/><stop offset="1" stop-color="#a2a2a2"/></linearGradient><linearGradient x1="369.08616" y1="398.2697" x2="369.08616" y2="412.23031" gradientUnits="userSpaceOnUse" id="color-2"><stop offset="0" stop-color="#1faaff"/><stop offset="1" stop-color="#0092ff"/></linearGradient></defs><g transform="translate(-354.14108,-391.45352)"><g data-paper-data="{&quot;isPaintingLayer&quot;:true}" stroke-miterlimit="10" stroke-dasharray="" stroke-dashoffset="0" style="mix-blend-mode: normal"><path d="M372.0126,408.56623c0,0 0.18906,2.39923 0.96159,4.32027c0.70031,1.74144 -0.23718,1.02328 -3.52004,0.98419c-3.46535,-0.04126 -4.5687,0.7866 -3.85216,-0.66807c1.06259,-2.15719 0.96159,-4.63639 0.96159,-4.63639z" data-paper-data="{&quot;index&quot;:null}" fill="url(#color-1)" fill-rule="nonzero" stroke="none" stroke-width="0" stroke-linecap="butt" stroke-linejoin="miter"/><path d="M359.24451,409.89164c0,-1.62238 0,-7.99731 0,-10.69324c0,-0.58175 0.32484,-0.9287 0.88986,-0.9287c3.5049,0 16.2523,0 18.0502,0c0.41357,0 0.74325,0.2985 0.74325,0.65675c0,1.30024 0,8.06384 0,11.05611c0,0.71825 -0.32967,0.97503 -0.74325,0.97503c-1.81292,0 -14.75921,0 -18.13615,0c-0.51191,0 -0.80391,-1.06594 -0.80391,-1.06594z" fill="url(#color-2)" fill-rule="nonzero" stroke="none" stroke-width="0" stroke-linecap="butt" stroke-linejoin="miter"/><path d="M378.79556,404.48119h-5.11999l-2.25626,1.90909l-2.86373,-5.54545l-2.42983,3.72727l-4.16542,2.36363l-2.16949,-2.18182" fill="none" fill-rule="nonzero" stroke="#ffffff" stroke-width="1" stroke-linecap="round" stroke-linejoin="miter"/><path d="M378.01738,411.69219h-17.76606c-0.5774,0 -1.04506,-0.4765 -1.04506,-1.0648v-1.5972h19.85619v1.5972c0,0.5883 -0.46767,1.0648 -1.04506,1.0648z" fill="#646464" fill-rule="nonzero" stroke="none" stroke-width="1" stroke-linecap="butt" stroke-linejoin="miter"/><path d="M365.49934,414.329c0,0 0.59397,0 0.75183,0c1.60035,0 6.73859,0 6.73859,0v1.06753c0,0 -4.7677,0 -6.08454,0c-0.63298,0 -1.40588,0 -1.40588,0z" fill="#646464" fill-rule="nonzero" stroke="#646464" stroke-width="1" stroke-linecap="round" stroke-linejoin="round"/><path d="M354.14109,395.50007c0,-2.23485 1.85062,-4.04655 4.13348,-4.04655h21.45101c1.09626,0 2.14763,0.42634 2.92281,1.18521c0.77516,0.75887 1.21065,1.78812 1.21065,2.86133v20.99987c0,2.23485 -1.85061,4.04655 -4.13346,4.04655h-21.45101c-2.28286,0 -4.13348,-1.8117 -4.13348,-4.04655z" fill-opacity="0.00784" fill="#3d3d3d" fill-rule="evenodd" stroke="none" stroke-width="1" stroke-linecap="square" stroke-linejoin="miter"/></g></g></svg>