<svg version="1.1" xmlns="http://www.w3.org/2000/svg" xmlns:xlink="http://www.w3.org/1999/xlink" width="71.71251" height="53.70777" viewBox="0,0,71.71251,53.70777"><defs><radialGradient cx="177.94766" cy="198.70996" r="32.18335" gradientUnits="userSpaceOnUse" id="color-1"><stop offset="0" stop-color="#b6dcf2"/><stop offset="1" stop-color="#88afcc"/></radialGradient><linearGradient x1="157.03483" y1="212.15231" x2="170.55485" y2="212.15231" gradientUnits="userSpaceOnUse" id="color-2"><stop offset="0" stop-color="#d484bd"/><stop offset="1" stop-color="#b55d82"/></linearGradient><linearGradient x1="181.64842" y1="211.62809" x2="198.68979" y2="211.62809" gradientUnits="userSpaceOnUse" id="color-3"><stop offset="0" stop-color="#81a4f1"/><stop offset="1" stop-color="#34548d"/></linearGradient><linearGradient x1="158.50457" y1="208.13946" x2="177.98203" y2="208.13946" gradientUnits="userSpaceOnUse" id="color-4"><stop offset="0" stop-color="#ffb45c"/><stop offset="1" stop-color="#ff9a22"/></linearGradient><linearGradient x1="163.60047" y1="207.28174" x2="183.07793" y2="207.28174" gradientUnits="userSpaceOnUse" id="color-5"><stop offset="0" stop-color="#fa9eec"/><stop offset="1" stop-color="#c15fb1"/></linearGradient><linearGradient x1="172.32927" y1="203.69948" x2="191.80653" y2="203.69948" gradientUnits="userSpaceOnUse" id="color-6"><stop offset="0" stop-color="#5bafff"/><stop offset="1" stop-color="#006bd4"/></linearGradient></defs><g transform="translate(-143.00254,-171.78797)"><g data-paper-data="{&quot;isPaintingLayer&quot;:true}" fill-rule="nonzero" stroke-linecap="butt" stroke-linejoin="miter" stroke-miterlimit="10" stroke-dasharray="" stroke-dashoffset="0" style="mix-blend-mode: normal"><path d="M145.76415,223.01579v-48.61167h64.3667v48.61167z" fill="url(#color-1)" stroke="none" stroke-width="0"/><path d="M170.55485,212.15231c0,4.82067 -3.06083,8.72859 -6.83656,8.72859c-3.77573,0 -4.3643,-0.88067 -4.3643,-5.70134c0,-4.82067 -4.60822,-11.75585 -0.8325,-11.75585c3.77573,0 12.03335,3.90793 12.03335,8.72859z" fill="url(#color-2)" stroke="none" stroke-width="0"/><path d="M182.04095,209.33623c2.19523,-7.09543 13.21456,-8.44442 15.637,-7.69495c0.79043,0.24455 -0.65797,3.65451 -1.4054,7.24928c-0.64393,3.09701 -0.53347,6.25316 -0.76656,8.5551c-0.30913,3.05285 3.90784,1.71203 3.07457,4.32947c-0.04419,0.1388 -6.26985,-0.35197 -8.69229,-1.10144c-2.42244,-0.74947 -10.04255,-4.24203 -7.84732,-11.33746z" data-paper-data="{&quot;index&quot;:null}" fill="url(#color-3)" stroke="none" stroke-width="0"/><path d="M177.98203,210.39873c0,9.69568 -8.31195,11.11113 -10.84768,11.11113c-2.53573,0 -8.6283,-1.79004 -8.62949,-1.9802c-0.02242,-3.58571 3.27642,-6.90194 3.88342,-10.82841c0.98895,-6.3972 1.38949,-13.93218 2.92972,-13.93218c2.53573,0 12.66403,5.93397 12.66403,15.62965z" fill="url(#color-4)" stroke="none" stroke-width="0"/><path d="M183.07793,210.35945c0,13.20808 -8.31195,15.13629 -10.84768,15.13629c-2.53573,0 -8.6283,-2.43851 -8.62949,-2.69755c-0.02242,-4.88468 3.27642,-9.40226 3.88342,-14.75115c0.98895,-8.71467 1.38949,-18.97931 2.92972,-18.97931c2.53573,0 12.66403,8.08364 12.66403,21.29172z" fill="url(#color-5)" stroke="none" stroke-width="0"/><path d="M191.80653,206.7772c0,13.20808 -8.31195,15.13629 -10.84768,15.13629c-2.53573,0 -8.6283,-2.43851 -8.62949,-2.69755c-0.02242,-4.88468 3.27642,-9.40226 3.88342,-14.75115c0.98895,-8.71467 1.38949,-18.97931 2.92972,-18.97931c2.53573,0 12.66403,8.08364 12.66403,21.29172z" fill="url(#color-6)" stroke="none" stroke-width="0"/><path d="M207.4881,224.69874h-57.25859c-1.45348,0.00295 -2.84828,-0.57313 -3.87605,-1.6009c-1.02777,-1.02777 -1.60386,-2.42257 -1.60091,-3.87606v-40.20685c0,-3.02484 2.45212,-5.47696 5.47696,-5.47696h57.25859c3.02484,0 5.47696,2.45211 5.47696,5.47696v40.20685c0.00147,1.45303 -0.57509,2.84698 -1.60254,3.87442c-1.02744,1.02744 -2.42139,1.60401 -3.87442,1.60254z" fill="none" stroke="#1e1e1f" stroke-width="3.5"/></g></g></svg>