<svg version="1.1" xmlns="http://www.w3.org/2000/svg" xmlns:xlink="http://www.w3.org/1999/xlink" width="249.18245" height="162.21089" viewBox="0,0,249.18245,162.21089"><g transform="translate(-114.0947,-112.13044)"><g stroke-miterlimit="10"><path d="M122.5947,120.63044c0,0 18.41099,0 23.30466,0c49.60627,0 208.87779,0 208.87779,0v145.21089c0,0 -147.78584,0 -188.60397,0c-19.62076,0 -43.57823,0 -43.57823,0z" fill="#c3c189" stroke="#c3c189" stroke-width="17" stroke-linecap="round" stroke-linejoin="round"/><text transform="translate(143.94268,144.28156) scale(0.57207,0.57207)" font-size="24" xml:space="preserve" fill="#000000" stroke="#000000" stroke-width="1" stroke-linecap="butt" stroke-linejoin="miter" font-family="Sans Serif" font-weight="400" text-anchor="start"><tspan x="0" dy="0">This feature never made it :(</tspan></text><text transform="translate(135.33713,166.33487) scale(0.32028,0.32028)" font-size="24" xml:space="preserve" fill="#000000" stroke="#000000" stroke-width="0" stroke-linecap="butt" stroke-linejoin="miter" font-family="Sans Serif" font-weight="bold" text-anchor="start"><tspan x="0" dy="0">This was a planned feature during the development of </tspan><tspan x="0" dy="28.799999999999997px">Oryx OS. Unfortunately, on April 2nd 2022, I decided to </tspan><tspan x="0" dy="28.799999999999997px">move on from Scratch due to increasing school priorities</tspan><tspan x="0" dy="28.799999999999997px">and also to focus on other programming languages.</tspan><tspan x="0" dy="28.799999999999997px"> </tspan><tspan x="0" dy="28.799999999999997px">But I promise you, one day I will release the unfinished</tspan><tspan x="0" dy="28.799999999999997px">Oryx OS 2...</tspan></text><g><path d="M134.45824,243.18536c0,0 16.75087,0 21.20328,0c45.13328,0 190.0433,0 190.0433,0v12.6511c0,0 -134.46,0 -171.59756,0c-17.85156,0 -39.64878,0 -39.64878,0z" fill="#c3c189" stroke="#6f6e4d" stroke-width="13" stroke-linecap="round" stroke-linejoin="round"/><text transform="translate(228.70711,253.72258) scale(0.44679,0.44679)" font-size="24" xml:space="preserve" fill="#ffffff" stroke="#000000" stroke-width="0" stroke-linecap="butt" stroke-linejoin="miter" font-family="Segoe UI" font-weight="bold" text-anchor="start"><tspan x="0" dy="0">CLOSE</tspan></text></g><path d="M129.5,230v-114h221v114z" fill="#c3c189" stroke="none" stroke-width="0" stroke-linecap="butt" stroke-linejoin="miter"/><text transform="translate(174.24552,197.76875) scale(1.54009,1.54009)" font-size="40" xml:space="preserve" fill="#ffffff" stroke="none" stroke-width="1" stroke-linecap="butt" stroke-linejoin="miter" font-family="Segoe UI" font-weight="normal" text-anchor="start"><tspan x="0" dy="0">Error</tspan></text></g></g></svg>