<svg xmlns="http://www.w3.org/2000/svg" xmlns:xlink="http://www.w3.org/1999/xlink" version="1.1" width="23.128999710083008" height="26.606000900268555" viewBox="-0.2150000035762787 -0.09999999403953552 23.128999710083008 26.606000900268555">
  <!-- Exported by Scratch - http://scratch.mit.edu/ -->
  <path id="path3204" fill="#000000" stroke="none" d="M 22.414 8.252 C 22.264 8.942 22.115 9.632 21.965 10.322 C 20.266 10.322 18.566 10.322 16.867 10.322 C 16.457 12.275 16.047 14.228 15.637 16.181 C 17.466 16.181 19.296 16.181 21.125 16.181 C 20.949 16.871 20.773 17.561 20.598 18.252 C 18.807 18.252 17.017 18.252 15.227 18.252 C 14.654 20.836 14.081 23.421 13.508 26.006 C 12.687 26.006 11.867 26.006 11.047 26.006 C 11.607 23.421 12.167 20.836 12.727 18.252 C 11.099 18.252 9.471 18.252 7.844 18.252 C 7.297 20.836 6.75 23.421 6.203 26.006 C 5.389 26.006 4.576 26.006 3.762 26.006 C 4.309 23.421 4.855 20.836 5.402 18.252 C 3.697 18.252 1.991 18.252 0.285 18.252 C 0.415 17.561 0.546 16.871 0.676 16.181 C 2.401 16.181 4.126 16.181 5.852 16.181 C 6.249 14.228 6.646 12.275 7.043 10.322 C 5.24 10.322 3.436 10.322 1.633 10.322 C 1.77 9.632 1.906 8.942 2.043 8.252 C 3.846 8.252 5.65 8.252 7.453 8.252 C 8 5.634 8.547 3.017 9.094 0.4 C 9.914 0.4 10.734 0.4 11.555 0.4 C 11.008 3.017 10.461 5.634 9.914 8.252 C 11.555 8.252 13.195 8.252 14.836 8.252 C 15.396 5.634 15.956 3.017 16.516 0.4 C 17.316 0.4 18.117 0.4 18.918 0.4 C 18.371 3.017 17.824 5.634 17.277 8.252 C 18.99 8.252 20.702 8.252 22.414 8.252 Z M 14.445 10.322 C 12.805 10.322 11.164 10.322 9.523 10.322 C 9.094 12.275 8.664 14.228 8.234 16.181 C 9.888 16.181 11.542 16.181 13.195 16.181 C 13.612 14.228 14.029 12.275 14.445 10.322 Z " stroke-width="1"/>
</svg>