<svg version="1.1" xmlns="http://www.w3.org/2000/svg" xmlns:xlink="http://www.w3.org/1999/xlink" width="13.16667" height="13.17522" viewBox="0,0,13.16667,13.17522"><g transform="translate(-233.41667,-173.41667)"><g data-paper-data="{&quot;isPaintingLayer&quot;:true}" fill-rule="nonzero" stroke-linejoin="miter" stroke-miterlimit="10" stroke-dasharray="" stroke-dashoffset="0" style="mix-blend-mode: normal"><path d="M234.29167,185.58334c-0.67242,-0.78361 -0.875,-2.45834 -0.875,-2.45834v-6.375c0,0 0.10714,-1.26225 1,-2.20833c0.89286,-0.94608 2.14584,-1.125 2.14584,-1.125h7c0,0 1.35417,0.12644 2.14583,1c0.79167,0.87356 0.875,2.33333 0.875,2.33333v6.625c0,0 0.00161,1.56431 -0.875,2.45834c-0.87661,0.89403 -2.27083,0.75 -2.27083,0.75h-7c0,0 -1.47341,-0.21639 -2.14584,-1z" fill="#ff0000" stroke="none" stroke-width="0" stroke-linecap="butt"/><path d="M236.91667,183.08333l6.16667,-6.16667" fill="none" stroke="#ffffff" stroke-width="1" stroke-linecap="round"/><path d="M243.08333,183.08333l-6.16667,-6.16667" data-paper-data="{&quot;index&quot;:null}" fill="none" stroke="#ffffff" stroke-width="1" stroke-linecap="round"/></g></g></svg>