<svg version="1.1" xmlns="http://www.w3.org/2000/svg" xmlns:xlink="http://www.w3.org/1999/xlink" width="18.18741" height="21.77187" viewBox="0,0,18.18741,21.77187"><defs><linearGradient x1="232.09411" y1="178.92717" x2="247.91436" y2="178.76229" gradientUnits="userSpaceOnUse" id="color-1"><stop offset="0" stop-color="#f0f1f4"/><stop offset="1" stop-color="#dcdada"/></linearGradient><linearGradient x1="235.05451" y1="170.18727" x2="245.26466" y2="189.07922" gradientUnits="userSpaceOnUse" id="color-2"><stop offset="0" stop-color="#b2b2b2"/><stop offset="1" stop-color="#575757"/></linearGradient><linearGradient x1="233.42303" y1="170.98566" x2="242.00168" y2="186.71877" gradientUnits="userSpaceOnUse" id="color-3"><stop offset="0" stop-color="#b2b2b2"/><stop offset="1" stop-color="#575757"/></linearGradient></defs><g transform="translate(-230.90633,-169.11407)"><g data-paper-data="{&quot;isPaintingLayer&quot;:true}" fill-rule="nonzero" stroke="none" stroke-linecap="butt" stroke-linejoin="miter" stroke-miterlimit="10" stroke-dasharray="" stroke-dashoffset="0" style="mix-blend-mode: normal"><path d="M239.12966,190.86277c-2.26728,-0.15966 -4.11317,-0.7957 -4.91072,-1.69211c-0.28398,-0.31917 -0.36084,-0.4901 -0.445,-0.98964c-0.23225,-1.3786 -2.51428,-13.99068 -2.57396,-14.22548c-0.40858,-1.60763 1.25855,-3.0637 4.42112,-3.86138c0.72427,-0.18269 1.82478,-0.36359 2.69808,-0.44353c0.78409,-0.07178 2.60397,-0.07178 3.38806,0c3.82589,0.35019 6.68987,1.70488 7.12142,3.36847c0.08333,0.32123 0.07623,0.56677 -0.02925,1.01097c-0.1141,0.48049 -2.57477,14.18093 -2.57477,14.33566c0,0.06281 -0.06233,0.24231 -0.1385,0.3989c-0.38657,0.79465 -1.68274,1.49887 -3.43326,1.86532c-0.97433,0.20396 -2.50075,0.30482 -3.52325,0.23283z" fill-opacity="0.31373" fill="#000000" stroke-width="0.98894"/><path d="M239.09546,190.331c-2.32363,-0.15929 -4.21537,-0.79387 -5.03276,-1.68821c-0.29104,-0.31844 -0.36981,-0.48898 -0.45605,-0.98736c-0.23802,-1.37541 -2.57676,-13.95842 -2.63792,-14.19268c-0.41873,-1.60392 1.28983,-3.05663 4.53099,-3.85248c0.74227,-0.18226 1.87013,-0.36275 2.76513,-0.4425c0.80358,-0.0716 2.66868,-0.0716 3.47225,0c3.92096,0.34939 6.85612,1.70094 7.2984,3.3607c0.0854,0.3205 0.07812,0.56546 -0.02997,1.00864c-0.11693,0.47938 -2.63875,14.14823 -2.63875,14.30261c0,0.06265 -0.06388,0.24175 -0.14194,0.39798c-0.39618,0.79282 -1.72456,1.49541 -3.51859,1.86101c-0.99854,0.20349 -2.56289,0.30412 -3.61081,0.23229z" fill="url(#color-1)" stroke-width="1"/><g stroke-width="1.10883"><path d="M239.99495,169.63468c1.6777,-0.0009 3.37638,0.21309 4.87062,0.66329c1.37639,0.4147 2.41651,0.98016 2.99099,1.62541c0.38841,0.43626 0.46147,0.71268 0.29262,1.10649c-0.39662,0.9253 -2.16326,1.86753 -4.38546,2.33918c-0.89446,0.18985 -1.74534,0.29745 -2.80036,0.35436c-0.92347,0.04981 -1.04049,0.05058 -2.03689,-0.00202h0.04861c-2.90771,-0.15093 -5.54944,-0.98969 -6.69018,-2.10798c-0.28949,-0.28424 -0.52027,-0.68999 -0.51947,-0.91265c0.00137,-0.37685 0.43947,-0.93993 1.05323,-1.35485c1.6417,-1.1098 4.38014,-1.70974 7.1763,-1.71122z" fill="url(#color-2)"/><path d="M239.99495,169.63468c1.6777,-0.0009 3.37638,0.21309 4.87062,0.66329c1.37639,0.4147 2.41651,0.98016 2.99099,1.62541c0.38841,0.43626 0.46147,0.71268 0.29262,1.10649c-0.39662,0.9253 -2.16326,1.86753 -4.38546,2.33918c-0.89446,0.18985 -1.74534,0.29745 -2.80036,0.35436c-0.92347,0.04981 -1.04049,0.05058 -2.03689,-0.00202h0.04861c-2.90771,-0.15093 -5.54944,-0.98969 -6.69018,-2.10798c-0.28949,-0.28424 -0.52027,-0.68999 -0.51947,-0.91265c0.00137,-0.37685 0.43947,-0.93993 1.05323,-1.35485c1.6417,-1.1098 4.38014,-1.70974 7.1763,-1.71122z" fill="url(#color-3)"/></g></g></g></svg>