<svg version="1.1" xmlns="http://www.w3.org/2000/svg" xmlns:xlink="http://www.w3.org/1999/xlink" width="17.25551" height="28.02752" viewBox="0,0,17.25551,28.02752"><g transform="translate(-240.391,-152.39468)"><g data-paper-data="{&quot;isPaintingLayer&quot;:true}" fill="#ffffff" fill-rule="nonzero" stroke="none" stroke-width="1" stroke-linecap="butt" stroke-linejoin="miter" stroke-miterlimit="10" stroke-dasharray="" stroke-dashoffset="0" style="mix-blend-mode: normal"><path d="M240.391,180.408c0,-9.336 0,-18.672 0,-28.008c3.022,0.023 6.047,-0.049 9.067,0.043c2.67,0.141 5.506,1.583 6.441,4.224c1.004,2.893 -0.134,6.435 -2.813,8.009c-0.305,0.366 -1.833,0.644 -1.504,0.871c2.656,0.266 5.201,2.128 5.816,4.798c0.718,2.844 -0.121,6.142 -2.502,7.973c-1.998,1.708 -4.704,2.198 -7.262,2.09c-2.415,0 -4.829,0 -7.243,0zM243.672,155.369c0,3.014 0,6.028 0,9.043c1.786,-0.053 3.597,0.149 5.359,-0.215c1.94,-0.38 3.623,-2.006 3.744,-4.034c0.232,-1.574 -0.316,-3.411 -1.856,-4.121c-1.987,-0.965 -4.24,-0.599 -6.372,-0.673c-0.292,0 -0.583,0 -0.875,0zM243.672,167.361c0,3.359 0,6.719 0,10.078c1.939,-0.032 3.884,0.078 5.817,-0.085c2.093,-0.194 4.197,-1.597 4.584,-3.772c0.427,-1.938 -0.129,-4.296 -2.012,-5.271c-2.345,-1.27 -5.082,-0.884 -7.646,-0.95c-0.247,0 -0.495,0 -0.743,0z"/></g></g></svg>