<svg version="1.1" xmlns="http://www.w3.org/2000/svg" xmlns:xlink="http://www.w3.org/1999/xlink" width="18.44068" height="29.67684" viewBox="0,0,18.44068,29.67684"><g transform="translate(-239.62232,-159.93016)"><g data-paper-data="{&quot;isPaintingLayer&quot;:true}" fill="#ffffff" fill-rule="nonzero" stroke="none" stroke-width="1" stroke-linecap="butt" stroke-linejoin="miter" stroke-miterlimit="10" stroke-dasharray="" stroke-dashoffset="0" style="mix-blend-mode: normal"><path d="M258.063,189.607c-1.068,0 -2.136,0 -3.204,0c0,-4.212 0,-8.424 0,-12.637c-0.769,1.137 -1.709,2.422 -3.048,3.048c-3.081,1.496 -7.241,1.11 -9.62,-1.502c-2.517,-2.687 -2.859,-6.65 -2.39,-10.144c0.435,-3.479 2.631,-6.972 6.12,-8.014c2.721,-0.808 6.15,-0.596 8.092,1.721c0.459,0.629 1.019,1.632 0.846,0.334c0,-0.669 0,-1.337 0,-2.005c1.068,0 2.136,0 3.204,0c0,9.733 0,19.466 0,29.199zM254.859,171.404c-0.076,-1.992 0.319,-4.131 -0.761,-5.934c-1.079,-1.992 -3.415,-3.106 -5.645,-2.802c-2.404,0.143 -4.366,2.065 -5.015,4.311c-0.713,2.493 -0.798,5.275 0.166,7.713c0.833,2.1 2.983,3.645 5.278,3.487c2.231,0.047 4.347,-1.337 5.258,-3.363c0.513,-1.058 0.721,-2.242 0.719,-3.412z"/></g></g></svg>