<svg version="1.1" xmlns="http://www.w3.org/2000/svg" xmlns:xlink="http://www.w3.org/1999/xlink" width="15.703" height="28.477" viewBox="0,0,15.703,28.477"><g transform="translate(-239.703,-152.4)"><g data-paper-data="{&quot;isPaintingLayer&quot;:true}" fill="#ffffff" fill-rule="nonzero" stroke="none" stroke-width="1" stroke-linecap="butt" stroke-linejoin="miter" stroke-miterlimit="10" stroke-dasharray="" stroke-dashoffset="0" style="mix-blend-mode: normal"><path d="M239.703,179.724v-3.398c1.914,1.237 3.861,1.855 5.84,1.855c1.979,0 3.574,-0.56 4.785,-1.679c1.211,-1.12 1.817,-2.605 1.817,-4.454c0,-1.835 -0.619,-3.268 -1.856,-4.296c-1.237,-1.029 -3.008,-1.543 -5.312,-1.543c-0.782,0 -2.247,0.078 -4.395,0.234v-14.043h13.555v2.891h-10.528v8.203c0.86,-0.052 1.654,-0.078 2.383,-0.078c2.995,0 5.313,0.752 6.953,2.256c1.641,1.503 2.461,3.564 2.461,6.181c0,2.709 -0.882,4.89 -2.646,6.543c-1.765,1.654 -4.183,2.481 -7.256,2.481c-2.591,0 -4.525,-0.384 -5.801,-1.153z"/></g></g></svg>