<svg xmlns="http://www.w3.org/2000/svg" xmlns:xlink="http://www.w3.org/1999/xlink" version="1.1" width="18.577999114990234" height="29.477001190185547" viewBox="-0.007999986410140991 0.4310000538825989 18.577999114990234 29.477001190185547">
  <!-- Exported by Scratch - http://scratch.mit.edu/ -->
  <path id="path3180" fill="#000000" stroke="none" d="M 18.07 29.408 L 0.492 29.408 L 0.492 26.771 C 3.331 25.873 4.75 23.835 4.75 20.658 L 4.75 17.006 L 0.902 17.006 L 0.902 14.252 L 4.75 14.252 L 4.75 9.291 C 4.75 6.843 5.46 4.838 6.879 3.275 C 8.298 1.713 10.134 0.931 12.387 0.931 C 13.91 0.931 15.297 1.198 16.547 1.732 L 16.547 4.759 C 15.245 4.017 13.871 3.646 12.426 3.646 C 9.444 3.646 7.953 5.645 7.953 9.642 L 7.953 14.252 L 13.734 14.252 L 13.734 17.005 L 7.953 17.005 L 7.953 20.052 C 7.953 23.203 6.697 25.41 4.184 26.673 L 18.07 26.673 Z " stroke-width="1"/>
</svg>