<svg version="1.1" viewBox="0.0 0.0 624.0 28.8005249343832" fill="none" stroke="none" stroke-linecap="square" stroke-miterlimit="10" xmlns:xlink="http://www.w3.org/1999/xlink" xmlns="http://www.w3.org/2000/svg"><clipPath id="gf4ede5786c_0_0.0"><path d="m0 0l624.0 0l0 28.800526l-624.0 0l0 -28.800526z" clip-rule="nonzero"/></clipPath><g clip-path="url(#gf4ede5786c_0_0.0)"><path fill="#000000" fill-opacity="0.0" d="m0 0l624.0 0l0 28.800526l-624.0 0z" fill-rule="evenodd"/><g filter="url(#shadowFilter-gf4ede5786c_0_0.1)"><use xlink:href="#gf4ede5786c_0_0.1" transform="matrix(1.0 0.0 0.0 1.0 0.0 2.0)"/></g><defs><filter id="shadowFilter-gf4ede5786c_0_0.1" filterUnits="userSpaceOnUse"><feGaussianBlur in="SourceAlpha" stdDeviation="2.0" result="blur"/><feComponentTransfer in="blur" color-interpolation-filters="sRGB"><feFuncR type="linear" slope="0" intercept="0.0"/><feFuncG type="linear" slope="0" intercept="0.0"/><feFuncB type="linear" slope="0" intercept="0.0"/><feFuncA type="linear" slope="0.2" intercept="0"/></feComponentTransfer></filter></defs><g id="gf4ede5786c_0_0.1"><path fill="#ffffff" fill-opacity="0.8883" d="m246.33595 9.60241l0 0c0 -1.3249302 1.0740662 -2.3989983 2.399002 -2.3989983l105.5957 0c0.636261 0 1.24646 0.25275087 1.6963501 0.70265007c0.44989014 0.44989967 0.7026367 1.0600939 0.7026367 1.6963482l0 9.595704c0 1.3249302 -1.0740662 2.3989983 -2.3989868 2.3989983l-105.5957 0c-1.3249359 0 -2.399002 -1.0740681 -2.399002 -2.3989983z" fill-rule="evenodd"/></g><path fill="#434343" d="m253.25722 14.400263l0 0c0 -1.8525457 1.5017853 -3.354331 3.3543243 -3.354331l0 0c0.8896179 0 1.7428284 0.35340118 2.3718872 0.982461c0.62905884 0.62905884 0.9824524 1.4822454 0.9824524 2.37187l0 0c0 1.8525448 -1.5018005 3.35433 -3.3543396 3.35433l0 0c-1.8525391 0 -3.3543243 -1.5017853 -3.3543243 -3.35433z" fill-rule="evenodd"/><path fill="#434343" d="m262.51706 14.400263l0 0c0 -1.8525457 1.5018005 -3.354331 3.3543396 -3.354331l0 0c0.8896179 0 1.7427979 0.35340118 2.3718567 0.982461c0.62905884 0.62905884 0.9824524 1.4822454 0.9824524 2.37187l0 0c0 1.8525448 -1.50177 3.35433 -3.354309 3.35433l0 0c-1.8525391 0 -3.3543396 -1.5017853 -3.3543396 -3.35433z" fill-rule="evenodd"/><path fill="#434343" d="m271.77692 14.400263l0 0c0 -1.8525457 1.50177 -3.354331 3.354309 -3.354331l0 0c0.8896179 0 1.7428284 0.35340118 2.3718872 0.982461c0.62905884 0.62905884 0.9824524 1.4822454 0.9824524 2.37187l0 0c0 1.8525448 -1.5018005 3.35433 -3.3543396 3.35433l0 0c-1.8525391 0 -3.354309 -1.5017853 -3.354309 -3.35433z" fill-rule="evenodd"/></g></svg>