<svg version="1.1" xmlns="http://www.w3.org/2000/svg" xmlns:xlink="http://www.w3.org/1999/xlink" width="36.368" height="28.008" viewBox="0,0,36.368,28.008"><g transform="translate(-239.62,-152.119)"><g data-paper-data="{&quot;isPaintingLayer&quot;:true}" fill="#ffffff" fill-rule="nonzero" stroke="none" stroke-width="1" stroke-linecap="butt" stroke-linejoin="miter" stroke-miterlimit="10" stroke-dasharray="" stroke-dashoffset="0" style="mix-blend-mode: normal"><path d="M275.988,152.119c-2.637,9.336 -5.274,18.672 -7.911,28.008c-1.282,0 -2.565,0 -3.847,0c-1.97,-7.048 -3.992,-14.082 -5.929,-21.138c-0.22,-0.44 -0.246,-3.25 -0.436,-1.465c-0.516,2.871 -1.488,5.637 -2.231,8.455c-1.334,4.716 -2.668,9.432 -4.002,14.148c-1.269,0 -2.539,0 -3.809,0c-2.734,-9.336 -5.468,-18.672 -8.203,-28.008c1.205,0 2.409,0 3.614,0c2.035,7.39 4.121,14.767 6.125,22.165c0.201,0.637 0.318,3.33 0.529,1.251c0.909,-3.736 2.089,-7.402 3.118,-11.106c1.183,-4.103 2.365,-8.207 3.548,-12.31c1.048,0 2.096,0 3.145,0c2.024,7.408 4.08,14.808 6.083,22.221c0.201,0.643 0.329,3.124 0.512,1.181c0.892,-3.924 2.031,-7.79 3.03,-11.689c1.036,-3.904 2.073,-7.809 3.109,-11.713c1.185,0 2.37,0 3.555,0z"/></g></g></svg>