<svg version="1.1" xmlns="http://www.w3.org/2000/svg" xmlns:xlink="http://www.w3.org/1999/xlink" width="720" height="540" viewBox="0,0,720,540"><defs><radialGradient cx="239.65696" cy="180.43262" r="185.84135" gradientUnits="userSpaceOnUse" id="color-1"><stop offset="0" stop-color="#b6dcf2"/><stop offset="1" stop-color="#88afcc"/></radialGradient><linearGradient x1="118.89791" y1="260.29348" x2="196.96761" y2="260.29348" gradientUnits="userSpaceOnUse" id="color-2"><stop offset="0" stop-color="#d484bd"/><stop offset="1" stop-color="#b55d82"/></linearGradient><linearGradient x1="261.02708" y1="257.17907" x2="359.43163" y2="257.17907" gradientUnits="userSpaceOnUse" id="color-3"><stop offset="0" stop-color="#81a4f1"/><stop offset="1" stop-color="#34548d"/></linearGradient><linearGradient x1="127.38484" y1="236.45318" x2="239.85556" y2="236.45318" gradientUnits="userSpaceOnUse" id="color-4"><stop offset="0" stop-color="#ffb45c"/><stop offset="1" stop-color="#ff9a22"/></linearGradient><linearGradient x1="156.81083" y1="231.35746" x2="269.28155" y2="231.35746" gradientUnits="userSpaceOnUse" id="color-5"><stop offset="0" stop-color="#fa9eec"/><stop offset="1" stop-color="#c15fb1"/></linearGradient><linearGradient x1="207.21373" y1="210.07532" x2="319.68444" y2="210.07532" gradientUnits="userSpaceOnUse" id="color-6"><stop offset="0" stop-color="#5bafff"/><stop offset="1" stop-color="#006bd4"/></linearGradient><clipPath id="clip-1"><path d="M-120,450v-540h720v540z" fill="none" stroke="none" stroke-width="1"/></clipPath></defs><g transform="translate(120,90)"><g clip-path="url(#clip-1)" data-paper-data="{&quot;isPaintingLayer&quot;:true}" fill-rule="nonzero" stroke-linecap="butt" stroke-linejoin="miter" stroke-miterlimit="10" stroke-dasharray="" stroke-dashoffset="0" style="mix-blend-mode: normal"><g stroke="none" stroke-width="0"><path d="M53.81559,324.83325v-288.80129h371.6827v288.80129z" fill="url(#color-1)"/><path d="M196.96761,260.29348c0,28.63954 -17.67464,51.85646 -39.47741,51.85646c-21.80277,0 -25.20145,-5.23203 -25.20145,-33.87156c0,-28.63954 -26.60998,-69.84137 -4.80721,-69.84137c21.80277,0 69.48607,23.21693 69.48607,51.85646z" fill="url(#color-2)"/><path d="M263.29352,243.56316c12.67628,-42.15384 76.30693,-50.1682 90.2952,-45.7156c4.56433,1.45286 -3.79945,21.71139 -8.11543,43.06788c-3.71835,18.3993 -3.08051,37.14996 -4.42648,50.82573c-1.78504,18.13694 22.56568,10.17112 17.75399,25.72132c-0.25517,0.82464 -36.205,-2.09103 -50.19327,-6.54363c-13.98827,-4.4526 -57.9903,-25.20186 -45.31402,-67.3557z" data-paper-data="{&quot;index&quot;:null}" fill="url(#color-3)"/><path d="M239.85556,249.87544c0,57.60191 -47.99698,66.01107 -62.63943,66.01107c-14.64245,0 -49.82376,-10.63463 -49.83063,-11.76431c-0.12946,-21.30264 18.91954,-41.00432 22.42463,-64.33143c5.71065,-38.00566 8.02353,-82.7709 16.91754,-82.7709c14.64245,0 73.1279,35.25366 73.1279,92.85557z" fill="url(#color-4)"/><path d="M269.28155,249.64211c0,78.46902 -47.99698,89.92451 -62.63943,89.92451c-14.64245,0 -49.82376,-14.48717 -49.83063,-16.0261c-0.12946,-29.01982 18.91954,-55.85871 22.42463,-87.6364c5.71065,-51.77375 8.02353,-112.75583 16.91754,-112.75583c14.64245,0 73.1279,48.02479 73.1279,126.49381z" fill="url(#color-5)"/><path d="M319.68444,228.35998c0,78.46902 -47.99698,89.92451 -62.63943,89.92451c-14.64245,0 -49.82376,-14.48717 -49.83063,-16.0261c-0.12946,-29.01982 18.91954,-55.85871 22.42463,-87.6364c5.71065,-51.77375 8.02353,-112.75583 16.91754,-112.75583c14.64245,0 73.1279,48.02479 73.1279,126.49381z" fill="url(#color-6)"/></g><path d="M401.82469,331.73126h-323.64934c-8.21568,0.0175 -16.09966,-3.39954 -21.90904,-9.49581c-5.80938,-6.09627 -9.06568,-14.3696 -9.04901,-22.99104v-238.48889c0,-17.94198 13.86039,-32.48685 30.95805,-32.48685h323.64935c17.09765,0 30.95806,14.54481 30.95806,32.48686v238.48889c0.00831,8.61872 -3.25065,16.887 -9.05822,22.98131c-5.80752,6.09431 -13.68671,9.51426 -21.89983,9.50554z" fill="none" stroke="#eff0f4" stroke-width="15"/></g></g></svg>