<svg version="1.1" xmlns="http://www.w3.org/2000/svg" xmlns:xlink="http://www.w3.org/1999/xlink" width="18.44345" height="29.89229" viewBox="0,0,18.44345,29.89229"><g transform="translate(-239.94796,-159.93012)"><g data-paper-data="{&quot;isPaintingLayer&quot;:true}" fill="#ffffff" fill-rule="nonzero" stroke="none" stroke-width="1" stroke-linecap="butt" stroke-linejoin="miter" stroke-miterlimit="10" stroke-dasharray="" stroke-dashoffset="0" style="mix-blend-mode: normal"><path d="M258.391,178.806c0.021,3.292 -0.755,6.967 -3.525,9.055c-2.814,2.069 -6.55,2.216 -9.883,1.729c-1.255,-0.215 -2.486,-0.597 -3.624,-1.174c0,-1.068 0,-2.136 0,-3.203c3.071,1.765 6.995,2.602 10.339,1.108c2.34,-1.054 3.376,-3.712 3.461,-6.134c0.05,-1.045 0.02,-2.092 0.028,-3.139c-0.828,1.114 -1.807,2.366 -3.156,2.987c-3.182,1.552 -7.503,1.015 -9.802,-1.824c-2.356,-2.777 -2.576,-6.688 -2.037,-10.141c0.506,-3.42 2.721,-6.851 6.207,-7.775c2.753,-0.767 6.163,-0.419 8.049,1.952c0.407,0.621 0.899,1.355 0.739,0.232c0,-0.69 0,-1.381 0,-2.071c1.068,0 2.136,0 3.204,0c0,6.133 0,12.265 0,18.398zM255.187,171.365c-0.079,-1.897 0.299,-3.907 -0.629,-5.661c-1.003,-2.031 -3.281,-3.312 -5.541,-3.051c-2.287,0.068 -4.294,1.712 -5.059,3.828c-0.882,2.44 -0.998,5.208 -0.214,7.691c0.693,2.173 2.69,3.983 5.041,4.001c2.252,0.193 4.499,-1.059 5.53,-3.067c0.627,-1.138 0.875,-2.451 0.872,-3.741z"/></g></g></svg>