<svg version="1.1" xmlns="http://www.w3.org/2000/svg" xmlns:xlink="http://www.w3.org/1999/xlink" width="106.53569" height="63.25692" viewBox="0,0,106.53569,63.25692"><g transform="translate(-127.87758,-187.92127)"><g data-paper-data="{&quot;isPaintingLayer&quot;:true}" fill="#b9b9b9" fill-rule="nonzero" stroke="none" stroke-width="1" stroke-linecap="butt" stroke-linejoin="miter" stroke-miterlimit="10" stroke-dasharray="" stroke-dashoffset="0" style="mix-blend-mode: normal"><path d="M140.03204,251.17819c-3.86748,0 -6.89421,-1.07063 -8.99434,-3.18353c-2.1285,-2.13559 -3.16012,-5.11762 -3.16012,-9.11708v-38.6557c0,-3.99945 1.03445,-6.98219 3.16224,-9.1185c2.10225,-2.11147 5.12827,-3.18211 8.99291,-3.18211h82.16863c3.88735,0 6.9233,1.06425 9.02413,3.15728l0.03547,0.03547c2.1285,2.21364 3.15231,5.18573 3.15231,9.10785v38.65499c0,3.92141 -1.02381,6.8935 -3.1289,9.0816l-0.03903,0.04044c-2.12212,2.11431 -5.15806,3.17572 -9.04329,3.17572z"/><path d="M222.20151,250.46845c3.68876,0 6.5614,-0.99747 8.53869,-2.96514l0.03291,-0.03386c1.97191,-2.05229 2.9305,-4.86283 2.9305,-8.59208v-38.65515c0,-3.72753 -0.96482,-6.54454 -2.94929,-8.61155l-0.02979,-0.02975c-1.96317,-1.95757 -4.8307,-2.95014 -8.52301,-2.95014h-82.16908c-3.66954,0 -6.52599,1.00033 -8.49002,2.97326c-1.98854,1.99703 -2.95518,4.81606 -2.95518,8.61817v38.65515c0,3.80243 0.96604,6.62095 2.95362,8.61702c1.9623,1.97347 4.81935,2.97406 8.49156,2.97406h82.16908M222.20151,251.17797h-82.16908c-3.86779,0 -6.8939,-1.07062 -8.99468,-3.1833c-2.12625,-2.1353 -3.16001,-5.11785 -3.16001,-9.11727v-38.65515c0,-3.99938 1.03419,-6.98197 3.16192,-9.11879c2.10208,-2.11157 5.12811,-3.18215 8.99277,-3.18215h82.16908c3.8871,0 6.92309,1.0623 9.02395,3.15724l0.0356,0.03555c2.12816,2.21351 3.15205,5.1854 3.15205,9.10814v38.65515c0,3.92161 -1.02355,6.89346 -3.12918,9.08446l-0.03915,0.04032c-2.12218,2.11429 -5.15773,3.17582 -9.04327,3.17582z"/></g></g></svg>