<svg version="1.1" xmlns="http://www.w3.org/2000/svg" xmlns:xlink="http://www.w3.org/1999/xlink" width="225.56215" height="58.99992" viewBox="0,0,225.56215,58.99992"><g transform="translate(-127.87758,-117.68077)"><g data-paper-data="{&quot;isPaintingLayer&quot;:true}" fill-rule="nonzero" stroke="none" stroke-width="1" stroke-linecap="butt" stroke-linejoin="miter" stroke-miterlimit="10" stroke-dasharray="" stroke-dashoffset="0" style="mix-blend-mode: normal"><g fill="#b9b9b9"><path d="M140.03204,176.68069c-3.86748,0 -6.89421,-1.07063 -8.99434,-3.18353c-2.1285,-2.13559 -3.16012,-5.11762 -3.16012,-9.11708v-34.3987c0,-3.99945 1.03445,-6.98219 3.16224,-9.1185c2.10225,-2.11147 5.12827,-3.18211 8.99291,-3.18211h201.19509c3.88735,0 6.9233,1.06425 9.02413,3.15728l0.03547,0.03547c2.1285,2.21364 3.15231,5.18573 3.15231,9.10785v34.39799c0,3.92141 -1.02381,6.8935 -3.1289,9.0816l-0.03903,0.04044c-2.12212,2.11431 -5.15806,3.17572 -9.04329,3.17572z"/><path d="M341.22784,176.68048v-0.7095c3.6885,0 6.56132,-0.99769 8.5386,-2.96514l0.03473,-0.03564c1.9707,-2.05216 2.92877,-4.86227 2.92877,-8.59034v-34.39816c0,-3.72732 -0.96473,-6.54428 -2.94903,-8.61124l-0.03014,-0.03005c-1.96308,-1.95757 -4.83061,-2.95014 -8.52292,-2.95014h-201.19526c-3.66954,0 -6.52599,1.00033 -8.49002,2.97324c-1.98854,1.99705 -2.95518,4.81608 -2.95518,8.61819v34.39816c0,3.80243 0.96604,6.62095 2.95362,8.61698c1.9623,1.97347 4.81935,2.97411 8.49156,2.97411l201.19526,0.00004v0.7095M341.22784,176.68048l-201.19526,-0.00004c-3.86779,0 -6.8939,-1.07062 -8.99468,-3.1833c-2.12625,-2.1353 -3.16001,-5.11785 -3.16001,-9.11727v-34.39816c0,-3.99936 1.03419,-6.98196 3.16192,-9.11879c2.10208,-2.11157 5.12811,-3.18215 8.99277,-3.18215h201.19526c3.8871,0 6.92309,1.0623 9.02395,3.15724l0.0356,0.03558c2.12816,2.21348 3.15205,5.18536 3.15205,9.10812v34.39816c0,3.92165 -1.02355,6.89346 -3.12918,9.08449l-0.03915,0.04027c-2.12218,2.11429 -5.15773,3.17586 -9.04327,3.17586z"/></g><path d="M139.17424,149.53233h7.26954v7.2887h-7.26954z" fill="#000000" opacity="0"/><path d="M202.93294,150.20988h7.93221v5.61782h-7.93221z" fill="#000000" opacity="0"/><path d="M224.32498,150.20988h7.93221v5.61782h-7.93221z" fill="#000000" opacity="0"/><path d="M245.71723,150.20988h7.93221v5.61782h-7.93221z" fill="#000000" opacity="0"/><path d="M288.88104,150.20988h7.93221v5.61782h-7.93221z" fill="#000000" opacity="0"/><path d="M312.23429,150.20988h7.93221v5.61782h-7.93221z" fill="#000000" opacity="0"/><path d="M334.96304,150.20988h7.93221v5.61782h-7.93221z" fill="#000000" opacity="0"/><path d="M266.26919,148.8782h8.36643v8.28129h-8.36643z" fill="#000000" opacity="0"/></g></g></svg>