<svg version="1.1" xmlns="http://www.w3.org/2000/svg" xmlns:xlink="http://www.w3.org/1999/xlink" width="22.774" height="28.946" viewBox="0,0,22.774,28.946"><g transform="translate(-239.789,-151.931)"><g data-paper-data="{&quot;isPaintingLayer&quot;:true}" fill="#ffffff" fill-rule="nonzero" stroke="none" stroke-width="1" stroke-linecap="butt" stroke-linejoin="miter" stroke-miterlimit="10" stroke-dasharray="" stroke-dashoffset="0" style="mix-blend-mode: normal"><path d="M262.563,178.494c-2.813,1.588 -5.938,2.383 -9.375,2.383c-3.998,0 -7.23,-1.289 -9.698,-3.868c-2.467,-2.578 -3.701,-5.989 -3.701,-10.234c0,-4.336 1.37,-7.894 4.111,-10.674c2.741,-2.78 6.215,-4.17 10.42,-4.17c3.047,0 5.606,0.495 7.676,1.485v3.632c-2.266,-1.432 -4.948,-2.148 -8.047,-2.148c-3.138,0 -5.709,1.081 -7.715,3.242c-2.005,2.162 -3.007,4.961 -3.007,8.399c0,3.541 0.931,6.325 2.793,8.349c1.861,2.025 4.388,3.037 7.578,3.037c2.187,0 4.082,-0.436 5.683,-1.308v-7.852h-6.133v-2.969h9.414z"/></g></g></svg>