<svg version="1.1" xmlns="http://www.w3.org/2000/svg" xmlns:xlink="http://www.w3.org/1999/xlink" width="19.687" height="20.938" viewBox="0,0,19.687,20.938"><g transform="translate(-239.797,-159.939)"><g data-paper-data="{&quot;isPaintingLayer&quot;:true}" fill="#ffffff" fill-rule="nonzero" stroke="none" stroke-width="1" stroke-linecap="butt" stroke-linejoin="miter" stroke-miterlimit="10" stroke-dasharray="" stroke-dashoffset="0" style="mix-blend-mode: normal"><path d="M249.523,180.877c-2.955,0 -5.315,-0.935 -7.08,-2.803c-1.764,-1.869 -2.646,-4.346 -2.646,-7.432c0,-3.359 0.918,-5.983 2.754,-7.871c1.836,-1.888 4.316,-2.832 7.441,-2.832c2.982,0 5.309,0.918 6.983,2.754c1.673,1.836 2.509,4.382 2.509,7.637c0,3.19 -0.901,5.745 -2.705,7.666c-1.803,1.92 -4.222,2.881 -7.256,2.881zM249.758,162.634c-2.057,0 -3.685,0.7 -4.883,2.1c-1.198,1.4 -1.797,3.33 -1.797,5.791c0,2.37 0.606,4.238 1.817,5.606c1.21,1.367 2.832,2.05 4.863,2.05c2.07,0 3.662,-0.67 4.775,-2.011c1.113,-1.342 1.67,-3.249 1.67,-5.723c0,-2.5 -0.557,-4.427 -1.67,-5.781c-1.113,-1.354 -2.705,-2.032 -4.775,-2.032z"/></g></g></svg>