<svg version="1.1" xmlns="http://www.w3.org/2000/svg" xmlns:xlink="http://www.w3.org/1999/xlink" width="42" height="42" viewBox="0,0,42,42"><defs><linearGradient x1="236.7041" y1="159" x2="236.7041" y2="201" gradientUnits="userSpaceOnUse" id="color-1"><stop offset="0" stop-color="#30ffaf"/><stop offset="1" stop-color="#08c5ff"/></linearGradient></defs><g transform="translate(-219,-159)"><g data-paper-data="{&quot;isPaintingLayer&quot;:true}" stroke-linecap="butt" stroke-linejoin="miter" stroke-miterlimit="10" stroke-dasharray="" stroke-dashoffset="0" style="mix-blend-mode: normal"><g stroke="none" stroke-width="1"><path d="M219,180c0,-11.59798 9.40202,-21 21,-21c11.59798,0 21,9.40202 21,21c0,11.59798 -9.40202,21 -21,21c-11.59798,0 -21,-9.40202 -21,-21z" fill="#000000" fill-rule="nonzero"/><path d="M219,180c0,-11.59798 9.40202,-21 21,-21c11.59798,0 21,9.40202 21,21c0,11.59798 -9.40202,21 -21,21c-11.59798,0 -21,-9.40202 -21,-21z" fill-opacity="0.1" fill="#000000" fill-rule="evenodd"/></g><path d="M219,180c0,-11.59798 9.40202,-21 21,-21c11.59798,0 21,9.40202 21,21c0,11.59798 -9.40202,21 -21,21c-11.59798,0 -21,-9.40202 -21,-21z" fill="url(#color-1)" fill-rule="evenodd" stroke="none" stroke-width="1"/><g fill-rule="evenodd"><g><path d="M254.12009,169.97944v0c3.73617,3.73618 3.73617,9.79371 0,13.52989l-12.82849,12.82849c-0.78105,0.78105 -2.04738,0.78105 -2.82843,0l-12.11568,-12.11568l14.24271,-14.2427c3.73618,-3.73618 9.79371,-3.73618 13.52989,0z" fill="#404040" stroke="none" stroke-width="1"/><path d="M241.01446,170.4037c3.50186,-3.50186 9.1795,-3.50186 12.68136,0c3.50186,3.50186 3.50186,9.17951 0,12.68137l-12.82849,12.82849c-0.54674,0.54674 -1.43317,0.54674 -1.9799,0l-11.69141,-11.69141z" fill="none" stroke="#373737" stroke-width="1.2"/></g><path d="M239.66296,170.00974l12.56395,12.56395c0.78105,0.78105 0.78105,2.04738 0,2.82843l-10.90734,10.90734c-0.78105,0.78105 -2.04738,0.78105 -2.82843,0l-12.56395,-12.56395c-3.79303,-3.79303 -3.79303,-9.94274 0,-13.73577v0c3.79303,-3.79303 9.94274,-3.79303 13.73577,0z" fill="#ffffff" stroke="none" stroke-width="1"/><g><path d="M241.4505,180.02557l1.00998,-1.00999l8.11519,8.11519l-1.00999,1.00998z" fill="#606060" stroke="none" stroke-width="1"/><path d="M241.75337,180.71264l0.70711,-0.70711l7.12524,7.12524l-0.7071,0.7071z" fill="none" stroke="#373737" stroke-width="1.4"/></g><g><path d="M238.44385,183.05551l1.00999,-1.00998l8.11519,8.11518l-1.00999,1.00999z" fill="#606060" stroke="none" stroke-width="1"/><path d="M238.74673,183.74259l0.7071,-0.7071l7.12524,7.12524l-0.70711,0.70711z" fill="none" stroke="#373737" stroke-width="1.4"/></g><g><path d="M234.06719,181.14124v0c1.16236,1.16236 1.16236,3.04693 0,4.2093l-3.24826,3.24826l-4.2093,-4.2093l3.24826,-3.24826c1.16236,-1.16236 3.04693,-1.16236 4.2093,0z" fill="#404040" stroke="none" stroke-width="1"/><path d="M230.35286,181.63622c0.889,-0.889 2.33035,-0.889 3.21935,0c0.889,0.889 0.889,2.33035 0,3.21935l-2.75329,2.75328l-3.21935,-3.21935z" fill="none" stroke="#373737" stroke-width="1.4"/></g><g><path d="M237.17405,184.27219v0c1.10701,1.10701 1.10701,2.90185 0,4.00886l-3.34848,3.34848l-4.00886,-4.00886l3.34849,-3.34848c1.10701,-1.10701 2.90184,-1.10701 4.00885,0z" fill="#404040" stroke="none" stroke-width="1"/><path d="M233.66017,184.76716c0.83365,-0.83365 2.18526,-0.83365 3.01891,0c0.83365,0.83365 0.83365,2.18526 0,3.01891l-2.85351,2.85351l-3.01891,-3.01891z" fill="none" stroke="#373737" stroke-width="1.4"/></g><g><path d="M240.18069,187.30214v0c1.10701,1.10701 1.10701,2.90185 0,4.00886l-3.34848,3.34848l-4.00886,-4.00885l3.34848,-3.34849c1.10701,-1.10701 2.90184,-1.10701 4.00886,0z" fill="#404040" stroke="none" stroke-width="1"/><path d="M236.66681,187.79711c0.83365,-0.83365 2.18525,-0.83365 3.0189,0c0.83365,0.83365 0.83365,2.18526 0,3.01891l-2.8535,2.8535l-3.0189,-3.0189z" fill="none" stroke="#373737" stroke-width="1.4"/></g><g><path d="M243.28756,190.43309v0c1.16236,1.16236 1.16236,3.04693 0,4.2093l-1.83405,1.83405c-0.78105,0.78105 -2.04738,0.78105 -2.82843,0l-2.79508,-2.79508l3.24826,-3.24826c1.16236,-1.16236 3.04693,-1.16236 4.2093,0z" fill="#404040" stroke="none" stroke-width="1"/><path d="M239.57323,190.92806c0.889,-0.889 2.33035,-0.889 3.21935,0c0.889,0.889 0.889,2.33035 0,3.21935l-1.83404,1.83405c-0.50768,0.50768 -1.3308,0.50768 -1.83848,0l-2.30011,-2.30011z" fill="none" stroke="#373737" stroke-width="1.4"/></g><g><path d="M244.1057,173.44269l-3.89584,3.89584c-2.09185,2.09185 -5.3581,2.21715 -7.29537,0.27988l7.68347,-7.68347" fill="#404040" stroke="none" stroke-width="1"/><path d="M239.71489,176.84355c-1.6407,1.6407 -4.08591,1.89509 -5.76606,0.73046l6.64913,-6.64912l2.5178,2.5178z" fill="none" stroke="#373737" stroke-width="1.4"/></g></g></g></g></svg>