<svg version="1.1" xmlns="http://www.w3.org/2000/svg" xmlns:xlink="http://www.w3.org/1999/xlink" width="480.08068" height="304.27647" viewBox="0,0,480.08068,304.27647"><defs><linearGradient x1="280.77297" y1="157.6342" x2="325.26554" y2="118.42818" gradientUnits="userSpaceOnUse" id="color-1"><stop offset="0" stop-color="#8c21bc"/><stop offset="0.473" stop-color="#bf2268"/><stop offset="1" stop-color="#ff3e28"/></linearGradient></defs><g transform="translate(-0.13881,-16.19098)"><g data-paper-data="{&quot;isPaintingLayer&quot;:true}" fill-rule="nonzero" stroke-miterlimit="10" stroke-dasharray="" stroke-dashoffset="0" style="mix-blend-mode: normal"><path d="M10.13881,26.51602c0,0 7.35842,0 9.31419,0c19.82628,0 83.48271,0 83.48271,0v283.95143h-92.7969z" fill="#f0f1f4" stroke="#f0f1f4" stroke-width="20" stroke-linecap="round" stroke-linejoin="round"/><path d="M111.28528,26.19098c0,0 28.46205,0 36.02687,0c76.68719,0 322.90734,0 322.90734,0v283.6181h-358.93421z" fill="#fbfbfb" stroke="#fbfbfb" stroke-width="20" stroke-linecap="round" stroke-linejoin="round"/><path d="M83.50002,309.83331v-283.33333h21v283.33333z" fill="#f0f1f4" stroke="#f0f1f4" stroke-width="20" stroke-linecap="butt" stroke-linejoin="miter"/><g stroke-linejoin="miter"><path d="M456.8728,26.86407c0,-3.85021 3.12119,-6.9714 6.9714,-6.9714c3.85021,0 6.9714,3.12119 6.9714,6.9714c0,3.85021 -3.12118,6.9714 -6.9714,6.9714c-3.85021,0 -6.9714,-3.12119 -6.9714,-6.9714z" fill="#ff4848" stroke="#ff3535" stroke-width="0" stroke-linecap="butt"/><path d="M466.39649,29.40185l-5.12381,-5.12381" fill="none" stroke="#ffffff" stroke-width="1.5" stroke-linecap="round"/><path d="M466.39646,24.27806l-5.12381,5.12381" data-paper-data="{&quot;index&quot;:null}" fill="none" stroke="#ffffff" stroke-width="1.5" stroke-linecap="round"/><path d="M421.26957,26.87672c0,-3.85021 3.12119,-6.9714 6.9714,-6.9714c3.85021,0 6.9714,3.12119 6.9714,6.9714c0,3.85021 -3.12118,6.9714 -6.9714,6.9714c-3.85021,0 -6.9714,-3.12119 -6.9714,-6.9714z" fill="#fbfbfb" stroke="#ff3535" stroke-width="0" stroke-linecap="butt"/><path d="M424.76857,26.79705h7.02478" fill="none" stroke="#000000" stroke-width="1.5" stroke-linecap="round"/><path d="M438.96077,26.86407c0,-3.85021 3.12119,-6.9714 6.9714,-6.9714c3.85021,0 6.9714,3.12119 6.9714,6.9714c0,3.85021 -3.12118,6.9714 -6.9714,6.9714c-3.85021,0 -6.9714,-3.12119 -6.9714,-6.9714z" fill="#fbfbfb" stroke="#ff3535" stroke-width="0" stroke-linecap="butt"/></g><g fill="none" stroke="#000000" stroke-width="1" stroke-linecap="round" stroke-linejoin="miter"><path d="M448.33997,24.55343l-4.91018,4.91018"/><path d="M448.38302,24.48405h-3.06157"/><path d="M448.39047,24.64379l0.00001,3.06157"/><path d="M443.4279,29.64679h3.06157"/><path d="M443.42044,29.48705l-0.00001,-3.06157"/></g><g stroke="none" stroke-width="1" stroke-linecap="butt" stroke-linejoin="miter"><path d="M317.3755,138.28584c-0.8192,-0.60803 -1.21562,-1.63304 -1.01871,-2.63405l0.19359,-1.51062l-1.08853,-1.07161l-1.94962,0.42314c-1.60657,0.33048 -3.26383,-0.25794 -4.30229,-1.52754l-3.35445,-3.37243c-1.26648,-1.16331 -1.61648,-3.02133 -0.86004,-4.5657l0.89601,-2.33574c-2.03637,-1.12767 -4.81112,-0.87802 -7.69165,-0.06982c-1.17644,0.41577 -2.48651,0.01696 -3.23174,-0.9838c-0.69815,-1.1405 -0.48429,-2.6166 0.50883,-3.51208c5.35591,-5.42679 15.61286,-4.93489 20.96877,0.4041l3.37138,3.38513c1.56245,1.54552 2.10724,3.02018 1.75603,4.61859l-0.42314,1.84384l1.0716,1.05785l1.49158,-0.1407c0.99196,-0.17956 2.00268,0.19794 2.63405,0.9838l1.14037,1.17739c0.56685,0.49309 0.90096,1.20127 0.92107,1.9523c0.02011,0.75104 -0.27563,1.47608 -0.81529,1.99878l-5.09251,5.11049c-0.5171,0.55688 -1.24878,0.86441 -2.00844,0.84417c-0.75968,-0.02024 -1.47391,-0.36632 -1.96062,-0.94995zM282.1776,152.93394c-1.96655,-1.98453 -1.89568,-4.56571 0.38717,-6.4984l19.86226,-16.96479l6.51531,6.51532l-16.9648,19.86332c-1.93164,2.26486 -4.51386,2.35267 -6.48041,0.38612z" fill="url(#color-1)" opacity="0.9"/><path d="M220.41461,194.34717c-0.68976,-0.7166 -1.03246,-1.69854 -0.93834,-2.68872v-5.20676c-0.0402,-0.37655 0.08743,-0.7517 0.34892,-1.02561c0.26148,-0.27392 0.63029,-0.41881 1.00831,-0.39614c0.37842,-0.02418 0.74817,0.12024 1.01001,0.39452c0.26184,0.27428 0.38896,0.65033 0.34722,1.02722v4.63975c0,1.32972 0.6601,2.03636 1.8597,2.03636c0.56332,0.00922 1.10297,-0.22622 1.47937,-0.64544c0.3764,-0.41921 0.55256,-0.98101 0.48295,-1.54008v-4.49059c-0.0402,-0.37655 0.08743,-0.7517 0.34892,-1.02561c0.26148,-0.27392 0.6303,-0.41881 1.00832,-0.39614c0.37895,-0.02517 0.74959,0.11882 1.01216,0.39323c0.26257,0.27441 0.39009,0.65103 0.34824,1.02852v7.57001c0.04233,0.36462 -0.07967,0.72918 -0.33292,0.9949c-0.25325,0.26572 -0.61152,0.40507 -0.97776,0.38031c-0.36868,0.02768 -0.7304,-0.11119 -0.98583,-0.3785c-0.25543,-0.26731 -0.37773,-0.63495 -0.33332,-1.002v-0.61356h-0.05606c-0.43578,1.25453 -1.65334,2.06566 -2.97892,1.98454c-0.99304,0.05628 -1.96119,-0.32362 -2.65095,-1.04022zM232.04149,195.39691c-0.37668,0.02485 -0.74513,-0.11784 -1.00681,-0.38993c-0.26168,-0.27209 -0.38992,-0.64581 -0.35041,-1.02124v-7.58693c-0.03922,-0.36316 0.08411,-0.72509 0.33693,-0.98871c0.25281,-0.26363 0.60926,-0.40202 0.97375,-0.37804c0.37081,-0.02709 0.73485,0.10974 0.99601,0.37436c0.26117,0.26462 0.39318,0.63044 0.36121,1.00086v0.55749h0.05607c0.4933,-1.24101 1.73616,-2.01717 3.06777,-1.91578c2.21303,0 3.45918,1.39425 3.45918,3.72788v5.20675c0.04018,0.37579 -0.08776,0.75011 -0.34952,1.02269c-0.26176,0.27257 -0.63061,0.41555 -1.0077,0.39061c-0.37731,0.02641 -0.74687,-0.11595 -1.00896,-0.38864c-0.26209,-0.2727 -0.38965,-0.64764 -0.34827,-1.02359v-4.63975c0,-1.30539 -0.61355,-2.04588 -1.83114,-2.04588c-0.56476,-0.00743 -1.10569,0.2273 -1.48604,0.64486c-0.38035,0.41755 -0.56373,0.97798 -0.50378,1.5396v4.5001c0.04172,0.37613 -0.0857,0.75136 -0.34783,1.02433c-0.26212,0.27295 -0.63189,0.41545 -1.0094,0.38897zM241.48278,190.20391c0,-3.16192 1.58043,-5.12318 4.0812,-5.12318c1.29874,-0.05121 2.49975,0.6872 3.04027,1.86923h0.05607v-3.94685c-0.04054,-0.37672 0.08694,-0.75216 0.34847,-1.02633c0.26153,-0.27417 0.63054,-0.41921 1.00876,-0.39648c0.37863,-0.02424 0.74856,0.12033 1.01045,0.39487c0.26189,0.27453 0.38884,0.65088 0.34678,1.02795v11.01649c0.03574,0.36964 -0.09368,0.73619 -0.35362,1.00143c-0.25994,0.26523 -0.62379,0.40205 -0.99408,0.37377c-0.3724,0.03005 -0.73911,-0.10547 -1.00248,-0.37047c-0.26336,-0.26499 -0.39662,-0.63254 -0.36427,-1.00474v-0.57653h-0.04655c-0.51286,1.22454 -1.74238,1.99236 -3.06777,1.91578c-2.49124,0 -4.06322,-1.97079 -4.06322,-5.15493zM248.67933,190.21766c0,-1.80893 -0.86532,-2.96199 -2.21303,-2.96199c-1.36675,0 -2.20351,1.12978 -2.20351,2.96199c0,1.8322 0.83677,2.9567 2.20351,2.9567c1.34876,0 2.21303,-1.14777 2.21303,-2.9567zM253.01968,190.26421c0,-3.20847 1.86606,-5.24378 4.81324,-5.24378c1.25839,-0.07318 2.48915,0.38855 3.38889,1.27137c0.89973,0.88282 1.38475,2.10459 1.33548,3.36414c0.03446,0.32244 -0.07881,0.64317 -0.3081,0.87247c-0.2293,0.2293 -0.55002,0.34256 -0.87247,0.3081h-5.69231v0.1206c-0.0647,0.63533 0.14718,1.26779 0.58152,1.73595c0.43435,0.46816 1.04917,0.72677 1.68758,0.7098c0.94365,0.02364 1.83673,-0.42568 2.38017,-1.19749c0.21716,-0.26219 0.54301,-0.40971 0.88331,-0.39987c0.27535,-0.02081 0.54676,0.07506 0.74795,0.26418c0.2012,0.18912 0.31365,0.4541 0.3099,0.73021c-0.00622,0.23209 -0.07022,0.45897 -0.18619,0.6601c-0.91626,1.3545 -2.49723,2.10282 -4.12563,1.9528c-3.11537,0 -4.94335,-1.92212 -4.94335,-5.14857zM259.94336,189.17144c0.02541,-0.5657 -0.18369,-1.11682 -0.57794,-1.52329c-0.39426,-0.40648 -0.93875,-0.63229 -1.50497,-0.62414c-1.186,0 -2.14744,0.96143 -2.14744,2.14744zM264.49433,195.00632c-0.26193,-0.27254 -0.39012,-0.64683 -0.35029,-1.02271v-7.58692c-0.03582,-0.36237 0.08864,-0.72229 0.34069,-0.98512c0.25205,-0.26282 0.60644,-0.40225 0.96999,-0.38163c0.36004,-0.01632 0.70923,0.12551 0.95592,0.38826c0.24669,0.26275 0.36622,0.62019 0.32726,0.97849v0.65058h0.05607c0.1107,-1.07827 0.99089,-1.9149 2.07339,-1.97079c0.30294,-0.01978 0.60301,0.06911 0.84628,0.25071c0.28134,0.25422 0.42605,0.62641 0.39035,1.0039c0.02469,0.36783 -0.11889,0.72697 -0.39035,0.9764c-0.34056,0.25126 -0.75795,0.37619 -1.18057,0.35333c-1.23663,0.01905 -1.67352,0.71616 -1.67352,1.89673v4.42605c0.04172,0.37613 -0.0857,0.75136 -0.34783,1.02433c-0.26212,0.27295 -0.63189,0.41545 -1.0094,0.38897c-0.37716,0.02489 -0.74608,-0.11805 -1.008,-0.39059zM274.8506,190.21237c0,-3.18731 1.89674,-5.19724 4.89046,-5.19724c1.7545,-0.1346 3.41591,0.80629 4.20285,2.38017c0.08986,0.21233 0.14038,0.43922 0.14916,0.66962c0.00151,0.29989 -0.12435,0.58633 -0.34625,0.78805c-0.2219,0.20174 -0.519,0.2998 -0.81739,0.26981c-0.49068,0.02381 -0.94533,-0.25715 -1.14354,-0.70665c-0.33968,-0.77846 -1.11198,-1.27831 -1.96126,-1.26942c-1.37521,0 -2.22149,1.13508 -2.22149,3.05931c0,1.96126 0.84629,3.07729 2.20351,3.07729c0.82243,0.01941 1.58255,-0.43642 1.9528,-1.17104c0.2128,-0.49193 0.70071,-0.80746 1.23663,-0.79973c0.29898,-0.0192 0.59241,0.08727 0.80951,0.29373c0.21711,0.20646 0.33817,0.49417 0.33402,0.79375c-0.0075,0.2455 -0.06775,0.48649 -0.17666,0.70664c-0.84548,1.50836 -2.47643,2.40327 -4.20286,2.30613c-3.00324,0 -4.90844,-1.96867 -4.90949,-5.20041zM285.41751,190.20814c0,-3.22223 1.9528,-5.18348 4.937,-5.18348c2.9842,0 4.937,1.94751 4.937,5.18348c0,3.28252 -1.92423,5.20464 -4.937,5.20464c-3.01171,0 -4.937,-1.93164 -4.937,-5.20464zM290.35447,193.3415c1.32972,0 2.176,-1.12449 2.176,-3.12384c0,-1.9803 -0.8558,-3.12596 -2.176,-3.12596c-1.3202,0 -2.18447,1.14354 -2.18447,3.12384c0,1.99935 0.84523,3.12384 2.18447,3.12384zM297.2247,195.0087c-0.26267,-0.27225 -0.39144,-0.64675 -0.35177,-1.02296v-7.58693c-0.03922,-0.36316 0.08411,-0.72509 0.33693,-0.98871c0.25281,-0.26363 0.60926,-0.40202 0.97375,-0.37804c0.37081,-0.02709 0.73485,0.10974 0.99601,0.37436c0.26117,0.26462 0.39318,0.63044 0.36122,1.00086v0.55749h0.05606c0.4933,-1.24101 1.73617,-2.01717 3.06777,-1.91578c2.21303,0 3.45918,1.39425 3.45918,3.72788v5.20675c0.04005,0.37519 -0.08747,0.74894 -0.34851,1.02139c-0.26103,0.27246 -0.62898,0.41586 -1.00554,0.3919c-0.3773,0.02641 -0.74687,-0.11595 -1.00896,-0.38864c-0.26209,-0.2727 -0.38965,-0.64764 -0.34827,-1.02359v-4.63975c0,-1.30539 -0.61356,-2.04588 -1.83114,-2.04588c-0.56477,-0.00743 -1.10569,0.2273 -1.48604,0.64486c-0.38035,0.41755 -0.56374,0.97798 -0.50378,1.5396v4.5001c0.04172,0.37613 -0.08569,0.75136 -0.34782,1.02433c-0.26213,0.27295 -0.6319,0.41545 -1.0094,0.38897c-0.3774,0.02616 -0.74703,-0.11596 -1.00969,-0.38821zM307.81651,193.42719c-0.06371,-0.16022 -0.09948,-0.33017 -0.10578,-0.50248c-0.00484,-0.28744 0.11113,-0.56374 0.31967,-0.76163c0.20855,-0.19788 0.49053,-0.29921 0.77732,-0.2793c0.4662,0.01494 0.90044,0.24061 1.18057,0.61355c0.49662,0.697 1.32291,1.08184 2.176,1.01343c0.98592,0 1.62698,-0.40939 1.62698,-1.06949c0,-0.53844 -0.3438,-0.82936 -1.3202,-1.04093l-1.67352,-0.35332c-1.95174,-0.41786 -2.93766,-1.41012 -2.93766,-2.89112c0,-1.90625 1.64708,-3.13336 4.23141,-3.13336c2.06387,0 3.57871,0.93937 3.90454,2.06387c0.03917,0.12986 0.06122,0.2643 0.06559,0.39988c0,0.54903 -0.3438,0.92985 -1.04093,0.92985c-0.37436,0.00815 -0.73392,-0.14616 -0.98592,-0.42314c-0.43685,-0.6732 -1.18734,-1.07656 -1.98982,-1.06949c-0.92139,0 -1.56245,0.43795 -1.56245,1.07901c0,0.52152 0.3914,0.86744 1.38578,1.07901l1.64602,0.35333c2.11994,0.44536 2.99372,1.22711 2.99372,2.71445c0,1.9803 -1.77614,3.26348 -4.40702,3.26348c-2.28708,0 -3.81145,-0.81561 -4.28431,-1.98559zM318.7632,187.28423h-0.52047c-0.28081,0.02563 -0.55876,-0.07286 -0.76077,-0.26959c-0.20201,-0.19672 -0.30784,-0.47198 -0.28967,-0.75335c-0.01817,-0.28137 0.08766,-0.55663 0.28967,-0.75335c0.20201,-0.19672 0.47996,-0.29521 0.76077,-0.26959h0.52047v-1.10652c-0.0398,-0.37569 0.08826,-0.74979 0.34994,-1.02228c0.26168,-0.27249 0.6303,-0.41558 1.00728,-0.39102c0.37688,-0.02569 0.74589,0.11628 1.00839,0.38795c0.26249,0.27167 0.3917,0.64533 0.35307,1.02112v1.10652h0.95736c0.27949,-0.02378 0.55545,0.07567 0.75552,0.27228c0.20007,0.19661 0.30431,0.47079 0.28541,0.75066c0.0189,0.27988 -0.08534,0.55406 -0.28541,0.75066c-0.20007,0.19661 -0.47602,0.29606 -0.75552,0.27228h-0.95736v4.76987c0,0.70665 0.24119,1.0039 0.82724,1.05044l0.17243,0.01692c0.66962,0.07511 1.03246,0.35121 1.03246,0.98592c0,0.79974 -0.78069,1.20913 -1.92423,1.20913h-0.09309c-0.74015,0.11114 -1.48969,-0.13028 -2.02584,-0.65252c-0.53614,-0.52223 -0.79718,-1.26516 -0.70554,-2.00797zM325.34632,195.00632c-0.26193,-0.27254 -0.39012,-0.64683 -0.35029,-1.02271v-7.58692c-0.03582,-0.36237 0.08865,-0.72229 0.34069,-0.98512c0.25205,-0.26282 0.60644,-0.40225 0.96999,-0.38163c0.36004,-0.01632 0.70923,0.12551 0.95592,0.38826c0.24669,0.26275 0.36623,0.62019 0.32726,0.97849v0.65058h0.05606c0.1107,-1.07827 0.9909,-1.9149 2.0734,-1.97079c0.30294,-0.01978 0.60301,0.06911 0.84628,0.25071c0.28134,0.25422 0.42605,0.62641 0.39035,1.0039c0.02469,0.36783 -0.11889,0.72697 -0.39035,0.9764c-0.34057,0.25126 -0.75796,0.37619 -1.18057,0.35333c-1.23663,0.01905 -1.67352,0.71616 -1.67352,1.89673v4.42605c0.04172,0.37613 -0.08569,0.75136 -0.34782,1.02433c-0.26213,0.27295 -0.6319,0.41545 -1.0094,0.38897c-0.37716,0.02489 -0.74608,-0.11805 -1.008,-0.39059zM333.00365,194.34802c-0.69025,-0.71669 -1.03321,-1.699 -0.93902,-2.68956v-5.20676c-0.04053,-0.37672 0.08694,-0.75216 0.34846,-1.02633c0.26153,-0.27417 0.63054,-0.41921 1.00876,-0.39648c0.37863,-0.02424 0.74857,0.12034 1.01046,0.39487c0.26189,0.27453 0.38883,0.65088 0.34677,1.02794v4.63869c0,1.32972 0.6601,2.03637 1.85971,2.03637c0.56293,0.00886 1.10209,-0.22657 1.47821,-0.64549c0.37612,-0.41892 0.5523,-0.98025 0.48305,-1.53897v-4.49059c-0.04066,-0.37731 0.08723,-0.75333 0.34948,-1.02762c0.26225,-0.27429 0.63216,-0.4189 1.01092,-0.3952c0.37863,-0.02424 0.74857,0.12034 1.01045,0.39487c0.26189,0.27453 0.38883,0.65088 0.34677,1.02794v7.56471c0.04233,0.36462 -0.07967,0.72919 -0.33292,0.9949c-0.25325,0.26572 -0.61152,0.40508 -0.97776,0.38031c-0.36623,0.02477 -0.72452,-0.1146 -0.97777,-0.38031c-0.25325,-0.26572 -0.37524,-0.63028 -0.33291,-0.9949v-0.61356h-0.05607c-0.43631,1.25652 -1.65671,2.06811 -2.9842,1.98454c-0.9934,0.05693 -1.96214,-0.3227 -2.65239,-1.03938zM347.82145,195.41278c-3.00324,0 -4.90845,-1.96867 -4.9095,-5.1983c0,-3.18731 1.89674,-5.19724 4.89046,-5.19724c1.7545,-0.1346 3.41591,0.80629 4.20285,2.38018c0.08986,0.21233 0.14038,0.43922 0.14916,0.66962c0.00151,0.29989 -0.12435,0.58633 -0.34625,0.78805c-0.2219,0.20174 -0.51901,0.29979 -0.8174,0.2698c-0.49068,0.02381 -0.94532,-0.25715 -1.14353,-0.70665c-0.33968,-0.77846 -1.11198,-1.2783 -1.96126,-1.26942c-1.37521,0 -2.22149,1.13507 -2.22149,3.05931c0,1.96126 0.84628,3.0773 2.20351,3.0773c0.82243,0.01941 1.58254,-0.43642 1.95279,-1.17105c0.2128,-0.49193 0.70072,-0.80746 1.23664,-0.79973c0.29898,-0.0192 0.5924,0.08728 0.80951,0.29374c0.21711,0.20646 0.33817,0.49416 0.33402,0.79373c-0.0075,0.2455 -0.06776,0.4865 -0.17666,0.70665c-0.84548,1.50836 -2.47642,2.40326 -4.20285,2.30612zM354.56526,187.28h-0.52047c-0.28081,0.02563 -0.55876,-0.07286 -0.76078,-0.26959c-0.20201,-0.19672 -0.30785,-0.47198 -0.28967,-0.75335c-0.01817,-0.28137 0.08767,-0.55663 0.28967,-0.75335c0.20201,-0.19672 0.47997,-0.29521 0.76078,-0.26959h0.52258v-1.10652c-0.0398,-0.37569 0.08826,-0.74979 0.34995,-1.02228c0.26168,-0.27249 0.63029,-0.41558 1.00727,-0.39102c0.37698,-0.02456 0.74561,0.11854 1.00728,0.39102c0.26168,0.27249 0.38975,0.64659 0.34995,1.02228v1.10652h0.95736c0.27949,-0.02378 0.55545,0.07567 0.75552,0.27228c0.20007,0.19661 0.3043,0.47079 0.28541,0.75066c0.0189,0.27988 -0.08534,0.55406 -0.28541,0.75066c-0.20007,0.19661 -0.47602,0.29606 -0.75552,0.27228h-0.95736v4.76774c0,0.70665 0.24119,1.00391 0.82724,1.05045l0.17666,0.01904c0.66962,0.07511 1.03247,0.35121 1.03247,0.98592c0,0.79974 -0.7807,1.20913 -1.92424,1.20913h-0.09309c-0.74025,0.1121 -1.49031,-0.12857 -2.02712,-0.65044c-0.53681,-0.52187 -0.79857,-1.26484 -0.70743,-2.00795zM362.20508,183.99749c-0.37973,0.01024 -0.74761,-0.13282 -1.02066,-0.39691c-0.27305,-0.26409 -0.42828,-0.627 -0.43071,-1.00687c0.00097,-0.38014 0.1556,-0.74373 0.42875,-1.00811c0.27315,-0.26438 0.64159,-0.40708 1.02156,-0.39566c0.37997,-0.01143 0.7484,0.13128 1.02155,0.39566c0.27315,0.26438 0.42779,0.62797 0.42876,1.00811c-0.00243,0.37967 -0.15752,0.74242 -0.43034,1.00648c-0.27282,0.26406 -0.64041,0.40725 -1.01997,0.3973zM362.20508,195.39691c-0.37718,0.02553 -0.74626,-0.11753 -1.00769,-0.39061c-0.26143,-0.27308 -0.3883,-0.64803 -0.34636,-1.02374v-7.53086c-0.04206,-0.37706 0.08491,-0.75341 0.34678,-1.02794c0.26189,-0.27453 0.63182,-0.41911 1.01045,-0.39487c0.37811,-0.02236 0.7469,0.1228 1.00833,0.39687c0.26144,0.27407 0.38904,0.6493 0.3489,1.02594v7.53191c0.03963,0.3763 -0.08913,0.75087 -0.35174,1.02328c-0.26261,0.2724 -0.63222,0.41479 -1.00972,0.38897zM365.19348,190.20603c0,-3.22223 1.9528,-5.18349 4.937,-5.18349c2.9842,0 4.937,1.94751 4.937,5.18349c0,3.28252 -1.92424,5.20675 -4.937,5.20675c-3.01171,0 -4.937,-1.93164 -4.937,-5.20675zM370.13052,193.3415c1.32972,0 2.17601,-1.1245 2.17601,-3.12596c0,-1.9803 -0.85581,-3.12384 -2.17601,-3.12384c-1.3202,0 -2.18447,1.14354 -2.18447,3.12384c0,1.99935 0.84523,3.12384 2.18447,3.12384zM377.00294,195.00741c-0.26193,-0.27212 -0.3903,-0.64604 -0.35075,-1.02167v-7.58693c-0.03922,-0.36316 0.08411,-0.72509 0.33694,-0.98871c0.25281,-0.26363 0.60926,-0.40202 0.97374,-0.37804c0.37081,-0.02709 0.73485,0.10974 0.99601,0.37436c0.26117,0.26462 0.39318,0.63044 0.36121,1.00086v0.55749h0.05607c0.4933,-1.24101 1.73617,-2.01717 3.06777,-1.91578c2.21303,0 3.45918,1.39425 3.45918,3.72788v5.20675c0.04017,0.37579 -0.08776,0.75011 -0.34953,1.02269c-0.26177,0.27257 -0.63061,0.41555 -1.0077,0.39061c-0.3773,0.02641 -0.74687,-0.11595 -1.00896,-0.38864c-0.26209,-0.2727 -0.38965,-0.64764 -0.34826,-1.02359v-4.63975c0,-1.30539 -0.61356,-2.04588 -1.83114,-2.04588c-0.56477,-0.00743 -1.10569,0.2273 -1.48604,0.64486c-0.38035,0.41755 -0.56374,0.97798 -0.50378,1.5396v4.5001c0.04172,0.37613 -0.08569,0.75136 -0.34782,1.02433c-0.26213,0.27295 -0.6319,0.41545 -1.00941,0.38897c-0.37686,0.02517 -0.7456,-0.11738 -1.00753,-0.3895z" fill="#000000"/></g><path d="M207.86808,250.57765h-2.11431l3.85106,-10.92393h2.44152l3.85106,10.92393h-2.11431l-2.91976,-8.68377h-0.07551zM207.94362,246.29869h5.76401v1.58573h-5.76401zM217.2583,253.64843v-11.26373h1.90036v1.34661h0.11327c0.10068,-0.19297 0.23912,-0.40273 0.41531,-0.62926c0.18458,-0.22653 0.43209,-0.41951 0.74253,-0.57892c0.31043,-0.1678 0.70477,-0.2517 1.18301,-0.2517c0.62926,0 1.19979,0.16361 1.71158,0.49082c0.5118,0.31883 0.91872,0.79287 1.22076,1.42212c0.30204,0.62926 0.45307,1.39695 0.45307,2.30309c0,0.89774 -0.15102,1.66544 -0.45307,2.30309c-0.29366,0.62926 -0.69638,1.1075 -1.20818,1.43471c-0.50341,0.32721 -1.07813,0.49082 -1.72417,0.49082c-0.46985,0 -0.85999,-0.07551 -1.17042,-0.22653c-0.30204,-0.15941 -0.54955,-0.34819 -0.74253,-0.56633c-0.18458,-0.22653 -0.32721,-0.44048 -0.4279,-0.64184h-0.0881v4.36706zM219.14609,246.47488c0,0.53697 0.07551,1.00681 0.22653,1.40954c0.15102,0.39434 0.36917,0.70477 0.65443,0.9313c0.29366,0.21814 0.64184,0.32721 1.04457,0.32721c0.4279,0 0.78448,-0.11327 1.06974,-0.3398c0.29366,-0.23492 0.5118,-0.55375 0.65443,-0.95647c0.15102,-0.40273 0.22653,-0.85999 0.22653,-1.37178c0,-0.50341 -0.07551,-0.95228 -0.22653,-1.34661c-0.14263,-0.39434 -0.35658,-0.70477 -0.64184,-0.9313c-0.28526,-0.22653 -0.64604,-0.3398 -1.08233,-0.3398c-0.41111,0 -0.75931,0.10907 -1.04457,0.32721c-0.28526,0.21814 -0.50341,0.52438 -0.65443,0.91872c-0.15102,0.38594 -0.22653,0.84321 -0.22653,1.37178zM226.64482,253.64843v-11.26373h1.90036v1.34661h0.11327c0.10068,-0.19297 0.23912,-0.40273 0.41531,-0.62926c0.18458,-0.22653 0.43209,-0.41951 0.74253,-0.57892c0.31043,-0.1678 0.70477,-0.2517 1.18301,-0.2517c0.62926,0 1.19979,0.16361 1.71158,0.49082c0.5118,0.31883 0.91872,0.79287 1.22076,1.42212c0.30204,0.62926 0.45307,1.39695 0.45307,2.30309c0,0.89774 -0.15102,1.66544 -0.45307,2.30309c-0.29366,0.62926 -0.69638,1.1075 -1.20818,1.43471c-0.50341,0.32721 -1.07813,0.49082 -1.72417,0.49082c-0.46985,0 -0.85999,-0.07551 -1.17042,-0.22653c-0.30204,-0.15941 -0.54955,-0.34819 -0.74253,-0.56633c-0.18458,-0.22653 -0.32721,-0.44048 -0.4279,-0.64184h-0.0881v4.36706zM228.53255,246.47488c0,0.53697 0.07551,1.00681 0.22653,1.40954c0.15102,0.39434 0.36917,0.70477 0.65443,0.9313c0.29366,0.21814 0.64184,0.32721 1.04457,0.32721c0.4279,0 0.78448,-0.11327 1.06974,-0.3398c0.29366,-0.23492 0.5118,-0.55375 0.65443,-0.95647c0.15102,-0.40273 0.22653,-0.85999 0.22653,-1.37178c0,-0.50341 -0.07551,-0.95228 -0.22653,-1.34661c-0.14263,-0.39434 -0.35658,-0.70477 -0.64184,-0.9313c-0.28526,-0.22653 -0.64604,-0.3398 -1.08233,-0.3398c-0.41111,0 -0.75931,0.10907 -1.04457,0.32721c-0.28526,0.21814 -0.50341,0.52438 -0.65443,0.91872c-0.15102,0.38594 -0.22653,0.84321 -0.22653,1.37178zM249.20019,243.34117h-2.00104c-0.05034,-0.32721 -0.15522,-0.61667 -0.31463,-0.86838c-0.15102,-0.26009 -0.3398,-0.47824 -0.56633,-0.65443c-0.22653,-0.17619 -0.48663,-0.31043 -0.78028,-0.40273c-0.28526,-0.09229 -0.5957,-0.13844 -0.9313,-0.13844c-0.5957,0 -1.12428,0.15102 -1.58573,0.45307c-0.45307,0.29366 -0.80965,0.72574 -1.06974,1.29627c-0.26009,0.57053 -0.39014,1.26691 -0.39014,2.08914c0,0.83062 0.13005,1.53539 0.39014,2.11431c0.26009,0.57053 0.61667,1.00262 1.06974,1.29627c0.46146,0.28526 0.98584,0.4279 1.57315,0.4279c0.32721,0 0.63346,-0.04195 0.91872,-0.12585c0.29366,-0.09229 0.55375,-0.22234 0.78028,-0.39014c0.22653,-0.17619 0.41951,-0.38594 0.57892,-0.62926c0.15941,-0.2517 0.26849,-0.53697 0.32721,-0.85579l2.00104,0.01259c-0.07551,0.5118 -0.23912,0.99843 -0.49082,1.45988c-0.24331,0.45307 -0.56633,0.85579 -0.96906,1.20818c-0.39434,0.344 -0.85999,0.61248 -1.39695,0.80545c-0.52858,0.19297 -1.12008,0.28946 -1.77451,0.28946c-0.95647,0 -1.81227,-0.22234 -2.56738,-0.66701c-0.75511,-0.44468 -1.35081,-1.08652 -1.7871,-1.92553c-0.4279,-0.83901 -0.64184,-1.84582 -0.64184,-3.02044c0,-1.18301 0.21814,-2.18982 0.65443,-3.02044c0.43628,-0.83901 1.03198,-1.48085 1.7871,-1.92553c0.75511,-0.44468 1.60671,-0.66701 2.55479,-0.66701c0.61248,0 1.17881,0.0839 1.699,0.2517c0.52019,0.1678 0.98584,0.41951 1.39695,0.75511c0.41111,0.32721 0.74672,0.72994 1.00681,1.20818c0.26849,0.46985 0.44468,1.01101 0.52858,1.62349zM254.55995,250.74126c-0.82223,0 -1.5312,-0.172 -2.12689,-0.51599c-0.5957,-0.344 -1.05296,-0.83062 -1.37178,-1.45988c-0.31883,-0.63765 -0.47824,-1.38437 -0.47824,-2.24016c0,-0.83901 0.15941,-1.57734 0.47824,-2.21499c0.32721,-0.64604 0.78028,-1.14525 1.3592,-1.49764c0.57892,-0.36077 1.25852,-0.54116 2.0388,-0.54116c0.50341,0 0.98164,0.0839 1.43471,0.2517c0.45307,0.15941 0.8516,0.40692 1.19559,0.74253c0.344,0.3356 0.61667,0.7677 0.81804,1.29627c0.20136,0.52019 0.30204,1.13686 0.30204,1.85002v0.5915h-6.72048v-1.29627h4.87046c-0.00839,-0.36917 -0.09229,-0.69638 -0.2517,-0.98164c-0.15102,-0.29366 -0.36917,-0.52438 -0.65443,-0.69218c-0.27687,-0.1678 -0.59989,-0.2517 -0.96906,-0.2517c-0.39434,0 -0.74253,0.09649 -1.04457,0.28946c-0.29366,0.18458 -0.52438,0.43209 -0.69218,0.74253c-0.15941,0.31043 -0.24331,0.64604 -0.2517,1.00681v1.14525c0,0.46985 0.0881,0.87677 0.26429,1.22076c0.17619,0.3356 0.41951,0.5957 0.72994,0.78028c0.31043,0.17619 0.6754,0.26429 1.09491,0.26429c0.28526,0 0.54116,-0.03776 0.7677,-0.11327c0.22653,-0.0839 0.4237,-0.20136 0.5915,-0.35238c0.1678,-0.15941 0.29366,-0.35658 0.37756,-0.5915l1.79968,0.20136c-0.10907,0.47824 -0.32302,0.89774 -0.64184,1.25852c-0.31883,0.35238 -0.72574,0.62506 -1.22076,0.81804c-0.49502,0.19297 -1.06135,0.28946 -1.699,0.28946zM261.76707,245.77011v4.80754h-1.92553v-8.19295h1.85002v1.38437h0.0881c0.19297,-0.45307 0.49502,-0.81384 0.90613,-1.08233c0.41111,-0.27687 0.92291,-0.41531 1.53539,-0.41531c0.57053,0 1.06554,0.12166 1.48505,0.36497c0.41951,0.24331 0.74672,0.5957 0.98164,1.05715c0.23492,0.45307 0.34819,1.00681 0.3398,1.66124v5.22285h-1.92553v-4.9208c0,-0.54536 -0.14263,-0.97326 -0.4279,-1.28369c-0.27687,-0.31043 -0.66701,-0.46565 -1.17042,-0.46565c-0.3356,0 -0.63346,0.07551 -0.89355,0.22653c-0.26009,0.14263 -0.46565,0.35238 -0.61667,0.62926c-0.15102,0.27687 -0.22653,0.61248 -0.22653,1.00681zM273.09407,242.3847v1.48505h-4.70686v-1.48505zM269.54508,240.42141h1.93812v7.68954c0,0.26009 0.03776,0.46146 0.11327,0.60409c0.0839,0.13424 0.18878,0.22653 0.31463,0.27687c0.13424,0.05034 0.28107,0.07551 0.44048,0.07551c0.12585,0 0.23912,-0.00839 0.3398,-0.02517c0.10068,-0.02517 0.17619,-0.04195 0.22653,-0.05034l0.32721,1.51022c-0.10068,0.03356 -0.24751,0.07131 -0.44048,0.11327c-0.19297,0.04195 -0.4237,0.06712 -0.69218,0.07551c-0.48663,0.01678 -0.92291,-0.05454 -1.30886,-0.21395c-0.38594,-0.1678 -0.69218,-0.41951 -0.91872,-0.75511c-0.22653,-0.344 -0.3398,-0.77189 -0.3398,-1.28369zM278.25284,250.74126c-0.82223,0 -1.5312,-0.172 -2.12689,-0.51599c-0.5957,-0.344 -1.05296,-0.83062 -1.37178,-1.45988c-0.31883,-0.63765 -0.47824,-1.38437 -0.47824,-2.24016c0,-0.83901 0.15941,-1.57734 0.47824,-2.21499c0.32721,-0.64604 0.78028,-1.14525 1.3592,-1.49764c0.57892,-0.36077 1.25852,-0.54116 2.0388,-0.54116c0.50341,0 0.98164,0.0839 1.43471,0.2517c0.45307,0.15941 0.8516,0.40692 1.19559,0.74253c0.344,0.3356 0.61667,0.7677 0.81804,1.29627c0.20136,0.52019 0.30204,1.13686 0.30204,1.85002v0.5915h-6.72048v-1.29627h4.87046c-0.00839,-0.36917 -0.09229,-0.69638 -0.2517,-0.98164c-0.15102,-0.29366 -0.36917,-0.52438 -0.65443,-0.69218c-0.27687,-0.1678 -0.59989,-0.2517 -0.96906,-0.2517c-0.39434,0 -0.74253,0.09649 -1.04457,0.28946c-0.29366,0.18458 -0.52438,0.43209 -0.69218,0.74253c-0.15941,0.31043 -0.24331,0.64604 -0.2517,1.00681v1.14525c0,0.46985 0.0881,0.87677 0.26429,1.22076c0.17619,0.3356 0.41951,0.5957 0.72994,0.78028c0.31043,0.17619 0.6754,0.26429 1.09491,0.26429c0.28526,0 0.54116,-0.03776 0.7677,-0.11327c0.22653,-0.0839 0.4237,-0.20136 0.5915,-0.35238c0.1678,-0.15941 0.29366,-0.35658 0.37756,-0.5915l1.79968,0.20136c-0.10907,0.47824 -0.32302,0.89774 -0.64184,1.25852c-0.31883,0.35238 -0.72574,0.62506 -1.22076,0.81804c-0.49502,0.19297 -1.06135,0.28946 -1.699,0.28946zM283.53454,250.57765v-8.19295h1.87519v1.3592h0.07551c0.15102,-0.46985 0.40692,-0.83482 0.7677,-1.09491c0.36917,-0.26009 0.78867,-0.39014 1.25852,-0.39014c0.10907,0 0.23073,0.00839 0.36497,0.02517c0.13424,0.00839 0.24331,0.02097 0.32721,0.03776v1.77451c-0.07551,-0.03356 -0.20136,-0.05873 -0.37756,-0.07551c-0.17619,-0.02517 -0.34819,-0.03776 -0.51599,-0.03776c-0.35238,0 -0.66701,0.07551 -0.94389,0.22653c-0.27687,0.15102 -0.49921,0.36077 -0.66701,0.62926c-0.15941,0.26849 -0.23912,0.57472 -0.23912,0.91872v4.82012zM293.22515,250.57765v-8.19295h1.92553v8.19295zM294.19417,241.21428c-0.30204,0 -0.56633,-0.10068 -0.79287,-0.30204c-0.21814,-0.20136 -0.32721,-0.44887 -0.32721,-0.74253c0,-0.29366 0.10907,-0.54116 0.32721,-0.74253c0.22653,-0.20136 0.49082,-0.30204 0.79287,-0.30204c0.31043,0 0.57472,0.10068 0.79287,0.30204c0.21814,0.20136 0.32721,0.44887 0.32721,0.74253c0,0.29366 -0.10907,0.54116 -0.32721,0.74253c-0.21814,0.20136 -0.48243,0.30204 -0.79287,0.30204zM303.62334,244.54935l-1.76192,0.18878c-0.05034,-0.17619 -0.13844,-0.3398 -0.26429,-0.49082c-0.12585,-0.15941 -0.29366,-0.28526 -0.50341,-0.37756c-0.20136,-0.10068 -0.44887,-0.15102 -0.74253,-0.15102c-0.40273,0 -0.74253,0.0881 -1.0194,0.26429c-0.26849,0.1678 -0.40273,0.39014 -0.40273,0.66701c0,0.24331 0.0881,0.44048 0.26429,0.5915c0.18458,0.14263 0.48243,0.26429 0.89355,0.36497l1.39695,0.30204c0.78028,0.15941 1.3592,0.4237 1.73675,0.79287c0.37756,0.36077 0.57053,0.83482 0.57892,1.42212c-0.00839,0.5118 -0.16361,0.96486 -0.46565,1.3592c-0.29366,0.39434 -0.70477,0.70477 -1.23335,0.9313c-0.52019,0.21814 -1.12428,0.32721 -1.81227,0.32721c-0.99843,0 -1.80388,-0.20975 -2.41635,-0.62926c-0.61248,-0.4279 -0.97745,-1.0194 -1.09491,-1.77451l1.88778,-0.17619c0.0839,0.36917 0.26429,0.65023 0.54116,0.84321c0.27687,0.18458 0.63765,0.27687 1.08233,0.27687c0.46146,0 0.83062,-0.09229 1.1075,-0.27687c0.27687,-0.19297 0.41531,-0.4279 0.41531,-0.70477c0,-0.23492 -0.09229,-0.4279 -0.27687,-0.57892c-0.17619,-0.15941 -0.44887,-0.27687 -0.81804,-0.35238l-1.40954,-0.30204c-0.78028,-0.15941 -1.3592,-0.43209 -1.73675,-0.81804c-0.37756,-0.39434 -0.56633,-0.88935 -0.56633,-1.48505c0,-0.50341 0.13844,-0.93969 0.41531,-1.30886c0.27687,-0.37756 0.66701,-0.66701 1.17042,-0.86838c0.50341,-0.20975 1.08233,-0.31463 1.73675,-0.31463c0.95647,0 1.71158,0.20556 2.26533,0.61667c0.55375,0.41111 0.89774,0.96486 1.03198,1.66124zM312.69606,250.74126c-0.82223,0 -1.527,-0.18039 -2.11431,-0.54116c-0.57892,-0.36077 -1.02779,-0.85579 -1.34661,-1.48505c-0.31043,-0.63765 -0.46565,-1.37178 -0.46565,-2.20241c0,-0.83062 0.15941,-1.56476 0.47824,-2.20241c0.31883,-0.64604 0.77189,-1.14525 1.3592,-1.49764c0.58731,-0.36077 1.27949,-0.54116 2.07655,-0.54116c0.66282,0 1.25013,0.12166 1.76192,0.36497c0.52019,0.24331 0.9313,0.58731 1.23335,1.03198c0.31043,0.44468 0.48663,0.96067 0.52858,1.54798h-1.85002c-0.07551,-0.39434 -0.2517,-0.72155 -0.52858,-0.98164c-0.27687,-0.26849 -0.65023,-0.40273 -1.12008,-0.40273c-0.39434,0 -0.74253,0.10907 -1.04457,0.32721c-0.29366,0.20975 -0.52438,0.5118 -0.69218,0.90613c-0.1678,0.39434 -0.2517,0.86418 -0.2517,1.40954c0,0.56214 0.0839,1.04457 0.2517,1.4473c0.1678,0.39434 0.39853,0.70057 0.69218,0.91872c0.29366,0.21814 0.64184,0.32721 1.04457,0.32721c0.28526,0 0.54116,-0.05454 0.7677,-0.16361c0.22653,-0.10907 0.41531,-0.26429 0.56633,-0.46565c0.15102,-0.20975 0.2559,-0.46565 0.31463,-0.7677h1.85002c-0.05034,0.58731 -0.22234,1.1033 -0.51599,1.54798c-0.29366,0.44468 -0.69638,0.79287 -1.20818,1.04457c-0.50341,0.2517 -1.09911,0.37756 -1.7871,0.37756zM321.37295,250.74126c-0.79706,0 -1.48925,-0.17619 -2.07655,-0.52858c-0.58731,-0.35238 -1.04457,-0.84321 -1.37178,-1.47247c-0.31883,-0.63765 -0.47824,-1.38017 -0.47824,-2.22758c0,-0.8474 0.15941,-1.58993 0.47824,-2.22758c0.32721,-0.63765 0.78448,-1.13267 1.37178,-1.48505c0.58731,-0.35238 1.27949,-0.52858 2.07655,-0.52858c0.79706,0 1.48925,0.17619 2.07657,0.52858c0.58731,0.35238 1.04037,0.8474 1.3592,1.48505c0.32721,0.63765 0.49082,1.38017 0.49082,2.22758c0,0.8474 -0.16361,1.58993 -0.49082,2.22758c-0.31883,0.62926 -0.77189,1.12008 -1.3592,1.47247c-0.58731,0.35238 -1.2795,0.52858 -2.07657,0.52858zM321.38536,249.19328c0.43628,0 0.79706,-0.11746 1.08233,-0.35238c0.29366,-0.24331 0.5118,-0.56633 0.65443,-0.96906c0.14264,-0.41111 0.21396,-0.86838 0.21396,-1.37178c0,-0.49502 -0.07132,-0.94389 -0.21396,-1.34661c-0.14263,-0.41111 -0.36077,-0.73833 -0.65443,-0.98164c-0.28526,-0.24331 -0.64604,-0.36497 -1.08233,-0.36497c-0.44468,0 -0.81384,0.12166 -1.1075,0.36497c-0.29366,0.24331 -0.51599,0.57053 -0.66701,0.98164c-0.14263,0.40273 -0.21395,0.8516 -0.21395,1.34661c0,0.50341 0.07131,0.96067 0.21395,1.37178c0.15102,0.40273 0.37336,0.72574 0.66701,0.96906c0.29366,0.23492 0.66282,0.35238 1.1075,0.35238zM326.93438,250.57765v-8.19295h1.85002v1.38437h0.0881c0.17619,-0.46985 0.46146,-0.83482 0.85579,-1.09491c0.39434,-0.26849 0.86418,-0.40273 1.40954,-0.40273c0.55375,0 1.0194,0.13424 1.39695,0.40273c0.38594,0.26849 0.65863,0.63346 0.81804,1.09491h0.0881c0.17619,-0.45307 0.47824,-0.81384 0.90613,-1.08233c0.43628,-0.27687 0.95228,-0.41531 1.54798,-0.41531c0.75511,0 1.37178,0.23912 1.85002,0.71736c0.47824,0.47824 0.71736,1.17462 0.71736,2.08914v5.49972h-1.93812v-5.19768c0,-0.5118 -0.13844,-0.88516 -0.41531,-1.12008c-0.26849,-0.23492 -0.5957,-0.35238 -0.98164,-0.35238c-0.46985,0 -0.83482,0.14683 -1.09491,0.44048c-0.26009,0.28526 -0.39014,0.65863 -0.39014,1.12008v5.10958h-1.90036v-5.28577c0,-0.41951 -0.12585,-0.75511 -0.37756,-1.00681c-0.2517,-0.2517 -0.58311,-0.37756 -0.99423,-0.37756c-0.27687,0 -0.52858,0.07131 -0.75511,0.21395c-0.22653,0.13424 -0.41111,0.33141 -0.55375,0.5915c-0.13424,0.2517 -0.20136,0.54536 -0.20136,0.88096v4.98373zM340.4245,250.57765v-8.19295h1.92553v8.19295zM341.39356,241.21428c-0.30204,0 -0.56633,-0.10068 -0.79287,-0.30204c-0.21814,-0.20136 -0.32721,-0.44887 -0.32721,-0.74253c0,-0.29366 0.10907,-0.54116 0.32721,-0.74253c0.22653,-0.20136 0.49082,-0.30204 0.79287,-0.30204c0.31043,0 0.57472,0.10068 0.79287,0.30204c0.21814,0.20136 0.32721,0.44887 0.32721,0.74253c0,0.29366 -0.10907,0.54116 -0.32721,0.74253c-0.21814,0.20136 -0.48243,0.30204 -0.79287,0.30204zM346.26685,245.77011v4.80754h-1.92553v-8.19295h1.85002v1.38437h0.0881c0.19297,-0.45307 0.49502,-0.81384 0.90613,-1.08233c0.41111,-0.27687 0.92291,-0.41531 1.53539,-0.41531c0.57053,0 1.06554,0.12166 1.48505,0.36497c0.41951,0.24331 0.74672,0.5957 0.98164,1.05715c0.23492,0.45307 0.34819,1.00681 0.3398,1.66124v5.22285h-1.92553v-4.9208c0,-0.54536 -0.14263,-0.97326 -0.4279,-1.28369c-0.27687,-0.31043 -0.66701,-0.46565 -1.17042,-0.46565c-0.3356,0 -0.63346,0.07551 -0.89355,0.22653c-0.26009,0.14263 -0.46565,0.35238 -0.61667,0.62926c-0.15102,0.27687 -0.22653,0.61248 -0.22653,1.00681zM357.06527,253.82463c-0.69638,0 -1.29208,-0.09649 -1.7871,-0.28946c-0.49502,-0.18458 -0.89355,-0.43209 -1.19559,-0.74253c-0.30204,-0.31043 -0.5118,-0.65863 -0.62926,-1.04457l1.73675,-0.41531c0.07551,0.15941 0.18878,0.31883 0.3398,0.47824c0.15102,0.15941 0.35238,0.28946 0.60409,0.39014c0.2517,0.10907 0.57472,0.16361 0.96906,0.16361c0.54536,0 0.99843,-0.13424 1.3592,-0.40273c0.36077,-0.26849 0.54116,-0.70477 0.54116,-1.30886v-1.54798h-0.10068c-0.10068,0.20136 -0.24751,0.40692 -0.44048,0.61667c-0.18458,0.20975 -0.43209,0.38594 -0.74253,0.52858c-0.31043,0.14263 -0.70057,0.21395 -1.17042,0.21395c-0.62926,0 -1.19979,-0.14683 -1.71158,-0.44048c-0.5118,-0.30204 -0.91872,-0.74672 -1.22076,-1.33403c-0.30204,-0.5957 -0.45307,-1.34242 -0.45307,-2.24016c0,-0.89774 0.15102,-1.65705 0.45307,-2.27792c0.30204,-0.62087 0.70897,-1.09071 1.22076,-1.40954c0.5118,-0.32721 1.08233,-0.49082 1.71158,-0.49082c0.47824,0 0.87257,0.0839 1.18301,0.2517c0.31043,0.15941 0.55794,0.35238 0.74253,0.57892c0.19297,0.22653 0.3356,0.43628 0.4279,0.62926h0.10068v-1.34661h1.91295v8.33139c0,0.69638 -0.1678,1.2753 -0.50341,1.73675c-0.3356,0.46146 -0.79287,0.80545 -1.37178,1.03198c-0.57892,0.22653 -1.23754,0.3398 -1.97587,0.3398zM357.0778,248.94158c0.41111,0 0.75931,-0.09649 1.04457,-0.28946c0.29366,-0.20136 0.5118,-0.48663 0.65443,-0.85579c0.15102,-0.37756 0.22653,-0.83062 0.22653,-1.3592c0,-0.5118 -0.07551,-0.96067 -0.22653,-1.34661c-0.14263,-0.39434 -0.35658,-0.69638 -0.64184,-0.90613c-0.28526,-0.21814 -0.63765,-0.32721 -1.05715,-0.32721c-0.4279,0 -0.78867,0.11327 -1.08233,0.3398c-0.28526,0.22653 -0.49921,0.53277 -0.64184,0.91872c-0.14263,0.38594 -0.21395,0.82643 -0.21395,1.32144c0,0.50341 0.07131,0.94389 0.21395,1.32144c0.15102,0.37756 0.36917,0.67121 0.65443,0.88096c0.29366,0.20136 0.65023,0.30204 1.06974,0.30204zM373.11223,244.54935l-1.76192,0.18878c-0.05034,-0.17619 -0.13844,-0.3398 -0.26429,-0.49082c-0.12585,-0.15941 -0.29366,-0.28526 -0.50341,-0.37756c-0.20136,-0.10068 -0.44887,-0.15102 -0.74253,-0.15102c-0.40273,0 -0.74253,0.0881 -1.0194,0.26429c-0.26849,0.1678 -0.40273,0.39014 -0.40273,0.66701c0,0.24331 0.0881,0.44048 0.26429,0.5915c0.18458,0.14263 0.48243,0.26429 0.89355,0.36497l1.39695,0.30204c0.78028,0.15941 1.3592,0.4237 1.73675,0.79287c0.37756,0.36077 0.57053,0.83482 0.57892,1.42212c-0.00839,0.5118 -0.16361,0.96486 -0.46565,1.3592c-0.29366,0.39434 -0.70477,0.70477 -1.23335,0.9313c-0.52019,0.21814 -1.12428,0.32721 -1.81227,0.32721c-0.99843,0 -1.80388,-0.20975 -2.41635,-0.62926c-0.61248,-0.4279 -0.97745,-1.0194 -1.09491,-1.77451l1.88778,-0.17619c0.0839,0.36917 0.26429,0.65023 0.54116,0.84321c0.27687,0.18458 0.63765,0.27687 1.08233,0.27687c0.46146,0 0.83062,-0.09229 1.1075,-0.27687c0.27687,-0.19297 0.41531,-0.4279 0.41531,-0.70477c0,-0.23492 -0.09229,-0.4279 -0.27687,-0.57892c-0.17619,-0.15941 -0.44887,-0.27687 -0.81804,-0.35238l-1.40954,-0.30204c-0.78028,-0.15941 -1.3592,-0.43209 -1.73675,-0.81804c-0.37756,-0.39434 -0.56633,-0.88935 -0.56633,-1.48505c0,-0.50341 0.13844,-0.93969 0.41531,-1.30886c0.27687,-0.37756 0.66701,-0.66701 1.17042,-0.86838c0.50341,-0.20975 1.08233,-0.31463 1.73675,-0.31463c0.95647,0 1.71158,0.20556 2.26533,0.61667c0.55375,0.41111 0.89774,0.96486 1.03198,1.66124zM378.45491,250.74126c-0.79706,0 -1.48925,-0.17619 -2.07655,-0.52858c-0.58731,-0.35238 -1.04457,-0.84321 -1.37178,-1.47247c-0.31883,-0.63765 -0.47824,-1.38017 -0.47824,-2.22758c0,-0.8474 0.15941,-1.58993 0.47824,-2.22758c0.32721,-0.63765 0.78448,-1.13267 1.37178,-1.48505c0.58731,-0.35238 1.27949,-0.52858 2.07655,-0.52858c0.79706,0 1.48925,0.17619 2.07655,0.52858c0.58731,0.35238 1.04037,0.8474 1.3592,1.48505c0.32721,0.63765 0.49082,1.38017 0.49082,2.22758c0,0.8474 -0.16361,1.58993 -0.49082,2.22758c-0.31883,0.62926 -0.77189,1.12008 -1.3592,1.47247c-0.58731,0.35238 -1.27949,0.52858 -2.07655,0.52858zM378.46747,249.19328c0.43628,0 0.79706,-0.11746 1.08233,-0.35238c0.29366,-0.24331 0.5118,-0.56633 0.65443,-0.96906c0.14263,-0.41111 0.21395,-0.86838 0.21395,-1.37178c0,-0.49502 -0.07131,-0.94389 -0.21395,-1.34661c-0.14263,-0.41111 -0.36077,-0.73833 -0.65443,-0.98164c-0.28526,-0.24331 -0.64604,-0.36497 -1.08233,-0.36497c-0.44468,0 -0.81384,0.12166 -1.1075,0.36497c-0.29366,0.24331 -0.51599,0.57053 -0.66701,0.98164c-0.14263,0.40273 -0.21395,0.8516 -0.21395,1.34661c0,0.50341 0.07131,0.96067 0.21395,1.37178c0.15102,0.40273 0.37336,0.72574 0.66701,0.96906c0.29366,0.23492 0.66282,0.35238 1.1075,0.35238zM387.59057,250.74126c-0.79706,0 -1.48925,-0.17619 -2.07655,-0.52858c-0.58731,-0.35238 -1.04457,-0.84321 -1.37178,-1.47247c-0.31883,-0.63765 -0.47824,-1.38017 -0.47824,-2.22758c0,-0.8474 0.15941,-1.58993 0.47824,-2.22758c0.32721,-0.63765 0.78448,-1.13267 1.37178,-1.48505c0.58731,-0.35238 1.27949,-0.52858 2.07655,-0.52858c0.79706,0 1.48925,0.17619 2.07655,0.52858c0.58731,0.35238 1.04037,0.8474 1.3592,1.48505c0.32721,0.63765 0.49082,1.38017 0.49082,2.22758c0,0.8474 -0.16361,1.58993 -0.49082,2.22758c-0.31883,0.62926 -0.77189,1.12008 -1.3592,1.47247c-0.58731,0.35238 -1.27949,0.52858 -2.07655,0.52858zM387.60316,249.19328c0.43628,0 0.79706,-0.11746 1.08233,-0.35238c0.29366,-0.24331 0.5118,-0.56633 0.65443,-0.96906c0.14263,-0.41111 0.21395,-0.86838 0.21395,-1.37178c0,-0.49502 -0.07131,-0.94389 -0.21395,-1.34661c-0.14263,-0.41111 -0.36077,-0.73833 -0.65443,-0.98164c-0.28526,-0.24331 -0.64604,-0.36497 -1.08233,-0.36497c-0.44468,0 -0.81384,0.12166 -1.1075,0.36497c-0.29366,0.24331 -0.51599,0.57053 -0.66701,0.98164c-0.14263,0.40273 -0.21395,0.8516 -0.21395,1.34661c0,0.50341 0.07131,0.96067 0.21395,1.37178c0.15102,0.40273 0.37336,0.72574 0.66701,0.96906c0.29366,0.23492 0.66282,0.35238 1.1075,0.35238zM395.07755,245.77011v4.80754h-1.92553v-8.19295h1.85002v1.38437h0.0881c0.19297,-0.45307 0.49502,-0.81384 0.90613,-1.08233c0.41111,-0.27687 0.92291,-0.41531 1.53539,-0.41531c0.57053,0 1.06554,0.12166 1.48505,0.36497c0.41951,0.24331 0.74672,0.5957 0.98164,1.05715c0.23492,0.45307 0.34819,1.00681 0.3398,1.66124v5.22285h-1.92553v-4.9208c0,-0.54536 -0.14263,-0.97326 -0.4279,-1.28369c-0.27687,-0.31043 -0.66701,-0.46565 -1.17042,-0.46565c-0.3356,0 -0.63346,0.07551 -0.89355,0.22653c-0.26009,0.14263 -0.46565,0.35238 -0.61667,0.62926c-0.15102,0.27687 -0.22653,0.61248 -0.22653,1.00681z" fill="#0e0e0e" stroke="none" stroke-width="1" stroke-linecap="square" stroke-linejoin="miter"/><path d="M21.62251,47.68191c0.06575,0.19726 0.10637,0.35391 0.12184,0.46994c0.01934,0.11603 -0.00193,0.20306 -0.06382,0.26108c-0.05802,0.05415 -0.16438,0.08703 -0.3191,0.09863c-0.15471,0.01547 -0.36551,0.02321 -0.63239,0.02321c-0.27848,0 -0.49702,-0.00387 -0.6556,-0.0116c-0.15471,-0.00773 -0.27462,-0.02321 -0.35971,-0.04642c-0.08122,-0.02321 -0.13924,-0.05608 -0.17405,-0.09863c-0.03094,-0.04641 -0.05608,-0.10637 -0.07542,-0.17985l-0.71942,-2.13505h-3.99161l-0.673,2.08283c-0.02321,0.07348 -0.05222,0.13731 -0.08703,0.19146c-0.03481,0.05029 -0.09284,0.09089 -0.17406,0.12183c-0.07736,0.03095 -0.18952,0.05029 -0.3365,0.05802c-0.14311,0.0116 -0.33264,0.01741 -0.56858,0.01741c-0.25141,0 -0.44867,-0.00774 -0.59178,-0.02321c-0.14311,-0.01547 -0.24174,-0.05415 -0.29589,-0.11603c-0.05415,-0.06576 -0.07349,-0.15472 -0.05802,-0.26689c0.01547,-0.11603 0.05608,-0.27074 0.12184,-0.46414l3.278,-9.43368c0.03481,-0.09283 0.07349,-0.16825 0.11604,-0.22627c0.04255,-0.05802 0.11217,-0.10056 0.20886,-0.12764c0.0967,-0.03095 0.23014,-0.05029 0.40032,-0.05802c0.17019,-0.00773 0.39452,-0.0116 0.673,-0.0116c0.3249,0 0.58211,0.00387 0.77164,0.0116c0.19339,0.00773 0.3423,0.02707 0.44674,0.05802c0.1083,0.02708 0.18566,0.07156 0.23207,0.13344c0.04641,0.06188 0.08703,0.14311 0.12184,0.24368zM16.74323,39.88432h-0.0116l-1.50266,4.51958h3.01693zM30.3709,44.43872c0,0.6498 -0.07156,1.23772 -0.21467,1.76374c-0.13924,0.52216 -0.34423,0.96696 -0.61498,1.3344c-0.26688,0.36744 -0.59952,0.6498 -0.9979,0.84706c-0.39839,0.19726 -0.85673,0.29589 -1.37502,0.29589c-0.21273,0 -0.40806,-0.02128 -0.58598,-0.06382c-0.17792,-0.04254 -0.35004,-0.10636 -0.51636,-0.19146c-0.16632,-0.0851 -0.33264,-0.18952 -0.49895,-0.31329c-0.16245,-0.12764 -0.33264,-0.27655 -0.51056,-0.44674v3.45205c0,0.05415 -0.0174,0.1025 -0.05221,0.14504c-0.03094,0.04641 -0.08702,0.08509 -0.16825,0.11603c-0.07736,0.03095 -0.18179,0.05416 -0.3133,0.06963c-0.13151,0.01547 -0.29782,0.02321 -0.49895,0.02321c-0.20113,0 -0.36745,-0.00774 -0.49895,-0.02321c-0.13151,-0.01547 -0.23787,-0.03868 -0.3191,-0.06963c-0.08122,-0.03095 -0.13925,-0.06963 -0.17406,-0.11603c-0.03094,-0.04255 -0.04641,-0.09089 -0.04641,-0.14504v-10.24012c0,-0.05415 0.01354,-0.10057 0.04061,-0.13925c0.03094,-0.04254 0.07929,-0.07735 0.14504,-0.10443c0.06962,-0.02708 0.16052,-0.04641 0.27268,-0.05801c0.11217,-0.01547 0.25334,-0.02321 0.42353,-0.02321c0.16632,0 0.30556,0.00774 0.41773,0.02321c0.11217,0.0116 0.20113,0.03094 0.26688,0.05801c0.06962,0.02708 0.11797,0.06189 0.14504,0.10443c0.02707,0.03867 0.04061,0.0851 0.04061,0.13925v0.86447c0.21273,-0.22047 0.42159,-0.41386 0.62659,-0.58018c0.20886,-0.16631 0.41967,-0.30557 0.6324,-0.41773c0.21273,-0.11216 0.4332,-0.19533 0.6614,-0.24948c0.2282,-0.05415 0.46994,-0.08122 0.72522,-0.08122c0.53763,0 0.99597,0.10636 1.37502,0.31909c0.37905,0.20886 0.68655,0.49702 0.92248,0.86447c0.2398,0.36357 0.41386,0.79098 0.52216,1.28219c0.11216,0.48735 0.16825,1.00757 0.16825,1.56068zM28.21264,44.58377c0,-0.31329 -0.02321,-0.61305 -0.06962,-0.89928c-0.04641,-0.28623 -0.1257,-0.5415 -0.23787,-0.76583c-0.11217,-0.22434 -0.26108,-0.40419 -0.44674,-0.53957c-0.18179,-0.13538 -0.40999,-0.20306 -0.68461,-0.20306c-0.13537,0 -0.27075,0.02128 -0.40612,0.06382c-0.13151,0.03867 -0.26882,0.10637 -0.41193,0.20307c-0.13924,0.09283 -0.28236,0.21274 -0.42933,0.35971c-0.14698,0.14697 -0.30363,0.33069 -0.46995,0.55116v2.41354c0.29396,0.36745 0.57052,0.65174 0.82966,0.85286c0.26301,0.19726 0.53762,0.29589 0.82385,0.29589c0.27075,0 0.49895,-0.06768 0.68461,-0.20306c0.18952,-0.13538 0.34424,-0.31329 0.46414,-0.53376c0.12377,-0.22434 0.21273,-0.47574 0.26688,-0.75423c0.05802,-0.28235 0.08703,-0.56277 0.08703,-0.84126zM39.4027,44.43872c0,0.6498 -0.07156,1.23772 -0.21467,1.76374c-0.13924,0.52216 -0.34423,0.96696 -0.61498,1.3344c-0.26688,0.36744 -0.59952,0.6498 -0.99791,0.84706c-0.39839,0.19726 -0.85672,0.29589 -1.37502,0.29589c-0.21273,0 -0.40806,-0.02128 -0.58598,-0.06382c-0.17792,-0.04254 -0.35004,-0.10636 -0.51635,-0.19146c-0.16631,-0.0851 -0.33264,-0.18952 -0.49896,-0.31329c-0.16245,-0.12764 -0.33264,-0.27655 -0.51056,-0.44674v3.45205c0,0.05415 -0.01741,0.1025 -0.05222,0.14504c-0.03095,0.04641 -0.08702,0.08509 -0.16824,0.11603c-0.07735,0.03095 -0.1818,0.05416 -0.3133,0.06963c-0.1315,0.01547 -0.29783,0.02321 -0.49895,0.02321c-0.20112,0 -0.36745,-0.00774 -0.49896,-0.02321c-0.1315,-0.01547 -0.23787,-0.03868 -0.31909,-0.06963c-0.08123,-0.03095 -0.13924,-0.06963 -0.17405,-0.11603c-0.03095,-0.04255 -0.04642,-0.09089 -0.04642,-0.14504v-10.24012c0,-0.05415 0.01353,-0.10057 0.04061,-0.13925c0.03095,-0.04254 0.07929,-0.07735 0.14505,-0.10443c0.06962,-0.02708 0.16052,-0.04641 0.27268,-0.05801c0.11216,-0.01547 0.25334,-0.02321 0.42353,-0.02321c0.16631,0 0.30557,0.00774 0.41773,0.02321c0.11216,0.0116 0.20113,0.03094 0.26689,0.05801c0.06962,0.02708 0.11796,0.06189 0.14504,0.10443c0.02708,0.03867 0.04061,0.0851 0.04061,0.13925v0.86447c0.21273,-0.22047 0.4216,-0.41386 0.6266,-0.58018c0.20886,-0.16631 0.41967,-0.30557 0.6324,-0.41773c0.21273,-0.11216 0.43319,-0.19533 0.6614,-0.24948c0.22821,-0.05415 0.46994,-0.08122 0.72522,-0.08122c0.53763,0 0.99597,0.10636 1.37502,0.31909c0.37905,0.20886 0.68655,0.49702 0.92248,0.86447c0.2398,0.36357 0.41386,0.79098 0.52216,1.28219c0.11216,0.48735 0.16825,1.00757 0.16825,1.56068zM37.24447,44.58377c0,-0.31329 -0.02321,-0.61305 -0.06962,-0.89928c-0.04641,-0.28623 -0.1257,-0.5415 -0.23787,-0.76583c-0.11216,-0.22434 -0.26108,-0.40419 -0.44674,-0.53957c-0.18178,-0.13538 -0.41,-0.20306 -0.68461,-0.20306c-0.13538,0 -0.27075,0.02128 -0.40613,0.06382c-0.1315,0.03867 -0.26881,0.10637 -0.41192,0.20307c-0.13924,0.09283 -0.28236,0.21274 -0.42933,0.35971c-0.14697,0.14697 -0.30363,0.33069 -0.46995,0.55116v2.41354c0.29395,0.36745 0.57051,0.65174 0.82966,0.85286c0.26302,0.19726 0.53762,0.29589 0.82385,0.29589c0.27075,0 0.49894,-0.06768 0.6846,-0.20306c0.18953,-0.13538 0.34424,-0.31329 0.46415,-0.53376c0.12378,-0.22434 0.21273,-0.47574 0.26688,-0.75423c0.05802,-0.28235 0.08702,-0.56277 0.08702,-0.84126zM52.33246,46.87547c0,0.13924 -0.00387,0.25721 -0.0116,0.35391c-0.00773,0.09283 -0.01934,0.17406 -0.03481,0.24368c-0.01547,0.06962 -0.03675,0.12956 -0.06383,0.17985c-0.02708,0.04641 -0.07156,0.10249 -0.13344,0.16825c-0.06188,0.06188 -0.17985,0.14311 -0.3539,0.24367c-0.17018,0.09669 -0.38098,0.19146 -0.6324,0.28429c-0.24754,0.08897 -0.53182,0.16245 -0.85286,0.22047c-0.31717,0.06188 -0.66334,0.09283 -1.03852,0.09283c-0.72716,0 -1.38468,-0.11216 -1.9726,-0.3365c-0.58405,-0.22434 -1.083,-0.55891 -1.49686,-1.00371c-0.40999,-0.44867 -0.72522,-1.00758 -0.94569,-1.67671c-0.21661,-0.66913 -0.3249,-1.44657 -0.3249,-2.33231c0,-0.90507 0.11991,-1.70766 0.35972,-2.40774c0.24368,-0.70395 0.58017,-1.29379 1.0095,-1.76954c0.4332,-0.47575 0.95149,-0.8374 1.55488,-1.08494c0.60725,-0.24754 1.27638,-0.37131 2.00741,-0.37131c0.29395,0 0.57825,0.02514 0.85287,0.07543c0.27461,0.05029 0.52796,0.11603 0.76003,0.19726c0.23207,0.07735 0.44093,0.16825 0.62659,0.27268c0.18953,0.10443 0.32104,0.1934 0.39452,0.26688c0.07348,0.07348 0.12377,0.13537 0.15084,0.18566c0.02708,0.04641 0.04835,0.10831 0.06382,0.18566c0.01934,0.07735 0.03288,0.16825 0.04061,0.27268c0.00773,0.10443 0.01161,0.234 0.01161,0.38871c0,0.16245 -0.0058,0.3017 -0.0174,0.41773c-0.0116,0.11603 -0.03094,0.20887 -0.05802,0.27849c-0.02708,0.06962 -0.05996,0.12184 -0.09864,0.15665c-0.03867,0.03095 -0.08315,0.04641 -0.13343,0.04641c-0.08123,0 -0.18566,-0.04641 -0.3133,-0.13924c-0.12378,-0.09669 -0.28622,-0.20306 -0.48734,-0.31909c-0.19726,-0.11991 -0.43513,-0.22821 -0.71362,-0.3249c-0.27461,-0.09669 -0.60531,-0.14504 -0.9921,-0.14504c-0.4216,0 -0.79871,0.08702 -1.13135,0.26107c-0.32876,0.17405 -0.60919,0.42159 -0.84126,0.74263c-0.23207,0.31717 -0.40998,0.70395 -0.53376,1.16036c-0.11991,0.45254 -0.17985,0.96502 -0.17985,1.53746c0,0.62273 0.06381,1.16422 0.19145,1.6245c0.1315,0.4564 0.31524,0.83352 0.55117,1.13135c0.2398,0.29395 0.52797,0.51443 0.86447,0.6614c0.3365,0.14311 0.71555,0.21467 1.13714,0.21467c0.38292,0 0.71362,-0.04447 0.99211,-0.13344c0.28235,-0.09283 0.52215,-0.1934 0.71941,-0.3017c0.20112,-0.11216 0.36552,-0.21079 0.49316,-0.29588c0.1315,-0.08897 0.23207,-0.13345 0.30169,-0.13345c0.05802,0 0.10249,0.0116 0.13344,0.03481c0.03481,0.01934 0.06189,0.06188 0.08123,0.12764c0.02321,0.06576 0.03868,0.15858 0.04641,0.27849c0.0116,0.11603 0.01741,0.27268 0.01741,0.46994zM60.53901,44.32849c0,0.25142 -0.05609,0.43899 -0.16825,0.56276c-0.11216,0.11991 -0.26689,0.17985 -0.46415,0.17985h-4.46736c0,0.30942 0.03675,0.59179 0.11024,0.84707c0.07735,0.25528 0.19532,0.47188 0.35391,0.6498c0.16245,0.17792 0.37131,0.31329 0.62659,0.40612c0.25528,0.09283 0.56083,0.13925 0.91667,0.13925c0.36357,0 0.68075,-0.02514 0.9515,-0.07543c0.27461,-0.05029 0.51249,-0.10637 0.71361,-0.16825c0.20112,-0.06576 0.36745,-0.12376 0.49896,-0.17405c0.1315,-0.05415 0.23787,-0.08123 0.31909,-0.08123c0.05029,0 0.09089,0.00967 0.12184,0.02901c0.03481,0.01934 0.06189,0.05414 0.08123,0.10443c0.02321,0.04641 0.03868,0.11603 0.04641,0.20886c0.00773,0.08897 0.0116,0.20307 0.0116,0.34231c0,0.11991 -0.00387,0.2224 -0.0116,0.30749c-0.00386,0.0851 -0.01161,0.15859 -0.02321,0.22047c-0.00773,0.05802 -0.0232,0.1083 -0.04641,0.15085c-0.02321,0.03867 -0.05222,0.07736 -0.08703,0.11603c-0.03481,0.03867 -0.1315,0.09089 -0.29009,0.15665c-0.15859,0.06576 -0.36164,0.12957 -0.60918,0.19146c-0.24754,0.06188 -0.52989,0.11604 -0.84706,0.16245c-0.31717,0.05029 -0.65754,0.07542 -1.02111,0.07542c-0.6498,0 -1.22031,-0.08123 -1.71153,-0.24368c-0.49121,-0.16631 -0.90121,-0.41579 -1.22998,-0.74842c-0.32876,-0.3365 -0.57437,-0.76003 -0.73682,-1.27059c-0.15859,-0.51055 -0.23787,-1.10814 -0.23787,-1.79275c0,-0.6498 0.08509,-1.23578 0.25527,-1.75794c0.17018,-0.52602 0.41579,-0.97083 0.73683,-1.3344c0.3249,-0.36357 0.71748,-0.64013 1.17776,-0.82966c0.46414,-0.1934 0.98631,-0.29008 1.56648,-0.29008c0.61498,0 1.13908,0.0909 1.57228,0.27268c0.43706,0.17792 0.79485,0.42739 1.07333,0.74843c0.28235,0.32104 0.48928,0.70009 0.62078,1.13715c0.1315,0.43706 0.19726,0.91474 0.19726,1.43303zM58.53158,43.73671c0.01547,-0.58017 -0.10249,-1.03465 -0.3539,-1.36341c-0.24754,-0.33264 -0.63045,-0.49896 -1.14875,-0.49896c-0.26302,0 -0.49316,0.05028 -0.69042,0.15085c-0.1934,0.09669 -0.35391,0.22821 -0.48155,0.39452c-0.12764,0.16631 -0.22627,0.36357 -0.29589,0.59178c-0.06962,0.22821 -0.11023,0.46994 -0.12183,0.72522zM69.23825,48.20987c0,0.05415 -0.01741,0.1025 -0.05222,0.14504c-0.03095,0.03867 -0.08509,0.07155 -0.16245,0.09863c-0.07349,0.02708 -0.17792,0.04642 -0.31329,0.05802c-0.13537,0.01547 -0.3017,0.02321 -0.49896,0.02321c-0.20113,0 -0.36938,-0.00774 -0.50476,-0.02321c-0.13537,-0.0116 -0.24174,-0.03094 -0.31909,-0.05802c-0.07349,-0.02708 -0.12764,-0.05996 -0.16245,-0.09863c-0.03095,-0.04254 -0.04641,-0.09089 -0.04641,-0.14504v-4.18308c0,-0.35585 -0.02707,-0.63433 -0.08122,-0.83546c-0.05029,-0.20499 -0.12571,-0.37905 -0.22628,-0.52216c-0.09669,-0.14697 -0.22432,-0.25914 -0.38291,-0.3365c-0.15471,-0.08123 -0.33651,-0.12184 -0.54537,-0.12184c-0.26301,0 -0.52796,0.09669 -0.79484,0.29008c-0.26688,0.18953 -0.54731,0.46801 -0.84126,0.83546v4.87349c0,0.05415 -0.01741,0.1025 -0.05222,0.14504c-0.03095,0.03867 -0.08702,0.07155 -0.16825,0.09863c-0.07735,0.02708 -0.18179,0.04642 -0.3133,0.05802c-0.13151,0.01547 -0.29783,0.02321 -0.49895,0.02321c-0.20113,0 -0.36745,-0.00774 -0.49895,-0.02321c-0.13151,-0.0116 -0.23787,-0.03094 -0.3191,-0.05802c-0.08123,-0.02708 -0.13924,-0.05996 -0.17405,-0.09863c-0.03095,-0.04254 -0.04641,-0.09089 -0.04641,-0.14504v-7.33344c0,-0.05415 0.01354,-0.10057 0.04061,-0.13925c0.03095,-0.04254 0.08123,-0.07735 0.15085,-0.10443c0.06962,-0.02708 0.16051,-0.04641 0.27268,-0.05801c0.11603,-0.01547 0.25722,-0.02321 0.42354,-0.02321c0.17792,0 0.32296,0.00774 0.43513,0.02321c0.11603,0.0116 0.20499,0.03094 0.26688,0.05801c0.06575,0.02708 0.11217,0.06189 0.13924,0.10443c0.02707,0.03867 0.04062,0.0851 0.04062,0.13925v0.84705c0.40613,-0.43706 0.81805,-0.76389 1.23578,-0.98049c0.42159,-0.22047 0.85866,-0.3307 1.3112,-0.3307c0.49895,0 0.91862,0.08316 1.25899,0.24947c0.34423,0.16245 0.62079,0.38485 0.82965,0.6672c0.21273,0.27849 0.3655,0.60726 0.45833,0.98631c0.09283,0.37905 0.13925,0.83351 0.13925,1.36341zM75.45091,47.48465c0,0.24368 -0.01547,0.42933 -0.04641,0.55697c-0.02707,0.12764 -0.06575,0.21853 -0.11603,0.27268c-0.05029,0.05029 -0.12378,0.0967 -0.22047,0.13924c-0.09283,0.03867 -0.20499,0.07349 -0.3365,0.10444c-0.12764,0.03095 -0.26687,0.05415 -0.41773,0.06962c-0.15085,0.01547 -0.30169,0.0232 -0.45254,0.0232c-0.41386,0 -0.77164,-0.05222 -1.07333,-0.15665c-0.29783,-0.10057 -0.54536,-0.25914 -0.74262,-0.47574c-0.19726,-0.2166 -0.34424,-0.48929 -0.44093,-0.81805c-0.09283,-0.32876 -0.13925,-0.71941 -0.13925,-1.17195v-3.75375h-0.87606c-0.10443,0 -0.18372,-0.06381 -0.23788,-0.19145c-0.05415,-0.12764 -0.08122,-0.34231 -0.08122,-0.644c0,-0.15859 0.0058,-0.29202 0.0174,-0.40032c0.01547,-0.11216 0.03674,-0.1992 0.06382,-0.26108c0.02707,-0.06576 0.05995,-0.11217 0.09862,-0.13925c0.04255,-0.02708 0.0909,-0.04061 0.14505,-0.04061h0.87027v-1.6361c0,-0.05415 0.01547,-0.1025 0.04642,-0.14504c0.03095,-0.04641 0.08509,-0.08316 0.16245,-0.11024c0.08123,-0.03095 0.18759,-0.05221 0.3191,-0.06381c0.13537,-0.01547 0.30169,-0.02321 0.49895,-0.02321c0.20499,0 0.37325,0.00774 0.50476,0.02321c0.13537,0.0116 0.24174,0.03287 0.3191,0.06381c0.07735,0.02708 0.1315,0.06383 0.16245,0.11024c0.03481,0.04254 0.05222,0.09089 0.05222,0.14504v1.6361h1.59548c0.05415,0 0.10057,0.01353 0.13924,0.04061c0.04255,0.02708 0.07735,0.07349 0.10443,0.13925c0.02707,0.06188 0.04642,0.14892 0.05802,0.26108c0.01547,0.1083 0.02321,0.24173 0.02321,0.40032c0,0.30169 -0.02708,0.51636 -0.08123,0.644c-0.05415,0.12764 -0.13344,0.19145 -0.23786,0.19145h-1.60129v3.44626c0,0.39839 0.06188,0.69815 0.18565,0.89927c0.12764,0.19726 0.3539,0.29589 0.6788,0.29589c0.1083,0 0.205,-0.00773 0.29009,-0.0232c0.08897,-0.01934 0.16825,-0.04061 0.23787,-0.06382c0.06962,-0.02708 0.12765,-0.05028 0.17406,-0.06962c0.04641,-0.01934 0.08897,-0.02901 0.12764,-0.02901c0.03095,0 0.06188,0.00967 0.09282,0.02901c0.03095,0.01934 0.05416,0.05801 0.06963,0.11603c0.01547,0.05802 0.02901,0.13731 0.04061,0.23788c0.01547,0.09669 0.02321,0.22046 0.02321,0.37131zM83.51708,44.32849c0,0.25142 -0.05609,0.43899 -0.16825,0.56276c-0.11217,0.11991 -0.26688,0.17985 -0.46414,0.17985h-4.46736c0,0.30942 0.03675,0.59179 0.11023,0.84707c0.07735,0.25528 0.19532,0.47188 0.3539,0.6498c0.16245,0.17792 0.37132,0.31329 0.6266,0.40612c0.25528,0.09283 0.56083,0.13925 0.91667,0.13925c0.36357,0 0.68074,-0.02514 0.95149,-0.07543c0.27461,-0.05029 0.51249,-0.10637 0.71362,-0.16825c0.20113,-0.06576 0.36745,-0.12376 0.49895,-0.17405c0.13151,-0.05415 0.23787,-0.08123 0.3191,-0.08123c0.05029,0 0.09089,0.00967 0.12184,0.02901c0.03481,0.01934 0.06188,0.05414 0.08122,0.10443c0.02321,0.04641 0.03869,0.11603 0.04642,0.20886c0.00773,0.08897 0.0116,0.20307 0.0116,0.34231c0,0.11991 -0.00387,0.2224 -0.0116,0.30749c-0.00387,0.0851 -0.01161,0.15859 -0.02321,0.22047c-0.00773,0.05802 -0.0232,0.1083 -0.04641,0.15085c-0.02321,0.03867 -0.05222,0.07736 -0.08702,0.11603c-0.03481,0.03867 -0.13151,0.09089 -0.29009,0.15665c-0.15859,0.06576 -0.36165,0.12957 -0.60919,0.19146c-0.24754,0.06188 -0.52989,0.11604 -0.84705,0.16245c-0.31717,0.05029 -0.65754,0.07542 -1.02111,0.07542c-0.6498,0 -1.22031,-0.08123 -1.71152,-0.24368c-0.49121,-0.16631 -0.90121,-0.41579 -1.22997,-0.74842c-0.32877,-0.3365 -0.57438,-0.76003 -0.73683,-1.27059c-0.15859,-0.51055 -0.23787,-1.10814 -0.23787,-1.79275c0,-0.6498 0.08509,-1.23578 0.25528,-1.75794c0.17019,-0.52602 0.41579,-0.97083 0.73682,-1.3344c0.3249,-0.36357 0.71748,-0.64013 1.17776,-0.82966c0.46414,-0.1934 0.9863,-0.29008 1.56648,-0.29008c0.61499,0 1.13908,0.0909 1.57228,0.27268c0.43707,0.17792 0.79484,0.42739 1.07332,0.74843c0.28235,0.32104 0.48928,0.70009 0.62079,1.13715c0.13151,0.43706 0.19726,0.91474 0.19726,1.43303zM81.50969,43.73671c0.01547,-0.58017 -0.10249,-1.03465 -0.3539,-1.36341c-0.24754,-0.33264 -0.63046,-0.49896 -1.14875,-0.49896c-0.26301,0 -0.49316,0.05028 -0.69042,0.15085c-0.19339,0.09669 -0.3539,0.22821 -0.48154,0.39452c-0.12764,0.16631 -0.22627,0.36357 -0.29589,0.59178c-0.06962,0.22821 -0.11023,0.46994 -0.12183,0.72522zM89.92468,41.56103c0,0.19726 -0.0058,0.35972 -0.0174,0.48736c-0.0116,0.12378 -0.029,0.2224 -0.05222,0.29588c-0.01934,0.06962 -0.04642,0.11797 -0.08123,0.14505c-0.03481,0.02708 -0.07928,0.04062 -0.13343,0.04062c-0.04641,0 -0.0967,-0.00967 -0.15085,-0.02901c-0.05415,-0.01934 -0.11603,-0.03867 -0.18565,-0.05801c-0.06962,-0.02321 -0.14504,-0.04449 -0.22626,-0.06383c-0.08123,-0.01934 -0.17212,-0.029 -0.27268,-0.029c-0.11217,0 -0.22627,0.02321 -0.34231,0.06962c-0.11603,0.04641 -0.23593,0.1199 -0.35971,0.22047c-0.11991,0.09669 -0.24754,0.22821 -0.38291,0.39452c-0.13537,0.16245 -0.28042,0.36358 -0.43514,0.60339v4.57179c0,0.05415 -0.01741,0.1025 -0.05222,0.14504c-0.03095,0.03867 -0.08703,0.07155 -0.16826,0.09863c-0.07735,0.02708 -0.18179,0.04642 -0.31329,0.05802c-0.13151,0.01547 -0.29783,0.02321 -0.49895,0.02321c-0.20113,0 -0.36744,-0.00774 -0.49895,-0.02321c-0.13151,-0.0116 -0.23788,-0.03094 -0.3191,-0.05802c-0.08123,-0.02708 -0.13924,-0.05996 -0.17405,-0.09863c-0.03095,-0.04254 -0.04642,-0.09089 -0.04642,-0.14504v-7.33344c0,-0.05415 0.01354,-0.10057 0.04062,-0.13925c0.03095,-0.04254 0.08123,-0.07735 0.15085,-0.10443c0.06962,-0.02708 0.16052,-0.04641 0.27268,-0.05801c0.11603,-0.01547 0.25722,-0.02321 0.42353,-0.02321c0.17792,0 0.32296,0.00774 0.43513,0.02321c0.11603,0.0116 0.205,0.03094 0.26688,0.05801c0.06575,0.02708 0.11217,0.06189 0.13924,0.10443c0.02707,0.03867 0.04062,0.0851 0.04062,0.13925v0.91668c0.19339,-0.27461 0.37325,-0.50089 0.53957,-0.67881c0.17019,-0.17792 0.33263,-0.3191 0.48734,-0.42353c0.15471,-0.10443 0.30749,-0.176 0.45834,-0.21467c0.15471,-0.04254 0.30943,-0.06381 0.46415,-0.06381c0.06962,0 0.14504,0.00387 0.22626,0.0116c0.08509,0.00773 0.17019,0.02127 0.25528,0.04061c0.08897,0.01934 0.16631,0.04061 0.23207,0.06382c0.06575,0.02321 0.1141,0.05028 0.14504,0.08123c0.03095,0.02708 0.05222,0.05801 0.06382,0.09282c0.01547,0.03095 0.02708,0.07543 0.03481,0.13345c0.0116,0.05415 0.01934,0.13924 0.02321,0.25527c0.00773,0.11603 0.0116,0.27268 0.0116,0.46994z" fill="#000000" stroke="none" stroke-width="1" stroke-linecap="square" stroke-linejoin="miter"/><g stroke-linecap="butt" stroke-linejoin="miter"><path d="M11.78485,83.33101c-1.65853,0.17575 -3.30692,-0.41269 -4.47923,-1.599c-1.1723,-1.1863 -1.74116,-2.84156 -1.54574,-4.49788v-6.01483c-0.1954,-1.65633 0.37344,-3.31158 1.54574,-4.49788c1.1723,-1.1863 2.82069,-1.77474 4.47923,-1.599h89.13938c1.64141,-0.10366 3.25486,0.46165 4.47264,1.56708l0.01751,0.01752c1.10527,1.2353 1.66821,2.86268 1.56248,4.51689v6.01484c0.10571,1.64808 -0.45303,3.26983 -1.55142,4.50306l-0.01935,0.02028c-1.21971,1.10969 -2.83705,1.67773 -4.48278,1.57446z" fill="#3859cd" stroke="none" stroke-width="1"/><text transform="translate(22.66139,77.12113) scale(0.1682,0.1682)" font-size="40" xml:space="preserve" fill="#ffffff" fill-rule="nonzero" stroke="none" stroke-width="1" stroke-linecap="butt" stroke-linejoin="miter" stroke-miterlimit="10" stroke-dasharray="" stroke-dashoffset="0" font-family="Sans Serif" font-weight="normal" text-anchor="start" style="mix-blend-mode: normal"><tspan x="0" dy="0">Home</tspan></text><path d="M17.53476,77.73534h-1.83193c-0.2811,0 -0.50887,-0.22777 -0.50887,-0.50887v-1.83193c0,-0.22492 -0.18217,-0.40709 -0.40709,-0.40709h-0.81419c-0.22492,0 -0.40709,0.18217 -0.40709,0.40709v1.83193c0,0.2811 -0.22777,0.50887 -0.50887,0.50887h-1.83193c-0.2811,0 -0.50887,-0.22777 -0.50887,-0.50887v-3.88511c0,-0.46796 0.21454,-0.91006 0.58194,-1.1995l2.89281,-2.27953c0.11093,-0.08712 0.26726,-0.08712 0.37799,0l2.89322,2.27953c0.3674,0.28944 0.58174,0.73135 0.58174,1.1991v3.88551c0,0.2811 -0.22777,0.50887 -0.50887,0.50887z" fill="#ffffff" stroke="none" stroke-width="1"/><text transform="translate(22.43829,100.80304) scale(0.1682,0.1682)" font-size="40" xml:space="preserve" fill="#000000" fill-rule="nonzero" stroke="none" stroke-width="1" stroke-linecap="butt" stroke-linejoin="miter" stroke-miterlimit="10" stroke-dasharray="" stroke-dashoffset="0" font-family="Sans Serif" font-weight="normal" text-anchor="start" style="mix-blend-mode: normal"><tspan x="0" dy="0">Apps</tspan></text><text transform="translate(22.4526,124.28529) scale(0.1682,0.1682)" font-size="40" xml:space="preserve" fill="#000000" fill-rule="nonzero" stroke="none" stroke-width="1" stroke-linecap="butt" stroke-linejoin="miter" stroke-miterlimit="10" stroke-dasharray="" stroke-dashoffset="0" font-family="Sans Serif" font-weight="normal" text-anchor="start" style="mix-blend-mode: normal"><tspan x="0" dy="0">Games</tspan></text><path d="M18.21841,97.97445v2.7307c0.07646,0.58858 -0.09808,1.18218 -0.48096,1.63569c-0.45809,0.38202 -1.05446,0.55627 -1.64617,0.48096h-2.72441c-0.59164,0.07441 -1.18765,-0.09973 -1.64617,-0.48096c-0.38346,-0.45319 -0.55808,-1.04706 -0.48096,-1.63569v-2.73698c-0.07437,-0.58841 0.09993,-1.18119 0.48096,-1.63569l0.01572,-0.01572c0.19324,-0.1852 0.4329,-0.31481 0.69368,-0.37513c0.30333,-0.06936 0.61422,-0.09999 0.92525,-0.09116h2.73593c0.31416,-0.00907 0.6282,0.02155 0.93468,0.09116c0.26117,0.0601 0.50122,0.18972 0.69472,0.37513l0.01572,0.01572c0.38264,0.45615 0.55738,1.05138 0.48201,1.64198zM13.35534,95.31711h2.73593c0.35963,-0.01114 0.71921,0.02408 1.06985,0.10478c0.17671,0.04393 0.34713,0.11012 0.50716,0.197c-0.0346,-0.28848 -0.16054,-0.55835 -0.35941,-0.77017c-0.08401,-0.08554 -0.18176,-0.15638 -0.28921,-0.20957c-0.35089,-0.16152 -0.73699,-0.23145 -1.12225,-0.20328h-2.34299c-0.38386,-0.02751 -0.76844,0.04243 -1.11806,0.20328c-0.10693,0.05352 -0.20429,0.12434 -0.28816,0.20957c-0.19946,0.21196 -0.32579,0.48224 -0.36046,0.77122c0.1613,-0.08758 0.33314,-0.15414 0.51135,-0.19804c0.34594,-0.08123 0.70107,-0.11647 1.05623,-0.10478zM15.89847,93.9067c0.34576,-0.01097 0.6912,0.03 1.0248,0.12155c-0.04458,-0.12757 -0.11605,-0.24407 -0.20957,-0.3416c-0.30333,-0.24864 -0.69525,-0.36224 -1.08452,-0.31435h-1.80335c-0.38769,-0.04828 -0.77815,0.06544 -1.07928,0.31435c-0.09346,0.09638 -0.16494,0.21184 -0.20957,0.33846c0.33125,-0.08877 0.67361,-0.12901 1.01641,-0.11945z" fill="#000000" stroke="none" stroke-width="1"/><g stroke="none" stroke-width="1"><path d="M19.32834,123.04128c0,0.1504 -0.10026,0.40106 -0.22559,0.52639c-0.25066,0.25066 -0.87731,0.65172 -2.18074,0.70185c-0.0752,0 -0.12533,0.02507 -0.17546,0.0752c-0.27573,0.17546 -0.92744,0.45119 -2.4314,0.45119c-1.52903,-0.02507 -2.18074,-0.27573 -2.4314,-0.45119c-0.05013,-0.05013 -0.10026,-0.0752 -0.17546,-0.0752c-1.30343,-0.02507 -1.93008,-0.45119 -2.18074,-0.70185c-0.12533,-0.12533 -0.22559,-0.35092 -0.22559,-0.52639c0,-0.60158 0.05013,-2.30607 0.25066,-3.05805c0.10026,-0.32586 0.40106,-0.57652 0.77705,-0.57652c0.40106,0 1.00264,-0.37599 1.30343,-0.65172c0.17546,-0.1504 0.35092,-0.22559 0.57652,-0.22559h4.21109c0.22559,0 0.42612,0.10026 0.57652,0.22559c0.30079,0.27573 0.90238,0.65172 1.30343,0.65172c0.37599,0 0.67678,0.22559 0.77705,0.57652c0.20053,0.75198 0.25066,2.45647 0.25066,3.05805z" fill="#000000"/><path d="M16.34549,123.07684h-4.06069c-0.12533,0 -0.22559,-0.10026 -0.22559,-0.22559v-2.80739c0,-0.12533 0.10026,-0.22559 0.22559,-0.22559h4.03563c0.12533,0 0.22559,0.10026 0.22559,0.22559v2.80739c0.02507,0.12533 -0.0752,0.22559 -0.20053,0.22559z" fill="#000000"/><path d="M16.34549,119.81826h-4.06069c-0.12533,0 -0.22559,0.10026 -0.22559,0.22559v2.80739c0,0.12533 0.10026,0.22559 0.22559,0.22559h4.06069c0.12533,0 0.22559,-0.10026 0.22559,-0.22559v-2.80739c0,-0.12533 -0.10026,-0.22559 -0.22559,-0.22559M15.06712,119.06628c2.00528,0 2.00528,0.60158 2.00528,1.00264v2.75726c0,0.42612 0,1.27837 -2.5066,1.27837h-0.50132c-2.5066,0 -2.5066,-0.87731 -2.5066,-1.27837v-2.75726c0,-0.42612 0,-1.00264 2.00528,-1.00264z" fill="#f0f1f4"/><path d="M10.30458,119.81826h0.50132v1.50396h-0.50132z" fill="#f0f1f4"/><path d="M9.80326,120.31958h1.50396v0.50132h-1.50396zM18.82702,120.44491c0,0.20053 -0.17546,0.37599 -0.37599,0.37599c-0.20053,0 -0.37599,-0.17546 -0.37599,-0.37599c0,-0.20053 0.17546,-0.37599 0.37599,-0.37599c0.20053,0 0.37599,0.17546 0.37599,0.37599zM18.07504,121.19689c0,0.20053 -0.17546,0.37599 -0.37599,0.37599c-0.20053,0 -0.37599,-0.17546 -0.37599,-0.37599c0,-0.20053 0.17546,-0.37599 0.37599,-0.37599c0.20053,0 0.37599,0.17546 0.37599,0.37599z" fill="#f0f1f4"/></g><text transform="translate(22.79158,148.78952) scale(0.1682,0.1682)" font-size="40" xml:space="preserve" fill="#000000" fill-rule="nonzero" stroke="none" stroke-width="1" stroke-linecap="butt" stroke-linejoin="miter" stroke-miterlimit="10" stroke-dasharray="" stroke-dashoffset="0" font-family="Sans Serif" font-weight="normal" text-anchor="start" style="mix-blend-mode: normal"><tspan x="0" dy="0">Updates</tspan></text><g fill="#000000" stroke="#000000" stroke-width="0"><g><path d="M11.85908,149.63929l-2.00434,-2.56329h4.00871z"/><path d="M14.58337,143.6916c0,0 -0.7505,0 -1.59849,0c-0.18007,0 -0.80177,0.73141 -1.02997,0.69842c-0.41165,-0.0595 -0.38276,-0.92655 -0.13104,-1.14176c0.45984,-0.39315 0.80847,-0.79793 1.07584,-0.79793c0.84628,0 1.68367,0 1.68367,0z" data-paper-data="{&quot;index&quot;:null}"/><path d="M11.23846,147.87131c0,0 0,-2.59404 0,-3.44031c0,-0.26736 0.24508,-0.82894 0.63823,-1.28876c0.33453,-0.39125 0.82661,-0.70885 0.82661,-0.70885c0,0 -0.22358,1.52466 -0.22358,2.02956c0,0.848 0,3.40838 0,3.40838z"/></g><g data-paper-data="{&quot;index&quot;:null}"><path d="M16.94401,142.38014l2.00434,2.56329h-4.00871z"/><path d="M14.21972,148.32782c0,0 0.7505,0 1.5985,0c0.18007,0 0.80176,-0.73141 1.02996,-0.69842c0.41165,0.0595 0.38276,0.92654 0.13104,1.14175c-0.45984,0.39314 -0.80847,0.79793 -1.07584,0.79793c-0.84628,0 -1.68367,0 -1.68367,0z" data-paper-data="{&quot;index&quot;:null}"/><path d="M17.56464,144.14813c0,0 0,2.59404 0,3.44031c0,0.26736 -0.24509,0.82894 -0.63824,1.28878c-0.33453,0.39125 -0.8266,0.70885 -0.8266,0.70885c0,0 0.22358,-1.52466 0.22358,-2.02956c0,-0.848 0,-3.40838 0,-3.40838z"/></g></g></g></g></g></svg>