<svg version="1.1" xmlns="http://www.w3.org/2000/svg" xmlns:xlink="http://www.w3.org/1999/xlink" width="24.922" height="28.008" viewBox="0,0,24.922,28.008"><g transform="translate(-240.43,-152.4)"><g data-paper-data="{&quot;isPaintingLayer&quot;:true}" fill="#ffffff" fill-rule="nonzero" stroke="none" stroke-width="1" stroke-linecap="butt" stroke-linejoin="miter" stroke-miterlimit="10" stroke-dasharray="" stroke-dashoffset="0" style="mix-blend-mode: normal"><path d="M265.352,180.408c-1.211,0 -2.422,0 -3.633,0c-0.99,-2.617 -1.979,-5.235 -2.969,-7.852c-3.958,0 -7.917,0 -11.875,0c-0.931,2.617 -1.862,5.235 -2.793,7.852c-1.217,0 -2.435,0 -3.652,0c3.58,-9.336 7.161,-18.672 10.742,-28.008c1.133,0 2.266,0 3.398,0c3.594,9.336 7.188,18.672 10.782,28.008zM257.676,169.607c-1.496,-4.092 -3.031,-8.17 -4.502,-12.27c-0.2,-1.024 -0.419,-2.207 -0.611,-0.474c-1.434,4.279 -3.077,8.492 -4.594,12.744c3.235,0 6.471,0 9.707,0z"/></g></g></svg>