<svg version="1.1" xmlns="http://www.w3.org/2000/svg" xmlns:xlink="http://www.w3.org/1999/xlink" width="90.79187" height="114.64396" viewBox="0,0,90.79187,114.64396"><g transform="translate(-251.15815,-46.8769)"><g data-paper-data="{&quot;isPaintingLayer&quot;:true}" fill-rule="nonzero" stroke="none" stroke-linecap="butt" stroke-linejoin="miter" stroke-miterlimit="10" stroke-dasharray="" stroke-dashoffset="0" style="mix-blend-mode: normal"><g><path d="M261.35294,160.67339c-3.18705,0 -5.77067,-2.14134 -5.77067,-5.5142c0,-19.93322 0,-89.40541 0,-100.40964c0,-2.86651 2.58362,-5.25772 5.77067,-5.25772h74.24928c3.18705,0 5.77067,2.10103 5.77067,4.68066c0,10.6036 0,81.82541 0,101.37143c0,3.13627 -2.58362,5.12947 -5.77067,5.12947z" fill="#262727" stroke-width="1"/><path d="M261.35294,160.67339c-3.18705,0 -5.77067,-2.14134 -5.77067,-5.5142c0,-19.93322 0,-16.31027 0,-27.3145c0,-2.8665 2.58362,-5.25772 5.77067,-5.25772h74.24928c3.18705,0 5.77067,2.10102 5.77067,4.68066c0,10.60361 0,8.73027 0,28.27629c0,3.13627 -2.58362,5.12947 -5.77067,5.12947z" fill="#343435" stroke-width="1"/><path d="M251.15815,161.52086v-114.64396h90.79187v114.64396z" fill="none" stroke-width="0"/><text transform="translate(260.98447,136.71311) scale(0.23721,0.23721)" font-size="40" xml:space="preserve" fill="#ffffff" fill-rule="nonzero" stroke="none" stroke-width="1" stroke-linecap="butt" stroke-linejoin="miter" stroke-miterlimit="10" stroke-dasharray="" stroke-dashoffset="0" font-family="Sans Serif" font-weight="normal" text-anchor="start" style="mix-blend-mode: normal"><tspan x="0" dy="0">Unknown</tspan></text><text transform="translate(261.53013,150.03356) scale(0.18264,0.18264)" font-size="40" xml:space="preserve" fill="#ffffff" fill-rule="nonzero" stroke="none" stroke-width="1" stroke-linecap="butt" stroke-linejoin="miter" stroke-miterlimit="10" stroke-dasharray="" stroke-dashoffset="0" font-family="Sans Serif" font-weight="normal" text-anchor="start" style="mix-blend-mode: normal"><tspan x="0" dy="0">By: Unknown Artist</tspan></text><path d="M269.61051,116.36518v-57.8648h58.31688v57.86481z" fill="#343435" stroke-width="0"/><text transform="translate(287.98596,104.07352) scale(1.18853,1.18853)" font-size="40" xml:space="preserve" fill="#ffffff" fill-rule="nonzero" stroke="none" stroke-width="1" stroke-linecap="butt" stroke-linejoin="miter" stroke-miterlimit="10" stroke-dasharray="" stroke-dashoffset="0" font-family="Sans Serif" font-weight="normal" text-anchor="start" style="mix-blend-mode: normal"><tspan x="0" dy="0">?</tspan></text></g></g></g></svg>