<svg version="1.1" xmlns="http://www.w3.org/2000/svg" xmlns:xlink="http://www.w3.org/1999/xlink" width="19.93896" height="28.008" viewBox="0,0,19.93896,28.008"><g transform="translate(-240.25604,-152.4)"><g data-paper-data="{&quot;isPaintingLayer&quot;:true}" fill="#ffffff" fill-rule="nonzero" stroke="none" stroke-width="1" stroke-linecap="butt" stroke-linejoin="miter" stroke-miterlimit="10" stroke-dasharray="" stroke-dashoffset="0" style="mix-blend-mode: normal"><path d="M260.195,172.966c-1.198,0 -2.396,0 -3.593,0c0,2.481 0,4.961 0,7.442c-1.055,0 -2.11,0 -3.164,0c0,-2.481 0,-4.961 0,-7.442c-4.389,0 -8.777,0 -13.165,0c0.032,-0.999 -0.233,-2.165 0.577,-2.944c3.961,-5.874 7.923,-11.748 11.884,-17.622c1.289,0 2.578,0 3.868,0c0,5.99 0,11.979 0,17.969c1.197,0 2.395,0 3.593,0c0,0.866 0,1.732 0,2.597zM253.438,170.369c0.011,-4.955 -0.033,-9.911 0.041,-14.865c-0.778,1.207 -1.331,2.551 -2.23,3.685c-2.509,3.72 -4.997,7.455 -7.499,11.18c3.229,0 6.459,0 9.687,0z"/></g></g></svg>