<svg version="1.1" xmlns="http://www.w3.org/2000/svg" xmlns:xlink="http://www.w3.org/1999/xlink" width="18.44063" height="30.09142" viewBox="0,0,18.44063,30.09142"><g transform="translate(-240.10637,-150.798)"><g data-paper-data="{&quot;isPaintingLayer&quot;:true}" fill="#ffffff" fill-rule="nonzero" stroke="none" stroke-width="1" stroke-linecap="butt" stroke-linejoin="miter" stroke-miterlimit="10" stroke-dasharray="" stroke-dashoffset="0" style="mix-blend-mode: normal"><path d="M258.547,180.408c-1.068,0 -2.136,0 -3.203,0c0,-1.133 0,-2.266 0,-3.399c-0.811,1.125 -1.779,2.392 -3.128,3.018c-3.128,1.521 -7.379,1.07 -9.708,-1.671c-2.398,-2.739 -2.692,-6.651 -2.201,-10.114c0.475,-3.499 2.76,-6.986 6.299,-7.95c2.74,-0.758 6.154,-0.422 8.019,1.955c0.443,0.745 0.871,1.281 0.719,0.158c0,-3.869 0,-7.738 0,-11.607c1.067,0 2.135,0 3.203,0c0,9.87 0,19.74 0,29.61zM255.344,171.365c-0.08,-1.905 0.298,-3.923 -0.626,-5.687c-0.999,-2.054 -3.318,-3.279 -5.577,-3.025c-2.339,0.07 -4.352,1.806 -5.094,3.972c-0.842,2.453 -0.913,5.22 -0.088,7.688c0.714,2.139 2.726,3.849 5.034,3.86c2.194,0.191 4.378,-1.016 5.411,-2.956c0.672,-1.163 0.944,-2.519 0.94,-3.852z"/></g></g></svg>