<svg version="1.1" xmlns="http://www.w3.org/2000/svg" xmlns:xlink="http://www.w3.org/1999/xlink" width="247.80717" height="182.24757" viewBox="0,0,247.80717,182.24757"><defs><linearGradient x1="151.86604" y1="146.91994" x2="173.95113" y2="165.55442" gradientUnits="userSpaceOnUse" id="color-1"><stop offset="0" stop-color="#a1aab3"/><stop offset="1" stop-color="#8f979e"/></linearGradient><linearGradient x1="163.41735" y1="159.94403" x2="163.41735" y2="165.38538" gradientUnits="userSpaceOnUse" id="color-2"><stop offset="0" stop-color="#484b4f"/><stop offset="0.037" stop-color="#4a4e52"/><stop offset="0.388" stop-color="#5c6369"/><stop offset="0.717" stop-color="#667077"/><stop offset="1" stop-color="#6a747c"/></linearGradient><linearGradient x1="163.41735" y1="165.37021" x2="163.41735" y2="167.54634" gradientUnits="userSpaceOnUse" id="color-3"><stop offset="0" stop-color="#a1aab3"/><stop offset="1" stop-color="#8f979e"/></linearGradient><radialGradient cx="183.9625" cy="155.82916" r="37.44562" gradientUnits="userSpaceOnUse" id="color-4"><stop offset="0" stop-color="#9e6fd9"/><stop offset="0.173" stop-color="#aa73c7"/><stop offset="0.522" stop-color="#ca7f97"/><stop offset="1" stop-color="#fc914d"/></radialGradient></defs><g transform="translate(-116.46706,-87.20318)"><g stroke-miterlimit="10"><path d="M126.46707,97.20318c0,0 18.06419,0 22.86542,0c48.67154,0 204.94175,0 204.94175,0v162.24757h-227.80717z" fill="#fbdec4" fill-rule="nonzero" stroke="#fbdec4" stroke-width="20" stroke-linecap="round" stroke-linejoin="round"/><g fill="#f7d3b6" fill-rule="nonzero" stroke="none" stroke-width="1" stroke-linecap="butt" stroke-linejoin="miter"><path d="M140.03204,251.17819c-3.86748,0 -6.89421,-1.07063 -8.99434,-3.18353c-2.1285,-2.13559 -3.16012,-5.11762 -3.16012,-9.11708v-38.6557c0,-3.99945 1.03445,-6.98219 3.16224,-9.1185c2.10225,-2.11147 5.12827,-3.18211 8.99291,-3.18211h82.16863c3.88735,0 6.9233,1.06425 9.02413,3.15728l0.03547,0.03547c2.1285,2.21364 3.15231,5.18573 3.15231,9.10785v38.65499c0,3.92141 -1.02381,6.8935 -3.1289,9.0816l-0.03903,0.04044c-2.12212,2.11431 -5.15806,3.17572 -9.04329,3.17572z"/><path d="M222.20153,250.46845c3.68876,0 6.5614,-0.99747 8.53869,-2.96514l0.03291,-0.03386c1.97191,-2.05229 2.9305,-4.86283 2.9305,-8.59208v-38.65515c0,-3.72753 -0.96482,-6.54454 -2.94929,-8.61155l-0.02979,-0.02975c-1.96317,-1.95757 -4.8307,-2.95014 -8.52301,-2.95014h-82.16908c-3.66954,0 -6.52599,1.00033 -8.49002,2.97326c-1.98854,1.99703 -2.95518,4.81606 -2.95518,8.61817v38.65515c0,3.80243 0.96604,6.62095 2.95362,8.61702c1.9623,1.97347 4.81935,2.97406 8.49156,2.97406h82.16908M222.20153,251.17797h-82.16908c-3.86779,0 -6.8939,-1.07062 -8.99468,-3.1833c-2.12625,-2.1353 -3.16001,-5.11785 -3.16001,-9.11727v-38.65515c0,-3.99938 1.03419,-6.98197 3.16192,-9.11879c2.10208,-2.11157 5.12811,-3.18215 8.99277,-3.18215h82.16908c3.8871,0 6.92309,1.0623 9.02395,3.15724l0.0356,0.03555c2.12816,2.21351 3.15205,5.1854 3.15205,9.10814v38.65515c0,3.92161 -1.02355,6.89346 -3.12918,9.08446l-0.03915,0.04032c-2.12218,2.11429 -5.15773,3.17582 -9.04327,3.17582z"/></g><g fill="#f7d3b6" fill-rule="nonzero" stroke="none" stroke-width="1" stroke-linecap="butt" stroke-linejoin="miter"><path d="M259.22808,251.17819c-3.86748,0 -6.89421,-1.07063 -8.99434,-3.18353c-2.1285,-2.13559 -3.16012,-5.11762 -3.16012,-9.11708v-38.6557c0,-3.99945 1.03445,-6.98219 3.16224,-9.1185c2.10225,-2.11147 5.12827,-3.18211 8.99291,-3.18211h82.16863c3.88735,0 6.9233,1.06425 9.02413,3.15728l0.03547,0.03547c2.1285,2.21364 3.15231,5.18573 3.15231,9.10785v38.65499c0,3.92141 -1.02381,6.8935 -3.1289,9.0816l-0.03903,0.04044c-2.12212,2.11431 -5.15806,3.17572 -9.04329,3.17572z"/><path d="M341.39766,250.46845c3.68876,0 6.5614,-0.99747 8.53869,-2.96514l0.03291,-0.03386c1.97191,-2.05229 2.9305,-4.86283 2.9305,-8.59208v-38.65515c0,-3.72753 -0.96482,-6.54454 -2.94929,-8.61155l-0.02979,-0.02975c-1.96317,-1.95757 -4.8307,-2.95014 -8.52301,-2.95014h-82.16908c-3.66954,0 -6.52599,1.00033 -8.49002,2.97326c-1.98854,1.99703 -2.95518,4.81606 -2.95518,8.61817v38.65515c0,3.80243 0.96604,6.62095 2.95362,8.61702c1.9623,1.97347 4.81935,2.97406 8.49156,2.97406h82.16908M341.39766,251.17797h-82.16908c-3.86779,0 -6.8939,-1.07062 -8.99468,-3.1833c-2.12625,-2.1353 -3.16001,-5.11785 -3.16001,-9.11727v-38.65515c0,-3.99938 1.03419,-6.98197 3.16192,-9.11879c2.10208,-2.11157 5.12811,-3.18215 8.99277,-3.18215h82.16908c3.8871,0 6.92309,1.0623 9.02395,3.15724l0.0356,0.03555c2.12816,2.21351 3.15205,5.1854 3.15205,9.10814v38.65515c0,3.92161 -1.02355,6.89346 -3.12918,9.08446l-0.03915,0.04032c-2.12218,2.11429 -5.15773,3.17582 -9.04327,3.17582z"/></g><g fill="#f7d3b6" fill-rule="nonzero" stroke="none" stroke-width="1" stroke-linecap="butt" stroke-linejoin="miter"><path d="M140.03204,176.68069c-3.86748,0 -6.89421,-1.07063 -8.99434,-3.18353c-2.1285,-2.13559 -3.16012,-5.11762 -3.16012,-9.11708v-34.3987c0,-3.99945 1.03445,-6.98219 3.16224,-9.1185c2.10225,-2.11147 5.12827,-3.18211 8.99291,-3.18211h201.19509c3.88735,0 6.9233,1.06425 9.02413,3.15728l0.03547,0.03547c2.1285,2.21364 3.15231,5.18573 3.15231,9.10785v34.39799c0,3.92141 -1.02381,6.8935 -3.1289,9.0816l-0.03903,0.04044c-2.12212,2.11431 -5.15806,3.17572 -9.04329,3.17572z"/><path d="M341.22786,176.68048v-0.7095c3.6885,0 6.56132,-0.99769 8.5386,-2.96514l0.03473,-0.03564c1.9707,-2.05216 2.92877,-4.86227 2.92877,-8.59034v-34.39816c0,-3.72732 -0.96473,-6.54428 -2.94903,-8.61124l-0.03014,-0.03005c-1.96308,-1.95757 -4.83061,-2.95014 -8.52292,-2.95014h-201.19526c-3.66954,0 -6.52599,1.00033 -8.49002,2.97324c-1.98854,1.99705 -2.95518,4.81608 -2.95518,8.61819v34.39816c0,3.80243 0.96604,6.62095 2.95362,8.61698c1.9623,1.97347 4.81935,2.97411 8.49156,2.97411l201.19526,0.00004v0.7095M341.22786,176.68048l-201.19526,-0.00004c-3.86779,0 -6.8939,-1.07062 -8.99468,-3.1833c-2.12625,-2.1353 -3.16001,-5.11785 -3.16001,-9.11727v-34.39816c0,-3.99936 1.03419,-6.98196 3.16192,-9.11879c2.10208,-2.11157 5.12811,-3.18215 8.99277,-3.18215h201.19526c3.8871,0 6.92309,1.0623 9.02395,3.15724l0.0356,0.03558c2.12816,2.21348 3.15205,5.18536 3.15205,9.10812v34.39816c0,3.92165 -1.02355,6.89346 -3.12918,9.08449l-0.03915,0.04027c-2.12218,2.11429 -5.15773,3.17586 -9.04327,3.17586z"/></g><path d="M139.17424,149.53233h7.26954v7.2887h-7.26954z" fill="#000000" fill-rule="nonzero" stroke="none" stroke-width="1" stroke-linecap="butt" stroke-linejoin="miter" opacity="0"/><path d="M181.5408,148.52909h9.61302v7.64131h-9.61302z" fill="#000000" fill-rule="nonzero" stroke="none" stroke-width="1" stroke-linecap="butt" stroke-linejoin="miter" opacity="0"/><path d="M202.93296,150.20988h7.93221v5.61782h-7.93221z" fill="#000000" fill-rule="nonzero" stroke="none" stroke-width="1" stroke-linecap="butt" stroke-linejoin="miter" opacity="0"/><path d="M224.325,150.20988h7.93221v5.61782h-7.93221z" fill="#000000" fill-rule="nonzero" stroke="none" stroke-width="1" stroke-linecap="butt" stroke-linejoin="miter" opacity="0"/><path d="M245.71725,150.20988h7.93221v5.61782h-7.93221z" fill="#000000" fill-rule="nonzero" stroke="none" stroke-width="1" stroke-linecap="butt" stroke-linejoin="miter" opacity="0"/><path d="M288.88104,150.20988h7.93221v5.61782h-7.93221z" fill="#000000" fill-rule="nonzero" stroke="none" stroke-width="1" stroke-linecap="butt" stroke-linejoin="miter" opacity="0"/><path d="M312.23429,150.20988h7.93221v5.61782h-7.93221z" fill="#000000" fill-rule="nonzero" stroke="none" stroke-width="1" stroke-linecap="butt" stroke-linejoin="miter" opacity="0"/><path d="M334.96304,150.20988h7.93221v5.61782h-7.93221z" fill="#000000" fill-rule="nonzero" stroke="none" stroke-width="1" stroke-linecap="butt" stroke-linejoin="miter" opacity="0"/><path d="M266.26919,148.8782h8.36643v8.28129h-8.36643z" fill="#000000" fill-rule="nonzero" stroke="none" stroke-width="1" stroke-linecap="butt" stroke-linejoin="miter" opacity="0"/><text transform="translate(290.36404,219.61324) scale(0.32817,0.32817)" font-size="24" xml:space="preserve" fill="#904100" fill-rule="nonzero" stroke="#000000" stroke-width="0" stroke-linecap="butt" stroke-linejoin="miter" font-family="Segoe UI" font-weight="bold" text-anchor="start"><tspan x="0" dy="0">Protection from</tspan><tspan x="0" dy="28.799999999999997px">      malware</tspan></text><g fill-rule="nonzero" stroke="none" stroke-width="1" stroke-linecap="butt" stroke-linejoin="miter"><path d="M181.84058,159.95594h-36.84632c-1.19751,0 -2.16743,-0.96993 -2.16743,-2.16743v-3.25115h41.18119v3.25115c0,1.19751 -0.96992,2.16743 -2.16743,2.16743z" fill="url(#color-1)"/><path d="M168.83601,165.37453h-10.83715l1.08371,-5.41858h8.66973z" fill="url(#color-2)"/><path d="M173.17087,165.91639v1.08372c0,0.29911 -0.24274,0.54185 -0.54185,0.54185h-18.42316c-0.29911,0 -0.54187,-0.24275 -0.54187,-0.54185v-1.08372c0,-0.29911 0.24275,-0.54185 0.54187,-0.54185h18.42316c0.29911,0 0.54185,0.24275 0.54185,0.54185z" fill="url(#color-3)"/><path d="M184.00802,131.77934v23.84174h-41.18119v-23.84174c0,-1.19751 0.96993,-2.16742 2.16743,-2.16742h36.84633c1.19751,0 2.16743,0.96992 2.16743,2.16742z" fill="url(#color-4)"/></g><g fill="none" fill-rule="nonzero" stroke="#ffffff" stroke-width="2" stroke-linecap="round" stroke-linejoin="miter"><path d="M179.81552,157.06039l-3.05011,-3.05011"/><path d="M184.47095,152.83306l-4.38785,4.38786"/></g><text transform="translate(206.49465,154.10618) scale(0.54232,0.54232)" font-size="24" xml:space="preserve" fill="#904100" fill-rule="nonzero" stroke="#000000" stroke-width="0" stroke-linecap="butt" stroke-linejoin="miter" font-family="Segoe UI" font-weight="bold" text-anchor="start"><tspan x="0" dy="0">No critical issues found </tspan></text><g fill-rule="nonzero" stroke-linejoin="miter"><path d="M329.83574,97.09648c0,-3.22492 2.61429,-5.83921 5.83921,-5.83921c3.22492,0 5.83921,2.61429 5.83921,5.83921c0,3.22492 -2.61428,5.83921 -5.83921,5.83921c-3.22492,0 -5.83921,-2.61429 -5.83921,-5.83921z" fill="#fbdec4" stroke="#ff3535" stroke-width="0" stroke-linecap="butt"/><path d="M343.30624,97.15291c0,-3.22492 2.61429,-5.83921 5.83921,-5.83921c3.22492,0 5.83921,2.61429 5.83921,5.83921c0,3.22492 -2.61428,5.83921 -5.83921,5.83921c-3.22492,0 -5.83921,-2.61429 -5.83921,-5.83921z" fill="#ff4848" stroke="#ff3535" stroke-width="0" stroke-linecap="butt"/><g fill="none" stroke="#ffffff" stroke-width="1.5" stroke-linecap="round"><path d="M351.35025,99.61069l-4.29168,-4.29168"/><path d="M351.35025,95.31903l-4.29168,4.29168"/></g></g><g stroke-linejoin="miter"><g stroke="none" stroke-linecap="butt"><path d="M270.01955,212.38696c0,0.42404 0,0.84809 0,1.27213c-1.02789,0.13044 -2.01729,-0.01095 -2.96831,-0.42404c0.1538,-0.28984 0.29517,-0.5725 0.42404,-0.84809c-0.17441,-2.14994 -0.73979,-4.19946 -1.69618,-6.14862c0.78393,-2.2164 2.33876,-2.92315 4.66448,-2.12022c1.24384,1.93741 1.03182,3.70422 -0.63607,5.30055c-0.29822,1.03004 -0.22754,2.01951 0.21202,2.96831z" fill="#8ac34a" fill-rule="evenodd" stroke-width="1" opacity="0.921"/><path d="M267.47531,212.38696c-0.12886,0.27559 -0.27024,0.55825 -0.42404,0.84809c0.95099,0.4131 1.94042,0.55448 2.96831,0.42404c0,-0.42404 0,-0.84809 0,-1.27213c0.7277,0.05457 1.43444,0.19591 2.12022,0.42404c0.61266,0.66265 1.3194,1.22804 2.12022,1.69618c0.68619,0.96893 1.53427,1.81702 2.54426,2.54426c1.23388,-0.1477 2.08197,-0.78376 2.54426,-1.9082c3.17799,-0.50346 4.02608,0.62733 2.54426,3.39235c-1.69618,0.14134 -3.39235,0.2827 -5.08853,0.42404c-0.39143,0.86539 -0.53277,1.78416 -0.42404,2.75629c-1.03793,-0.17611 -1.60336,0.24794 -1.69618,1.27213c0.10483,0.51449 0.38749,0.79721 0.84809,0.84809c-0.18322,0.51289 -0.4659,0.93693 -0.84809,1.27213c-0.86496,0.71111 -1.71305,1.41788 -2.54426,2.12022c-0.47027,0.02413 -0.89431,0.16547 -1.27213,0.42404c0.00679,-0.84134 -0.41726,-1.26539 -1.27213,-1.27213c-0.91289,0.02599 -1.47829,0.45004 -1.69618,1.27213c-0.56539,0 -1.13079,0 -1.69618,0c-0.89876,-0.80559 -1.88817,-1.5123 -2.96831,-2.12022c-0.4165,-0.27174 -0.84054,-0.55444 -1.27213,-0.84809c-1.31512,0.67778 -2.44593,1.59657 -3.39235,2.75629c-3.7359,0.21924 -4.72532,-1.33562 -2.96831,-4.66448c0.52103,-0.33122 1.08639,-0.54325 1.69618,-0.63607c1.02411,0.7277 2.1549,0.93972 3.39235,0.63607c0.35476,-0.42884 0.49614,-0.92352 0.42404,-1.48415c-0.06683,-1.44273 0.07456,-2.85618 0.42404,-4.24044c0.37876,-2.25998 -0.61071,-3.74414 -2.96831,-4.45246c-2.26375,-2.33585 -1.83971,-4.10271 1.27213,-5.30055c0.9315,0.14761 1.70889,0.57166 2.33224,1.27213c0.14134,1.13079 0.2827,2.26154 0.42404,3.39235c0.27003,0.7646 0.76476,1.32996 1.48415,1.69618c1.00007,-0.7576 2.13082,-1.18165 3.39235,-1.27213z" fill="#4caf50" fill-rule="evenodd" stroke-width="1" opacity="0.96"/><path d="M274.25998,214.50716c-0.8008,-0.46814 -1.50756,-1.03352 -2.12022,-1.69618c-0.31036,-2.18043 0.67907,-3.59394 2.96831,-4.24044c2.37094,0.48794 3.14835,1.90141 2.33224,4.24044c-0.9563,0.84758 -2.01641,1.41296 -3.18033,1.69618z" fill="#2e7d32" fill-rule="evenodd" stroke-width="1" opacity="0.944"/><path d="M261.53873,217.05142c-0.34949,1.38424 -0.49087,2.79771 -0.42404,4.24044c-0.34619,-0.69695 -0.91161,-1.19169 -1.69618,-1.48415c-1.83446,0.03952 -3.672,0.03952 -5.51257,0c-0.46281,-0.87519 -0.53349,-1.79392 -0.21202,-2.75629c0.40539,-0.59115 0.9708,-0.87383 1.69618,-0.84809c1.37828,0.54817 2.79173,0.97221 4.24044,1.27213c0.67487,-0.04461 1.31094,-0.18599 1.9082,-0.42404z" fill="#2d7c32" fill-rule="evenodd" stroke-width="1" opacity="0.932"/><path d="M276.38021,221.7159c0.83681,0.41841 1.6849,0.84245 2.54426,1.27213c3.8716,-1.60637 5.49714,-0.33424 4.87651,3.8164c-1.23702,0.80285 -2.57979,1.01487 -4.02842,0.63607c-0.96471,-1.74308 -2.37816,-2.94451 -4.24044,-3.60437c-0.46059,-0.05088 -0.74326,-0.3336 -0.84809,-0.84809c0.09282,-1.0242 0.65825,-1.44824 1.69618,-1.27213z" fill="#8bc44a" fill-rule="evenodd" stroke-width="1" opacity="0.931"/><path d="M274.68404,225.10822c0,0.70675 0,1.41347 0,2.12022c1.91722,0.07917 3.04803,1.06864 3.39235,2.96831c-1.2354,2.80768 -3.00227,3.23172 -5.30055,1.27213c-0.07579,-1.49483 -0.28781,-2.90835 -0.63607,-4.24044c0.83122,-0.70234 1.67931,-1.40909 2.54426,-2.12022z" fill="#2d7c31" fill-rule="evenodd" stroke-width="1" opacity="0.956"/><path d="M263.23488,225.53228c1.08012,0.6079 2.06955,1.31463 2.96831,2.12022c-0.79338,0.15214 -1.42944,0.57619 -1.9082,1.27213c-0.19179,1.12345 -0.54519,2.18356 -1.06011,3.18033c-1.79884,0.94003 -3.07097,0.44532 -3.8164,-1.48415c0.67087,-1.61705 1.87232,-2.6065 3.60437,-2.96831c0.20928,-0.69293 0.27996,-1.39968 0.21202,-2.12022z" fill="#2e7c32" fill-rule="evenodd" stroke-width="1" opacity="0.934"/><path d="M270.86767,227.65252c0.00726,2.01586 0.28996,3.9947 0.84809,5.93662c-0.6475,2.41289 -2.20236,3.19033 -4.66448,2.33224c-0.78309,-1.09365 -0.99511,-2.2951 -0.63607,-3.60437c0.94052,-0.71333 1.71797,-1.56141 2.33224,-2.54426c-0.40559,-0.66804 -0.68826,-1.37475 -0.84809,-2.12022c0.21786,-0.8221 0.78329,-1.24614 1.69618,-1.27213c0.85487,0.00674 1.27892,0.43079 1.27213,1.27213z" fill="#8ac44a" fill-rule="evenodd" stroke-width="1" opacity="0.932"/><path d="M268.96153,222.55236c0,-1.01475 0.82261,-1.83735 1.83735,-1.83735c1.01475,0 1.83735,0.82261 1.83735,1.83735c0,1.01475 -0.82261,1.83735 -1.83735,1.83735c-1.01475,0 -1.83735,-0.82261 -1.83735,-1.83735z" fill="#d1e8bf" fill-rule="nonzero" stroke-width="0"/><path d="M264.95275,217.04031c0,-1.476 1.19653,-2.67251 2.67251,-2.67251c1.476,0 2.67251,1.19653 2.67251,2.67251c0,1.476 -1.19653,2.67251 -2.67251,2.67251c-1.476,0 -2.67251,-1.19653 -2.67251,-2.67251z" fill="#bfdea0" fill-rule="nonzero" stroke-width="0"/><path d="M264.1176,223.97212c0,-0.87638 0.71044,-1.58681 1.58681,-1.58681c0.87638,0 1.58681,0.71044 1.58681,1.58681c0,0.87638 -0.71044,1.58681 -1.58681,1.58681c-0.87638,0 -1.58681,-0.71044 -1.58681,-1.58681z" fill="#e0f0d9" fill-rule="nonzero" stroke-width="0"/></g><path d="M279.00946,232.04655l-23.26006,-23.26006" fill="none" fill-rule="nonzero" stroke="#e76800" stroke-width="3" stroke-linecap="round"/></g><g fill-rule="nonzero"><path d="M136.27565,232.19646c0,0 0,-2.5893 0,-4.70988c0,-4.4116 0,-20.38412 0,-20.38412h22.34522c0,0 0,17.21385 0,22.57525c0,0.52887 0,2.51873 0,2.51873z" fill="#a3a3a3" stroke="#a3a3a3" stroke-width="2" stroke-linecap="round" stroke-linejoin="round"/><path d="M158.72758,206.17856c0,0 0,0.45377 0,0.82539c0,0.77314 0,3.57229 0,3.57229h-22.45193c0,0 0,-3.0167 0,-3.95627c0,-0.09268 0,-0.44141 0,-0.44141z" fill="#666666" stroke="#666666" stroke-width="2" stroke-linecap="round" stroke-linejoin="round"/><path d="M139.4405,222.56093c0,-4.42726 3.58902,-8.01628 8.01628,-8.01628c4.42726,0 8.01628,3.58902 8.01628,8.01628c0,4.42726 -3.58902,8.01628 -8.01628,8.01628c-4.42726,0 -8.01628,-3.58902 -8.01628,-8.01628z" fill="#f7d3b6" stroke="none" stroke-width="0" stroke-linecap="butt" stroke-linejoin="miter"/><path d="M144.40366,222.56093c0,-1.68621 1.36695,-3.05316 3.05316,-3.05316c1.68621,0 3.05316,1.36695 3.05316,3.05316c0,1.68621 -1.36695,3.05316 -3.05316,3.05316c-1.68621,0 -3.05316,-1.36695 -3.05316,-3.05316z" fill="#666666" stroke="none" stroke-width="0" stroke-linecap="butt" stroke-linejoin="miter"/><path d="M136.03882,208.15951c0,-1.43213 1.16096,-2.59308 2.59308,-2.59308c1.43213,0 2.59308,1.16096 2.59308,2.59308c0,1.43213 -1.16096,2.59308 -2.59308,2.59308c-1.43213,0 -2.59308,-1.16096 -2.59308,-2.59308z" fill="#cd8093" stroke="none" stroke-width="0.5" stroke-linecap="butt" stroke-linejoin="miter"/></g><text transform="translate(124.24797,100.23904) scale(0.19549,0.19549)" font-size="40" xml:space="preserve" fill="#7e3900" fill-rule="nonzero" stroke="#803a00" stroke-width="1" stroke-linecap="butt" stroke-linejoin="miter" font-family="Sans Serif" font-weight="normal" text-anchor="start"><tspan x="0" dy="0">Device Care</tspan></text><g fill-rule="nonzero" stroke-linejoin="miter"><path d="M174.65738,158.02467c-1.73636,-3.26283 -0.49891,-7.31547 2.76392,-9.05182c3.26283,-1.73636 7.31547,-0.49891 9.05182,2.76391c1.73636,3.26283 0.49891,7.31547 -2.76391,9.05184c-3.26283,1.73636 -7.31547,0.49891 -9.05184,-2.76392z" fill="#e76800" stroke="none" stroke-width="0" stroke-linecap="butt"/><path d="M183.58781,153.2079l-3.8236,3.8236l-2.7029,-2.7029" fill="none" stroke="#ffffff" stroke-width="1" stroke-linecap="round"/></g><text transform="translate(173.28069,201.8216) scale(0.36868,0.36868)" font-size="24" xml:space="preserve" fill="#904100" fill-rule="nonzero" stroke="#000000" stroke-width="0" stroke-linecap="butt" stroke-linejoin="miter" font-family="Segoe UI" font-weight="bold" text-anchor="start"><tspan x="0" dy="0">SJ Main SSD - </tspan><tspan x="0" dy="28.799999999999997px">256 GB</tspan></text><text transform="translate(174.9474,234.61327) scale(0.32817,0.32817)" font-size="24" xml:space="preserve" fill="#ac5c1a" fill-rule="nonzero" stroke="#000000" stroke-width="0" stroke-linecap="butt" stroke-linejoin="miter" font-family="Segoe UI" font-weight="bold" text-anchor="start"><tspan x="0" dy="0">213 GB free</tspan></text><g fill-rule="nonzero" stroke-linejoin="miter"><path d="M153.55953,232.46658c-1.52019,-2.85662 -0.4368,-6.40473 2.41982,-7.92491c2.85662,-1.52019 6.40473,-0.4368 7.92491,2.41981c1.52019,2.85662 0.4368,6.40473 -2.41981,7.92492c-2.85662,1.52019 -6.40473,0.4368 -7.92492,-2.41982z" fill="#e76800" stroke="none" stroke-width="0" stroke-linecap="butt"/><path d="M161.37818,228.2495l-3.34758,3.34758l-2.3664,-2.3664" fill="none" stroke="#ffffff" stroke-width="1" stroke-linecap="round"/></g><text transform="translate(278.74737,171.20628) scale(0.27229,0.27229)" font-size="24" xml:space="preserve" fill="#20243f" fill-rule="nonzero" stroke="#000000" stroke-width="0" stroke-linecap="butt" stroke-linejoin="miter" font-family="Segoe UI" font-weight="bold" text-anchor="start"><tspan x="0" dy="0">Last scanned: Today</tspan></text></g></g></svg>