<svg version="1.1" xmlns="http://www.w3.org/2000/svg" xmlns:xlink="http://www.w3.org/1999/xlink" width="28.71795" height="28.11399" viewBox="0,0,28.71795,28.11399"><defs><linearGradient x1="66.76938" y1="401.5487" x2="66.76938" y2="409.68264" gradientUnits="userSpaceOnUse" id="color-1"><stop offset="0" stop-color="#ecd935"/><stop offset="1" stop-color="#3bcab9"/></linearGradient><linearGradient x1="68.43306" y1="411.34632" x2="76.56701" y2="411.34632" gradientUnits="userSpaceOnUse" id="color-2"><stop offset="0" stop-color="#00b8e8"/><stop offset="1" stop-color="#4b5eff"/></linearGradient><linearGradient x1="68.43306" y1="399.88502" x2="76.56701" y2="399.88502" gradientUnits="userSpaceOnUse" id="color-3"><stop offset="0" stop-color="#ffc823"/><stop offset="1" stop-color="#ff2f78"/></linearGradient><linearGradient x1="77.49468" y1="402.2847" x2="78.23069" y2="409.68264" gradientUnits="userSpaceOnUse" id="color-4"><stop offset="0" stop-color="#de00c0"/><stop offset="1" stop-color="#8720ff"/></linearGradient></defs><g transform="translate(-58.14113,-391.55868)"><g data-paper-data="{&quot;isPaintingLayer&quot;:true}" fill-rule="evenodd" stroke="none" stroke-width="1" stroke-linejoin="miter" stroke-miterlimit="10" stroke-dasharray="" stroke-dashoffset="0" style="mix-blend-mode: normal"><path d="M67.50884,408.94319c-0.40839,0.40839 -0.73945,0.73945 -0.73945,0.73945l-4.06697,-4.06697c0,0 0.33106,-0.33106 0.73945,-0.73945l2.58807,-2.58807c0.40839,-0.40839 0.73945,-0.73945 0.73945,-0.73945l4.06697,4.06697c0,0 -0.33106,0.33105 -0.73945,0.73945z" fill="url(#color-1)" stroke-linecap="butt"/><path d="M73.23948,414.67385c-0.40839,0.40839 -0.73945,0.73945 -0.73945,0.73945l-4.06697,-4.06697c0,0 0.33106,-0.33106 0.73945,-0.73945l2.58807,-2.58807c0.40839,-0.40839 0.73945,-0.73945 0.73945,-0.73945l4.06697,4.06697c0,0 -0.33106,0.33106 -0.73945,0.73945z" fill="url(#color-2)" stroke-linecap="butt"/><path d="M73.23948,403.21254c-0.40839,0.40839 -0.73945,0.73945 -0.73945,0.73945l-4.06697,-4.06697c0,0 0.33106,-0.33106 0.73945,-0.73945l2.58807,-2.58807c0.40839,-0.40839 0.73945,-0.73945 0.73945,-0.73945l4.06697,4.06697c0,0 -0.33106,0.33106 -0.73945,0.73945z" fill="url(#color-3)" stroke-linecap="butt"/><path d="M78.97014,408.94319c-0.40839,0.40839 -0.73945,0.73945 -0.73945,0.73945l-4.06697,-4.06697c0,0 0.33105,-0.33106 0.73945,-0.73945l2.58807,-2.58807c0.40839,-0.40839 0.73945,-0.73945 0.73945,-0.73945l4.06697,4.06697c0,0 -0.33105,0.33105 -0.73945,0.73945z" fill="url(#color-4)" stroke-linecap="butt"/><path d="M58.14114,395.46906c0,-2.15965 1.78835,-3.91038 3.99439,-3.91038h20.72919c1.05937,0 2.07536,0.41199 2.82446,1.14533c0.74908,0.73333 1.16991,1.72795 1.16991,2.76505v20.29323c0,2.15965 -1.78834,3.91038 -3.99437,3.91038h-20.72919c-2.20604,0 -3.99439,-1.75074 -3.99439,-3.91038z" fill-opacity="0.00784" fill="#3d3d3d" stroke-linecap="square"/></g></g></svg>