<svg version="1.1" xmlns="http://www.w3.org/2000/svg" xmlns:xlink="http://www.w3.org/1999/xlink" width="15.40535" height="43.41056" viewBox="0,0,15.40535,43.41056"><g transform="translate(-232.16607,-142.80912)"><g data-paper-data="{&quot;isPaintingLayer&quot;:true}" stroke="none" stroke-linejoin="miter" stroke-miterlimit="10" stroke-dasharray="" stroke-dashoffset="0" style="mix-blend-mode: normal"><path d="M232.16608,148.73878c0,-3.27488 0.21348,-5.92966 0.4768,-5.92966h13.71435c0.12646,0 0.24773,0.62475 0.33715,1.73676c0.08942,1.11202 0.13965,2.62024 0.13965,4.19288v30.77244c0,3.27488 -0.21347,5.92966 -0.4768,5.92966h-13.71435c-0.26333,0 -0.4768,-2.6548 -0.4768,-5.92966z" fill-opacity="0.00784" fill="#3d3d3d" fill-rule="evenodd" stroke-width="1" stroke-linecap="square"/><path d="M238.42132,177.0436v5.19646c0.00018,0.14281 -0.0816,0.27304 -0.21031,0.33493c-0.12871,0.06188 -0.28149,0.04442 -0.39293,-0.04489l-1.7542,-1.40359h-0.6121c-0.61472,-0.00067 -1.11288,-0.49883 -1.11356,-1.11355v-0.74226c0.00067,-0.61472 0.49883,-1.11288 1.11356,-1.11355h0.6121l1.7542,-1.4036c0.11141,-0.08919 0.26409,-0.10659 0.39271,-0.04477c0.12862,0.06182 0.2104,0.19193 0.21035,0.33463z" fill="#3d3d3d" fill-rule="nonzero" stroke-width="1" stroke-linecap="butt"/><path d="M240.93256,181.69738c-0.14193,0.14789 -0.37688,0.15272 -0.52477,0.01079c-0.14789,-0.14193 -0.15271,-0.37687 -0.01078,-0.52476c0.82975,-0.86017 0.82975,-2.22281 0,-3.08298c-0.14194,-0.14789 -0.13711,-0.38284 0.01078,-0.52477c0.1479,-0.14193 0.38284,-0.1371 0.52477,0.01079c0.59209,0.61451 0.86707,1.42089 0.82492,2.21361c-0.0496,0.24656 -0.09645,0.49869 -0.13899,0.75355c-0.13425,0.41612 -0.36289,0.8085 -0.68593,1.14376z" fill="#3d3d3d" fill-rule="nonzero" stroke-width="1" stroke-linecap="butt"/><path d="" fill="#3d3d3d" fill-rule="nonzero" stroke-width="1" stroke-linecap="butt"/><path d="M239.3628,178.62117c0.15071,-0.13885 0.38541,-0.12935 0.52441,0.02123c0.51993,0.56524 0.51993,1.43463 0,1.99987c-0.13934,0.15053 -0.37432,0.15961 -0.52485,0.02027c-0.15053,-0.13934 -0.15961,-0.37432 -0.02027,-0.52485c0.25675,-0.28074 0.25675,-0.71103 0,-0.99176c-0.06684,-0.07229 -0.10221,-0.16819 -0.09833,-0.26658c0.00388,-0.09839 0.0467,-0.1912 0.11904,-0.258z" fill="#3d3d3d" fill-rule="nonzero" stroke-width="1" stroke-linecap="butt"/><path d="M247.57143,184.08304v2.13664h-5.00904" fill="none" fill-rule="nonzero" stroke-width="0" stroke-linecap="butt"/></g></g></svg>