<svg version="1.1" xmlns="http://www.w3.org/2000/svg" xmlns:xlink="http://www.w3.org/1999/xlink" width="101.78179" height="65.78379" viewBox="0,0,101.78179,65.78379"><g transform="translate(-5.49894,-65.09184)"><g data-paper-data="{&quot;isPaintingLayer&quot;:true}" fill-rule="nonzero" stroke-linecap="butt" stroke-linejoin="miter" stroke-miterlimit="10" stroke-dasharray="" stroke-dashoffset="0" style="mix-blend-mode: normal"><path d="" fill="#ffffff" stroke="none" stroke-width="1"/><g stroke="none" stroke-width="1"><path d="M11.78483,83.331c-1.65853,0.17575 -3.30692,-0.41269 -4.47923,-1.599c-1.1723,-1.1863 -1.74116,-2.84156 -1.54574,-4.49788v-6.01483c-0.1954,-1.65633 0.37344,-3.31158 1.54574,-4.49788c1.1723,-1.1863 2.82069,-1.77474 4.47923,-1.599h89.13938c1.64141,-0.10366 3.25486,0.46165 4.47264,1.56708l0.01751,0.01752c1.10527,1.2353 1.66821,2.86268 1.56248,4.51689v6.01484c0.10571,1.64808 -0.45303,3.26983 -1.55142,4.50306l-0.01935,0.02028c-1.21971,1.10969 -2.83705,1.67773 -4.48278,1.57446z" fill="#3859cd"/><text transform="translate(22.66137,77.12112) scale(0.1682,0.1682)" font-size="40" xml:space="preserve" fill="#ffffff" fill-rule="nonzero" stroke="none" stroke-width="1" stroke-linecap="butt" stroke-linejoin="miter" stroke-miterlimit="10" stroke-dasharray="" stroke-dashoffset="0" font-family="Sans Serif" font-weight="normal" text-anchor="start" style="mix-blend-mode: normal"><tspan x="0" dy="0">Home</tspan></text><path d="M17.53474,77.73534h-1.83193c-0.2811,0 -0.50887,-0.22777 -0.50887,-0.50887v-1.83193c0,-0.22492 -0.18217,-0.40709 -0.40709,-0.40709h-0.81419c-0.22492,0 -0.40709,0.18217 -0.40709,0.40709v1.83193c0,0.2811 -0.22777,0.50887 -0.50887,0.50887h-1.83193c-0.2811,0 -0.50887,-0.22777 -0.50887,-0.50887v-3.88511c0,-0.46796 0.21454,-0.91006 0.58194,-1.1995l2.89281,-2.27953c0.11093,-0.08712 0.26726,-0.08712 0.37799,0l2.89322,2.27953c0.3674,0.28944 0.58174,0.73135 0.58174,1.1991v3.88551c0,0.2811 -0.22777,0.50887 -0.50887,0.50887z" fill="#ffffff"/></g><path d="M11.56173,106.89228c-1.65853,0.17575 -3.30692,-0.41269 -4.47923,-1.599c-1.1723,-1.1863 -1.74116,-2.84156 -1.54574,-4.49788v-6.01483c-0.1954,-1.65633 0.37344,-3.31158 1.54574,-4.49788c1.1723,-1.1863 2.82069,-1.77474 4.47923,-1.599h89.13938c1.64141,-0.10366 3.25486,0.46165 4.47264,1.56708l0.01751,0.01752c1.10527,1.2353 1.66821,2.86268 1.56248,4.51689v6.01484c0.10571,1.64808 -0.45303,3.26983 -1.55142,4.50306l-0.01935,0.02028c-1.21971,1.10969 -2.83705,1.67773 -4.48278,1.57446z" fill="#3859cd" stroke="none" stroke-width="1"/><text transform="translate(22.43827,100.6824) scale(0.1682,0.1682)" font-size="40" xml:space="preserve" fill="#ffffff" fill-rule="nonzero" stroke="none" stroke-width="1" stroke-linecap="butt" stroke-linejoin="miter" stroke-miterlimit="10" stroke-dasharray="" stroke-dashoffset="0" font-family="Sans Serif" font-weight="normal" text-anchor="start" style="mix-blend-mode: normal"><tspan x="0" dy="0">Trending</tspan></text><path d="M12.07604,130.84505c-1.65853,0.17575 -3.30692,-0.41269 -4.47923,-1.599c-1.1723,-1.1863 -1.74116,-2.84156 -1.54574,-4.49788v-6.01483c-0.1954,-1.65633 0.37344,-3.31158 1.54574,-4.49788c1.1723,-1.1863 2.82069,-1.77474 4.47923,-1.599h89.13938c1.64141,-0.10366 3.25486,0.46165 4.47264,1.56708l0.01751,0.01752c1.10527,1.2353 1.66821,2.86268 1.56248,4.51689v6.01484c0.10571,1.64808 -0.45303,3.26983 -1.55142,4.50306l-0.01935,0.02028c-1.21971,1.10969 -2.83705,1.67773 -4.48278,1.57446z" fill="#3859cd" stroke="none" stroke-width="1"/><text transform="translate(22.45258,124.63517) scale(0.1682,0.1682)" font-size="40" xml:space="preserve" fill="#ffffff" fill-rule="nonzero" stroke="none" stroke-width="1" stroke-linecap="butt" stroke-linejoin="miter" stroke-miterlimit="10" stroke-dasharray="" stroke-dashoffset="0" font-family="Sans Serif" font-weight="normal" text-anchor="start" style="mix-blend-mode: normal"><tspan x="0" dy="0">All songs</tspan></text><path d="M14.08901,118.09836c-0.0995,-0.09354 -0.22198,-0.15909 -0.355,-0.19c-0.1564,-0.03551 -0.31669,-0.05097 -0.477,-0.046h-1.4c-0.15865,-0.00487 -0.31727,0.01059 -0.472,0.046c-0.13302,0.03091 -0.2555,0.09646 -0.355,0.19l-0.008,0.009c-0.19427,0.23213 -0.28304,0.5347 -0.245,0.835v1.392c-0.03917,0.30038 0.04974,0.6034 0.245,0.835c0.23408,0.19431 0.53817,0.283 0.84,0.245h1.392c0.30183,0.038 0.60592,-0.05069 0.84,-0.245c0.19526,-0.2316 0.28417,-0.53462 0.245,-0.835v-1.394c0.03899,-0.30099 -0.04986,-0.60455 -0.245,-0.837zM18.37101,118.10336c0.19497,0.23327 0.28312,0.53764 0.243,0.839v1.396c0.03917,0.30038 -0.04974,0.6034 -0.245,0.835c-0.23408,0.19431 -0.53817,0.283 -0.84,0.245h-1.392c-0.30183,0.038 -0.60592,-0.05069 -0.84,-0.245c-0.19526,-0.2316 -0.28417,-0.53462 -0.245,-0.835v-1.4c-0.03804,-0.3003 0.05073,-0.60287 0.245,-0.835l0.008,-0.009c0.0995,-0.09354 0.22198,-0.15909 0.355,-0.19c0.15473,-0.03541 0.31335,-0.05087 0.472,-0.046h1.4c0.1603,-0.00486 0.32058,0.0106 0.477,0.046c0.13302,0.03091 0.2555,0.09646 0.355,0.19l0.008,0.009zM14.09401,122.45436c0.19514,0.23245 0.28399,0.53601 0.245,0.837v1.394c0.03942,0.3004 -0.04952,0.60352 -0.245,0.835c-0.23408,0.19431 -0.53817,0.283 -0.84,0.245h-1.395c-0.30183,0.038 -0.60592,-0.05069 -0.84,-0.245c-0.19548,-0.23148 -0.28442,-0.5346 -0.245,-0.835v-1.4c-0.03804,-0.3003 0.05073,-0.60287 0.245,-0.835l0.008,-0.008c0.09901,-0.09462 0.22161,-0.16093 0.355,-0.192c0.15473,-0.03541 0.31335,-0.05087 0.472,-0.046h1.4c0.16031,-0.00497 0.3206,0.01049 0.477,0.046c0.13339,0.03107 0.25599,0.09738 0.355,0.192zM18.36901,122.45436c0.19514,0.23245 0.28399,0.53601 0.245,0.837v1.394c0.03942,0.3004 -0.04952,0.60352 -0.245,0.835c-0.23408,0.19431 -0.53817,0.283 -0.84,0.245h-1.392c-0.30183,0.038 -0.60592,-0.05069 -0.84,-0.245c-0.19548,-0.23148 -0.28442,-0.5346 -0.245,-0.835v-1.4c-0.03804,-0.3003 0.05073,-0.60287 0.245,-0.835l0.008,-0.008c0.09901,-0.09462 0.22161,-0.16093 0.355,-0.192c0.15473,-0.03541 0.31335,-0.05087 0.472,-0.046h1.4c0.1603,-0.00486 0.32058,0.0106 0.477,0.046c0.13339,0.03107 0.25599,0.09738 0.355,0.192z" fill="#ffffff" stroke="none" stroke-width="1"/><path d="M16.32838,93.08022c0.07566,0.06049 0.11973,0.15207 0.1198,0.24893v0.488c0.00014,1.02357 -0.70936,1.91045 -1.708,2.135v0c-0.20651,0.05446 -0.35309,0.23758 -0.361,0.451v4.08c0.00853,0.64677 -0.48881,1.18797 -1.134,1.234c-0.44663,0.02379 -0.86904,-0.20424 -1.09422,-0.59068c-0.22518,-0.38644 -0.2153,-0.86637 0.02561,-1.24321c0.2409,-0.37684 0.67235,-0.58728 1.11761,-0.54512c0.11146,0.01391 0.22347,-0.02116 0.30709,-0.09615c0.08362,-0.07499 0.13064,-0.18254 0.12891,-0.29485v-4.515c0.01934,-0.51261 0.37116,-0.95249 0.867,-1.084l1.462,-0.33c0.0945,-0.02126 0.19354,0.00158 0.2692,0.06207z" fill="#ffffff" stroke="#ffffff" stroke-width="0.5"/></g></g></svg>