<svg version="1.1" xmlns="http://www.w3.org/2000/svg" xmlns:xlink="http://www.w3.org/1999/xlink" width="29.71795" height="29.09296" viewBox="0,0,29.71795,29.09296"><defs><linearGradient x1="229.66095" y1="217.30607" x2="245.86666" y2="217.30607" gradientUnits="userSpaceOnUse" id="color-1"><stop offset="0" stop-color="#0176d0"/><stop offset="1" stop-color="#16538c"/></linearGradient><linearGradient x1="230.48824" y1="215.34868" x2="249.1825" y2="215.34868" gradientUnits="userSpaceOnUse" id="color-2"><stop offset="0" stop-color="#33bef0"/><stop offset="1" stop-color="#22a5e2"/></linearGradient><linearGradient x1="234.483" y1="215.79872" x2="253.12891" y2="219.08621" gradientUnits="userSpaceOnUse" id="color-3"><stop offset="0" stop-color="#fcfcfc"/><stop offset="1" stop-color="#c3c9cd"/></linearGradient><linearGradient x1="243.59297" y1="227.66471" x2="243.02503" y2="223.93576" gradientUnits="userSpaceOnUse" id="color-4"><stop offset="0" stop-color="#f0f0f0"/><stop offset="1" stop-color="#bbc1c4"/></linearGradient></defs><g transform="translate(-225.89106,-200.32852)"><g data-paper-data="{&quot;isPaintingLayer&quot;:true}" stroke-linejoin="miter" stroke-miterlimit="10" stroke-dasharray="" stroke-dashoffset="0" style="mix-blend-mode: normal"><path d="M225.89107,204.37507c0,-2.23485 1.85062,-4.04655 4.13348,-4.04655h21.45101c1.09626,0 2.14763,0.42634 2.92281,1.18521c0.77516,0.75887 1.21065,1.78812 1.21065,2.86133v20.99987c0,2.23485 -1.85061,4.04655 -4.13346,4.04655h-21.45101c-2.28286,0 -4.13348,-1.8117 -4.13348,-4.04655z" fill-opacity="0.00784" fill="#3d3d3d" fill-rule="evenodd" stroke="none" stroke-width="1" stroke-linecap="square"/><g fill-rule="nonzero" stroke="none" stroke-width="1" stroke-linecap="butt"><path d="M245.86666,213.66077l-10.40138,12.81212l-1.61125,0.42671c-0.59283,0.15667 -1.20121,-0.19668 -1.35844,-0.79006l-1.2701,-4.79594c-0.09501,-0.35947 -0.00445,-0.74228 0.24168,-1.02064l0.53893,-0.60949c0.24613,-0.27835 0.3367,-0.66172 0.24169,-1.02064l-2.54964,-9.62965c-0.15667,-0.59283 0.19667,-1.2012 0.79006,-1.35843z" fill="url(#color-1)"/><path d="M248.3552,223.06041l-12.89047,3.41304l-4.97651,-18.79871l12.89047,-3.41305c0.59338,-0.15723 1.20177,0.19667 1.35844,0.7895l4.40813,16.64965c0.15723,0.59394 -0.19667,1.20232 -0.79006,1.35954z" fill="url(#color-2)"/><path d="M248.25408,208.43536l2.00571,13.18271c0.09168,0.60394 -0.32725,1.17398 -0.93118,1.26566v0l0.16723,1.09842c0.09223,0.60672 -0.32447,1.17343 -0.93119,1.26566l-10.71084,1.62956c-0.75839,0.11557 -1.46678,-0.40615 -1.58235,-1.16454l-2.29796,-15.10507c-0.09168,-0.60394 0.32725,-1.17399 0.93119,-1.26566l12.08429,-1.83848c0.60394,-0.09168 1.17343,0.32725 1.26511,0.93174z" fill="url(#color-3)"/><path d="M249.3286,222.88373l0.16723,1.09842c0.04612,0.30336 -0.16223,0.58671 -0.46559,0.63283l-11.26034,1.71291c-0.45503,0.06945 -0.88007,-0.24335 -0.94952,-0.69839v0c-0.06945,-0.45503 0.24335,-0.88007 0.6984,-0.94952z" fill="url(#color-4)"/><path d="M236.27146,225.71506c0.02778,0.18335 0.0889,0.35003 0.18334,0.49448l-0.5556,0.14447c-0.0889,-0.17223 -0.15001,-0.35559 -0.17778,-0.5556l-2.30018,-15.10675c-0.13335,-0.91118 0.48892,-1.76125 1.40011,-1.90016l10.48416,-1.59457l0.07223,0.27224l0.07223,0.26669l-10.54528,1.60569c-0.60561,0.09445 -1.02231,0.66117 -0.93341,1.26677z" fill="#000000" opacity="0.05"/><path d="M236.27146,225.71506c0.02778,0.18335 0.0889,0.35003 0.18334,0.49448l-0.2778,0.07224c-0.0889,-0.16112 -0.15,-0.33892 -0.18334,-0.52782l-2.29463,-15.10675c-0.11668,-0.75561 0.40559,-1.46678 1.1612,-1.57791l10.5175,-1.60013l0.07223,0.26669l-10.54528,1.60569c-0.60561,0.09445 -1.02231,0.66117 -0.93341,1.26677z" fill="#000000" opacity="0.07"/><path d="M249.63363,212.25844c-0.06112,0.1889 -0.13335,0.38337 -0.21112,0.57783h-0.02778c-0.47781,0 -0.99453,-0.16112 -1.33899,-0.29447c-0.57782,-0.22779 -0.96675,-0.47226 -1.21677,-0.71118c0.07779,-0.19446 0.15557,-0.38336 0.23335,-0.57227c0.21112,0.28891 0.65005,0.5556 1.18343,0.76672c0.4167,0.16112 0.82229,0.25558 1.13898,0.25558c0.08334,0 0.16667,-0.00556 0.2389,-0.02223z" fill="#d4d4d4"/></g><g fill-rule="nonzero" stroke="#000000" stroke-width="0" stroke-linecap="butt"><g><path d="M242.93917,221.78405l-2.99007,-3.8239h5.98018z" fill="#23afe9"/><path d="M247.00326,212.91133c0,0 -1.11959,0 -2.38462,0c-0.26862,0 -1.19607,1.09111 -1.5365,1.04189c-0.61409,-0.08877 -0.571,-1.38222 -0.19548,-1.70327c0.68598,-0.5865 1.20608,-1.19034 1.60493,-1.19034c1.26247,0 2.51169,0 2.51169,0z" data-paper-data="{&quot;index&quot;:null}" fill="#0771c6"/><path d="M242.01333,219.14658c0,0 0,-3.86978 0,-5.13224c0,-0.39884 0.36561,-1.2366 0.95211,-1.92256c0.49905,-0.58367 1.23313,-1.05746 1.23313,-1.05746c0,0 -0.33353,2.27448 -0.33353,3.02768c0,1.26504 0,5.0846 0,5.0846z" fill="#23afe9"/></g><g data-paper-data="{&quot;index&quot;:null}"><path d="M250.52485,210.95489l2.99007,3.8239h-5.98018z" fill="#23afe9"/><path d="M246.46076,219.82762c0,0 1.11959,0 2.38463,0c0.26862,0 1.19606,-1.09111 1.53649,-1.04189c0.61409,0.08877 0.571,1.38221 0.19548,1.70326c-0.68598,0.58649 -1.20608,1.19035 -1.60493,1.19035c-1.26247,0 -2.51169,0 -2.51169,0z" data-paper-data="{&quot;index&quot;:null}" fill="#0771c6"/><path d="M251.45071,213.59236c0,0 0,3.86978 0,5.13224c0,0.39884 -0.36562,1.23661 -0.95212,1.92259c-0.49905,0.58367 -1.23312,1.05746 -1.23312,1.05746c0,0 0.33353,-2.27448 0.33353,-3.02768c0,-1.26504 0,-5.0846 0,-5.0846z" fill="#23afe9"/></g></g></g></g></svg>