<svg version="1.1" viewBox="0.0 0.0 624.0 28.8005249343832" fill="none" stroke="none" stroke-linecap="square" stroke-miterlimit="10" xmlns:xlink="http://www.w3.org/1999/xlink" xmlns="http://www.w3.org/2000/svg"><clipPath id="gf4ede5786c_0_0.0"><path d="m0 0l624.0 0l0 28.800526l-624.0 0l0 -28.800526z" clip-rule="nonzero"/></clipPath><g clip-path="url(#gf4ede5786c_0_0.0)"><path fill="#000000" fill-opacity="0.0" d="m0 0l624.0 0l0 28.800526l-624.0 0z" fill-rule="evenodd"/><g filter="url(#shadowFilter-gf4ede5786c_0_0.1)"><use xlink:href="#gf4ede5786c_0_0.1" transform="matrix(1.0 0.0 0.0 1.0 0.0 2.0)"/></g><defs><filter id="shadowFilter-gf4ede5786c_0_0.1" filterUnits="userSpaceOnUse"><feGaussianBlur in="SourceAlpha" stdDeviation="2.0" result="blur"/><feComponentTransfer in="blur" color-interpolation-filters="sRGB"><feFuncR type="linear" slope="0" intercept="0.0"/><feFuncG type="linear" slope="0" intercept="0.0"/><feFuncB type="linear" slope="0" intercept="0.0"/><feFuncA type="linear" slope="0.2" intercept="0"/></feComponentTransfer></filter></defs><g id="gf4ede5786c_0_0.1"><path fill="#ffffff" fill-opacity="0.8883" d="m246.33595 9.60241l0 0c0 -1.3249302 1.0740662 -2.3989983 2.399002 -2.3989983l105.5957 0c0.636261 0 1.24646 0.25275087 1.6963501 0.70265007c0.44989014 0.44989967 0.7026367 1.0600939 0.7026367 1.6963482l0 9.595704c0 1.3249302 -1.0740662 2.3989983 -2.3989868 2.3989983l-105.5957 0c-1.3249359 0 -2.399002 -1.0740681 -2.399002 -2.3989983z" fill-rule="evenodd"/></g><path fill="#000000" fill-opacity="0.0" d="m243.14699 0.96062994l68.85039 0l0 27.464567l-68.85039 0z" fill-rule="evenodd"/><path fill="#434343" d="m255.94386 11.610629l0 0.53125l-2.640625 0l0 1.515625l2.46875 0l0 0.53125l-2.46875 0l0 1.640625l2.671875 0l0 0.53125095l-3.3125 0l0 -4.750001l3.28125 0zm2.3627777 1.234375q0.625 0 0.90625 0.3125q0.28125 0.3125 0.28125 0.90625l0 2.296876l-0.578125 0l0 -2.343751q0 -0.296875 -0.1875 -0.484375q-0.171875 -0.1875 -0.515625 -0.1875q-0.46875 0 -0.75 0.296875q-0.265625 0.28125 -0.265625 0.75l0 1.968751l-0.5625 0l0 -3.437501l0.53125 0l0 0.546875l0.015625 0q0.1875 -0.328125 0.453125 -0.46875q0.28125 -0.15625 0.671875 -0.15625zm2.8268738 -0.953125l0 1.03125l0.671875 0l0 0.5l-0.671875 0l0 2.15625q0 0.25 0.15625 0.265625q0.171875 0.015625 0.359375 0.015625l0.15625 0l0 0.50000095l-0.453125 0q-0.46875 0 -0.640625 -0.15625q-0.15625 -0.171875 -0.15625 -0.56250095l0 -2.21875l-0.578125 0l0 -0.5l0.578125 0l0 -1.03125l0.578125 0zm2.6555786 0.953125q0.734375 0 1.140625 0.53125q0.421875 0.53125 0.421875 1.359375l0 0.078125l-2.578125 0l0 0.03125q0 0.5 0.28125 0.796875q0.28125 0.296875 0.78125 0.296875q0.375 0 0.59375 -0.171875q0.234375 -0.171875 0.296875 -0.5l0.5625 0q-0.109375 0.578125 -0.5 0.87500095q-0.390625 0.296875 -0.96875 0.296875q-0.546875 0 -0.921875 -0.234375q-0.375 -0.25000095 -0.5625 -0.68750095q-0.171875 -0.4375 -0.171875 -0.890625q0 -0.765625 0.453125 -1.265625q0.46875 -0.515625 1.171875 -0.515625zm-1.015625 1.46875l1.96875 0q-0.03125 -0.421875 -0.3125 -0.6875q-0.265625 -0.28125 -0.6875 -0.28125q-0.390625 0 -0.671875 0.265625q-0.265625 0.25 -0.296875 0.703125zm4.8720093 -1.46875q0.015625 0 0.03125 0q0.015625 0 0.046875 0l0 0.59375q-0.640625 0 -0.953125 0.34375q-0.296875 0.328125 -0.296875 1.03125l0 1.546876l-0.5625 0l0 -3.437501l0.53125 0l0 0.71875l0.015625 0q0.203125 -0.40625 0.484375 -0.59375q0.296875 -0.203125 0.703125 -0.203125zm4.550293 -1.234375q0.65625 0 1.046875 0.359375q0.390625 0.34375 0.390625 1.046875q0 0.6875 -0.390625 1.046875q-0.390625 0.359375 -1.0 0.359375l-1.515625 0l0 1.937501l-0.640625 0l0 -4.750001l2.109375 0zm-0.171875 2.265625q0.453125 0 0.703125 -0.203125q0.265625 -0.21875 0.265625 -0.65625q0 -0.4375 -0.25 -0.65625q-0.25 -0.21875 -0.75 -0.21875l-1.265625 0l0 1.734375l1.296875 0zm3.4893494 -1.03125q0.703125 0 1.0 0.25q0.296875 0.25 0.296875 0.671875q0 1.78125 0 1.984375q0 0.1875 0.171875 0.1875q0.046875 0 0.09375 0q0.046875 -0.015625 0.078125 -0.03125l0 0.43750095q-0.078125 0.046875 -0.1875 0.0625q-0.09375 0.03125 -0.203125 0.03125q-0.234375 0 -0.359375 -0.125q-0.125 -0.140625 -0.125 -0.40625095q-0.234375 0.26562595 -0.546875 0.40625095q-0.296875 0.125 -0.671875 0.125q-0.53125 0 -0.84375 -0.25q-0.296875 -0.25000095 -0.296875 -0.71875095q0 -0.453125 0.296875 -0.71875q0.296875 -0.28125 1.390625 -0.421875q0.375 -0.046875 0.5 -0.140625q0.140625 -0.09375 0.140625 -0.28125q0 -0.28125 -0.1875 -0.421875q-0.1875 -0.140625 -0.578125 -0.140625q-0.421875 0 -0.640625 0.15625q-0.203125 0.15625 -0.21875 0.484375l-0.5625 0q0.03125 -0.5625 0.40625 -0.84375q0.375 -0.296875 1.046875 -0.296875zm-0.984375 2.59375q0 0.234375 0.171875 0.375q0.171875 0.125 0.484375 0.125q0.484375 0 0.765625 -0.234375q0.28125 -0.234375 0.28125 -0.53125l0 -0.59375q-0.140625 0.109375 -0.375 0.140625q-0.21875 0.03125 -0.59375 0.09375q-0.375 0.046875 -0.5625 0.203125q-0.171875 0.140625 -0.171875 0.421875zm4.2938843 -2.59375q0.703125 0 1.03125 0.265625q0.34375 0.265625 0.375 0.8125l-0.5625 0l0 -0.015625q-0.015625 -0.265625 -0.234375 -0.40625q-0.21875 -0.15625 -0.5625 -0.15625q-0.34375 0 -0.546875 0.109375q-0.1875 0.109375 -0.1875 0.328125q0 0.1875 0.171875 0.3125q0.171875 0.109375 0.53125 0.1875l0.53125 0.125q0.5 0.109375 0.75 0.34375q0.265625 0.21875 0.265625 0.609375q0 0.5 -0.390625 0.79687595q-0.390625 0.28125 -1.0625 0.28125q-0.671875 0 -1.0625 -0.296875q-0.375 -0.29687595 -0.40625 -0.85937595l0.578125 0q0 0.3125 0.234375 0.484375q0.25 0.171875 0.6875 0.171875q0.40625 0 0.609375 -0.125q0.21875 -0.125 0.21875 -0.390625q0 -0.21875 -0.21875 -0.359375q-0.203125 -0.140625 -0.859375 -0.265625q-0.640625 -0.125 -0.90625 -0.359375q-0.265625 -0.234375 -0.265625 -0.625q0 -0.453125 0.359375 -0.703125q0.375 -0.265625 0.921875 -0.265625zm3.328125 0q0.703125 0 1.03125 0.265625q0.34375 0.265625 0.375 0.8125l-0.5625 0l0 -0.015625q-0.015625 -0.265625 -0.234375 -0.40625q-0.21875 -0.15625 -0.5625 -0.15625q-0.34375 0 -0.546875 0.109375q-0.1875 0.109375 -0.1875 0.328125q0 0.1875 0.171875 0.3125q0.171875 0.109375 0.53125 0.1875l0.53125 0.125q0.5 0.109375 0.75 0.34375q0.265625 0.21875 0.265625 0.609375q0 0.5 -0.390625 0.79687595q-0.390625 0.28125 -1.0625 0.28125q-0.671875 0 -1.0625 -0.296875q-0.375 -0.29687595 -0.40625 -0.85937595l0.578125 0q0 0.3125 0.234375 0.484375q0.25 0.171875 0.6875 0.171875q0.40625 0 0.609375 -0.125q0.21875 -0.125 0.21875 -0.390625q0 -0.21875 -0.21875 -0.359375q-0.203125 -0.140625 -0.859375 -0.265625q-0.640625 -0.125 -0.90625 -0.359375q-0.265625 -0.234375 -0.265625 -0.625q0 -0.453125 0.359375 -0.703125q0.375 -0.265625 0.921875 -0.265625zm2.5 0.078125l0.78125 2.8125l0.015625 0l0.6875 -2.8125l0.625 0l0.71875 2.796875l0 0.015625l0.015625 0l0.765625 -2.8125l0.59375 0l-1.09375 3.421876l-0.015625 0.015625l-0.59375 0l-0.703125 -2.718751l0 -0.015625l-0.015625 0l-0.6875 2.734376l-0.609375 0l-1.109375 -3.437501l0.625 0zm6.2160645 -0.078125q0.78125 0 1.21875 0.5q0.453125 0.5 0.453125 1.296875q0 0.8125 -0.453125 1.3125q-0.453125 0.48437595 -1.21875 0.48437595q-0.75 0 -1.21875 -0.48437595q-0.453125 -0.484375 -0.453125 -1.3125q0 -0.8125 0.453125 -1.296875q0.453125 -0.5 1.21875 -0.5zm-1.0625 1.796875q0 0.59375 0.296875 0.953125q0.296875 0.34375 0.765625 0.34375q0.46875 0 0.765625 -0.34375q0.3125 -0.359375 0.3125 -0.953125q0 -0.578125 -0.3125 -0.9375q-0.296875 -0.359375 -0.765625 -0.359375q-0.453125 0 -0.765625 0.359375q-0.296875 0.34375 -0.296875 0.9375zm5.1190186 -1.796875q0.015625 0 0.03125 0q0.015625 0 0.046875 0l0 0.59375q-0.640625 0 -0.953125 0.34375q-0.296875 0.328125 -0.296875 1.03125l0 1.546876l-0.5625 0l0 -3.437501l0.53125 0l0 0.71875l0.015625 0q0.203125 -0.40625 0.484375 -0.59375q0.296875 -0.203125 0.703125 -0.203125zm3.4555054 -1.234375l0 4.750001l-0.5625 0l0 -0.46875095l-0.015625 0q-0.140625 0.26562595 -0.4375 0.40625095q-0.28125 0.140625 -0.65625 0.140625q-0.71875 0 -1.15625 -0.50000095q-0.4375 -0.5 -0.4375 -1.3125q0 -0.796875 0.421875 -1.28125q0.421875 -0.5 1.15625 -0.5q0.328125 0 0.625 0.140625q0.3125 0.125 0.484375 0.390625l0.015625 0l0 -1.765625l0.5625 0zm-2.65625 3.0625q0 0.546875 0.28125 0.90625q0.28125 0.359375 0.78125 0.359375q0.5 0 0.765625 -0.359375q0.28125 -0.359375 0.28125 -0.9375q0 -0.578125 -0.28125 -0.9375q-0.28125 -0.359375 -0.8125 -0.359375q-0.484375 0 -0.75 0.359375q-0.265625 0.34375 -0.265625 0.96875z" fill-rule="nonzero"/></g></svg>