<svg version="1.1" xmlns="http://www.w3.org/2000/svg" xmlns:xlink="http://www.w3.org/1999/xlink" width="18.40082" height="29.68299" viewBox="0,0,18.40082,29.68299"><g transform="translate(-240.539,-159.92401)"><g data-paper-data="{&quot;isPaintingLayer&quot;:true}" fill="#ffffff" fill-rule="nonzero" stroke="none" stroke-width="1" stroke-linecap="butt" stroke-linejoin="miter" stroke-miterlimit="10" stroke-dasharray="" stroke-dashoffset="0" style="mix-blend-mode: normal"><path d="M243.82,177.517c-0.188,0.234 -0.021,0.822 -0.078,1.187c0,3.634 0,7.269 0,10.903c-1.068,0 -2.135,0 -3.203,0c0,-9.733 0,-19.466 0,-29.199c1.068,0 2.135,0 3.203,0c0,1.172 0,2.344 0,3.515c0.778,-0.985 1.591,-2.204 2.775,-2.859c2.501,-1.502 5.854,-1.512 8.388,-0.076c2.943,1.778 4.062,5.423 4.032,8.693c0.065,3.553 -0.985,7.431 -3.956,9.637c-2.329,1.667 -5.591,2.065 -8.225,0.916c-1.232,-0.575 -2.224,-1.572 -2.936,-2.717zM243.742,169.451c0.065,1.962 -0.295,4.073 0.762,5.848c1.042,1.949 3.281,3.114 5.476,2.863c2.302,-0.077 4.235,-1.827 4.965,-3.943c0.839,-2.418 0.974,-5.127 0.276,-7.596c-0.6,-2.139 -2.527,-3.91 -4.803,-3.972c-2.169,-0.217 -4.42,0.801 -5.554,2.69c-0.795,1.211 -1.128,2.674 -1.122,4.11z"/></g></g></svg>