<svg version="1.1" xmlns="http://www.w3.org/2000/svg" xmlns:xlink="http://www.w3.org/1999/xlink" width="17.14338" height="28.01332" viewBox="0,0,17.14338,28.01332"><g transform="translate(-239.766,-152.26968)"><g data-paper-data="{&quot;isPaintingLayer&quot;:true}" fill="#ffffff" fill-rule="nonzero" stroke="none" stroke-width="1" stroke-linecap="butt" stroke-linejoin="miter" stroke-miterlimit="10" stroke-dasharray="" stroke-dashoffset="0" style="mix-blend-mode: normal"><path d="M243.047,169.697c0,3.529 0,7.057 0,10.586c-1.094,0 -2.188,0 -3.281,0c0,-9.336 0,-18.672 0,-28.008c2.972,0.023 5.947,-0.049 8.918,0.043c2.911,0.141 6.011,1.48 7.34,4.218c1.236,2.652 1.186,5.929 -0.201,8.514c-1.556,2.862 -4.769,4.457 -7.948,4.607c-1.608,0.077 -3.219,0.024 -4.828,0.04zM243.047,155.244c0,3.828 0,7.656 0,11.484c2.306,-0.071 4.691,0.262 6.905,-0.547c1.993,-0.667 3.392,-2.615 3.477,-4.702c0.198,-1.947 -0.364,-4.205 -2.165,-5.248c-2.214,-1.316 -4.866,-0.92 -7.324,-0.987c-0.298,0 -0.595,0 -0.893,0z"/></g></g></svg>