<svg version="1.1" xmlns="http://www.w3.org/2000/svg" xmlns:xlink="http://www.w3.org/1999/xlink" width="101.26748" height="18.26973" viewBox="0,0,101.26748,18.26973"><g transform="translate(-6.87128,-185.09353)"><g data-paper-data="{&quot;isPaintingLayer&quot;:true}" fill-opacity="0.00784" fill="#f2f3f5" fill-rule="nonzero" stroke="#ff0000" stroke-width="0" stroke-linecap="butt" stroke-linejoin="miter" stroke-miterlimit="10" stroke-dasharray="" stroke-dashoffset="0" style="mix-blend-mode: normal"><path d="M12.93407,203.33269c-1.65853,0.17575 -3.30692,-0.41269 -4.47923,-1.599c-1.1723,-1.1863 -1.74116,-2.84156 -1.54574,-4.49788v-6.01483c-0.1954,-1.65633 0.37344,-3.31158 1.54574,-4.49788c1.1723,-1.1863 2.82069,-1.77474 4.47923,-1.599h89.13938c1.64141,-0.10366 3.25486,0.46165 4.47264,1.56708l0.01751,0.01752c1.10527,1.2353 1.66821,2.86268 1.56248,4.51689v6.01484c0.10571,1.64808 -0.45303,3.26983 -1.55142,4.50306l-0.01935,0.02028c-1.21971,1.10969 -2.83705,1.67773 -4.48278,1.57446z"/></g></g></svg>