<svg version="1.1" xmlns="http://www.w3.org/2000/svg" xmlns:xlink="http://www.w3.org/1999/xlink" width="17.129" height="28.477" viewBox="0,0,17.129,28.477"><g transform="translate(-239.875,-151.931)"><g data-paper-data="{&quot;isPaintingLayer&quot;:true}" fill="#ffffff" fill-rule="nonzero" stroke="none" stroke-width="1" stroke-linecap="butt" stroke-linejoin="miter" stroke-miterlimit="10" stroke-dasharray="" stroke-dashoffset="0" style="mix-blend-mode: normal"><path d="M256.75,180.408h-16.875v-2.852l8.164,-8.183c2.083,-2.084 3.571,-3.819 4.463,-5.205c0.892,-1.387 1.338,-2.868 1.338,-4.444c0,-1.614 -0.462,-2.864 -1.387,-3.75c-0.924,-0.885 -2.239,-1.328 -3.945,-1.328c-2.5,0 -4.896,1.068 -7.188,3.203v-3.359c2.188,-1.706 4.733,-2.559 7.637,-2.559c2.5,0 4.466,0.677 5.898,2.032c1.433,1.354 2.149,3.17 2.149,5.449c0,1.797 -0.495,3.551 -1.484,5.263c-0.99,1.713 -2.767,3.838 -5.333,6.377l-6.464,6.387v0.078h13.027z"/></g></g></svg>