<svg version="1.1" xmlns="http://www.w3.org/2000/svg" xmlns:xlink="http://www.w3.org/1999/xlink" width="41.43221" height="39.20699" viewBox="0,0,41.43221,39.20699"><g transform="translate(-219.2839,-160.39651)"><g data-paper-data="{&quot;isPaintingLayer&quot;:true}" fill-rule="nonzero" stroke-miterlimit="10" stroke-dasharray="" stroke-dashoffset="0" style="mix-blend-mode: normal"><path d="M226.78392,167.89651c0,0 2.09597,0 2.65304,0c5.6473,0 23.77915,0 23.77915,0v24.20699h-26.43221z" fill="#f2f2f2" stroke="#f2f2f2" stroke-width="15" stroke-linecap="round" stroke-linejoin="round"/><g fill="#484848" stroke="none" stroke-width="1" stroke-linecap="butt" stroke-linejoin="miter"><path d="M240.47169,167.67505c0.0777,0.00941 0.21075,0.0259 0.29433,0.03531c0.46507,0.05534 0.8112,0.12599 1.3304,0.27197c1.12321,0.31672 2.2311,0.87948 3.13177,1.59296c0.32613,0.25902 0.74409,0.63813 0.81357,0.73822c0.06239,0.09065 0.08712,0.18366 0.08712,0.33319c0,0.07535 -0.00706,0.15424 -0.01765,0.19425c-0.04239,0.16248 -0.16013,0.32025 -0.31083,0.41796c-0.146,0.09419 -0.3379,0.12834 -0.49802,0.08948c-0.13305,-0.03179 -0.22841,-0.0883 -0.37086,-0.22016c-0.60987,-0.56513 -1.21385,-0.9819 -1.94971,-1.34336c-0.50038,-0.24607 -1.03491,-0.438 -1.5447,-0.55573c-0.76999,-0.17778 -1.17147,-0.22959 -1.78371,-0.22959c-0.5722,0 -1.20799,0.06239 -1.69539,0.16602c-0.45446,0.09771 -1.23741,0.36263 -1.69777,0.57691c-0.65343,0.30259 -1.3728,0.78296 -1.90379,1.27155c-0.22016,0.20252 -0.27079,0.24372 -0.36028,0.28845c-0.20604,0.10125 -0.42267,0.09302 -0.62518,-0.02471c-0.08359,-0.04827 -0.22841,-0.19898 -0.27314,-0.28493c-0.10597,-0.20252 -0.11067,-0.44268 -0.01179,-0.63225c0.09771,-0.18484 0.75823,-0.75234 1.32806,-1.13969c0.60516,-0.41208 1.29745,-0.77117 1.90145,-0.98663c0.3379,-0.12009 0.92894,-0.31082 1.07728,-0.34614c0.14128,-0.03297 0.72289,-0.146 0.8477,-0.16483c0.33084,-0.0471 0.50508,-0.06474 0.77708,-0.07653c0.52981,-0.02354 1.11259,-0.01178 1.45402,0.02826z"/><path d="M240.23623,170.15342c1.30334,0.13891 2.5172,0.63225 3.51443,1.43168c0.17306,0.13774 0.50156,0.438 0.55336,0.50508c0.16365,0.21191 0.17895,0.50862 0.03886,0.74645c-0.05534,0.09184 -0.20015,0.23077 -0.29433,0.28139c-0.13188,0.06946 -0.32261,0.09301 -0.46625,0.05534c-0.12245,-0.03179 -0.19662,-0.08006 -0.37205,-0.24137c-0.74763,-0.68522 -1.63065,-1.14321 -2.57371,-1.33512c-0.32142,-0.06474 -0.77588,-0.11303 -1.07728,-0.11303c-0.87124,0 -1.8461,0.2649 -2.61964,0.7123c-0.37086,0.21427 -0.61457,0.39677 -1.05609,0.79471c-0.13069,0.11773 -0.1978,0.15658 -0.32259,0.18836c-0.1142,0.02943 -0.18955,0.02943 -0.3014,0.00118c-0.18249,-0.0471 -0.32142,-0.14715 -0.43211,-0.31318c-0.1036,-0.15542 -0.14009,-0.33437 -0.1036,-0.50863c0.03297,-0.15424 0.06593,-0.20487 0.24254,-0.38029c0.60045,-0.59575 1.4246,-1.11378 2.28761,-1.43756c0.39207,-0.146 0.69701,-0.22487 1.28685,-0.33202c0.25196,-0.04593 0.41326,-0.06476 0.6711,-0.07772c0.34967,-0.01765 0.71583,-0.00941 1.02431,0.02237z"/><path d="M239.63578,172.61999c0.32495,0.00352 0.48741,0.02119 0.78882,0.08359c0.78648,0.16483 1.50703,0.54748 2.06273,1.09377c0.12245,0.12128 0.14951,0.15424 0.18484,0.22959c0.1248,0.2649 0.06711,0.56631 -0.1507,0.78295c-0.13188,0.13305 -0.27197,0.19544 -0.45446,0.20369c-0.21427,0.00941 -0.31201,-0.03296 -0.53216,-0.23429c-0.08595,-0.07889 -0.19308,-0.17072 -0.239,-0.20487c-0.40972,-0.3073 -0.86067,-0.50039 -1.32219,-0.56395c-0.17306,-0.02471 -0.57456,-0.02471 -0.75469,-0.00117c-0.43328,0.05653 -0.80885,0.19544 -1.16795,0.43091c-0.14246,0.09302 -0.22959,0.16248 -0.40502,0.32142c-0.0777,0.07064 -0.16719,0.14597 -0.20015,0.166c-0.30142,0.19191 -0.69699,0.09772 -0.90656,-0.2178c-0.18132,-0.27315 -0.17425,-0.55572 0.02119,-0.79824c0.0777,-0.09654 0.34966,-0.34026 0.52744,-0.4733c0.47095,-0.35203 1.03962,-0.60634 1.64124,-0.73467c0.13657,-0.02943 0.4215,-0.07183 0.54159,-0.08242c0.03297,-0.00235 0.19662,-0.00235 0.36498,-0.00118z"/><path d="M239.624,174.9288c0.61811,0.02119 1.18088,0.46036 1.35396,1.05845c0.06594,0.22959 0.06594,0.54749 0,0.77706c-0.15424,0.53806 -0.64754,0.97956 -1.17501,1.05256c-0.11773,0.0165 -0.32259,0.0165 -0.43917,0c-0.51334,-0.07064 -0.97251,-0.44857 -1.15735,-0.94896c-0.13188,-0.35793 -0.10832,-0.77588 0.06238,-1.11378c0.22606,-0.44857 0.64283,-0.75115 1.13146,-0.82063c0.03886,-0.00589 0.14009,-0.00824 0.2237,-0.00471z"/></g><text transform="translate(227.64584,191.55066) scale(0.15312,0.15312)" font-size="40" xml:space="preserve" fill="#4c4c4c" fill-rule="nonzero" stroke="none" stroke-width="1" stroke-linecap="butt" stroke-linejoin="miter" stroke-miterlimit="10" stroke-dasharray="" stroke-dashoffset="0" font-family="Sans Serif" font-weight="normal" text-anchor="start" style="mix-blend-mode: normal"><tspan x="0" dy="0">Ambient</tspan></text></g></g></svg>