<svg version="1.1" xmlns="http://www.w3.org/2000/svg" xmlns:xlink="http://www.w3.org/1999/xlink" width="4.45565" height="8.7" viewBox="0,0,4.45565,8.7"><g transform="translate(-16.25435,-85.77)"><g data-paper-data="{&quot;isPaintingLayer&quot;:true}" fill="#ffffff" fill-rule="nonzero" stroke="none" stroke-width="1" stroke-linecap="butt" stroke-linejoin="miter" stroke-miterlimit="10" stroke-dasharray="" stroke-dashoffset="0" style="mix-blend-mode: normal"><path d="M20.39,85.77001c0.17673,0 0.32,0.14327 0.32,0.32v0.49c0.00164,1.02035 -0.70469,1.90534 -1.7,2.13v0c-0.20701,0.05524 -0.35582,0.23622 -0.37,0.45v4.07c0.01238,0.64782 -0.48381,1.19232 -1.13,1.24h-0.18c-0.65446,-0.06351 -1.13351,-0.64554 -1.07,-1.3c0.06351,-0.65446 0.64554,-1.13351 1.3,-1.07h0.05c0.21539,0 0.39,-0.17461 0.39,-0.39v-4.52c0.01709,-0.51693 0.37718,-0.95885 0.88,-1.08l1.46,-0.33z"/></g></g></svg>