<svg version="1.1" xmlns="http://www.w3.org/2000/svg" xmlns:xlink="http://www.w3.org/1999/xlink" width="29.71795" height="29.09296" viewBox="0,0,29.71795,29.09296"><defs><linearGradient x1="401.92256" y1="402.31511" x2="420.07733" y2="402.31511" gradientUnits="userSpaceOnUse" id="color-1"><stop offset="0" stop-color="#e8765a"/><stop offset="1" stop-color="#e85e5e"/></linearGradient><linearGradient x1="401.92256" y1="408.95016" x2="420.07733" y2="408.95016" gradientUnits="userSpaceOnUse" id="color-2"><stop offset="0" stop-color="#e8765a"/><stop offset="1" stop-color="#e85e5e"/></linearGradient><linearGradient x1="406.00739" y1="399.87278" x2="407.36898" y2="399.87278" gradientUnits="userSpaceOnUse" id="color-3"><stop offset="0" stop-color="#e8765a"/><stop offset="1" stop-color="#e85e5e"/></linearGradient><linearGradient x1="414.6309" y1="399.87277" x2="415.99251" y2="399.87277" gradientUnits="userSpaceOnUse" id="color-4"><stop offset="0" stop-color="#e8765a"/><stop offset="1" stop-color="#e85e5e"/></linearGradient><linearGradient x1="407.36898" y1="397.60343" x2="414.63089" y2="397.60343" gradientUnits="userSpaceOnUse" id="color-5"><stop offset="0" stop-color="#e8765a"/><stop offset="1" stop-color="#e85e5e"/></linearGradient></defs><g transform="translate(-396.14107,-391.45352)"><g data-paper-data="{&quot;isPaintingLayer&quot;:true}" stroke="none" stroke-width="1" stroke-dasharray="" stroke-dashoffset="0" style="mix-blend-mode: normal"><path d="M396.14108,395.50007c0,-2.23485 1.85062,-4.04655 4.13348,-4.04655h21.45101c1.09626,0 2.14763,0.42634 2.92281,1.18521c0.77516,0.75887 1.21065,1.78812 1.21065,2.86133v20.99987c0,2.23485 -1.85061,4.04655 -4.13346,4.04655h-21.45101c-2.28286,0 -4.13348,-1.8117 -4.13348,-4.04655z" fill-opacity="0.00784" fill="#3d3d3d" fill-rule="evenodd" stroke-linecap="square" stroke-linejoin="miter" stroke-miterlimit="10"/><g fill-rule="nonzero" stroke-linecap="butt" stroke-linejoin="miter" stroke-miterlimit="10"><g><path d="M401.92256,402.82292l0.58736,-1.01453l16.87326,-0.0011l0.69415,1.01564z" fill="url(#color-1)"/><path d="M419.16958,415.07739h-16.33929c-0.50153,0 -0.90774,-0.40621 -0.90774,-0.90774v-11.34673h18.15477v11.34673c0,0.50153 -0.40621,0.90774 -0.90774,0.90774z" fill="url(#color-2)"/><path d="M407.36898,402.82292h-1.36161v-4.53869l1.36161,-1.3616z" fill="url(#color-3)"/><path d="M414.6309,396.92262l1.3616,1.36161v4.53869h-1.3616z" fill="url(#color-4)"/><path d="M407.36898,398.28423v-1.36161h7.2619v1.36161z" fill="url(#color-5)"/></g><g fill="none" font-family="sans-serif" font-weight="normal" font-size="12" text-anchor="start"><g/></g></g><path d="M411.83949,411.51813c0,0.51865 -0.42076,0.93941 -0.93941,0.93941c-0.51865,0 -0.93941,-0.42076 -0.93941,-0.93941c0,-0.51865 0.42076,-0.93941 0.93941,-0.93941c0.51865,0 0.93941,0.42076 0.93941,0.93941zM409.02073,411.51813c0,0.51865 -0.42076,0.93941 -0.93941,0.93941c-0.51865,0 -0.93941,-0.42076 -0.93941,-0.93941c0,-0.51865 0.42076,-0.93941 0.93941,-0.93941c0.51865,0 0.93941,0.42076 0.93941,0.93941zM414.65824,411.51813c0,0.51865 -0.42076,0.93941 -0.93941,0.93941c-0.51865,0 -0.93941,-0.42076 -0.93941,-0.93941c0,-0.51865 0.42076,-0.93941 0.93941,-0.93941c0.51865,0 0.93941,0.42076 0.93941,0.93941zM411.83949,408.69938c0,0.51865 -0.42076,0.93941 -0.93941,0.93941c-0.51865,0 -0.93941,-0.42076 -0.93941,-0.93941c0,-0.51865 0.42076,-0.93941 0.93941,-0.93941c0.51865,0 0.93941,0.42076 0.93941,0.93941zM409.02073,408.69938c0,0.51865 -0.42076,0.93941 -0.93941,0.93941c-0.51865,0 -0.93941,-0.42076 -0.93941,-0.93941c0,-0.51865 0.42076,-0.93941 0.93941,-0.93941c0.51865,0 0.93941,0.42076 0.93941,0.93941zM414.65824,408.69938c0,0.51865 -0.42076,0.93941 -0.93941,0.93941c-0.51865,0 -0.93941,-0.42076 -0.93941,-0.93941c0,-0.51865 0.42076,-0.93941 0.93941,-0.93941c0.51865,0 0.93941,0.42076 0.93941,0.93941zM414.65824,405.88063c0,0.51865 -0.42076,0.93941 -0.93941,0.93941c-0.51865,0 -0.93941,-0.42076 -0.93941,-0.93941c0,-0.51865 0.42076,-0.93941 0.93941,-0.93941c0.51865,0 0.93941,0.42076 0.93941,0.93941zM411.83949,405.88063c0,0.51865 -0.42076,0.93941 -0.93941,0.93941c-0.51865,0 -0.93941,-0.42076 -0.93941,-0.93941c0,-0.51865 0.42076,-0.93941 0.93941,-0.93941c0.51865,0 0.93941,0.42076 0.93941,0.93941zM409.02073,405.88063c0,0.51865 -0.42076,0.93941 -0.93941,0.93941c-0.51865,0 -0.93941,-0.42076 -0.93941,-0.93941c0,-0.51865 0.42076,-0.93941 0.93941,-0.93941c0.51865,0 0.93941,0.42076 0.93941,0.93941z" fill="#ffffff" fill-rule="evenodd" stroke-linecap="butt" stroke-linejoin="round" stroke-miterlimit="2"/><path d="M406.80009,412.80002v-8.20003h8.20001v8.20003z" fill="none" fill-rule="evenodd" stroke-linecap="butt" stroke-linejoin="round" stroke-miterlimit="2"/></g></g></svg>