<svg version="1.1" xmlns="http://www.w3.org/2000/svg" xmlns:xlink="http://www.w3.org/1999/xlink" width="15.81415" height="20.94645" viewBox="0,0,15.81415,20.94645"><g transform="translate(-239.75173,-159.93911)"><g data-paper-data="{&quot;isPaintingLayer&quot;:true}" fill="#ffffff" fill-rule="nonzero" stroke="none" stroke-width="1" stroke-linecap="butt" stroke-linejoin="miter" stroke-miterlimit="10" stroke-dasharray="" stroke-dashoffset="0" style="mix-blend-mode: normal"><path d="M255.559,180.408c-1.068,0 -2.136,0 -3.204,0c0,-1.042 0,-2.083 0,-3.125c-0.449,0.463 -0.793,1.191 -1.327,1.655c-1.638,1.732 -4.204,2.219 -6.481,1.813c-2.182,-0.287 -4.179,-1.924 -4.624,-4.121c-0.496,-2.29 0.056,-5.011 2.041,-6.449c2.039,-1.543 4.669,-1.606 7.097,-1.987c1.098,-0.154 2.196,-0.308 3.294,-0.462c0.008,-1.687 -0.342,-3.692 -1.947,-4.6c-1.473,-0.77 -3.233,-0.527 -4.785,-0.152c-1.444,0.395 -2.775,1.149 -3.912,2.115c0,-1.093 0,-2.187 0,-3.281c2.694,-1.711 6.082,-2.257 9.193,-1.613c1.933,0.401 3.583,1.866 4.157,3.762c0.718,2.125 0.441,4.385 0.498,6.585c0,3.286 0,6.573 0,9.86zM252.355,170.291c-1.995,0.297 -4.007,0.499 -5.99,0.877c-1.242,0.299 -2.71,0.807 -3.109,2.166c-0.465,1.431 -0.248,3.252 1.1,4.137c1.553,1.028 3.701,0.896 5.281,-0.009c1.872,-1.097 2.839,-3.319 2.718,-5.442c0,-0.576 0,-1.153 0,-1.729z"/></g></g></svg>