<svg version="1.1" xmlns="http://www.w3.org/2000/svg" xmlns:xlink="http://www.w3.org/1999/xlink" width="96.69928" height="15.60766" viewBox="0,0,96.69928,15.60766"><g transform="translate(-247.86958,-221.10138)"><g data-paper-data="{&quot;isPaintingLayer&quot;:true}" fill-rule="nonzero" stroke="none" stroke-linejoin="miter" stroke-miterlimit="10" stroke-dasharray="" stroke-dashoffset="0" style="mix-blend-mode: normal"><path d="M247.86958,236.70904v-15.60766h96.69928v15.60766z" fill="#ffffff" stroke-width="0" stroke-linecap="butt"/><path d="M257.21591,231.70646h-1.75187v-5.39227h1.80157c0.53012,0 0.98361,0.10768 1.36049,0.32304c0.38102,0.21536 0.673,0.5239 0.87593,0.92563c0.20293,0.39759 0.3044,0.878 0.3044,1.44125c0,0.55911 -0.10354,1.04159 -0.31061,1.44746c-0.20293,0.40173 -0.49698,0.71234 -0.88215,0.93184c-0.38516,0.21536 -0.85108,0.32304 -1.39777,0.32304zM256.27785,230.99826h0.88836c0.41415,0 0.75583,-0.07869 1.02503,-0.23607c0.27334,-0.15738 0.47628,-0.38309 0.6088,-0.67714c0.13667,-0.29405 0.20501,-0.65436 0.20501,-1.08094c0,-0.42657 -0.06834,-0.78688 -0.20501,-1.08093c-0.13253,-0.29405 -0.33132,-0.51769 -0.59638,-0.67093c-0.26506,-0.15324 -0.59431,-0.22985 -0.98775,-0.22985h-0.93806v3.97586zM261.93471,231.79343c-0.25678,0 -0.4887,-0.04763 -0.69578,-0.14288c-0.20708,-0.09526 -0.37067,-0.234 -0.49077,-0.41622c-0.12011,-0.18223 -0.18016,-0.40587 -0.18016,-0.67093c0,-0.22778 0.04349,-0.41415 0.13046,-0.55911c0.08697,-0.1491 0.20501,-0.26713 0.3541,-0.3541c0.1491,-0.08697 0.31476,-0.15117 0.49698,-0.19258c0.18637,-0.04556 0.37481,-0.08076 0.56532,-0.10561c0.24435,-0.02485 0.44107,-0.04556 0.59017,-0.06212c0.15324,-0.02071 0.26299,-0.05177 0.32925,-0.09318c0.07041,-0.04556 0.10561,-0.11596 0.10561,-0.21122v-0.01864c0,-0.22778 -0.06419,-0.40379 -0.19258,-0.52804c-0.12839,-0.12839 -0.32097,-0.19258 -0.57774,-0.19258c-0.26506,0 -0.47421,0.05798 -0.62744,0.17394c-0.1491,0.11596 -0.25263,0.24642 -0.31061,0.39137l-0.73926,-0.17394c0.08697,-0.24435 0.21536,-0.44107 0.38516,-0.59017c0.1698,-0.15324 0.36445,-0.26506 0.58396,-0.33546c0.22364,-0.07041 0.45557,-0.10561 0.69578,-0.10561c0.16152,0 0.33339,0.01864 0.51562,0.05591c0.18223,0.03727 0.35203,0.10768 0.50941,0.21122c0.16152,0.0994 0.29198,0.24228 0.39137,0.42865c0.10354,0.18223 0.15531,0.42243 0.15531,0.72062v2.68371h-0.77032v-0.55289h-0.03106c-0.0497,0.10354 -0.12632,0.20501 -0.22985,0.3044c-0.0994,0.09526 -0.22985,0.17602 -0.39137,0.24228c-0.15738,0.06212 -0.34789,0.09318 -0.57153,0.09318zM262.10244,231.16599c0.2195,0 0.40587,-0.04349 0.55911,-0.13046c0.15738,-0.08697 0.27541,-0.19879 0.3541,-0.33546c0.08283,-0.14081 0.12425,-0.29198 0.12425,-0.4535v-0.52183c-0.02485,0.02899 -0.07869,0.05591 -0.16152,0.08076c-0.07869,0.02071 -0.1698,0.03935 -0.27334,0.05591c-0.0994,0.01657 -0.19879,0.03313 -0.29819,0.0497c-0.09526,0.01242 -0.17602,0.02278 -0.24228,0.03106c-0.1491,0.02071 -0.28784,0.05384 -0.41622,0.0994c-0.12425,0.04556 -0.22364,0.11182 -0.29819,0.19879c-0.07455,0.08283 -0.11182,0.19465 -0.11182,0.33546c0,0.19465 0.07041,0.34168 0.21122,0.44107c0.14495,0.0994 0.32925,0.1491 0.55289,0.1491zM264.97681,231.70646v-4.0442h0.76411v0.63987h0.04349c0.07041,-0.21536 0.19879,-0.38516 0.38516,-0.50941c0.19051,-0.12839 0.4038,-0.19258 0.63987,-0.19258c0.0497,0 0.10768,0.00207 0.17394,0.00621c0.06626,0.00414 0.12011,0.00828 0.16152,0.01242v0.75169c-0.03313,-0.00828 -0.09111,-0.01657 -0.17394,-0.02485c-0.07869,-0.01242 -0.15738,-0.01864 -0.23607,-0.01864c-0.18637,0 -0.35203,0.03935 -0.49698,0.11803c-0.14495,0.07455 -0.26092,0.18223 -0.34789,0.32304c-0.08283,0.13667 -0.12425,0.29197 -0.12425,0.46592v2.47249h-0.78896zM268.55373,230.33354l-0.00621,-0.96291h0.13667l1.6152,-1.70837h0.93806l-1.83884,1.94444h-0.12425zM267.82689,231.70646v-5.39227h0.78896v5.39227zM270.38635,231.70646l-1.45368,-1.92581l0.54668,-0.54668l1.8699,2.47249zM273.91952,231.70646v-4.0442h0.7579v0.6585h0.0497c0.08283,-0.22364 0.2195,-0.39759 0.41001,-0.52183c0.19465,-0.12839 0.42451,-0.19258 0.68956,-0.19258c0.27334,0 0.50112,0.06419 0.68335,0.19258c0.18223,0.12425 0.31683,0.29819 0.4038,0.52183h0.04349c0.09526,-0.21536 0.24849,-0.38723 0.45971,-0.51562c0.21122,-0.13253 0.46385,-0.19879 0.7579,-0.19879c0.36445,0 0.66264,0.11596 0.89457,0.34789c0.23607,0.22778 0.3541,0.5736 0.3541,1.03745v2.71477h-0.78896v-2.64023c0,-0.27334 -0.07455,-0.47006 -0.22364,-0.59016c-0.1491,-0.12425 -0.32718,-0.18637 -0.53426,-0.18637c-0.25678,0 -0.45764,0.07869 -0.60259,0.23607c-0.14081,0.15738 -0.21122,0.35824 -0.21122,0.60259v2.5781h-0.78275v-2.68992c0,-0.2195 -0.06834,-0.39551 -0.20501,-0.52804c-0.13667,-0.13253 -0.31476,-0.19879 -0.53426,-0.19879c-0.1491,0 -0.28784,0.03935 -0.41622,0.11803c-0.12425,0.07455 -0.22571,0.18223 -0.3044,0.32304c-0.07455,0.13667 -0.11182,0.29611 -0.11182,0.47834v2.49734h-0.78896zM282.1815,231.78722c-0.38102,0 -0.71441,-0.08697 -1.00018,-0.26092c-0.28162,-0.17394 -0.50112,-0.41622 -0.6585,-0.72684c-0.15324,-0.31476 -0.22985,-0.68128 -0.22985,-1.09958c0,-0.4183 0.07662,-0.78482 0.22985,-1.09957c0.15738,-0.31476 0.37688,-0.55911 0.6585,-0.73305c0.28577,-0.17394 0.61916,-0.26092 1.00018,-0.26092c0.37688,0 0.70613,0.08697 0.98775,0.26092c0.28577,0.17394 0.50527,0.4183 0.6585,0.73305c0.15738,0.31475 0.23607,0.68127 0.23607,1.09957c0,0.4183 -0.07869,0.78482 -0.23607,1.09958c-0.15324,0.31061 -0.37274,0.55289 -0.6585,0.72684c-0.28162,0.17394 -0.61088,0.26092 -0.98775,0.26092zM282.1815,231.12872c0.24435,0 0.44729,-0.06419 0.6088,-0.19258c0.16152,-0.13253 0.28162,-0.30647 0.36031,-0.52183c0.07869,-0.21536 0.11803,-0.4535 0.11803,-0.71441c0,-0.25678 -0.03935,-0.49284 -0.11803,-0.7082c-0.07869,-0.2195 -0.19879,-0.39551 -0.36031,-0.52804c-0.16152,-0.13253 -0.36445,-0.19879 -0.6088,-0.19879c-0.24849,0 -0.4535,0.06626 -0.61502,0.19879c-0.16152,0.13253 -0.28162,0.30854 -0.36031,0.52804c-0.07869,0.21536 -0.11803,0.45143 -0.11803,0.7082c0,0.26092 0.03935,0.49905 0.11803,0.71441c0.07869,0.21536 0.19879,0.3893 0.36031,0.52183c0.16152,0.12839 0.36653,0.19258 0.61502,0.19258zM286.45632,231.78722c-0.32718,0 -0.61916,-0.08283 -0.87593,-0.24849c-0.25263,-0.1698 -0.45143,-0.41001 -0.59638,-0.72063c-0.14495,-0.31476 -0.21743,-0.68956 -0.21743,-1.12443c0,-0.439 0.07248,-0.81381 0.21743,-1.12442c0.1491,-0.31061 0.34996,-0.54875 0.60259,-0.71441c0.25678,-0.16566 0.54875,-0.24849 0.87593,-0.24849c0.25263,0 0.45557,0.04349 0.6088,0.13046c0.15324,0.08283 0.27127,0.18016 0.3541,0.29198c0.08697,0.10768 0.15324,0.20293 0.19879,0.28577h0.0497v-2.00036h0.78896v5.39227h-0.77032v-0.62744h-0.06834c-0.04556,0.08283 -0.11389,0.18016 -0.20501,0.29198c-0.08697,0.11182 -0.20915,0.20915 -0.36653,0.29198c-0.15324,0.08283 -0.35203,0.12425 -0.59638,0.12425zM286.63026,231.11629c0.22778,0 0.42036,-0.06005 0.57774,-0.18016c0.15738,-0.12011 0.27541,-0.28784 0.3541,-0.5032c0.08283,-0.21536 0.12425,-0.46592 0.12425,-0.75169c0,-0.27748 -0.04141,-0.52183 -0.12425,-0.73305c-0.07869,-0.21121 -0.19672,-0.3748 -0.3541,-0.49077c-0.15324,-0.12011 -0.34582,-0.18016 -0.57774,-0.18016c-0.23607,0 -0.43486,0.06212 -0.59638,0.18637c-0.15738,0.12011 -0.27541,0.28783 -0.3541,0.50319c-0.07869,0.21122 -0.11803,0.44936 -0.11803,0.71441c0,0.27334 0.03935,0.51769 0.11803,0.73305c0.08283,0.21536 0.20293,0.38723 0.36031,0.51562c0.16152,0.12425 0.35824,0.18637 0.59017,0.18637zM291.32743,231.78722c-0.39759,0 -0.74133,-0.0849 -1.03124,-0.2547c-0.28577,-0.17394 -0.50734,-0.41622 -0.66472,-0.72684c-0.15324,-0.31061 -0.22985,-0.67507 -0.22985,-1.09336c0,-0.41415 0.07662,-0.77861 0.22985,-1.09336c0.15738,-0.3189 0.37481,-0.56739 0.65229,-0.74548c0.28162,-0.17809 0.61088,-0.26713 0.98775,-0.26713c0.22778,0 0.44936,0.03935 0.66472,0.11803c0.21536,0.07455 0.40794,0.19258 0.57774,0.3541c0.1698,0.16152 0.30233,0.37067 0.39759,0.62744c0.0994,0.25677 0.1491,0.56945 0.1491,0.93805v0.27955h-3.21176v-0.59017h2.44143c0,-0.20708 -0.04349,-0.39137 -0.13046,-0.55289c-0.08283,-0.16152 -0.20086,-0.28783 -0.3541,-0.37894c-0.1491,-0.09526 -0.32511,-0.14288 -0.52805,-0.14288c-0.22364,0 -0.4183,0.05384 -0.58396,0.16152c-0.16152,0.10768 -0.28784,0.24849 -0.37895,0.42243c-0.08697,0.17394 -0.13046,0.36031 -0.13046,0.55911v0.46592c0,0.2692 0.04763,0.49905 0.14288,0.68956c0.0994,0.19051 0.234,0.33546 0.4038,0.43486c0.17394,0.09526 0.37481,0.14288 0.60259,0.14288c0.1491,0 0.28577,-0.02071 0.41001,-0.06212c0.12425,-0.04141 0.22985,-0.10561 0.31683,-0.19258c0.09111,-0.08697 0.15945,-0.19258 0.20501,-0.31683l0.74548,0.13046c-0.05798,0.2195 -0.16359,0.41208 -0.31683,0.57774c-0.15324,0.16152 -0.34582,0.28784 -0.57774,0.37895c-0.23193,0.09111 -0.49491,0.13667 -0.78896,0.13667z" fill="#000000" stroke-width="1" stroke-linecap="square"/></g></g></svg>