<svg version="1.1" xmlns="http://www.w3.org/2000/svg" xmlns:xlink="http://www.w3.org/1999/xlink" width="13.94144" height="13.90298" viewBox="0,0,13.94144,13.90298"><g transform="translate(-232.97451,-172.97257)"><g data-paper-data="{&quot;isPaintingLayer&quot;:true}" fill="#000000" fill-rule="nonzero" stroke="#000000" stroke-width="0.5" stroke-linecap="butt" stroke-linejoin="miter" stroke-miterlimit="10" stroke-dasharray="" stroke-dashoffset="0" style="mix-blend-mode: normal"><g><path d="M242.02163,173.22257c0.44441,0.02171 0.97013,0.26009 1.23561,0.55821c0.80213,0.91592 0.5094,2.31428 -0.59624,2.82368c-0.23838,0.1138 -0.38467,0.1409 -0.7099,0.14629c-0.35771,0 -0.46073,-0.0271 -0.77502,-0.17879c-0.40099,-0.2005 -0.6774,-0.4823 -0.86172,-0.88882l-0.1138,-0.26009l-3.38728,-0.01078l-3.38189,-0.01632l-0.10301,-0.13012c-0.15183,-0.18957 -0.13551,-0.46059 0.03789,-0.5961c0.1409,-0.1138 0.18971,-0.1138 3.4903,-0.1138h3.34386l0.09209,-0.23852c0.17339,-0.4498 0.63952,-0.8779 1.13274,-1.04051c0.13551,-0.04328 0.37942,-0.06499 0.59637,-0.05435zM241.66391,174.08983c-0.66662,0.23852 -0.87804,0.97013 -0.43902,1.49585c0.1951,0.22774 0.40099,0.32522 0.69911,0.32522c0.67201,0 1.11103,-0.61781 0.89961,-1.26271c-0.08131,-0.24392 -0.3685,-0.50414 -0.63952,-0.57453c-0.25484,-0.07052 -0.26563,-0.07052 -0.52018,0.01618z"/><path d="M245.69597,174.56148c0.72082,-0.00539 0.80752,0.00539 0.93763,0.10841c0.17339,0.13537 0.18971,0.40638 0.03789,0.5961c-0.09748,0.12458 -0.1409,0.12997 -0.82369,0.14629c-0.83462,0.02171 -1.04064,-0.00539 -1.18694,-0.16261c-0.18432,-0.2005 -0.1138,-0.54203 0.12458,-0.63952c0.06513,-0.0271 0.47691,-0.04881 0.91053,-0.04867z"/><path d="M237.76682,178.43106c0.58531,0.31969 0.93763,0.89422 0.93763,1.52834c0,0.42809 -0.0542,0.63937 -0.24392,0.96459c-0.39021,0.65583 -1.241,0.9917 -2.01064,0.78042c-0.49322,-0.13537 -0.9917,-0.60149 -1.17062,-1.09471l-0.07038,-0.2005h-0.86711c-0.81291,0 -0.87251,-0.00539 -0.9917,-0.11933c-0.15722,-0.14629 -0.168,-0.43349 -0.01632,-0.58517c0.09762,-0.09762 0.17893,-0.10841 0.99184,-0.10841h0.88343l0.07038,-0.20603c0.17339,-0.47151 0.54743,-0.85633 1.02972,-1.05143c0.39021,-0.15708 1.07854,-0.1138 1.45768,0.09223zM236.09233,179.62325c-0.12458,0.27641 -0.12458,0.48244 0,0.76424c0.41192,0.91053 1.79396,0.61241 1.79396,-0.38482c0,-0.37389 -0.26563,-0.75871 -0.61241,-0.88882c-0.46612,-0.17879 -0.96474,0.03803 -1.18154,0.5094z"/><path d="M243.18133,179.59629c3.30598,0 3.37636,0 3.48463,0.10841c0.14643,0.14643 0.1409,0.41731 -0.01078,0.57992l-0.1138,0.12458h-3.34926c-1.84263,0 -3.38728,-0.01618 -3.43609,-0.03249c-0.23838,-0.09223 -0.26009,-0.54743 -0.04328,-0.71543c0.07038,-0.04881 0.8508,-0.06499 3.46859,-0.06499z"/><path d="M242.12437,183.81266c0.81304,0.86725 0.53664,2.28718 -0.54189,2.8129c-0.57992,0.27627 -1.41993,0.17339 -1.88605,-0.23852c-0.20589,-0.18418 -0.49862,-0.60688 -0.5365,-0.76949l-0.03249,-0.16261l-2.84,-0.01632c-2.69896,-0.01618 -2.83986,-0.02171 -2.94826,-0.11919c-0.07591,-0.07052 -0.1138,-0.168 -0.1138,-0.30351c0,-0.13551 0.03789,-0.23299 0.1138,-0.30351c0.10841,-0.09748 0.24931,-0.10287 2.94826,-0.11919l2.83446,-0.01632l0.03249,-0.14629c0.0596,-0.23313 0.3956,-0.68833 0.63412,-0.85633c0.11919,-0.08131 0.3414,-0.1951 0.49862,-0.24931c0.61241,-0.21681 1.36573,-0.02171 1.83724,0.48769zM240.64498,184.0946c-0.5961,0.10301 -0.92671,0.80213 -0.64491,1.35494c0.15168,0.30351 0.39021,0.4498 0.7641,0.47691c0.37389,0.0271 0.65583,-0.10301 0.86172,-0.40653c0.26009,-0.37942 0.1409,-1.03512 -0.24392,-1.28442c-0.17893,-0.11933 -0.50401,-0.17893 -0.737,-0.1409z"/><path d="M245.12158,184.58229c1.30074,0 1.37665,0.00539 1.51216,0.1138c0.17339,0.13551 0.18971,0.40638 0.03789,0.5961l-0.10301,0.13012h-1.43624c-1.33323,0 -1.44164,-0.00553 -1.55005,-0.10301c-0.17339,-0.15708 -0.15708,-0.47691 0.0271,-0.6232c0.13551,-0.10841 0.21142,-0.1138 1.51216,-0.1138z"/></g></g></g></svg>