<svg version="1.1" xmlns="http://www.w3.org/2000/svg" xmlns:xlink="http://www.w3.org/1999/xlink" width="20.898" height="28.946" viewBox="0,0,20.898,28.946"><g transform="translate(-240.461,-151.931)"><g data-paper-data="{&quot;isPaintingLayer&quot;:true}" fill="#ffffff" fill-rule="nonzero" stroke="none" stroke-width="1" stroke-linecap="butt" stroke-linejoin="miter" stroke-miterlimit="10" stroke-dasharray="" stroke-dashoffset="0" style="mix-blend-mode: normal"><path d="M261.359,179.236c-2.07,1.094 -4.648,1.641 -7.734,1.641c-3.984,0 -7.174,-1.283 -9.57,-3.848c-2.396,-2.565 -3.594,-5.931 -3.594,-10.098c0,-4.479 1.348,-8.099 4.043,-10.859c2.695,-2.76 6.113,-4.141 10.254,-4.141c2.656,0 4.857,0.384 6.601,1.153v3.496c-2.005,-1.12 -4.218,-1.68 -6.64,-1.68c-3.216,0 -5.824,1.074 -7.823,3.223c-1.998,2.148 -2.998,5.019 -2.998,8.613c0,3.411 0.935,6.13 2.803,8.154c1.869,2.025 4.32,3.037 7.354,3.037c2.812,0 5.247,-0.625 7.304,-1.875z"/></g></g></svg>