<svg version="1.1" xmlns="http://www.w3.org/2000/svg" xmlns:xlink="http://www.w3.org/1999/xlink" width="439.12475" height="282.08989" viewBox="0,0,439.12475,282.08989"><g transform="translate(-20.43763,-38.95507)"><g data-paper-data="{&quot;isPaintingLayer&quot;:true}" fill-rule="nonzero" stroke-miterlimit="10" stroke-dasharray="" stroke-dashoffset="0" style="mix-blend-mode: normal"><path d="M27.93764,46.45507c0,0 33.63139,0 42.57014,0c90.6153,0 381.5546,0 381.5546,0v267.08989h-424.12475z" fill="#ffffff" stroke="#ffffff" stroke-width="15" stroke-linecap="round" stroke-linejoin="round"/><g fill="#005dc8" stroke="none" stroke-linejoin="miter"><path d="M194.46153,180.75695c3.76862,-0.16107 12.23286,-0.62043 16.69426,-11.41416c4.50347,-10.89548 -4.50907,-17.97762 -4.50907,-17.97762c0,0 -6.05864,-6.83354 -7.7255,-12.60807c-1.66684,-5.77453 0.20339,-13.19882 0.20339,-13.19882c0,0 0.55035,0.05301 0.83976,0.08642c4.19617,0.48419 10.35034,1.97482 16.45133,6.27153c5.26929,3.71092 11.83231,10.12372 14.4922,18.71022c7.10309,20.06607 -3.60276,38.12921 -15.59047,45.09927c-24.90822,14.48246 -45.36499,-0.87078 -51.47304,-10.88313c-13.17974,-21.60436 -3.61697,-40.38235 4.15653,-48.08861c7.42279,-7.35859 16.52279,-9.90788 21.94539,-10.79109c0.28015,-0.04566 0.81014,-0.12392 0.81014,-0.12392c0,0 2.88526,6.31374 -0.34895,14.5279c-3.34454,8.4943 -8.48537,12.72468 -8.48537,12.72468c0,0 -6.92098,7.80156 -1.44877,18.7506c3.40248,6.80779 11.24293,9.03218 13.98813,8.91488z" stroke-width="0" stroke-linecap="butt"/><path d="M240.98787,186.94086v-24.27933h6.06983v2.74784h0.86125c0.35543,-0.98429 0.94329,-1.70885 1.76353,-2.17365c0.84759,-0.46481 1.83188,-0.69721 2.95289,-0.69721h2.91189v5.49567h-3.03492c-1.55847,0 -2.84352,0.4238 -3.85516,1.27138c-1.01163,0.82026 -1.51745,2.09164 -1.51745,3.81416v13.82118zM263.00433,196.74281v-5.41363h13.20598c0.92961,0 1.39442,-0.47847 1.39442,-1.43544v-6.15187h-0.90228c-0.24608,0.57418 -0.6562,1.13467 -1.23037,1.68151c-0.54684,0.54684 -1.29872,1.01163 -2.25569,1.39442c-0.92961,0.35543 -2.13265,0.53316 -3.60908,0.53316c-1.88656,0 -3.54075,-0.43747 -4.9625,-1.3124c-1.42175,-0.87493 -2.5291,-2.07796 -3.322,-3.60908c-0.76556,-1.53113 -1.14835,-3.29467 -1.14835,-5.29059v-14.47738h6.15187v13.98522c0,1.83188 0.45114,3.21264 1.35341,4.14225c0.90227,0.90227 2.18733,1.35342 3.85516,1.35342c1.88656,0 3.34933,-0.62886 4.38832,-1.88656c1.03899,-1.2577 1.55847,-3.00758 1.55847,-5.24959v-12.34473h6.19286v28.58563c0,1.66783 -0.49214,2.99391 -1.47645,3.97819c-0.98429,1.01163 -2.28302,1.51746 -3.89617,1.51746zM288.37063,186.94086l8.81766,-12.26271l-8.73564,-12.01664h7.17717l5.53667,8.07944h0.86125l5.53667,-8.07944h7.13615l-8.69462,12.01664l8.81766,12.26271h-7.25919l-5.53667,-8.16146h-0.86125l-5.53667,8.16146z" stroke-width="1" stroke-linecap="square"/></g><text transform="translate(113.08848,240.78373) scale(0.5,0.5)" font-size="40" xml:space="preserve" fill="#7f888f" fill-rule="nonzero" stroke="none" stroke-width="1" stroke-linecap="butt" stroke-linejoin="miter" stroke-miterlimit="10" stroke-dasharray="" stroke-dashoffset="0" font-family="&quot;ヒラギノ角ゴ Pro W3&quot;, &quot;Hiragino Kaku Gothic Pro&quot;, Osaka, &quot;メイリオ&quot;, Meiryo, &quot;ＭＳ Ｐゴシック&quot;, &quot;MS PGothic&quot;" font-weight="normal" text-anchor="start" style="mix-blend-mode: normal"><tspan x="0" dy="0">Welcome to Oryx OS setup</tspan></text></g></g></svg>