<svg version="1.1" xmlns="http://www.w3.org/2000/svg" xmlns:xlink="http://www.w3.org/1999/xlink" width="693.96657" height="478.03156" viewBox="0,0,693.96657,478.03156"><defs><linearGradient x1="586.98324" y1="179.99997" x2="-106.98323" y2="179.99997" gradientUnits="userSpaceOnUse" id="color-1"><stop offset="0" stop-color="#171717" stop-opacity="0.54902"/><stop offset="1" stop-color="#171717" stop-opacity="0"/></linearGradient><linearGradient x1="-106.98321" y1="180.00005" x2="586.98331" y2="180.00005" gradientUnits="userSpaceOnUse" id="color-2"><stop offset="0" stop-color="#171717" stop-opacity="0.54902"/><stop offset="1" stop-color="#171717" stop-opacity="0"/></linearGradient><linearGradient x1="-106.98321" y1="180.00005" x2="586.98331" y2="180.00005" gradientUnits="userSpaceOnUse" id="color-3"><stop offset="0" stop-color="#171717" stop-opacity="0.54902"/><stop offset="1" stop-color="#171717" stop-opacity="0"/></linearGradient><linearGradient x1="586.98325" y1="179.99997" x2="-106.98324" y2="179.99997" gradientUnits="userSpaceOnUse" id="color-4"><stop offset="0" stop-color="#171717" stop-opacity="0.54902"/><stop offset="1" stop-color="#171717" stop-opacity="0"/></linearGradient><radialGradient cx="240.00001" cy="180.81274" r="346.98325" gradientUnits="userSpaceOnUse" id="color-5"><stop offset="0" stop-color="#535234" stop-opacity="0"/><stop offset="1" stop-color="#535234"/></radialGradient></defs><g transform="translate(106.98327,58.60941)"><g stroke-miterlimit="10"><path d="M581.44242,418.60943c-12.0443,0 -682.34153,0 -682.34153,0c-3.86499,0 -6.08416,-3.10162 -6.08416,-6.62814c0,-11.62498 0,-442.93023 0,-463.94091c0,-4.18129 2.09914,-6.64978 6.60686,-6.64978c25.51855,0 668.79436,0 681.64458,0c3.15268,0 5.71507,2.70781 5.71507,5.87151c0,11.43049 0,446.56674 0,465.88657c0,3.21754 -2.91982,5.46075 -5.54084,5.46075z" fill="url(#color-1)" stroke="none" stroke-width="0" stroke-linecap="butt" stroke-linejoin="miter"/><path d="M-101.44237,418.6095c-2.62102,0 -5.54084,-2.24321 -5.54084,-5.46075c0,-19.31983 0,-454.45608 0,-465.88657c0,-3.1637 2.56239,-5.87151 5.71507,-5.87151c12.85022,0 656.12603,0 681.64458,0c4.50772,0 6.60686,2.46849 6.60686,6.64978c0,21.01068 0,452.31593 0,463.94091c0,3.52652 -2.21917,6.62814 -6.08416,6.62814c0,0 -670.29723,0 -682.34153,0z" fill="url(#color-2)" stroke="none" stroke-width="0" stroke-linecap="butt" stroke-linejoin="miter"/><path d="M-101.44237,418.6095c-2.62102,0 -5.54084,-2.24321 -5.54084,-5.46075c0,-19.31983 0,-454.45608 0,-465.88657c0,-3.1637 2.56239,-5.87151 5.71507,-5.87151c12.85022,0 656.12603,0 681.64458,0c4.50772,0 6.60686,2.46849 6.60686,6.64978c0,21.01068 0,452.31593 0,463.94091c0,3.52652 -2.21917,6.62814 -6.08416,6.62814c0,0 -670.29723,0 -682.34153,0z" fill="url(#color-3)" stroke="none" stroke-width="0" stroke-linecap="butt" stroke-linejoin="miter"/><path d="M581.44244,418.60942c-12.0443,0 -682.34153,0 -682.34153,0c-3.86499,0 -6.08416,-3.10162 -6.08416,-6.62814c0,-11.62498 0,-442.93023 0,-463.94091c0,-4.18129 2.09914,-6.64978 6.60686,-6.64978c25.51855,0 668.79436,0 681.64458,0c3.15268,0 5.71507,2.70781 5.71507,5.87151c0,11.43049 0,446.56674 0,465.88657c0,3.21754 -2.91982,5.46075 -5.54084,5.46075z" fill="url(#color-4)" stroke="none" stroke-width="0" stroke-linecap="butt" stroke-linejoin="miter"/><path d="M581.44244,419.42215c-12.0443,0 -682.34153,0 -682.34153,0c-3.86499,0 -6.08416,-3.10162 -6.08416,-6.62814c0,-11.62498 0,-442.93023 0,-463.94091c0,-4.18129 2.09914,-6.64978 6.60686,-6.64978c25.51855,0 668.79436,0 681.64458,0c3.15268,0 5.71507,2.70781 5.71507,5.87151c0,11.43049 0,446.56674 0,465.88657c0,3.21754 -2.91982,5.46075 -5.54084,5.46075z" fill="url(#color-5)" stroke="none" stroke-width="0" stroke-linecap="butt" stroke-linejoin="miter"/><g><path d="M123.90878,107.39455c0,0 18.41099,0 23.30466,0c49.60627,0 208.87779,0 208.87779,0v145.21089c0,0 -147.78584,0 -188.60397,0c-19.62076,0 -43.57823,0 -43.57823,0z" fill="#4b4a34" stroke="#4b4a34" stroke-width="17" stroke-linecap="round" stroke-linejoin="round"/><text transform="translate(145.25676,130.04568) scale(0.57207,0.57207)" font-size="24" xml:space="preserve" fill="#ffffff" stroke="#ffffff" stroke-width="1" stroke-linecap="butt" stroke-linejoin="miter" font-family="Sans Serif" font-weight="400" text-anchor="start"><tspan x="0" dy="0">This feature never made it :(</tspan></text><text transform="translate(136.65121,152.09899) scale(0.32028,0.32028)" font-size="24" xml:space="preserve" fill="#ffffff" stroke="#000000" stroke-width="0" stroke-linecap="butt" stroke-linejoin="miter" font-family="Sans Serif" font-weight="bold" text-anchor="start"><tspan x="0" dy="0">This was a planned feature during the development of </tspan><tspan x="0" dy="28.799999999999997px">Oryx OS. Unfortunately, on April 2nd 2022, I decided to </tspan><tspan x="0" dy="28.799999999999997px">move on from Scratch due to increasing school priorities</tspan><tspan x="0" dy="28.799999999999997px">and also to focus on other programming languages.</tspan><tspan x="0" dy="28.799999999999997px"> </tspan><tspan x="0" dy="28.799999999999997px">But I promise you, one day I will release the unfinished</tspan><tspan x="0" dy="28.799999999999997px">Oryx OS 2...</tspan></text><g fill="#000000" stroke="none" stroke-width="1" stroke-linecap="butt" stroke-linejoin="miter" font-family="&quot;Helvetica Neue&quot;, Helvetica, Arial, sans-serif" font-weight="400" font-size="16" text-anchor="start"/></g><path d="M128.5,228v-114h221v114z" fill="#c3c189" stroke="none" stroke-width="0" stroke-linecap="butt" stroke-linejoin="miter"/><text transform="translate(173.24553,195.76875) scale(1.54009,1.54009)" font-size="40" xml:space="preserve" fill="#ffffff" stroke="none" stroke-width="1" stroke-linecap="butt" stroke-linejoin="miter" font-family="Segoe UI" font-weight="normal" text-anchor="start"><tspan x="0" dy="0">Error</tspan></text></g></g></svg>