<svg version="1.1" xmlns="http://www.w3.org/2000/svg" xmlns:xlink="http://www.w3.org/1999/xlink" width="27.149" height="36.055" viewBox="0,0,27.149,36.055"><g transform="translate(-240.414,-150.931)"><g data-paper-data="{&quot;isPaintingLayer&quot;:true}" fill="#ffffff" fill-rule="nonzero" stroke="none" stroke-width="1" stroke-linecap="butt" stroke-linejoin="miter" stroke-miterlimit="10" stroke-dasharray="" stroke-dashoffset="0" style="mix-blend-mode: normal"><path d="M253.344,179.877c-0.834,0 -1.68,-0.082 -2.539,-0.245c-0.86,-0.162 -1.693,-0.41 -2.5,-0.742c-0.808,-0.332 -1.579,-0.742 -2.315,-1.23c-0.735,-0.488 -1.403,-1.058 -2.002,-1.709c-2.383,-2.604 -3.574,-6.009 -3.574,-10.215c0,-4.518 1.211,-8.112 3.633,-10.781c2.448,-2.683 5.794,-4.024 10.039,-4.024c3.802,0 6.888,1.302 9.258,3.907c2.37,2.604 3.554,6.009 3.554,10.214c0,1.771 -0.198,3.441 -0.595,5.01c-0.397,1.569 -1,2.985 -1.807,4.248c-0.807,1.263 -1.823,2.334 -3.047,3.213c-1.224,0.879 -2.669,1.507 -4.336,1.885c0.677,0.729 1.312,1.374 1.905,1.933c0.592,0.56 1.184,1.032 1.777,1.416c0.592,0.385 1.208,0.674 1.846,0.87c0.638,0.195 1.341,0.293 2.109,0.293c0.208,0 0.436,-0.01 0.684,-0.03c0.247,-0.019 0.498,-0.052 0.752,-0.097c0.253,-0.046 0.498,-0.098 0.732,-0.157c0.234,-0.058 0.449,-0.127 0.645,-0.205v3.164c-0.209,0.065 -0.443,0.121 -0.704,0.166c-0.26,0.046 -0.524,0.085 -0.791,0.118c-0.267,0.032 -0.53,0.058 -0.791,0.078c-0.26,0.019 -0.501,0.029 -0.722,0.029c-1.25,0 -2.373,-0.186 -3.369,-0.557c-0.997,-0.371 -1.928,-0.879 -2.793,-1.523c-0.866,-0.645 -1.703,-1.397 -2.51,-2.256c-0.808,-0.859 -1.654,-1.784 -2.539,-2.773zM253.773,153.9c-2.942,0 -5.332,1.061 -7.168,3.184c-1.835,2.122 -2.753,4.908 -2.753,8.359c0,3.437 0.891,6.217 2.675,8.34c1.797,2.096 4.134,3.144 7.012,3.144c3.073,0 5.495,-1.002 7.266,-3.007c1.771,-2.006 2.656,-4.812 2.656,-8.418c0,-3.711 -0.859,-6.569 -2.578,-8.575c-1.719,-2.018 -4.089,-3.027 -7.11,-3.027z"/></g></g></svg>