<svg xmlns="http://www.w3.org/2000/svg" xmlns:xlink="http://www.w3.org/1999/xlink" version="1.1" width="16.917999267578125" height="36.64500045776367" viewBox="-0.4139999970793724 0.3450000286102295 16.917999267578125 36.64500045776367">
  <!-- Exported by Scratch - http://scratch.mit.edu/ -->
  <path id="path3182" fill="#000000" stroke="none" d="M 8.953 32.252 L 8.953 36.49 L 6.922 36.49 L 6.922 32.408 C 4.148 32.408 1.896 31.848 0.164 30.728 L 0.164 27.33 C 0.919 27.994 1.951 28.55 3.26 29 C 4.568 29.449 5.789 29.673 6.922 29.673 L 6.922 19.673 C 4.057 18.293 2.202 17.02 1.355 15.855 C 0.509 14.69 0.086 13.313 0.086 11.724 C 0.086 9.836 0.73 8.205 2.02 6.832 C 3.309 5.458 4.943 4.634 6.922 4.361 L 6.922 0.845 L 8.953 0.845 L 8.953 4.283 C 11.505 4.361 13.27 4.726 14.246 5.377 L 14.246 8.697 C 12.918 7.655 11.154 7.095 8.953 7.017 L 8.953 17.33 C 11.661 18.619 13.514 19.866 14.51 21.07 C 15.506 22.274 16.004 23.645 16.004 25.181 C 16.004 27.03 15.382 28.583 14.139 29.839 C 12.895 31.096 11.167 31.9 8.953 32.252 Z M 6.922 16.236 L 6.922 7.134 C 5.828 7.356 4.962 7.841 4.324 8.589 C 3.686 9.338 3.367 10.246 3.367 11.314 C 3.367 12.434 3.628 13.352 4.148 14.068 C 4.669 14.784 5.594 15.507 6.922 16.236 Z M 8.953 20.689 L 8.953 29.517 C 11.466 28.97 12.723 27.616 12.723 25.455 C 12.723 23.658 11.466 22.069 8.953 20.689 Z " stroke-width="1"/>
</svg>